<svg width="131" height="20" viewBox="0 0 131 20" fill="none" xmlns="http://www.w3.org/2000/svg">
<path fill-rule="evenodd" clip-rule="evenodd" d="M17.1241 10.168C16.7171 9.79236 15.2019 9.55443 15.0892 9.52939C14.3755 9.37286 14.2064 9.34156 13.5052 9.01598C12.3031 8.465 11.3138 7.38809 10.744 6.20475C10.5061 5.71638 10.3559 5.15288 10.2619 4.60817C10.2306 4.41407 10.1805 4.18241 9.92384 4.26381C9.71096 4.33268 9.72974 4.49547 9.69844 4.72087C9.54191 5.86039 8.82815 7.15643 8.01421 7.92655C6.31119 9.54817 4.6833 9.4793 4.49547 9.61705C4.43286 9.66713 4.38903 9.77357 4.41408 9.88627C4.46416 10.0866 4.69582 10.0741 4.88366 10.1054C5.42211 10.1993 5.99187 10.3809 6.46771 10.6188C7.13139 10.9444 7.60723 11.3075 8.08934 11.7834C9.67965 13.3674 9.64835 15.108 9.79235 15.2959C9.8487 15.3647 9.94888 15.4023 10.0678 15.3773C10.2557 15.3334 10.2432 15.0955 10.2745 14.8952C10.431 13.7744 11.1573 12.4784 11.965 11.702C12.5598 11.1322 13.2798 10.6564 14.0749 10.3746C15.0141 10.0428 15.1143 10.9757 15.1143 10.9757V12.9292C15.1143 13.7368 14.8701 14.4569 14.3692 15.0892C13.8683 15.7216 13.1921 16.2288 12.3469 16.6107C11.4954 16.9926 10.5312 17.1805 9.45425 17.1805C8.14569 17.1805 6.97486 16.8674 5.9543 16.2413C4.93375 15.6152 4.13858 14.7386 3.56882 13.6179C2.99906 12.4972 2.71731 11.1948 2.71731 9.7047C2.71731 8.21456 2.99907 6.88095 3.56257 5.77899C4.12606 4.6833 4.92122 3.83179 5.96056 3.22447C6.9999 2.6234 8.21456 2.31661 9.60452 2.31661C11.1009 2.31661 12.3156 2.63592 13.236 3.28081C14.0812 3.86936 14.6384 4.69582 14.9014 5.76647C14.9452 5.93552 15.1018 6.05448 15.2771 6.05448H17.2744C17.5248 6.05448 17.7126 5.82282 17.6563 5.5849C17.3996 4.48921 16.955 3.54378 16.3227 2.76114C15.6027 1.86581 14.676 1.17709 13.5365 0.707504C12.397 0.237922 11.0884 0 9.60452 0C7.70115 0 6.02317 0.40071 4.58312 1.20839C3.13681 2.01607 2.01607 3.14307 1.20839 4.59565C0.406971 6.04822 0 7.74498 0 9.67966C0 11.6143 0.381928 13.3111 1.14578 14.7637C1.90964 16.2162 2.98654 17.3495 4.37651 18.1509C5.76647 18.9586 7.36305 19.3593 9.17877 19.3593C10.5687 19.3593 11.7959 19.0838 12.8666 18.5328C13.9372 17.9819 14.676 17.2493 15.0767 16.3415H15.1957V18.6956C15.1957 18.9085 15.371 19.0776 15.5839 19.0776H17.362C17.5749 19.0776 17.7502 18.9023 17.7502 18.6956V11.8397C17.7502 11.1134 17.5373 10.5562 17.1178 10.168H17.1241Z" fill="white"/>
<path d="M30.6262 15.8466C29.4867 15.8466 28.4849 15.5898 27.6271 15.0827C26.7694 14.5755 26.0932 13.868 25.6111 12.9602C25.1289 12.0523 24.8848 11.0067 24.8848 9.81712C24.8848 8.62751 25.1352 7.53808 25.6298 6.63022C26.1245 5.72236 26.8257 5.01485 27.7336 4.51397C28.6352 4.01308 29.687 3.76263 30.8829 3.76263C31.8408 3.76263 32.6861 3.91916 33.4186 4.23848C34.1512 4.55779 34.7523 5.02112 35.2218 5.62218C35.6914 6.22325 35.9857 6.94953 36.1109 7.78852H33.8194C33.6941 7.12484 33.3748 6.60517 32.8677 6.24203C32.3605 5.87888 31.6968 5.69731 30.8766 5.69731C30.1128 5.69731 29.4491 5.86636 28.8793 6.1982C28.3096 6.53004 27.8713 7.00588 27.5583 7.62573C27.2515 8.24558 27.0949 8.97813 27.0949 9.82964C27.0949 10.6811 27.2515 11.4074 27.5645 12.0335C27.8776 12.6597 28.3221 13.148 28.8919 13.4986C29.4616 13.8493 30.1253 14.0183 30.8766 14.0183C31.4652 14.0183 31.9911 13.9244 32.4544 13.7303C32.9178 13.5362 33.2809 13.2732 33.5501 12.9351C33.8131 12.597 33.9508 12.2151 33.9508 11.7894V11.2509H30.6763V9.5291H34.4016C34.9651 9.5291 35.3846 9.66685 35.6789 9.94234C35.9732 10.2178 36.1109 10.6185 36.1109 11.1507V15.6712H34.0698V14.1936H33.9947C33.7317 14.7133 33.3059 15.1203 32.7111 15.4083C32.1163 15.6963 31.4214 15.8403 30.6199 15.8403L30.6262 15.8466Z" fill="white"/>
<path d="M41.7265 15.8339C40.5369 15.8339 39.6228 15.5209 38.9779 14.8822C38.333 14.2499 38.0137 13.3921 38.0137 12.3089V6.97446H40.1738V11.8706C40.1738 12.5468 40.3491 13.054 40.6934 13.3983C41.044 13.7427 41.5575 13.9118 42.2462 13.9118C42.9725 13.9118 43.5234 13.7302 43.9116 13.3608C44.2998 12.9914 44.4939 12.478 44.4939 11.808V6.9682H46.654V13.5048H47.7434V15.6649H45.527V14.2749H44.9197C44.5816 14.7758 44.1558 15.164 43.6487 15.4269C43.1415 15.6899 42.5029 15.8277 41.7265 15.8277V15.8339Z" fill="white"/>
<path d="M53.1227 15.8466C52.196 15.8466 51.3884 15.6588 50.6934 15.2894C50.0046 14.92 49.4725 14.3878 49.0968 13.7116C48.7211 13.0354 48.5396 12.2277 48.5396 11.3011C48.5396 10.3744 48.7211 9.57301 49.0905 8.90307C49.4599 8.23313 49.9796 7.71346 50.6558 7.35032C51.332 6.98717 52.1272 6.8056 53.035 6.8056C53.9429 6.8056 54.6879 6.97465 55.3266 7.31901C55.9652 7.66337 56.4598 8.15174 56.8042 8.79663C57.1548 9.44152 57.3239 10.1991 57.3239 11.0819V11.8333H50.612C50.6996 12.5658 50.9563 13.1293 51.3884 13.5238C51.8204 13.9119 52.3901 14.1123 53.1039 14.1123C53.6361 14.1123 54.0681 14.0121 54.3999 13.818C54.7318 13.6177 54.9697 13.3234 55.1012 12.929H57.2738C57.0734 13.8493 56.6038 14.5631 55.8776 15.0828C55.1513 15.6024 54.2246 15.8591 53.1164 15.8591L53.1227 15.8466ZM50.6746 10.3682H55.2514C55.1763 9.7671 54.9447 9.31004 54.5627 8.99699C54.1808 8.68393 53.6737 8.5274 53.035 8.5274C52.3964 8.5274 51.8892 8.68393 51.4823 9.00325C51.0753 9.32256 50.8061 9.77336 50.6683 10.3682H50.6746Z" fill="white"/>
<path d="M62.4577 15.8468C61.1993 15.8468 60.21 15.5838 59.4837 15.0579C58.7574 14.532 58.3693 13.7931 58.3066 12.8477H60.4104C60.4792 13.3048 60.6859 13.6366 61.0365 13.8558C61.3871 14.0749 61.888 14.1813 62.5454 14.1813C63.6536 14.1813 64.2109 13.862 64.2109 13.2234C64.2109 12.9542 64.1232 12.7475 63.9542 12.5973C63.7851 12.4533 63.5033 12.3406 63.1089 12.2654L61.1805 11.9023C59.49 11.5767 58.6447 10.769 58.6447 9.49803C58.6447 8.67783 58.9703 8.02041 59.6152 7.53205C60.2601 7.04368 61.1492 6.7995 62.2824 6.7995C63.4157 6.7995 64.3423 7.04994 65.0123 7.54457C65.6822 8.0392 66.0579 8.7467 66.133 9.65456H64.0481C63.9416 9.22255 63.7413 8.90323 63.447 8.70287C63.1527 8.50252 62.727 8.4086 62.176 8.4086C61.6814 8.4086 61.3057 8.48374 61.0427 8.64026C60.7798 8.79679 60.6546 9.02219 60.6546 9.32272C60.6546 9.54812 60.7359 9.72343 60.8987 9.86118C61.0615 9.99892 61.3245 10.0991 61.6814 10.168L63.6348 10.5436C64.5239 10.7189 65.1751 11.007 65.5883 11.4139C66.0015 11.8209 66.2144 12.3656 66.2144 13.0543C66.2144 13.9309 65.8888 14.6196 65.2439 15.1142C64.599 15.6089 63.6661 15.853 62.4452 15.853L62.4577 15.8468Z" fill="white"/>
<path d="M70.2401 15.6714C69.6703 15.6714 69.2258 15.5274 68.9127 15.2394C68.5997 14.9513 68.4431 14.5068 68.4431 13.9183V8.65894H66.9092V6.97471H68.4619V4.36383H70.5782V6.97471H72.6819V8.65894H70.6095V13.9809H72.8823V15.6776H70.2463L70.2401 15.6714Z" fill="white"/>
<path d="M78.6929 15.6714V3.93182H84.1839C85.4987 3.93182 86.5192 4.2574 87.2393 4.91482C87.9656 5.57223 88.3287 6.47383 88.3287 7.62587C88.3287 8.77791 87.9656 9.66699 87.233 10.3307C86.5067 10.9943 85.4862 11.3262 84.1839 11.3262H80.9093V15.6714H78.6929ZM80.9093 9.42281H84.0524C84.7286 9.42281 85.242 9.26628 85.5926 8.94696C85.9432 8.62765 86.1248 8.18937 86.1248 7.62587C86.1248 7.06237 85.9495 6.61157 85.5926 6.29852C85.2357 5.98546 84.7286 5.82894 84.0524 5.82894H80.9093V9.42281Z" fill="white"/>
<path d="M90.4701 15.6713V9.13476H89.3994V6.97468H91.6033V8.65891H92.2106C92.4486 8.07663 92.8242 7.63835 93.3251 7.33782C93.826 7.03729 94.402 6.88702 95.0469 6.88702H95.7732V8.74031H94.9467C94.1516 8.74031 93.563 8.96571 93.1811 9.42277C92.7929 9.87983 92.5988 10.4809 92.5988 11.2322V15.6651H90.4701V15.6713Z" fill="white"/>
<path d="M101.045 15.8466C100.106 15.8466 99.2919 15.6588 98.6032 15.2894C97.9145 14.92 97.376 14.3941 96.9941 13.7179C96.6121 13.0417 96.4243 12.2465 96.4243 11.3261C96.4243 10.4057 96.6121 9.59805 96.9941 8.92185C97.376 8.24566 97.9145 7.72598 98.6094 7.35658C99.3044 6.98718 100.118 6.8056 101.045 6.8056C101.972 6.8056 102.804 6.98718 103.487 7.35658C104.169 7.72598 104.695 8.24566 105.071 8.92185C105.447 9.59805 105.634 10.3995 105.634 11.3261C105.634 12.2528 105.447 13.0417 105.071 13.7241C104.695 14.4066 104.163 14.9325 103.474 15.2957C102.786 15.6651 101.978 15.8466 101.039 15.8466H101.045ZM101.045 13.962C101.815 13.962 102.416 13.7304 102.842 13.2608C103.268 12.7912 103.481 12.1463 103.481 11.3261C103.481 10.5059 103.268 9.8485 102.842 9.38517C102.416 8.92185 101.815 8.69019 101.045 8.69019C100.275 8.69019 99.655 8.92185 99.223 9.38517C98.791 9.8485 98.5781 10.4934 98.5781 11.3136C98.5781 12.1338 98.791 12.7975 99.223 13.2608C99.655 13.7304 100.262 13.962 101.045 13.962Z" fill="white"/>
<path d="M107.913 15.6714V8.65896H106.292V6.97473H107.932V5.27797C107.932 4.67064 108.095 4.21984 108.42 3.93183C108.746 3.64382 109.197 3.49982 109.779 3.49982H112.24V5.18405H110.048V6.98099H112.064V8.66522H110.079V15.6776H107.919L107.913 15.6714ZM114.494 6.01678C114.155 6.01678 113.867 5.89782 113.63 5.65989C113.392 5.42197 113.273 5.13396 113.273 4.79586C113.273 4.45776 113.392 4.16975 113.63 3.93183C113.867 3.69391 114.155 3.57495 114.494 3.57495C114.832 3.57495 115.12 3.69391 115.358 3.93183C115.595 4.16975 115.714 4.45776 115.714 4.79586C115.714 5.13396 115.595 5.42197 115.358 5.65989C115.12 5.89782 114.832 6.01678 114.494 6.01678ZM113.404 15.6714V6.97473H115.564V15.6714H113.404Z" fill="white"/>
<path d="M117.662 15.6714V3.49982H119.822V15.6714H117.662Z" fill="white"/>
<path d="M125.92 15.8466C124.993 15.8466 124.186 15.6588 123.491 15.2894C122.796 14.92 122.27 14.3878 121.894 13.7116C121.525 13.0291 121.337 12.2277 121.337 11.3011C121.337 10.3744 121.518 9.57301 121.888 8.90307C122.257 8.23313 122.777 7.71346 123.453 7.35032C124.129 6.98717 124.925 6.8056 125.832 6.8056C126.74 6.8056 127.485 6.97465 128.124 7.31901C128.763 7.66337 129.251 8.15174 129.602 8.79663C129.952 9.44152 130.121 10.1991 130.121 11.0819V11.8333H123.409C123.497 12.5658 123.754 13.1293 124.186 13.5238C124.618 13.9182 125.187 14.1123 125.901 14.1123C126.433 14.1123 126.865 14.0121 127.197 13.818C127.529 13.6177 127.767 13.3234 127.899 12.929H130.071C129.871 13.8493 129.401 14.5631 128.675 15.0828C127.949 15.6024 127.028 15.8591 125.914 15.8591L125.92 15.8466ZM123.472 10.3682H128.049C127.974 9.7671 127.742 9.31004 127.36 8.99699C126.978 8.68393 126.471 8.5274 125.832 8.5274C125.194 8.5274 124.687 8.68393 124.28 9.00325C123.873 9.32256 123.603 9.77336 123.466 10.3682H123.472Z" fill="white"/>
</svg>
