<svg width="125" height="19" viewBox="0 0 125 19" fill="none" xmlns="http://www.w3.org/2000/svg">
<path d="M9.52261 15.16H5.95584C5.66421 14.4133 5.41746 13.8053 5.21556 13.336C5.01367 12.856 4.83421 12.4773 4.67718 12.2C4.53137 11.9227 4.37995 11.72 4.22292 11.592C4.07711 11.464 3.89765 11.384 3.68454 11.352C3.48265 11.32 3.22468 11.304 2.91062 11.304L3.73502 10.824C4.43042 10.824 5.00806 10.8453 5.46793 10.888C5.9278 10.92 6.31476 11.0107 6.62881 11.16C6.94287 11.2987 7.2401 11.5227 7.5205 11.832C7.80091 12.1307 8.09253 12.552 8.39537 13.096C8.70943 13.6293 9.08517 14.3173 9.52261 15.16ZM3.90326 11.288H2.72555L2.70873 9.496H3.88644C4.54819 9.496 5.05293 9.35733 5.40063 9.08C5.75955 8.80267 5.93901 8.376 5.93901 7.8C5.93901 7.288 5.78198 6.89867 5.46793 6.632C5.15387 6.36533 4.64353 6.232 3.93691 6.232H2.59096V3.96H3.56677C4.87907 3.96 5.9278 4.104 6.71293 4.392C7.49807 4.66933 8.06449 5.07467 8.4122 5.608C8.7599 6.13067 8.93375 6.76 8.93375 7.496C8.93375 8.36 8.72625 9.07467 8.31125 9.64C7.89625 10.2053 7.3074 10.6213 6.54469 10.888C5.7932 11.1547 4.91272 11.288 3.90326 11.288ZM2.97792 15.16H0V3.96H2.97792V15.16Z" fill="white"/>
<path d="M14.1228 15.32C13.2142 15.32 12.4179 15.1653 11.7337 14.856C11.0607 14.5467 10.5392 14.0773 10.169 13.448C9.7989 12.8187 9.61383 12.0347 9.61383 11.096C9.61383 10.1467 9.81011 9.34133 10.2027 8.68C10.5953 8.008 11.1392 7.496 11.8346 7.144C12.5413 6.78133 13.3545 6.6 14.2742 6.6C15.1939 6.6 15.9903 6.76 16.6632 7.08C17.3362 7.4 17.8578 7.88533 18.2279 8.536C18.5981 9.176 18.7831 9.992 18.7831 10.984C18.7831 11.88 18.5812 12.6533 18.1774 13.304C17.7849 13.9547 17.2409 14.456 16.5455 14.808C15.8501 15.1493 15.0425 15.32 14.1228 15.32ZM14.1228 13.176C14.4593 13.176 14.7453 13.096 14.9808 12.936C15.2276 12.7653 15.4182 12.52 15.5528 12.2C15.6874 11.88 15.7547 11.48 15.7547 11C15.7547 10.4773 15.6987 10.0507 15.5865 9.72C15.4743 9.38933 15.3061 9.144 15.0818 8.984C14.8686 8.81333 14.5995 8.728 14.2742 8.728C13.9377 8.728 13.6461 8.81333 13.3993 8.984C13.1638 9.144 12.9787 9.38933 12.8441 9.72C12.7095 10.0507 12.6422 10.4773 12.6422 11C12.6422 11.48 12.6927 11.88 12.7936 12.2C12.9058 12.52 13.074 12.7653 13.2984 12.936C13.5227 13.096 13.7975 13.176 14.1228 13.176Z" fill="white"/>
<path d="M24.2969 15.304C23.7249 15.304 23.2089 15.2293 22.7491 15.08C22.2892 14.9307 21.9023 14.712 21.5882 14.424C21.2629 14.104 21.0162 13.6987 20.8479 13.208C20.6909 12.7067 20.6124 12.024 20.6124 11.16V7.624L21.0666 5.08H23.5567V11.288C23.5567 11.992 23.68 12.472 23.9268 12.728C24.1848 12.9733 24.5212 13.096 24.9363 13.096C25.1494 13.096 25.3344 13.0907 25.4915 13.08C25.6597 13.0693 25.8279 13.0533 25.9962 13.032L25.8448 15.16C25.6317 15.2027 25.3793 15.2347 25.0877 15.256C24.8073 15.288 24.5437 15.304 24.2969 15.304ZM21.6723 6.76H25.8448V8.888H19.401V7.048L21.6723 6.76Z" fill="white"/>
<path d="M34.7392 15.16H32.2997L31.98 13.448V10.312C31.98 9.74667 31.7669 9.37333 31.3407 9.192C30.9145 9 30.3032 8.904 29.5068 8.904C29.2264 8.904 28.9348 8.91467 28.632 8.936C28.3291 8.95733 27.9702 8.98933 27.5552 9.032L27.7066 6.76C28.1777 6.70667 28.6039 6.66933 28.9853 6.648C29.3666 6.616 29.776 6.6 30.2135 6.6C31.2229 6.6 32.0641 6.71733 32.7371 6.952C33.4101 7.176 33.9092 7.56533 34.2345 8.12C34.571 8.664 34.7392 9.40533 34.7392 10.344V15.16ZM29.3386 15.32C28.5647 15.32 27.959 15.112 27.5216 14.696C27.0841 14.28 26.8654 13.7093 26.8654 12.984C26.8654 12.312 27.0673 11.752 27.4711 11.304C27.8749 10.8453 28.531 10.4827 29.4395 10.216C30.3593 9.94933 31.5818 9.77333 33.1073 9.688L33.0904 11.352C32.1034 11.4053 31.3519 11.4907 30.836 11.608C30.3312 11.7147 29.9947 11.8533 29.8265 12.024C29.6583 12.1947 29.5741 12.3973 29.5741 12.632C29.5741 12.8773 29.647 13.0587 29.7929 13.176C29.9387 13.2827 30.1349 13.336 30.3817 13.336C30.6621 13.336 30.9201 13.2613 31.1556 13.112C31.4024 12.9627 31.6043 12.7547 31.7613 12.488C31.9183 12.2107 31.9912 11.8853 31.98 11.512H32.6698C32.6698 12.344 32.5296 13.0427 32.2492 13.608C31.9688 14.1733 31.5762 14.6 31.0715 14.888C30.578 15.176 30.0004 15.32 29.3386 15.32Z" fill="white"/>
<path d="M38.8059 15.288C38.3909 15.288 37.9927 15.2773 37.6113 15.256C37.2412 15.2347 36.8654 15.2027 36.4841 15.16L36.3663 13.112C36.7252 13.1653 37.0617 13.208 37.3758 13.24C37.7011 13.2613 38.0263 13.272 38.3516 13.272C38.8451 13.272 39.2433 13.2293 39.5461 13.144C39.8602 13.048 40.0172 12.8933 40.0172 12.68C40.0172 12.584 39.9892 12.4987 39.9331 12.424C39.8882 12.3387 39.7649 12.2427 39.563 12.136C39.3723 12.0293 39.0694 11.9067 38.6544 11.768C38.0712 11.5547 37.5945 11.3307 37.2244 11.096C36.8542 10.8613 36.585 10.5893 36.4168 10.28C36.2598 9.96 36.1813 9.57067 36.1813 9.112C36.1813 8.38667 36.5065 7.78933 37.1571 7.32C37.8188 6.84 38.7778 6.6 40.034 6.6C40.449 6.6 40.836 6.616 41.1949 6.648C41.5651 6.66933 41.9408 6.70667 42.3222 6.76L42.4399 8.792C42.1034 8.73867 41.7838 8.696 41.4809 8.664C41.1781 8.632 40.8472 8.616 40.4883 8.616C40.0284 8.616 39.6976 8.65867 39.4957 8.744C39.2938 8.82933 39.1928 8.96267 39.1928 9.144C39.1928 9.25067 39.2209 9.34667 39.2769 9.432C39.3442 9.50667 39.4788 9.59733 39.6807 9.704C39.8938 9.81067 40.2079 9.93333 40.6229 10.072C41.2622 10.296 41.7557 10.5307 42.1034 10.776C42.4511 11.0213 42.6923 11.288 42.8269 11.576C42.9615 11.864 43.0288 12.2 43.0288 12.584C43.0288 13.4693 42.6474 14.1413 41.8847 14.6C41.1332 15.0587 40.1069 15.288 38.8059 15.288Z" fill="white"/>
<path d="M52.6192 15.16H50.1629L49.7086 12.808V3H52.6192V15.16ZM48.3626 6.632C48.8001 6.632 49.2656 6.69067 49.7591 6.808C50.2526 6.91467 50.7012 7.08 51.105 7.304L49.86 9.064C49.6581 8.97867 49.4674 8.92 49.288 8.888C49.1085 8.856 48.9179 8.84 48.716 8.84C48.1888 8.84 47.7514 9.01067 47.4037 9.352C47.0672 9.69333 46.8989 10.2427 46.8989 11C46.8989 11.6293 47.0223 12.0987 47.2691 12.408C47.527 12.7173 47.8579 12.872 48.2617 12.872C48.587 12.872 48.8674 12.7973 49.1029 12.648C49.3385 12.488 49.5404 12.28 49.7086 12.024L50.533 12.664C50.2077 13.528 49.7759 14.1893 49.2375 14.648C48.7103 15.096 48.0205 15.32 47.1681 15.32C46.1811 15.32 45.3847 14.9787 44.779 14.296C44.1734 13.6027 43.8705 12.6107 43.8705 11.32C43.8705 10.3067 44.0556 9.45333 44.4257 8.76C44.8071 8.056 45.3343 7.528 46.0072 7.176C46.6802 6.81333 47.4653 6.632 48.3626 6.632Z" fill="white"/>
<path d="M61.9474 15.16H59.5079L59.1882 13.448V10.312C59.1882 9.74667 58.9751 9.37333 58.5489 9.192C58.1227 9 57.5114 8.904 56.715 8.904C56.4346 8.904 56.143 8.91467 55.8402 8.936C55.5373 8.95733 55.1784 8.98933 54.7634 9.032L54.9148 6.76C55.3859 6.70667 55.8121 6.66933 56.1935 6.648C56.5748 6.616 56.9842 6.6 57.4217 6.6C58.4311 6.6 59.2723 6.71733 59.9453 6.952C60.6183 7.176 61.1174 7.56533 61.4427 8.12C61.7792 8.664 61.9474 9.40533 61.9474 10.344V15.16ZM56.5468 15.32C55.7729 15.32 55.1672 15.112 54.7298 14.696C54.2923 14.28 54.0736 13.7093 54.0736 12.984C54.0736 12.312 54.2755 11.752 54.6793 11.304C55.0831 10.8453 55.7392 10.4827 56.6477 10.216C57.5675 9.94933 58.79 9.77333 60.3155 9.688L60.2986 11.352C59.3116 11.4053 58.5601 11.4907 58.0442 11.608C57.5394 11.7147 57.2029 11.8533 57.0347 12.024C56.8665 12.1947 56.7823 12.3973 56.7823 12.632C56.7823 12.8773 56.8552 13.0587 57.0011 13.176C57.1469 13.2827 57.3431 13.336 57.5899 13.336C57.8703 13.336 58.1283 13.2613 58.3638 13.112C58.6106 12.9627 58.8125 12.7547 58.9695 12.488C59.1265 12.2107 59.1994 11.8853 59.1882 11.512H59.878C59.878 12.344 59.7378 13.0427 59.4574 13.608C59.177 14.1733 58.7844 14.6 58.2797 14.888C57.7862 15.176 57.2086 15.32 56.5468 15.32Z" fill="white"/>
<path d="M65.7953 15.16H64.4326V3.96H65.7953V15.16Z" fill="white"/>
<path d="M70.0499 14.904L68.7208 15.16V3H70.0499V14.904ZM71.766 15.288C71.3735 15.288 70.9865 15.2507 70.6051 15.176C70.2238 15.1013 69.8424 14.984 69.4611 14.824L70.0163 13.864C70.2967 13.992 70.5883 14.0827 70.8912 14.136C71.194 14.1893 71.4744 14.216 71.7324 14.216C72.596 14.216 73.2971 13.9387 73.8354 13.384C74.3738 12.8293 74.643 11.9973 74.643 10.888C74.643 9.94933 74.4411 9.24 74.0373 8.76C73.6448 8.28 73.112 8.04 72.439 8.04C71.9231 8.04 71.4632 8.19467 71.0594 8.504C70.6556 8.80267 70.3191 9.272 70.0499 9.912L69.5957 9.48C69.8761 8.66933 70.2911 8.04 70.8407 7.592C71.4015 7.13333 72.0801 6.904 72.8764 6.904C73.8186 6.904 74.5813 7.23467 75.1646 7.896C75.7478 8.55733 76.0394 9.54933 76.0394 10.872C76.0394 11.8107 75.8544 12.6107 75.4842 13.272C75.1253 13.9333 74.6262 14.4347 73.9869 14.776C73.3587 15.1173 72.6185 15.288 71.766 15.288Z" fill="white"/>
<path d="M78.2338 15.16V7.064H79.563V15.16H78.2338ZM78.9068 5.512C78.6264 5.512 78.4021 5.43733 78.2338 5.288C78.0656 5.128 77.9815 4.92 77.9815 4.664C77.9815 4.39733 78.0656 4.18933 78.2338 4.04C78.4021 3.89067 78.6264 3.816 78.9068 3.816C79.176 3.816 79.3947 3.89067 79.563 4.04C79.7312 4.18933 79.8153 4.39733 79.8153 4.664C79.8153 4.92 79.7312 5.128 79.563 5.288C79.3947 5.43733 79.176 5.512 78.9068 5.512Z" fill="white"/>
<path d="M88.3609 15.16H87.2673L87.0655 13.176V10.136C87.0655 9.38933 86.8355 8.856 86.3757 8.536C85.927 8.20533 85.2428 8.04 84.3231 8.04C84.009 8.04 83.7062 8.05067 83.4146 8.072C83.1342 8.08267 82.8033 8.10933 82.4219 8.152L82.5229 7.064C82.8594 7.02133 83.1958 6.99467 83.5323 6.984C83.8688 6.96267 84.2109 6.952 84.5586 6.952C85.3998 6.952 86.1065 7.05867 86.6785 7.272C87.2505 7.48533 87.6711 7.82667 87.9403 8.296C88.2207 8.75467 88.3609 9.352 88.3609 10.088V15.16ZM84.2053 15.304C83.4426 15.304 82.8425 15.128 82.4051 14.776C81.9789 14.424 81.7658 13.9173 81.7658 13.256C81.7658 12.68 81.9452 12.1947 82.3042 11.8C82.6631 11.3947 83.2687 11.064 84.1212 10.808C84.9736 10.552 86.1289 10.3707 87.587 10.264V11.08C86.3981 11.1867 85.4727 11.3307 84.811 11.512C84.1604 11.6933 83.7062 11.912 83.4482 12.168C83.2015 12.424 83.0781 12.728 83.0781 13.08C83.0781 13.528 83.2127 13.848 83.4819 14.04C83.7623 14.232 84.1268 14.328 84.5754 14.328C85.0129 14.328 85.4167 14.2213 85.7868 14.008C86.1682 13.7947 86.4766 13.4693 86.7121 13.032C86.9477 12.5947 87.0655 12.024 87.0655 11.32L87.6207 11.304C87.6207 12.1787 87.4692 12.9147 87.1664 13.512C86.8636 14.1093 86.4542 14.5573 85.9382 14.856C85.4223 15.1547 84.8446 15.304 84.2053 15.304Z" fill="white"/>
<path d="M92.6249 19H91.2957V7.064H92.3893L92.6249 9.208V19ZM94.341 15.288C93.9484 15.288 93.5614 15.2453 93.1801 15.16C92.7987 15.0853 92.4174 14.9733 92.036 14.824L92.5912 13.864C92.8716 13.992 93.1632 14.0827 93.4661 14.136C93.7689 14.1893 94.0493 14.216 94.3073 14.216C95.171 14.216 95.872 13.9387 96.4104 13.384C96.9487 12.8187 97.2179 11.9867 97.2179 10.888C97.2179 9.94933 97.016 9.24 96.6123 8.76C96.2197 8.26933 95.6869 8.024 95.0139 8.024C94.498 8.024 94.0381 8.17867 93.6343 8.488C93.2305 8.79733 92.8941 9.26667 92.6249 9.896L92.1706 9.48C92.451 8.66933 92.866 8.04 93.4156 7.592C93.9764 7.13333 94.655 6.904 95.4514 6.904C96.3935 6.904 97.1562 7.23467 97.7395 7.896C98.3227 8.55733 98.6143 9.544 98.6143 10.856C98.6143 11.8053 98.4293 12.6107 98.0592 13.272C97.7002 13.9333 97.2011 14.4347 96.5618 14.776C95.9337 15.1173 95.1934 15.288 94.341 15.288Z" fill="white"/>
<path d="M106.68 15.16H105.587L105.385 13.176V10.136C105.385 9.38933 105.155 8.856 104.695 8.536C104.247 8.20533 103.562 8.04 102.643 8.04C102.329 8.04 102.026 8.05067 101.734 8.072C101.454 8.08267 101.123 8.10933 100.741 8.152L100.842 7.064C101.179 7.02133 101.515 6.99467 101.852 6.984C102.188 6.96267 102.53 6.952 102.878 6.952C103.719 6.952 104.426 7.05867 104.998 7.272C105.57 7.48533 105.991 7.82667 106.26 8.296C106.54 8.75467 106.68 9.352 106.68 10.088V15.16ZM102.525 15.304C101.762 15.304 101.162 15.128 100.725 14.776C100.298 14.424 100.085 13.9173 100.085 13.256C100.085 12.68 100.265 12.1947 100.624 11.8C100.983 11.3947 101.588 11.064 102.441 10.808C103.293 10.552 104.448 10.3707 105.907 10.264V11.08C104.718 11.1867 103.792 11.3307 103.131 11.512C102.48 11.6933 102.026 11.912 101.768 12.168C101.521 12.424 101.398 12.728 101.398 13.08C101.398 13.528 101.532 13.848 101.801 14.04C102.082 14.232 102.446 14.328 102.895 14.328C103.332 14.328 103.736 14.2213 104.106 14.008C104.488 13.7947 104.796 13.4693 105.032 13.032C105.267 12.5947 105.385 12.024 105.385 11.32L105.94 11.304C105.94 12.1787 105.789 12.9147 105.486 13.512C105.183 14.1093 104.774 14.5573 104.258 14.856C103.742 15.1547 103.164 15.304 102.525 15.304Z" fill="white"/>
<path d="M110.944 14.904L109.615 15.16V3H110.944V14.904ZM112.66 15.288C112.268 15.288 111.881 15.2507 111.5 15.176C111.118 15.1013 110.737 14.984 110.356 14.824L110.911 13.864C111.191 13.992 111.483 14.0827 111.786 14.136C112.088 14.1893 112.369 14.216 112.627 14.216C113.49 14.216 114.192 13.9387 114.73 13.384C115.268 12.8293 115.537 11.9973 115.537 10.888C115.537 9.94933 115.336 9.24 114.932 8.76C114.539 8.28 114.006 8.04 113.333 8.04C112.818 8.04 112.358 8.19467 111.954 8.504C111.55 8.80267 111.214 9.272 110.944 9.912L110.49 9.48C110.771 8.66933 111.186 8.04 111.735 7.592C112.296 7.13333 112.975 6.904 113.771 6.904C114.713 6.904 115.476 7.23467 116.059 7.896C116.642 8.55733 116.934 9.54933 116.934 10.872C116.934 11.8107 116.749 12.6107 116.379 13.272C116.02 13.9333 115.521 14.4347 114.881 14.776C114.253 15.1173 113.513 15.288 112.66 15.288Z" fill="white"/>
<path d="M125 15.16H123.906L123.705 13.176V10.136C123.705 9.38933 123.475 8.856 123.015 8.536C122.566 8.20533 121.882 8.04 120.962 8.04C120.648 8.04 120.345 8.05067 120.054 8.072C119.773 8.08267 119.442 8.10933 119.061 8.152L119.162 7.064C119.498 7.02133 119.835 6.99467 120.171 6.984C120.508 6.96267 120.85 6.952 121.198 6.952C122.039 6.952 122.746 7.05867 123.318 7.272C123.89 7.48533 124.31 7.82667 124.579 8.296C124.86 8.75467 125 9.352 125 10.088V15.16ZM120.844 15.304C120.082 15.304 119.482 15.128 119.044 14.776C118.618 14.424 118.405 13.9173 118.405 13.256C118.405 12.68 118.584 12.1947 118.943 11.8C119.302 11.3947 119.908 11.064 120.76 10.808C121.613 10.552 122.768 10.3707 124.226 10.264V11.08C123.037 11.1867 122.112 11.3307 121.45 11.512C120.8 11.6933 120.345 11.912 120.087 12.168C119.841 12.424 119.717 12.728 119.717 13.08C119.717 13.528 119.852 13.848 120.121 14.04C120.401 14.232 120.766 14.328 121.215 14.328C121.652 14.328 122.056 14.2213 122.426 14.008C122.807 13.7947 123.116 13.4693 123.351 13.032C123.587 12.5947 123.705 12.024 123.705 11.32L124.26 11.304C124.26 12.1787 124.108 12.9147 123.805 13.512C123.503 14.1093 123.093 14.5573 122.577 14.856C122.061 15.1547 121.484 15.304 120.844 15.304Z" fill="white"/>
</svg>
