<svg width="130" height="12" viewBox="0 0 130 12" fill="none" xmlns="http://www.w3.org/2000/svg">
<path d="M47.6514 11.5416C47.1243 11.5913 46.6313 11.6646 46.1379 11.6673C43.8113 11.6799 41.4846 11.6731 39.158 11.6732C39.0488 11.6732 38.9397 11.6732 38.8001 11.6732C38.8001 8.22689 38.8001 4.80491 38.8001 1.33837C38.8959 1.33135 39.0128 1.31538 39.1296 1.31532C41.3874 1.31417 43.6453 1.30541 45.9031 1.31987C46.8042 1.32564 47.6846 1.46922 48.4677 1.96378C49.3241 2.50458 49.6845 3.29736 49.553 4.28698C49.4186 5.29765 48.8601 5.96947 47.8428 6.21643C47.7782 6.23211 47.7172 6.26291 47.7131 6.26446C48.1976 6.46312 48.7683 6.59471 49.22 6.90169C50.5458 7.80289 50.504 9.97039 49.1459 10.9008C48.7164 11.1951 48.1753 11.3267 47.6514 11.5416ZM45.8142 7.11238C44.06 7.11238 42.3059 7.11238 40.5419 7.11238C40.5419 8.16408 40.5419 9.16089 40.5419 10.1661C40.6328 10.1779 40.6998 10.1942 40.7667 10.1942C42.5267 10.1946 44.2869 10.2072 46.0465 10.1827C46.5071 10.1762 46.9797 10.1004 47.4225 9.97245C48.0437 9.79291 48.3433 9.31528 48.345 8.66426C48.3468 8.00706 48.0585 7.53009 47.4323 7.35337C46.9364 7.21341 46.408 7.1886 45.8142 7.11238ZM43.8403 2.79907C42.744 2.79907 41.6477 2.79907 40.5466 2.79907C40.5466 3.78596 40.5466 4.72689 40.5466 5.67422C42.3648 5.67422 44.153 5.67666 45.9411 5.67089C46.146 5.67023 46.3545 5.64043 46.5548 5.5952C47.1121 5.46933 47.6104 5.25714 47.7641 4.62511C47.9855 3.71444 47.5354 3.00905 46.5575 2.89899C45.6866 2.80097 44.8016 2.8275 43.8403 2.79907Z" fill="white"/>
<path d="M99.361 7.84236C99.3611 6.49682 99.3611 5.19262 99.3611 3.88841C99.3315 3.87433 99.3019 3.86025 99.2723 3.84617C97.6604 5.79998 96.0485 7.75379 94.3851 9.77002C92.7325 7.76659 91.1046 5.79308 89.419 3.7496C89.419 6.43559 89.419 9.03056 89.419 11.6495C88.83 11.6495 88.2733 11.6495 87.6998 11.6495C87.6998 8.20929 87.6998 4.78573 87.6998 1.31457C88.3013 1.31457 88.889 1.30088 89.475 1.32609C89.5926 1.33115 89.7274 1.46496 89.8145 1.57185C91.2317 3.31141 92.6425 5.0563 94.0551 6.79962C94.1672 6.93803 94.2827 7.07371 94.4157 7.23358C94.5096 7.12669 94.5928 7.03815 94.6692 6.944C96.0648 5.2223 97.4671 3.5059 98.848 1.77242C99.1085 1.44538 99.3628 1.25558 99.805 1.30428C100.226 1.35063 100.656 1.31426 101.111 1.31426C101.111 4.76292 101.111 8.1981 101.111 11.6525C100.545 11.6525 99.9742 11.6525 99.361 11.6525C99.361 10.3825 99.361 9.13311 99.361 7.84236Z" fill="white"/>
<path d="M124.744 8.08476C124.643 8.01501 124.565 7.92887 124.486 7.92842C123.084 7.92025 121.683 7.92249 120.248 7.92249C120.248 9.17116 120.248 10.3909 120.248 11.6415C119.65 11.6415 119.083 11.6415 118.493 11.6415C118.493 8.21272 118.493 4.78892 118.493 1.33804C118.595 1.33036 118.701 1.31545 118.807 1.31541C121.079 1.31446 123.351 1.28575 125.622 1.3334C126.309 1.34782 127.022 1.49001 127.67 1.7218C129.012 2.20165 129.727 3.31283 129.698 4.66943C129.669 6.04871 128.856 7.13441 127.5 7.59777C127.242 7.6859 126.979 7.75957 126.673 7.854C127.77 9.11281 128.843 10.3442 130 11.6726C129.633 11.6726 129.352 11.6349 129.085 11.6794C128.16 11.8337 127.527 11.492 126.975 10.7271C126.309 9.80342 125.509 8.97686 124.744 8.08476ZM127.854 4.87975C127.926 3.85356 127.502 3.2436 126.53 2.9996C126.291 2.93979 126.042 2.89212 125.798 2.89082C123.969 2.88108 122.141 2.88422 120.312 2.88543C120.291 2.88545 120.269 2.91315 120.253 2.924C120.253 4.07728 120.253 5.22565 120.253 6.35596C122.19 6.35596 124.101 6.3839 126.011 6.3449C127.064 6.3234 127.67 5.80651 127.854 4.87975Z" fill="white"/>
<path d="M56.9702 9.74344C56.9702 6.92193 56.9702 4.14176 56.9702 1.37929C57.0269 1.34788 57.0495 1.32421 57.072 1.32444C59.2049 1.3464 61.3417 1.30047 63.4696 1.41712C65.0188 1.50206 66.4233 2.09701 67.4473 3.33817C69.6699 6.03188 68.4616 10.104 65.0836 11.2158C64.2732 11.4825 63.3921 11.6169 62.5374 11.6488C60.7634 11.715 58.9853 11.6719 57.2089 11.6726C57.143 11.6726 57.077 11.6605 56.9702 11.6501C56.9702 11.0166 56.9702 10.4007 56.9702 9.74344ZM65.8553 4.17095C65.2729 3.56489 64.5518 3.1726 63.7374 3.06315C62.7885 2.93561 61.8232 2.91819 60.8639 2.88203C60.1688 2.85583 59.4718 2.87692 58.7745 2.87692C58.7745 5.31446 58.7745 7.70268 58.7745 10.094C60.0996 10.094 61.4044 10.1277 62.7061 10.0783C63.2729 10.0568 63.8558 9.92865 64.3925 9.73893C66.7482 8.9062 67.4836 6.15589 65.8553 4.17095Z" fill="white"/>
<path d="M80.648 10.1285C80.7671 10.1935 80.9091 10.2553 80.9123 10.3237C80.9328 10.7596 80.9227 11.1969 80.9227 11.6519C77.4751 11.6519 74.0688 11.6519 70.6417 11.6519C70.6417 8.20725 70.6417 4.78368 70.6417 1.33728C74.0122 1.33728 77.378 1.33728 80.7657 1.33728C80.7657 1.83994 80.7657 2.32968 80.7657 2.85694C77.9835 2.85694 75.2101 2.85694 72.4094 2.85694C72.4094 3.79306 72.4094 4.69221 72.4094 5.62122C74.7395 5.62122 77.0614 5.62122 79.416 5.62122C79.416 6.15033 79.416 6.65074 79.416 7.17839C77.089 7.17839 74.7665 7.17839 72.413 7.17839C72.413 8.16005 72.413 9.11603 72.413 10.1283C75.1378 10.1283 77.8722 10.1283 80.648 10.1285Z" fill="white"/>
<path d="M106.307 5.98281C107.107 4.50611 107.895 3.05748 108.668 1.60087C108.789 1.37322 108.93 1.29519 109.182 1.30879C109.716 1.33749 110.351 1.16023 110.755 1.39466C111.143 1.61936 111.294 2.25565 111.542 2.71486C113.07 5.54426 114.596 8.37471 116.123 11.2049C116.194 11.3359 116.262 11.4679 116.37 11.6709C115.735 11.6709 115.153 11.6829 114.573 11.6591C114.477 11.6551 114.357 11.5115 114.298 11.4049C113.941 10.7547 113.592 10.0997 113.254 9.43926C113.155 9.24682 113.046 9.16397 112.814 9.16525C110.791 9.17649 108.767 9.16698 106.743 9.18245C106.608 9.18348 106.417 9.30575 106.349 9.42639C105.982 10.0711 105.636 10.7281 105.305 11.3923C105.197 11.6099 105.067 11.6853 104.83 11.6775C104.323 11.6609 103.816 11.6725 103.231 11.6725C104.271 9.74581 105.28 7.87703 106.307 5.98281ZM110.793 4.75749C110.467 4.14565 110.14 3.53381 109.79 2.87766C108.936 4.49894 108.115 6.05786 107.278 7.64709C108.99 7.64709 110.628 7.64709 112.314 7.64709C111.801 6.67712 111.309 5.74562 110.793 4.75749Z" fill="white"/>
<path d="M3.39463 11.4844C0.0636129 10.0235 -1.04427 5.98428 1.10162 3.1783C1.96258 2.05249 3.15992 1.46744 4.52207 1.1984C6.37955 0.831521 8.18691 0.936345 9.90038 1.8272C10.6582 2.22122 11.4091 2.90117 11.8205 3.58859C11.5555 3.72227 11.2922 3.85578 11.0282 3.98801C10.7596 4.12263 10.4902 4.25601 10.192 4.40447C9.65543 3.58267 8.93026 3.0236 7.98329 2.78173C6.6381 2.43815 5.30753 2.48646 4.02192 3.02298C2.52087 3.64941 1.72504 5.11548 1.85595 6.79272C2.0377 9.12144 3.61288 10.2066 5.74797 10.3884C6.9427 10.4901 8.12842 10.4072 9.1494 9.68166C9.55702 9.392 9.89276 9.0011 10.2949 8.6248C10.7587 8.8545 11.2845 9.11492 11.8496 9.39479C11.3481 10.171 10.7041 10.7532 9.90999 11.1534C7.80236 12.2156 5.63108 12.2225 3.39463 11.4844Z" fill="white"/>
<path d="M27.2015 2.14141C27.2017 3.69744 27.1847 5.21283 27.2074 6.72762C27.2267 8.01584 27.5895 9.18545 28.7956 9.84123C30.2867 10.6519 31.8395 10.6367 33.3338 9.83662C34.3527 9.29112 34.8293 8.32765 34.8678 7.21196C34.9295 5.42347 34.9017 3.63189 34.9116 1.84162C34.9125 1.6788 34.9117 1.51598 34.9117 1.33443C35.5101 1.33443 36.0701 1.33443 36.6928 1.33443C36.6928 1.45528 36.6928 1.58574 36.6928 1.71621C36.6928 3.36908 36.6947 5.02195 36.6923 6.67482C36.6877 9.76183 34.8833 11.7195 31.8031 11.9574C30.4106 12.065 29.0499 11.9314 27.8042 11.2277C26.3876 10.4275 25.5815 9.16238 25.4976 7.58296C25.3876 5.51255 25.4706 3.43187 25.4706 1.33497C26.0289 1.33497 26.5876 1.33497 27.2015 1.33497C27.2015 1.58863 27.2015 1.84457 27.2015 2.14141Z" fill="white"/>
<path d="M15.7138 2.14153C15.7138 4.80838 15.7138 7.43435 15.7138 10.0947C18.2657 10.0947 20.7786 10.0947 23.3241 10.0947C23.3241 10.6278 23.3241 11.1273 23.3241 11.6507C20.215 11.6507 17.1105 11.6507 13.9773 11.6507C13.9773 8.21643 13.9773 4.7852 13.9773 1.33414C14.5421 1.33414 15.1009 1.33414 15.7138 1.33414C15.7138 1.58872 15.7138 1.84468 15.7138 2.14153Z" fill="white"/>
</svg>
