<svg width="102" height="17" viewBox="0 0 102 17" fill="none" xmlns="http://www.w3.org/2000/svg">
<path d="M0.0284128 7.94631L0.142269 6.19127C0.142269 5.43916 0.180289 5.00255 0.256124 4.88184V4.52891C0.256124 4.38037 0.284537 4.26886 0.33196 4.19459C0.417403 4.03665 0.559467 3.65609 0.749158 3.05232C0.815591 3.05232 0.986273 2.65295 1.28021 1.8544C1.28021 1.82657 1.33704 1.76151 1.45089 1.65001C1.56475 1.5385 1.72582 1.4272 1.93453 1.29708C2.14302 1.17637 2.33271 1.1021 2.5128 1.09289L2.94901 1H3.02484H3.29977H3.5653C3.61272 1 3.67915 1.01862 3.7834 1.02783C3.87594 1.03576 3.96607 1.06097 4.04893 1.1021C4.2006 1.18557 4.39029 1.3249 4.63681 1.51068C4.63681 1.60357 4.41871 1.75211 3.97309 1.93788C3.94468 1.93788 3.86885 2.02136 3.74559 2.19792L3.40422 2.9222L2.94901 4.17578C2.74991 4.71448 2.56983 5.41094 2.40855 6.26514L2.13362 7.70449C2.05778 8.0388 2.01976 8.53106 2.01976 9.18107C2.01976 9.83108 2.02917 10.3233 2.05778 10.639C2.16203 11.6606 2.38014 12.5242 2.7215 13.2207C2.80694 13.397 2.87317 13.5364 2.91119 13.6384L2.98703 13.8334L3.04385 13.9634C3.15771 14.214 3.46105 14.6506 3.96369 15.2912L4.11536 15.5699C4.24802 15.6906 4.48514 15.9784 4.8171 16.4429C4.85512 16.5079 4.90254 16.6843 4.94976 17C4.75067 16.9722 4.618 16.9536 4.55157 16.9257C4.48514 16.8979 4.35248 16.8236 4.13437 16.6843L4.11536 16.7029L4.02992 16.61C3.96349 16.5728 3.87825 16.5544 3.7738 16.5544L2.97721 15.9786C2.78752 15.7929 2.63585 15.6535 2.50299 15.5514L2.1048 15.1056L1.78245 14.5855L1.64978 14.3069C1.64978 14.3069 1.58335 14.1583 1.55494 13.9539C1.48851 13.9169 1.32743 13.7125 1.0619 13.3504L0.815387 12.8675L0.720541 12.5146C0.54986 12.0874 0.436004 11.7995 0.398188 11.6696L0.189691 10.8528C0.189691 10.8528 0.170681 10.7229 0.132866 10.5371C0.0950501 10.3514 0.0760401 10.0729 0.0760401 9.71057L0 9.22771C0 9.05135 0.0284128 8.8934 0.0758357 8.72624C0.0284128 8.6798 0.00940281 8.54988 0.01901 8.33628V7.94631H0.0284128ZM15.3423 14.2796L14.4415 13.0353L13.3606 11.7817L12.1942 10.6302C11.796 10.2681 11.3976 9.95239 10.9994 9.68294V14.2796H9.10294V4.04606H10.9994V8.27142L12.0425 7.23144L13.1235 6.10779L14.1381 5.01196L15.0106 4.05546H17.2862L16.2337 5.22556L15.0864 6.4421L13.901 7.65864L12.7347 8.81012C13.1613 9.12582 13.5881 9.48796 14.0243 9.90595L15.3139 11.2524L16.5277 12.7474L17.5896 14.2891H15.3423V14.2796ZM23.8858 4.29689C23.8858 4.6312 23.7719 4.90046 23.5538 5.09544C23.3357 5.29042 23.0702 5.39252 22.7669 5.39252C22.4635 5.39252 22.1884 5.29042 21.9703 5.09544C21.7522 4.90046 21.6385 4.6312 21.6385 4.29689C21.6385 3.96258 21.7522 3.68392 21.9703 3.47972C22.1884 3.28474 22.4539 3.18265 22.7669 3.18265C23.0798 3.18265 23.3263 3.28474 23.5538 3.47972C23.7719 3.67471 23.8858 3.94396 23.8858 4.29689ZM23.6867 14.2798H21.866V6.56261H23.6867V14.2889V14.2798ZM35.7194 12.6729V14.2794H29.1197V4.04586H31.0162V12.6729H35.7194ZM49.2979 9.16285C49.2979 10.0359 49.1652 10.8158 48.8997 11.4844C48.6342 12.1531 48.2738 12.7102 47.8092 13.1652C47.3542 13.611 46.8137 13.9545 46.2068 14.1774C45.5905 14.4002 44.9362 14.5209 44.2439 14.5209C43.5515 14.5209 42.8974 14.4094 42.2717 14.1774C41.6656 13.9589 41.1155 13.6135 40.6598 13.1652C40.2048 12.7196 39.8348 12.1623 39.5693 11.4844C39.2943 10.8158 39.1615 10.0451 39.1615 9.16285C39.1615 8.28063 39.2943 7.51911 39.5693 6.85048C39.8442 6.18186 40.214 5.62474 40.6786 5.17892C41.1432 4.72389 41.6839 4.38958 42.3002 4.15736C42.9164 3.93455 43.5612 3.81384 44.2439 3.81384C44.9266 3.81384 45.5809 3.92534 46.1878 4.15736C46.8041 4.38017 47.3352 4.72389 47.7904 5.17892C48.2456 5.63394 48.6152 6.19107 48.8807 6.85048C49.1558 7.51911 49.2885 8.28983 49.2885 9.16285M41.1244 9.16285C41.1244 9.71997 41.1906 10.2309 41.3329 10.6951C41.4752 11.1501 41.6743 11.5401 41.9398 11.8652C42.2053 12.1903 42.5277 12.4317 42.9164 12.6081C43.2958 12.7844 43.7318 12.8773 44.2155 12.8773C44.6991 12.8773 45.1163 12.7844 45.4957 12.6081C45.8751 12.4317 46.1972 12.1809 46.4627 11.8652C46.7283 11.5495 46.937 11.1593 47.0792 10.6951C47.2213 10.2401 47.2877 9.72938 47.2877 9.16285C47.2877 8.59632 47.2213 8.09485 47.0792 7.63062C46.937 7.17559 46.7379 6.78562 46.4627 6.46052C46.1972 6.13541 45.8749 5.89399 45.4957 5.71762C45.1165 5.54126 44.6897 5.44837 44.2155 5.44837C43.7412 5.44837 43.3052 5.54126 42.9164 5.71762C42.5365 5.89211 42.2025 6.14945 41.9398 6.46993C41.6743 6.79503 41.4658 7.185 41.3329 7.64002C41.1906 8.09505 41.1244 8.59632 41.1244 9.16285ZM56.6846 4.04606L57.4244 5.42034L58.2588 7.12895L59.0932 8.94905L59.8517 10.6577L60.6103 8.94905L61.4353 7.12895L62.2697 5.42034L63.0092 4.04606H64.7256C64.8253 4.84006 64.9106 5.63573 64.9816 6.43269C65.067 7.27769 65.1332 8.13209 65.1997 9.01431L65.3894 11.6702L65.5316 14.2796H63.6635L63.5213 10.6022C63.4644 9.33922 63.379 8.12268 63.2653 6.94337C63.1515 7.16618 63.0282 7.44484 62.8766 7.76054L62.3929 8.7913L61.8715 9.93357L61.3594 11.0758L60.8948 12.1066L60.5344 12.9238H59.1216C59.0173 12.701 58.9035 12.4223 58.7612 12.0972L58.2966 11.057L57.7845 9.91476L57.2631 8.7819L56.7795 7.75113L56.3907 6.94317C56.277 8.12248 56.1916 9.34843 56.1348 10.602L55.9925 14.2794H54.1244L54.2667 11.6514L54.4563 8.95826L54.6745 6.36743L54.94 4.04586H56.6942L56.6846 4.04606ZM73.9044 14.4002C73.3544 14.4002 72.7949 14.3815 72.226 14.3445C71.6571 14.3075 71.1735 14.2424 70.7467 14.1309V4.19439L71.4579 4.08289L72.226 3.99921L73.0036 3.95277L73.7337 3.93415C74.369 3.93415 74.9569 3.98059 75.4974 4.07348C76.0378 4.16637 76.5119 4.32412 76.9102 4.53772C77.3086 4.75132 77.6214 5.03919 77.8395 5.39212C78.0576 5.74505 78.1712 6.18146 78.1712 6.71075C78.1712 7.19361 78.0576 7.60219 77.8205 7.95512C77.5834 8.29864 77.2516 8.5773 76.8344 8.7817C77.4697 8.98609 77.9343 9.29237 78.2377 9.70096C78.541 10.1095 78.6929 10.6204 78.6929 11.2332C78.6929 12.2826 78.3041 13.0811 77.5171 13.6012C76.73 14.1305 75.5258 14.3906 73.9138 14.3906M72.6338 8.19655H73.9706C74.6914 8.19655 75.2603 8.09445 75.6775 7.89006C76.0853 7.68587 76.2938 7.32353 76.2938 6.80364C76.2938 6.31138 76.0759 5.95865 75.649 5.75426C75.2222 5.54987 74.663 5.44777 73.9803 5.44777C73.6863 5.44777 73.4302 5.44777 73.2027 5.46639C72.9752 5.46639 72.7855 5.49421 72.6242 5.51283V8.20595L72.6338 8.19655ZM72.6338 9.65451V12.775C72.8577 12.7962 73.0822 12.8117 73.3069 12.8215C73.544 12.8215 73.7716 12.8401 73.9706 12.8401C74.3355 12.8404 74.6999 12.8156 75.0612 12.7658C75.4025 12.7194 75.6871 12.6265 75.9336 12.5058C76.1801 12.3851 76.3792 12.2179 76.5215 12.0135C76.6637 11.8091 76.7396 11.5399 76.7396 11.215C76.7396 10.63 76.5215 10.2307 76.0947 9.99844C75.6585 9.77563 75.0612 9.65491 74.3026 9.65491H72.6338V9.65451ZM93.3901 9.16285C93.3901 10.0359 93.2574 10.8158 92.9919 11.4844C92.7264 12.1531 92.3662 12.7102 91.9016 13.1652C91.4458 13.6134 90.8956 13.9588 90.2894 14.1774C89.6613 14.4054 88.9966 14.5217 88.3267 14.5209C87.6346 14.5209 86.9802 14.4094 86.364 14.1774C85.7578 13.9589 85.2077 13.6135 84.752 13.1652C84.297 12.7196 83.927 12.1623 83.6615 11.4844C83.3959 10.8158 83.2537 10.0451 83.2537 9.16285C83.2537 8.28063 83.3865 7.51911 83.6615 6.85048C83.9364 6.18186 84.3062 5.62474 84.7708 5.17892C85.2354 4.72389 85.7761 4.38958 86.3924 4.15736C87.0139 3.9294 87.6724 3.81304 88.3361 3.81384C89.0186 3.81384 89.6637 3.92534 90.28 4.15736C90.8963 4.38017 91.4274 4.72389 91.8826 5.17892C92.3378 5.63394 92.7076 6.19107 92.9729 6.85048C93.248 7.51911 93.3807 8.28983 93.3807 9.16285M85.226 9.16285C85.226 9.71997 85.2924 10.2309 85.4347 10.6951C85.5768 11.1501 85.7761 11.5401 86.0414 11.8652C86.3067 12.1903 86.6295 12.4317 87.0181 12.6081C87.3974 12.7844 87.8337 12.8773 88.3173 12.8773C88.8009 12.8773 89.2181 12.7844 89.5973 12.6081C89.9765 12.4317 90.3084 12.1809 90.574 11.8652C90.8395 11.5495 91.0482 11.1593 91.1809 10.6951C91.3231 10.2401 91.3896 9.72938 91.3896 9.16285C91.3896 8.59632 91.3231 8.09485 91.1809 7.63062C91.0386 7.17559 90.8395 6.78562 90.574 6.46052C90.3084 6.13541 89.9861 5.89399 89.5973 5.71762C89.2181 5.54126 88.7913 5.44837 88.3173 5.44837C87.8433 5.44837 87.3974 5.54126 87.0181 5.71762C86.6387 5.89399 86.3069 6.14482 86.0414 6.46993C85.7759 6.79503 85.5674 7.185 85.4347 7.64002C85.2924 8.09505 85.226 8.59632 85.226 9.16285ZM99.8948 9.62709C99.8474 9.58985 99.819 9.37645 99.819 8.96767L99.7431 7.41682L99.6389 6.28395L99.5724 5.93102C99.506 5.67098 99.4208 4.98373 99.2879 3.86008L99.1552 3.41426C99.1172 3.24711 99.013 3.01489 98.8329 2.72702C98.8329 2.65275 98.7571 2.53204 98.6148 2.36488C98.4725 2.19772 98.3967 2.04918 98.3967 1.92847C98.3967 1.88203 98.5293 1.77052 98.8139 1.59416H99.2405C99.4018 1.59416 99.544 1.61277 99.6673 1.6406C99.7906 1.66843 99.9518 1.80776 100.16 2.03997C100.359 2.27219 100.568 2.63433 100.786 3.10798L101.147 3.90652L101.165 3.94376C101.251 4.06447 101.336 4.31531 101.431 4.67745L101.545 5.049L101.848 6.59985C101.877 6.72056 101.886 6.87851 101.886 7.0827V7.43563C101.962 7.58417 102 8.00216 102 8.68921C102 9.47855 101.924 10.1472 101.772 10.7043L101.64 11.243C101.602 11.4658 101.422 11.9302 101.09 12.6267C100.758 13.3232 100.388 13.9267 99.9612 14.419L99.1933 15.1711C99.1647 15.2546 99.032 15.3847 98.7759 15.5426L97.8562 15.914L97.3062 16.0069C96.9174 16.0069 96.6899 15.914 96.6234 15.7282L97.401 15.2824C97.401 15.2824 97.5339 15.0874 97.8182 14.7809V14.7253C97.8846 14.7625 98.0459 14.5673 98.3112 14.1309L98.539 13.7409C98.539 13.7409 98.6432 13.5552 98.8423 13.2951H98.8803L98.8991 13.1836C98.8991 13.1186 99.0036 12.9236 99.2027 12.5706C99.2121 12.5706 99.2691 12.4313 99.3543 12.1434C99.4396 11.8556 99.4966 11.6792 99.506 11.5863C99.5156 11.5028 99.5346 11.447 99.544 11.4378V11.4564C99.6673 11.2706 99.7337 11.1129 99.7337 10.9641C99.7337 10.8154 99.7147 10.6763 99.6767 10.5277C99.6767 10.2399 99.7621 9.93337 99.9232 9.58985" fill="white"/>
</svg>
