<svg width="147" height="23" viewBox="0 0 147 23" fill="none" xmlns="http://www.w3.org/2000/svg">
<path d="M17.3502 10.5C17.3502 6.39849 13.5905 3.05094 8.9201 2.9366V0H8.67508C4.853 0 1.73941 2.69321 1.68855 6.02038C0.628729 7.27585 0 8.82453 0 10.5C0 14.6015 3.75966 17.9491 8.43006 18.0634V21H8.67508C11.613 21 14.2562 19.38 15.2513 16.9675C15.5137 16.3313 15.6489 15.6634 15.6593 14.9808C16.1482 14.4034 16.5504 13.7626 16.8382 13.0653C17.1779 12.2434 17.349 11.3808 17.349 10.4989L17.3502 10.5ZM16.8601 10.5C16.8601 10.8747 16.822 11.2449 16.7561 11.6094C15.991 8.30491 12.6751 5.86302 8.67508 5.86302C6.37513 5.86302 4.19076 6.70075 2.63049 8.16566C2.3508 7.55321 2.19131 6.88981 2.17859 6.19472C3.67529 4.50453 6.03071 3.41094 8.67508 3.41094C13.1883 3.41094 16.8601 6.59094 16.8601 10.5ZM8.67508 12.206C10.3047 12.206 11.873 11.7068 13.1236 10.8034C13.6795 11.2551 14.1429 11.7906 14.4874 12.386C13.0126 13.8294 10.9022 14.657 8.67508 14.657C5.22978 14.657 2.32191 12.746 1.30484 10.0551C0.892241 8.96264 1.03324 7.72528 1.71745 6.77208L1.72785 6.75849C2.10347 9.81623 5.07606 12.2049 8.67623 12.2049L8.67508 12.206ZM4.63341 10.5011C5.78107 9.71094 7.20034 9.27396 8.67508 9.27396C10.1498 9.27396 11.6061 9.73245 12.7167 10.4989C11.5691 11.2891 10.1498 11.726 8.67508 11.726C7.20034 11.726 5.74409 11.2675 4.63341 10.5011ZM8.43006 0.483396V2.9366C5.96831 2.9966 3.75966 3.95434 2.22136 5.44868C2.58773 2.72491 5.2136 0.587547 8.43006 0.483396ZM0.490039 10.5C0.490039 10.1196 0.525867 9.74717 0.592901 9.38377C1.35454 12.6917 4.67271 15.137 8.67508 15.137C10.9739 15.137 13.1594 14.2992 14.7197 12.8343C15.0005 13.4479 15.16 14.1147 15.1716 14.8109C13.6483 16.5272 11.2605 17.5879 8.67508 17.5879C4.16186 17.5879 0.490039 14.4079 0.490039 10.5ZM8.9201 20.5155V18.06C11.3298 18 13.5616 17.0706 15.1242 15.5604C15.0675 15.9792 14.9624 16.3902 14.7983 16.7887C13.9037 18.9543 11.5621 20.4306 8.92125 20.5166L8.9201 20.5155ZM15.6223 14.2404C15.2467 11.1826 12.2741 8.79396 8.67392 8.79396C7.04547 8.79396 5.47595 9.29321 4.22543 10.1955C3.67067 9.74377 3.20606 9.2083 2.86164 8.61283C4.33638 7.16943 6.44679 6.34189 8.67392 6.34189C12.1204 6.34189 15.0271 8.25396 16.0442 10.9438C16.4406 11.9932 16.3146 13.1717 15.7044 14.1181C15.6755 14.1623 15.6477 14.203 15.6223 14.2392V14.2404Z" fill="white"/>
<path d="M83.2669 7.29892C83.2669 6.15197 83.2669 5.05563 83.2669 3.92782C83.646 3.92782 83.9845 3.92782 84.3627 3.92782C84.3627 8.24349 84.3627 12.5424 84.3627 16.8797C84.0216 16.8797 83.6849 16.8797 83.2794 16.8797C83.2794 16.51 83.2794 16.1347 83.2794 15.6564C82.9893 15.8796 82.7967 16.0367 82.5949 16.1816C80.5451 17.6537 77.9329 17.0226 76.9206 14.7491C76.1812 13.0884 76.2505 11.4081 77.2349 9.84071C78.4545 7.89871 80.9429 7.38254 82.891 8.62408C82.9881 8.68595 83.0834 8.75058 83.2669 8.87155C83.2669 8.31077 83.2669 7.83014 83.2669 7.29892ZM77.9531 14.2476C78.1816 14.9971 78.5656 15.6491 79.2524 16.0814C80.6221 16.9437 82.275 16.2093 83.169 15.2479C83.2474 15.1635 83.2625 15 83.263 14.8731C83.269 13.284 83.2698 11.6948 83.2619 10.1056C83.2612 9.96134 83.2194 9.80243 83.149 9.67548C82.1924 7.95002 79.7749 7.76918 78.6105 9.36719C77.5402 10.8359 77.4927 12.4779 77.9531 14.2476Z" fill="white"/>
<path d="M99.3644 12.0908C98.8448 9.17485 100.141 6.45943 102.589 5.2751C104.944 4.13581 108.047 4.58972 109.777 6.32763C109.848 6.39958 109.912 6.47951 110.023 6.60656C109.809 6.80028 109.601 6.98827 109.362 7.2048C109.189 7.00397 109.039 6.82759 108.887 6.65286C106.665 4.09943 102.88 4.48647 101.338 7.47532C100.277 9.53181 100.278 11.6761 101.336 13.7292C102.94 16.8431 107.129 17.251 109.463 14.5748C109.642 14.3697 109.821 14.1646 110.048 14.004C109.728 15.641 107.091 17.0539 104.704 16.949C101.95 16.828 99.7748 14.8643 99.3644 12.0908Z" fill="white"/>
<path d="M147 12.4741C146.897 14.6824 145.815 16.2093 143.998 16.7601C141.131 17.6288 138.514 15.8668 138.376 12.9429C138.347 12.3267 138.387 11.6828 138.541 11.0873C139.067 9.04462 140.949 7.76053 143.035 7.95157C145.359 8.16449 146.78 9.60911 146.984 11.9702C146.998 12.1215 146.995 12.2742 147 12.4741ZM145.099 9.73643C145.041 9.65273 144.984 9.56793 144.923 9.48551C143.664 7.76759 141.507 7.8076 140.316 9.5707C139.299 11.0758 139.327 13.8799 140.373 15.375C141.604 17.1338 143.876 17.1599 144.997 15.3376C146.091 13.5595 146.003 11.6707 145.099 9.73643Z" fill="white"/>
<path d="M117.666 9.97531C117.707 11.5376 117.74 13.0579 117.77 14.5782C117.775 14.8149 117.769 15.0518 117.771 15.2885C117.78 16.2637 117.83 16.3181 118.828 16.446C118.017 17.2299 117.009 16.9302 116.601 15.7516C115.821 16.3463 114.971 16.7885 113.983 16.892C113.627 16.9294 113.256 16.9227 112.901 16.8732C112.02 16.7502 111.369 16.3059 111.169 15.425C110.968 14.5385 111.26 13.7831 112.005 13.227C113.011 12.4749 114.214 12.3079 115.425 12.1789C115.803 12.1386 116.182 12.1101 116.604 12.0724C116.668 11.1808 116.698 10.3094 116.314 9.48493C115.975 8.75474 115.26 8.41393 114.283 8.46488C113.494 8.50604 112.813 8.80965 112.183 9.25635C112.079 9.33018 111.938 9.35323 111.785 9.32884C112.709 8.32368 113.853 7.8544 115.228 7.95738C116.516 8.05375 117.357 8.67709 117.666 9.97531ZM114.691 16.3293C115.234 16.0788 115.785 15.8443 116.313 15.5674C116.456 15.492 116.616 15.2913 116.621 15.1438C116.649 14.2351 116.635 13.3252 116.635 12.375C115.463 12.4948 114.345 12.5972 113.322 13.1017C112.735 13.3906 112.326 13.8266 112.271 14.5054C112.161 15.8454 113.113 16.5935 114.691 16.3293Z" fill="white"/>
<path d="M93.1087 15.5889C92.0313 16.7079 90.7427 17.165 89.2313 16.8872C87.3824 16.5474 86.1452 15.0857 85.9822 13.11C85.8988 12.0999 86.0222 11.1197 86.4948 10.2005C87.5735 8.10269 90.3847 7.2696 92.2911 8.50185C93.4909 9.27737 93.7579 10.4743 93.7926 11.8291C91.6022 11.8291 89.4478 11.8291 87.3092 11.8291C86.9694 13.0195 87.5402 15.4107 89.1488 16.0825C90.9604 16.8391 92.3329 16.0039 93.5457 14.6907C93.5834 14.75 93.6212 14.8094 93.659 14.8687C93.4839 15.1001 93.3087 15.3314 93.1087 15.5889ZM90.8595 8.32986C88.8082 7.76318 87.2847 9.76155 87.294 11.4963C89.0622 11.4963 90.8305 11.4963 92.5949 11.4963C92.7029 10.0448 92.0828 8.88627 90.8595 8.32986Z" fill="white"/>
<path d="M131.977 16.5834C131.442 16.7208 130.945 16.9179 130.44 16.9406C129.04 17.0037 128.305 16.2998 128.293 14.9281C128.276 13.0338 128.288 11.1393 128.288 9.24487C128.288 9.02904 128.288 8.81322 128.288 8.55199C127.884 8.55199 127.538 8.56616 127.195 8.54351C127.09 8.53654 126.991 8.42885 126.89 8.36727C126.993 8.28897 127.091 8.15264 127.2 8.14316C127.541 8.11371 127.885 8.13238 128.274 8.13238C128.274 7.24798 128.274 6.40865 128.274 5.531C128.657 5.531 128.993 5.531 129.404 5.531C129.404 6.37139 129.404 7.22199 129.404 8.12132C130.418 8.12132 131.362 8.12132 132.322 8.12132C132.327 8.53312 132.085 8.55599 131.808 8.55427C131.033 8.54944 130.257 8.55259 129.423 8.55259C129.423 8.77482 129.423 8.93963 129.423 9.10444C129.423 10.9481 129.42 12.7918 129.426 14.6355C129.427 14.9039 129.44 15.1795 129.504 15.4389C129.669 16.1187 130.091 16.465 130.799 16.441C131.205 16.4272 131.607 16.2953 132.01 16.2125C132.144 16.1851 132.274 16.1447 132.406 16.1102C132.43 16.1596 132.454 16.2089 132.478 16.2583C132.322 16.36 132.167 16.4617 131.977 16.5834Z" fill="white"/>
<path d="M121.871 8.40655C120.596 9.08093 120.525 10.2858 121.725 11.0056C122.369 11.392 123.092 11.6514 123.775 11.9765C124.164 12.1611 124.556 12.3423 124.924 12.5604C125.782 13.0684 126.238 13.8012 126.11 14.8038C125.986 15.783 125.358 16.3981 124.451 16.7022C122.944 17.2079 121.484 16.9728 120.085 16.2772C119.607 16.0395 119.962 15.7483 120.011 15.4093C120.978 16.3397 122.083 16.8103 123.387 16.6276C123.829 16.5657 124.302 16.3863 124.657 16.1261C125.483 15.5211 125.475 14.3866 124.662 13.7675C124.286 13.4808 123.837 13.2803 123.406 13.0691C122.695 12.7211 121.952 12.4332 121.261 12.0525C120.289 11.5166 119.853 10.6974 120 9.85836C120.167 8.90963 120.921 8.21509 122.034 8.02464C123.325 7.80375 124.541 8.0565 125.76 8.64389C125.694 8.86618 125.63 9.07947 125.561 9.30968C124.433 8.54646 123.309 7.93609 121.871 8.40655Z" fill="white"/>
<path d="M137.799 8.95359C136.853 8.66346 136.059 8.86089 135.365 9.49269C134.918 9.89988 134.666 10.3509 134.682 10.9979C134.727 12.8909 134.698 14.7855 134.698 16.7206C134.332 16.7206 133.995 16.7206 133.571 16.7206C133.571 16.5366 133.571 16.3413 133.571 16.146C133.571 13.7942 133.594 11.4421 133.554 9.09099C133.544 8.51792 133.688 8.2003 134.277 8.11918C134.378 8.1052 134.476 8.06655 134.658 8.01669C134.658 8.54705 134.658 9.05464 134.658 9.56223C134.696 9.58399 134.733 9.60576 134.77 9.62753C135.613 8.4734 136.629 7.71119 138.242 8.0963C138.093 8.40899 137.965 8.67745 137.799 8.95359Z" fill="white"/>
<path d="M29.4183 10.3055L28.5868 9.9316C27.3015 9.32715 25.9742 8.70221 25.9742 7.22696C25.9742 5.96172 26.9867 5.1114 28.4897 5.1114C29.6308 5.1114 30.8479 5.6134 31.7476 6.45091L31.9836 5.69023C31.2859 5.27532 29.9927 4.79125 28.6419 4.79125C26.4883 4.79637 24.9827 6.01551 24.9827 7.76481C24.9827 9.62425 26.7611 10.4515 28.0622 11.056L28.8937 11.4299C30.2314 12.0497 31.5404 12.7848 31.5404 14.3446C31.5404 15.7404 30.3416 16.7521 28.6917 16.7521C27.388 16.7521 25.864 16.1553 25.0692 15.3306L24.7859 16.1707C25.6384 16.6035 27.1887 17.0671 28.5763 17.0671C29.636 17.0671 30.6092 16.7572 31.3226 16.1989C32.0938 15.5919 32.5004 14.7415 32.5004 13.7427C32.5004 11.7449 30.8662 10.9791 29.4209 10.3055H29.4183Z" fill="white"/>
<path d="M38.0062 8.07725C36.7996 8.07725 35.7032 8.52546 34.9215 9.33993C34.111 10.1826 33.6834 11.3325 33.6834 12.6721C33.6834 15.2614 35.3438 17.0722 37.7229 17.0722C39.2023 17.0722 40.4588 16.3551 41.3585 14.9951L41.1093 14.8491C40.2962 16.0503 38.9925 16.478 38.1216 16.478C36.1989 16.478 34.9058 14.8235 34.9058 12.3647C34.9058 12.2315 34.9058 12.0932 34.9189 11.9703H41.4949V11.9421C41.5028 10.6846 41.1434 9.66264 40.4536 8.98392C39.8502 8.39228 39.0056 8.07981 38.0036 8.07981L38.0062 8.07725ZM34.9451 11.6527C35.1681 9.68313 36.3511 8.36411 37.8908 8.36411C39.4306 8.36411 40.3329 9.62422 40.3408 11.6527H34.9451Z" fill="white"/>
<path d="M46.8486 8.11054C45.7941 8.11054 44.8761 8.72523 44.1154 9.93669V8.12591L43.0084 8.49216V16.875H44.1311V10.4541C44.6898 9.51153 45.5266 8.94806 46.366 8.94806C46.6545 8.94806 47.0165 9.02234 47.2867 9.14015L47.6723 8.21043C47.4021 8.14384 47.1319 8.11311 46.8512 8.11311L46.8486 8.11054Z" fill="white"/>
<path d="M61.1837 16.5088C60.3968 16.5088 60.3968 16.081 60.3968 15.3024V11.143C60.3968 9.07868 59.4499 8.07725 57.5062 8.07725C56.3415 8.07725 55.4103 8.46399 54.3926 9.3681L54.3716 9.38603L54.5578 9.60885L54.5814 9.59093C55.4366 8.88915 56.1868 8.58949 57.0917 8.58949C58.5816 8.58949 59.2767 9.44237 59.2767 11.2736V12.2059C58.7548 12.2392 58.1908 12.2879 57.6058 12.3519C55.1323 12.6362 53.7709 13.5992 53.7709 15.0617C53.7709 16.2629 54.689 17.0389 56.1133 17.0389C57.2255 17.0389 58.4059 16.5779 59.2846 15.8044C59.3581 16.56 59.7463 16.9595 60.4073 16.9595C60.7483 16.9595 61.1129 16.852 61.5195 16.6317L61.5352 16.624V16.4755L61.5011 16.4806C61.4041 16.4959 61.3044 16.5139 61.189 16.5139L61.1837 16.5088ZM59.2741 12.4902V15.4202C58.5554 16.1015 57.6032 16.5088 56.7245 16.5088C55.6044 16.5088 54.9067 15.8608 54.9067 14.8158C54.9067 13.2176 56.651 12.7284 59.2741 12.4902Z" fill="white"/>
<path d="M52.643 8.11054C51.5885 8.11054 50.6705 8.72523 49.9098 9.93669V8.12591L48.8028 8.49216V16.875H49.9255V10.4541C50.4842 9.51153 51.321 8.94806 52.1604 8.94806C52.4489 8.94806 52.8109 9.02234 53.0811 9.14015L53.4667 8.21043C53.1965 8.14384 52.9263 8.11311 52.6456 8.11311L52.643 8.11054Z" fill="white"/>
<path d="M66.401 8.07725C63.8173 8.07725 62.0126 9.94693 62.0126 12.6234C62.0126 15.2999 63.7229 17.0722 66.2672 17.0722C68.8116 17.0722 70.6399 15.2025 70.6399 12.5261C70.6399 9.84961 68.9375 8.07725 66.401 8.07725ZM69.4149 12.6234C69.4149 15.0745 68.1532 16.7854 66.3486 16.7854C64.5439 16.7854 63.2323 15.0335 63.2323 12.5261C63.2323 10.0186 64.494 8.36411 66.2987 8.36411C68.1034 8.36411 69.4149 10.116 69.4149 12.6234Z" fill="white"/>
<path d="M55.1559 6.84027L55.0064 6.80697C55.1716 5.85164 55.5703 5.23695 56.3809 5.23695C57.4091 5.23695 58.5029 6.14362 59.3318 6.14362C59.8459 6.14362 60.0951 5.82091 60.2604 5.23695L60.4099 5.27025C60.2447 6.21021 59.8617 6.84027 59.0354 6.84027C58.0072 6.84027 56.9291 5.91823 56.1028 5.91823C55.573 5.91823 55.3395 6.24095 55.1585 6.84027H55.1559Z" fill="white"/>
</svg>
