<svg width="50" height="30" viewBox="0 0 50 30" fill="none" xmlns="http://www.w3.org/2000/svg">
<path d="M5.93563 24.3093L8.8002 28.0066V24.3093H9.30106V28.9198H8.89246L5.95321 25.1379V28.9198H5.45235V24.3093H5.93563Z" fill="white"/>
<path d="M13.3519 29C13.0048 29 12.6885 28.9376 12.4073 28.8085C12.1217 28.6793 11.8801 28.51 11.678 28.2917C11.4758 28.0734 11.3177 27.824 11.2078 27.5344C11.098 27.2449 11.0409 26.9464 11.0409 26.6302V26.6168C11.0409 26.3005 11.098 25.9976 11.2078 25.7081C11.3221 25.4185 11.4802 25.1646 11.6823 24.9463C11.8844 24.728 12.1305 24.5543 12.4161 24.4251C12.7016 24.2959 13.018 24.2291 13.3651 24.2291C13.7121 24.2291 14.0285 24.2915 14.3097 24.4207C14.5952 24.5499 14.8369 24.7191 15.039 24.9374C15.2411 25.1557 15.3993 25.4096 15.5091 25.6947C15.6189 25.9798 15.676 26.2827 15.676 26.599C15.676 26.6034 15.676 26.6079 15.676 26.6123C15.676 26.9286 15.6189 27.2315 15.5047 27.5211C15.3905 27.8106 15.2323 28.0645 15.0302 28.2828C14.8281 28.5011 14.5821 28.6748 14.2965 28.804C14.0109 28.9332 13.6946 29 13.3475 29H13.3519ZM13.3651 28.5189C13.6243 28.5189 13.8659 28.4699 14.0812 28.3719C14.3009 28.2739 14.4898 28.1358 14.6436 27.9665C14.7973 27.7973 14.9204 27.5968 15.0126 27.3652C15.1005 27.138 15.1444 26.8885 15.1444 26.6257V26.6123C15.1444 26.3495 15.1005 26.1001 15.0126 25.8729C14.9248 25.6412 14.7973 25.4408 14.6392 25.2715C14.4766 25.1022 14.2877 24.9641 14.0724 24.8617C13.8527 24.7592 13.6155 24.7102 13.3563 24.7102C13.0971 24.7102 12.8554 24.7592 12.6401 24.8572C12.4248 24.9552 12.2359 25.0889 12.0778 25.2626C11.924 25.4319 11.801 25.6323 11.7087 25.864C11.6208 26.0911 11.5769 26.3406 11.5769 26.6034V26.6168C11.5769 26.8796 11.6208 27.1291 11.7087 27.3563C11.7966 27.5879 11.924 27.7883 12.0822 27.9576C12.2403 28.1269 12.4336 28.265 12.6489 28.3674C12.8686 28.4699 13.1058 28.5189 13.3651 28.5189Z" fill="white"/>
<path d="M17.4115 24.3093H19.3666C19.6478 24.3093 19.8982 24.3494 20.1179 24.4296C20.3376 24.5098 20.5177 24.6256 20.6583 24.7681C20.7725 24.884 20.856 25.0176 20.9175 25.169C20.979 25.325 21.0098 25.4898 21.0098 25.6769V25.6902C21.0098 25.8818 20.979 26.0555 20.9175 26.207C20.856 26.3584 20.7725 26.4921 20.6627 26.6034C20.5528 26.7148 20.421 26.8083 20.2717 26.8796C20.1223 26.9509 19.9553 27.0043 19.7796 27.0355L21.1767 28.9198H20.5441L19.226 27.1291H17.9255V28.9198H17.4115V24.3093ZM19.3271 26.6613C19.4984 26.6613 19.6522 26.6391 19.7972 26.5945C19.9421 26.55 20.0652 26.4876 20.1706 26.4074C20.276 26.3272 20.3551 26.2292 20.4166 26.109C20.4738 25.9931 20.5045 25.8595 20.5045 25.7081V25.6947C20.5045 25.4096 20.4035 25.1869 20.197 25.0265C19.9949 24.8661 19.7049 24.786 19.3358 24.786H17.9299V26.6569H19.3314L19.3271 26.6613Z" fill="white"/>
<path d="M24.8717 29C24.5246 29 24.2082 28.9376 23.9271 28.8085C23.6415 28.6793 23.3998 28.51 23.1977 28.2917C22.9956 28.0734 22.8375 27.824 22.7276 27.5344C22.6178 27.2449 22.5607 26.9464 22.5607 26.6302V26.6168C22.5607 26.3005 22.6178 25.9976 22.7276 25.7081C22.8419 25.4185 23 25.1646 23.2021 24.9463C23.4042 24.728 23.6503 24.5543 23.9358 24.4251C24.2214 24.2959 24.5378 24.2291 24.8848 24.2291C25.2319 24.2291 25.5483 24.2915 25.8294 24.4207C26.115 24.5499 26.3567 24.7191 26.5588 24.9374C26.7609 25.1557 26.919 25.4096 27.0289 25.6947C27.1387 25.9798 27.1958 26.2827 27.1958 26.599C27.1958 26.6034 27.1958 26.6079 27.1958 26.6123C27.1958 26.9286 27.1387 27.2315 27.0245 27.5211C26.9103 27.8106 26.7521 28.0645 26.55 28.2828C26.3479 28.5011 26.1018 28.6748 25.8163 28.804C25.5307 28.9332 25.2144 29 24.8673 29H24.8717ZM24.8848 28.5189C25.1441 28.5189 25.3857 28.4699 25.601 28.3719C25.8207 28.2739 26.0096 28.1358 26.1634 27.9665C26.3171 27.7973 26.4401 27.5968 26.5324 27.3652C26.6203 27.138 26.6642 26.8885 26.6642 26.6257V26.6123C26.6642 26.3495 26.6203 26.1001 26.5324 25.8729C26.4445 25.6412 26.3171 25.4408 26.159 25.2715C25.9964 25.1022 25.8075 24.9641 25.5922 24.8617C25.3725 24.7592 25.1353 24.7102 24.8761 24.7102C24.6168 24.7102 24.3752 24.7592 24.1599 24.8572C23.9446 24.9552 23.7557 25.0889 23.5975 25.2626C23.4438 25.4319 23.3208 25.6323 23.2285 25.864C23.1406 26.0911 23.0967 26.3406 23.0967 26.6034V26.6168C23.0967 26.8796 23.1406 27.1291 23.2285 27.3563C23.3164 27.5879 23.4438 27.7883 23.6019 27.9576C23.7601 28.1269 23.9534 28.265 24.1687 28.3674C24.3884 28.4699 24.6256 28.5189 24.8848 28.5189Z" fill="white"/>
<path d="M29.4146 24.3093L32.2791 28.0066V24.3093H32.78V28.9198H32.3714L29.4321 25.1379V28.9198H28.9313V24.3093H29.4146Z" fill="white"/>
<path d="M34.7175 24.3093H35.2316V26.3584H37.8589V24.3093H38.3729V28.9198H37.8589V26.844H35.2316V28.9198H34.7175V24.3093Z" fill="white"/>
<path d="M42.4677 24.2737L44.5414 28.9198H43.9878L43.4562 27.6993H40.9783L40.4379 28.9198H39.9106L41.9844 24.2737H42.4677ZM43.2541 27.236L42.2216 24.884L41.1804 27.236H43.2541Z" fill="white"/>
<path d="M7.67546 8.00994C7.58759 7.32393 7.19657 6.73593 6.498 6.24592C5.79943 5.74701 5.03496 5.53764 4.20459 5.61337C3.90583 5.6401 3.62465 5.71137 3.36543 5.82273C2.55263 6.19247 2.12207 6.87402 2.06934 7.85848L2.75912 8.08121C2.44719 9.23941 1.92875 11.4979 1.20822 14.8567C0.48768 18.2154 0.0834767 20.0596 0 20.3893C0.474499 21.0575 0.922637 21.3737 1.34002 21.347C1.47183 21.3158 1.70908 21.1332 2.04738 20.7991L2.92608 19.7656C5.24146 16.9013 6.74404 14.037 7.43382 11.1682C7.7194 9.96105 7.80287 8.90977 7.67986 8.01885L7.67546 8.00994ZM3.73888 15.9169C3.71252 15.9525 3.68615 16.0015 3.6554 16.0549C3.06228 17.0929 2.4384 17.9927 1.78377 18.7544C1.95072 17.672 2.2363 16.2955 2.64489 14.625C3.05349 12.9545 3.29953 11.9211 3.37861 11.5291C3.46209 11.1371 3.59828 10.4778 3.78721 9.55123C3.97613 8.62467 4.02885 7.80948 3.93659 7.09675C4.332 6.81611 4.83286 6.64238 5.43917 6.58001C5.49628 6.57556 5.55779 6.57556 5.61491 6.58001C5.80383 6.61565 5.91806 6.78047 5.9576 7.08338C6.2959 9.74278 5.55779 12.6917 3.73888 15.9258V15.9169Z" fill="white"/>
<path d="M27.477 5.66237C27.4682 5.6 27.4858 5.53764 27.5253 5.47082C27.644 5.257 27.5429 5.16345 27.2266 5.18573C26.6422 5.23473 26.2424 5.35946 26.0315 5.56882L18.9141 15.7075C18.9404 15.3912 18.9668 14.9947 18.98 14.5137C18.9975 14.0326 19.1513 12.8476 19.4457 10.9589C19.74 9.07013 19.8103 7.52884 19.6566 6.33501C19.6082 5.94301 19.4589 5.57773 19.2172 5.24809C19.1469 5.15009 19.0634 5.07436 18.9756 5.012C18.3473 4.61554 17.0512 5.15009 17.6268 5.60446C17.8596 5.7871 18.0178 5.91628 18.0705 6.04992L18.1891 6.71365C18.3693 8.12131 17.9211 9.14141 16.8447 9.76951C16.3526 10.0591 15.843 10.2283 15.3158 10.2773C14.7886 10.3263 14.0988 10.264 13.2508 10.0947C12.4029 9.92096 11.8098 9.84969 11.4715 9.88533C11.1419 9.9076 10.953 9.76505 10.9091 9.45768C10.8652 9.15032 10.7553 8.9855 10.5752 8.96768C10.1051 8.94986 9.79313 9.05677 9.63936 9.28841C9.14729 10.019 8.61128 11.6493 8.03134 14.1796C7.447 16.7098 7.19657 18.4604 7.27126 19.4315C7.42943 20.1532 7.81605 20.5095 8.42675 20.4962C8.98473 20.4427 9.65694 19.7389 10.4478 18.3802C11.0716 17.3913 11.4143 15.8678 11.4715 13.8054C11.511 12.4378 11.5374 11.7384 11.5418 11.7028C11.5901 11.1772 11.7175 10.901 11.9196 10.8742C12.2271 10.8475 12.7192 10.901 13.387 11.0391C14.0548 11.1772 14.5469 11.2306 14.8545 11.1994C16.2604 11.0702 17.3016 10.4867 17.9738 9.44878C18.1057 9.23496 18.422 8.41531 18.5494 7.76494C17.9255 10.9856 17.3983 13.8321 17.3148 14.5404C17.2226 15.3378 17.0864 16.2732 16.9194 17.3557C16.7481 18.4382 16.669 19.0172 16.6778 19.1019C16.7437 19.6275 17.1391 19.8592 17.864 19.7968C18.1232 19.7745 18.277 19.6721 18.3253 19.4939C18.3297 19.4627 18.3429 19.4003 18.3605 19.3157L18.5318 18.1709C18.6856 18.015 18.8613 17.7967 19.0678 17.5116C19.2699 17.2265 21.9368 13.5025 27.0684 6.34392C27.3496 5.95192 27.4902 5.72919 27.4814 5.66682L27.477 5.66237ZM10.3687 15.7342C9.6789 17.3646 9.15608 18.1976 8.8002 18.2332C8.74309 18.2377 8.69915 18.0862 8.6684 17.77C8.63764 17.4581 8.87489 16.1886 9.37575 13.9746C9.87661 11.7563 10.3291 10.6292 10.7377 10.5936C10.9223 10.5758 11.0673 10.8698 11.1727 11.4756L11.1903 11.6315C11.3309 12.7363 11.0585 14.1083 10.3687 15.7387V15.7342Z" fill="white"/>
<path d="M43.2761 17.7833C43.0169 17.7299 42.784 17.8323 42.5819 18.0951C41.9317 18.9103 41.3561 19.5117 40.8509 19.8903C40.3456 20.269 39.6954 20.4962 38.8914 20.5719C37.8677 20.6654 37.0329 20.2556 36.3871 19.3335C36.0048 18.7856 35.772 18.1976 35.6929 17.574C35.4688 15.8188 35.75 14.1617 36.5408 12.6071C36.8703 11.9745 37.2658 11.3999 37.7271 10.8832C39.5152 8.49549 40.6971 6.82502 41.2682 5.88064C41.8438 4.93627 42.103 4.25472 42.0503 3.84935C41.9492 3.19452 41.321 2.91834 40.1699 3.02079C39.3571 3.09652 38.6673 3.67562 38.1049 4.75809C37.3185 6.20583 36.3212 8.94986 35.1042 12.9857C34.8845 13.2931 34.6077 13.6495 34.2782 14.0593C33.1842 15.4135 32.3406 16.1218 31.7519 16.1752C31.5849 16.1841 31.4795 16.0327 31.4312 15.7253C31.3169 14.8344 31.6772 12.7229 32.512 9.38196C32.5296 9.32405 32.5823 9.20377 32.6745 9.02559C32.7668 8.84295 32.8063 8.71377 32.7976 8.64249C32.7888 8.56677 32.7053 8.48658 32.5559 8.39749C32.4021 8.3084 32.2088 8.27722 31.9716 8.29949C31.7343 8.32176 31.5498 8.40195 31.418 8.54004C31.2862 8.67813 31.15 8.75386 31.0138 8.76722L30.1483 8.75386C29.2432 8.86077 28.3469 9.35523 27.4594 10.2328C26.3303 11.3598 25.3945 12.9011 24.6432 14.8567C24.1775 16.0683 23.9666 16.8345 24.0149 17.1552C24.0633 17.476 24.1555 17.7121 24.3049 17.8724C24.6212 18.1931 25.0738 18.3268 25.6669 18.2733C25.7855 18.2555 25.9261 18.2021 26.0843 18.113C26.5851 17.819 27.3891 16.8746 28.5007 15.2754C29.6123 13.6762 30.2581 12.7452 30.4426 12.4779C30.4075 12.6605 30.3152 13.1327 30.1615 13.89C30.0121 14.6517 29.9681 15.2798 30.0296 15.7788C30.1527 16.7588 30.6667 17.2087 31.563 17.124C32.512 17.035 33.5181 16.3311 34.5813 15.0081C34.4188 15.9213 34.3836 16.7944 34.4891 17.6319C34.8361 20.3581 36.453 21.5875 39.3439 21.3203C40.3192 21.2312 41.3122 20.8748 42.3271 20.2601C43.3376 19.6409 43.7989 18.9727 43.7066 18.2466C43.6759 18.0016 43.5309 17.8546 43.2673 17.8101L43.2761 17.7833ZM25.9788 16.7187C25.8646 15.3778 26.282 13.9746 27.2222 12.5046C28.1888 10.9945 29.4277 10.0635 30.9391 9.7116C29.5376 11.8587 27.8856 14.1974 25.9788 16.7187ZM38.5487 6.75374C39.3878 5.17236 39.959 4.29035 40.2577 4.10771C40.2753 4.0899 40.3192 4.08099 40.3851 4.07653C40.451 4.07653 40.0468 5.12782 39.0671 6.90075C38.0873 8.67368 37.5206 9.56905 37.38 9.59132C37.358 9.57796 37.3448 9.56014 37.3448 9.53787C37.3097 9.26168 37.7139 8.33067 38.5531 6.75374H38.5487Z" fill="white"/>
<path d="M49.2117 11.5736C49.1853 11.6093 49.1238 11.6716 49.0228 11.7652C48.9217 11.8587 48.5087 12.2819 47.7794 13.0347C47.0545 13.7876 46.3559 14.4023 45.6881 14.8789C45.0203 15.3556 44.4096 15.6228 43.8428 15.6763C43.2761 15.7298 42.9334 15.5961 42.806 15.2843C42.7576 15.1507 42.7049 14.8299 42.639 14.331C42.5775 13.8321 42.639 13.1194 42.8411 12.2017C43.6671 11.636 44.4579 10.9054 45.2136 10.0101C45.9693 9.11468 46.5009 8.33958 46.8085 7.6803C46.8436 7.51993 46.8612 7.40857 46.8524 7.3373C46.7953 6.87847 46.4526 6.57111 45.8287 6.41965C45.5651 6.35729 45.3147 6.33947 45.0818 6.36174C44.5634 6.41074 44.0933 6.70474 43.6759 7.2393C42.7181 8.34849 42.0547 9.54678 41.6856 10.8386C41.321 12.1304 41.1804 13.1149 41.2682 13.8009C41.422 15.0126 41.8965 15.8233 42.6961 16.2465C43.1223 16.4648 43.61 16.5494 44.168 16.4959C45.341 16.3846 46.6064 15.6362 47.9727 14.2419C48.8339 13.3644 49.4533 12.5536 49.8312 11.8053C49.9542 11.5603 50.0113 11.3865 49.9981 11.2841C49.9059 11.0168 49.6423 11.1148 49.2073 11.5781L49.2117 11.5736ZM44.0713 8.94095C44.5941 8.1614 44.9456 7.68475 45.1213 7.51103C45.1785 7.57784 45.2092 7.63575 45.218 7.68921C45.2619 8.05003 45.0071 8.58013 44.4491 9.2795C43.8912 9.97887 43.5133 10.3486 43.3244 10.3887C43.3024 10.2061 43.5529 9.72051 44.0757 8.94095H44.0713Z" fill="white"/>
</svg>
