<svg width="73" height="29" viewBox="0 0 73 29" fill="none" xmlns="http://www.w3.org/2000/svg">
<g clip-path="url(#clip0_2149_180)">
<path d="M38.0454 18.6929C38.4737 18.715 38.902 18.6475 39.3027 18.4947C39.7034 18.3419 40.0678 18.1071 40.3724 17.8054C40.677 17.5038 40.9152 17.1419 41.0716 16.7429C41.2281 16.344 41.2993 15.9167 41.2809 15.4887C41.2809 13.711 40.0759 12.5853 38.1346 12.5853C37.7186 12.555 37.3008 12.6118 36.908 12.752C36.5152 12.8923 36.156 13.113 35.8535 13.4C35.5511 13.6869 35.3119 14.0338 35.1514 14.4184C34.9909 14.8031 34.9125 15.2169 34.9214 15.6336C34.9083 16.0446 34.9811 16.4538 35.1351 16.8351C35.2892 17.2164 35.5211 17.5615 35.816 17.8483C36.111 18.1351 36.4626 18.3574 36.8484 18.5009C37.2341 18.6444 37.6456 18.706 38.0565 18.6818M38.3857 18.2917C36.8906 18.2917 35.9981 17.01 35.9981 15.3884C35.9981 13.4547 37.0134 12.9587 37.9115 12.9587C39.189 12.9587 40.1931 14.0398 40.1931 15.7784C40.1931 18.0075 38.9324 18.2917 38.3857 18.2917ZM43.5681 18.6539C43.9588 18.675 44.347 18.58 44.6838 18.3808C44.8977 18.2568 45.0753 18.0788 45.1986 17.8646C45.322 17.6504 45.3868 17.4076 45.3867 17.1604C45.3867 16.5586 45.1077 16.0459 44.204 15.5555L43.9251 15.3995C43.3059 15.0596 43.1999 14.8422 43.1999 14.5302C43.1999 14.0788 43.6406 13.8225 44.1315 13.8225C44.2744 13.8119 44.4178 13.8346 44.5504 13.8887C44.683 13.9429 44.8012 14.027 44.8958 14.1345C44.9992 14.2573 45.0616 14.4092 45.0743 14.5692C45.0743 14.6472 45.0743 14.6862 45.1468 14.6862C45.2193 14.6862 45.2305 14.6138 45.2305 14.4745C45.2305 13.9562 45.2305 13.7667 45.2305 13.6831C45.2305 13.5996 45.2026 13.6107 45.1356 13.5996C44.8182 13.521 44.492 13.4835 44.165 13.4881C43.2166 13.4881 42.4356 14.0119 42.4356 14.82C42.4356 15.3772 42.7034 15.8453 43.5123 16.319L43.9084 16.553C44.5164 16.9097 44.5834 17.1995 44.5834 17.4837C44.5817 17.6029 44.5552 17.7204 44.5055 17.8288C44.4558 17.9372 44.3841 18.034 44.2949 18.1132C44.2056 18.1924 44.1009 18.2521 43.9873 18.2886C43.8737 18.3251 43.7537 18.3375 43.635 18.3251C43.403 18.3555 43.1674 18.308 42.9654 18.1899C42.7634 18.0719 42.6065 17.8901 42.5193 17.6731C42.4824 17.5615 42.4617 17.4451 42.458 17.3276C42.458 17.283 42.458 17.2217 42.3854 17.2217C42.3129 17.2217 42.3018 17.2886 42.3018 17.3889C42.3018 17.4892 42.2627 17.9127 42.2627 18.2694C42.2627 18.4198 42.2627 18.4477 42.3966 18.4979C42.7544 18.6241 43.1331 18.6808 43.5123 18.665M47.8858 16.6589C47.8858 17.2663 47.8858 17.7734 47.8523 18.0688C47.8189 18.3641 47.791 18.3864 47.6515 18.4198C47.5717 18.4275 47.4914 18.4275 47.4116 18.4198C47.328 18.4198 47.3001 18.4589 47.3001 18.4867C47.3001 18.5146 47.3503 18.5592 47.434 18.5592C47.7073 18.5592 48.1759 18.5592 48.3265 18.5592C48.4771 18.5592 48.9848 18.5592 49.4422 18.5592C49.5147 18.5592 49.5705 18.5592 49.5705 18.4867C49.5705 18.4143 49.5426 18.4198 49.4645 18.4198C49.3864 18.4198 49.2079 18.4198 49.1131 18.4198C48.9123 18.3864 48.8732 18.2638 48.8509 18.0743C48.8174 17.7901 48.8118 17.2663 48.8118 16.6589V13.9841H49.6709C50.2901 13.9841 50.4687 14.1958 50.4854 14.3686V14.4354C50.4854 14.5358 50.4854 14.5692 50.5635 14.5692C50.6416 14.5692 50.6193 14.5302 50.6249 14.4577C50.6249 14.2906 50.6249 13.8002 50.6249 13.6609C50.6249 13.5215 50.6249 13.5215 50.5691 13.5215L50.385 13.5494C50.2299 13.5732 50.0732 13.5844 49.9164 13.5828H47.1271C46.898 13.5835 46.669 13.5724 46.441 13.5494C46.2681 13.5494 46.2011 13.4714 46.1453 13.4714C46.0895 13.4714 46.084 13.5104 46.0672 13.594C46.0505 13.6776 45.9222 14.2906 45.9222 14.3964C45.9222 14.5023 45.9222 14.5079 45.9836 14.5079C46.0449 14.5079 46.0449 14.4745 46.0617 14.4187C46.0884 14.3386 46.1279 14.2633 46.1788 14.1958C46.2792 14.0454 46.441 14.0008 46.8371 13.9952L47.8579 13.9673L47.8858 16.6589ZM51.9023 16.6589C51.9023 17.2663 51.9023 17.7734 51.8689 18.0688C51.8354 18.3641 51.8075 18.3864 51.668 18.4198C51.5882 18.4272 51.5079 18.4272 51.4282 18.4198C51.3389 18.4198 51.3166 18.4589 51.3166 18.4867C51.3166 18.5146 51.3668 18.5592 51.4505 18.5592H51.9246H52.3151H53.1073C53.442 18.5592 53.8548 18.5592 54.368 18.5592C54.6246 18.5592 54.686 18.5592 54.7362 18.3864C54.7953 18.1667 54.8401 17.9433 54.8701 17.7177C54.8701 17.6453 54.8701 17.5617 54.8087 17.5617C54.7474 17.5617 54.7474 17.5951 54.7306 17.662C54.686 17.935 54.6079 18.0743 54.435 18.1524C54.2259 18.2184 54.0068 18.2467 53.7879 18.236C53.0905 18.236 52.8786 18.1356 52.8618 17.6787C52.8618 17.4837 52.8618 16.9264 52.8618 16.7035V16.1574C52.8618 16.1184 52.8618 16.0849 52.9009 16.0849C53.0738 16.0849 53.8492 16.0849 53.9775 16.1184C54.2341 16.1184 54.3178 16.241 54.3569 16.3747C54.3619 16.4545 54.3619 16.5345 54.3569 16.6143C54.3569 16.6478 54.3569 16.6701 54.4238 16.6701C54.4907 16.6701 54.4907 16.5753 54.4907 16.5196C54.4907 16.4639 54.4907 16.2075 54.5242 16.0794C54.5633 15.745 54.5744 15.6336 54.5744 15.5945C54.5744 15.5555 54.5744 15.5277 54.5242 15.5277C54.474 15.5277 54.4684 15.5667 54.4126 15.6113C54.3569 15.6558 54.2509 15.6949 54.0835 15.7116C53.9162 15.7283 53.0459 15.7116 52.8897 15.7116C52.8507 15.7116 52.8395 15.6781 52.8395 15.6391V14.0231C52.8395 13.9841 52.8395 13.9618 52.8897 13.9618C53.0292 13.9618 53.8436 13.9618 53.9608 13.9952C54.3067 14.0231 54.3569 14.1178 54.4126 14.2348C54.4434 14.3109 54.4586 14.3924 54.4573 14.4745C54.4573 14.5302 54.4573 14.5636 54.5131 14.5636C54.5688 14.5636 54.5856 14.4856 54.5912 14.4522C54.5967 14.4187 54.6246 14.0899 54.6302 14.0175C54.6392 13.8734 54.6578 13.73 54.686 13.5884C54.686 13.5605 54.686 13.5271 54.6414 13.5271C54.603 13.5338 54.5655 13.5451 54.5298 13.5605C54.474 13.5605 54.368 13.5884 54.2397 13.5996C54.1114 13.6107 52.5662 13.5996 52.3765 13.5996C52.1868 13.5996 51.7461 13.5996 51.3891 13.5996C51.2831 13.5996 51.2329 13.5996 51.2329 13.6609C51.2329 13.7222 51.2775 13.7333 51.3501 13.7333C51.439 13.7226 51.5289 13.7226 51.6178 13.7333C51.8354 13.7946 51.9023 13.867 51.9135 14.0899C51.9246 14.3128 51.9135 14.4856 51.9135 15.4887L51.9023 16.6589ZM56.2257 16.6589C56.2257 17.2663 56.2256 17.7734 56.1978 18.0688C56.1699 18.3641 56.1364 18.3864 55.9914 18.4198C55.9116 18.4272 55.8313 18.4272 55.7515 18.4198C55.6678 18.4198 55.6455 18.4589 55.6455 18.4867C55.6455 18.5146 55.6901 18.5592 55.7738 18.5592C56.0471 18.5592 56.4823 18.5592 56.6161 18.5592C56.75 18.5592 57.2856 18.5592 57.6816 18.5592C57.7709 18.5592 57.8211 18.5592 57.8211 18.4867C57.8183 18.467 57.8081 18.4491 57.7925 18.4367C57.777 18.4243 57.7573 18.4182 57.7374 18.4198H57.4027C57.1907 18.3864 57.1628 18.2638 57.1405 18.0688C57.1182 17.8737 57.1015 17.2775 57.1015 16.6589V16.5697C57.1007 16.5627 57.1014 16.5556 57.1036 16.5488C57.1057 16.5421 57.1093 16.5359 57.114 16.5306C57.1188 16.5254 57.1246 16.5212 57.1311 16.5183C57.1376 16.5154 57.1446 16.514 57.1517 16.514H57.7709C57.7934 16.5122 57.816 16.5152 57.8371 16.5229C57.8583 16.5306 57.8776 16.5428 57.8936 16.5586C57.9773 16.6589 58.2674 17.1159 58.5407 17.4614C58.7749 17.85 59.0932 18.1813 59.4723 18.431C59.7055 18.5401 59.9633 18.5862 60.2198 18.5647H60.8725C60.9562 18.5647 61.0064 18.5647 61.0064 18.4923C61.0024 18.4721 60.991 18.4542 60.9746 18.4418C60.9581 18.4295 60.9377 18.4237 60.9172 18.4254C60.8635 18.4326 60.8091 18.4326 60.7554 18.4254C60.4696 18.3673 60.2119 18.2141 60.0246 17.9908C59.6118 17.5784 59.132 16.9765 58.524 16.2354C59.1934 15.6781 59.4723 15.2602 59.4723 14.7698C59.467 14.5913 59.4204 14.4164 59.3362 14.2588C59.252 14.1013 59.1325 13.9653 58.987 13.8615C58.5905 13.6486 58.1419 13.552 57.6928 13.5828H56.6217C56.4823 13.5828 56.0639 13.5828 55.6901 13.5828C55.5897 13.5828 55.5339 13.5828 55.5339 13.6441C55.5339 13.7054 55.5841 13.7166 55.6511 13.7166C55.7419 13.7064 55.8336 13.7064 55.9244 13.7166C56.142 13.7779 56.2033 13.8503 56.2201 14.0732C56.2368 14.2961 56.2201 14.4689 56.2201 15.4719L56.2257 16.6589ZM57.1015 14.0398C57.1015 13.9841 57.1015 13.9618 57.1628 13.9506C57.2964 13.9386 57.4309 13.9386 57.5645 13.9506C57.7135 13.9494 57.8611 13.9801 57.9972 14.0406C58.1334 14.1011 58.255 14.1901 58.3538 14.3015C58.4527 14.4129 58.5265 14.5442 58.5703 14.6865C58.614 14.8288 58.6268 14.9788 58.6077 15.1264C58.623 15.3138 58.5906 15.5019 58.5135 15.6734C58.4365 15.8449 58.3172 15.9941 58.167 16.1072C58.0233 16.1999 57.8509 16.2375 57.6816 16.2131C57.5067 16.2164 57.3322 16.1958 57.1628 16.1518C57.1126 16.1518 57.1015 16.1072 57.1015 16.0348V14.0398ZM61.9157 14.9816C62.0496 15.0986 62.7748 15.901 63.5223 16.6143C64.2698 17.3276 65.0899 18.1245 65.5194 18.5202C65.5909 18.6008 65.6909 18.6507 65.7983 18.6595C65.8541 18.6595 65.9099 18.5982 65.9099 18.4477L65.988 14.2794C65.988 13.906 66.0494 13.7946 66.2334 13.7222C66.3037 13.712 66.3751 13.712 66.4454 13.7222C66.5235 13.7222 66.5626 13.6887 66.5626 13.6497C66.5626 13.6107 66.5012 13.5884 66.4064 13.5884C66.0717 13.5884 65.8151 13.5884 65.737 13.5884C65.6589 13.5884 65.2237 13.5884 64.8667 13.5884C64.7663 13.5884 64.6938 13.5884 64.6938 13.6497C64.6938 13.711 64.6938 13.7222 64.8054 13.7222C64.9257 13.7164 65.0462 13.7295 65.1624 13.7612C65.3242 13.8225 65.3855 13.9395 65.3967 14.3184L65.4636 17.2608C65.3632 17.166 64.4483 16.2298 63.9853 15.7729C62.9868 14.8032 61.9603 13.75 61.8767 13.6664C61.793 13.5828 61.6647 13.4491 61.581 13.4491C61.4973 13.4491 61.4638 13.5438 61.4638 13.672L61.4025 17.5728C61.4025 18.1301 61.369 18.3307 61.1905 18.3753C61.0878 18.3974 60.9831 18.4086 60.8781 18.4087C60.8167 18.4087 60.7721 18.4366 60.7721 18.4756C60.7721 18.5146 60.8335 18.548 60.9227 18.548C61.2742 18.548 61.6033 18.548 61.6647 18.548C61.726 18.548 62.1109 18.548 62.5516 18.548C62.6465 18.548 62.7078 18.548 62.7078 18.4756C62.7078 18.4031 62.6688 18.4087 62.5907 18.4087C62.4698 18.4109 62.3493 18.3939 62.2337 18.3586C62.0998 18.314 62.0161 18.1579 61.9994 17.6453L61.9157 14.9816ZM70.0882 18.665C70.458 18.6922 70.8294 18.6421 71.1788 18.518C71.5282 18.3939 71.8479 18.1986 72.1176 17.9444C72.3873 17.6902 72.601 17.3827 72.7453 17.0414C72.8896 16.7002 72.9612 16.3327 72.9555 15.9623C72.9555 14.4466 71.8844 13.4881 70.1663 13.4881C68.0911 13.4881 67.2989 14.9481 67.2989 16.0794C67.297 16.4367 67.3694 16.7906 67.5116 17.1185C67.6538 17.4465 67.8626 17.7413 68.1248 17.9844C68.3871 18.2275 68.697 18.4135 69.0349 18.5307C69.3729 18.6479 69.7316 18.6936 70.0882 18.665ZM70.3671 18.3084C69.0729 18.3084 68.2975 17.2329 68.2975 15.8732C68.2975 14.2404 69.19 13.8392 69.971 13.8392C71.0867 13.8392 71.957 14.7419 71.957 16.202C71.957 18.0855 70.8413 18.3084 70.3838 18.3084" fill="white"/>
<path d="M35.7024 8.01044C35.7024 8.72931 35.7024 9.34229 35.6634 9.68222C35.6355 9.9107 35.5965 10.0779 35.4403 10.1113C35.3489 10.1331 35.2553 10.1443 35.1613 10.1447C35.0665 10.1447 35.033 10.1447 35.033 10.206C35.033 10.2673 35.0888 10.2841 35.1892 10.2841C35.5016 10.2841 35.9925 10.2841 36.171 10.2841C36.3495 10.2841 36.8628 10.2841 37.376 10.2841C37.4597 10.2841 37.5266 10.2841 37.5266 10.206C37.5266 10.128 37.4876 10.1447 37.3983 10.1447C37.2657 10.1421 37.1334 10.131 37.0022 10.1113C36.7679 10.0779 36.7233 9.9107 36.701 9.69337C36.6619 9.35901 36.6619 8.74603 36.6619 8.02159V4.90094C36.6619 4.81735 36.6619 4.77277 36.7233 4.75605C36.8217 4.73127 36.9231 4.72002 37.0245 4.72261C37.3139 4.72441 37.5923 4.83366 37.8055 5.02911C37.9619 5.17842 38.0838 5.35995 38.1628 5.56108C38.2417 5.76221 38.2759 5.97811 38.263 6.19378C38.2803 6.49885 38.1829 6.79939 37.9899 7.03648C37.7969 7.27357 37.5223 7.43013 37.2198 7.47547C37.058 7.47547 37.0022 7.47547 37.0022 7.55906C37.0022 7.64265 37.058 7.62036 37.0971 7.63151H37.2588C37.5104 7.64311 37.7616 7.60274 37.9967 7.51291C38.2319 7.42308 38.446 7.28573 38.6256 7.10945C38.8052 6.93318 38.9465 6.72177 39.0405 6.48846C39.1346 6.25515 39.1794 6.00496 39.1723 5.75354C39.1665 5.40749 39.0288 5.07667 38.7873 4.82849C38.5888 4.65931 38.3577 4.53248 38.1083 4.45581C37.8588 4.37915 37.5964 4.35426 37.3369 4.38268C36.9799 4.38268 36.5281 4.38268 36.2212 4.38268C36.0037 4.38268 35.5128 4.38268 35.1056 4.38268C34.9884 4.38268 34.9326 4.38268 34.9326 4.45513C34.9326 4.52757 34.9828 4.522 35.0665 4.522C35.1666 4.51131 35.2676 4.51131 35.3677 4.522C35.6244 4.57215 35.6913 4.70032 35.7024 4.96223C35.7136 5.22415 35.7024 5.43033 35.7024 6.63401V8.01044ZM42.0675 8.63457L42.6253 9.96085C42.6316 9.97504 42.6348 9.99037 42.6347 10.0059C42.6347 10.0214 42.6314 10.0367 42.6251 10.0508C42.6188 10.065 42.6096 10.0777 42.5981 10.0881C42.5866 10.0985 42.5731 10.1064 42.5584 10.1113C42.4915 10.1113 42.4747 10.1392 42.4747 10.1782C42.4747 10.2172 42.5528 10.2283 42.6755 10.2339C43.2334 10.2339 43.7522 10.2339 43.9921 10.2339C44.2319 10.2339 44.2877 10.2339 44.2877 10.1615C44.2877 10.089 44.2543 10.0946 44.1929 10.0946C44.1074 10.0992 44.0218 10.0992 43.9363 10.0946C43.8136 10.0612 43.6183 9.97757 43.3784 9.3813C42.9433 8.38381 41.7941 5.67553 41.6324 5.31331C41.5654 5.16285 41.532 5.10155 41.4315 5.10155C41.3311 5.10155 41.3088 5.17957 41.2307 5.36346L39.44 9.52619C39.3006 9.86054 39.1834 10.0834 38.8822 10.0834H38.6758C38.6256 10.0834 38.5977 10.1113 38.5977 10.1503C38.5977 10.1893 38.6367 10.2228 38.726 10.2228C39.083 10.2228 39.4512 10.2228 39.5181 10.2228C39.7357 10.2228 40.076 10.2228 40.2824 10.2228C40.3549 10.2228 40.394 10.2228 40.394 10.1503C40.394 10.0779 40.394 10.0834 40.288 10.0834H40.1875C39.9811 10.0834 39.9142 10.011 39.9142 9.89398C39.9248 9.75492 39.9608 9.61895 40.0202 9.49275L40.3549 8.66801L40.5557 8.1609V8.10518M40.5557 8.10518L41.1694 6.51699C41.1694 6.51699 41.1694 6.45569 41.2084 6.45569C41.2475 6.45569 41.2084 6.4947 41.2084 6.51699L41.8388 8.11075L42.0563 8.63457M45.0018 8.3448C45.0018 8.98565 45.0018 9.51504 44.9683 9.78253C44.9348 10.05 44.9069 10.0723 44.7675 10.1057C44.6877 10.1131 44.6074 10.1131 44.5276 10.1057C44.4383 10.1057 44.416 10.1447 44.416 10.1726C44.416 10.2005 44.4662 10.2451 44.5499 10.2451C44.8233 10.2451 45.2863 10.2451 45.4425 10.2451C45.5987 10.2451 46.1007 10.2451 46.5582 10.2451C46.6363 10.2451 46.6921 10.2451 46.6921 10.1726C46.6921 10.1002 46.6921 10.1057 46.5861 10.1057C46.4801 10.1057 46.3295 10.1057 46.2346 10.1057C46.0338 10.0723 45.9836 9.972 45.9613 9.79367C45.9278 9.51504 45.9278 8.98565 45.9278 8.3448V7.18013C45.9278 6.17706 45.9278 5.99316 45.9278 5.78141C45.9278 5.56965 46.0003 5.45262 46.1844 5.42476C46.253 5.41684 46.3222 5.41684 46.3908 5.42476C46.4578 5.42476 46.4968 5.42476 46.4968 5.34674C46.4968 5.26873 46.441 5.29102 46.3573 5.29102H45.4759H44.5611C44.4495 5.29102 44.3993 5.29102 44.3993 5.34674C44.3993 5.40247 44.4328 5.42476 44.5053 5.42476C44.5886 5.41351 44.673 5.41351 44.7563 5.42476C44.9014 5.47491 44.9739 5.54736 44.985 5.77583C44.9962 6.00431 44.985 6.17149 44.985 7.17455L45.0018 8.3448ZM49.2526 9.95528C49.3809 10.2673 49.4367 10.3509 49.5315 10.3509C49.6263 10.3509 49.6877 10.2506 49.8551 9.87169C50.0224 9.49275 50.3404 8.80175 50.7643 7.84884C51.1381 7.04081 51.3222 6.68417 51.5844 6.06003C51.7685 5.64209 51.8577 5.54178 51.947 5.50278C52.0444 5.43952 52.1607 5.41195 52.2761 5.42476C52.3486 5.42476 52.3877 5.3969 52.3877 5.35232C52.3877 5.30773 52.3319 5.29102 52.2482 5.29102H51.6011C51.5174 5.29102 51.2106 5.29102 50.8703 5.29102C50.7365 5.29102 50.6751 5.29102 50.6751 5.35232C50.6751 5.41361 50.7309 5.42476 50.7922 5.42476C50.883 5.41357 50.9748 5.41357 51.0656 5.42476C51.1269 5.42476 51.1604 5.47491 51.1604 5.54178C51.1503 5.62456 51.1277 5.70534 51.0935 5.78141C50.9317 6.21607 50.0559 8.35037 49.7602 9.03023L48.5999 6.07675C48.5251 5.91947 48.4725 5.75255 48.4437 5.58079C48.4458 5.55412 48.4552 5.52854 48.471 5.5069C48.4867 5.48526 48.5082 5.4684 48.533 5.45819C48.6144 5.41895 48.7053 5.40349 48.7951 5.41361C48.8565 5.41361 48.9067 5.38575 48.9067 5.34117C48.9067 5.29659 48.8286 5.27987 48.7394 5.27987C48.3991 5.27987 48.042 5.27987 47.8691 5.27987C47.6962 5.27987 47.2387 5.27987 46.8706 5.27987C46.7702 5.27987 46.7032 5.27987 46.7032 5.34117C46.7032 5.40247 46.7032 5.41361 46.7813 5.41361C46.8685 5.40451 46.9563 5.40451 47.0435 5.41361C47.2945 5.47491 47.3949 5.53621 47.5511 5.904L49.2526 9.95528ZM54.6693 8.63457L55.2271 9.96085C55.2334 9.97504 55.2365 9.99037 55.2365 10.0059C55.2365 10.0214 55.2332 10.0367 55.2269 10.0508C55.2206 10.065 55.2114 10.0777 55.1999 10.0881C55.1884 10.0985 55.1749 10.1064 55.1602 10.1113C55.0932 10.1113 55.0765 10.1392 55.0765 10.1782C55.0765 10.2172 55.1546 10.2283 55.2773 10.2339C55.8352 10.2339 56.354 10.2339 56.5939 10.2339C56.8337 10.2339 56.8895 10.2339 56.8895 10.1615C56.8895 10.089 56.8895 10.0946 56.7947 10.0946C56.7092 10.0992 56.6235 10.0992 56.5381 10.0946C56.4153 10.0612 56.2201 9.97757 55.9802 9.3813C55.5451 8.38381 54.4015 5.67553 54.2342 5.31331C54.1672 5.16285 54.1337 5.10155 54.0333 5.10155C53.9329 5.10155 53.9106 5.17957 53.8325 5.36346L52.0418 9.52619C51.9024 9.86054 51.7852 10.0834 51.484 10.0834H51.2831C51.2274 10.0834 51.205 10.1113 51.205 10.1503C51.205 10.1893 51.2441 10.2228 51.3278 10.2228C51.6848 10.2228 52.053 10.2228 52.1199 10.2228C52.3375 10.2228 52.6778 10.2228 52.8842 10.2228C52.9567 10.2228 52.9957 10.2228 52.9957 10.1503C52.9957 10.0779 52.9957 10.0834 52.8953 10.0834H52.7893C52.5829 10.0834 52.5216 10.011 52.5216 9.89398C52.5297 9.75515 52.5637 9.61907 52.622 9.49275L52.9455 8.70702L53.1575 8.14976L53.2077 8.03273L53.8214 6.48355C53.8214 6.48355 53.8214 6.42225 53.8604 6.42225C53.8995 6.42225 53.8604 6.46126 53.8604 6.48355L54.4629 8.04945L54.6693 8.63457ZM59.2827 8.63457C59.2827 9.30886 59.7792 10.3565 61.4416 10.3565C61.7817 10.3692 62.1209 10.3125 62.4383 10.1898C62.7558 10.0672 63.0449 9.8812 63.288 9.64321C63.5335 9.86809 63.8242 10.0381 64.1407 10.1419C64.4572 10.2456 64.7922 10.2808 65.1234 10.2451H65.7258C65.8932 10.2451 65.9546 10.2451 65.9546 10.1726C65.9546 10.1002 65.9155 10.1057 65.8486 10.1057C65.5566 10.0683 65.2745 9.97565 65.0174 9.83268C64.6348 9.6106 64.2726 9.35512 63.9351 9.06924C64.3835 8.5562 64.6501 7.9099 64.6938 7.23028C64.6938 7.13555 64.5767 7.09096 64.4316 7.07425C64.1225 7.03742 63.8114 7.01882 63.5 7.01852C63.4331 7.01852 63.3717 7.01852 63.3717 7.09654C63.3717 7.17455 63.4219 7.15784 63.4665 7.15784C63.6031 7.14906 63.7381 7.1907 63.8459 7.27486C63.8956 7.31967 63.9348 7.37484 63.9609 7.43646C63.9869 7.49809 63.9991 7.56467 63.9965 7.63151C63.9834 8.05742 63.8542 8.47168 63.6227 8.82961C63.4721 8.69587 62.507 7.83212 62.2504 7.5312C61.6312 6.8402 60.9618 6.21607 60.9618 5.48606C60.9542 5.37242 60.97 5.25843 61.0083 5.15117C61.0467 5.04391 61.1067 4.94567 61.1846 4.86257C61.2626 4.77946 61.3568 4.71327 61.4615 4.6681C61.5661 4.62293 61.679 4.59976 61.793 4.60002C61.9543 4.58915 62.1161 4.61511 62.2659 4.67594C62.4157 4.73677 62.5497 4.83086 62.6577 4.95109C62.8072 5.13504 62.8863 5.36617 62.8808 5.60308C62.8808 5.72011 62.8808 5.75354 62.9366 5.75354C62.9924 5.75354 63.0147 5.75354 63.0314 5.6198C63.0764 5.28895 63.1043 4.95601 63.1151 4.62231C63.1151 4.53314 63.1151 4.46627 62.9812 4.42169C62.681 4.31239 62.3636 4.25766 62.044 4.26009C60.6885 4.26009 60.1418 5.07369 60.1529 5.68667C60.1446 6.09398 60.2854 6.4903 60.549 6.80119C60.1977 6.97487 59.8968 7.23562 59.6751 7.55854C59.4534 7.88147 59.3183 8.25577 59.2827 8.64572M61.7093 9.87169C61.5088 9.86675 61.3113 9.82171 61.1286 9.73923C60.9458 9.65675 60.7814 9.53851 60.6452 9.39149C60.5089 9.24447 60.4035 9.07166 60.3353 8.88327C60.267 8.69487 60.2373 8.49472 60.2478 8.29465C60.2365 8.06711 60.2815 7.84031 60.3788 7.63428C60.4761 7.42824 60.6227 7.2493 60.8056 7.11326C60.9395 7.30272 61.436 7.86556 61.6368 8.08289C61.8376 8.30022 62.5907 9.03023 63.037 9.42031C62.6778 9.71408 62.2293 9.87717 61.7651 9.88283" fill="white"/>
<path d="M71.0473 24.2433H70.2886C70.4169 23.8978 70.5396 23.5468 70.6791 23.1901L71.0473 24.2433ZM72.52 25.5473V25.3746C72.2132 25.3356 72.1462 25.2743 71.9621 24.8173C71.6442 23.9814 71.3429 23.1455 71.0305 22.2706L70.7795 22.3375L69.7754 24.8507C69.6136 25.2575 69.5578 25.3133 69.2175 25.3523V25.525H70.3332V25.3523C69.9762 25.3077 69.9706 25.2408 70.0376 25.0068C70.1045 24.7727 70.1603 24.6334 70.2161 24.483H71.1533L71.3485 25.0402C71.4266 25.2575 71.4043 25.3133 71.1142 25.3578V25.5306L72.52 25.5473ZM68.0572 25.5473V25.3746C67.6946 25.3411 67.65 25.3077 67.65 24.8953V23.0229C67.65 22.6106 67.6946 22.5716 68.0572 22.5381V22.3709H66.5901V22.5381C66.9527 22.5716 66.9973 22.6106 66.9973 23.0229V24.8953C66.9973 25.3077 66.9527 25.3411 66.5901 25.3746V25.5473H68.0572ZM65.0894 24.639C64.844 25.1294 64.5316 25.3913 64.1299 25.3913C63.4661 25.3913 62.9808 24.8006 62.9808 23.8978C62.9808 23.179 63.3713 22.5103 64.0965 22.5103C64.3182 22.5055 64.534 22.5823 64.7027 22.7262C64.8714 22.8701 64.9813 23.0709 65.0113 23.2904L65.1899 23.257C65.1564 22.9505 65.1229 22.6997 65.0783 22.4545C64.7869 22.3756 64.4874 22.3308 64.1857 22.3208C63.0198 22.3208 62.2444 23.0229 62.2444 24.026C62.2444 24.8006 62.8023 25.6476 64.0909 25.6476C64.3973 25.6332 64.7017 25.5903 65.0002 25.5195C65.1108 25.2685 65.2021 25.0096 65.2735 24.7449L65.0894 24.639ZM59.5723 24.2433H58.8081C58.9364 23.8978 59.0591 23.5468 59.193 23.1901L59.5723 24.2433ZM61.0227 25.5473V25.3746C60.7159 25.3356 60.6545 25.2743 60.4649 24.8173C60.1469 23.9814 59.8401 23.1455 59.5277 22.2706L59.2822 22.3375L58.2781 24.8507C58.1163 25.2575 58.055 25.3133 57.7203 25.3523V25.525H58.836V25.3523C58.4789 25.3077 58.4678 25.2408 58.5347 25.0068C58.6017 24.7727 58.6575 24.6334 58.7132 24.483H59.6895C59.7676 24.6836 59.8401 24.8897 59.8903 25.0402C59.9405 25.1907 59.9405 25.3133 59.6504 25.3578V25.5306L61.0227 25.5473ZM56.3424 24.639C56.0914 25.1294 55.7845 25.3913 55.3829 25.3913C54.7135 25.3913 54.2281 24.8006 54.2281 23.8978C54.2281 23.179 54.6242 22.5103 55.3438 22.5103C55.5675 22.5027 55.786 22.5783 55.9571 22.7224C56.1281 22.8665 56.2396 23.0689 56.2699 23.2904L56.4484 23.257C56.4149 22.9505 56.3814 22.6997 56.3368 22.4545C56.0475 22.3751 55.7497 22.3302 55.4498 22.3208C54.2783 22.3208 53.5029 23.0229 53.5029 24.026C53.5029 24.8006 54.0608 25.6476 55.3494 25.6476C55.6559 25.6337 55.9603 25.5908 56.2587 25.5195C56.3693 25.2685 56.4606 25.0096 56.5321 24.7449L56.3424 24.639ZM50.2061 22.4991C50.7639 22.4991 51.1656 23.0898 51.1656 24.0594C51.1656 25.0291 50.7862 25.4136 50.3232 25.4136C49.6984 25.4136 49.3247 24.7059 49.3247 23.87C49.3247 23.0341 49.7096 22.4991 50.2005 22.4991H50.2061ZM50.2953 22.2985C50.0704 22.2869 49.8455 22.3219 49.6348 22.4012C49.424 22.4805 49.232 22.6025 49.0707 22.7595C48.9093 22.9164 48.7822 23.105 48.6973 23.3134C48.6124 23.5217 48.5715 23.7454 48.5771 23.9703C48.5793 24.1898 48.6248 24.4068 48.7109 24.6088C48.7971 24.8108 48.9222 24.9938 49.0791 25.1475C49.2361 25.3012 49.4218 25.4225 49.6257 25.5045C49.8296 25.5865 50.0476 25.6275 50.2674 25.6253C50.4872 25.6231 50.7044 25.5777 50.9066 25.4917C51.1088 25.4056 51.292 25.2807 51.4459 25.1239C51.5997 24.9671 51.7212 24.7815 51.8032 24.5779C51.8853 24.3742 51.9264 24.1564 51.9242 23.9368C51.9311 23.7227 51.8942 23.5094 51.8159 23.31C51.7375 23.1106 51.6193 22.9292 51.4684 22.7769C51.3175 22.6247 51.1372 22.5047 50.9384 22.4244C50.7396 22.344 50.5265 22.305 50.312 22.3096L50.2953 22.2985ZM47.4503 22.3709H46.3402V22.5437C46.7418 22.5938 46.7418 22.6607 46.6358 23.0062C46.5298 23.3517 46.2844 23.9926 46.0166 24.678C45.8437 24.2155 45.4588 23.2235 45.3137 22.8335C45.2412 22.6217 45.2412 22.5716 45.5982 22.5158V22.3431H44.1199V22.5158C44.4212 22.5437 44.5048 22.6161 44.6778 22.9951C44.8842 23.4966 45.3416 24.6668 45.6763 25.5752H45.9218C46.3011 24.5665 46.7474 23.4576 46.9092 23.0787C47.0709 22.6997 47.1993 22.5214 47.5116 22.5214L47.4503 22.3709ZM40.5553 22.9282C40.5553 22.7889 40.5553 22.7053 40.6111 22.6607C40.7026 22.6035 40.8104 22.5781 40.9179 22.5883C41.0647 22.5826 41.2112 22.6068 41.3483 22.6595C41.4855 22.7122 41.6104 22.7923 41.7156 22.8948C41.9684 23.1857 42.0984 23.5633 42.0782 23.948C42.0782 24.8229 41.6264 25.3578 40.9625 25.3578C40.6166 25.3578 40.5441 25.2353 40.5441 24.8842L40.5553 22.9282ZM39.5065 22.3709V22.5381C39.858 22.5716 39.897 22.605 39.897 23.0229V24.8897C39.897 25.3077 39.8524 25.3411 39.4619 25.3746V25.5473H40.7226C41.2482 25.5745 41.7685 25.4319 42.2065 25.1405C42.4084 24.9912 42.5718 24.7962 42.6834 24.5714C42.7949 24.3466 42.8513 24.0985 42.848 23.8477C42.8514 23.6502 42.8129 23.4543 42.735 23.2727C42.6572 23.0912 42.5417 22.9282 42.3962 22.7945C42.0009 22.4754 41.4964 22.3234 40.9904 22.3709H39.5065ZM36.7173 24.2433H35.9698C36.0981 23.8978 36.2208 23.5468 36.3547 23.1901L36.7173 24.2433ZM38.1677 25.5473V25.3746C37.8609 25.3356 37.7995 25.2743 37.6098 24.8173C37.2919 23.9814 36.9851 23.1455 36.6727 22.2706L36.4216 22.3375L35.4231 24.8507C35.2613 25.2575 35.1999 25.3133 34.8652 25.3523V25.525H35.9809V25.3523C35.6239 25.3077 35.6128 25.2408 35.6797 25.0068C35.7466 24.7727 35.8024 24.6334 35.8582 24.483H36.8177C36.8958 24.6836 36.9683 24.8897 37.0129 25.0402C37.0576 25.1907 37.0687 25.3133 36.7787 25.3578V25.5306L38.1677 25.5473Z" fill="white" fill-opacity="0.5"/>
<path fill-rule="evenodd" clip-rule="evenodd" d="M23.1338 2.18127L22.1353 0.999878L23.6414 1.3621L24.6623 2.54349L23.1338 2.18127Z" fill="white" fill-opacity="0.5"/>
<path fill-rule="evenodd" clip-rule="evenodd" d="M20.7017 27.9547C21.1759 28.1219 21.6668 28.2668 22.1354 28.4284C21.7003 28.59 21.2819 28.7349 20.8468 28.9021C20.3782 28.7349 19.8873 28.5733 19.4131 28.4284C19.8482 28.2668 20.2833 28.1219 20.7017 27.9547Z" fill="white" fill-opacity="0.5"/>
<path fill-rule="evenodd" clip-rule="evenodd" d="M20.6407 27.8099C20.914 27.3975 21.1985 26.9573 21.444 26.5449L20.1498 27.013C19.8987 27.431 19.6254 27.8656 19.3521 28.2836C19.7872 28.1387 20.2279 27.9771 20.6407 27.8099Z" fill="white" fill-opacity="0.5"/>
<path fill-rule="evenodd" clip-rule="evenodd" d="M22.4476 27.2526L23.9147 27.52C23.5186 27.7374 23.117 27.938 22.7209 28.1553C22.2077 28.0829 21.7168 27.9937 21.2314 27.9046C21.6275 27.6872 22.0292 27.4699 22.4476 27.2526Z" fill="white" fill-opacity="0.5"/>
<path fill-rule="evenodd" clip-rule="evenodd" d="M22.3758 27.1243C22.571 26.6674 22.7718 26.1993 22.9727 25.7423C22.5543 25.9596 22.1582 26.1825 21.7566 26.3999C21.5557 26.8513 21.3549 27.3249 21.1597 27.7763L22.3758 27.1243Z" fill="white" fill-opacity="0.5"/>
<path fill-rule="evenodd" clip-rule="evenodd" d="M24.0429 26.3441L25.5491 26.45L24.4334 27.2134L22.9272 27.1076L24.0708 26.3441" fill="white" fill-opacity="0.5"/>
<path fill-rule="evenodd" clip-rule="evenodd" d="M23.9873 26.216C24.1324 25.7423 24.2942 25.2742 24.4392 24.7838L23.2956 25.5473C23.1506 26.0321 22.9888 26.5057 22.8438 26.9794L23.9594 26.216" fill="white" fill-opacity="0.5"/>
<path fill-rule="evenodd" clip-rule="evenodd" d="M25.5324 25.2186C26.04 25.1795 26.5477 25.1461 27.0386 25.1294C26.6927 25.4192 26.3691 25.7257 26.0233 26.0322L24.5171 26.1436C24.863 25.8371 25.2032 25.525 25.5324 25.2186Z" fill="white" fill-opacity="0.5"/>
<path fill-rule="evenodd" clip-rule="evenodd" d="M25.443 25.107C25.5323 24.6222 25.6048 24.1318 25.694 23.6191C25.3538 23.9312 25.0079 24.2377 24.6788 24.5498C24.5895 25.0346 24.517 25.5473 24.4277 26.0321L25.443 25.107Z" fill="white" fill-opacity="0.5"/>
<path fill-rule="evenodd" clip-rule="evenodd" d="M26.8766 23.9314L28.3493 23.6027C28.0592 23.9649 27.7915 24.3104 27.4735 24.6559L26.0063 24.9624C26.2964 24.6002 26.5642 24.2547 26.8766 23.9092" fill="white" fill-opacity="0.5"/>
<path fill-rule="evenodd" clip-rule="evenodd" d="M26.7751 23.8476C26.7751 23.3572 26.7751 22.8668 26.8141 22.382L25.9448 23.4129C25.9448 23.9033 25.9058 24.4104 25.9058 24.9175C26.1955 24.5553 26.463 24.2098 26.7751 23.8476Z" fill="white" fill-opacity="0.5"/>
<path fill-rule="evenodd" clip-rule="evenodd" d="M28.0368 22.4992C28.511 22.332 28.9852 22.1871 29.4705 22.0422L28.6951 23.1568C28.2209 23.3184 27.7468 23.4632 27.2559 23.6081C27.5125 23.2292 27.7691 22.8837 28.0368 22.4936" fill="white" fill-opacity="0.5"/>
<path fill-rule="evenodd" clip-rule="evenodd" d="M27.8921 22.4048C27.8531 21.9144 27.8197 21.4073 27.7807 20.9169C27.5299 21.2791 27.2735 21.6636 27.0005 22.0314C27.0395 22.5385 27.0729 23.0289 27.1119 23.5193C27.3794 23.1403 27.6358 22.7781 27.8921 22.4048Z" fill="white" fill-opacity="0.5"/>
<path fill-rule="evenodd" clip-rule="evenodd" d="M29.0085 20.8997L30.3529 20.2477C30.1521 20.6489 29.9513 21.0613 29.7505 21.4792L28.4116 22.1368C28.6069 21.7188 28.8077 21.3009 29.0085 20.8997Z" fill="white" fill-opacity="0.5"/>
<path fill-rule="evenodd" clip-rule="evenodd" d="M28.8571 20.8276C28.7679 20.3372 28.6564 19.8468 28.545 19.3564C28.35 19.7744 28.1493 20.1923 27.9487 20.5936C28.0602 21.084 28.1661 21.5743 28.2775 22.0592C28.4726 21.6635 28.6732 21.2456 28.8348 20.8276" fill="white" fill-opacity="0.5"/>
<path fill-rule="evenodd" clip-rule="evenodd" d="M29.745 19.2114L31.0392 18.4146C30.8718 18.8492 30.71 19.2672 30.565 19.7018L29.2764 20.5043C29.4381 20.064 29.5999 19.6294 29.745 19.2114Z" fill="white" fill-opacity="0.5"/>
<path fill-rule="evenodd" clip-rule="evenodd" d="M29.6212 19.161C29.4538 18.6873 29.2921 18.1969 29.147 17.7233C28.9852 18.1635 28.8179 18.5759 28.6729 19.0161C28.8179 19.4842 28.9852 19.9579 29.1303 20.4483C29.2921 20.0136 29.4538 19.5789 29.6212 19.161Z" fill="white" fill-opacity="0.5"/>
<path fill-rule="evenodd" clip-rule="evenodd" d="M30.2743 17.4171L31.39 16.4363C31.3008 16.8932 31.2059 17.3446 31.1167 17.7793L30.001 18.7601C30.0902 18.3087 30.1795 17.8517 30.2743 17.4171Z" fill="white" fill-opacity="0.5"/>
<path fill-rule="evenodd" clip-rule="evenodd" d="M30.1241 17.3833C29.9066 16.9263 29.6667 16.4917 29.4491 16.0403C29.3599 16.4917 29.2706 16.9263 29.1758 17.3833C29.3933 17.8347 29.6165 18.286 29.8508 18.7263C29.94 18.286 30.0293 17.8347 30.1241 17.3833Z" fill="white" fill-opacity="0.5"/>
<path fill-rule="evenodd" clip-rule="evenodd" d="M30.5642 15.5672C30.9101 15.1882 31.2336 14.826 31.5628 14.4526C31.5628 14.9096 31.507 15.361 31.4902 15.8123C31.1611 16.1969 30.8376 16.5758 30.4917 16.9603C30.5252 16.4866 30.5475 16.0297 30.5642 15.5783" fill="white" fill-opacity="0.5"/>
<path fill-rule="evenodd" clip-rule="evenodd" d="M30.4183 15.567C30.1286 15.149 29.8611 14.7534 29.549 14.3354C29.549 14.7868 29.51 15.2382 29.4766 15.7119C29.7663 16.1131 30.0338 16.5311 30.3459 16.9267C30.3793 16.4753 30.4016 16.0184 30.4183 15.567Z" fill="white" fill-opacity="0.5"/>
<path fill-rule="evenodd" clip-rule="evenodd" d="M30.6206 13.7167L31.4899 12.5018C31.5234 12.9532 31.5457 13.4102 31.5624 13.8615C31.2726 14.2795 31.0051 14.6807 30.693 15.0987C30.693 14.625 30.654 14.168 30.6206 13.7167Z" fill="white" fill-opacity="0.5"/>
<path fill-rule="evenodd" clip-rule="evenodd" d="M30.4755 13.7334C30.1463 13.3545 29.8172 12.9756 29.4937 12.5911C29.4937 13.048 29.5271 13.4994 29.5494 13.9731C29.8897 14.3353 30.2189 14.7142 30.548 15.0876C30.548 14.6362 30.4922 14.1848 30.4755 13.7279" fill="white" fill-opacity="0.5"/>
<path fill-rule="evenodd" clip-rule="evenodd" d="M30.436 11.8666C30.6703 11.4152 30.8879 10.9582 31.1278 10.5236C31.217 10.9582 31.3063 11.4152 31.4011 11.8666C31.1612 12.3012 30.9437 12.7526 30.7094 13.2095C30.6201 12.7526 30.5253 12.3012 30.436 11.8666Z" fill="white" fill-opacity="0.5"/>
<path fill-rule="evenodd" clip-rule="evenodd" d="M30.2915 11.8834C29.9121 11.5769 29.5272 11.2481 29.1758 10.9249C29.265 11.3763 29.3543 11.811 29.4491 12.2679C29.8285 12.5911 30.2078 12.9199 30.6095 13.2264C30.5035 12.7917 30.4086 12.3348 30.3194 11.8834" fill="white" fill-opacity="0.5"/>
<path fill-rule="evenodd" clip-rule="evenodd" d="M30.0346 10.0499C30.2019 9.58185 30.3805 9.1249 30.5646 8.6568C30.7096 9.09146 30.8379 9.52612 30.9829 9.96079C30.7988 10.4345 30.6203 10.9026 30.4251 11.3595C30.2968 10.9248 30.1517 10.4846 30.0234 10.0499" fill="white" fill-opacity="0.5"/>
<path fill-rule="evenodd" clip-rule="evenodd" d="M29.8892 10.1056C29.4708 9.81582 29.058 9.54834 28.6396 9.25299C28.7847 9.68765 28.913 10.1223 29.058 10.5626C29.4708 10.8523 29.8725 11.1198 30.2909 11.4152C30.1626 10.9749 30.0175 10.5403 29.8892 10.1056Z" fill="white" fill-opacity="0.5"/>
<path fill-rule="evenodd" clip-rule="evenodd" d="M29.3818 8.31131L29.7106 6.84015L30.3069 8.07727L29.9837 9.54286C29.7831 9.12491 29.5824 8.70697 29.3818 8.31131Z" fill="white" fill-opacity="0.5"/>
<path fill-rule="evenodd" clip-rule="evenodd" d="M29.2365 8.36681L27.8921 7.68695L28.4946 8.92407C28.9464 9.1414 29.4039 9.35873 29.839 9.57606C29.6382 9.17483 29.4373 8.76246 29.2365 8.34452" fill="white" fill-opacity="0.5"/>
<path fill-rule="evenodd" clip-rule="evenodd" d="M28.5288 6.66177C28.5845 6.17138 28.6403 5.681 28.7127 5.17389C28.9468 5.56954 29.1808 5.95405 29.4204 6.34971C29.3647 6.8401 29.2923 7.33048 29.2365 7.83759C29.0025 7.44194 28.7684 7.05743 28.5288 6.66177Z" fill="white" fill-opacity="0.5"/>
<path fill-rule="evenodd" clip-rule="evenodd" d="M28.4057 6.75106C27.9315 6.56716 27.4574 6.38884 26.9888 6.22723C27.2231 6.60617 27.4574 7.0074 27.6972 7.38633C28.1658 7.56466 28.64 7.74855 29.1086 7.91016C28.8743 7.53122 28.64 7.12999 28.4057 6.75106Z" fill="white" fill-opacity="0.5"/>
<path fill-rule="evenodd" clip-rule="evenodd" d="M27.4404 5.13497C27.4404 4.64458 27.4404 4.13748 27.4014 3.63037C27.6967 3.99259 28.0032 4.33809 28.293 4.70031C28.293 5.1907 28.293 5.6978 28.3264 6.18819L27.4404 5.13497Z" fill="white" fill-opacity="0.5"/>
<path fill-rule="evenodd" clip-rule="evenodd" d="M27.3348 5.22416C26.8495 5.13499 26.3586 5.02912 25.8677 4.91766C26.1578 5.27988 26.4255 5.62538 26.7379 5.97088L28.2106 6.29967C27.9206 5.93188 27.6528 5.59195 27.3348 5.22416Z" fill="white" fill-opacity="0.5"/>
<path fill-rule="evenodd" clip-rule="evenodd" d="M26.1851 3.78629C26.1126 3.2959 26.0233 2.80551 25.9341 2.31512C26.2799 2.62162 26.6202 2.91696 26.9494 3.22346C27.0386 3.73056 27.1335 4.22095 27.206 4.71134C26.8768 4.37141 26.531 4.06492 26.1851 3.78629Z" fill="white" fill-opacity="0.5"/>
<path fill-rule="evenodd" clip-rule="evenodd" d="M26.0965 3.86449C25.5889 3.86449 25.098 3.81434 24.5903 3.77533C24.9362 4.08182 25.2597 4.39389 25.6056 4.68366L27.1118 4.78954C26.7659 4.48305 26.4257 4.17656 26.0965 3.86449Z" fill="white" fill-opacity="0.5"/>
<path fill-rule="evenodd" clip-rule="evenodd" d="M24.7684 2.56051C24.6066 2.07013 24.4616 1.59645 24.2998 1.12836L25.4155 1.88623C25.5773 2.3599 25.7223 2.85029 25.8841 3.32396C25.5048 3.06762 25.1254 2.81128 24.7405 2.56051" fill="white" fill-opacity="0.5"/>
<path fill-rule="evenodd" clip-rule="evenodd" d="M24.6799 2.67181C24.189 2.72754 23.6813 2.76655 23.1904 2.79998C23.5753 3.05632 23.9547 3.30709 24.3061 3.56343L25.8123 3.45198C25.433 3.20121 25.0536 2.94487 24.6966 2.67181" fill="white" fill-opacity="0.5"/>
<path fill-rule="evenodd" clip-rule="evenodd" d="M8.42332 2.18127L9.42186 0.999878L7.91567 1.3621L6.90039 2.54349L8.42332 2.18127Z" fill="white" fill-opacity="0.5"/>
<path fill-rule="evenodd" clip-rule="evenodd" d="M10.8619 27.9547C10.3877 28.1219 9.89682 28.2668 9.42822 28.4284L10.7169 28.9021C11.1854 28.7349 11.6764 28.5733 12.1505 28.4284C11.7154 28.2668 11.2803 28.1219 10.8619 27.9547Z" fill="white" fill-opacity="0.5"/>
<path fill-rule="evenodd" clip-rule="evenodd" d="M10.911 27.8099C10.6432 27.3975 10.3532 26.9573 10.1133 26.5449L11.4019 27.013C11.6585 27.431 11.9319 27.8656 12.2052 28.2836C11.7645 28.1387 11.3294 27.9771 10.911 27.8099Z" fill="white" fill-opacity="0.5"/>
<path fill-rule="evenodd" clip-rule="evenodd" d="M9.1153 27.2526L7.64258 27.52C8.04423 27.7374 8.44588 27.938 8.84195 28.1553C9.34959 28.0829 9.8405 27.9937 10.3314 27.9046C9.93533 27.6872 9.53368 27.4699 9.1153 27.2526Z" fill="white" fill-opacity="0.5"/>
<path fill-rule="evenodd" clip-rule="evenodd" d="M9.18772 27.1243C8.98689 26.6674 8.79165 26.1993 8.59082 25.7423C9.00921 25.9596 9.40528 26.1825 9.80693 26.3999C10.0078 26.8513 10.203 27.3249 10.4038 27.7763L9.18772 27.1243Z" fill="white" fill-opacity="0.5"/>
<path fill-rule="evenodd" clip-rule="evenodd" d="M7.51958 26.3443L6.00781 26.4502L7.15698 27.1913L8.66317 27.0855L7.54747 26.322" fill="white" fill-opacity="0.5"/>
<path fill-rule="evenodd" clip-rule="evenodd" d="M7.5922 26.216C7.44716 25.7423 7.27981 25.2742 7.13477 24.7838C7.51968 25.0346 7.89902 25.2909 8.27835 25.5473C8.42339 26.0321 8.59075 26.5057 8.73579 26.9794L7.5922 26.216Z" fill="white" fill-opacity="0.5"/>
<path fill-rule="evenodd" clip-rule="evenodd" d="M6.0306 25.2186C5.52296 25.1795 5.00974 25.1461 4.52441 25.1294C4.8647 25.4192 5.19383 25.7257 5.5397 26.0322L7.04589 26.1436C6.70002 25.8371 6.35416 25.525 6.0306 25.2186Z" fill="white" fill-opacity="0.5"/>
<path fill-rule="evenodd" clip-rule="evenodd" d="M6.136 25.107C6.04675 24.6222 5.97423 24.1318 5.87939 23.6191C6.22526 23.9312 6.57113 24.2377 6.90026 24.5498C6.98951 25.0346 7.06203 25.5473 7.15129 26.0321C6.80542 25.7256 6.48187 25.4191 6.136 25.107Z" fill="white" fill-opacity="0.5"/>
<path fill-rule="evenodd" clip-rule="evenodd" d="M4.68561 23.9314L3.21289 23.6027C3.50297 23.9649 3.77074 24.3104 4.08313 24.6559L5.57817 24.9624C5.28808 24.6002 5.02032 24.2547 4.70792 23.9092" fill="white" fill-opacity="0.5"/>
<path fill-rule="evenodd" clip-rule="evenodd" d="M4.79174 23.8476C4.79174 23.3572 4.79174 22.8668 4.7583 22.382L5.62763 23.4129C5.62763 23.9033 5.66663 24.4104 5.66663 24.9175C5.37686 24.5274 5.08151 24.1819 4.79174 23.8476Z" fill="white" fill-opacity="0.5"/>
<path fill-rule="evenodd" clip-rule="evenodd" d="M3.52567 22.4992C3.0515 22.332 2.57733 22.1871 2.08643 22.0422C2.35977 22.4267 2.64427 22.789 2.86741 23.1568C3.34158 23.3184 3.81575 23.4632 4.30108 23.6081C4.05005 23.2292 3.79344 22.8837 3.52567 22.4936" fill="white" fill-opacity="0.5"/>
<path fill-rule="evenodd" clip-rule="evenodd" d="M3.64795 22.4048C3.68696 21.9144 3.72039 21.4073 3.7594 20.9169C4.01017 21.2791 4.26651 21.6636 4.51727 22.0314C4.51727 22.5385 4.46712 23.0289 4.42811 23.5193C4.15506 23.1403 3.90429 22.7781 3.64795 22.4048Z" fill="white" fill-opacity="0.5"/>
<path fill-rule="evenodd" clip-rule="evenodd" d="M2.55975 20.8997L1.21533 20.2477C1.41616 20.6489 1.61698 21.0613 1.81223 21.4792L3.15664 22.1368C2.9614 21.7188 2.76057 21.3009 2.55975 20.8997Z" fill="white" fill-opacity="0.5"/>
<path fill-rule="evenodd" clip-rule="evenodd" d="M2.70557 20.8276C2.79473 20.3372 2.90618 19.8468 3.01206 19.3564C3.21267 19.7744 3.41329 20.1923 3.6139 20.5936C3.50245 21.084 3.39657 21.5743 3.28512 22.0592C3.0845 21.6635 2.88946 21.2456 2.72786 20.8276" fill="white" fill-opacity="0.5"/>
<path fill-rule="evenodd" clip-rule="evenodd" d="M1.81304 19.2114L0.524414 18.4146C0.691768 18.8492 0.853544 19.2672 0.998585 19.7018L2.28721 20.5043C2.12544 20.064 1.96366 19.6294 1.81304 19.2114Z" fill="white" fill-opacity="0.5"/>
<path fill-rule="evenodd" clip-rule="evenodd" d="M1.94092 19.161C2.10827 18.6873 2.27005 18.1969 2.41509 17.7233C2.57686 18.1635 2.74422 18.5759 2.88926 19.0161C2.74422 19.4842 2.57686 19.9579 2.43182 20.4483C2.27005 20.0136 2.10827 19.5789 1.94092 19.161Z" fill="white" fill-opacity="0.5"/>
<path fill-rule="evenodd" clip-rule="evenodd" d="M1.28904 17.4171L0.17334 16.4363C0.262596 16.8932 0.35743 17.3446 0.446685 17.7793L1.56238 18.7601C1.47313 18.3087 1.37829 17.8517 1.28904 17.4171Z" fill="white" fill-opacity="0.5"/>
<path fill-rule="evenodd" clip-rule="evenodd" d="M1.43359 17.3833C1.65092 16.9263 1.89055 16.4917 2.10788 16.0403C2.19704 16.4917 2.2862 16.9263 2.37536 17.3833C2.15803 17.8347 1.92398 18.286 1.70665 18.7263C1.61749 18.286 1.52276 17.8347 1.43359 17.3833Z" fill="white" fill-opacity="0.5"/>
<path fill-rule="evenodd" clip-rule="evenodd" d="M0.998548 15.5672C0.652682 15.1882 0.32913 14.826 0 14.4526C0 14.9096 0.0557848 15.361 0.0725202 15.8123C0.401651 16.1969 0.725202 16.5758 1.07107 16.9603C1.03202 16.4866 1.01528 16.0297 0.998548 15.5783" fill="white" fill-opacity="0.5"/>
<path fill-rule="evenodd" clip-rule="evenodd" d="M1.14355 15.567C1.43333 15.149 1.70081 14.7534 2.01288 14.3354C2.01288 14.7868 2.05189 15.2382 2.08532 15.7119C1.79555 16.1131 1.52806 16.5311 1.216 16.9267C1.17699 16.4753 1.16027 16.0184 1.14355 15.567Z" fill="white" fill-opacity="0.5"/>
<path fill-rule="evenodd" clip-rule="evenodd" d="M0.941768 13.7167L0.0724437 12.5018C0.0334356 12.9532 0.0167178 13.4102 0 13.8615L0.869325 15.0987C0.869325 14.625 0.908333 14.168 0.941768 13.7167Z" fill="white" fill-opacity="0.5"/>
<path fill-rule="evenodd" clip-rule="evenodd" d="M1.11598 13.7334C1.44511 13.3545 1.77424 12.9756 2.09779 12.5911C2.09779 13.048 2.06432 13.4994 2.04201 13.9731C1.69614 14.3353 1.37259 14.7142 1.04346 15.0876C1.04346 14.6362 1.09924 14.1848 1.11598 13.7279" fill="white" fill-opacity="0.5"/>
<path fill-rule="evenodd" clip-rule="evenodd" d="M1.11547 11.8666C0.875593 11.4152 0.658032 10.9582 0.423736 10.5236C0.334481 10.9582 0.245225 11.4152 0.150391 11.8666C0.390265 12.3012 0.607826 12.7526 0.825387 13.2095C0.931378 12.7526 1.02621 12.3012 1.11547 11.8666Z" fill="white" fill-opacity="0.5"/>
<path fill-rule="evenodd" clip-rule="evenodd" d="M1.27201 11.8834C1.67367 11.5881 2.03627 11.2481 2.4156 10.9249C2.32635 11.3763 2.23151 11.811 2.14226 12.2679C1.76292 12.5911 1.37801 12.9199 0.981934 13.2264C1.08792 12.7917 1.18276 12.3348 1.27201 11.8834Z" fill="white" fill-opacity="0.5"/>
<path fill-rule="evenodd" clip-rule="evenodd" d="M1.52284 10.0499C1.36107 9.58185 1.18255 9.1249 0.998464 8.6568C0.853424 9.09146 0.725119 9.52612 0.580078 9.96079C0.764168 10.4345 0.942679 10.9026 1.13793 11.3595C1.26623 10.9248 1.41127 10.4846 1.534 10.0499" fill="white" fill-opacity="0.5"/>
<path fill-rule="evenodd" clip-rule="evenodd" d="M1.67342 10.1056C2.0918 9.81582 2.51019 9.54834 2.92857 9.25299C2.78353 9.68765 2.65523 10.1223 2.51019 10.5626C2.0918 10.8523 1.69573 11.1198 1.27734 11.4152C1.40565 10.9749 1.55069 10.5403 1.67342 10.1056Z" fill="white" fill-opacity="0.5"/>
<path fill-rule="evenodd" clip-rule="evenodd" d="M2.18042 8.31131L1.85164 6.84015C1.67332 7.25809 1.45041 7.68718 1.25537 8.07727L1.57858 9.54286C1.77919 9.12491 1.97981 8.70697 2.18042 8.31131Z" fill="white" fill-opacity="0.5"/>
<path fill-rule="evenodd" clip-rule="evenodd" d="M2.32611 8.36681L3.66494 7.68695C3.4697 8.1049 3.26887 8.50612 3.06805 8.92407C2.61619 9.1414 2.15875 9.35873 1.72363 9.57606C1.92446 9.17483 2.12528 8.76246 2.32611 8.34452" fill="white" fill-opacity="0.5"/>
<path fill-rule="evenodd" clip-rule="evenodd" d="M3.03371 6.66177C2.97798 6.17138 2.92225 5.681 2.84981 5.17389C2.61576 5.56954 2.37614 5.95405 2.14209 6.34971C2.19782 6.8401 2.27026 7.33048 2.32599 7.83759C2.56003 7.44194 2.79408 7.05743 3.03371 6.66177Z" fill="white" fill-opacity="0.5"/>
<path fill-rule="evenodd" clip-rule="evenodd" d="M3.1572 6.75106C3.63137 6.56716 4.10554 6.38884 4.57413 6.22723C4.33984 6.60617 4.10554 7.0074 3.86566 7.38633C3.39707 7.56466 2.9229 7.74855 2.44873 7.91016C2.68861 7.53122 2.9229 7.12999 3.1572 6.75106Z" fill="white" fill-opacity="0.5"/>
<path fill-rule="evenodd" clip-rule="evenodd" d="M4.1216 5.13497C4.1216 4.64458 4.1216 4.13748 4.15503 3.63037C3.86526 3.99259 3.55876 4.34366 3.26899 4.70031C3.26899 5.1907 3.26899 5.6978 3.22998 6.18819L4.1216 5.13497Z" fill="white" fill-opacity="0.5"/>
<path fill-rule="evenodd" clip-rule="evenodd" d="M4.22906 5.22416C4.71996 5.13499 5.21087 5.02912 5.70178 4.91766C5.41169 5.27988 5.14393 5.62538 4.83153 5.97088L3.34766 6.29967C3.63774 5.93188 3.9055 5.59195 4.2179 5.22416" fill="white" fill-opacity="0.5"/>
<path fill-rule="evenodd" clip-rule="evenodd" d="M5.3778 3.78629C5.45032 3.2959 5.53957 2.80551 5.62883 2.31512C5.28296 2.62162 4.9371 2.91696 4.61354 3.22346C4.52429 3.73056 4.42945 4.22095 4.35693 4.71134C4.68606 4.37141 5.02077 4.06492 5.3778 3.78629Z" fill="white" fill-opacity="0.5"/>
<path fill-rule="evenodd" clip-rule="evenodd" d="M5.46702 3.86449C5.97466 3.86449 6.46557 3.81434 6.97321 3.77533C6.62734 4.08182 6.30379 4.39389 5.95792 4.68366L4.46289 4.78954C4.80318 4.48305 5.14904 4.17656 5.47817 3.86449" fill="white" fill-opacity="0.5"/>
<path fill-rule="evenodd" clip-rule="evenodd" d="M6.78966 2.56051C6.95701 2.07013 7.10205 1.59645 7.24709 1.12836C6.88449 1.37912 6.49958 1.63546 6.1314 1.88623C5.96962 2.3599 5.82458 2.85029 5.65723 3.32396L6.78966 2.56051Z" fill="white" fill-opacity="0.5"/>
<path fill-rule="evenodd" clip-rule="evenodd" d="M6.8839 2.67181C7.3748 2.72754 7.88244 2.76655 8.37335 2.79998C7.98844 3.05632 7.6091 3.30709 7.25765 3.56343L5.75146 3.45198C6.1308 3.20121 6.51014 2.94487 6.89505 2.67181" fill="white" fill-opacity="0.5"/>
<path fill-rule="evenodd" clip-rule="evenodd" d="M23.318 12.7751L23.7197 12.9758C23.8692 12.7183 24.0574 12.4853 24.2775 12.2848C24.5509 12.0117 24.735 12.0841 24.8967 12.2457C25.0382 11.5172 25.3626 10.8365 25.8395 10.2675C25.1251 10.7739 24.3799 11.2355 23.6081 11.6495C23.6081 11.6495 23.9875 11.7219 24.0098 11.9392C24.0321 12.1566 23.5189 12.5745 23.318 12.7751ZM16.6239 12.7083C17.4941 13.5107 20.2889 11.6996 22.7881 12.7083C24.0265 13.2154 25.2426 13.6333 25.4211 15.0488C25.4333 15.2073 25.4114 15.3666 25.3569 15.516C25.3024 15.6654 25.2165 15.8014 25.105 15.9149C24.9935 16.0284 24.859 16.1167 24.7105 16.174C24.562 16.2312 24.403 16.2561 24.2441 16.2469C23.9815 16.2545 23.7215 16.194 23.4894 16.0712C23.2573 15.9484 23.0611 15.7674 22.92 15.5462C22.7789 15.3249 22.6976 15.0708 22.6843 14.8088C22.671 14.5467 22.7259 14.2857 22.8439 14.0513L23.4017 14.0847C22.9833 15.2995 24.8019 16.0463 24.6346 15.0655C24.5166 14.7015 24.2772 14.389 23.9564 14.1801C23.6356 13.9712 23.2527 13.8785 22.8718 13.9175C21.9067 13.951 21.5999 16.5478 23.1953 17.3837C23.7532 17.6734 23.8703 18.1081 23.7978 18.1806C22.5761 17.7069 23.4129 20.6827 23.887 20.3371C24.3947 20.1588 24.523 20.9557 24.0656 21.3737C24.1604 20.4263 22.7602 20.7718 22.6486 21.212C22.5371 21.6523 21.3433 21.0114 21.1257 21.4628C20.9416 20.939 21.3433 21.0449 21.6835 21.0839C21.0866 20.7718 20.83 20.8833 20.7017 21.4628C20.3614 20.7217 20.9918 20.6102 21.2596 20.6994C20.7017 20.3204 20.2945 20.5545 20.222 21.0449C20.1662 20.6492 20.1327 20.3929 20.5846 20.248C21.0364 20.1031 22.0406 21.0114 22.5649 20.248C22.749 19.9916 22.4366 18.2697 21.5831 17.9799C19.48 17.2722 20.0937 16.4753 19.5693 15.9459C18.7716 15.1491 15.8485 16.7261 15.0452 16.7818C15.0452 16.7818 14.8276 17.562 14.8109 17.6177C15.1177 17.9799 15.3687 18.214 15.1567 18.7601C15.0284 18.4313 14.4873 18.1415 14.3367 18.3812C14.1332 18.7156 14.0214 19.0977 14.0125 19.489C14.0037 19.8803 14.0982 20.267 14.2865 20.6102C14.32 20.6826 15.7369 21.0114 14.5375 21.7247C14.8834 20.7774 13.8514 21.5408 13.2321 21.4517C12.6129 21.3625 12.1443 21.017 12.0886 21.7247C11.977 21.6523 11.8152 21.1675 12.3954 21.0504C11.9045 20.978 11.7985 21.2176 11.726 21.7247C11.341 21.2176 11.6144 20.8888 12.0718 20.7997C11.9695 20.7808 11.8643 20.7839 11.7633 20.8089C11.6623 20.8339 11.5678 20.8801 11.4861 20.9446C11.368 21.1502 11.3028 21.3819 11.2964 21.6188C10.6772 19.4455 12.6743 21.0616 13.1819 20.2257C13.6896 19.3898 13.327 17.8685 12.585 17.066C12.585 17.066 12.5516 17.0103 12.5125 16.9936C11.765 16.5589 9.98547 15.5782 10.3313 14.0011C10.7665 12.0953 12.6576 9.66563 11.4749 9.81052C10.6214 9.92197 9.38857 11.0253 9.08176 10.3176C9.63961 10.3733 9.69539 10.117 9.952 9.97212C10.6214 9.6322 10.733 9.86624 11.0677 9.33685C11.0677 9.33685 11.0677 9.2644 11.0677 9.28669C10.2467 9.57842 9.41057 9.82583 8.56296 10.0278C8.27288 10.117 8.00511 10.1895 8.37887 10.5015C7.76524 10.5572 7.34685 9.99441 6.81689 9.73807C7.29107 9.6099 7.83776 9.73807 8.27288 9.50403C8.23383 9.73807 8.20036 9.92197 8.41792 9.88296C9.33687 9.62663 10.2129 9.23604 11.0175 8.72386C10.8334 8.77959 9.34395 8.57897 9.39973 8.85203C8.74705 8.99692 8.54622 8.90219 8.36213 9.15852C8.23383 8.90219 8.50717 8.14431 9.27143 7.92698C10.0915 8.26691 10.5601 6.6007 12.9421 7.26941C13.9573 7.55919 14.7718 7.5982 14.8443 6.71216C15.3185 7.85454 13.3939 7.88797 13.6115 8.20004C14.8443 10.0111 13.0536 11.6996 13.4999 12.2067C14.1693 12.8476 15.0005 9.42044 15.0675 9.00806C15.3018 7.63721 16.1497 7.01865 17.8567 6.3778C19.0543 5.89337 20.1305 5.15135 21.0085 4.20449C21.1424 4.07632 19.8036 5.84283 20.1829 6.7846C20.1829 6.7846 18.7772 7.21369 18.2193 7.40316C17.7564 7.54321 17.3317 7.78728 16.9778 8.11667C16.6238 8.44605 16.3501 8.852 16.1776 9.30341C15.6197 10.5405 15.1679 11.7331 14.7439 12.5968C15.3948 11.5759 15.9548 10.5 16.4175 9.38143C17.098 7.98828 17.7675 7.70965 20.1327 7.15239C21.7226 6.76231 21.717 6.51154 23.0224 5.31901C22.6598 5.94871 22.5315 7.29728 23.3627 7.63721C22.9889 7.71522 21.7951 8.2892 22.3474 9.39815C20.6292 9.39815 19.4689 10.2396 19.2681 11.7331C18.8846 11.5852 18.4736 11.522 18.0633 11.548C17.6531 11.574 17.2533 11.6884 16.8916 11.8835C16.6573 12.0228 16.4677 12.5077 16.6406 12.7027" fill="white"/>
<path fill-rule="evenodd" clip-rule="evenodd" d="M10.4043 15.7676C10.4043 15.6394 10.6776 16.1632 11.4028 16.7094C12.128 17.2555 12.6747 16.8933 11.9161 17.9409C11.732 18.253 12.4739 18.7043 11.9495 19.3786C11.732 18.7768 11.4586 18.487 11.1128 18.6486L9.69582 20.5043C9.53405 20.7272 9.75161 20.7439 9.95243 20.6157C10.0561 20.5331 10.186 20.49 10.3186 20.4943C10.4512 20.4987 10.578 20.5501 10.6761 20.6393C10.7742 20.7286 10.8372 20.8499 10.8539 20.9814C10.8705 21.1129 10.8397 21.2461 10.7669 21.3569C10.4433 20.6882 9.65119 21.3959 9.09335 21.3959C8.38488 21.3959 8.02228 21.017 7.76567 21.5074C7.33055 20.8164 8.61917 21.0894 8.36814 20.978C8.26581 20.9242 8.15377 20.8913 8.03857 20.8813C7.92338 20.8713 7.80734 20.8843 7.69724 20.9196C7.58713 20.9548 7.48517 21.0117 7.39731 21.0868C7.30944 21.1619 7.23744 21.2537 7.18551 21.3569C7.07951 20.9612 7.15203 20.6157 7.98323 20.6157C7.54811 20.2702 7.15203 20.4319 6.80617 20.9055C6.79574 20.755 6.82686 20.6045 6.89613 20.4704C6.9654 20.3363 7.07018 20.2237 7.19904 20.145C7.32791 20.0663 7.47593 20.0244 7.62699 20.0239C7.77804 20.0233 7.92634 20.0642 8.05575 20.1421C8.40161 20.3093 8.87579 20.6993 9.12682 20.3817C10.527 18.5817 10.2425 17.1496 10.3987 15.7732" fill="white"/>
<path fill-rule="evenodd" clip-rule="evenodd" d="M19.067 20.6659C19.067 20.6993 19.0112 20.8108 19.067 20.794C19.6248 20.4095 20.4448 20.794 19.7922 21.446C19.7587 21.1563 19.5579 20.8275 18.9554 21.212C18.8125 21.2957 18.6497 21.3399 18.484 21.3399C18.3183 21.3399 18.1556 21.2957 18.0126 21.212C17.2874 20.8275 17.0866 21.3569 16.8969 21.6801C16.7352 21.173 16.9695 20.7383 17.4046 20.8275C16.3726 20.6491 16.4451 21.5742 16.3335 21.6466C16.2828 21.5293 16.2585 21.4023 16.2622 21.2745C16.2659 21.1468 16.2976 21.0214 16.355 20.9072C16.4124 20.793 16.4942 20.6928 16.5946 20.6135C16.695 20.5343 16.8115 20.478 16.936 20.4485C16.3781 20.0306 15.9319 21.0838 15.8984 21.3179C15.7701 20.142 16.3 19.8523 16.7686 19.9414C17.4436 20.0696 18.3306 20.8108 18.8382 20.0306C19.1506 19.5625 19.5634 18.5427 19.1841 18.2919C18.9092 18.0299 18.6963 17.7097 18.5612 17.3549C18.4261 17.0001 18.3721 16.6196 18.4031 16.2412C18.4756 15.8567 18.8773 15.879 19.1674 15.9682C19.6415 16.1131 19.5132 16.7483 20.0042 17.3446C20.4393 17.835 21.092 17.9019 21.0362 18.0356L20.6401 18.9049C20.7365 19.0262 20.789 19.1764 20.789 19.3312C20.789 19.486 20.7365 19.6363 20.6401 19.7575C20.4951 19.5569 20.244 19.3229 20.0432 19.3953C19.6065 19.7179 19.2715 20.1589 19.0781 20.6659" fill="white"/>
</g>
<defs>
<clipPath id="clip0_2149_180">
<rect width="73" height="27.902" fill="white" transform="translate(0 1)"/>
</clipPath>
</defs>
</svg>
