<svg width="161" height="19" viewBox="0 0 161 19" fill="none" xmlns="http://www.w3.org/2000/svg">
<path d="M7.81466 11.7375L8.42504 16.0946H1.86555L2.47593 11.7375C0.988652 10.8523 0 9.25383 0 7.42332C0 4.63887 2.30399 2.37866 5.14099 2.37866C7.978 2.37866 10.282 4.63887 10.282 7.42332C10.282 9.25383 9.28474 10.8523 7.80606 11.7375H7.81466Z" fill="white"/>
<path d="M24.4421 15.2016C23.3432 15.2016 22.3875 15.0105 21.5753 14.6164C20.763 14.2224 20.0941 13.7209 19.5685 13.088C19.0429 12.4551 18.6367 11.7745 18.3859 11.0461C18.1231 10.3177 17.9917 9.61316 17.9917 8.93252V8.56235C17.9917 7.822 18.1231 7.06972 18.3978 6.32938C18.6606 5.58904 19.0668 4.92034 19.6043 4.31135C20.1418 3.7143 20.8227 3.22472 21.623 2.86649C22.4234 2.50826 23.367 2.3172 24.4541 2.3172C25.5411 2.3172 26.4609 2.49632 27.2612 2.86649C28.0615 3.22472 28.7304 3.7143 29.2799 4.31135C29.8175 4.9084 30.2236 5.58904 30.4983 6.32938C30.7611 7.06972 30.9045 7.81006 30.9045 8.56235V8.93252C30.9045 9.61316 30.7731 10.3177 30.5103 11.0461C30.2475 11.7745 29.8533 12.4551 29.3277 13.088C28.8021 13.7209 28.1332 14.2224 27.3209 14.6164C26.5086 15.0105 25.565 15.2016 24.466 15.2016H24.4421ZM24.4421 12.9925C25.0633 12.9925 25.6247 12.885 26.1264 12.6581C26.6281 12.4312 27.0462 12.1208 27.3926 11.7267C27.739 11.3327 28.0137 10.8789 28.1929 10.3774C28.3721 9.87586 28.4677 9.32657 28.4677 8.76535C28.4677 8.15636 28.3721 7.59513 28.1929 7.08166C28.0137 6.5682 27.739 6.12639 27.3926 5.74427C27.0462 5.36216 26.6161 5.07557 26.1144 4.86064C25.6127 4.6457 25.0513 4.53823 24.4421 4.53823C23.8329 4.53823 23.2595 4.6457 22.7578 4.86064C22.2561 5.07557 21.8261 5.36216 21.4797 5.74427C21.1333 6.12639 20.8586 6.5682 20.6794 7.08166C20.5002 7.59513 20.4046 8.15636 20.4046 8.76535C20.4046 9.33852 20.5002 9.87586 20.6794 10.3774C20.8586 10.8789 21.1333 11.3327 21.4797 11.7267C21.8261 12.1208 22.2561 12.4312 22.7578 12.6581C23.2595 12.885 23.821 12.9925 24.4421 12.9925ZM26.7834 18.4734C26.0786 18.4734 25.4694 18.3898 24.9558 18.2107C24.4421 18.0316 24.036 17.7211 23.7373 17.2793C23.4507 16.8255 23.3073 16.1927 23.3073 15.3687V13.6253H25.5172V15.512C25.5172 15.8583 25.6127 16.121 25.8158 16.3001C26.0069 16.4792 26.2697 16.5748 26.6161 16.5748H28.5274V18.4614H26.8073L26.7834 18.4734Z" fill="white"/>
<path d="M35.9092 15.1651C34.858 15.1651 34.0457 14.8188 33.4724 14.1262C32.899 13.4337 32.6123 12.4067 32.6123 11.0455V5.77948H34.9416V11.2485C34.9416 11.8097 35.0969 12.2515 35.4075 12.5739C35.7181 12.9083 36.1481 13.0635 36.6737 13.0635C37.1993 13.0635 37.6412 12.8963 37.9877 12.55C38.3221 12.2037 38.5013 11.738 38.5013 11.141V5.77948H40.8306V14.8785H38.991V11.0216H39.1702C39.1702 11.941 39.0508 12.6933 38.8238 13.3143C38.5969 13.9352 38.2385 14.3889 37.7726 14.6994C37.3068 15.0099 36.7215 15.1651 36.0167 15.1651H35.9211H35.9092Z" fill="white"/>
<path d="M45.8604 15.1174C45.2034 15.1174 44.63 14.998 44.1283 14.7711C43.6266 14.5323 43.2444 14.198 42.9696 13.7681C42.6949 13.3382 42.5635 12.8128 42.5635 12.1919C42.5635 11.5232 42.7307 10.9739 43.0532 10.556C43.3877 10.138 43.8416 9.81563 44.4389 9.60069C45.0361 9.38575 45.729 9.27828 46.5412 9.27828H48.6436V10.6634H46.5054C45.9679 10.6634 45.5617 10.7948 45.275 11.0575C44.9884 11.3202 44.845 11.6545 44.845 12.0725C44.845 12.4904 44.9884 12.8248 45.275 13.0755C45.5617 13.3263 45.9679 13.4576 46.5054 13.4576C46.8279 13.4576 47.1265 13.3979 47.4013 13.2785C47.676 13.1591 47.903 12.9561 48.0822 12.6815C48.2613 12.3949 48.3689 12.0128 48.3927 11.5232L48.9661 12.1799C48.9064 12.8128 48.763 13.3502 48.5122 13.78C48.2613 14.2099 47.9149 14.5443 47.473 14.7711C47.031 14.998 46.4935 15.1174 45.8604 15.1174ZM48.7869 14.8786V12.1919H48.4047V9.19469C48.4047 8.66929 48.2733 8.27524 48.0224 8.02448C47.7716 7.77371 47.3655 7.64236 46.8399 7.64236C46.5651 7.64236 46.2307 7.64236 45.8365 7.6543C45.4423 7.6543 45.0481 7.67818 44.6539 7.69012C44.2597 7.70207 43.9013 7.72595 43.5908 7.74983V5.77956C43.8416 5.75568 44.1402 5.7318 44.4628 5.70792C44.7853 5.68403 45.1198 5.6721 45.4542 5.66016C45.7887 5.66016 46.1112 5.66016 46.4098 5.66016C47.3416 5.66016 48.1299 5.77956 48.7392 6.03032C49.3603 6.28109 49.8262 6.6632 50.1487 7.1886C50.4712 7.71401 50.6265 8.39465 50.6265 9.24246V14.8786H48.7869Z" fill="white"/>
<path d="M52.3589 14.8787V5.80356H54.1984V9.64856H54.1507C54.1507 8.34699 54.4254 7.35588 54.9868 6.68719C55.5483 6.01849 56.3605 5.68414 57.4475 5.68414H57.782V7.70218H57.1489C56.3725 7.70218 55.7633 7.90517 55.3332 8.32311C54.9032 8.74104 54.6882 9.35004 54.6882 10.1381V14.8668H52.3589V14.8787Z" fill="white"/>
<path d="M59.5015 7.51117V5.80361H65.928V7.51117H59.5015ZM64.626 14.9982C63.7898 14.9982 63.097 14.8907 62.5594 14.6758C62.0219 14.4608 61.6158 14.0907 61.353 13.5772C61.0902 13.0637 60.9468 12.3592 60.9468 11.4756V3.24823H63.1328V11.6189C63.1209 12.0607 63.2403 12.407 63.4792 12.6458C63.7181 12.8846 64.0645 13.004 64.5065 13.004H65.928V14.9982H64.626Z" fill="white"/>
<path d="M72.6286 15.2011C71.8283 15.2011 71.1236 15.0698 70.5024 14.819C69.8932 14.5683 69.3676 14.21 68.9495 13.7682C68.5314 13.3264 68.2089 12.8249 67.9939 12.2756C67.7789 11.7144 67.6714 11.1412 67.6714 10.5322V10.1859C67.6714 9.56499 67.7908 8.96794 68.0178 8.40671C68.2448 7.84549 68.5792 7.34396 69.0092 6.90214C69.4393 6.46033 69.9649 6.11404 70.5741 5.86328C71.1833 5.61251 71.8761 5.4931 72.6525 5.4931C73.429 5.4931 74.1099 5.61251 74.731 5.86328C75.3402 6.11404 75.8658 6.46033 76.2958 6.90214C76.7259 7.34396 77.0484 7.84549 77.2753 8.40671C77.5023 8.96794 77.6098 9.56499 77.6098 10.1859V10.5322C77.6098 11.1293 77.5023 11.7144 77.2873 12.2756C77.0723 12.8368 76.7497 13.3264 76.3317 13.7682C75.9016 14.21 75.388 14.5563 74.7788 14.819C74.1696 15.0698 73.4648 15.2011 72.6764 15.2011H72.6286ZM72.6286 13.207C73.202 13.207 73.6798 13.0876 74.0621 12.8368C74.4443 12.5861 74.743 12.2517 74.946 11.8218C75.1491 11.392 75.2447 10.9024 75.2447 10.3531C75.2447 9.80381 75.1371 9.30229 74.9341 8.87241C74.731 8.44254 74.4324 8.10819 74.0262 7.85743C73.632 7.60667 73.1542 7.48725 72.6167 7.48725C72.0792 7.48725 71.6014 7.60667 71.2072 7.85743C70.813 8.10819 70.5024 8.45448 70.2993 8.87241C70.0843 9.30229 69.9768 9.79187 69.9768 10.3531C69.9768 10.9143 70.0843 11.392 70.2874 11.8218C70.4905 12.2517 70.7891 12.5861 71.1833 12.8368C71.5775 13.0876 72.0553 13.207 72.6167 13.207H72.6286Z" fill="white"/>
<path d="M110.1 14.9978V2.79413H112.477V14.9978H110.1Z" fill="white"/>
<path d="M119.142 15.2964C118.509 15.2964 117.924 15.177 117.387 14.9501C116.849 14.7232 116.383 14.3888 116.001 13.959C115.607 13.541 115.308 13.0395 115.093 12.4783C114.878 11.9171 114.771 11.3081 114.771 10.6513V10.305C114.771 9.6602 114.878 9.05121 115.081 8.47805C115.284 7.90488 115.583 7.4153 115.953 6.98542C116.323 6.56749 116.777 6.23313 117.303 5.99431C117.828 5.75549 118.426 5.63609 119.071 5.63609C119.787 5.63609 120.409 5.79132 120.958 6.08984C121.496 6.40031 121.926 6.85407 122.248 7.475C122.571 8.08399 122.75 8.86016 122.786 9.77962L122.105 8.97957V2.79413H124.434V14.9978H122.595V11.1409H123.001C122.965 12.0603 122.774 12.8365 122.427 13.4574C122.081 14.0784 121.627 14.5441 121.066 14.8426C120.504 15.1531 119.859 15.2964 119.154 15.2964H119.142ZM119.668 13.338C120.122 13.338 120.54 13.2306 120.922 13.0276C121.305 12.8246 121.603 12.526 121.83 12.1201C122.057 11.726 122.177 11.2603 122.177 10.723V10.0543C122.177 9.51691 122.057 9.0751 121.83 8.70492C121.603 8.33475 121.293 8.06011 120.91 7.86906C120.528 7.678 120.122 7.57053 119.668 7.57053C119.166 7.57053 118.724 7.68994 118.342 7.92876C117.96 8.16758 117.661 8.50193 117.434 8.94375C117.219 9.37362 117.112 9.88709 117.112 10.4603C117.112 11.0334 117.219 11.5469 117.446 11.9768C117.673 12.4066 117.972 12.741 118.354 12.9679C118.736 13.2067 119.178 13.3142 119.668 13.3142V13.338Z" fill="white"/>
<path d="M131.172 15.3204C130.396 15.3204 129.715 15.189 129.129 14.9144C128.544 14.6517 128.054 14.2815 127.672 13.8397C127.29 13.3979 126.991 12.8844 126.8 12.3232C126.609 11.762 126.501 11.2007 126.501 10.6156V10.2932C126.501 9.69617 126.597 9.11106 126.8 8.54983C127.003 7.98861 127.29 7.48708 127.672 7.04526C128.054 6.60345 128.532 6.25716 129.106 5.99445C129.679 5.73175 130.336 5.6004 131.076 5.6004C132.056 5.6004 132.88 5.81534 133.549 6.24522C134.206 6.67509 134.708 7.23632 135.042 7.9289C135.377 8.62148 135.544 9.37376 135.544 10.1738V11.0097H127.505V9.5887H134.099L133.382 10.2932C133.382 9.72005 133.298 9.21853 133.131 8.80059C132.964 8.38266 132.713 8.07219 132.367 7.84531C132.02 7.61843 131.602 7.51096 131.088 7.51096C130.575 7.51096 130.145 7.63037 129.786 7.85725C129.428 8.09607 129.153 8.43042 128.974 8.87224C128.795 9.31406 128.699 9.83946 128.699 10.4485C128.699 11.0216 128.795 11.5231 128.962 11.965C129.141 12.4068 129.416 12.7531 129.786 13.0038C130.157 13.2546 130.623 13.374 131.196 13.374C131.769 13.374 132.223 13.2546 132.582 13.0277C132.94 12.8008 133.167 12.5142 133.262 12.1799H135.401C135.269 12.8008 135.006 13.3501 134.636 13.8158C134.254 14.2815 133.776 14.6517 133.191 14.9024C132.605 15.1532 131.937 15.2846 131.196 15.2846L131.172 15.3204Z" fill="white"/>
<path d="M136.631 7.65465V5.91126H140.227V7.65465H136.631ZM138.758 4.83657C138.304 4.83657 137.957 4.71716 137.742 4.47834C137.527 4.23952 137.42 3.92905 137.42 3.57082C137.42 3.21259 137.527 2.90213 137.742 2.66331C137.957 2.42449 138.292 2.31702 138.758 2.31702C139.223 2.31702 139.546 2.43643 139.761 2.66331C139.976 2.90213 140.084 3.20065 140.084 3.57082C140.084 3.94099 139.976 4.23952 139.761 4.47834C139.546 4.71716 139.212 4.83657 138.758 4.83657ZM137.898 14.9984V5.9232H140.227V14.9984H137.898Z" fill="white"/>
<path d="M145.47 15.2368C144.813 15.2368 144.24 15.1173 143.738 14.8905C143.236 14.6516 142.854 14.3173 142.579 13.8874C142.305 13.4575 142.173 12.9321 142.173 12.3112C142.173 11.6425 142.341 11.0932 142.663 10.6753C142.998 10.2574 143.451 9.93495 144.049 9.72001C144.646 9.50507 145.339 9.3976 146.151 9.3976H148.253V10.7828H146.115C145.578 10.7828 145.172 10.9141 144.885 11.1768C144.598 11.4395 144.455 11.7739 144.455 12.1918C144.455 12.6097 144.598 12.9441 144.885 13.1948C145.172 13.4456 145.578 13.577 146.115 13.577C146.438 13.577 146.736 13.5173 147.011 13.3978C147.286 13.2784 147.513 13.0754 147.692 12.8008C147.871 12.5142 147.979 12.1321 148.003 11.6425L148.576 12.2993C148.516 12.9321 148.373 13.4695 148.122 13.8994C147.871 14.3292 147.525 14.6636 147.083 14.8905C146.641 15.1173 146.103 15.2368 145.47 15.2368ZM148.397 14.9979V12.3112H148.015V9.31402C148.015 8.78861 147.883 8.39456 147.632 8.1438C147.381 7.89304 146.975 7.76169 146.45 7.76169C146.175 7.76169 145.841 7.76169 145.446 7.77363C145.052 7.77363 144.658 7.79751 144.264 7.80945C143.87 7.82139 143.511 7.84527 143.201 7.86916V5.89889C143.451 5.87501 143.75 5.85112 144.073 5.82724C144.395 5.80336 144.73 5.79142 145.064 5.77948C145.399 5.77948 145.721 5.77948 146.02 5.77948C146.951 5.77948 147.74 5.89889 148.349 6.14965C148.97 6.40041 149.436 6.78252 149.759 7.30793C150.081 7.83333 150.236 8.51397 150.236 9.36178V14.9979H148.397Z" fill="white"/>
<path d="M156.125 15.2846C154.871 15.2846 153.903 15.0219 153.187 14.4965C152.482 13.9711 152.112 13.2307 152.076 12.2993H154.166C154.202 12.6098 154.369 12.8964 154.68 13.1471C154.99 13.3979 155.48 13.5293 156.149 13.5293C156.71 13.5293 157.152 13.4337 157.475 13.2307C157.797 13.0277 157.965 12.7531 157.965 12.4068C157.965 12.1083 157.845 11.8695 157.582 11.6903C157.332 11.5112 156.902 11.3918 156.304 11.3441L155.504 11.2605C154.489 11.153 153.712 10.8545 153.163 10.3888C152.613 9.92307 152.338 9.2902 152.338 8.51403C152.338 7.8931 152.494 7.3677 152.804 6.93782C153.115 6.51988 153.545 6.19748 154.094 5.9706C154.644 5.75566 155.277 5.64819 155.994 5.64819C157.105 5.64819 158.012 5.89895 158.705 6.38853C159.398 6.87812 159.756 7.59458 159.792 8.54986H157.702C157.678 8.23939 157.523 7.96475 157.236 7.74981C156.949 7.52293 156.531 7.41546 155.982 7.41546C155.492 7.41546 155.11 7.51099 154.847 7.70204C154.584 7.8931 154.441 8.13192 154.441 8.44239C154.441 8.75286 154.548 8.95585 154.763 9.11108C154.978 9.26632 155.337 9.37379 155.826 9.43349L156.627 9.51708C157.702 9.62455 158.538 9.92307 159.147 10.4007C159.756 10.8784 160.055 11.5232 160.055 12.3352C160.055 12.9322 159.888 13.4576 159.565 13.8994C159.231 14.3412 158.777 14.6875 158.192 14.9264C157.594 15.1771 156.902 15.2965 156.101 15.2965L156.125 15.2846Z" fill="white"/>
<path d="M99.8044 15.3204C99.0279 15.3204 98.3471 15.189 97.7617 14.9144C97.1764 14.6517 96.6867 14.2815 96.3044 13.8397C95.9222 13.3979 95.6235 12.8844 95.4324 12.3232C95.2413 11.762 95.1338 11.2007 95.1338 10.6156V10.2932C95.1338 9.69617 95.2294 9.11106 95.4324 8.54983C95.6355 7.98861 95.9222 7.48708 96.3044 7.04526C96.6867 6.60345 97.1645 6.25716 97.7378 5.99445C98.3112 5.73175 98.9682 5.6004 99.7088 5.6004C100.688 5.6004 101.513 5.81534 102.181 6.24522C102.838 6.67509 103.34 7.23632 103.675 7.9289C104.009 8.62148 104.176 9.37376 104.176 10.1738V11.0097H96.1372V9.5887H102.731L102.014 10.2932C102.014 9.72005 101.931 9.21853 101.763 8.80059C101.596 8.38266 101.345 8.07219 100.999 7.84531C100.652 7.61843 100.234 7.51096 99.7208 7.51096C99.2071 7.51096 98.7771 7.63037 98.4187 7.85725C98.0604 8.09607 97.7856 8.43042 97.6064 8.87224C97.4273 9.31406 97.3317 9.83946 97.3317 10.4485C97.3317 11.0216 97.4273 11.5231 97.5945 11.965C97.7737 12.4068 98.0484 12.7531 98.4187 13.0038C98.789 13.2546 99.2549 13.374 99.8283 13.374C100.402 13.374 100.856 13.2546 101.214 13.0277C101.572 12.8008 101.799 12.5142 101.895 12.1799H104.033C103.902 12.8008 103.639 13.3501 103.268 13.8158C102.886 14.2815 102.408 14.6517 101.823 14.9024C101.238 15.1532 100.569 15.2846 99.8283 15.2846L99.8044 15.3204Z" fill="white"/>
<path d="M87.7743 15.2964C87.1412 15.2964 86.5559 15.177 86.0183 14.9501C85.4808 14.7232 85.0149 14.3888 84.6327 13.959C84.2385 13.541 83.9399 13.0395 83.7249 12.4783C83.5099 11.9171 83.4023 11.3081 83.4023 10.6513V10.305C83.4023 9.6602 83.5099 9.05121 83.7129 8.47805C83.916 7.90488 84.2146 7.4153 84.5849 6.98542C84.9552 6.56749 85.4091 6.23313 85.9347 5.99431C86.4603 5.75549 87.0576 5.63609 87.7026 5.63609C88.4193 5.63609 89.0405 5.79132 89.59 6.08984C90.1275 6.40031 90.5575 6.85407 90.88 7.475C91.2026 8.08399 91.3817 8.86016 91.4176 9.77962L90.7367 8.97957V2.79413H93.066V14.9978H91.2265V11.1409H91.6326C91.5968 12.0603 91.4056 12.8365 91.0592 13.4574C90.7128 14.0784 90.2589 14.5441 89.6975 14.8426C89.136 15.1531 88.491 15.2964 87.7862 15.2964H87.7743ZM88.2999 13.338C88.7538 13.338 89.1719 13.2306 89.5541 13.0276C89.9364 12.8246 90.235 12.526 90.462 12.1201C90.6889 11.726 90.8084 11.2603 90.8084 10.723V10.0543C90.8084 9.51691 90.6889 9.0751 90.462 8.70492C90.235 8.33475 89.9244 8.06011 89.5422 7.86906C89.1599 7.678 88.7538 7.57053 88.2999 7.57053C87.7982 7.57053 87.3562 7.68994 86.974 7.92876C86.5917 8.16758 86.2931 8.50193 86.0661 8.94375C85.8511 9.37362 85.7436 9.88709 85.7436 10.4603C85.7436 11.0334 85.8511 11.5469 86.0781 11.9768C86.305 12.4066 86.6037 12.741 86.9859 12.9679C87.3682 13.2067 87.8101 13.3142 88.2999 13.3142V13.338Z" fill="white"/>
</svg>
