<svg width="85" height="13" viewBox="0 0 85 13" fill="none" xmlns="http://www.w3.org/2000/svg">
<path d="M41.4053 6.46898C41.99 5.87774 42.2296 5.24954 42.2296 4.3271C42.2296 2.36861 40.7296 1 38.5833 1H32.655V12.7858H39.068C41.3225 12.7858 42.8971 11.3303 42.8971 9.2459C42.8971 8.0511 42.4083 7.14234 41.4053 6.46898ZM34.8143 3.0536H38.4299C39.5274 3.0536 40.0381 3.4724 40.0381 4.37295C40.0381 5.2735 39.5287 5.67655 38.5209 5.67655H34.8143V3.0536ZM38.931 10.7329H34.815V7.73016H38.9769C40.3421 7.73016 40.707 8.6834 40.707 9.24521C40.707 10.1355 39.9936 10.7322 38.931 10.7322V10.7329Z" fill="white"/>
<path d="M61.7177 3.59696C58.9935 3.59696 56.9396 5.65877 56.9396 8.3912C56.9396 9.68043 57.4216 10.8554 58.2966 11.7005C59.1633 12.5374 60.358 12.9993 61.6615 12.9993C63.6744 12.9993 65.2552 11.9845 66.0055 10.2128H63.825C63.3786 10.8164 62.6255 11.1599 61.7362 11.1599C60.4141 11.1599 59.3845 10.3127 59.1476 9.04266H66.1699L66.1788 8.97765C66.2356 8.56501 66.2356 8.27828 66.2356 8.00182C66.2356 5.45006 64.335 3.59764 61.7163 3.59764L61.7177 3.59696ZM59.251 7.3319C59.6474 5.95166 60.777 5.45622 61.717 5.45622C62.9849 5.45622 63.8565 6.15558 64.0653 7.3319H59.2503H59.251Z" fill="white"/>
<path d="M46.069 1.00067H43.9083V12.7858H46.069V1.00067Z" fill="white"/>
<path d="M69.5903 3.05357V5.68747H75.2104V7.74039H69.5903V12.7858H67.4295V1.00134H75.2104V3.05357H69.5903Z" fill="white"/>
<path d="M78.5192 3.82484H76.3585V12.7865H78.5192V3.82484Z" fill="white"/>
<path d="M85 5.81684V3.82413H82.1855V1H80.0248V9.71465C80.0248 11.4076 81.4029 12.7858 83.0974 12.7858H85V10.7931H83.2959C82.6839 10.7931 82.1855 10.2956 82.1855 9.68317V5.81684H85Z" fill="white"/>
<path d="M53.7437 8.75661C53.7437 10.3285 53.0297 11.1934 51.7337 11.1934C50.4376 11.1934 49.7236 10.3278 49.7236 8.75661V3.8255H47.5629V8.88732C47.5629 10.1225 47.9531 11.1599 48.6905 11.8873C49.4285 12.6154 50.4801 13 51.733 13C52.9858 13 54.0381 12.6154 54.7755 11.8873C55.5128 11.1599 55.9031 10.1225 55.9031 8.88732V3.8255H53.7424V8.75661H53.7437Z" fill="white"/>
<path d="M78.5186 2.65601L76.3585 2.98858V1.00067H78.5186V2.65601Z" fill="white"/>
<path d="M12.9916 4.27235C12.9916 5.05862 12.7136 5.78057 12.2508 6.34512L0 8.22286V1H9.71768C10.6221 1 11.4402 1.36679 12.0324 1.95871C12.6253 2.55132 12.9916 3.36907 12.9916 4.27304V4.27235Z" fill="white"/>
<path d="M13.2388 9.75297C13.2388 11.4282 11.8805 12.7858 10.2045 12.7858H5.094e-05V9.38413L12.2433 7.50773C12.2796 7.53989 12.3152 7.57411 12.3495 7.60832C12.8992 8.15716 13.2388 8.91538 13.2388 9.75228V9.75297Z" fill="white"/>
<path d="M27.2539 1V4.04653L14.0378 6.0714V1H27.2539Z" fill="white"/>
<path d="M27.2539 5.20781V8.85721H20.8184V12.7851H14.0378V7.23336L27.2539 5.20781Z" fill="white"/>
</svg>
