<svg width="120" height="17" viewBox="0 0 120 17" fill="none" xmlns="http://www.w3.org/2000/svg">
<path d="M5.6724 1.41132V11.0773H16.387C16.534 11.3693 16.0634 12.1056 15.8617 12.1056H4.41187V2.13112C4.41187 1.65399 5.25222 1.42983 5.6724 1.41132Z" fill="white"/>
<path d="M10.0843 6.9641H16.492L16.8071 7.9924H8.82374V1L10.0843 1.30849V6.9641Z" fill="white"/>
<path d="M12.3953 15.1905C10.536 16.7082 6.25855 16.702 4.41187 15.1905H12.3953Z" fill="white"/>
<path d="M1.16048 12.5169C-0.389977 10.6968 -0.383674 6.5096 1.16048 4.70186L1.16048 12.5169Z" fill="white"/>
<path d="M15.1243 4.28848H13.0234L13.0276 2.23395C13.1558 2.06737 15.4395 4.01495 15.1243 4.28848Z" fill="white"/>
<path d="M38.5032 3.61946C41.4431 2.60116 44.0478 3.09256 46.3179 5.05379C46.5529 4.95785 46.526 4.79915 46.5287 4.66562C46.5371 4.24963 46.6847 3.97993 47.1694 4.01048C47.6695 4.04198 47.7223 4.38203 47.7233 4.76131C47.7252 5.44556 47.7274 6.12981 47.7268 6.81406C47.7247 9.12644 47.7237 11.4388 47.7157 13.7512C47.7148 14.0249 47.7761 14.3378 47.4533 14.5047C47.0228 14.7274 46.5826 14.4768 46.5358 13.987C46.5 13.6137 46.5922 13.2325 46.4644 12.8651C46.4585 12.8481 46.4261 12.8398 46.3914 12.8185C46.077 12.8437 45.9349 13.1237 45.7287 13.3031C42.7798 15.8687 37.7769 15.2583 35.6705 12.0701C33.6547 9.01895 34.8731 5.32653 38.5032 3.61946ZM37.1756 12.143C38.541 13.5824 40.2761 14.041 42.1804 13.7478C45.8388 13.1844 47.6267 9.87667 46.0356 6.80304C44.9479 4.70178 42.8991 3.96729 40.5377 4.21402C38.571 4.4195 37.0699 5.391 36.2956 7.18866C35.543 8.93601 35.8323 10.602 37.1756 12.143Z" fill="white"/>
<path d="M54.0912 10.4865C53.0613 6.20183 56.6604 3.26688 59.85 3.12351C61.8632 3.03302 63.6743 3.47298 65.1915 4.83389C65.2788 4.91222 65.3858 4.9715 65.4898 5.02895C65.5262 5.04906 65.5811 5.03695 65.6356 5.04C65.844 4.88432 65.7487 4.65104 65.7757 4.45248C65.8192 4.13268 66.0066 4.00255 66.3169 4.01173C66.6235 4.02081 66.82 4.15899 66.8449 4.47539C66.856 4.61635 66.8581 4.75826 66.8582 4.89974C66.8593 7.84968 66.8613 10.7996 66.8568 13.7496C66.8564 13.9999 66.9322 14.2858 66.6829 14.4748C66.3439 14.7318 65.8181 14.5003 65.7863 14.0654C65.7561 13.6527 65.7798 13.2362 65.7798 12.5618C63.308 14.9293 60.6276 15.5058 57.6602 14.3329C55.8979 13.6363 54.7208 12.3193 54.0912 10.4865ZM57.9088 4.70881C55.6797 5.94476 54.6724 7.98617 55.2368 10.1236C56.0747 13.2968 60.0661 14.803 63.2222 13.1506C66.4364 11.4679 66.7618 7.15015 63.7225 5.14195C61.9107 3.94484 59.992 3.90742 57.9088 4.70881Z" fill="white"/>
<path d="M24.6908 8.13149C24.2039 10.9423 26.2969 13.5308 29.1902 13.7758C30.8965 13.9202 32.4547 13.605 33.7407 12.4116C33.9021 12.2619 34.0815 12.1347 34.3174 12.1666C34.5564 12.1989 34.8186 12.2344 34.9353 12.4738C35.0518 12.7126 34.8503 12.8714 34.7073 13.0233C33.7507 14.0391 32.5313 14.5902 31.167 14.7927C28.7525 15.1511 26.6306 14.5828 24.9351 12.7638C22.6089 10.2681 22.9492 6.65187 25.7311 4.46831C28.1723 2.55221 32.0913 2.64392 34.4227 4.68875C34.6807 4.91504 35.1993 5.1631 34.8566 5.57958C34.5181 5.99079 34.0817 5.84419 33.6594 5.50706C31.3529 3.66557 28.3891 3.68319 26.1865 5.55104C25.4045 6.21412 24.8459 7.03405 24.6908 8.13149Z" fill="white"/>
<path d="M48.4023 7.28742C47.5012 5.63305 48.3018 3.87268 50.0744 3.49608C50.3488 3.43777 50.632 3.38518 50.7341 3.72018C50.8327 4.04376 50.7608 4.34895 50.3818 4.46139C49.6654 4.67389 49.2138 5.08521 49.1584 5.85578C49.1008 6.65635 49.5675 7.13091 50.1974 7.50137C50.7344 7.81717 51.2877 8.10643 51.831 8.41215C53.0342 9.08927 53.9846 9.93704 53.9907 11.4381C53.9966 12.932 52.8114 14.2952 51.3072 14.5091C51.0301 14.5485 50.7575 14.5598 50.6569 14.2313C50.5603 13.9157 50.6625 13.6724 50.9931 13.5509C51.1058 13.5095 51.224 13.483 51.3378 13.4445C52.211 13.1492 52.7772 12.5742 52.8906 11.6657C53.0041 10.7568 52.5807 10.049 51.8303 9.55703C51.2714 9.19063 50.6576 8.90438 50.0682 8.58253C49.4566 8.24856 48.8375 7.92401 48.4023 7.28742Z" fill="white"/>
<path d="M107.823 11.8727C106.505 9.51176 106.845 7.03211 108.829 5.01173C110.064 3.7551 111.394 2.5883 112.692 1.39255C113.091 1.02517 113.569 0.867863 114.076 1.17482C114.445 1.39777 114.667 1.72937 114.573 2.18727C114.5 2.54929 114.149 2.75027 113.973 3.16497C115.13 3.29324 116.19 3.63033 117.152 4.21952C118.983 5.33991 119.996 6.92333 119.999 9.0709C120.002 10.6749 119.998 12.279 119.993 13.8831C119.99 14.7929 119.675 15.2204 119.002 15.2462C118.329 15.272 118.005 14.9024 117.888 13.9826C117.877 13.8946 117.837 13.8101 117.791 13.6595C113.988 15.6646 110.588 15.5272 107.823 11.8727ZM109.415 10.39C110.385 12.6683 113.184 13.6868 115.544 12.5659C116.905 11.9191 117.803 10.8656 117.892 9.32533C117.989 7.63883 117.168 6.41386 115.688 5.63587C114.034 4.76606 111.881 4.98022 110.531 6.17474C109.281 7.28065 108.848 8.66924 109.415 10.39Z" fill="white"/>
<path d="M94.3078 3.99039C94.6728 4.22777 95.0121 4.41498 95.303 4.65784C95.7001 4.98943 95.8017 5.41354 95.4903 5.85568C95.177 6.3003 94.7273 6.43318 94.2204 6.2252C93.9351 6.10815 93.6874 5.90544 93.4174 5.75035C91.3977 4.59023 88.8666 5.01503 87.4 6.76379C87.1104 7.10909 86.8564 7.47743 86.8103 8.02887C87.5462 8.15895 88.2629 8.05453 88.9707 8.08303C89.5001 8.10434 90.0358 8.06956 90.5582 8.13757C91.1341 8.21255 91.5811 8.5257 91.5455 9.15797C91.5101 9.78572 91.0404 10.0594 90.4561 10.0772C89.4203 10.1089 88.3829 10.0883 87.3462 10.0952C87.182 10.0963 87.018 10.1268 86.7182 10.1576C87.024 11.0634 87.5003 11.7688 88.2585 12.2592C90.0247 13.4015 91.8319 13.3562 93.6474 12.3571C93.8359 12.2533 94.0068 12.1115 94.2047 12.0326C94.7527 11.8141 95.2135 11.9765 95.5219 12.4472C95.8263 12.9118 95.6307 13.3106 95.2242 13.6183C93.5623 14.8759 91.6899 15.2914 89.6366 14.9032C86.0689 14.2287 83.867 11.0916 84.6157 7.77123C85.1137 5.56262 87.5762 3.47726 89.919 3.23962C91.4422 3.08512 92.8992 3.23064 94.3078 3.99039Z" fill="white"/>
<path d="M100.635 12.8582C102.217 13.3222 103.64 13.1003 104.967 12.2465C105.048 12.1947 105.129 12.1437 105.214 12.0991C105.75 11.817 106.259 11.8368 106.625 12.3434C107.012 12.8779 106.777 13.3452 106.304 13.6913C104.913 14.708 103.329 15.1423 101.613 14.9892C101.038 14.938 100.641 15.0819 100.264 15.4565C99.8575 15.8595 99.445 16.2584 99.0111 16.6323C98.4505 17.1154 97.8165 17.1196 97.4038 16.6616C96.925 16.1302 97.1527 15.6591 97.5678 15.2248C97.8952 14.8823 98.2398 14.5556 98.5815 14.2172C98.554 13.9353 98.297 13.8621 98.1078 13.7323C94.7791 11.448 94.8117 6.66175 98.1728 4.40012C100.634 2.74374 103.723 2.74197 106.175 4.40203C106.6 4.68993 107.006 5.01587 106.891 5.60357C106.752 6.31806 105.913 6.60372 105.237 6.13667C104.284 5.47742 103.272 5.07711 102.078 5.10988C99.8384 5.17134 98.1522 6.49787 97.7607 8.56294C97.4375 10.268 98.6247 12.0711 100.635 12.8582Z" fill="white"/>
<path d="M77.3589 9.50176C77.3571 8.27452 77.3441 7.118 77.3582 5.96179C77.365 5.40976 77.1698 5.13931 76.5592 5.1603C75.4035 5.20002 74.2461 5.19269 73.0895 5.20568C72.9932 5.20676 72.8968 5.2197 72.8008 5.21697C72.0425 5.1955 71.4983 4.80607 71.4761 4.27196C71.4529 3.71271 72.0083 3.24903 72.7974 3.2465C76.4618 3.23475 80.1264 3.23478 83.7908 3.24654C84.5513 3.24899 85.063 3.68854 85.0476 4.2439C85.032 4.80958 84.5535 5.15405 83.7407 5.15978C82.6318 5.1676 81.5227 5.15966 80.4137 5.16129C79.4802 5.16266 79.4688 5.17126 79.468 6.05948C79.4657 8.5611 79.4672 11.0627 79.4666 13.5643C79.4666 13.8003 79.4758 14.0373 79.4569 14.272C79.4045 14.9223 79.0105 15.3194 78.4235 15.3312C77.818 15.3434 77.354 14.9108 77.3434 14.2448C77.3254 13.1126 77.3509 11.9797 77.357 10.847C77.3593 10.4222 77.3583 9.99742 77.3589 9.50176Z" fill="white"/>
</svg>
