<svg width="60" height="13" viewBox="0 0 60 13" fill="none" xmlns="http://www.w3.org/2000/svg">
<path d="M30.7616 10.3592C30.2723 9.61702 29.7831 8.87546 29.2933 8.13333C28.8114 7.40268 28.3302 6.67203 27.8483 5.94139C27.1116 4.82474 26.3731 3.70924 25.6375 2.59201C25.1797 1.89698 24.7116 1.20826 24.2623 0.489105H24.1137C18.8611 0.489105 13.6078 0.48968 8.35513 0.485659C8.21796 0.485659 8.14308 0.529888 8.07049 0.641323C7.29088 1.83379 6.50612 3.02282 5.72193 4.21299C5.23325 4.95513 4.74399 5.69726 4.25473 6.4394C3.76032 7.189 3.26649 7.93918 2.77152 8.68821C1.8753 10.0455 0.978519 11.4023 0.0823053 12.7596C0.0582996 12.7964 0.0371517 12.8354 0 12.8992H12.6493C13.8061 12.8992 14.9624 12.898 16.1193 12.9015C16.2233 12.9015 16.281 12.8693 16.3387 12.7809C17.0744 11.6579 17.8145 10.5384 18.5536 9.4177C19.028 8.69854 19.5018 7.97939 19.9756 7.26023C20.0133 7.20336 20.0522 7.14764 20.1002 7.07757C20.1357 7.12926 20.1642 7.1689 20.1911 7.20968C20.4226 7.56179 20.6535 7.91448 20.8861 8.26602C21.5829 9.3212 22.2802 10.3758 22.9775 11.431C23.2781 11.8859 23.5793 12.3403 23.8771 12.7969C23.9246 12.8693 23.9743 12.9084 24.0652 12.9015C24.1698 12.8934 24.2755 12.8963 24.3807 12.9003C24.4458 12.9026 24.4915 12.8802 24.5333 12.8297C24.6613 12.6746 24.7956 12.5247 24.9242 12.3696C24.9688 12.3156 25.018 12.2903 25.0888 12.292C25.2672 12.2955 25.4455 12.2949 25.6238 12.292C25.693 12.2909 25.7421 12.3093 25.7884 12.3661C25.9125 12.5189 26.0462 12.6631 26.1719 12.8142C26.2171 12.8682 26.264 12.8906 26.3354 12.8889C26.5229 12.8837 26.7104 12.8808 26.8978 12.8894C26.9916 12.894 27.0516 12.8584 27.107 12.7906C27.2259 12.6459 27.3471 12.5028 27.4694 12.3604C27.5043 12.3202 27.5351 12.2777 27.6026 12.2794C27.8261 12.2834 28.0501 12.2811 28.2724 12.2811C28.4228 12.4546 28.5725 12.6218 28.7143 12.7952C28.7606 12.8515 28.808 12.8733 28.8772 12.8728C29.0738 12.8699 29.2704 12.8693 29.467 12.8728C29.5425 12.8739 29.5939 12.8475 29.6419 12.7889C29.7665 12.6367 29.8991 12.4914 30.0249 12.3403C30.0694 12.2863 30.118 12.2622 30.1895 12.2645C30.3632 12.2691 30.537 12.2696 30.7107 12.2645C30.7925 12.2616 30.8485 12.2915 30.8988 12.3518C31.0154 12.4931 31.1388 12.6281 31.2514 12.7722C31.3057 12.8418 31.364 12.8647 31.4492 12.8624C31.6504 12.8567 31.8516 12.8607 32.0528 12.8601C32.0928 12.8601 32.1328 12.8567 32.1797 12.8544C32.1951 12.6729 32.1922 12.5166 32.0831 12.3552C31.635 11.6964 31.2023 11.026 30.7639 10.3603L30.7616 10.3592ZM8.20195 12.2472C8.16594 12.3041 8.12308 12.3334 8.0562 12.3271C8.03334 12.3248 8.01048 12.3271 7.98761 12.3271C5.73851 12.3271 3.4894 12.3271 1.2403 12.3271C1.18771 12.3271 1.13513 12.3231 1.05911 12.3202C1.09969 12.2559 1.12484 12.2139 1.15227 12.1726C1.53637 11.5918 1.92103 11.0111 2.30455 10.4298C2.79952 9.68078 3.29393 8.93118 3.78833 8.18158C4.28273 7.43198 4.77599 6.6818 5.2704 5.9322C5.75223 5.20155 6.23463 4.47148 6.71646 3.7414C7.21372 2.98835 7.71041 2.23473 8.2071 1.48111C8.2854 1.36278 8.3637 1.24388 8.43801 1.12325C8.47059 1.07098 8.5106 1.04341 8.57233 1.04858C8.59976 1.05088 8.6272 1.04858 8.65463 1.04858H15.5746C15.538 1.11119 15.518 1.15025 15.4945 1.18586C15.1362 1.72868 14.7761 2.27092 14.4177 2.81373C13.9153 3.57425 13.4141 4.33592 12.9122 5.09701C12.4281 5.8311 11.944 6.56577 11.4593 7.29986C10.4831 8.78011 9.50683 10.2598 8.5306 11.74C8.41972 11.9083 8.30826 12.0766 8.20138 12.2472H8.20195ZM19.2503 7.32801C18.6753 8.19996 18.0997 9.07134 17.5242 9.94329C17.0578 10.6504 16.5914 11.3586 16.1244 12.0657C16.069 12.1496 16.0278 12.2645 15.9495 12.3053C15.8655 12.3489 15.7455 12.3265 15.6409 12.3265C13.4512 12.3271 11.2615 12.3265 9.07187 12.3265H8.87125C8.9044 12.2679 8.92327 12.2294 8.9467 12.1938C9.4714 11.3983 9.99609 10.6033 10.5214 9.80773C11.2507 8.70257 11.98 7.59741 12.7087 6.49224C13.1957 5.75413 13.6821 5.01601 14.1691 4.2779C14.6635 3.5283 15.1573 2.7787 15.6512 2.02909C15.81 1.78842 15.9684 1.54716 16.1273 1.30591C16.1518 1.26915 16.1787 1.23411 16.217 1.18127C17.4036 2.98031 18.5799 4.76442 19.7596 6.55371C19.5869 6.81564 19.4183 7.07182 19.2497 7.32743L19.2503 7.32801Z" fill="white" fill-opacity="0.75"/>
<path d="M48.8962 6.68582C48.4927 6.34347 48.0274 6.11601 47.5307 5.94656C47.4456 5.91726 47.3599 5.88969 47.2495 5.85293C47.3753 5.80123 47.4765 5.76217 47.5753 5.71852C47.996 5.53069 48.3618 5.27335 48.6219 4.88218C48.9482 4.39106 49.0122 3.83388 49.0208 3.26522C49.0231 3.09232 49.0008 2.91828 48.9768 2.74653C48.9048 2.23301 48.7219 1.76544 48.399 1.35589C48.0332 0.89234 47.5548 0.59135 47.0135 0.382265C46.3145 0.112294 45.5817 0.0117722 44.8398 0.00660251C42.9885 -0.00546006 41.1367 0.00258165 39.2854 0.00315606C39.2362 0.00315606 39.1876 0.00775132 39.1345 0.0106234V12.9997H39.3288C41.1892 12.9997 43.0503 13.0009 44.9113 12.9986C45.153 12.9986 45.3954 12.9917 45.6354 12.9698C45.9389 12.9428 46.2436 12.9118 46.5431 12.8573C47.1855 12.7401 47.7954 12.5258 48.3464 12.1668C49.0545 11.705 49.5427 11.0731 49.7816 10.2546C49.9525 9.66872 49.9799 9.07363 49.8845 8.4728C49.7707 7.75767 49.4523 7.15569 48.8974 6.68582H48.8962ZM42.641 2.96021H42.8125C43.3652 2.96021 43.9179 2.9694 44.47 2.95734C44.9947 2.94585 45.4422 3.26465 45.4874 3.89707C45.5051 4.14809 45.4794 4.39336 45.3657 4.61967C45.1948 4.9603 44.9113 5.14468 44.5352 5.15158C43.9419 5.16306 43.348 5.15445 42.7542 5.15387C42.7187 5.15387 42.6833 5.14813 42.641 5.14468V2.96021ZM46.2705 9.05927C46.1744 9.54637 45.8766 9.84392 45.4045 9.96282C45.2428 10.0036 45.0719 10.0277 44.905 10.0294C44.1974 10.0369 43.4892 10.0329 42.781 10.0323C42.7365 10.0323 42.6919 10.0277 42.6404 10.0249V7.31365C42.6953 7.31365 42.7399 7.31365 42.7845 7.31365C43.4835 7.31365 44.1819 7.31365 44.881 7.31365C45.0919 7.31365 45.2982 7.34524 45.4983 7.41474C45.8641 7.54226 46.1093 7.78983 46.2213 8.16262C46.3093 8.45615 46.3299 8.75599 46.2705 9.05812V9.05927Z" fill="white"/>
<path d="M51.2836 0.0111978C51.2545 0.213389 51.2648 12.894 51.2922 12.9905C52.4462 12.9905 53.6002 12.9905 54.7708 12.9905V8.05578H59.1284C59.1284 7.10169 59.1284 6.16368 59.1284 5.20787H54.7862C54.753 5.03038 54.761 3.17504 54.7959 3.0705H58.9592C59.1329 3.0705 59.3067 3.0705 59.4805 3.0705C59.6519 3.0705 59.824 3.0682 60 3.06705V0.0111978H51.2836Z" fill="white"/>
<path d="M33.7555 0.00832573C33.7263 0.200178 33.736 12.8929 33.7629 12.9905H37.2237C37.2523 12.7912 37.2426 0.112294 37.2129 0.00832573H33.7549H33.7555Z" fill="white"/>
</svg>
