<svg width="99" height="14" viewBox="0 0 99 14" fill="none" xmlns="http://www.w3.org/2000/svg">
<mask id="path-1-inside-1_2153_2033" fill="white">
<path d="M15.9727 6.72559L11.9795 13.4512H3.99316L0 6.72559L3.99316 0H11.9795L15.9727 6.72559Z"/>
</mask>
<path d="M15.9727 6.72559L17.5178 7.64298L18.0625 6.72559L17.5178 5.80819L15.9727 6.72559ZM11.9795 13.4512V15.2481H13.0024L13.5246 14.3686L11.9795 13.4512ZM3.99316 13.4512L2.44802 14.3686L2.97025 15.2481H3.99316V13.4512ZM0 6.72559L-1.54514 5.80819L-2.08983 6.72559L-1.54514 7.64298L0 6.72559ZM3.99316 0V-1.79696H2.97025L2.44802 -0.917394L3.99316 0ZM11.9795 0L13.5246 -0.917394L13.0024 -1.79696H11.9795V0ZM15.9727 6.72559L14.4275 5.80819L10.4343 12.5338L11.9795 13.4512L13.5246 14.3686L17.5178 7.64298L15.9727 6.72559ZM11.9795 13.4512V11.6542H3.99316V13.4512V15.2481H11.9795V13.4512ZM3.99316 13.4512L5.53831 12.5338L1.54514 5.80819L0 6.72559L-1.54514 7.64298L2.44802 14.3686L3.99316 13.4512ZM0 6.72559L1.54514 7.64298L5.53831 0.917394L3.99316 0L2.44802 -0.917394L-1.54514 5.80819L0 6.72559ZM3.99316 0V1.79696H11.9795V0V-1.79696H3.99316V0ZM11.9795 0L10.4343 0.917394L14.4275 7.64298L15.9727 6.72559L17.5178 5.80819L13.5246 -0.917394L11.9795 0Z" fill="white" fill-opacity="0.75" mask="url(#path-1-inside-1_2153_2033)"/>
<path d="M27.0197 13.2618C25.6961 13.2618 24.5598 12.9748 23.611 12.4008C22.674 11.8151 21.9653 11.0245 21.485 10.0288C21.0048 9.03318 20.7646 7.93211 20.7646 6.72561C20.7646 5.51912 21.0048 4.41804 21.485 3.42239C21.9653 2.42674 22.674 1.64193 23.611 1.06797C24.5598 0.482292 25.6961 0.189453 27.0197 0.189453C28.0388 0.189453 28.9407 0.388584 29.7255 0.786845C30.522 1.1851 31.1604 1.73564 31.6407 2.43845C32.1326 3.14127 32.4489 3.93779 32.5895 4.82802H30.1999C30.0945 4.32433 29.8954 3.88508 29.6025 3.51024C29.3214 3.1237 28.9583 2.825 28.5132 2.61416C28.068 2.40331 27.5702 2.29789 27.0197 2.29789C26.1646 2.29789 25.4501 2.49702 24.8761 2.89528C24.3139 3.28183 23.898 3.80894 23.6286 4.47661C23.3592 5.14428 23.2245 5.89395 23.2245 6.72561C23.2245 7.55727 23.3592 8.30694 23.6286 8.97461C23.898 9.64228 24.3139 10.1752 24.8761 10.5735C25.4501 10.9601 26.1646 11.1533 27.0197 11.1533C27.6171 11.1533 28.1383 11.0303 28.5834 10.7844C29.0403 10.5384 29.4092 10.2045 29.6904 9.78285C29.9832 9.34945 30.1765 8.85162 30.2702 8.28937H32.6422C32.5251 9.23817 32.2264 10.0933 31.7461 10.8546C31.2776 11.6043 30.6333 12.1958 29.8134 12.6292C29.0051 13.0509 28.0739 13.2618 27.0197 13.2618Z" fill="white"/>
<path d="M38.3918 13.2618C37.443 13.2618 36.6172 13.0568 35.9144 12.6468C35.2116 12.2368 34.6786 11.6687 34.3155 10.9425C33.9524 10.2162 33.7708 9.3963 33.7708 8.48264C33.7708 7.56899 33.9524 6.74904 34.3155 6.0228C34.6786 5.29656 35.2116 4.72845 35.9144 4.31848C36.6172 3.9085 37.443 3.70352 38.3918 3.70352C39.3406 3.70352 40.1664 3.9085 40.8692 4.31848C41.572 4.72845 42.105 5.29656 42.4681 6.0228C42.8312 6.74904 43.0128 7.56899 43.0128 8.48264C43.0128 9.3963 42.8312 10.2162 42.4681 10.9425C42.105 11.6687 41.572 12.2368 40.8692 12.6468C40.1664 13.0568 39.3406 13.2618 38.3918 13.2618ZM38.3918 11.4169C38.9189 11.4169 39.3582 11.2998 39.7096 11.0655C40.0727 10.8195 40.3362 10.4798 40.5002 10.0464C40.6759 9.60129 40.7638 9.08003 40.7638 8.48264C40.7638 7.88525 40.6759 7.36986 40.5002 6.93645C40.3362 6.49134 40.0727 6.15165 39.7096 5.91738C39.3582 5.67139 38.9189 5.5484 38.3918 5.5484C37.853 5.5484 37.4079 5.67139 37.0565 5.91738C36.705 6.15165 36.4415 6.49134 36.2658 6.93645C36.1018 7.36986 36.0198 7.88525 36.0198 8.48264C36.0198 9.08003 36.1018 9.60129 36.2658 10.0464C36.4415 10.4798 36.705 10.8195 37.0565 11.0655C37.4079 11.2998 37.853 11.4169 38.3918 11.4169Z" fill="white"/>
<path d="M47.9824 13.0509C47.4202 13.0509 46.9575 12.9865 46.5944 12.8577C46.2313 12.7171 45.9501 12.477 45.751 12.1373C45.5519 11.7859 45.4523 11.3115 45.4523 10.7141V5.61868H43.8534V3.91436H45.4523V1.10311H47.6486V3.91436H49.9679V5.61868H47.6486V10.4857C47.6486 10.7902 47.713 11.0128 47.8419 11.1533C47.9824 11.2822 48.2109 11.3466 48.5271 11.3466H49.9679V13.0509H47.9824Z" fill="white"/>
<path d="M54.2137 13.2618C53.2064 13.2618 52.3981 13.0216 51.789 12.5414C51.1799 12.0611 50.8754 11.3817 50.8754 10.5032C50.8754 9.96441 51.0042 9.51343 51.2619 9.15031C51.5196 8.77548 51.9003 8.47093 52.404 8.23666C52.9194 8.00239 53.5812 7.81497 54.3894 7.67441L57.0426 7.20001V6.6729C57.0426 6.25121 56.9079 5.93495 56.6384 5.7241C56.3807 5.51326 55.9591 5.40784 55.3734 5.40784C54.8228 5.40784 54.3719 5.52497 54.0205 5.75924C53.6808 5.99351 53.4992 6.35078 53.4758 6.83103H51.2971C51.3088 5.80024 51.6895 5.02129 52.4391 4.49418C53.2005 3.96707 54.1727 3.70352 55.3558 3.70352C56.6326 3.70352 57.5931 3.94364 58.2373 4.4239C58.8816 4.90415 59.2037 5.57183 59.2037 6.42692V13.0509H57.1128V12.0143C56.738 12.4594 56.3105 12.7815 55.8302 12.9806C55.3617 13.1681 54.8228 13.2618 54.2137 13.2618ZM54.7057 11.6277C55.1157 11.6277 55.4964 11.5516 55.8478 11.3993C56.1992 11.247 56.4862 11.0128 56.7087 10.6965C56.9313 10.3802 57.0426 9.98198 57.0426 9.50172V8.69349L54.7936 9.15031C54.2079 9.26745 53.7862 9.41387 53.5285 9.58957C53.2708 9.76528 53.1419 10.0464 53.1419 10.4329C53.1419 10.8078 53.2708 11.1006 53.5285 11.3115C53.7979 11.5223 54.1903 11.6277 54.7057 11.6277Z" fill="white"/>
<path d="M60.9966 0.400297H63.351V13.0509H60.9966V0.400297Z" fill="white"/>
<path d="M65.3859 3.91436H67.5294V5.17942C67.8574 4.7226 68.2615 4.36533 68.7418 4.10763C69.2338 3.83822 69.7901 3.70352 70.411 3.70352C71.1138 3.70352 71.7053 3.84994 72.1856 4.14277C72.6775 4.43561 73.0465 4.8573 73.2925 5.40784C73.5385 5.94666 73.6615 6.57334 73.6615 7.28786V13.0509H71.4652V7.55142C71.4652 6.95403 71.3188 6.48548 71.0259 6.14579C70.7448 5.8061 70.3055 5.63625 69.7082 5.63625C69.3802 5.63625 69.0581 5.70653 68.7418 5.8471C68.4255 5.98766 68.1561 6.2395 67.9335 6.60262C67.711 6.96574 67.5997 7.44014 67.5997 8.02581V13.0509H65.3859V3.91436Z" fill="white"/>
<path d="M80.9549 12.8928C80.4747 13.1388 79.9124 13.2618 79.2682 13.2618C78.4014 13.2618 77.6576 13.0568 77.0368 12.6468C76.4277 12.2368 75.965 11.6746 75.6487 10.9601C75.3324 10.2338 75.1743 9.40801 75.1743 8.48264C75.1743 7.55727 75.3324 6.73732 75.6487 6.0228C75.965 5.29656 76.4277 4.72845 77.0368 4.31848C77.6576 3.9085 78.4014 3.70352 79.2682 3.70352C79.889 3.70352 80.4337 3.82065 80.9022 4.05492C81.3825 4.28919 81.7749 4.62303 82.0794 5.05643V0.400297H84.2933V13.0509H82.1673V11.8034C81.8393 12.272 81.4352 12.6351 80.9549 12.8928ZM78.46 11.0655C78.8114 11.2998 79.2506 11.4169 79.7777 11.4169C80.3048 11.4169 80.7382 11.2998 81.0779 11.0655C81.4293 10.8195 81.687 10.4798 81.851 10.0464C82.0267 9.60129 82.1146 9.08003 82.1146 8.48264C82.1146 7.88525 82.0267 7.36986 81.851 6.93645C81.687 6.49134 81.4293 6.15165 81.0779 5.91738C80.7382 5.67139 80.3048 5.5484 79.7777 5.5484C79.2506 5.5484 78.8114 5.67139 78.46 5.91738C78.1203 6.15165 77.8626 6.49134 77.6869 6.93645C77.5112 7.36986 77.4233 7.88525 77.4233 8.48264C77.4233 9.08003 77.5112 9.60129 77.6869 10.0464C77.8626 10.4798 78.1203 10.8195 78.46 11.0655Z" fill="white"/>
<path d="M86.1816 3.91436H88.3779V13.0509H86.1816V3.91436ZM86.1816 0.400297H88.3954V2.45602H86.1816V0.400297Z" fill="white"/>
<path d="M94.3947 13.2618C93.4694 13.2618 92.6611 13.0568 91.97 12.6468C91.2906 12.2368 90.7694 11.6687 90.4063 10.9425C90.0549 10.2162 89.8792 9.3963 89.8792 8.48264C89.8792 7.56899 90.0549 6.74904 90.4063 6.0228C90.7694 5.29656 91.2906 4.72845 91.97 4.31848C92.6611 3.9085 93.4694 3.70352 94.3947 3.70352C95.3201 3.70352 96.1225 3.9085 96.8019 4.31848C97.4812 4.72845 98.0025 5.30827 98.3656 6.05794C98.7287 6.79589 98.9103 7.66269 98.9103 8.65835V9.18546H92.0754C92.134 9.66571 92.2629 10.0815 92.462 10.4329C92.6611 10.7726 92.9247 11.0421 93.2527 11.2412C93.5806 11.4286 93.9613 11.5223 94.3947 11.5223C94.9218 11.5223 95.367 11.411 95.7301 11.1885C96.0932 10.9659 96.3743 10.6555 96.5734 10.2572H98.7346C98.43 11.1826 97.8971 11.9147 97.1357 12.4535C96.386 12.9924 95.4724 13.2618 94.3947 13.2618ZM96.6789 7.60413C96.5617 6.93646 96.304 6.40935 95.9058 6.0228C95.5192 5.63625 95.0155 5.44298 94.3947 5.44298C93.7622 5.44298 93.2527 5.63625 92.8661 6.0228C92.4796 6.40935 92.2277 6.93646 92.1106 7.60413H96.6789Z" fill="white"/>
</svg>
