<svg width="124" height="26" viewBox="0 0 124 26" fill="none" xmlns="http://www.w3.org/2000/svg">
<path d="M28.8719 20.8595H30.5318V10.3039H28.8719V10.0823H32.237L35.0037 18.3868H35.0375L37.8042 10.0823H41.1016V10.3039H39.4416V20.8595H41.1016V21.0811H36.291V20.8595H37.951V10.3972H37.9171L34.3487 21.0927L30.7916 10.5022H30.7577V20.8595H32.4177V21.0811H28.8719V20.8595Z" fill="white"/>
<path d="M47.1435 20.8589H48.4534L52.4848 9.81342H52.8462L56.9115 20.8589H58.244V21.0805H53.6367V20.8589H55.2967L53.727 16.5667H50.2602L48.6906 20.8589H50.3506V21.0805H47.1435V20.8589ZM51.9993 11.8662L50.3506 16.3567H53.6367L51.988 11.8662H51.9993Z" fill="white"/>
<path d="M66.0133 20.8595V10.3039H64.3533V10.0823H69.0397V10.3039H67.5039V15.2143H67.6507L72.1677 10.3039H70.6093V10.0823H73.7035V10.3039H72.4613L68.667 14.4561L74.0874 20.8595H75.0699V21.0811H70.7561V20.8595H72.0999L67.6168 15.4242H67.4926V20.8595H69.0284V21.0811H64.342V20.8595H66.0133Z" fill="white"/>
<path d="M81.1114 20.8595H82.7714V10.3039H81.1114V10.0823H89.6598V12.7532H89.4905C89.3662 12.3567 89.2194 11.9951 89.0726 11.6919C88.9258 11.3886 88.7451 11.132 88.5306 10.9221C88.3273 10.7121 88.0676 10.5488 87.7853 10.4555C87.4917 10.3505 87.1529 10.3039 86.7351 10.3039H84.2508V15.0743H85.2219C85.5494 15.0743 85.8317 15.0393 86.0575 14.981C86.2834 14.9227 86.4867 14.806 86.6447 14.6311C86.8028 14.4561 86.9496 14.2345 87.0626 13.9313C87.1755 13.6397 87.2884 13.2548 87.4013 12.7999H87.5707V17.5937H87.4013C87.3336 17.2904 87.2545 17.0105 87.1868 16.7305C87.1077 16.4506 87.0061 16.2057 86.8706 15.9957C86.7351 15.7741 86.5544 15.6108 86.3286 15.4825C86.1027 15.3542 85.8091 15.2843 85.459 15.2843H84.2508V20.8595H87.0739C87.6159 20.8595 88.0789 20.7428 88.4403 20.4979C88.8016 20.253 89.0952 19.973 89.3324 19.6348C89.5695 19.2965 89.7276 18.9583 89.8405 18.5967C89.9534 18.2352 90.0212 17.9436 90.0551 17.6986H90.2245V21.0811H81.1114V20.8595Z" fill="white"/>
<path d="M97.1683 20.8589H98.8283V10.3033H97.1683V10.0817H100.364L105.412 18.4912H105.446V10.2916H103.786V10.07H107.332V10.2916H105.672V21.2788H105.378L99.0881 10.9215H99.0542V20.8472H100.714V21.0688H97.1683V20.8472V20.8589Z" fill="white"/>
<path d="M112.481 20.8589H113.791L117.823 9.81342H118.184L122.249 20.8589H123.582V21.0805H118.974V20.8589H120.634L119.065 16.5667H115.598L114.028 20.8589H115.688V21.0805H112.481V20.8589ZM117.337 11.8662L115.688 16.3567H118.974L117.326 11.8662H117.337Z" fill="white"/>
<path d="M0.756979 25.2361L8.36472 15.0851V25.2361H8.86795V14.9119L16.604 25.2361H17.1861V8.39938H16.6829V24.4921L8.99623 14.2392L14.3739 7.07446L13.9694 6.75852L8.86795 13.5666V0.174683H8.36472V14.229L0.67804 24.4921V8.39938H0.174805V25.2361H0.756979Z" fill="white"/>
<path d="M28.8719 20.8595H30.5318V10.3039H28.8719V10.0823H32.237L35.0037 18.3868H35.0375L37.8042 10.0823H41.1016V10.3039H39.4416V20.8595H41.1016V21.0811H36.291V20.8595H37.951V10.3972H37.9171L34.3487 21.0927L30.7916 10.5022H30.7577V20.8595H32.4177V21.0811H28.8719V20.8595Z" stroke="white" stroke-width="0.349324" stroke-miterlimit="10"/>
<path d="M47.1435 20.8589H48.4534L52.4848 9.81342H52.8462L56.9115 20.8589H58.244V21.0805H53.6367V20.8589H55.2967L53.727 16.5667H50.2602L48.6906 20.8589H50.3506V21.0805H47.1435V20.8589ZM51.9993 11.8662L50.3506 16.3567H53.6367L51.988 11.8662H51.9993Z" stroke="white" stroke-width="0.349324" stroke-miterlimit="10"/>
<path d="M66.0133 20.8595V10.3039H64.3533V10.0823H69.0397V10.3039H67.5039V15.2143H67.6507L72.1677 10.3039H70.6093V10.0823H73.7035V10.3039H72.4613L68.667 14.4561L74.0874 20.8595H75.0699V21.0811H70.7561V20.8595H72.0999L67.6168 15.4242H67.4926V20.8595H69.0284V21.0811H64.342V20.8595H66.0133Z" stroke="white" stroke-width="0.349324" stroke-miterlimit="10"/>
<path d="M81.1114 20.8595H82.7714V10.3039H81.1114V10.0823H89.6598V12.7532H89.4905C89.3662 12.3567 89.2194 11.9951 89.0726 11.6919C88.9258 11.3886 88.7451 11.132 88.5306 10.9221C88.3273 10.7121 88.0676 10.5488 87.7853 10.4555C87.4917 10.3505 87.1529 10.3039 86.7351 10.3039H84.2508V15.0743H85.2219C85.5494 15.0743 85.8317 15.0393 86.0575 14.981C86.2834 14.9227 86.4867 14.806 86.6447 14.6311C86.8028 14.4561 86.9496 14.2345 87.0626 13.9313C87.1755 13.6397 87.2884 13.2548 87.4013 12.7999H87.5707V17.5937H87.4013C87.3336 17.2904 87.2545 17.0105 87.1868 16.7305C87.1077 16.4506 87.0061 16.2057 86.8706 15.9957C86.7351 15.7741 86.5544 15.6108 86.3286 15.4825C86.1027 15.3542 85.8091 15.2843 85.459 15.2843H84.2508V20.8595H87.0739C87.6159 20.8595 88.0789 20.7428 88.4403 20.4979C88.8016 20.253 89.0952 19.973 89.3324 19.6348C89.5695 19.2965 89.7276 18.9583 89.8405 18.5967C89.9534 18.2352 90.0212 17.9436 90.0551 17.6986H90.2245V21.0811H81.1114V20.8595Z" stroke="white" stroke-width="0.349324" stroke-miterlimit="10"/>
<path d="M97.1683 20.8589H98.8283V10.3033H97.1683V10.0817H100.364L105.412 18.4912H105.446V10.2916H103.786V10.07H107.332V10.2916H105.672V21.2788H105.378L99.0881 10.9215H99.0542V20.8472H100.714V21.0688H97.1683V20.8472V20.8589Z" stroke="white" stroke-width="0.349324" stroke-miterlimit="10"/>
<path d="M112.481 20.8589H113.791L117.823 9.81342H118.184L122.249 20.8589H123.582V21.0805H118.974V20.8589H120.634L119.065 16.5667H115.598L114.028 20.8589H115.688V21.0805H112.481V20.8589ZM117.337 11.8662L115.688 16.3567H118.974L117.326 11.8662H117.337Z" stroke="white" stroke-width="0.349324" stroke-miterlimit="10"/>
<path d="M0.756979 25.2361L8.36472 15.0851V25.2361H8.86795V14.9119L16.604 25.2361H17.1861V8.39938H16.6829V24.4921L8.99623 14.2392L14.3739 7.07446L13.9694 6.75852L8.86795 13.5666V0.174683H8.36472V14.229L0.67804 24.4921V8.39938H0.174805V25.2361H0.756979Z" stroke="white" stroke-width="0.349324" stroke-miterlimit="10"/>
</svg>
