<svg width="16" height="16" viewBox="0 0 16 16" fill="none" xmlns="http://www.w3.org/2000/svg">
<path d="M8 0C3.57983 0 0 3.67032 0 8.20222C0 11.8319 2.29009 14.8974 5.46991 15.9836C5.86991 16.0557 6.01948 15.8096 6.01948 15.5942C6.01948 15.3995 6.00974 14.754 6.00974 14.0665C4 14.4459 3.48035 13.5643 3.32035 13.1036C3.22991 12.8675 2.84035 12.1393 2.49948 11.9446C2.21983 11.7905 1.81983 11.4111 2.48974 11.4011C3.12 11.3911 3.57009 11.9959 3.72035 12.242C4.44035 13.483 5.59026 13.1335 6.05009 12.9181C6.11965 12.3854 6.32974 12.0266 6.56 11.8212C4.77983 11.6165 2.92035 10.909 2.92035 7.77143C2.92035 6.87988 3.22991 6.14168 3.73983 5.56753C3.65983 5.36211 3.38017 4.52121 3.81983 3.39358C3.81983 3.39358 4.48974 3.17818 6.02017 4.23449C6.66017 4.04976 7.33983 3.95775 8.02017 3.95775C8.69983 3.95775 9.38017 4.05047 10.0202 4.23449C11.5506 3.1682 12.2198 3.39358 12.2198 3.39358C12.6602 4.52121 12.3798 5.36211 12.2998 5.56753C12.8097 6.14168 13.12 6.86918 13.12 7.77143C13.12 10.9189 11.2501 11.6158 9.46991 11.8212C9.76 12.078 10.0097 12.5701 10.0097 13.339C10.0097 14.4359 10 15.3175 10 15.5942C10 15.8096 10.1503 16.0664 10.5496 15.9844C13.7106 14.8974 16 11.8212 16 8.20222C16 3.67032 12.4202 0 8 0Z" fill="white"/>
</svg>
