<svg xmlns="http://www.w3.org/2000/svg" width="1440" height="1394" fill="none" xmlns:v="https://vecta.io/nano"><style><![CDATA[.B{stroke:#fff}.C{stroke-width:.766}.D{fill:#fff}]]></style><g clip-path="url(#E)"><mask id="A" maskUnits="userSpaceOnUse" x="761" y="0" width="763" height="1275" mask-type="alpha"><path d="M1523.47 0v1275H761.736V0h761.734z" fill="url(#C)"/></mask><g mask="url(#A)" class="B C"><use href="#F"/><path d="M1201.94 477.672l25.85-44.737-25.85-44.736h-51.71l-25.85 44.736 25.85 44.737h51.71z"/><use href="#G"/><path d="M1201.94 386.87l25.85-44.736-25.85-44.737h-51.71l-25.85 44.737 25.85 44.736h51.71z"/><use href="#H"/><path d="M1201.94 296.068l25.85-44.736-25.85-44.732h-51.71l-25.85 44.732 25.85 44.736h51.71zm0 363.207l25.85-44.736-25.85-44.737h-51.71l-25.85 44.737 25.85 44.736h51.71zm-78.72-45.4l25.86-44.737-25.86-44.736h-51.7l-25.86 44.736 25.86 44.737h51.7zm78.72-45.402l25.85-44.736-25.85-44.736h-51.71l-25.85 44.736 25.85 44.736h51.71zm-78.72-45.401l25.86-44.736-25.86-44.736h-51.7l-25.86 44.736 25.86 44.736h51.7zm-78.71-45.4l25.85-44.737-25.85-44.736h-51.706l-25.854 44.736 25.854 44.737h51.706zm78.71-45.401l25.86-44.736-25.86-44.737h-51.7l-25.86 44.737 25.86 44.736h51.7zm0-181.603l25.86-44.739-25.86-44.73h-51.7l-25.86 44.73 25.86 44.739h51.7z"/><use href="#I"/><use href="#J"/><path d="M1044.51 114.467l25.85-44.74-25.85-44.73h-51.706l-25.853 44.73 25.853 44.74h51.706z"/><use href="#K"/><path d="M1044.51 23.665l25.85-44.74-25.85-44.73h-51.706l-25.853 44.73 25.853 44.74h51.706z"/><path d="M1044.51 386.871l25.85-44.737-25.85-44.737h-51.705l-25.854 44.737 25.854 44.737h51.705z" class="D"/><use href="#L"/><path d="M1044.51 296.068l25.85-44.736-25.85-44.732h-51.706l-25.853 44.732 25.853 44.736h51.706z"/><use href="#M"/><use href="#N"/><path d="M965.796 159.868l25.853-44.74-25.853-44.73H914.09l-25.853 44.73 25.853 44.74h51.706z"/><use href="#O"/><path d="M1359.36 205.269l25.86-44.74-25.86-44.73h-51.7l-25.86 44.73 25.86 44.74h51.7z"/><use href="#P"/><path d="M1359.36 114.467l25.86-44.74-25.86-44.73h-51.7l-25.86 44.73 25.86 44.74h51.7zm-78.71-45.401l25.85-44.74-25.85-44.73h-51.71l-25.85 44.73 25.85 44.74h51.71zm78.71-45.401l25.86-44.74-25.86-44.73h-51.7l-25.86 44.73 25.86 44.74h51.7zm0 363.206l25.86-44.737-25.86-44.737h-51.7l-25.86 44.737 25.86 44.737h51.7zm-78.71-45.401l25.85-44.736-25.85-44.737h-51.71l-25.85 44.737 25.85 44.736h51.71zm78.71-45.402l25.86-44.736-25.86-44.732h-51.7l-25.86 44.732 25.86 44.736h51.7zm-78.71-45.4l25.85-44.739-25.85-44.73h-51.71l-25.85 44.73 25.85 44.739h51.71zm-78.71-45.399l25.85-44.74-25.85-44.73h-51.71l-25.85 44.73 25.85 44.74h51.71zm78.71-45.401l25.85-44.74-25.85-44.73h-51.71l-25.85 44.73 25.85 44.74h51.71zm-78.71-45.401l25.85-44.74-25.85-44.73h-51.71l-25.85 44.73 25.85 44.74h51.71zm-78.72-45.401l25.86-44.74-25.86-44.73h-51.7l-25.86 44.73 25.86 44.74h51.7zm78.72-45.401l25.85-44.74-25.85-44.73h-51.71l-25.85 44.73 25.85 44.74h51.71zm314.85 999.145l25.85-44.763-25.85-44.759h-51.71l-25.85 44.759 25.85 44.763h51.71z"/><use href="#Q"/><path d="M1438.08 886.538l25.85-44.759-25.85-44.759h-51.71l-25.85 44.759 25.85 44.759h51.71zm78.71-45.426l25.85-44.759-25.85-44.759h-51.71l-25.85 44.759 25.85 44.759h51.71z"/><use href="#R"/><path d="M1438.08 1159.08l25.85-44.76-25.85-44.76h-51.71l-25.85 44.76 25.85 44.76h51.71zm78.71-45.43l25.85-44.76-25.85-44.75h-51.71l-25.85 44.75 25.85 44.76h51.71zm-78.71-45.42l25.85-44.76-25.85-44.757h-51.71l-25.85 44.757 25.85 44.76h51.71zm-78.72-45.42l25.86-44.762-25.86-44.759h-51.7l-25.86 44.759 25.86 44.762h51.7z"/><use href="#S"/><path d="M1438.08 795.689l25.85-44.759-25.85-44.759h-51.71l-25.85 44.759 25.85 44.759h51.71z"/><use href="#T"/><path d="M1438.08 704.841l25.85-44.759-25.85-44.759h-51.71l-25.85 44.759 25.85 44.759h51.71z"/><use href="#U"/><path d="M1280.65 613.997l25.85-44.759-25.85-44.759h-51.71l-25.85 44.759 25.85 44.759h51.71zm78.71-45.425l25.86-44.759-25.86-44.759h-51.7l-25.86 44.759 25.86 44.759h51.7zm0 363.387l25.86-44.759-25.86-44.759h-51.7L1281.8 887.2l25.86 44.759h51.7z"/><use href="#V"/><path d="M1359.36 841.112l25.86-44.759-25.86-44.76h-51.7l-25.86 44.76 25.86 44.759h51.7zm-78.71-45.422l25.85-44.759-25.85-44.759h-51.71l-25.85 44.759 25.85 44.759h51.71zm-78.71-45.423l25.85-44.76-25.85-44.759h-51.71l-25.85 44.759 25.85 44.76h51.71z"/><path d="M1280.65 704.841l25.85-44.759-25.85-44.759h-51.71l-25.85 44.759 25.85 44.759h51.71z" class="D"/><path d="M1516.79 750.267l25.85-44.76-25.85-44.759h-51.71l-25.85 44.759 25.85 44.76h51.71zm0-272.543l25.85-44.759-25.85-44.759h-51.7l-25.86 44.759 25.86 44.759h51.7zm0-90.848l25.85-44.759-25.85-44.759h-51.71l-25.85 44.759 25.85 44.759h51.71z"/><path d="M1438.08 341.453l25.85-44.76-25.85-44.759h-51.71l-25.85 44.759 25.85 44.76h51.71z" class="D"/><path d="M1516.79 296.032l25.85-44.759-25.85-44.756h-51.71l-25.85 44.756 25.85 44.759h51.71zm0 363.387l25.85-44.759-25.85-44.759h-51.71l-25.85 44.759 25.85 44.759h51.71zm-78.71-45.422l25.85-44.76-25.85-44.759h-51.71l-25.85 44.759 25.85 44.76h51.71zm78.71-45.425l25.85-44.759-25.85-44.759h-51.71l-25.85 44.759 25.85 44.759h51.71zm-78.71-45.425l25.85-44.759-25.85-44.759h-51.71l-25.85 44.759 25.85 44.759h51.71zm-78.72-45.424l25.86-44.759-25.86-44.759h-51.7l-25.86 44.759 25.86 44.759h51.7zm78.72-45.42l25.85-44.759-25.85-44.76h-51.71l-25.85 44.76 25.85 44.759h51.71z"/><use href="#W"/><path d="M808.369 886.49l25.854-44.736-25.854-44.737h-51.705l-25.854 44.737 25.854 44.736h51.705z"/><use href="#X"/><path d="M808.369 795.687l25.854-44.736-25.854-44.736h-51.705l-25.854 44.736 25.854 44.736h51.705zm0-90.801l25.854-44.736-25.854-44.738h-51.705L730.81 660.15l25.854 44.736h51.705zm0 363.204l25.854-44.73-25.854-44.741h-51.705l-25.854 44.741 25.854 44.73h51.705z"/><use href="#Y"/><path d="M1044.51 659.485l25.85-44.736-25.85-44.737h-51.706l-25.853 44.737 25.853 44.736h51.706zm-78.714-45.401l25.854-44.736-25.854-44.736h-51.705l-25.854 44.736 25.854 44.736h51.705zm78.714-45.4l25.85-44.737-25.85-44.736h-51.706l-25.853 44.736 25.853 44.737h51.706zm-78.714-45.4l25.854-44.737-25.854-44.736h-51.705l-25.854 44.736 25.854 44.737h51.705zm-78.713-45.4l25.854-44.736-25.854-44.738h-51.705l-25.854 44.738 25.854 44.736h51.705zm78.713-45.402l25.854-44.736-25.854-44.737h-51.705l-25.854 44.737 25.854 44.736h51.705zm0 363.205l25.853-44.736-25.853-44.736H914.09l-25.853 44.736 25.853 44.736h51.706zm-78.713-45.399l25.854-44.738-25.854-44.736h-51.705l-25.854 44.736 25.854 44.738h51.705zm78.713-45.402l25.854-44.736-25.854-44.737h-51.705l-25.854 44.737 25.854 44.736h51.705zm-78.714-45.4l25.854-44.736-25.854-44.738-51.705.001-25.854 44.737 25.854 44.736h51.705zm-78.713-45.401l25.854-44.736-25.854-44.736h-51.705l-25.854 44.736 25.854 44.736h51.705zm78.714-45.402l25.854-44.736-25.854-44.736h-51.705l-25.854 44.736 25.854 44.736h51.705zm0-181.601l25.854-44.737-25.854-44.736h-51.705l-25.854 44.736 25.854 44.737h51.705zm-78.714-45.402l25.854-44.736-25.854-44.736h-51.705l-25.854 44.736 25.854 44.736h51.705zm78.714-45.4l25.854-44.737-25.854-44.733h-51.705l-25.854 44.733 25.854 44.737h51.705zm-78.714-45.401l25.854-44.74-25.854-44.73h-51.705l-25.854 44.73 25.854 44.74h51.705z"/><use href="#Z"/><use href="#a"/><path d="M808.369 432.481l25.854-44.736-25.854-44.737h-51.705l-25.854 44.737 25.854 44.736h51.705z"/><use href="#b"/><use href="#c"/><path d="M1123.22 1249.93l25.86-44.76-25.86-44.76h-51.7l-25.86 44.76 25.86 44.76h51.7zm-78.71-45.42l25.85-44.76-25.85-44.76h-51.706l-25.853 44.76 25.853 44.76h51.706z"/><use href="#d"/><path d="M1044.51 1113.66l25.85-44.76-25.85-44.76h-51.706l-25.854 44.76 25.854 44.76h51.706zm-78.713-45.42l25.853-44.76-25.853-44.762h-51.706l-25.853 44.762 25.853 44.76h51.706zm-78.714-45.43l25.854-44.756-25.854-44.759h-51.705l-25.854 44.759 25.854 44.756h51.705z"/><use href="#e" class="D"/><path d="M965.796 1340.78l25.854-44.76-25.854-44.76h-51.705l-25.854 44.76 25.854 44.76h51.705zm-78.713-45.42l25.854-44.76-25.854-44.76h-51.705l-25.854 44.76 25.854 44.76h51.705zm78.713-45.43l25.853-44.76-25.853-44.76H914.09l-25.853 44.76 25.853 44.76h51.706zm-78.713-45.42l25.854-44.76-25.854-44.76h-51.705l-25.854 44.76 25.854 44.76h51.705zm-78.713-45.43l25.854-44.76-25.854-44.76h-51.705l-25.854 44.76 25.854 44.76h51.705zm78.713-45.42l25.854-44.76-25.854-44.76h-51.705l-25.854 44.76 25.854 44.76h51.705z"/><path d="M1359.36 1204.51l25.86-44.76-25.86-44.76h-51.7l-25.86 44.76 25.86 44.76h51.7z" class="D"/><path d="M1280.65 1159.08l25.85-44.76-25.85-44.76h-51.71l-25.85 44.76 25.85 44.76h51.71zm78.71-45.42l25.86-44.76-25.86-44.76h-51.7l-25.86 44.76 25.86 44.76h51.7zm-78.71-45.42l25.85-44.76-25.85-44.762h-51.71l-25.85 44.762 25.85 44.76h51.71zm-78.71-45.43l25.85-44.756-25.85-44.759h-51.71l-25.85 44.759 25.85 44.756h51.71zm78.71-45.421l25.85-44.759-25.85-44.759h-51.71l-25.85 44.759 25.85 44.759h51.71zm0 363.391l25.85-44.76-25.85-44.76h-51.71l-25.85 44.76 25.85 44.76h51.71zm-78.71-45.42l25.85-44.76-25.85-44.76h-51.71l-25.85 44.76 25.85 44.76h51.71zm78.71-45.43l25.85-44.76-25.85-44.76h-51.71l-25.85 44.76 25.85 44.76h51.71zm-78.71-45.42l25.85-44.76-25.85-44.76h-51.71l-25.85 44.76 25.85 44.76h51.71zm-78.72-45.43l25.86-44.76-25.86-44.76h-51.7l-25.86 44.76 25.86 44.76h51.7zm78.72-45.42l25.85-44.76-25.85-44.76h-51.71l-25.85 44.76 25.85 44.76h51.71zm0-181.695l25.85-44.759-25.85-44.759h-51.71l-25.85 44.759 25.85 44.759h51.71zm-78.72-45.425l25.86-44.759-25.86-44.759h-51.7l-25.86 44.759 25.86 44.759h51.7zm78.72-45.42l25.85-44.76-25.85-44.759h-51.71l-25.85 44.759 25.85 44.76h51.71zm-78.72-45.426l25.86-44.759-25.86-44.759h-51.7l-25.86 44.759 25.86 44.759h51.7z"/><use href="#f"/><path d="M1123.22 704.85l25.86-44.76-25.86-44.759h-51.7l-25.86 44.759 25.86 44.76h51.7zm0 363.39l25.86-44.76-25.86-44.763h-51.7l-25.86 44.763 25.86 44.76h51.7zm-78.71-45.43l25.85-44.756-25.85-44.759h-51.706l-25.853 44.759 25.853 44.756h51.706zm78.71-45.42l25.86-44.76-25.86-44.759h-51.7l-25.86 44.759 25.86 44.76h51.7zm-78.71-45.425l25.85-44.759-25.85-44.759h-51.706l-25.853 44.759 25.853 44.759h51.706z"/><use href="#g"/><path d="M1044.51 841.12l25.85-44.76-25.85-44.759h-51.706l-25.853 44.759 25.853 44.76h51.706z"/></g><mask id="B" maskUnits="userSpaceOnUse" x="0" y="119" width="762" height="1275" mask-type="alpha"><path d="M761.736 119v1275H0V119h761.736z" fill="url(#D)"/></mask><g mask="url(#B)" class="B C"><path d="M518.913 642.072l25.854-44.736-25.854-44.737h-51.705l-25.854 44.737 25.854 44.736h51.705zm-78.713-45.4l25.854-44.737-25.854-44.736h-51.705l-25.854 44.736 25.854 44.737H440.2zm78.713-45.401l25.854-44.736-25.854-44.737h-51.705l-25.854 44.737 25.854 44.736h51.705zM440.2 505.87l25.853-44.736-25.853-44.737h-51.706l-25.853 44.737 25.853 44.736H440.2z"/><use href="#h"/><path d="M440.2 415.068l25.854-44.736L440.2 325.6h-51.705l-25.854 44.732 25.854 44.736H440.2zm0 363.207l25.854-44.736-25.854-44.737h-51.705l-25.854 44.737 25.854 44.736H440.2zm-78.713-45.4l25.854-44.737-25.854-44.736h-51.705l-25.854 44.736 25.854 44.737h51.705zm78.713-45.402l25.853-44.736-25.853-44.736h-51.706l-25.853 44.736 25.853 44.736H440.2zm-78.713-45.401l25.853-44.736-25.853-44.737h-51.706l-25.853 44.737 25.853 44.736h51.706zm-78.714-45.4l25.853-44.737-25.853-44.736h-51.706l-25.853 44.736 25.853 44.737h51.706zm78.714-45.401l25.853-44.736-25.853-44.737h-51.706l-25.853 44.737 25.853 44.736h51.706zm0-181.603l25.853-44.739-25.853-44.73h-51.706l-25.853 44.73 25.853 44.739h51.706zm-78.714-45.399l25.854-44.741-25.854-44.73h-51.705l-25.854 44.73 25.854 44.741h51.705z"/><use href="#i"/><path d="M282.773 233.467l25.854-44.741-25.854-44.729h-51.705l-25.854 44.729 25.854 44.741h51.705zm-78.714-45.401l25.854-44.74-25.854-44.73h-51.705l-25.854 44.73 25.854 44.74h51.705zm78.714-45.401l25.854-44.74-25.854-44.73h-51.705l-25.854 44.73 25.854 44.74h51.705z"/><path d="M282.774 505.87l25.853-44.736-25.853-44.737h-51.706l-25.853 44.737 25.853 44.736h51.706z" class="D"/><path d="M204.059 460.469l25.854-44.736-25.854-44.736h-51.705L126.5 415.733l25.854 44.736h51.705z"/><use href="#j"/><path d="M204.061 369.668l25.854-44.739-25.854-44.73h-51.705l-25.854 44.73 25.854 44.739h51.705zm-78.715-45.399l25.854-44.74-25.854-44.73H73.641l-25.854 44.73 25.854 44.74h51.705zm78.713-45.401l25.854-44.741-25.854-44.729h-51.705L126.5 234.127l25.854 44.741h51.705zm472.282 90.8l25.853-44.739-25.853-44.73h-51.705l-25.854 44.73 25.854 44.739h51.705zm-78.714-45.399l25.854-44.741-25.854-44.73h-51.705l-25.854 44.73 25.854 44.741h51.705zm78.714-45.401l25.853-44.741-25.853-44.729h-51.705l-25.854 44.729 25.854 44.741h51.705zm-78.714-45.401l25.854-44.741-25.854-44.729h-51.705l-25.854 44.729 25.854 44.741h51.705zm-78.713-45.401l25.854-44.74-25.854-44.73h-51.705l-25.854 44.73 25.854 44.74h51.705zm78.713-45.401l25.854-44.74-25.854-44.73h-51.705l-25.854 44.73 25.854 44.74h51.705zm0 363.205l25.854-44.736-25.854-44.737h-51.705l-25.854 44.737 25.854 44.736h51.705zm-78.714-45.4l25.854-44.736-25.854-44.737h-51.705l-25.854 44.737 25.854 44.736h51.705zm78.714-45.402l25.854-44.736-25.854-44.732h-51.705l-25.854 44.732 25.854 44.736h51.705zm-78.714-45.4l25.854-44.739-25.854-44.73h-51.705l-25.854 44.73 25.854 44.739h51.705zM440.2 324.269l25.854-44.741-25.854-44.73h-51.705l-25.854 44.73 25.854 44.741H440.2zm78.713-45.401l25.854-44.741-25.854-44.729h-51.705l-25.854 44.729 25.854 44.741h51.705zM440.2 233.467l25.854-44.741-25.854-44.729h-51.705l-25.854 44.729 25.854 44.741H440.2z"/><use href="#k"/><path d="M440.201 142.665l25.853-44.74-25.853-44.73h-51.706l-25.853 44.73 25.853 44.74h51.706zm314.853 999.145l25.854-44.76-25.854-44.76h-51.705l-25.854 44.76 25.854 44.76h51.705zm0-90.85l25.854-44.76-25.854-44.759h-51.705l-25.854 44.759 25.854 44.76h51.705zm-78.713-45.42l25.853-44.761-25.853-44.759h-51.706l-25.853 44.759 25.853 44.761h51.706zm78.713-45.428l25.854-44.759-25.854-44.76h-51.705l-25.854 44.76 25.854 44.759h51.705zm0 363.388l25.854-44.76-25.854-44.76h-51.705l-25.854 44.76 25.854 44.76h51.705z"/><use href="#l"/><path d="M755.054 1232.65l25.854-44.76-25.854-44.76h-51.705l-25.854 44.76 25.854 44.76h51.705zm-78.713-45.42l25.853-44.76-25.853-44.76h-51.706l-25.854 44.76 25.854 44.76h51.706zm-78.714-45.42l25.854-44.76-25.854-44.76h-51.705l-25.854 44.76 25.854 44.76h51.705zm78.714-45.43l25.853-44.76-25.853-44.76h-51.706l-25.854 44.76 25.854 44.76h51.706z"/><use href="#m"/><path d="M597.627 869.267l25.854-44.76-25.854-44.759h-51.705l-25.854 44.759 25.854 44.76h51.705zm78.714-45.426l25.853-44.759-25.853-44.759h-51.706l-25.853 44.759 25.853 44.759h51.706zm-78.714-45.422l25.854-44.759-25.854-44.759h-51.705l-25.854 44.759 25.854 44.759h51.705zm-78.714-45.422l25.854-44.76-25.854-44.759h-51.705l-25.854 44.759 25.854 44.76h51.705zm78.714-45.425l25.854-44.759-25.854-44.759h-51.705l-25.854 44.759 25.854 44.759h51.705zm0 363.388l25.854-44.76-25.854-44.759h-51.705l-25.854 44.759 25.854 44.76h51.705zm-78.714-45.42l25.854-44.761-25.854-44.759h-51.705l-25.854 44.759 25.854 44.761h51.705zm78.714-45.428l25.853-44.759-25.853-44.76h-51.706l-25.853 44.76 25.854 44.759h51.705zm-78.714-45.422l25.854-44.759-25.854-44.759h-51.705l-25.854 44.759 25.854 44.759h51.705zm-78.712-45.424l25.853-44.759-25.853-44.759h-51.706l-25.853 44.759 25.853 44.759h51.706z"/><path d="M518.913 823.841l25.854-44.759-25.854-44.759h-51.705l-25.854 44.759 25.854 44.759h51.705z" class="D"/><path d="M755.054 869.266l25.854-44.759-25.854-44.759h-51.705l-25.854 44.759 25.854 44.759h51.705zm.001-272.542l25.853-44.76-25.853-44.759h-51.706l-25.853 44.759 25.853 44.76h51.706zm-.001-90.848l25.853-44.759-25.853-44.759h-51.706l-25.853 44.759 25.853 44.759h51.706z"/><use href="#n" class="D"/><path d="M755.054 415.032l25.854-44.759-25.854-44.757h-51.705l-25.854 44.757 25.854 44.759h51.705zm0 363.387l25.854-44.759-25.854-44.759h-51.705l-25.854 44.759 25.854 44.759h51.705zm-78.713-45.422l25.853-44.76-25.853-44.759h-51.706l-25.854 44.759 25.854 44.76h51.706zm78.713-45.425l25.854-44.759-25.854-44.759h-51.705l-25.854 44.759 25.854 44.759h51.705zm-78.713-45.425l25.853-44.759-25.853-44.759h-51.706l-25.853 44.759 25.853 44.759h51.706zm-78.714-45.424l25.854-44.76-25.854-44.759h-51.705l-25.854 44.759 25.854 44.76h51.705zm78.714-45.42l25.853-44.759-25.853-44.76h-51.706l-25.854 44.76 25.854 44.759h51.706zM125.346 1050.89l25.854-44.74-25.854-44.734H73.641l-25.854 44.734 25.854 44.74h51.705zm-78.713-45.4l25.854-44.737-25.854-44.736H-5.073l-25.854 44.736 25.854 44.737h51.705z"/><use href="#o"/><use href="#p"/><path d="M46.633 823.886l25.854-44.736-25.854-44.738H-5.072l-25.854 44.738 25.854 44.736h51.705zm0 363.204l25.854-44.73-25.854-44.74H-5.072l-25.854 44.74 25.854 44.73h51.705z"/><use href="#q"/><path d="M282.773 778.485l25.854-44.736-25.854-44.737h-51.705l-25.854 44.737 25.854 44.736h51.705zm-78.713-45.401l25.854-44.736-25.854-44.736h-51.705l-25.854 44.736 25.854 44.736h51.705zm78.713-45.4l25.854-44.737-25.854-44.736h-51.705l-25.854 44.736 25.854 44.737h51.705zm-78.713-45.4l25.854-44.737-25.854-44.737h-51.705l-25.854 44.737 25.854 44.737h51.705zm-78.714-45.4l25.854-44.736-25.854-44.738H73.641l-25.854 44.738 25.854 44.736h51.705zm78.714-45.402l25.854-44.736-25.854-44.737h-51.705l-25.854 44.737 25.854 44.736h51.705zm-.001 363.205l25.854-44.737-25.854-44.736h-51.705L126.5 869.95l25.854 44.737h51.705zm-78.713-45.399L151.2 824.55l-25.854-44.736H73.641L47.788 824.55l25.854 44.738h51.705zm78.714-45.402l25.854-44.736-25.854-44.737h-51.705l-25.854 44.737 25.854 44.736h51.705zm-78.714-45.4L151.2 733.75l-25.854-44.738-51.705.001-25.854 44.737 25.854 44.736h51.705zm-78.713-45.402l25.854-44.736-25.854-44.736H-5.072l-25.854 44.736 25.854 44.736h51.705z"/><path d="M125.346 687.683l25.854-44.736-25.854-44.736H73.641l-25.854 44.736 25.854 44.736h51.705zm0-181.601l25.854-44.737-25.854-44.736H73.641l-25.854 44.736 25.854 44.737h51.705z"/><use href="#r"/><path d="M125.346 415.28l25.854-44.737-25.854-44.733H73.641l-25.854 44.733 25.854 44.737h51.705zm-78.713-45.401l25.854-44.74-25.854-44.73H-5.072l-25.854 44.73 25.854 44.74h51.705zm0-90.802l25.854-44.74-25.854-44.73H-5.072l-25.854 44.73 25.854 44.74h51.705zm0 363.206l25.854-44.737-25.854-44.736H-5.072l-25.854 44.736 25.854 44.737h51.705z"/><path d="M46.633 551.481l25.854-44.736-25.854-44.737H-5.072l-25.854 44.737 25.854 44.736h51.705z"/><use href="#s"/><path d="M282.773 1414.36l25.854-44.76-25.854-44.76h-51.705l-25.854 44.76 25.854 44.76h51.705zm78.714-45.43l25.854-44.76-25.854-44.76h-51.705l-25.854 44.76 25.854 44.76h51.705zm-78.714-45.42l25.854-44.76-25.854-44.76h-51.705l-25.854 44.76 25.854 44.76h51.705zm-78.713-45.43l25.854-44.76-25.854-44.76h-51.705l-25.854 44.76 25.854 44.76h51.705zm78.713-45.42l25.853-44.76-25.853-44.76h-51.706l-25.853 44.76 25.853 44.76h51.706zm-78.713-45.42l25.854-44.76-25.854-44.76h-51.705l-25.854 44.76 25.854 44.76h51.705z"/><use href="#t"/><path d="M204.06 1096.39l25.854-44.76-25.854-44.76h-51.705l-25.854 44.76 25.854 44.76h51.705z" class="D"/><path d="M204.06 1459.78l25.854-44.76-25.854-44.76h-51.705l-25.854 44.76 25.854 44.76h51.705zm-78.714-45.42l25.854-44.76-25.854-44.76H73.641l-25.854 44.76 25.854 44.76h51.705zm78.713-45.43l25.854-44.76-25.854-44.76h-51.705l-25.854 44.76 25.854 44.76h51.705zm-78.713-45.42l25.854-44.76-25.854-44.76H73.641l-25.854 44.76 25.854 44.76h51.705zm-78.712-45.43l25.854-44.76-25.854-44.76H-5.072l-25.854 44.76 25.854 44.76h51.705zm78.712-45.42l25.854-44.76-25.854-44.76H73.641l-25.854 44.76 25.854 44.76h51.705z"/><path d="M597.627 1323.51l25.854-44.76-25.854-44.76h-51.705l-25.854 44.76 25.854 44.76h51.705z" class="D"/><path d="M518.913 1278.08l25.854-44.76-25.854-44.76h-51.705l-25.854 44.76 25.854 44.76h51.705zm78.714-45.42l25.854-44.76-25.854-44.76h-51.705l-25.854 44.76 25.854 44.76h51.705zm-78.713-45.42l25.854-44.76-25.854-44.76h-51.705l-25.854 44.76 25.854 44.76h51.705z"/><use href="#u"/><path d="M518.913 1096.39l25.854-44.76-25.854-44.76h-51.705l-25.854 44.76 25.854 44.76h51.705zm0 363.39l25.854-44.76-25.854-44.76h-51.705l-25.854 44.76 25.854 44.76h51.705zm-78.713-45.42l25.854-44.76-25.854-44.76h-51.705l-25.854 44.76 25.854 44.76H440.2zm78.713-45.43l25.854-44.76-25.854-44.76h-51.705l-25.854 44.76 25.854 44.76h51.705zm-78.713-45.42l25.853-44.76-25.853-44.76h-51.706l-25.853 44.76 25.853 44.76H440.2zm-78.713-45.43l25.853-44.76-25.853-44.76h-51.706l-25.853 44.76 25.853 44.76h51.706zm78.713-45.42l25.854-44.76-25.854-44.76h-51.705l-25.854 44.76 25.854 44.76H440.2zm0-181.69l25.853-44.76-25.853-44.763h-51.706l-25.853 44.763 25.853 44.76H440.2zm-78.714-45.43l25.854-44.76-25.854-44.759h-51.705l-25.854 44.759 25.854 44.76h51.705zm78.714-45.421l25.854-44.759-25.854-44.759h-51.705l-25.854 44.759 25.854 44.759H440.2zm-78.713-45.425l25.853-44.759-25.853-44.76h-51.706l-25.853 44.76 25.853 44.759h51.706zm-78.714-45.424l25.854-44.759-25.854-44.759h-51.705l-25.854 44.759 25.854 44.759h51.705zm78.714-45.42l25.854-44.76-25.854-44.759h-51.705l-25.854 44.759 25.854 44.76h51.705zm0 363.39l25.853-44.76-25.853-44.76h-51.706l-25.853 44.76 25.853 44.76h51.706zm-78.714-45.43l25.854-44.76-25.854-44.76h-51.705l-25.854 44.76 25.854 44.76h51.705zm78.714-45.42l25.853-44.76-25.853-44.76h-51.706l-25.853 44.76 25.853 44.76h51.706zm-78.714-45.43l25.854-44.75-25.854-44.764h-51.705l-25.854 44.764 25.854 44.75h51.705zm-78.713-45.42l25.854-44.759-25.854-44.759h-51.705l-25.854 44.759 25.854 44.759h51.705zm78.713-45.421l25.854-44.759-25.854-44.759h-51.705l-25.854 44.759 25.854 44.759h51.705z"/></g></g><defs><radialGradient id="C" cx="0" cy="0" r="1" gradientUnits="userSpaceOnUse" gradientTransform="translate(1142.6 637.5) rotate(180) scale(469.525 785.894)"><stop stop-color="#d9d9d9" stop-opacity=".16"/><stop offset=".802" stop-color="#d9d9d9" stop-opacity="0"/></radialGradient><radialGradient id="D" cx="0" cy="0" r="1" gradientUnits="userSpaceOnUse" gradientTransform="translate(380.868 756.5) rotate(180) scale(469.525 785.894)"><stop stop-color="#d9d9d9" stop-opacity=".16"/><stop offset=".802" stop-color="#d9d9d9" stop-opacity="0"/></radialGradient><clipPath id="E"><path d="M0 0h1440v1394H0z" class="D"/></clipPath><path id="F" d="M1280.65 523.072l25.85-44.736-25.85-44.736h-51.71l-25.85 44.736 25.85 44.736h51.71z"/><path id="G" d="M1280.65 432.271l25.85-44.736-25.85-44.737h-51.71l-25.85 44.737 25.85 44.736h51.71z"/><path id="H" d="M1123.22 341.47l25.86-44.736-25.86-44.737h-51.7l-25.86 44.737 25.86 44.736h51.7z"/><path id="I" d="M1044.51 205.269l25.85-44.74-25.85-44.73h-51.706l-25.853 44.73 25.853 44.74h51.706z"/><path id="J" d="M1123.22 159.868l25.86-44.74-25.86-44.73h-51.7l-25.86 44.73 25.86 44.74h51.7z"/><path id="K" d="M965.796 69.066l25.853-44.74-25.853-44.73H914.09l-25.853 44.73 25.853 44.74h51.706z"/><path id="L" d="M965.796 341.469l25.853-44.736-25.853-44.736H914.09l-25.853 44.736 25.853 44.736h51.706z"/><path id="M" d="M965.797 250.668l25.854-44.739-25.854-44.73h-51.705l-25.854 44.73 25.854 44.739h51.705z"/><path id="N" d="M887.083 205.269l25.854-44.74-25.854-44.73h-51.705l-25.854 44.73 25.854 44.74h51.705z"/><path id="O" d="M1438.08 250.669l25.85-44.739-25.85-44.73h-51.71l-25.85 44.73 25.85 44.739h51.71z"/><path id="P" d="M1438.08 159.868l25.85-44.74-25.85-44.73h-51.71l-25.85 44.73 25.85 44.74h51.71z"/><path id="Q" d="M1516.79 931.959l25.85-44.759-25.85-44.759h-51.71l-25.85 44.759 25.85 44.759h51.71z"/><path id="R" d="M1516.79 1204.5l25.85-44.76-25.85-44.76h-51.71l-25.85 44.76 25.85 44.76h51.71z"/><path id="S" d="M1438.08 977.383l25.85-44.759-25.85-44.76h-51.71l-25.85 44.76 25.85 44.759h51.71z"/><path id="T" d="M1359.36 750.267l25.86-44.76-25.86-44.759h-51.7l-25.86 44.759 25.86 44.76h51.7z"/><path id="U" d="M1359.36 659.419l25.86-44.759-25.86-44.759h-51.7l-25.86 44.759 25.86 44.759h51.7z"/><path id="V" d="M1280.65 886.539l25.85-44.76-25.85-44.759h-51.71l-25.85 44.759 25.85 44.76h51.71z"/><path id="W" d="M887.083 931.89l25.854-44.736-25.854-44.737h-51.705l-25.854 44.737 25.854 44.736h51.705z"/><path id="X" d="M887.083 841.087l25.854-44.736-25.854-44.736h-51.705l-25.854 44.736 25.854 44.736h51.705z"/><path id="Y" d="M808.37 977.291l25.854-44.737-25.854-44.736h-51.705l-25.854 44.736 25.854 44.737h51.705z"/><path id="Z" d="M808.369 160.078l25.854-44.741-25.854-44.73h-51.705l-25.854 44.73 25.854 44.741h51.705z"/><path id="a" d="M808.369 523.284l25.854-44.737-25.854-44.737h-51.705l-25.854 44.737 25.854 44.737h51.705z"/><path id="b" d="M1123.22 1340.78l25.86-44.76-25.86-44.76h-51.7l-25.86 44.76 25.86 44.76h51.7z"/><path id="c" d="M1044.51 1295.36l25.85-44.76-25.85-44.76h-51.706l-25.853 44.76 25.853 44.76h51.706z"/><path id="d" d="M965.796 1159.08l25.854-44.76-25.854-44.76h-51.705l-25.854 44.76 25.854 44.76h51.705z"/><path id="e" d="M965.796 977.389l25.854-44.759-25.854-44.759h-51.705l-25.854 44.759 25.854 44.759h51.705z"/><path id="f" d="M1044.51 750.271l25.85-44.76-25.85-44.759h-51.706l-25.853 44.759 25.853 44.76h51.706z"/><path id="g" d="M965.796 886.541l25.854-44.76-25.854-44.759h-51.705l-25.854 44.759 25.854 44.76h51.705z"/><path id="h" d="M361.487 460.47l25.853-44.736-25.853-44.737h-51.706l-25.853 44.737 25.853 44.736h51.706z"/><path id="i" d="M361.487 278.868l25.854-44.741-25.854-44.729h-51.705l-25.854 44.729 25.854 44.741h51.705z"/><path id="j" d="M282.773 415.068l25.854-44.736-25.854-44.732h-51.705l-25.854 44.732 25.854 44.736h51.705z"/><path id="k" d="M361.487 188.066l25.853-44.74-25.853-44.73h-51.706l-25.853 44.73 25.853 44.74h51.706z"/><path id="l" d="M676.341 1278.08l25.853-44.76-25.853-44.76h-51.706l-25.854 44.76 25.854 44.76h51.706z"/><path id="m" d="M676.341 914.689l25.853-44.759-25.853-44.759h-51.706l-25.853 44.759 25.853 44.759h51.706z"/><path id="n" d="M676.341 460.453l25.853-44.76-25.853-44.759h-51.706l-25.854 44.759 25.854 44.76h51.706z"/><path id="o" d="M125.346 960.087l25.854-44.736-25.854-44.736H73.641l-25.854 44.736 25.854 44.736h51.705z"/><path id="p" d="M46.633 914.687l25.854-44.736-25.854-44.736H-5.072l-25.854 44.736 25.854 44.736h51.705z"/><path id="q" d="M46.634 1096.29l25.854-44.74-25.854-44.73H-5.072l-25.854 44.73 25.854 44.74h51.705z"/><path id="r" d="M46.633 460.68l25.854-44.736-25.854-44.737H-5.072l-25.854 44.737 25.854 44.736h51.705z"/><path id="s" d="M361.487 1459.78l25.853-44.76-25.853-44.76h-51.706l-25.853 44.76 25.853 44.76h51.706z"/><path id="t" d="M125.346 1141.81l25.854-44.76-25.854-44.76H73.641l-25.854 44.76 25.854 44.76h51.705z"/><path id="u" d="M440.2 1141.81l25.854-44.76-25.854-44.76h-51.705l-25.854 44.76 25.854 44.76H440.2z"/></defs></svg>