<svg xmlns="http://www.w3.org/2000/svg" width="1440" height="1035" fill="none" xmlns:v="https://vecta.io/nano"><style><![CDATA[.B{stroke:#fff}.C{stroke-width:.766}.D{fill:#fff}]]></style><g clip-path="url(#E)"><g opacity=".2"><mask id="A" maskUnits="userSpaceOnUse" x="0" y="-120" width="762" height="1275" mask-type="alpha"><path d="M761.736-120v1275H0V-120h761.736z" fill="url(#C)"/></mask><g mask="url(#A)" class="B C"><use href="#F"/><path d="M440.2 357.672l25.854-44.737-25.854-44.736h-51.705l-25.854 44.736 25.854 44.737H440.2zm78.713-45.401l25.854-44.736-25.854-44.737h-51.705l-25.854 44.737 25.854 44.736h51.705zM440.2 266.87l25.853-44.736-25.853-44.737h-51.706l-25.853 44.737 25.853 44.736H440.2z"/><use href="#G"/><path d="M440.2 176.068l25.854-44.736L440.2 86.6h-51.705l-25.854 44.732 25.854 44.736H440.2zm0 363.207l25.854-44.736-25.854-44.737h-51.705l-25.854 44.737 25.854 44.736H440.2z"/><use href="#H"/><path d="M440.2 448.473l25.853-44.736-25.853-44.736h-51.706l-25.853 44.736 25.853 44.736H440.2zm-78.713-45.401l25.853-44.736-25.853-44.737h-51.706l-25.853 44.737 25.853 44.736h51.706zm-78.714-45.4l25.853-44.737-25.853-44.736h-51.706l-25.853 44.736 25.853 44.737h51.706zm78.714-45.401l25.853-44.736-25.853-44.737h-51.706l-25.853 44.737 25.853 44.736h51.706zm0-181.603l25.853-44.739-25.853-44.73h-51.706l-25.853 44.73 25.853 44.739h51.706z"/><use href="#I"/><path d="M361.487 39.868l25.854-44.74-25.854-44.73h-51.705l-25.854 44.73 25.854 44.74h51.705z"/><path d="M282.774 266.87l25.853-44.736-25.853-44.737h-51.706l-25.853 44.737 25.853 44.736h51.706z" class="D"/><path d="M204.059 221.469l25.854-44.736-25.854-44.736h-51.705L126.5 176.733l25.854 44.736h51.705zm78.714-45.401l25.854-44.736L282.773 86.6h-51.705l-25.854 44.732 25.854 44.736h51.705z"/><use href="#J"/><path d="M125.346 85.269l25.854-44.74-25.854-44.73H73.641l-25.854 44.73 25.854 44.74h51.705zm78.713-45.401l25.854-44.74-25.854-44.73h-51.705L126.5-4.872l25.854 44.74h51.705zm472.282 90.8l25.853-44.739-25.853-44.73h-51.705l-25.854 44.73 25.854 44.739h51.705zm-78.714-45.399l25.854-44.74-25.854-44.73h-51.705l-25.854 44.73 25.854 44.74h51.705zm78.714-45.401l25.853-44.74-25.853-44.73h-51.705l-25.854 44.73 25.854 44.74h51.705zM597.627 266.87l25.854-44.736-25.854-44.737h-51.705l-25.854 44.737 25.854 44.736h51.705zm-78.714-45.4l25.854-44.736-25.854-44.737h-51.705l-25.854 44.737 25.854 44.736h51.705zm78.714-45.402l25.854-44.736L597.627 86.6h-51.705l-25.854 44.732 25.854 44.736h51.705zm-78.714-45.4l25.854-44.739-25.854-44.73h-51.705l-25.854 44.73 25.854 44.739h51.705zM440.2 85.269l25.854-44.74L440.2-4.202h-51.705l-25.854 44.73 25.854 44.74H440.2zm78.713-45.401l25.854-44.74-25.854-44.73h-51.705l-25.854 44.73 25.854 44.74h51.705z"/><use href="#K"/><path d="M755.054 811.959l25.854-44.759-25.854-44.759h-51.705L677.495 767.2l25.854 44.759h51.705z"/><use href="#L"/><use href="#M"/><path d="M755.054 1084.5l25.854-44.76-25.854-44.758h-51.705l-25.854 44.758 25.854 44.76h51.705zm-78.713-45.42l25.853-44.762-25.853-44.759h-51.706l-25.853 44.759 25.853 44.762h51.706zm78.713-45.427l25.854-44.759-25.854-44.759h-51.705l-25.854 44.759 25.854 44.759h51.705zm-78.713-45.423l25.853-44.759-25.853-44.759h-51.706l-25.853 44.759 25.853 44.759h51.706zm-78.714-45.423l25.854-44.759-25.854-44.759h-51.705l-25.854 44.759 25.854 44.759h51.705z"/><use href="#N"/><path d="M676.341 675.689l25.853-44.759-25.853-44.759h-51.706l-25.853 44.759 25.853 44.759h51.706z"/><use href="#O"/><path d="M676.341 584.841l25.853-44.759-25.853-44.759h-51.706l-25.853 44.759 25.853 44.759h51.706zm-78.714-45.422l25.854-44.759-25.854-44.759h-51.705l-25.854 44.759 25.854 44.759h51.705zm-78.714-45.422l25.854-44.76-25.854-44.759h-51.705l-25.854 44.759 25.854 44.76h51.705zm78.714-45.425l25.854-44.759-25.854-44.759h-51.705l-25.854 44.759 25.854 44.759h51.705zm0 363.387l25.854-44.759-25.854-44.759h-51.705L520.068 767.2l25.854 44.759h51.705zm-78.714-45.42l25.854-44.76-25.854-44.759h-51.705l-25.854 44.759 25.854 44.76h51.705zm78.714-45.427l25.853-44.759-25.853-44.76h-51.706l-25.853 44.76 25.854 44.759h51.705zm-78.714-45.422l25.854-44.759-25.854-44.759h-51.705l-25.854 44.759 25.854 44.759h51.705zm-78.712-45.424l25.853-44.759-25.853-44.759h-51.706l-25.853 44.759 25.853 44.759h51.706z"/><path d="M518.913 584.841l25.854-44.759-25.854-44.759h-51.705l-25.854 44.759 25.854 44.759h51.705z" class="D"/><path d="M755.054 630.266l25.854-44.759-25.854-44.759h-51.705l-25.854 44.759 25.854 44.759h51.705z"/><use href="#P"/><path d="M755.054 266.876l25.853-44.759-25.853-44.759h-51.706l-25.853 44.759 25.853 44.759h51.706z"/><use href="#Q" class="D"/><path d="M755.054 176.032l25.854-44.759-25.854-44.756h-51.705l-25.854 44.757 25.854 44.759h51.705zm0 363.387l25.854-44.759-25.854-44.759h-51.705l-25.854 44.759 25.854 44.759h51.705zm-78.713-45.422l25.853-44.76-25.853-44.759h-51.706l-25.854 44.759 25.854 44.76h51.706zm78.713-45.425l25.854-44.759-25.854-44.759h-51.705l-25.854 44.759 25.854 44.759h51.705zm-78.713-45.425l25.853-44.759-25.853-44.759h-51.706l-25.853 44.759 25.853 44.759h51.706zm-78.714-45.424l25.854-44.76-25.854-44.759h-51.705l-25.854 44.759 25.854 44.76h51.705zm78.714-45.42l25.853-44.759-25.853-44.76h-51.706l-25.854 44.76 25.854 44.759h51.706zM125.347 811.89l25.854-44.736-25.854-44.738H73.642l-25.854 44.738 25.854 44.736h51.705zm-78.714-45.401l25.854-44.736-25.854-44.736H-5.073l-25.854 44.736 25.854 44.736h51.705z"/><use href="#R"/><use href="#S"/><path d="M46.634 584.886l25.854-44.736-25.854-44.738H-5.072l-25.854 44.738 25.854 44.736h51.705zm-.001 363.205l25.854-44.736-25.854-44.736H-5.072l-25.854 44.736 25.854 44.736h51.705z"/><path d="M46.634 857.291l25.854-44.738-25.854-44.736H-5.072l-25.854 44.736 25.854 44.738h51.705zm236.139-317.806l25.854-44.736-25.854-44.737h-51.705l-25.854 44.737 25.854 44.736h51.705z"/><use href="#T"/><path d="M282.773 448.684l25.854-44.737-25.854-44.736h-51.705l-25.854 44.736 25.854 44.737h51.705z"/><use href="#U"/><path d="M125.346 357.884l25.854-44.736-25.854-44.738H73.641l-25.854 44.738 25.854 44.736h51.705zm78.714-45.402l25.854-44.736-25.854-44.737h-51.705l-25.854 44.737 25.854 44.736h51.705zm0 363.205l25.854-44.737-25.854-44.736h-51.705l-25.854 44.736 25.854 44.737h51.705zm-78.714-45.399L151.2 585.55l-25.854-44.736H73.641L47.788 585.55l25.854 44.738h51.705zm78.714-45.402l25.854-44.736-25.854-44.737h-51.705l-25.854 44.737 25.854 44.736h51.705zm-78.714-45.4L151.2 494.75l-25.854-44.738-51.705.001-25.854 44.737 25.854 44.736h51.705zm-78.713-45.402l25.854-44.736-25.854-44.736H-5.072l-25.854 44.736 25.854 44.736h51.705z"/><path d="M125.346 448.683l25.854-44.736-25.854-44.736H73.641l-25.854 44.736 25.854 44.736h51.705zm0-181.601l25.854-44.737-25.854-44.736H73.641l-25.854 44.736 25.854 44.737h51.705z"/><use href="#V"/><path d="M125.346 176.28l25.854-44.737-25.854-44.733H73.641l-25.854 44.733 25.854 44.737h51.705zm-78.713-45.401l25.854-44.74-25.854-44.73H-5.072l-25.854 44.73 25.854 44.741h51.705zm0-90.802l25.854-44.74-25.854-44.73H-5.072l-25.854 44.73 25.854 44.74h51.705zm0 363.206l25.854-44.737-25.854-44.736H-5.072l-25.854 44.736 25.854 44.737h51.705z"/><path d="M46.633 312.481l25.854-44.736-25.854-44.737H-5.072l-25.854 44.737 25.854 44.736h51.705z"/><use href="#W"/><use href="#X"/><path d="M282.773 993.659l25.853-44.76-25.853-44.759h-51.706l-25.853 44.759 25.853 44.76h51.706zm-78.713-45.422l25.854-44.76-25.854-44.759h-51.705l-25.854 44.759 25.854 44.76h51.705zm-78.713-45.424l25.854-44.759-25.854-44.759H73.642l-25.854 44.759 25.854 44.759h51.705z"/><path d="M204.06 857.389l25.854-44.759-25.854-44.759h-51.705l-25.854 44.759 25.854 44.759h51.705z" class="D"/><path d="M125.346 1084.51l25.854-44.76-25.854-44.762H73.641l-25.854 44.762 25.854 44.76h51.705zm-78.712-45.43l25.854-44.756-25.854-44.759H-5.072l-25.854 44.759 25.854 44.756h51.705zm78.713-45.421l25.854-44.76-25.854-44.759H73.642l-25.854 44.759 25.854 44.76h51.705z"/><path d="M597.627 1084.51l25.854-44.76-25.854-44.762h-51.705l-25.854 44.762 25.854 44.76h51.705z" class="D"/><use href="#Y"/><path d="M597.627 993.659l25.854-44.76-25.854-44.759h-51.705l-25.854 44.759 25.854 44.76h51.705zm-78.713-45.422l25.854-44.76-25.854-44.76h-51.705l-25.854 44.76 25.854 44.76h51.705z"/><use href="#Z"/><path d="M518.913 857.389l25.854-44.759-25.854-44.759h-51.705l-25.854 44.759 25.854 44.759h51.705zM440.2 1084.51l25.853-44.76-25.853-44.762h-51.706l-25.853 44.762 25.853 44.76H440.2zm-78.713-45.43l25.853-44.757-25.853-44.759h-51.706l-25.853 44.759 25.853 44.757h51.706zm78.713-45.421l25.854-44.759-25.854-44.759h-51.705L362.641 948.9l25.854 44.759H440.2zm0-181.694l25.853-44.759-25.853-44.759h-51.706l-25.853 44.759 25.853 44.759H440.2zm-78.714-45.425l25.854-44.76-25.854-44.759h-51.705l-25.854 44.759 25.854 44.76h51.705zm78.714-45.421l25.854-44.759-25.854-44.759h-51.705l-25.854 44.759 25.854 44.759H440.2zm-78.713-45.425l25.853-44.759-25.853-44.76h-51.706l-25.853 44.76 25.853 44.759h51.706zm-78.714-45.424l25.854-44.759-25.854-44.759h-51.705l-25.854 44.759 25.854 44.759h51.705zm78.714-45.42l25.854-44.76-25.854-44.759h-51.705l-25.854 44.759 25.854 44.76h51.705z"/><use href="#a"/><path d="M282.773 902.813l25.854-44.759-25.854-44.759h-51.705l-25.854 44.759 25.854 44.759h51.705zm78.714-45.424l25.853-44.759-25.853-44.759h-51.706l-25.853 44.759 25.853 44.759h51.706zm-78.714-45.424l25.854-44.759-25.854-44.76h-51.705l-25.854 44.76 25.854 44.759h51.705zM204.06 766.54l25.854-44.759-25.854-44.759h-51.705l-25.854 44.759 25.854 44.759h51.705zm78.713-45.421l25.854-44.759-25.854-44.759h-51.705l-25.854 44.759 25.854 44.759h51.705z"/></g></g><g opacity=".2"><mask id="B" maskUnits="userSpaceOnUse" x="761" y="-120" width="763" height="1275" mask-type="alpha"><path d="M1523.47-120v1275H761.736V-120h761.734z" fill="url(#D)"/></mask><g mask="url(#B)" class="B C"><use href="#b"/><path d="M1201.94 357.672l25.85-44.737-25.85-44.736h-51.71l-25.85 44.736 25.85 44.737h51.71z"/><use href="#c"/><path d="M1201.94 266.87l25.85-44.736-25.85-44.737h-51.71l-25.85 44.737 25.85 44.736h51.71z"/><use href="#d"/><path d="M1201.94 176.068l25.85-44.736-25.85-44.732h-51.71l-25.85 44.732 25.85 44.736h51.71zm0 363.207l25.85-44.736-25.85-44.737h-51.71l-25.85 44.737 25.85 44.736h51.71zm-78.72-45.4l25.86-44.737-25.86-44.736h-51.7l-25.86 44.736 25.86 44.737h51.7zm78.72-45.402l25.85-44.736-25.85-44.736h-51.71l-25.85 44.736 25.85 44.736h51.71zm-78.72-45.401l25.86-44.736-25.86-44.736h-51.7l-25.86 44.736 25.86 44.736h51.7zm-78.71-45.4l25.85-44.737-25.85-44.736h-51.706l-25.854 44.736 25.854 44.737h51.706zm78.71-45.401l25.86-44.736-25.86-44.737h-51.7l-25.86 44.737 25.86 44.736h51.7zm0-181.603l25.86-44.739-25.86-44.73h-51.7l-25.86 44.73 25.86 44.739h51.7zm-78.71-45.399l25.85-44.74-25.85-44.73h-51.706l-25.853 44.73 25.853 44.74h51.706z"/><use href="#e"/><path d="M1044.51 266.871l25.85-44.737-25.85-44.737h-51.705l-25.854 44.737 25.854 44.737h51.705z" class="D"/><use href="#f"/><path d="M1044.51 176.068l25.85-44.736-25.85-44.732h-51.706l-25.853 44.732 25.853 44.736h51.706zm-78.713-45.4l25.854-44.739-25.854-44.73h-51.705l-25.854 44.73 25.854 44.739h51.705zm-78.714-45.399l25.854-44.74-25.854-44.73h-51.705l-25.854 44.73 25.854 44.74h51.705zm78.713-45.401l25.853-44.74-25.853-44.73H914.09l-25.853 44.73 25.853 44.74h51.706z"/><use href="#g"/><path d="M1359.36 85.269l25.86-44.74-25.86-44.73h-51.7l-25.86 44.73 25.86 44.74h51.7z"/><use href="#h"/><path d="M1359.36 266.871l25.86-44.737-25.86-44.737h-51.7l-25.86 44.737 25.86 44.737h51.7zm-78.71-45.401l25.85-44.736-25.85-44.737h-51.71l-25.85 44.737 25.85 44.736h51.71zm78.71-45.402l25.86-44.736-25.86-44.732h-51.7l-25.86 44.732 25.86 44.736h51.7zm-78.71-45.4l25.85-44.739-25.85-44.73h-51.71l-25.85 44.73 25.85 44.739h51.71zm-78.71-45.399l25.85-44.74-25.85-44.73h-51.71l-25.85 44.73 25.85 44.74h51.71zm78.71-45.401l25.85-44.74-25.85-44.73h-51.71l-25.85 44.73 25.85 44.74h51.71z"/><use href="#i"/><use href="#j"/><path d="M1438.08 766.538l25.85-44.759-25.85-44.759h-51.71l-25.85 44.759 25.85 44.759h51.71zm78.71-45.426l25.85-44.759-25.85-44.759h-51.71l-25.85 44.759 25.85 44.759h51.71zm0 363.388l25.85-44.76-25.85-44.757h-51.71l-25.85 44.757 25.85 44.76h51.71zm-78.71-45.42l25.85-44.762-25.85-44.759h-51.71l-25.85 44.759 25.85 44.762h51.71z"/><use href="#k"/><path d="M1438.08 948.231l25.85-44.759-25.85-44.759h-51.71l-25.85 44.759 25.85 44.759h51.71z"/><use href="#l"/><path d="M1438.08 857.383l25.85-44.759-25.85-44.76h-51.71l-25.85 44.76 25.85 44.759h51.71zm0-181.694l25.85-44.759-25.85-44.759h-51.71l-25.85 44.759 25.85 44.759h51.71z"/><use href="#m"/><path d="M1438.08 584.841l25.85-44.759-25.85-44.759h-51.71l-25.85 44.759 25.85 44.759h51.71zm-78.72-45.422l25.86-44.759-25.86-44.759h-51.7l-25.86 44.759 25.86 44.759h51.7zm-78.71-45.422l25.85-44.759-25.85-44.759h-51.71l-25.85 44.759 25.85 44.759h51.71zm78.71-45.425l25.86-44.759-25.86-44.759h-51.7l-25.86 44.759 25.86 44.759h51.7zm0 363.387l25.86-44.759-25.86-44.759h-51.7L1281.8 767.2l25.86 44.759h51.7zm-78.71-45.42l25.85-44.76-25.85-44.759h-51.71l-25.85 44.759 25.85 44.76h51.71zm78.71-45.427l25.86-44.759-25.86-44.76h-51.7l-25.86 44.76 25.86 44.759h51.7zm-78.71-45.422l25.85-44.759-25.85-44.759h-51.71l-25.85 44.759 25.85 44.759h51.71zm-78.71-45.423l25.85-44.76-25.85-44.759h-51.71l-25.85 44.759 25.85 44.76h51.71z"/><path d="M1280.65 584.841l25.85-44.759-25.85-44.759h-51.71l-25.85 44.759 25.85 44.759h51.71z" class="D"/><path d="M1516.79 630.267l25.85-44.76-25.85-44.759h-51.71l-25.85 44.759 25.85 44.76h51.71zm0-272.543l25.85-44.759-25.85-44.759h-51.7l-25.86 44.759 25.86 44.759h51.7zm0-90.848l25.85-44.759-25.85-44.759h-51.71l-25.85 44.759 25.85 44.759h51.71z"/><path d="M1438.08 221.453l25.85-44.76-25.85-44.759h-51.71l-25.85 44.759 25.85 44.76h51.71z" class="D"/><path d="M1516.79 176.032l25.85-44.759-25.85-44.756h-51.71l-25.85 44.756 25.85 44.759h51.71zm0 363.387l25.85-44.759-25.85-44.759h-51.71l-25.85 44.759 25.85 44.759h51.71zm-78.71-45.422l25.85-44.76-25.85-44.759h-51.71l-25.85 44.759 25.85 44.76h51.71zm78.71-45.425l25.85-44.759-25.85-44.759h-51.71l-25.85 44.759 25.85 44.759h51.71zm-78.71-45.425l25.85-44.759-25.85-44.759h-51.71l-25.85 44.759 25.85 44.759h51.71zm-78.72-45.424l25.86-44.759-25.86-44.759h-51.7l-25.86 44.759 25.86 44.759h51.7zm78.72-45.42l25.85-44.759-25.85-44.76h-51.71l-25.85 44.76 25.85 44.759h51.71zM887.083 811.89l25.854-44.736-25.854-44.737h-51.705l-25.854 44.737 25.854 44.736h51.705zm-78.714-45.4l25.854-44.736-25.854-44.737h-51.705l-25.854 44.737 25.854 44.736h51.705zm78.714-45.403l25.854-44.736-25.854-44.736h-51.705l-25.854 44.736 25.854 44.736h51.705zm-78.714-45.4l25.854-44.736-25.854-44.736h-51.705l-25.854 44.736 25.854 44.736h51.705zm0-90.801l25.854-44.736-25.854-44.738h-51.705L730.81 540.15l25.854 44.736h51.705zm0 363.205l25.854-44.736-25.854-44.736h-51.705l-25.854 44.736 25.854 44.736h51.705zm.001-90.8l25.854-44.737-25.854-44.736h-51.705l-25.854 44.736 25.854 44.737h51.705zm236.14-317.806l25.85-44.736-25.85-44.737h-51.706l-25.853 44.737 25.853 44.736h51.706zm-78.714-45.401l25.854-44.736-25.854-44.736h-51.705l-25.854 44.736 25.854 44.736h51.705zm78.714-45.4l25.85-44.737-25.85-44.736h-51.706l-25.853 44.736 25.853 44.737h51.706zm-78.714-45.4l25.854-44.737-25.854-44.736h-51.705l-25.854 44.736 25.854 44.737h51.705zm-78.713-45.4l25.854-44.736-25.854-44.738h-51.705l-25.854 44.738 25.854 44.736h51.705zm78.713-45.402l25.854-44.736-25.854-44.737h-51.705l-25.854 44.737 25.854 44.736h51.705zm0 363.205l25.853-44.736-25.853-44.736H914.09l-25.853 44.736 25.853 44.736h51.706zm-78.713-45.399l25.854-44.738-25.854-44.736h-51.705l-25.854 44.736 25.854 44.738h51.705zm78.713-45.402l25.854-44.736-25.854-44.737h-51.705l-25.854 44.737 25.854 44.736h51.705zm-78.714-45.4l25.854-44.736-25.854-44.738-51.705.001-25.854 44.737 25.854 44.736h51.705zm-78.713-45.401l25.854-44.736-25.854-44.736h-51.705l-25.854 44.736 25.854 44.736h51.705zm78.714-45.402l25.854-44.736-25.854-44.736h-51.705l-25.854 44.736 25.854 44.736h51.705zm0-181.601l25.854-44.737-25.854-44.736h-51.705l-25.854 44.736 25.854 44.737h51.705zm-78.714-45.402l25.854-44.736-25.854-44.736h-51.705l-25.854 44.736 25.854 44.736h51.705zm78.714-45.4l25.854-44.737-25.854-44.733h-51.705l-25.854 44.733 25.854 44.737h51.705zm-78.714-45.401l25.854-44.74-25.854-44.73h-51.705l-25.854 44.73 25.854 44.74h51.705zm0-90.801l25.854-44.74-25.854-44.73h-51.705L730.81-4.663l25.854 44.74h51.705zm0 363.206l25.854-44.737-25.854-44.737h-51.705l-25.854 44.737 25.854 44.737h51.705zm0-90.803l25.854-44.736-25.854-44.737h-51.705l-25.854 44.737 25.854 44.736h51.705zm236.141 772.029l25.85-44.76-25.85-44.762h-51.706l-25.853 44.762 25.853 44.76h51.706zm-78.714-45.43l25.854-44.757-25.854-44.759h-51.705l-25.854 44.759 25.854 44.757h51.705zm78.714-45.421l25.85-44.76-25.85-44.759h-51.706l-25.854 44.759 25.854 44.76h51.706zm-78.713-45.421l25.853-44.76-25.853-44.76h-51.706l-25.853 44.76 25.853 44.76h51.706zm-78.714-45.425l25.854-44.759-25.854-44.759h-51.705l-25.854 44.759 25.854 44.759h51.705z"/><path d="M965.796 857.389l25.854-44.759-25.854-44.759h-51.705l-25.854 44.759 25.854 44.759h51.705z" class="D"/><path d="M887.083 1084.51l25.854-44.76-25.854-44.761h-51.705l-25.854 44.761 25.854 44.76h51.705zm-78.713-45.43l25.854-44.756-25.854-44.759h-51.705l-25.854 44.759 25.854 44.756h51.705zm78.713-45.421l25.854-44.759-25.854-44.759h-51.705L809.524 948.9l25.854 44.759h51.705z"/><path d="M1359.36 1084.51l25.86-44.76-25.86-44.762h-51.7l-25.86 44.762 25.86 44.76h51.7z" class="D"/><path d="M1280.65 1039.08l25.85-44.756-25.85-44.759h-51.71l-25.85 44.759 25.85 44.756h51.71zm78.71-45.421l25.86-44.759-25.86-44.759h-51.7L1281.8 948.9l25.86 44.759h51.7zm-78.71-45.422l25.85-44.76-25.85-44.759h-51.71l-25.85 44.759 25.85 44.76h51.71zm-78.71-45.424l25.85-44.759-25.85-44.759h-51.71l-25.85 44.759 25.85 44.759h51.71zm78.71-45.424l25.85-44.759-25.85-44.759h-51.71l-25.85 44.759 25.85 44.759h51.71zm-78.71 227.121l25.85-44.76-25.85-44.762h-51.71l-25.85 44.762 25.85 44.76h51.71zm-78.72-45.43l25.86-44.757-25.86-44.759h-51.7l-25.86 44.759 25.86 44.757h51.7zm78.72-45.421l25.85-44.759-25.85-44.759h-51.71l-25.85 44.759 25.85 44.759h51.71zm0-181.694l25.85-44.759-25.85-44.759h-51.71l-25.85 44.759 25.85 44.759h51.71zm-78.72-45.425l25.86-44.759-25.86-44.759h-51.7l-25.86 44.759 25.86 44.759h51.7zm78.72-45.42l25.85-44.76-25.85-44.759h-51.71l-25.85 44.759 25.85 44.76h51.71zm-78.72-45.426l25.86-44.759-25.86-44.759h-51.7l-25.86 44.759 25.86 44.759h51.7z"/><use href="#n"/><path d="M1123.22 584.85l25.86-44.76-25.86-44.759h-51.7l-25.86 44.759 25.86 44.76h51.7zm0 363.387l25.86-44.76-25.86-44.76h-51.7l-25.86 44.76 25.86 44.76h51.7z"/><use href="#o"/><path d="M1123.22 857.39l25.86-44.76-25.86-44.759h-51.7l-25.86 44.759 25.86 44.76h51.7zm-78.71-45.425l25.85-44.759-25.85-44.759h-51.706l-25.853 44.759 25.853 44.759h51.706zm-78.714-45.424l25.854-44.76-25.854-44.759h-51.705l-25.854 44.759 25.854 44.76h51.705zm78.714-45.421l25.85-44.76-25.85-44.759h-51.706l-25.853 44.759 25.853 44.76h51.706z"/></g></g></g><defs><radialGradient id="C" cx="0" cy="0" r="1" gradientUnits="userSpaceOnUse" gradientTransform="translate(380.868 517.5) rotate(180) scale(469.525 785.894)"><stop stop-color="#d9d9d9" stop-opacity=".16"/><stop offset=".802" stop-color="#d9d9d9" stop-opacity="0"/></radialGradient><radialGradient id="D" cx="0" cy="0" r="1" gradientUnits="userSpaceOnUse" gradientTransform="translate(1142.6 517.5) rotate(180) scale(469.525 785.894)"><stop stop-color="#d9d9d9" stop-opacity=".16"/><stop offset=".802" stop-color="#d9d9d9" stop-opacity="0"/></radialGradient><clipPath id="E"><path d="M0 0h1440v1035H0z" class="D"/></clipPath><path id="F" d="M518.913 403.072l25.854-44.736-25.854-44.737h-51.705l-25.854 44.737 25.854 44.736h51.705z"/><path id="G" d="M361.487 221.47l25.853-44.736-25.853-44.737h-51.706l-25.853 44.737 25.853 44.736h51.706z"/><path id="H" d="M361.487 493.875l25.854-44.737-25.854-44.736h-51.705l-25.854 44.736 25.854 44.737h51.705z"/><path id="I" d="M282.773 85.269l25.854-44.74-25.854-44.73h-51.705l-25.854 44.73 25.854 44.74h51.705z"/><path id="J" d="M204.061 130.668l25.854-44.739-25.854-44.73h-51.705l-25.854 44.73 25.854 44.739h51.705z"/><path id="K" d="M755.054 902.806l25.854-44.759-25.854-44.759h-51.705l-25.854 44.759 25.854 44.759h51.705z"/><path id="L" d="M676.341 766.538l25.853-44.759-25.853-44.759h-51.706l-25.853 44.759 25.853 44.759h51.706z"/><path id="M" d="M755.054 721.112l25.854-44.759-25.854-44.76h-51.705l-25.854 44.76 25.854 44.759h51.705z"/><path id="N" d="M676.341 857.383l25.853-44.759-25.853-44.76h-51.706l-25.853 44.76 25.853 44.759h51.706z"/><path id="O" d="M597.627 630.267l25.854-44.76-25.854-44.759h-51.705l-25.854 44.759 25.854 44.76h51.705z"/><path id="P" d="M755.055 357.724l25.853-44.76-25.853-44.759h-51.706l-25.853 44.759 25.853 44.76h51.706z"/><path id="Q" d="M676.341 221.453l25.853-44.76-25.853-44.759h-51.706l-25.854 44.759 25.854 44.76h51.706z"/><path id="R" d="M125.346 721.087l25.854-44.736-25.854-44.736H73.641l-25.854 44.736 25.854 44.736h51.705z"/><path id="S" d="M46.633 675.687l25.854-44.736-25.854-44.736H-5.072l-25.854 44.736 25.854 44.736h51.705z"/><path id="T" d="M204.06 494.084l25.854-44.736-25.854-44.736h-51.705l-25.854 44.736 25.854 44.736h51.705z"/><path id="U" d="M204.06 403.284l25.854-44.737-25.854-44.737h-51.705l-25.854 44.737 25.854 44.737h51.705z"/><path id="V" d="M46.633 221.68l25.854-44.736-25.854-44.737H-5.072l-25.854 44.737 25.854 44.736h51.705z"/><path id="W" d="M282.773 1084.51l25.854-44.76-25.854-44.762h-51.705l-25.854 44.762 25.854 44.76h51.705z"/><path id="X" d="M204.06 1039.08l25.854-44.757-25.854-44.759h-51.705l-25.854 44.759 25.854 44.757h51.705z"/><path id="Y" d="M518.913 1039.08l25.854-44.756-25.854-44.759h-51.705l-25.854 44.759 25.854 44.756h51.705z"/><path id="Z" d="M440.2 902.813l25.854-44.759-25.854-44.759h-51.705l-25.854 44.759 25.854 44.759H440.2z"/><path id="a" d="M361.487 948.237l25.853-44.76-25.853-44.76h-51.706l-25.853 44.76 25.853 44.76h51.706z"/><path id="b" d="M1280.65 403.072l25.85-44.736-25.85-44.736h-51.71l-25.85 44.736 25.85 44.736h51.71z"/><path id="c" d="M1280.65 312.271l25.85-44.736-25.85-44.737h-51.71l-25.85 44.737 25.85 44.736h51.71z"/><path id="d" d="M1123.22 221.47l25.86-44.736-25.86-44.737h-51.7l-25.86 44.737 25.86 44.736h51.7z"/><path id="e" d="M1123.22 39.868l25.86-44.74-25.86-44.73h-51.7l-25.86 44.73 25.86 44.74h51.7z"/><path id="f" d="M965.796 221.469l25.853-44.736-25.853-44.736H914.09l-25.853 44.736 25.853 44.736h51.706z"/><path id="g" d="M1438.08 130.669l25.85-44.739-25.85-44.73h-51.71l-25.85 44.73 25.85 44.739h51.71z"/><path id="h" d="M1438.08 39.868l25.85-44.74-25.85-44.73h-51.71l-25.85 44.73 25.85 44.74h51.71z"/><path id="i" d="M1516.79 902.807l25.85-44.76-25.85-44.759h-51.71l-25.85 44.759 25.85 44.76h51.71z"/><path id="j" d="M1516.79 811.959l25.85-44.759-25.85-44.759h-51.71l-25.85 44.759 25.85 44.759h51.71z"/><path id="k" d="M1516.79 993.654l25.85-44.759-25.85-44.76h-51.71l-25.85 44.76 25.85 44.759h51.71z"/><path id="l" d="M1359.36 902.807l25.86-44.759-25.86-44.759h-51.7l-25.86 44.759 25.86 44.759h51.7z"/><path id="m" d="M1359.36 630.267l25.86-44.76-25.86-44.759h-51.7l-25.86 44.759 25.86 44.76h51.7z"/><path id="n" d="M1044.51 630.271l25.85-44.76-25.85-44.759h-51.706l-25.853 44.759 25.853 44.76h51.706z"/><path id="o" d="M1044.51 902.813l25.85-44.759-25.85-44.759h-51.706l-25.853 44.759 25.853 44.759h51.706z"/></defs></svg>