<svg width="96" height="13" viewBox="0 0 96 13" fill="none" xmlns="http://www.w3.org/2000/svg">
<mask id="path-1-inside-1_2163_134" fill="white">
<path d="M15.3818 6.47656L11.5361 12.9531H3.8457L0 6.47656L3.8457 0H11.5361L15.3818 6.47656Z"/>
</mask>
<path d="M15.3818 6.47656L16.8698 7.36008L17.3944 6.47656L16.8698 5.59304L15.3818 6.47656ZM11.5361 12.9531V14.6836H12.5212L13.0241 13.8366L11.5361 12.9531ZM3.8457 12.9531L2.35776 13.8366L2.86068 14.6836H3.8457V12.9531ZM0 6.47656L-1.48794 5.59304L-2.01256 6.47656L-1.48794 7.36008L0 6.47656ZM3.8457 0V-1.73048H2.86068L2.35776 -0.88352L3.8457 0ZM11.5361 0L13.0241 -0.88352L12.5212 -1.73048H11.5361V0ZM15.3818 6.47656L13.8939 5.59304L10.0482 12.0696L11.5361 12.9531L13.0241 13.8366L16.8698 7.36008L15.3818 6.47656ZM11.5361 12.9531V11.2226H3.8457V12.9531V14.6836H11.5361V12.9531ZM3.8457 12.9531L5.33364 12.0696L1.48794 5.59304L0 6.47656L-1.48794 7.36008L2.35776 13.8366L3.8457 12.9531ZM0 6.47656L1.48794 7.36008L5.33364 0.88352L3.8457 0L2.35776 -0.88352L-1.48794 5.59304L0 6.47656ZM3.8457 0V1.73048H11.5361V0V-1.73048H3.8457V0ZM11.5361 0L10.0482 0.88352L13.8939 7.36008L15.3818 6.47656L16.8698 5.59304L13.0241 -0.88352L11.5361 0Z" fill="white" fill-opacity="0.75" mask="url(#path-1-inside-1_2163_134)"/>
<path d="M26.0202 12.7712C24.7455 12.7712 23.6514 12.4948 22.7377 11.9421C21.8353 11.3781 21.1528 10.6167 20.6903 9.65785C20.2278 8.69904 19.9966 7.6387 19.9966 6.47684C19.9966 5.31498 20.2278 4.25464 20.6903 3.29583C21.1528 2.33701 21.8353 1.58124 22.7377 1.02851C23.6514 0.4645 24.7455 0.182495 26.0202 0.182495C27.0016 0.182495 27.8702 0.374259 28.6259 0.757785C29.393 1.14131 30.0078 1.67148 30.4702 2.34829C30.944 3.0251 31.2486 3.79216 31.3839 4.64945H29.0828C28.9813 4.1644 28.7895 3.74139 28.5075 3.38043C28.2368 3.00818 27.8871 2.72054 27.4584 2.51749C27.0298 2.31445 26.5504 2.21293 26.0202 2.21293C25.1968 2.21293 24.5087 2.40469 23.9559 2.78822C23.4145 3.16047 23.014 3.66807 22.7546 4.31104C22.4951 4.95401 22.3654 5.67595 22.3654 6.47684C22.3654 7.27773 22.4951 7.99967 22.7546 8.64264C23.014 9.28561 23.4145 9.79886 23.9559 10.1824C24.5087 10.5546 25.1968 10.7408 26.0202 10.7408C26.5955 10.7408 27.0975 10.6223 27.5261 10.3854C27.966 10.1485 28.3214 9.82706 28.5921 9.42097C28.8741 9.0036 29.0602 8.52419 29.1505 7.98274H31.4347C31.3219 8.89644 31.0342 9.71989 30.5718 10.4531C30.1206 11.175 29.5001 11.7447 28.7105 12.1621C27.9322 12.5681 27.0354 12.7712 26.0202 12.7712Z" fill="white"/>
<path d="M36.9716 12.7712C36.0579 12.7712 35.2626 12.5738 34.5858 12.179C33.909 11.7842 33.3958 11.2371 33.0461 10.5377C32.6964 9.83834 32.5216 9.04872 32.5216 8.16887C32.5216 7.28901 32.6964 6.4994 33.0461 5.80003C33.3958 5.10066 33.909 4.55357 34.5858 4.15876C35.2626 3.76396 36.0579 3.56655 36.9716 3.56655C37.8853 3.56655 38.6805 3.76396 39.3574 4.15876C40.0342 4.55357 40.5474 5.10066 40.8971 5.80003C41.2468 6.4994 41.4216 7.28901 41.4216 8.16887C41.4216 9.04872 41.2468 9.83834 40.8971 10.5377C40.5474 11.2371 40.0342 11.7842 39.3574 12.179C38.6805 12.5738 37.8853 12.7712 36.9716 12.7712ZM36.9716 10.9946C37.4792 10.9946 37.9022 10.8818 38.2406 10.6561C38.5903 10.4193 38.8441 10.0921 39.002 9.67477C39.1712 9.24613 39.2558 8.74416 39.2558 8.16887C39.2558 7.59358 39.1712 7.09725 39.002 6.67988C38.8441 6.25124 38.5903 5.92411 38.2406 5.69851C37.9022 5.46162 37.4792 5.34318 36.9716 5.34318C36.4527 5.34318 36.0241 5.46162 35.6857 5.69851C35.3472 5.92411 35.0934 6.25124 34.9242 6.67988C34.7663 7.09725 34.6874 7.59358 34.6874 8.16887C34.6874 8.74416 34.7663 9.24613 34.9242 9.67477C35.0934 10.0921 35.3472 10.4193 35.6857 10.6561C36.0241 10.8818 36.4527 10.9946 36.9716 10.9946Z" fill="white"/>
<path d="M46.2074 12.5681C45.666 12.5681 45.2204 12.5061 44.8707 12.382C44.521 12.2467 44.2503 12.0154 44.0586 11.6883C43.8668 11.3499 43.7709 10.893 43.7709 10.3177V5.41086H42.2312V3.76959H43.7709V1.06235H45.8859V3.76959H48.1194V5.41086H45.8859V10.0978C45.8859 10.3911 45.948 10.6054 46.0721 10.7408C46.2074 10.8648 46.4274 10.9269 46.732 10.9269H48.1194V12.5681H46.2074Z" fill="white"/>
<path d="M52.2082 12.7712C51.2381 12.7712 50.4598 12.5399 49.8732 12.0775C49.2866 11.615 48.9933 10.9607 48.9933 10.1147C48.9933 9.59581 49.1174 9.16152 49.3656 8.81184C49.6137 8.45087 49.9803 8.15759 50.4654 7.93198C50.9617 7.70638 51.599 7.5259 52.3774 7.39054L54.9323 6.93369V6.42608C54.9323 6.01999 54.8026 5.71543 54.5432 5.51238C54.295 5.30934 53.8889 5.20782 53.3249 5.20782C52.7947 5.20782 52.3605 5.32062 52.0221 5.54622C51.6949 5.77183 51.5201 6.11587 51.4975 6.57836H49.3994C49.4107 5.58571 49.7773 4.83557 50.4992 4.32796C51.2324 3.82036 52.1687 3.56655 53.308 3.56655C54.5375 3.56655 55.4625 3.7978 56.0829 4.26028C56.7033 4.72277 57.0135 5.36574 57.0135 6.1892V12.5681H55V11.5698C54.6391 11.9985 54.2273 12.3087 53.7648 12.5005C53.3136 12.6809 52.7948 12.7712 52.2082 12.7712ZM52.6819 11.1976C53.0768 11.1976 53.4434 11.1243 53.7818 10.9776C54.1202 10.831 54.3965 10.6054 54.6109 10.3008C54.8252 9.99626 54.9323 9.61273 54.9323 9.15025V8.37191L52.7666 8.81184C52.2025 8.92464 51.7965 9.06564 51.5483 9.23485C51.3001 9.40405 51.176 9.67477 51.176 10.047C51.176 10.408 51.3001 10.69 51.5483 10.893C51.8077 11.0961 52.1856 11.1976 52.6819 11.1976Z" fill="white"/>
<path d="M58.7401 0.385539H61.0074V12.5681H58.7401V0.385539Z" fill="white"/>
<path d="M62.967 3.76959H65.0312V4.98786C65.3471 4.54793 65.7363 4.20388 66.1987 3.95572C66.6725 3.69627 67.2083 3.56655 67.8062 3.56655C68.483 3.56655 69.0526 3.70755 69.5151 3.98956C69.9889 4.27156 70.3442 4.67765 70.5811 5.20782C70.818 5.72671 70.9364 6.3302 70.9364 7.01829V12.5681H68.8214V7.27209C68.8214 6.6968 68.6804 6.2456 68.3984 5.91847C68.1277 5.59135 67.7047 5.42778 67.1294 5.42778C66.8135 5.42778 66.5033 5.49546 66.1987 5.63083C65.8942 5.76619 65.6347 6.00871 65.4204 6.3584C65.2061 6.70808 65.0989 7.16493 65.0989 7.72894V12.5681H62.967V3.76959Z" fill="white"/>
<path d="M77.9601 12.4159C77.4976 12.6527 76.9561 12.7712 76.3357 12.7712C75.501 12.7712 74.7847 12.5738 74.1868 12.179C73.6003 11.7842 73.1547 11.2427 72.8501 10.5546C72.5456 9.85526 72.3933 9.06 72.3933 8.16887C72.3933 7.27773 72.5456 6.48812 72.8501 5.80003C73.1547 5.10066 73.6003 4.55357 74.1868 4.15876C74.7847 3.76396 75.501 3.56655 76.3357 3.56655C76.9336 3.56655 77.4581 3.67935 77.9093 3.90496C78.3718 4.13056 78.7497 4.45205 79.043 4.86941V0.385539H81.1749V12.5681H79.1276V11.3668C78.8117 11.818 78.4226 12.1677 77.9601 12.4159ZM75.5574 10.6561C75.8958 10.8818 76.3188 10.9946 76.8264 10.9946C77.334 10.9946 77.7514 10.8818 78.0785 10.6561C78.4169 10.4193 78.6651 10.0921 78.823 9.67477C78.9922 9.24613 79.0768 8.74416 79.0768 8.16887C79.0768 7.59358 78.9922 7.09725 78.823 6.67988C78.6651 6.25124 78.4169 5.92411 78.0785 5.69851C77.7514 5.46162 77.334 5.34318 76.8264 5.34318C76.3188 5.34318 75.8958 5.46162 75.5574 5.69851C75.2303 5.92411 74.9821 6.25124 74.8129 6.67988C74.6437 7.09725 74.5591 7.59358 74.5591 8.16887C74.5591 8.74416 74.6437 9.24613 74.8129 9.67477C74.9821 10.0921 75.2303 10.4193 75.5574 10.6561Z" fill="white"/>
<path d="M82.9933 3.76959H85.1084V12.5681H82.9933V3.76959ZM82.9933 0.385539H85.1253V2.36521H82.9933V0.385539Z" fill="white"/>
<path d="M90.9026 12.7712C90.0115 12.7712 89.2332 12.5738 88.5676 12.179C87.9134 11.7842 87.4114 11.2371 87.0617 10.5377C86.7233 9.83834 86.5541 9.04872 86.5541 8.16887C86.5541 7.28901 86.7233 6.4994 87.0617 5.80003C87.4114 5.10066 87.9134 4.55357 88.5676 4.15876C89.2332 3.76396 90.0115 3.56655 90.9026 3.56655C91.7938 3.56655 92.5665 3.76396 93.2207 4.15876C93.875 4.55357 94.3769 5.11194 94.7266 5.83387C95.0763 6.54452 95.2511 7.37926 95.2511 8.33807V8.84568H88.6692C88.7256 9.30817 88.8496 9.70861 89.0414 10.047C89.2332 10.3741 89.487 10.6336 89.8028 10.8254C90.1187 11.0058 90.4853 11.0961 90.9026 11.0961C91.4102 11.0961 91.8389 10.9889 92.1886 10.7746C92.5383 10.5603 92.809 10.2613 93.0007 9.87782H95.0819C94.7887 10.769 94.2754 11.474 93.5422 11.9929C92.8203 12.5117 91.9404 12.7712 90.9026 12.7712ZM93.1023 7.32285C92.9895 6.67988 92.7413 6.17228 92.3578 5.80003C91.9855 5.42778 91.5005 5.24166 90.9026 5.24166C90.2935 5.24166 89.8028 5.42778 89.4306 5.80003C89.0583 6.17228 88.8158 6.67988 88.703 7.32285H93.1023Z" fill="white"/>
</svg>
