<svg width="155" height="19" viewBox="0 0 155 19" fill="none" xmlns="http://www.w3.org/2000/svg">
<path d="M7.52554 11.5568L8.11335 15.7527H1.79653L2.38433 11.5568C0.952076 10.7043 0 9.165 0 7.40221C0 4.72078 2.21875 2.54419 4.9508 2.54419C7.68284 2.54419 9.90159 4.72078 9.90159 7.40221C9.90159 9.165 8.94124 10.7043 7.51726 11.5568H7.52554Z" fill="white"/>
<path d="M23.5379 14.8928C22.4796 14.8928 21.5594 14.7088 20.7772 14.3293C19.9949 13.9499 19.3507 13.4669 18.8446 12.8574C18.3385 12.248 17.9473 11.5925 17.7058 10.8911C17.4527 10.1896 17.3262 9.51114 17.3262 8.85569V8.49921C17.3262 7.78626 17.4527 7.0618 17.7173 6.34885C17.9704 5.6359 18.3615 4.99194 18.8791 4.40548C19.3968 3.83052 20.0525 3.35905 20.8232 3.01408C21.5939 2.6691 22.5027 2.48511 23.5494 2.48511C24.5962 2.48511 25.482 2.6576 26.2527 3.01408C27.0234 3.35905 27.6676 3.83052 28.1968 4.40548C28.7144 4.98044 29.1055 5.6359 29.3701 6.34885C29.6232 7.0618 29.7612 7.77476 29.7612 8.49921V8.85569C29.7612 9.51114 29.6347 10.1896 29.3816 10.8911C29.1285 11.5925 28.7489 12.248 28.2428 12.8574C27.7366 13.4669 27.0925 13.9499 26.3102 14.3293C25.528 14.7088 24.6193 14.8928 23.561 14.8928H23.5379ZM23.5379 12.7654C24.1361 12.7654 24.6768 12.6619 25.1599 12.4434C25.643 12.225 26.0457 11.926 26.3793 11.5465C26.7129 11.167 26.9774 10.7301 27.15 10.2471C27.3225 9.76413 27.4146 9.23516 27.4146 8.6947C27.4146 8.10824 27.3225 7.56777 27.15 7.07331C26.9774 6.57884 26.7129 6.15337 26.3793 5.78539C26.0457 5.41742 25.6315 5.14143 25.1484 4.93445C24.6653 4.72746 24.1246 4.62397 23.5379 4.62397C22.9513 4.62397 22.3991 4.72746 21.916 4.93445C21.4328 5.14143 21.0187 5.41742 20.6851 5.78539C20.3515 6.15337 20.087 6.57884 19.9144 7.07331C19.7419 7.56777 19.6498 8.10824 19.6498 8.6947C19.6498 9.24666 19.7419 9.76413 19.9144 10.2471C20.087 10.7301 20.3515 11.167 20.6851 11.5465C21.0187 11.926 21.4328 12.225 21.916 12.4434C22.3991 12.6619 22.9398 12.7654 23.5379 12.7654ZM25.7926 18.0436C25.1139 18.0436 24.5272 17.9631 24.0326 17.7906C23.5379 17.6181 23.1468 17.3191 22.8593 16.8937C22.5832 16.4567 22.4451 15.8472 22.4451 15.0538V13.3749H24.5732V15.1918C24.5732 15.5252 24.6653 15.7782 24.8608 15.9507C25.0449 16.1232 25.2979 16.2152 25.6315 16.2152H27.4721V18.0321H25.8156L25.7926 18.0436Z" fill="white"/>
<path d="M34.5807 14.8576C33.5684 14.8576 32.7862 14.5241 32.234 13.8572C31.6818 13.1902 31.4058 12.2013 31.4058 10.8904V5.81921H33.6489V11.0859C33.6489 11.6263 33.7984 12.0518 34.0975 12.3623C34.3966 12.6843 34.8107 12.8337 35.3169 12.8337C35.823 12.8337 36.2486 12.6728 36.5822 12.3393C36.9043 12.0058 37.0769 11.5573 37.0769 10.9824V5.81921H39.32V14.5816H37.5485V10.8674H37.7211C37.7211 11.7528 37.606 12.4773 37.3875 13.0752C37.1689 13.6732 36.8238 14.1102 36.3752 14.4091C35.9266 14.7081 35.3629 14.8576 34.6842 14.8576H34.5922H34.5807Z" fill="white"/>
<path d="M44.1637 14.8117C43.531 14.8117 42.9788 14.6967 42.4957 14.4783C42.0126 14.2483 41.6445 13.9263 41.3799 13.5123C41.1153 13.0984 40.9888 12.5924 40.9888 11.9944C40.9888 11.3505 41.1498 10.8215 41.4604 10.419C41.7825 10.0166 42.2196 9.70608 42.7948 9.49909C43.3699 9.29211 44.0371 9.18861 44.8194 9.18861H46.8439V10.5225H44.7849C44.2672 10.5225 43.8761 10.649 43.6 10.902C43.3239 11.155 43.1859 11.477 43.1859 11.8794C43.1859 12.2819 43.3239 12.6039 43.6 12.8454C43.8761 13.0869 44.2672 13.2133 44.7849 13.2133C45.0954 13.2133 45.383 13.1558 45.6476 13.0409C45.9122 12.9259 46.1307 12.7304 46.3033 12.4659C46.4758 12.1899 46.5794 11.8219 46.6024 11.3505L47.1545 11.9829C47.097 12.5924 46.959 13.1099 46.7174 13.5238C46.4758 13.9378 46.1422 14.2598 45.7166 14.4783C45.291 14.6967 44.7733 14.8117 44.1637 14.8117ZM46.982 14.5818V11.9944H46.6139V9.10812C46.6139 8.60215 46.4873 8.22268 46.2458 7.98119C46.0042 7.73971 45.6131 7.61322 45.1069 7.61322C44.8424 7.61322 44.5203 7.61322 44.1407 7.62472C43.7611 7.62472 43.3815 7.64771 43.0018 7.65921C42.6222 7.67071 42.2771 7.69371 41.9781 7.71671V5.81934C42.2196 5.79634 42.5072 5.77334 42.8178 5.75034C43.1284 5.72734 43.4505 5.71584 43.7726 5.70435C44.0947 5.70435 44.4052 5.70435 44.6928 5.70435C45.5901 5.70435 46.3493 5.81934 46.936 6.06082C47.5341 6.3023 47.9828 6.67028 48.2934 7.17625C48.6039 7.68221 48.7535 8.33767 48.7535 9.15412V14.5818H46.982Z" fill="white"/>
<path d="M50.4219 14.5818V5.84241H52.1934V9.54517H52.1474C52.1474 8.29175 52.4119 7.33731 52.9526 6.69335C53.4932 6.0494 54.2755 5.72742 55.3223 5.72742H55.6444V7.67079H55.0347C54.287 7.67079 53.7003 7.86628 53.2862 8.26875C52.8721 8.67122 52.665 9.25769 52.665 10.0166V14.5703H50.4219V14.5818Z" fill="white"/>
<path d="M57.3003 7.48682V5.84243H63.4891V7.48682H57.3003ZM62.2352 14.6968C61.43 14.6968 60.7628 14.5933 60.2451 14.3864C59.7275 14.1794 59.3364 13.8229 59.0833 13.3284C58.8302 12.834 58.6922 12.1555 58.6922 11.3046V3.38159H60.7973V11.4426C60.7858 11.868 60.9008 12.2015 61.1309 12.4315C61.361 12.6615 61.6945 12.7765 62.1202 12.7765H63.4891V14.6968H62.2352Z" fill="white"/>
<path d="M69.9418 14.8923C69.1711 14.8923 68.4924 14.7658 67.8942 14.5244C67.3076 14.2829 66.8014 13.9379 66.3988 13.5124C65.9962 13.087 65.6856 12.604 65.4786 12.075C65.2715 11.5346 65.168 10.9826 65.168 10.3961V10.0627C65.168 9.4647 65.283 8.88974 65.5016 8.34927C65.7201 7.80881 66.0422 7.32584 66.4563 6.90037C66.8705 6.4749 67.3766 6.14142 67.9633 5.89994C68.5499 5.65845 69.2171 5.54346 69.9648 5.54346C70.7126 5.54346 71.3682 5.65845 71.9664 5.89994C72.5531 6.14142 73.0592 6.4749 73.4733 6.90037C73.8875 7.32584 74.198 7.80881 74.4166 8.34927C74.6352 8.88974 74.7387 9.4647 74.7387 10.0627V10.3961C74.7387 10.9711 74.6352 11.5346 74.4281 12.075C74.2211 12.6155 73.9105 13.087 73.5079 13.5124C73.0937 13.9379 72.5991 14.2714 72.0124 14.5244C71.4258 14.7658 70.7471 14.8923 69.9878 14.8923H69.9418ZM69.9418 12.972C70.494 12.972 70.9541 12.857 71.3222 12.6155C71.6903 12.374 71.9779 12.052 72.1735 11.6381C72.369 11.2241 72.4611 10.7526 72.4611 10.2236C72.4611 9.69468 72.3575 9.21172 72.162 8.79774C71.9664 8.38377 71.6788 8.06179 71.2877 7.82031C70.9081 7.57883 70.448 7.46383 69.9303 7.46383C69.4127 7.46383 68.9525 7.57883 68.5729 7.82031C68.1933 8.06179 67.8942 8.39527 67.6987 8.79774C67.4916 9.21172 67.3881 9.68318 67.3881 10.2236C67.3881 10.7641 67.4916 11.2241 67.6872 11.6381C67.8827 12.052 68.1703 12.374 68.5499 12.6155C68.9295 12.857 69.3897 12.972 69.9303 12.972H69.9418Z" fill="white"/>
<path d="M106.027 14.6966V2.94434H108.316V14.6966H106.027Z" fill="white"/>
<path d="M114.735 14.984C114.125 14.984 113.561 14.869 113.044 14.6506C112.526 14.4321 112.077 14.1101 111.709 13.6961C111.33 13.2936 111.042 12.8107 110.835 12.2702C110.628 11.7297 110.524 11.1433 110.524 10.5108V10.1774C110.524 9.55639 110.628 8.96993 110.823 8.41797C111.019 7.86601 111.307 7.39454 111.663 6.98057C112.02 6.57809 112.457 6.25611 112.963 6.02613C113.469 5.79614 114.044 5.68115 114.666 5.68115C115.356 5.68115 115.954 5.83064 116.483 6.11812C117.001 6.4171 117.415 6.85407 117.725 7.45203C118.036 8.0385 118.209 8.78595 118.243 9.67139L117.587 8.90094V2.94434H119.831V14.6966H118.059V10.9823H118.45C118.416 11.8677 118.232 12.6152 117.898 13.2132C117.564 13.8111 117.127 14.2596 116.587 14.5471C116.046 14.846 115.425 14.984 114.746 14.984H114.735ZM115.241 13.0982C115.678 13.0982 116.081 12.9947 116.449 12.7992C116.817 12.6037 117.104 12.3162 117.323 11.9252C117.541 11.5458 117.656 11.0973 117.656 10.5798V9.93587C117.656 9.4184 117.541 8.99293 117.323 8.63645C117.104 8.27998 116.805 8.0155 116.437 7.83151C116.069 7.64752 115.678 7.54403 115.241 7.54403C114.758 7.54403 114.332 7.65902 113.964 7.88901C113.596 8.11899 113.308 8.44097 113.09 8.86644C112.883 9.28041 112.779 9.77488 112.779 10.3268C112.779 10.8788 112.883 11.3733 113.101 11.7872C113.32 12.2012 113.607 12.5232 113.975 12.7417C114.344 12.9717 114.769 13.0752 115.241 13.0752V13.0982Z" fill="white"/>
<path d="M126.319 15.0072C125.571 15.0072 124.916 14.8807 124.352 14.6163C123.788 14.3633 123.317 14.0068 122.949 13.5813C122.581 13.1559 122.293 12.6614 122.109 12.1209C121.925 11.5805 121.821 11.04 121.821 10.4765V10.1661C121.821 9.59109 121.913 9.02763 122.109 8.48716C122.304 7.9467 122.581 7.46373 122.949 7.03826C123.317 6.61279 123.777 6.27931 124.329 6.02632C124.881 5.77334 125.514 5.64685 126.227 5.64685C127.17 5.64685 127.964 5.85384 128.608 6.26781C129.241 6.68178 129.724 7.22225 130.046 7.8892C130.368 8.55616 130.529 9.28061 130.529 10.0511V10.856H122.788V9.4876H129.137L128.447 10.1661C128.447 9.61409 128.367 9.13112 128.206 8.72865C128.045 8.32617 127.803 8.02719 127.469 7.80871C127.136 7.59022 126.733 7.48673 126.239 7.48673C125.744 7.48673 125.33 7.60172 124.985 7.82021C124.64 8.05019 124.375 8.37217 124.202 8.79764C124.03 9.22312 123.938 9.72908 123.938 10.3155C123.938 10.8675 124.03 11.3505 124.191 11.7759C124.364 12.2014 124.628 12.5349 124.985 12.7764C125.341 13.0179 125.79 13.1329 126.342 13.1329C126.894 13.1329 127.331 13.0179 127.676 12.7994C128.022 12.5809 128.24 12.3049 128.332 11.9829H130.391C130.265 12.5809 130.012 13.1099 129.655 13.5583C129.287 14.0068 128.827 14.3633 128.263 14.6048C127.699 14.8462 127.055 14.9727 126.342 14.9727L126.319 15.0072Z" fill="white"/>
<path d="M131.577 7.62502V5.94613H135.039V7.62502H131.577ZM133.624 4.9112C133.187 4.9112 132.854 4.79621 132.646 4.56623C132.439 4.33624 132.336 4.03726 132.336 3.69228C132.336 3.34731 132.439 3.04833 132.646 2.81834C132.854 2.58836 133.176 2.48486 133.624 2.48486C134.073 2.48486 134.383 2.59986 134.591 2.81834C134.798 3.04833 134.901 3.33581 134.901 3.69228C134.901 4.04876 134.798 4.33624 134.591 4.56623C134.383 4.79621 134.061 4.9112 133.624 4.9112ZM132.796 14.6971V5.95763H135.039V14.6971H132.796Z" fill="white"/>
<path d="M140.088 14.9266C139.456 14.9266 138.904 14.8116 138.421 14.5931C137.937 14.3631 137.569 14.0412 137.305 13.6272C137.04 13.2132 136.914 12.7073 136.914 12.1093C136.914 11.4653 137.075 10.9364 137.385 10.5339C137.707 10.1314 138.144 9.82095 138.72 9.61396C139.295 9.40697 139.962 9.30348 140.744 9.30348H142.769V10.6374H140.71C140.192 10.6374 139.801 10.7639 139.525 11.0169C139.249 11.2698 139.111 11.5918 139.111 11.9943C139.111 12.3968 139.249 12.7188 139.525 12.9602C139.801 13.2017 140.192 13.3282 140.71 13.3282C141.02 13.3282 141.308 13.2707 141.572 13.1557C141.837 13.0407 142.056 12.8452 142.228 12.5808C142.401 12.3048 142.504 11.9368 142.527 11.4653L143.079 12.0978C143.022 12.7073 142.884 13.2247 142.642 13.6387C142.401 14.0527 142.067 14.3746 141.641 14.5931C141.216 14.8116 140.698 14.9266 140.088 14.9266ZM142.907 14.6966V12.1093H142.539V9.22299C142.539 8.71702 142.412 8.33755 142.171 8.09606C141.929 7.85458 141.538 7.72809 141.032 7.72809C140.767 7.72809 140.445 7.72809 140.065 7.73958C139.686 7.73958 139.306 7.76258 138.927 7.77408C138.547 7.78558 138.202 7.80858 137.903 7.83158V5.9342C138.144 5.91121 138.432 5.88821 138.743 5.86521C139.053 5.84221 139.375 5.83071 139.697 5.81921C140.019 5.81921 140.33 5.81921 140.618 5.81921C141.515 5.81921 142.274 5.9342 142.861 6.17569C143.459 6.41717 143.908 6.78515 144.218 7.29111C144.529 7.79708 144.678 8.45254 144.678 9.26898V14.6966H142.907Z" fill="white"/>
<path d="M150.349 14.9726C149.141 14.9726 148.21 14.7197 147.52 14.2137C146.841 13.7077 146.484 12.9948 146.45 12.0978H148.463C148.497 12.3968 148.658 12.6728 148.957 12.9143C149.257 13.1558 149.728 13.2822 150.372 13.2822C150.913 13.2822 151.339 13.1903 151.649 12.9948C151.96 12.7993 152.121 12.5348 152.121 12.2013C152.121 11.9138 152.006 11.6838 151.753 11.5114C151.511 11.3389 151.097 11.2239 150.522 11.1779L149.751 11.0974C148.773 10.9939 148.026 10.7064 147.497 10.2579C146.967 9.80947 146.703 9.20001 146.703 8.45256C146.703 7.8546 146.852 7.34864 147.151 6.93466C147.45 6.53219 147.865 6.22171 148.394 6.00323C148.923 5.79624 149.533 5.69275 150.223 5.69275C151.293 5.69275 152.167 5.93423 152.834 6.4057C153.501 6.87717 153.846 7.56713 153.881 8.48706H151.868C151.845 8.18808 151.695 7.9236 151.419 7.71661C151.143 7.49813 150.74 7.39464 150.211 7.39464C149.74 7.39464 149.372 7.48663 149.118 7.67061C148.865 7.8546 148.727 8.08459 148.727 8.38357C148.727 8.68255 148.831 8.87804 149.038 9.02753C149.245 9.17702 149.59 9.28051 150.062 9.33801L150.832 9.4185C151.868 9.52199 152.673 9.80948 153.26 10.2694C153.846 10.7294 154.134 11.3504 154.134 12.1323C154.134 12.7073 153.973 13.2133 153.662 13.6387C153.34 14.0642 152.903 14.3977 152.339 14.6277C151.764 14.8691 151.097 14.9841 150.326 14.9841L150.349 14.9726Z" fill="white"/>
<path d="M96.112 15.0072C95.3643 15.0072 94.7086 14.8807 94.145 14.6163C93.5813 14.3633 93.1097 14.0068 92.7416 13.5813C92.3735 13.1559 92.0859 12.6614 91.9018 12.1209C91.7178 11.5805 91.6143 11.04 91.6143 10.4765V10.1661C91.6143 9.59109 91.7063 9.02763 91.9018 8.48716C92.0974 7.9467 92.3735 7.46373 92.7416 7.03826C93.1097 6.61279 93.5698 6.27931 94.122 6.02632C94.6741 5.77334 95.3068 5.64685 96.02 5.64685C96.9633 5.64685 97.757 5.85384 98.4012 6.26781C99.0339 6.68178 99.517 7.22225 99.8391 7.8892C100.161 8.55616 100.322 9.28061 100.322 10.0511V10.856H92.5805V9.4876H98.9303L98.2401 10.1661C98.2401 9.61409 98.1596 9.13112 97.9986 8.72865C97.8375 8.32617 97.596 8.02719 97.2624 7.80871C96.9288 7.59022 96.5262 7.48673 96.0315 7.48673C95.5369 7.48673 95.1228 7.60172 94.7777 7.82021C94.4326 8.05019 94.168 8.37217 93.9954 8.79764C93.8229 9.22312 93.7309 9.72908 93.7309 10.3155C93.7309 10.8675 93.8229 11.3505 93.9839 11.7759C94.1565 12.2014 94.4211 12.5349 94.7777 12.7764C95.1343 13.0179 95.5829 13.1329 96.135 13.1329C96.6872 13.1329 97.1243 13.0179 97.4694 12.7994C97.8145 12.5809 98.0331 12.3049 98.1251 11.9829H100.184C100.058 12.5809 99.8046 13.1099 99.448 13.5583C99.0799 14.0068 98.6198 14.3633 98.0561 14.6048C97.4924 14.8462 96.8483 14.9727 96.135 14.9727L96.112 15.0072Z" fill="white"/>
<path d="M84.5271 14.9839C83.9174 14.9839 83.3538 14.8689 82.8361 14.6504C82.3185 14.4319 81.8698 14.11 81.5017 13.696C81.1221 13.2935 80.8345 12.8106 80.6275 12.2701C80.4204 11.7296 80.3169 11.1432 80.3169 10.5107V10.1772C80.3169 9.55627 80.4204 8.96981 80.616 8.41785C80.8115 7.86589 81.0991 7.39442 81.4557 6.98044C81.8123 6.57797 82.2494 6.25599 82.7556 6.02601C83.2617 5.79602 83.8369 5.68103 84.4581 5.68103C85.1483 5.68103 85.7464 5.83052 86.2756 6.118C86.7932 6.41698 87.2074 6.85395 87.518 7.45191C87.8285 8.03837 88.0011 8.78582 88.0356 9.67127L87.3799 8.90081V2.94421H89.6231V14.6964H87.8515V10.9822H88.2427C88.2081 11.8676 88.0241 12.6151 87.6905 13.213C87.3569 13.811 86.9198 14.2595 86.3791 14.5469C85.8385 14.8459 85.2173 14.9839 84.5386 14.9839H84.5271ZM85.0332 13.098C85.4704 13.098 85.873 12.9945 86.2411 12.7991C86.6092 12.6036 86.8968 12.3161 87.1153 11.9251C87.3339 11.5456 87.4489 11.0972 87.4489 10.5797V9.93575C87.4489 9.41828 87.3339 8.99281 87.1153 8.63633C86.8968 8.27986 86.5977 8.01538 86.2296 7.83139C85.8615 7.6474 85.4704 7.54391 85.0332 7.54391C84.5501 7.54391 84.1245 7.6589 83.7564 7.88888C83.3883 8.11887 83.1007 8.44085 82.8821 8.86632C82.6751 9.28029 82.5715 9.77476 82.5715 10.3267C82.5715 10.8787 82.6751 11.3732 82.8936 11.7871C83.1122 12.2011 83.3998 12.5231 83.7679 12.7416C84.136 12.9715 84.5616 13.075 85.0332 13.075V13.098Z" fill="white"/>
</svg>
