<svg width="120" height="16" viewBox="0 0 120 16" fill="none" xmlns="http://www.w3.org/2000/svg">
<path d="M5.6724 0.411318V10.0773H16.387C16.534 10.3693 16.0634 11.1056 15.8617 11.1056H4.41187V1.13112C4.41187 0.653995 5.25222 0.429827 5.6724 0.411318Z" fill="white"/>
<path d="M10.0843 5.9641H16.492L16.8071 6.9924H8.82374V0L10.0843 0.308488V5.9641Z" fill="white"/>
<path d="M12.3953 14.1905C10.536 15.7082 6.25855 15.702 4.41187 14.1905H12.3953Z" fill="white"/>
<path d="M1.16048 11.5169C-0.389977 9.69681 -0.383674 5.5096 1.16048 3.70186L1.16048 11.5169Z" fill="white"/>
<path d="M15.1243 3.28848H13.0234L13.0276 1.23395C13.1558 1.06737 15.4395 3.01495 15.1243 3.28848Z" fill="white"/>
<path d="M38.5032 2.61946C41.4431 1.60116 44.0478 2.09256 46.3179 4.05379C46.5529 3.95785 46.526 3.79915 46.5287 3.66562C46.5371 3.24963 46.6847 2.97993 47.1694 3.01048C47.6695 3.04198 47.7223 3.38203 47.7233 3.76131C47.7252 4.44556 47.7274 5.12981 47.7268 5.81406C47.7247 8.12644 47.7237 10.4388 47.7157 12.7512C47.7148 13.0249 47.7761 13.3378 47.4533 13.5047C47.0228 13.7274 46.5826 13.4768 46.5358 12.987C46.5 12.6137 46.5922 12.2325 46.4644 11.8651C46.4585 11.8481 46.4261 11.8398 46.3914 11.8185C46.077 11.8437 45.9349 12.1237 45.7287 12.3031C42.7798 14.8687 37.7769 14.2583 35.6705 11.0701C33.6547 8.01895 34.8731 4.32653 38.5032 2.61946ZM37.1756 11.143C38.541 12.5824 40.2761 13.041 42.1804 12.7478C45.8388 12.1844 47.6267 8.87667 46.0356 5.80304C44.9479 3.70178 42.8991 2.96729 40.5377 3.21402C38.571 3.4195 37.0699 4.391 36.2956 6.18866C35.543 7.93601 35.8323 9.60196 37.1756 11.143Z" fill="white"/>
<path d="M54.0912 9.48655C53.0613 5.20183 56.6604 2.26688 59.85 2.12351C61.8632 2.03302 63.6743 2.47298 65.1915 3.83389C65.2788 3.91222 65.3858 3.9715 65.4898 4.02895C65.5262 4.04906 65.5811 4.03695 65.6356 4.04C65.844 3.88432 65.7487 3.65104 65.7757 3.45248C65.8192 3.13268 66.0066 3.00255 66.3169 3.01173C66.6235 3.02081 66.82 3.15899 66.8449 3.47539C66.856 3.61635 66.8581 3.75826 66.8582 3.89974C66.8593 6.84968 66.8613 9.79962 66.8568 12.7496C66.8564 12.9999 66.9322 13.2858 66.6829 13.4748C66.3439 13.7318 65.8181 13.5003 65.7863 13.0654C65.7561 12.6527 65.7798 12.2362 65.7798 11.5618C63.308 13.9293 60.6276 14.5058 57.6602 13.3329C55.8979 12.6363 54.7208 11.3193 54.0912 9.48655ZM57.9088 3.70881C55.6797 4.94476 54.6724 6.98617 55.2368 9.12363C56.0747 12.2968 60.0661 13.803 63.2222 12.1506C66.4364 10.4679 66.7618 6.15015 63.7225 4.14195C61.9107 2.94484 59.992 2.90742 57.9088 3.70881Z" fill="white"/>
<path d="M24.6908 7.13149C24.2039 9.94231 26.2969 12.5308 29.1902 12.7758C30.8965 12.9202 32.4547 12.605 33.7407 11.4116C33.9021 11.2619 34.0815 11.1347 34.3174 11.1666C34.5564 11.1989 34.8186 11.2344 34.9353 11.4738C35.0518 11.7126 34.8503 11.8714 34.7073 12.0233C33.7507 13.0391 32.5313 13.5902 31.167 13.7927C28.7525 14.1511 26.6306 13.5828 24.9351 11.7638C22.6089 9.26808 22.9492 5.65187 25.7311 3.46831C28.1723 1.55221 32.0913 1.64392 34.4227 3.68875C34.6807 3.91504 35.1993 4.1631 34.8566 4.57958C34.5181 4.99079 34.0817 4.84419 33.6594 4.50706C31.3529 2.66557 28.3891 2.68319 26.1865 4.55104C25.4045 5.21412 24.8459 6.03405 24.6908 7.13149Z" fill="white"/>
<path d="M48.4023 6.28742C47.5012 4.63305 48.3018 2.87268 50.0744 2.49608C50.3488 2.43777 50.632 2.38518 50.7341 2.72018C50.8327 3.04376 50.7608 3.34895 50.3818 3.46139C49.6654 3.67389 49.2138 4.08521 49.1584 4.85578C49.1008 5.65635 49.5675 6.13091 50.1974 6.50137C50.7344 6.81717 51.2877 7.10643 51.831 7.41215C53.0342 8.08927 53.9846 8.93704 53.9907 10.4381C53.9966 11.932 52.8114 13.2952 51.3072 13.5091C51.0301 13.5485 50.7575 13.5598 50.6569 13.2313C50.5603 12.9157 50.6625 12.6724 50.9931 12.5509C51.1058 12.5095 51.224 12.483 51.3378 12.4445C52.211 12.1492 52.7772 11.5742 52.8906 10.6657C53.0041 9.75676 52.5807 9.04897 51.8303 8.55703C51.2714 8.19063 50.6576 7.90438 50.0682 7.58253C49.4566 7.24856 48.8375 6.92401 48.4023 6.28742Z" fill="white"/>
<path d="M107.823 10.8727C106.505 8.51176 106.845 6.03211 108.829 4.01173C110.064 2.7551 111.394 1.5883 112.692 0.39255C113.091 0.0251734 113.569 -0.132137 114.076 0.174821C114.445 0.397774 114.667 0.72937 114.573 1.18727C114.5 1.54929 114.149 1.75027 113.973 2.16497C115.13 2.29324 116.19 2.63033 117.152 3.21952C118.983 4.33991 119.996 5.92333 119.999 8.0709C120.002 9.67495 119.998 11.279 119.993 12.8831C119.99 13.7929 119.675 14.2204 119.002 14.2462C118.329 14.272 118.005 13.9024 117.888 12.9826C117.877 12.8946 117.837 12.8101 117.791 12.6595C113.988 14.6646 110.588 14.5272 107.823 10.8727ZM109.415 9.39004C110.385 11.6683 113.184 12.6868 115.544 11.5659C116.905 10.9191 117.803 9.86557 117.892 8.32533C117.989 6.63883 117.168 5.41386 115.688 4.63587C114.034 3.76606 111.881 3.98022 110.531 5.17474C109.281 6.28065 108.848 7.66924 109.415 9.39004Z" fill="white"/>
<path d="M94.3078 2.99039C94.6728 3.22777 95.0121 3.41498 95.303 3.65784C95.7001 3.98943 95.8017 4.41354 95.4903 4.85568C95.177 5.3003 94.7273 5.43318 94.2204 5.2252C93.9351 5.10815 93.6874 4.90544 93.4174 4.75035C91.3977 3.59023 88.8666 4.01503 87.4 5.76379C87.1104 6.10909 86.8564 6.47743 86.8103 7.02887C87.5462 7.15895 88.2629 7.05453 88.9707 7.08303C89.5001 7.10434 90.0358 7.06956 90.5582 7.13757C91.1341 7.21255 91.5811 7.5257 91.5455 8.15797C91.5101 8.78572 91.0404 9.05935 90.4561 9.07724C89.4203 9.10895 88.3829 9.08834 87.3462 9.09523C87.182 9.09632 87.018 9.12678 86.7182 9.15763C87.024 10.0634 87.5003 10.7688 88.2585 11.2592C90.0247 12.4015 91.8319 12.3562 93.6474 11.3571C93.8359 11.2533 94.0068 11.1115 94.2047 11.0326C94.7527 10.8141 95.2135 10.9765 95.5219 11.4472C95.8263 11.9118 95.6307 12.3106 95.2242 12.6183C93.5623 13.8759 91.6899 14.2914 89.6366 13.9032C86.0689 13.2287 83.867 10.0916 84.6157 6.77123C85.1137 4.56262 87.5762 2.47726 89.919 2.23962C91.4422 2.08512 92.8992 2.23064 94.3078 2.99039Z" fill="white"/>
<path d="M100.635 11.8582C102.217 12.3222 103.64 12.1003 104.967 11.2465C105.048 11.1947 105.129 11.1437 105.214 11.0991C105.75 10.817 106.259 10.8368 106.625 11.3434C107.012 11.8779 106.777 12.3452 106.304 12.6913C104.913 13.708 103.329 14.1423 101.613 13.9892C101.038 13.938 100.641 14.0819 100.264 14.4565C99.8575 14.8595 99.445 15.2584 99.0111 15.6323C98.4505 16.1154 97.8165 16.1196 97.4038 15.6616C96.925 15.1302 97.1527 14.6591 97.5678 14.2248C97.8952 13.8823 98.2398 13.5556 98.5815 13.2172C98.554 12.9353 98.297 12.8621 98.1078 12.7323C94.7791 10.448 94.8117 5.66175 98.1728 3.40012C100.634 1.74374 103.723 1.74197 106.175 3.40203C106.6 3.68993 107.006 4.01587 106.891 4.60357C106.752 5.31806 105.913 5.60372 105.237 5.13667C104.284 4.47742 103.272 4.07711 102.078 4.10988C99.8384 4.17134 98.1522 5.49787 97.7607 7.56294C97.4375 9.26801 98.6247 11.0711 100.635 11.8582Z" fill="white"/>
<path d="M77.3589 8.50176C77.3571 7.27452 77.3441 6.118 77.3582 4.96179C77.365 4.40976 77.1698 4.13931 76.5592 4.1603C75.4035 4.20002 74.2461 4.19269 73.0895 4.20568C72.9932 4.20676 72.8968 4.2197 72.8008 4.21697C72.0425 4.1955 71.4983 3.80607 71.4761 3.27196C71.4529 2.71271 72.0083 2.24903 72.7974 2.2465C76.4618 2.23475 80.1264 2.23478 83.7908 2.24654C84.5513 2.24899 85.063 2.68854 85.0476 3.2439C85.032 3.80958 84.5535 4.15405 83.7407 4.15978C82.6318 4.1676 81.5227 4.15966 80.4137 4.16129C79.4802 4.16266 79.4688 4.17126 79.468 5.05948C79.4657 7.5611 79.4672 10.0627 79.4666 12.5643C79.4666 12.8003 79.4758 13.0373 79.4569 13.272C79.4045 13.9223 79.0105 14.3194 78.4235 14.3312C77.818 14.3434 77.354 13.9108 77.3434 13.2448C77.3254 12.1126 77.3509 10.9797 77.357 9.84703C77.3593 9.42223 77.3583 8.99742 77.3589 8.50176Z" fill="white"/>
</svg>
