<svg width="102" height="18" viewBox="0 0 102 18" fill="none" xmlns="http://www.w3.org/2000/svg">
<path d="M0.0284128 8.94631L0.142269 7.19127C0.142269 6.43916 0.180289 6.00255 0.256124 5.88184V5.52891C0.256124 5.38037 0.284537 5.26886 0.33196 5.19459C0.417403 5.03665 0.559467 4.65609 0.749158 4.05232C0.815591 4.05232 0.986273 3.65295 1.28021 2.8544C1.28021 2.82657 1.33704 2.76151 1.45089 2.65001C1.56475 2.5385 1.72582 2.4272 1.93453 2.29708C2.14302 2.17637 2.33271 2.1021 2.5128 2.09289L2.94901 2H3.02484H3.29977H3.5653C3.61272 2 3.67915 2.01862 3.7834 2.02783C3.87594 2.03576 3.96607 2.06097 4.04893 2.1021C4.2006 2.18557 4.39029 2.3249 4.63681 2.51068C4.63681 2.60357 4.41871 2.75211 3.97309 2.93788C3.94468 2.93788 3.86885 3.02136 3.74559 3.19792L3.40422 3.9222L2.94901 5.17578C2.74991 5.71448 2.56983 6.41094 2.40855 7.26514L2.13362 8.70449C2.05778 9.0388 2.01976 9.53106 2.01976 10.1811C2.01976 10.8311 2.02917 11.3233 2.05778 11.639C2.16203 12.6606 2.38014 13.5242 2.7215 14.2207C2.80694 14.397 2.87317 14.5364 2.91119 14.6384L2.98703 14.8334L3.04385 14.9634C3.15771 15.214 3.46105 15.6506 3.96369 16.2912L4.11536 16.5699C4.24802 16.6906 4.48514 16.9784 4.8171 17.4429C4.85512 17.5079 4.90254 17.6843 4.94976 18C4.75067 17.9722 4.618 17.9536 4.55157 17.9257C4.48514 17.8979 4.35248 17.8236 4.13437 17.6843L4.11536 17.7029L4.02992 17.61C3.96349 17.5728 3.87825 17.5544 3.7738 17.5544L2.97721 16.9786C2.78752 16.7929 2.63585 16.6535 2.50299 16.5514L2.1048 16.1056L1.78245 15.5855L1.64978 15.3069C1.64978 15.3069 1.58335 15.1583 1.55494 14.9539C1.48851 14.9169 1.32743 14.7125 1.0619 14.3504L0.815387 13.8675L0.720541 13.5146C0.54986 13.0874 0.436004 12.7995 0.398188 12.6696L0.189691 11.8528C0.189691 11.8528 0.170681 11.7229 0.132866 11.5371C0.0950501 11.3514 0.0760401 11.0729 0.0760401 10.7106L0 10.2277C0 10.0513 0.0284128 9.8934 0.0758357 9.72624C0.0284128 9.6798 0.00940281 9.54988 0.01901 9.33628V8.94631H0.0284128ZM15.3423 15.2796L14.4415 14.0353L13.3606 12.7817L12.1942 11.6302C11.796 11.2681 11.3976 10.9524 10.9994 10.6829V15.2796H9.10294V5.04606H10.9994V9.27142L12.0425 8.23144L13.1235 7.10779L14.1381 6.01196L15.0106 5.05546H17.2862L16.2337 6.22556L15.0864 7.4421L13.901 8.65864L12.7347 9.81012C13.1613 10.1258 13.5881 10.488 14.0243 10.9059L15.3139 12.2524L16.5277 13.7474L17.5896 15.2891H15.3423V15.2796ZM23.8858 5.29689C23.8858 5.6312 23.7719 5.90046 23.5538 6.09544C23.3357 6.29042 23.0702 6.39252 22.7669 6.39252C22.4635 6.39252 22.1884 6.29042 21.9703 6.09544C21.7522 5.90046 21.6385 5.6312 21.6385 5.29689C21.6385 4.96258 21.7522 4.68392 21.9703 4.47972C22.1884 4.28474 22.4539 4.18265 22.7669 4.18265C23.0798 4.18265 23.3263 4.28474 23.5538 4.47972C23.7719 4.67471 23.8858 4.94396 23.8858 5.29689ZM23.6867 15.2798H21.866V7.56261H23.6867V15.2889V15.2798ZM35.7194 13.6729V15.2794H29.1197V5.04586H31.0162V13.6729H35.7194ZM49.2979 10.1629C49.2979 11.0359 49.1652 11.8158 48.8997 12.4844C48.6342 13.1531 48.2738 13.7102 47.8092 14.1652C47.3542 14.611 46.8137 14.9545 46.2068 15.1774C45.5905 15.4002 44.9362 15.5209 44.2439 15.5209C43.5515 15.5209 42.8974 15.4094 42.2717 15.1774C41.6656 14.9589 41.1155 14.6135 40.6598 14.1652C40.2048 13.7196 39.8348 13.1623 39.5693 12.4844C39.2943 11.8158 39.1615 11.0451 39.1615 10.1629C39.1615 9.28063 39.2943 8.51911 39.5693 7.85048C39.8442 7.18186 40.214 6.62474 40.6786 6.17892C41.1432 5.72389 41.6839 5.38958 42.3002 5.15736C42.9164 4.93455 43.5612 4.81384 44.2439 4.81384C44.9266 4.81384 45.5809 4.92534 46.1878 5.15736C46.8041 5.38017 47.3352 5.72389 47.7904 6.17892C48.2456 6.63394 48.6152 7.19107 48.8807 7.85048C49.1558 8.51911 49.2885 9.28983 49.2885 10.1629M41.1244 10.1629C41.1244 10.72 41.1906 11.2309 41.3329 11.6951C41.4752 12.1501 41.6743 12.5401 41.9398 12.8652C42.2053 13.1903 42.5277 13.4317 42.9164 13.6081C43.2958 13.7844 43.7318 13.8773 44.2155 13.8773C44.6991 13.8773 45.1163 13.7844 45.4957 13.6081C45.8751 13.4317 46.1972 13.1809 46.4627 12.8652C46.7283 12.5495 46.937 12.1593 47.0792 11.6951C47.2213 11.2401 47.2877 10.7294 47.2877 10.1629C47.2877 9.59632 47.2213 9.09485 47.0792 8.63062C46.937 8.17559 46.7379 7.78562 46.4627 7.46052C46.1972 7.13541 45.8749 6.89399 45.4957 6.71762C45.1165 6.54126 44.6897 6.44837 44.2155 6.44837C43.7412 6.44837 43.3052 6.54126 42.9164 6.71762C42.5365 6.89211 42.2025 7.14945 41.9398 7.46993C41.6743 7.79503 41.4658 8.185 41.3329 8.64002C41.1906 9.09505 41.1244 9.59632 41.1244 10.1629ZM56.6846 5.04606L57.4244 6.42034L58.2588 8.12895L59.0932 9.94905L59.8517 11.6577L60.6103 9.94905L61.4353 8.12895L62.2697 6.42034L63.0092 5.04606H64.7256C64.8253 5.84006 64.9106 6.63573 64.9816 7.43269C65.067 8.27769 65.1332 9.13209 65.1997 10.0143L65.3894 12.6702L65.5316 15.2796H63.6635L63.5213 11.6022C63.4644 10.3392 63.379 9.12268 63.2653 7.94337C63.1515 8.16618 63.0282 8.44484 62.8766 8.76054L62.3929 9.7913L61.8715 10.9336L61.3594 12.0758L60.8948 13.1066L60.5344 13.9238H59.1216C59.0173 13.701 58.9035 13.4223 58.7612 13.0972L58.2966 12.057L57.7845 10.9148L57.2631 9.7819L56.7795 8.75113L56.3907 7.94317C56.277 9.12248 56.1916 10.3484 56.1348 11.602L55.9925 15.2794H54.1244L54.2667 12.6514L54.4563 9.95826L54.6745 7.36743L54.94 5.04586H56.6942L56.6846 5.04606ZM73.9044 15.4002C73.3544 15.4002 72.7949 15.3815 72.226 15.3445C71.6571 15.3075 71.1735 15.2424 70.7467 15.1309V5.19439L71.4579 5.08289L72.226 4.99921L73.0036 4.95277L73.7337 4.93415C74.369 4.93415 74.9569 4.98059 75.4974 5.07348C76.0378 5.16637 76.5119 5.32412 76.9102 5.53772C77.3086 5.75132 77.6214 6.03919 77.8395 6.39212C78.0576 6.74505 78.1712 7.18146 78.1712 7.71075C78.1712 8.19361 78.0576 8.60219 77.8205 8.95512C77.5834 9.29864 77.2516 9.5773 76.8344 9.7817C77.4697 9.98609 77.9343 10.2924 78.2377 10.701C78.541 11.1095 78.6929 11.6204 78.6929 12.2332C78.6929 13.2826 78.3041 14.0811 77.5171 14.6012C76.73 15.1305 75.5258 15.3906 73.9138 15.3906M72.6338 9.19655H73.9706C74.6914 9.19655 75.2603 9.09445 75.6775 8.89006C76.0853 8.68587 76.2938 8.32353 76.2938 7.80364C76.2938 7.31138 76.0759 6.95865 75.649 6.75426C75.2222 6.54987 74.663 6.44777 73.9803 6.44777C73.6863 6.44777 73.4302 6.44777 73.2027 6.46639C72.9752 6.46639 72.7855 6.49421 72.6242 6.51283V9.20595L72.6338 9.19655ZM72.6338 10.6545V13.775C72.8577 13.7962 73.0822 13.8117 73.3069 13.8215C73.544 13.8215 73.7716 13.8401 73.9706 13.8401C74.3355 13.8404 74.6999 13.8156 75.0612 13.7658C75.4025 13.7194 75.6871 13.6265 75.9336 13.5058C76.1801 13.3851 76.3792 13.2179 76.5215 13.0135C76.6637 12.8091 76.7396 12.5399 76.7396 12.215C76.7396 11.63 76.5215 11.2307 76.0947 10.9984C75.6585 10.7756 75.0612 10.6549 74.3026 10.6549H72.6338V10.6545ZM93.3901 10.1629C93.3901 11.0359 93.2574 11.8158 92.9919 12.4844C92.7264 13.1531 92.3662 13.7102 91.9016 14.1652C91.4458 14.6134 90.8956 14.9588 90.2894 15.1774C89.6613 15.4054 88.9966 15.5217 88.3267 15.5209C87.6346 15.5209 86.9802 15.4094 86.364 15.1774C85.7578 14.9589 85.2077 14.6135 84.752 14.1652C84.297 13.7196 83.927 13.1623 83.6615 12.4844C83.3959 11.8158 83.2537 11.0451 83.2537 10.1629C83.2537 9.28063 83.3865 8.51911 83.6615 7.85048C83.9364 7.18186 84.3062 6.62474 84.7708 6.17892C85.2354 5.72389 85.7761 5.38958 86.3924 5.15736C87.0139 4.9294 87.6724 4.81304 88.3361 4.81384C89.0186 4.81384 89.6637 4.92534 90.28 5.15736C90.8963 5.38017 91.4274 5.72389 91.8826 6.17892C92.3378 6.63394 92.7076 7.19107 92.9729 7.85048C93.248 8.51911 93.3807 9.28983 93.3807 10.1629M85.226 10.1629C85.226 10.72 85.2924 11.2309 85.4347 11.6951C85.5768 12.1501 85.7761 12.5401 86.0414 12.8652C86.3067 13.1903 86.6295 13.4317 87.0181 13.6081C87.3974 13.7844 87.8337 13.8773 88.3173 13.8773C88.8009 13.8773 89.2181 13.7844 89.5973 13.6081C89.9765 13.4317 90.3084 13.1809 90.574 12.8652C90.8395 12.5495 91.0482 12.1593 91.1809 11.6951C91.3231 11.2401 91.3896 10.7294 91.3896 10.1629C91.3896 9.59632 91.3231 9.09485 91.1809 8.63062C91.0386 8.17559 90.8395 7.78562 90.574 7.46052C90.3084 7.13541 89.9861 6.89399 89.5973 6.71762C89.2181 6.54126 88.7913 6.44837 88.3173 6.44837C87.8433 6.44837 87.3974 6.54126 87.0181 6.71762C86.6387 6.89399 86.3069 7.14482 86.0414 7.46993C85.7759 7.79503 85.5674 8.185 85.4347 8.64002C85.2924 9.09505 85.226 9.59632 85.226 10.1629ZM99.8948 10.6271C99.8474 10.5899 99.819 10.3765 99.819 9.96767L99.7431 8.41682L99.6389 7.28395L99.5724 6.93102C99.506 6.67098 99.4208 5.98373 99.2879 4.86008L99.1552 4.41426C99.1172 4.24711 99.013 4.01489 98.8329 3.72702C98.8329 3.65275 98.7571 3.53204 98.6148 3.36488C98.4725 3.19772 98.3967 3.04918 98.3967 2.92847C98.3967 2.88203 98.5293 2.77052 98.8139 2.59416H99.2405C99.4018 2.59416 99.544 2.61277 99.6673 2.6406C99.7906 2.66843 99.9518 2.80776 100.16 3.03997C100.359 3.27219 100.568 3.63433 100.786 4.10798L101.147 4.90652L101.165 4.94376C101.251 5.06447 101.336 5.31531 101.431 5.67745L101.545 6.049L101.848 7.59985C101.877 7.72056 101.886 7.87851 101.886 8.0827V8.43563C101.962 8.58417 102 9.00216 102 9.68921C102 10.4785 101.924 11.1472 101.772 11.7043L101.64 12.243C101.602 12.4658 101.422 12.9302 101.09 13.6267C100.758 14.3232 100.388 14.9267 99.9612 15.419L99.1933 16.1711C99.1647 16.2546 99.032 16.3847 98.7759 16.5426L97.8562 16.914L97.3062 17.0069C96.9174 17.0069 96.6899 16.914 96.6234 16.7282L97.401 16.2824C97.401 16.2824 97.5339 16.0874 97.8182 15.7809V15.7253C97.8846 15.7625 98.0459 15.5673 98.3112 15.1309L98.539 14.7409C98.539 14.7409 98.6432 14.5552 98.8423 14.2951H98.8803L98.8991 14.1836C98.8991 14.1186 99.0036 13.9236 99.2027 13.5706C99.2121 13.5706 99.2691 13.4313 99.3543 13.1434C99.4396 12.8556 99.4966 12.6792 99.506 12.5863C99.5156 12.5028 99.5346 12.447 99.544 12.4378V12.4564C99.6673 12.2706 99.7337 12.1129 99.7337 11.9641C99.7337 11.8154 99.7147 11.6763 99.6767 11.5277C99.6767 11.2399 99.7621 10.9334 99.9232 10.5899" fill="white"/>
</svg>
