<svg width="47" height="34" viewBox="0 0 47 34" fill="none" xmlns="http://www.w3.org/2000/svg">
<path fill-rule="evenodd" clip-rule="evenodd" d="M46.1779 23.4501C43.4737 24.5814 41.2067 22.8206 40.3604 21.8664C40.3604 21.8664 41.8036 19.6108 41.4155 17.5678C41.2291 16.5896 40.628 15.6808 39.7579 16.2153C39.0657 16.6406 37.4222 19.8717 39.409 22.2591C34.5625 26.8909 33.4262 13.4337 31.1717 19.0749C30.7794 20.0574 29.9121 22.2577 29.5954 22.8759C28.7029 17.4842 25.5826 13.7215 22.5589 19.8461C22.5589 19.8461 22.3039 16.0636 21.1662 15.4738C19.4274 14.5721 18.462 17.0815 17.9394 18.1136C16.8493 20.2658 13.8943 26.0133 12.1317 21.4936C16.1908 9.58447 6.14039 12.0287 11.0808 22.4619C5.97225 28.5355 4.13115 22.8078 3.87054 18.0598C5.25347 16.5059 5.97505 15.5362 6.95725 14.1354C8.2463 12.298 9.21168 10.5982 9.90664 9.05281C11.9397 4.5387 11.6707 2.37947 10.4489 0.951795C8.0025 -1.91064 1.7324 1.27646 2.50863 16.1033C2.61792 17.8613 2.67677 18.41 2.70199 18.7601C1.71839 19.7923 1.01082 20.4926 0.0902705 21.4227C-0.122703 21.6382 0.0720543 21.9813 0.353683 21.7062C1.33728 20.7422 2.69498 19.3287 2.69498 19.3287C2.55907 21.8381 4.70562 30.6706 11.3722 22.8149C13.9966 25.7397 15.8251 23.7138 17.0903 21.1051C18.3695 18.4667 19.3755 15.5815 20.425 16.4095C21.3063 17.4572 21.4534 20.1467 21.4534 21.5432C21.4534 24.1731 20.6464 25.3427 22.7243 24.7232C22.7299 21.7785 22.2605 20.9222 23.7051 18.7091C24.8764 16.9156 26.5452 17.3977 27.5204 20.0588C27.8973 21.0881 28.1733 23.8059 28.7464 24.21C30.1615 25.4094 31.1255 19.9468 31.7056 18.97C32.79 17.1652 34.0637 28.1385 39.8714 22.6178C41.124 23.6826 42.64 24.2511 44.1098 24.2511C45.6931 24.2511 46.4287 23.3451 46.1751 23.4515L46.1779 23.4501ZM3.77246 13.5641C3.76966 5.79482 6.86758 0.819944 9.05055 1.09641C10.4433 1.27362 11.382 2.04913 10.8216 5.12281C10.4405 7.21257 9.36721 9.88928 7.27391 13.0367C6.23426 14.599 3.77527 17.5862 3.77527 17.5862C3.77527 17.5862 3.77386 15.3221 3.77246 13.5641ZM11.4871 19.5314C11.3358 18.5205 11.2125 15.7928 11.7898 14.7295C11.9145 14.4998 12.2381 14.5041 12.36 14.7351C13.3731 16.6449 12.4791 19.357 11.9453 21.1051C11.7842 20.9491 11.4857 19.5314 11.4857 19.5314H11.4871ZM40.8662 17.2545C41.2879 18.5517 40.7191 20.6146 40.1642 21.5219C39.2983 20.6429 39.1316 17.9832 40.3422 17.0759C40.5243 16.9397 40.7947 17.0362 40.8662 17.2545Z" fill="white"/>
<path d="M15.074 9.73758C15.074 8.71963 15.591 8.31416 16.3953 8.31416C16.6881 8.31416 16.9053 8.35527 17.1042 8.42191L17.2177 8.90961C16.9291 8.76926 16.7329 8.74374 16.4639 8.74374C15.9063 8.74374 15.5952 9.04855 15.5952 9.73758C15.5952 10.4266 15.9133 10.7314 16.4835 10.7314C16.8142 10.7314 17.009 10.6705 17.278 10.567L17.1673 11.049C16.9347 11.1227 16.7189 11.1638 16.3925 11.1638C15.5896 11.1638 15.0712 10.7357 15.0712 9.73616L15.074 9.73758Z" fill="white"/>
<path d="M20.7163 10.6902L20.8424 11.1198H18.9719C18.9439 10.6746 18.9229 10.2295 18.9229 9.82823V8.35519H19.4287V9.84382C19.4287 10.3301 19.4329 10.5243 19.4455 10.6888H20.7177L20.7163 10.6902Z" fill="white"/>
<path d="M23.5551 7.54711L22.8587 8.17801H22.43L22.8335 7.54711H23.5551ZM22.4342 11.1184V8.35523H22.9316V11.1184H22.4342Z" fill="white"/>
<path d="M24.8246 11.1184V8.35519H25.5209L26.7357 10.1501V8.35519H27.1967V11.1184H26.7651L25.2898 8.8996V11.1184H24.8246Z" fill="white"/>
<path d="M29.0896 11.1184V8.35519H29.587V11.1184H29.0896Z" fill="white"/>
<path d="M31.3328 9.73758C31.3328 8.71963 31.8498 8.31416 32.6541 8.31416C32.9469 8.31416 33.1641 8.35527 33.363 8.42191L33.4765 8.90961C33.1879 8.76926 32.9917 8.74374 32.7227 8.74374C32.1651 8.74374 31.854 9.04855 31.854 9.73758C31.854 10.4266 32.1721 10.7314 32.7423 10.7314C33.073 10.7314 33.2678 10.6705 33.5368 10.567L33.4261 11.049C33.1935 11.1227 32.9777 11.1638 32.6513 11.1638C31.8484 11.1638 31.33 10.7357 31.33 9.73616L31.3328 9.73758Z" fill="white"/>
<path d="M36.6571 10.3926H35.6175L35.504 11.1185H34.994L35.4633 8.41341C35.6231 8.36804 35.8304 8.34394 36.0462 8.34394C36.5927 8.34394 36.7762 8.56228 36.8897 9.10244L37.3255 11.1199H36.7958L36.6571 10.394V10.3926ZM35.6833 9.96443H36.5758L36.4329 9.20877C36.3643 8.85859 36.241 8.76785 36.0336 8.76785C35.9804 8.76785 35.9439 8.76785 35.8711 8.77636L35.6833 9.96443Z" fill="white"/>
</svg>
