<svg width="88" height="17" viewBox="0 0 88 17" fill="none" xmlns="http://www.w3.org/2000/svg">
<path fill-rule="evenodd" clip-rule="evenodd" d="M4.12314 14.3999C2.17519 14.126 0.68138 12.8395 0.229697 10.9693C-0.223174 9.09459 -0.0502924 7.29564 1.14409 5.689C3.0081 3.18175 6.95724 3.68017 8.25912 5.2573C9.16836 6.35879 9.39438 8.04798 8.67661 9.2827C8.16693 10.1594 7.33028 10.5423 6.36941 10.6619C5.91417 10.7186 5.45273 10.7279 4.99152 10.7372C4.80339 10.741 4.61527 10.7448 4.42764 10.7518C4.29928 10.7566 4.17068 10.7554 4.04204 10.7541C3.98302 10.7535 3.924 10.7529 3.86504 10.7529C3.87298 11.4415 4.13597 11.7351 4.80293 11.7979C5.76594 11.8885 6.6862 11.7056 7.57394 11.3393C7.64838 11.3085 7.72311 11.2785 7.80538 11.2454L7.93351 11.1938C8.28585 11.7014 8.54807 12.2364 8.60576 12.8487C8.64566 13.273 8.48557 13.5905 8.06965 13.7876C6.82505 14.3771 5.51641 14.5349 4.12314 14.3999ZM4.24381 7.15477C3.78126 7.44302 3.80468 7.86317 3.82943 8.3059C3.83395 8.38671 3.83848 8.46824 3.84012 8.54986C3.97113 8.54986 4.09996 8.55204 4.22706 8.55419C4.51484 8.55904 4.79412 8.56376 5.07142 8.54277C5.08354 8.54188 5.09553 8.54069 5.10719 8.53927C5.42559 8.50065 5.58789 8.27752 5.61449 7.94866C5.67636 7.18428 5.13305 6.84222 4.27332 7.14077L4.25975 7.14922L4.24381 7.15477Z" fill="white" fill-opacity="0.5"/>
<path fill-rule="evenodd" clip-rule="evenodd" d="M19.3713 10.802L19.3712 8.33494L19.3552 0.48955C19.3552 0.470868 19.3555 0.451909 19.3557 0.432909C19.3582 0.246163 19.3609 0.0544069 19.0874 0.0479823C18.0902 0.0246024 17.0929 0.00344232 16.0956 4.26191e-06C15.8017 -0.000997846 15.6966 0.174765 15.7023 0.479608C15.7172 1.26852 15.7142 2.05778 15.7112 2.84701V2.85744C15.7102 3.09745 15.7092 3.33744 15.7088 3.57741C15.7088 3.60078 15.7084 3.62418 15.7077 3.64762C15.707 3.66933 15.7061 3.69115 15.705 3.7131C15.7025 3.76347 15.699 3.8146 15.6953 3.86741L15.6944 3.88015C15.6927 3.90623 15.6909 3.9327 15.6893 3.95967L15.6858 4.01786C15.6084 4.01132 15.536 4.00581 15.467 4.00056L15.466 4.0005L15.3628 3.99258L15.3056 3.98799C15.2278 3.98155 15.1531 3.97459 15.0787 3.96577C13.1452 3.73644 11.359 4.70392 10.6177 6.47976C9.87236 8.26517 9.88975 10.0982 10.6117 11.8859C11.3697 13.763 13.0656 14.6733 15.0728 14.3672C15.8406 14.2502 16.5008 13.9014 17.0782 13.3993C17.6491 14.0039 17.928 14.196 18.4305 14.3358C19.3386 14.5887 20.0231 14.4035 20.4079 13.7643C20.8376 13.0504 20.9258 12.2755 20.7087 11.4771C20.5569 10.9188 20.4044 10.825 19.8121 10.8207C19.7245 10.82 19.6369 10.8154 19.5359 10.8101L19.4656 10.8064L19.3713 10.802ZM14.1399 7.72975C14.4408 7.12007 15.0867 6.98827 15.708 7.4039L15.7084 7.43384L15.7142 7.43796C15.7214 8.45004 15.723 9.42805 15.7232 10.4061C15.7233 10.9856 15.0975 11.3616 14.6031 11.0367C14.3625 10.8785 14.1381 10.603 14.0462 10.3338C14.0299 10.2863 14.0148 10.2386 14.0006 10.1909C13.9903 10.1566 13.9807 10.1223 13.9716 10.0879L13.9566 10.0299C13.7795 9.31847 13.8252 8.59178 14.0736 7.88779C14.0818 7.86459 14.0904 7.84191 14.0995 7.8198C14.1121 7.7887 14.1256 7.7587 14.1399 7.72975Z" fill="white" fill-opacity="0.5"/>
<path d="M25.4077 14.4252L25.4055 14.4251C25.1369 14.4119 24.8807 14.3993 24.6301 14.3552C22.9408 14.0579 22.0519 13.0877 21.8771 11.3542C21.8275 10.862 21.8027 10.3654 21.7998 9.87065C21.7984 9.62811 21.7974 9.38561 21.7967 9.14307L21.7951 8.3257C21.7948 8.03735 21.7947 7.74903 21.7946 7.46067C21.7943 6.49484 21.794 5.52901 21.7862 4.56324C21.7839 4.28142 21.8604 4.115 22.1499 4.11262C23.0954 4.10483 24.041 4.10388 24.9863 4.11061C25.2742 4.11266 25.3569 4.27839 25.3554 4.56106C25.3461 6.30861 25.3511 8.05626 25.3562 9.80388V9.83233L25.3569 10.0695C25.3602 11.1716 25.8747 11.4567 26.8531 10.921C27.0773 10.7983 27.135 10.6452 27.1335 10.406C27.1286 9.63613 27.1275 8.8663 27.1264 8.09643C27.1247 6.94968 27.123 5.80294 27.1092 4.65636C27.1046 4.28222 27.2118 4.10474 27.5908 4.1052C27.7984 4.10546 28.006 4.1054 28.2135 4.1052L28.5584 4.1048C29.1011 4.10414 29.6439 4.10348 30.1866 4.10658C30.509 4.1084 30.6438 4.24634 30.6407 4.60203C30.6278 6.03495 30.6312 7.46797 30.6347 8.90106C30.6354 9.18918 30.6361 9.47733 30.6366 9.76549L30.6376 10.3919C30.6377 10.5371 30.6376 10.6823 30.6376 10.8261C30.7041 10.8486 30.7396 10.8697 30.7761 10.8716C31.6328 10.9161 31.8435 11.1322 31.8671 11.9994C31.8861 12.6975 31.7602 13.3587 31.3468 13.9432C31.0824 14.3171 30.7206 14.4672 30.2609 14.4311C29.4798 14.3697 28.8695 14.0305 28.4276 13.3386C27.6572 13.9828 26.8048 14.4072 25.7573 14.4449C25.6381 14.4366 25.5218 14.4308 25.4077 14.4252Z" fill="white" fill-opacity="0.5"/>
<path d="M40.8039 5.84981C40.9258 5.3577 40.7406 4.92504 40.2796 4.60731C39.7025 4.19049 39.064 4.03212 38.398 3.96637C36.9589 3.82424 35.6331 4.06348 34.4992 5.04485C32.4652 6.80551 32.4799 10.4476 33.541 12.2276C35.1654 14.9526 38.3381 14.7336 40.2203 13.8478C40.3453 13.789 40.4866 13.5692 40.4702 13.4436C40.3704 12.6781 40.2414 11.9154 40.0907 11.1579C40.0354 10.8805 39.8663 10.8293 39.546 10.9162C38.9963 11.0654 38.4158 11.1385 37.8446 11.1627C37.4135 11.1809 37.0594 10.919 36.8846 10.5259C36.4776 9.61059 36.4789 8.6698 36.896 7.76405C37.174 7.15991 37.7649 7.00679 38.3133 7.34422C38.5638 7.49837 38.793 7.69199 39.0121 7.88951C39.4871 8.31811 39.8941 8.31507 40.1801 7.73516C40.4709 7.14595 40.6444 6.49164 40.8039 5.84981Z" fill="white" fill-opacity="0.75"/>
<path d="M43.0437 7.60956V14.3401C44.327 14.4533 45.5551 14.5006 46.7969 14.3496L46.7972 10.137C46.7972 9.97415 46.7959 9.81122 46.7945 9.64826C46.7932 9.45699 46.7915 9.26567 46.7922 9.07449C46.7932 8.85189 46.7969 8.62945 46.8076 8.40735C46.8471 7.58001 47.3194 7.28499 48.0956 7.57325C48.1589 7.59672 48.2259 7.61662 48.2815 7.65266C48.5143 7.80361 48.6858 7.71779 48.7515 7.48789C48.7763 7.40068 48.8017 7.31351 48.8269 7.22634L48.8898 7.01182C49.0791 6.36484 49.2687 5.71684 49.3886 5.05699C49.4818 4.54468 49.1756 4.23503 48.658 4.10819C47.7214 3.87865 46.8799 4.08894 46.1611 4.71008C45.9363 4.90449 45.7393 5.13063 45.5377 5.36214C45.4844 5.4233 45.4308 5.48486 45.3762 5.54629C45.3531 5.5723 45.33 5.59831 45.3065 5.62422C45.2888 5.64393 45.2707 5.66356 45.2526 5.68314C44.9829 4.62581 44.2587 4.10043 43.1877 4.03134C42.558 3.99074 42.1011 4.25259 41.9641 4.85868C41.8284 5.461 41.7698 6.10471 41.8224 6.71809C41.883 7.42603 42.1001 7.54331 42.8297 7.57605C42.8812 7.57836 42.9325 7.59173 43.0437 7.60956Z" fill="white" fill-opacity="0.75"/>
<path fill-rule="evenodd" clip-rule="evenodd" d="M56.9356 14.2706C55.8821 14.4617 54.8561 14.5477 53.8478 14.2532C51.9739 13.7059 50.8208 12.4651 50.4993 10.5587C50.1452 8.46163 50.4487 6.51171 52.1497 5.00422C53.9204 3.43488 57.147 3.58681 58.6397 5.28878C59.5552 6.33274 59.7314 8.08798 59.0239 9.28051C58.4454 10.2561 57.4873 10.589 56.4285 10.692C56.0255 10.7313 55.6188 10.7326 55.2121 10.7339H55.2088C55.0339 10.7344 54.8591 10.735 54.6845 10.7386C54.5851 10.7407 54.4856 10.7401 54.3881 10.7395H54.3874C54.3432 10.7393 54.2993 10.7391 54.2561 10.7391C54.1991 11.3391 54.4132 11.6497 54.9679 11.7509C56.0171 11.9422 57.0063 11.6882 57.9731 11.3089C58.0381 11.2834 58.1014 11.2545 58.1734 11.2217L58.1757 11.2207L58.2364 11.1932L58.2937 11.1674C58.6474 11.7436 58.969 12.3069 58.9552 12.9961C58.9485 13.3339 58.8192 13.6055 58.4906 13.7296C58.1091 13.8735 57.7225 14.0042 57.3219 14.1397C57.1946 14.1826 57.0659 14.2261 56.9356 14.2706ZM54.227 7.62984L54.1693 8.53873C54.2913 8.53893 54.4078 8.53926 54.5204 8.53962H54.5288C54.774 8.54038 55.0014 8.54107 55.2289 8.53807C55.6851 8.5321 55.9076 8.37963 55.9662 8.02263C55.9742 7.9716 55.9796 7.91644 55.9813 7.85693C55.995 7.42196 55.7987 7.12581 55.4302 7.03639C55.3776 7.02365 55.3217 7.01507 55.2621 7.01095C55.2195 7.00797 55.1776 7.00652 55.1368 7.00672C54.7398 7.00847 54.4162 7.16328 54.234 7.59845L54.2327 7.61597L54.227 7.62984Z" fill="white" fill-opacity="0.75"/>
<path d="M67.5473 4.34175C68.441 4.73417 68.5579 5.04444 68.1523 5.88284L68.1456 5.89686L68.1322 5.92528L68.1218 5.9472C68.1034 5.98651 68.0839 6.0254 68.0605 6.06154C68.0032 6.14894 67.9503 6.2411 67.8973 6.33329C67.7737 6.54909 67.6495 6.76513 67.4719 6.92089C67.2622 7.10471 67.0726 6.99357 66.878 6.87963C66.7624 6.81203 66.6455 6.74344 66.5212 6.73489C66.478 6.73189 66.4345 6.72816 66.3909 6.72383C66.3564 6.7204 66.3219 6.7166 66.2874 6.71258C66.1956 6.70178 66.1038 6.68914 66.0117 6.67653C65.8416 6.65313 65.6714 6.62976 65.5012 6.61818C65.4402 6.61402 65.3789 6.61138 65.318 6.61078C65.1686 6.60933 64.9307 6.75252 64.8912 6.87834C64.8493 7.01229 64.9495 7.25479 65.0684 7.35863C65.2212 7.49159 65.4104 7.58437 65.5987 7.67656C65.6543 7.70393 65.7102 7.73122 65.7648 7.75948C65.9487 7.85484 66.1347 7.94706 66.3206 8.03928L66.3216 8.03974C66.6301 8.19293 66.939 8.34612 67.2394 8.5136C69.523 9.78597 68.7378 12.6336 67.3865 13.6092C66.7192 14.0911 65.9648 14.3168 65.1619 14.3973C63.9626 14.5176 62.7832 14.4219 61.6529 13.9719C60.4651 13.499 60.177 12.8472 60.6165 11.6528C60.6292 11.6187 60.6423 11.5849 60.656 11.5512C60.6674 11.5229 60.6795 11.4947 60.6915 11.4667C61.0791 10.5727 61.1019 10.5819 61.9782 10.9788C62.3721 11.1572 62.7862 11.2931 63.1995 11.4288C63.3362 11.4736 63.4729 11.5184 63.6086 11.5647C63.6488 11.5785 63.694 11.5908 63.7395 11.5982C63.8059 11.6092 63.8732 11.6098 63.9271 11.5896C64.0695 11.5361 64.2045 11.4623 64.3395 11.3885C64.3944 11.3585 64.4494 11.3284 64.5046 11.2998C64.4698 11.2436 64.4393 11.1807 64.4085 11.1178C64.3415 10.9801 64.2742 10.8425 64.1636 10.7752C63.8886 10.6082 63.5988 10.4661 63.3084 10.3239C63.1021 10.2227 62.8957 10.1215 62.6944 10.0113C61.3424 9.27049 60.6614 7.91128 60.9116 6.48324C61.1377 5.19202 62.1303 4.28521 63.6303 4.04234C64.9458 3.82931 66.2449 3.93688 67.5473 4.34175Z" fill="white"/>
<path fill-rule="evenodd" clip-rule="evenodd" d="M76.6731 4.33483C75.4701 3.79397 74.2116 3.76987 72.9125 4.12516C72.7524 4.21666 72.5899 4.30166 72.4295 4.38573L72.4251 4.3881C72.0466 4.58625 71.6774 4.77947 71.3659 5.0402C70.173 6.03835 69.7178 7.40139 69.6568 8.89963C69.5774 10.8604 70.0806 12.6103 71.8898 13.6748C73.8595 14.8337 75.8862 14.575 77.8599 13.6254C78.0539 13.5321 78.2046 13.1734 78.2207 12.9279C78.2646 12.2599 77.9239 11.702 77.5775 11.1421L77.4442 11.1949C77.399 11.2129 77.3561 11.2298 77.3145 11.2463C77.2804 11.2601 77.2469 11.2737 77.2137 11.2875C76.3257 11.6561 75.4045 11.8382 74.4407 11.7496C73.7704 11.6879 73.5078 11.3949 73.5034 10.7048C73.558 10.7048 73.6126 10.7054 73.6676 10.7059C73.7865 10.7071 73.9058 10.7083 74.0247 10.7039C74.219 10.6965 74.4143 10.6928 74.6092 10.6891C75.0779 10.6803 75.5465 10.6714 76.0084 10.612C77.0318 10.4804 77.9296 10.0682 78.3841 9.08183C79.162 7.39367 78.7061 5.24907 76.6731 4.33483ZM73.4475 8.08016C73.3909 7.38396 73.7681 6.99761 74.5231 6.98104L74.5369 6.98434L74.5576 6.98388C75.047 7.10284 75.2604 7.34511 75.2564 7.76632C75.2561 7.82649 75.251 7.89033 75.2417 7.95796C75.235 8.00701 75.2256 8.0524 75.2135 8.09425C75.1281 8.38726 74.9013 8.50807 74.4474 8.51338L74.4072 8.51381C74.295 8.51493 74.1824 8.51523 74.0706 8.51516C73.9831 8.51513 73.8957 8.51487 73.8086 8.51463C73.7145 8.51434 73.621 8.51404 73.5282 8.51404C73.5115 8.4535 73.4974 8.39465 73.4854 8.33745C73.4669 8.2475 73.4542 8.16168 73.4475 8.08016Z" fill="white"/>
<path d="M83.1861 5.76438L83.1885 5.77144L83.2444 5.69338L83.2826 5.63944L83.2833 5.63862C83.3426 5.55557 83.3955 5.48101 83.4511 5.40826C84.2082 4.41685 85.1605 3.86747 86.4609 4.10426C87.0281 4.20748 87.356 4.50752 87.3259 5.03904C87.2749 5.93882 87.08 6.81385 86.6227 7.61095C86.6144 7.62527 86.605 7.63894 86.5949 7.65231C86.5782 7.67426 86.5591 7.69548 86.539 7.71769C86.5232 7.73516 86.5068 7.75321 86.4907 7.77268C86.413 7.74595 86.3363 7.71802 86.2606 7.6903L86.2586 7.68964L86.2552 7.68842C86.1554 7.65194 86.0566 7.6159 85.9575 7.58345C85.8918 7.562 85.8258 7.54209 85.7591 7.5247C85.2597 7.39429 84.8942 7.60497 84.786 8.10134C84.7297 8.36065 84.7147 8.63293 84.714 8.89936C84.7123 10.133 84.7157 11.3666 84.719 12.6002L84.722 13.8847C84.7224 14.042 84.722 14.1992 84.722 14.433C84.4125 14.433 84.1077 14.436 83.8065 14.439C83.1252 14.4459 82.4622 14.4525 81.8006 14.4232C80.9582 14.3859 80.9582 14.3493 80.9575 13.53L80.9525 7.66145C80.9394 7.6566 80.9273 7.65175 80.9166 7.64712L80.8952 7.63798L80.8935 7.63722C80.8828 7.63257 80.8731 7.62838 80.8637 7.62484C80.8476 7.61871 80.8335 7.61455 80.8191 7.61372C79.9907 7.56523 79.7978 7.43442 79.7241 6.60759C79.6779 6.08432 79.716 5.53157 79.838 5.02062C80.0447 4.15559 80.7257 3.86067 81.6867 4.14153C82.2854 4.31657 82.7429 4.66896 83.033 5.26009C83.087 5.42565 83.1282 5.56544 83.1861 5.76438Z" fill="white"/>
</svg>
