<svg width="142" height="21" viewBox="0 0 142 21" fill="none" xmlns="http://www.w3.org/2000/svg">
<path d="M16.7083 10.1115C16.7083 6.16177 13.0877 2.93807 8.59009 2.82796V0H8.35413C4.67346 0 1.67506 2.59357 1.62608 5.79765C0.605469 7.00667 0 8.49805 0 10.1115C0 14.0613 3.62057 17.285 8.11818 17.3951V20.2231H8.35413C11.1834 20.2231 13.7288 18.663 14.6871 16.3398C14.9397 15.7271 15.0699 15.0839 15.08 14.4265C15.5508 13.8705 15.9381 13.2535 16.2152 12.5819C16.5424 11.7904 16.7071 10.9597 16.7071 10.1104L16.7083 10.1115ZM16.2364 10.1115C16.2364 10.4724 16.1996 10.8289 16.1362 11.1799C15.3994 7.99766 12.2062 5.64611 8.35413 5.64611C6.13927 5.64611 4.03572 6.45285 2.53317 7.86356C2.26383 7.27377 2.11024 6.63491 2.09799 5.96554C3.53932 4.33788 5.8076 3.28475 8.35413 3.28475C12.7004 3.28475 16.2364 6.3471 16.2364 10.1115ZM8.35413 11.7545C9.92345 11.7545 11.4338 11.2737 12.638 10.4037C13.1734 10.8387 13.6197 11.3544 13.9514 11.9278C12.5312 13.3178 10.4989 14.1147 8.35413 14.1147C5.0363 14.1147 2.236 12.2745 1.25657 9.68309C0.859231 8.63106 0.995016 7.43948 1.65391 6.52153L1.66393 6.50845C2.02565 9.45306 4.88827 11.7534 8.35524 11.7534L8.35413 11.7545ZM4.46199 10.1126C5.56719 9.35167 6.93395 8.93086 8.35413 8.93086C9.77431 8.93086 11.1767 9.37239 12.2463 10.1104C11.1411 10.8714 9.77431 11.2922 8.35413 11.2922C6.93395 11.2922 5.53158 10.8507 4.46199 10.1126ZM8.11818 0.465512V2.82796C5.7475 2.88574 3.62057 3.80804 2.13917 5.2471C2.49199 2.62409 5.02072 0.56581 8.11818 0.465512ZM0.471909 10.1115C0.471909 9.74523 0.506412 9.38656 0.570966 9.03661C1.30443 12.2222 4.49983 14.577 8.35413 14.577C10.5679 14.577 12.6725 13.7702 14.1751 12.3595C14.4455 12.9504 14.5991 13.5925 14.6103 14.263C13.1433 15.9157 10.8439 16.9372 8.35413 16.9372C4.00789 16.9372 0.471909 13.8749 0.471909 10.1115ZM8.59009 19.7565V17.3918C10.9107 17.3341 13.0599 16.439 14.5646 14.9847C14.5101 15.3881 14.4088 15.7838 14.2508 16.1676C13.3893 18.2531 11.1344 19.6747 8.5912 19.7576L8.59009 19.7565ZM15.0443 13.7135C14.6826 10.7689 11.82 8.46862 8.35302 8.46862C6.78481 8.46862 5.27336 8.94939 4.06911 9.81828C3.53487 9.38329 3.08744 8.86763 2.75577 8.29419C4.17595 6.90419 6.20828 6.10726 8.35302 6.10726C11.672 6.10726 14.4711 7.9486 15.4506 10.5389C15.8323 11.5495 15.711 12.6844 15.1234 13.5958C15.0955 13.6383 15.0688 13.6776 15.0443 13.7124V13.7135Z" fill="white"/>
<path d="M80.1863 7.02888C80.1863 5.92437 80.1863 4.86859 80.1863 3.7825C80.5514 3.7825 80.8774 3.7825 81.2416 3.7825C81.2416 7.93851 81.2416 12.0784 81.2416 16.2552C80.9131 16.2552 80.5889 16.2552 80.1984 16.2552C80.1984 15.8992 80.1984 15.5378 80.1984 15.0772C79.919 15.2922 79.7335 15.4434 79.5392 15.5829C77.5652 17.0006 75.0497 16.3929 74.0749 14.2035C73.3628 12.6042 73.4295 10.9861 74.3775 9.47664C75.552 7.60649 77.9483 7.10941 79.8244 8.30502C79.9179 8.3646 80.0096 8.42684 80.1863 8.54333C80.1863 8.0033 80.1863 7.54046 80.1863 7.02888ZM75.0691 13.7205C75.2892 14.4423 75.6589 15.0701 76.3203 15.4865C77.6394 16.3168 79.2311 15.6096 80.092 14.6837C80.1675 14.6025 80.1821 14.4451 80.1826 14.3228C80.1884 12.7925 80.1891 11.2621 80.1815 9.73177C80.1809 9.5928 80.1406 9.43978 80.0728 9.31753C79.1516 7.6559 76.8235 7.48175 75.7022 9.02064C74.6715 10.435 74.6258 12.0162 75.0691 13.7205Z" fill="white"/>
<path d="M95.6883 11.6435C95.1879 8.83542 96.436 6.22046 98.7936 5.07994C101.061 3.9828 104.049 4.41992 105.715 6.09353C105.784 6.16282 105.845 6.2398 105.953 6.36214C105.747 6.54869 105.547 6.72973 105.316 6.93825C105.15 6.74485 105.005 6.575 104.859 6.40673C102.718 3.94777 99.0738 4.32049 97.5889 7.19876C96.5671 9.17916 96.5682 11.2442 97.5867 13.2213C99.1314 16.22 103.165 16.6128 105.414 14.0356C105.586 13.8381 105.758 13.6406 105.977 13.4859C105.669 15.0624 103.129 16.423 100.83 16.322C98.178 16.2055 96.0835 14.3144 95.6883 11.6435Z" fill="white"/>
<path d="M141.562 12.0126C141.462 14.1392 140.421 15.6096 138.67 16.1401C135.91 16.9766 133.39 15.2798 133.256 12.4641C133.228 11.8707 133.268 11.2506 133.415 10.6771C133.922 8.71 135.735 7.47342 137.743 7.65739C139.982 7.86244 141.35 9.25361 141.547 11.5273C141.559 11.6731 141.557 11.8201 141.562 12.0126ZM139.731 9.37622C139.675 9.29562 139.62 9.21395 139.562 9.13458C138.349 7.48022 136.272 7.51874 135.125 9.21663C134.145 10.666 134.172 13.3664 135.18 14.8062C136.365 16.4999 138.553 16.525 139.633 14.7702C140.686 13.0579 140.601 11.239 139.731 9.37622Z" fill="white"/>
<path d="M113.313 9.60626C113.352 11.1108 113.384 12.5748 113.413 14.0388C113.418 14.2668 113.412 14.4949 113.414 14.7229C113.423 15.662 113.471 15.7144 114.432 15.8376C113.65 16.5924 112.681 16.3038 112.287 15.1688C111.536 15.7416 110.718 16.1674 109.766 16.2671C109.423 16.3031 109.066 16.2966 108.724 16.2489C107.876 16.1305 107.248 15.7027 107.056 14.8543C106.862 14.0006 107.144 13.2731 107.861 12.7377C108.83 12.0134 109.989 11.8526 111.154 11.7283C111.518 11.6895 111.884 11.6621 112.29 11.6258C112.352 10.7671 112.38 9.92799 112.011 9.13402C111.684 8.43085 110.996 8.10265 110.055 8.15171C109.295 8.19135 108.639 8.48372 108.033 8.9139C107.933 8.985 107.796 9.0072 107.649 8.98371C108.539 8.01573 109.64 7.56381 110.965 7.66298C112.205 7.75579 113.016 8.35607 113.313 9.60626ZM110.448 15.7252C110.971 15.484 111.501 15.2581 112.009 14.9914C112.148 14.9188 112.302 14.7256 112.306 14.5835C112.334 13.7085 112.32 12.8322 112.32 11.9172C111.191 12.0325 110.115 12.1312 109.129 12.617C108.565 12.8952 108.17 13.3151 108.117 13.9688C108.012 15.2592 108.928 15.9796 110.448 15.7252Z" fill="white"/>
<path d="M89.664 15.0121C88.6264 16.0898 87.3856 16.5299 85.9301 16.2624C84.1496 15.9352 82.9582 14.5276 82.8011 12.625C82.7209 11.6522 82.8397 10.7083 83.2948 9.82315C84.3337 7.80292 87.0408 7.00065 88.8767 8.18731C90.0321 8.93414 90.2892 10.0868 90.3226 11.3915C88.2133 11.3915 86.1386 11.3915 84.0791 11.3915C83.7518 12.5378 84.3016 14.8406 85.8507 15.4875C87.5952 16.2161 88.9169 15.4118 90.0848 14.1472C90.1212 14.2043 90.1576 14.2615 90.1939 14.3186C90.0253 14.5414 89.8567 14.7642 89.664 15.0121ZM87.4981 8.02169C85.5227 7.47598 84.0555 9.40041 84.0644 11.071C85.7673 11.071 87.4701 11.071 89.1692 11.071C89.2733 9.67323 88.6761 8.55752 87.4981 8.02169Z" fill="white"/>
<path d="M127.094 15.9699C126.579 16.1022 126.1 16.292 125.614 16.3139C124.266 16.3747 123.558 15.6968 123.547 14.3758C123.531 12.5516 123.542 10.7272 123.542 8.90284C123.542 8.695 123.542 8.48716 123.542 8.23559C123.152 8.23559 122.82 8.24924 122.489 8.22743C122.388 8.22072 122.293 8.11701 122.195 8.05771C122.295 7.98231 122.389 7.85102 122.494 7.8419C122.822 7.81353 123.154 7.83151 123.528 7.83151C123.528 6.97984 123.528 6.17155 123.528 5.32637C123.897 5.32637 124.221 5.32637 124.616 5.32637C124.616 6.13568 124.616 6.9548 124.616 7.82086C125.593 7.82086 126.502 7.82086 127.426 7.82086C127.431 8.21743 127.198 8.23945 126.931 8.23779C126.185 8.23314 125.438 8.23617 124.635 8.23617C124.635 8.45019 124.635 8.6089 124.635 8.76761C124.635 10.5431 124.632 12.3186 124.638 14.094C124.639 14.3525 124.652 14.618 124.712 14.8678C124.872 15.5224 125.278 15.8559 125.96 15.8328C126.351 15.8195 126.738 15.6925 127.126 15.6127C127.255 15.5863 127.38 15.5474 127.507 15.5142C127.53 15.5617 127.553 15.6093 127.576 15.6568C127.427 15.7547 127.277 15.8527 127.094 15.9699Z" fill="white"/>
<path d="M117.363 8.09554C116.134 8.74497 116.066 9.90526 117.221 10.5984C117.842 10.9705 118.538 11.2204 119.196 11.5334C119.57 11.7112 119.948 11.8856 120.302 12.0957C121.128 12.5849 121.568 13.2906 121.445 14.2561C121.325 15.1991 120.72 15.7914 119.847 16.0843C118.395 16.5713 116.989 16.3448 115.642 15.675C115.182 15.4461 115.524 15.1657 115.572 14.8392C116.503 15.7352 117.567 16.1883 118.823 16.0125C119.248 15.9528 119.703 15.7801 120.045 15.5295C120.84 14.9469 120.833 13.8543 120.05 13.2581C119.688 12.9821 119.255 12.789 118.84 12.5856C118.156 12.2505 117.44 11.9733 116.775 11.6066C115.839 11.0906 115.419 10.3016 115.561 9.49364C115.721 8.58001 116.447 7.91116 117.519 7.72776C118.762 7.51504 119.933 7.75844 121.108 8.3241C121.044 8.53816 120.982 8.74357 120.915 8.96525C119.83 8.23028 118.747 7.64248 117.363 8.09554Z" fill="white"/>
<path d="M132.701 8.62234C131.79 8.34294 131.025 8.53307 130.357 9.14149C129.926 9.53362 129.684 9.96792 129.699 10.5911C129.742 12.414 129.715 14.2385 129.715 16.102C129.362 16.102 129.038 16.102 128.629 16.102C128.629 15.9248 128.629 15.7367 128.629 15.5486C128.629 13.2839 128.652 11.0188 128.613 8.75466C128.604 8.20279 128.742 7.89692 129.309 7.8188C129.407 7.80534 129.501 7.76811 129.677 7.7201C129.677 8.23084 129.677 8.71965 129.677 9.20846C129.712 9.22942 129.748 9.25038 129.784 9.27135C130.596 8.15992 131.574 7.4259 133.128 7.79677C132.984 8.09789 132.861 8.35642 132.701 8.62234Z" fill="white"/>
<path d="M28.3299 9.92427L27.5292 9.56416C26.2914 8.98208 25.0132 8.38027 25.0132 6.95959C25.0132 5.74116 25.9883 4.9223 27.4357 4.9223C28.5345 4.9223 29.7066 5.40572 30.573 6.21225L30.8004 5.47972C30.1284 5.08015 28.8831 4.61399 27.5822 4.61399C25.5083 4.61892 24.0584 5.79296 24.0584 7.47754C24.0584 9.26819 25.771 10.0649 27.024 10.6469L27.8247 11.007C29.113 11.6039 30.3735 12.3118 30.3735 13.8139C30.3735 15.1581 29.2191 16.1323 27.6302 16.1323C26.3748 16.1323 24.9071 15.5576 24.1418 14.7634L23.8689 15.5724C24.6899 15.9893 26.1828 16.4357 27.5191 16.4357C28.5396 16.4357 29.4767 16.1373 30.1638 15.5996C30.9065 15.015 31.298 14.1962 31.298 13.2342C31.298 11.3104 29.7243 10.5729 28.3324 9.92427H28.3299Z" fill="white"/>
<path d="M36.6001 7.77842C35.4382 7.77842 34.3823 8.21005 33.6295 8.99439C32.849 9.80585 32.4372 10.9133 32.4372 12.2032C32.4372 14.6968 34.0362 16.4406 36.3273 16.4406C37.752 16.4406 38.962 15.75 39.8284 14.4403L39.5884 14.2997C38.8054 15.4565 37.5499 15.8684 36.7113 15.8684C34.8597 15.8684 33.6144 14.2751 33.6144 11.9073C33.6144 11.779 33.6144 11.6458 33.627 11.5274H39.9598V11.5003C39.9673 10.2893 39.6213 9.30516 38.9569 8.65155C38.3759 8.0818 37.5626 7.78089 36.5976 7.78089L36.6001 7.77842ZM33.6523 11.2216C33.867 9.32489 35.0062 8.05467 36.489 8.05467C37.9718 8.05467 38.8407 9.26816 38.8483 11.2216H33.6523Z" fill="white"/>
<path d="M45.1154 7.81048C44.0999 7.81048 43.2158 8.40243 42.4833 9.56907V7.82528L41.4173 8.17799V16.2507H42.4984V10.0673C43.0365 9.15964 43.8423 8.61702 44.6506 8.61702C44.9285 8.61702 45.277 8.68854 45.5372 8.802L45.9086 7.90668C45.6484 7.84255 45.3882 7.81295 45.1179 7.81295L45.1154 7.81048Z" fill="white"/>
<path d="M58.9202 15.898C58.1623 15.898 58.1623 15.4861 58.1623 14.7363V10.7308C58.1623 8.74281 57.2504 7.77842 55.3787 7.77842C54.2571 7.77842 53.3604 8.15086 52.3803 9.02152L52.36 9.03878L52.5394 9.25336L52.5621 9.2361C53.3856 8.56029 54.1081 8.27171 54.9795 8.27171C56.4143 8.27171 57.0837 9.09304 57.0837 10.8566V11.7543C56.581 11.7864 56.0379 11.8333 55.4746 11.8949C53.0926 12.1687 51.7816 13.0961 51.7816 14.5044C51.7816 15.6612 52.6657 16.4085 54.0373 16.4085C55.1084 16.4085 56.2451 15.9646 57.0913 15.2197C57.162 15.9473 57.5359 16.3321 58.1724 16.3321C58.5008 16.3321 58.8519 16.2285 59.2435 16.0164L59.2586 16.009V15.8659L59.2258 15.8709C59.1323 15.8857 59.0363 15.9029 58.9252 15.9029L58.9202 15.898ZM57.0812 12.0281V14.8497C56.3891 15.5058 55.4721 15.898 54.6259 15.898C53.5473 15.898 52.8754 15.274 52.8754 14.2677C52.8754 12.7286 54.5552 12.2575 57.0812 12.0281Z" fill="white"/>
<path d="M50.6954 7.81048C49.6799 7.81048 48.7958 8.40243 48.0633 9.56907V7.82528L46.9973 8.17799V16.2507H48.0784V10.0673C48.6165 9.15964 49.4223 8.61702 50.2306 8.61702C50.5085 8.61702 50.8571 8.68854 51.1173 8.802L51.4886 7.90668C51.2284 7.84255 50.9682 7.81295 50.6979 7.81295L50.6954 7.81048Z" fill="white"/>
<path d="M63.9444 7.77842C61.4563 7.77842 59.7184 9.57893 59.7184 12.1564C59.7184 14.7338 61.3653 16.4406 63.8156 16.4406C66.2658 16.4406 68.0265 14.6401 68.0265 12.0627C68.0265 9.48521 66.3871 7.77842 63.9444 7.77842ZM66.8468 12.1564C66.8468 14.5168 65.6318 16.1644 63.8939 16.1644C62.156 16.1644 60.893 14.4773 60.893 12.0627C60.893 9.648 62.108 8.05467 63.8459 8.05467C65.5838 8.05467 66.8468 9.74172 66.8468 12.1564Z" fill="white"/>
<path d="M53.1153 6.5872L52.9713 6.55514C53.1305 5.63515 53.5144 5.0432 54.295 5.0432C55.2852 5.0432 56.3385 5.91633 57.1368 5.91633C57.6319 5.91633 57.8718 5.60556 58.031 5.0432L58.175 5.07527C58.0158 5.98046 57.647 6.5872 56.8513 6.5872C55.8611 6.5872 54.8229 5.69928 54.0272 5.69928C53.517 5.69928 53.2921 6.01005 53.1178 6.5872H53.1153Z" fill="white"/>
</svg>
