<svg width="127" height="19" viewBox="0 0 127 19" fill="none" xmlns="http://www.w3.org/2000/svg">
<path fill-rule="evenodd" clip-rule="evenodd" d="M16.4906 10.1002C16.0987 9.73843 14.6395 9.50931 14.531 9.48519C13.8436 9.33445 13.6808 9.3043 13.0055 8.99077C11.8479 8.46018 10.8952 7.42311 10.3466 6.28354C10.1174 5.81325 9.97273 5.2706 9.88228 4.74603C9.85214 4.55912 9.8039 4.33603 9.55669 4.41441C9.35169 4.48074 9.36978 4.6375 9.33963 4.85456C9.1889 5.95192 8.50154 7.20002 7.71771 7.94165C6.0777 9.50328 4.51004 9.43695 4.32915 9.5696C4.26886 9.61784 4.22665 9.72034 4.25077 9.82887C4.29901 10.0218 4.5221 10.0098 4.70298 10.0399C5.22151 10.1303 5.77019 10.3052 6.22843 10.5343C6.86756 10.8478 7.32579 11.1976 7.79006 11.6558C9.32154 13.1812 9.2914 14.8574 9.43007 15.0383C9.48434 15.1046 9.58081 15.1408 9.69537 15.1167C9.87626 15.0745 9.86419 14.8454 9.89434 14.6524C10.0451 13.5732 10.7445 12.3251 11.5223 11.5774C12.0951 11.0287 12.7885 10.5705 13.5542 10.2992C14.4586 9.9796 14.5551 10.878 14.5551 10.878V12.7592C14.5551 13.537 14.32 14.2304 13.8376 14.8393C13.3553 15.4483 12.7041 15.9367 11.8901 16.3045C11.0701 16.6723 10.1416 16.8532 9.10448 16.8532C7.84433 16.8532 6.71682 16.5517 5.73402 15.9488C4.75122 15.3458 3.98547 14.5017 3.43679 13.4224C2.88811 12.3432 2.61678 11.089 2.61678 9.65401C2.61678 8.219 2.88811 6.93473 3.43076 5.87354C3.97342 4.81839 4.73915 3.99838 5.74004 3.41352C6.74093 2.83469 7.91065 2.53925 9.24919 2.53925C10.6902 2.53925 11.8599 2.84675 12.7463 3.46779C13.5603 4.03456 14.0969 4.83044 14.3501 5.86148C14.3923 6.02428 14.5431 6.13884 14.7119 6.13884H16.6353C16.8765 6.13884 17.0573 5.91575 17.0031 5.68663C16.7559 4.63147 16.3278 3.72102 15.7188 2.96734C15.0254 2.10513 14.1331 1.44189 13.0357 0.989679C11.9383 0.537469 10.6782 0.30835 9.24919 0.30835C7.41623 0.30835 5.80034 0.694235 4.41356 1.47204C3.02076 2.24984 1.94149 3.33514 1.16369 4.73397C0.391915 6.13281 0 7.76679 0 9.6299C0 11.493 0.367798 13.127 1.10339 14.5258C1.83899 15.9247 2.87605 17.016 4.21459 17.7878C5.55313 18.5656 7.09064 18.9514 8.83919 18.9514C10.1777 18.9514 11.3595 18.6861 12.3905 18.1556C13.4216 17.625 14.1331 16.9195 14.5189 16.0452H14.6335V18.3123C14.6335 18.5173 14.8023 18.6801 15.0073 18.6801H16.7197C16.9247 18.6801 17.0935 18.5113 17.0935 18.3123V11.7101C17.0935 11.0106 16.8885 10.474 16.4845 10.1002H16.4906Z" fill="white"/>
<path d="M29.4929 15.5687C28.3955 15.5687 27.4308 15.3215 26.6048 14.8331C25.7787 14.3448 25.1276 13.6634 24.6633 12.7892C24.199 11.9149 23.9639 10.908 23.9639 9.76237C23.9639 8.61678 24.205 7.56765 24.6814 6.69338C25.1577 5.81911 25.833 5.13778 26.7073 4.65542C27.5755 4.17306 28.5885 3.93188 29.7401 3.93188C30.6626 3.93188 31.4766 4.08262 32.182 4.39012C32.8875 4.69763 33.4663 5.14381 33.9185 5.72264C34.3707 6.30146 34.6541 7.00088 34.7747 7.80883H32.5679C32.4473 7.1697 32.1398 6.66926 31.6514 6.31955C31.163 5.96984 30.5239 5.79499 29.7341 5.79499C28.9985 5.79499 28.3593 5.95778 27.8107 6.27734C27.262 6.59691 26.8399 7.05515 26.5384 7.65206C26.243 8.24898 26.0923 8.95442 26.0923 9.77443C26.0923 10.5944 26.243 11.2939 26.5445 11.8968C26.8459 12.4997 27.274 12.97 27.8227 13.3077C28.3714 13.6453 29.0105 13.8081 29.7341 13.8081C30.3008 13.8081 30.8073 13.7177 31.2535 13.5308C31.6997 13.3439 32.0494 13.0906 32.3086 12.765C32.5619 12.4395 32.6945 12.0717 32.6945 11.6617V11.1431H29.5411V9.48502H33.1286C33.6713 9.48502 34.0753 9.61766 34.3587 9.88296C34.642 10.1483 34.7747 10.5341 34.7747 11.0466V15.3999H32.8091V13.977H32.7367C32.4835 14.4774 32.0735 14.8693 31.5007 15.1467C30.9279 15.424 30.2586 15.5627 29.4869 15.5627L29.4929 15.5687Z" fill="white"/>
<path d="M40.1829 15.5566C39.0373 15.5566 38.157 15.2552 37.536 14.6402C36.9149 14.0312 36.6074 13.2051 36.6074 12.1621V7.02495H38.6876V11.74C38.6876 12.3912 38.8564 12.8796 39.188 13.2112C39.5257 13.5428 40.0201 13.7056 40.6833 13.7056C41.3828 13.7056 41.9133 13.5307 42.2872 13.175C42.661 12.8193 42.8479 12.3248 42.8479 11.6797V7.01892H44.9281V13.3137H45.9772V15.3938H43.8428V14.0553H43.2579C42.9323 14.5377 42.5223 14.9115 42.0339 15.1647C41.5455 15.418 40.9305 15.5506 40.1829 15.5506V15.5566Z" fill="white"/>
<path d="M51.1572 15.569C50.2649 15.569 49.4871 15.3881 48.8178 15.0323C48.1545 14.6766 47.642 14.1641 47.2803 13.5129C46.9185 12.8617 46.7437 12.0839 46.7437 11.1916C46.7437 10.2992 46.9185 9.52745 47.2742 8.88229C47.63 8.23714 48.1304 7.7367 48.7816 7.38699C49.4328 7.03728 50.1985 6.86243 51.0728 6.86243C51.9471 6.86243 52.6646 7.02522 53.2796 7.35684C53.8946 7.68846 54.3709 8.15876 54.7025 8.77979C55.0402 9.40083 55.203 10.1304 55.203 10.9805V11.7041H48.7394C48.8238 12.4095 49.071 12.9522 49.4871 13.332C49.9031 13.7059 50.4518 13.8988 51.1391 13.8988C51.6516 13.8988 52.0677 13.8023 52.3872 13.6154C52.7068 13.4225 52.9359 13.1391 53.0625 12.7592H55.1547C54.9618 13.6456 54.5096 14.3329 53.8102 14.8334C53.1108 15.3338 52.2184 15.581 51.1512 15.581L51.1572 15.569ZM48.7997 10.2932H53.2072C53.1349 9.71436 52.9118 9.27421 52.544 8.97274C52.1762 8.67126 51.6878 8.52053 51.0728 8.52053C50.4578 8.52053 49.9694 8.67126 49.5775 8.97877C49.1856 9.28627 48.9263 9.72039 48.7937 10.2932H48.7997Z" fill="white"/>
<path d="M60.1469 15.569C58.935 15.569 57.9824 15.3158 57.283 14.8093C56.5835 14.3028 56.2097 13.5914 56.1494 12.6809H58.1753C58.2416 13.1211 58.4406 13.4406 58.7783 13.6516C59.1159 13.8627 59.5983 13.9652 60.2314 13.9652C61.2986 13.9652 61.8352 13.6577 61.8352 13.0427C61.8352 12.7834 61.7508 12.5844 61.588 12.4397C61.4252 12.301 61.1539 12.1925 60.774 12.1202L58.9169 11.7705C57.289 11.4569 56.475 10.6791 56.475 9.45514C56.475 8.66528 56.7885 8.03219 57.4096 7.56189C58.0306 7.0916 58.8868 6.85645 59.9781 6.85645C61.0695 6.85645 61.9618 7.09763 62.607 7.57395C63.2521 8.05028 63.6139 8.73161 63.6862 9.60588H61.6784C61.5759 9.18985 61.383 8.88234 61.0996 8.6894C60.8162 8.49646 60.4062 8.40602 59.8756 8.40602C59.3993 8.40602 59.0375 8.47837 58.7843 8.62911C58.5311 8.77984 58.4105 8.99691 58.4105 9.28632C58.4105 9.50338 58.4888 9.67221 58.6456 9.80485C58.8024 9.9375 59.0556 10.034 59.3993 10.1003L61.2805 10.4621C62.1367 10.6309 62.7637 10.9082 63.1617 11.3002C63.5596 11.6921 63.7646 12.2166 63.7646 12.8799C63.7646 13.724 63.4511 14.3872 62.8301 14.8636C62.209 15.3399 61.3106 15.575 60.1349 15.575L60.1469 15.569Z" fill="white"/>
<path d="M67.6413 15.4002C67.0926 15.4002 66.6645 15.2615 66.363 14.9842C66.0615 14.7068 65.9108 14.2787 65.9108 13.7119V8.6472H64.4336V7.02527H65.9289V4.51099H67.9669V7.02527H69.9928V8.6472H67.997V13.7722H70.1857V15.4062H67.6473L67.6413 15.4002Z" fill="white"/>
<path d="M75.7812 15.4001V4.09485H81.0691C82.3353 4.09485 83.3181 4.40838 84.0115 5.04147C84.7109 5.67457 85.0606 6.54281 85.0606 7.65223C85.0606 8.76165 84.7109 9.61784 84.0054 10.257C83.306 10.8961 82.3232 11.2156 81.0691 11.2156H77.9157V15.4001H75.7812ZM77.9157 9.38269H80.9425C81.5936 9.38269 82.0881 9.23195 82.4257 8.92445C82.7634 8.61694 82.9382 8.19488 82.9382 7.65223C82.9382 7.10958 82.7694 6.67546 82.4257 6.37398C82.082 6.07251 81.5936 5.92177 80.9425 5.92177H77.9157V9.38269Z" fill="white"/>
<path d="M87.1228 15.4001V9.10537H86.0918V7.02521H88.2142V8.64713H88.799C89.0281 8.08639 89.3899 7.66433 89.8723 7.37492C90.3546 7.0855 90.9093 6.9408 91.5304 6.9408H92.2298V8.72552H91.4339C90.6682 8.72552 90.1014 8.94258 89.7336 9.38273C89.3598 9.82288 89.1729 10.4017 89.1729 11.1252V15.3941H87.1228V15.4001Z" fill="white"/>
<path d="M97.3067 15.569C96.4023 15.569 95.6184 15.3881 94.9552 15.0323C94.2919 14.6766 93.7734 14.1701 93.4056 13.519C93.0378 12.8678 92.8569 12.102 92.8569 11.2157C92.8569 10.3294 93.0378 9.55157 93.4056 8.90039C93.7734 8.2492 94.2919 7.74876 94.9612 7.39302C95.6305 7.03728 96.4143 6.86243 97.3067 6.86243C98.199 6.86243 99.001 7.03728 99.6582 7.39302C100.315 7.74876 100.822 8.2492 101.184 8.90039C101.545 9.55157 101.726 10.3233 101.726 11.2157C101.726 12.1081 101.545 12.8678 101.184 13.525C100.822 14.1822 100.309 14.6887 99.6461 15.0384C98.9829 15.3941 98.2051 15.569 97.3006 15.569H97.3067ZM97.3067 13.7541C98.0483 13.7541 98.6271 13.531 99.0371 13.0788C99.4471 12.6266 99.6521 12.0056 99.6521 11.2157C99.6521 10.4258 99.4471 9.79274 99.0371 9.34656C98.6271 8.90038 98.0483 8.67729 97.3067 8.67729C96.565 8.67729 95.9681 8.90038 95.5521 9.34656C95.1361 9.79274 94.9311 10.4138 94.9311 11.2036C94.9311 11.9935 95.1361 12.6326 95.5521 13.0788C95.9681 13.531 96.553 13.7541 97.3067 13.7541Z" fill="white"/>
<path d="M103.921 15.4001V8.64711H102.359V7.02518H103.939V5.3912C103.939 4.80634 104.095 4.37222 104.409 4.09486C104.722 3.81751 105.157 3.67883 105.717 3.67883H108.087V5.30076H105.977V7.03121H107.918V8.65314H106.007V15.4061H103.927L103.921 15.4001ZM110.257 6.10267C109.932 6.10267 109.655 5.98811 109.425 5.75899C109.196 5.52988 109.082 5.25252 109.082 4.92693C109.082 4.60134 109.196 4.32398 109.425 4.09486C109.655 3.86575 109.932 3.75119 110.257 3.75119C110.583 3.75119 110.86 3.86575 111.09 4.09486C111.319 4.32398 111.433 4.60134 111.433 4.92693C111.433 5.25252 111.319 5.52988 111.09 5.75899C110.86 5.98811 110.583 6.10267 110.257 6.10267ZM109.208 15.4001V7.02518H111.289V15.4001H109.208Z" fill="white"/>
<path d="M113.309 15.4001V3.67883H115.389V15.4001H113.309Z" fill="white"/>
<path d="M121.261 15.569C120.369 15.569 119.591 15.3881 118.922 15.0323C118.253 14.6766 117.746 14.1641 117.384 13.5129C117.029 12.8557 116.848 12.0839 116.848 11.1916C116.848 10.2992 117.023 9.52745 117.378 8.88229C117.734 8.23714 118.234 7.7367 118.886 7.38699C119.537 7.03728 120.303 6.86243 121.177 6.86243C122.051 6.86243 122.769 7.02522 123.384 7.35684C123.999 7.68846 124.469 8.15876 124.807 8.77979C125.144 9.40083 125.307 10.1304 125.307 10.9805V11.7041H118.843C118.928 12.4095 119.175 12.9522 119.591 13.332C120.007 13.7119 120.556 13.8988 121.243 13.8988C121.756 13.8988 122.172 13.8023 122.491 13.6154C122.811 13.4225 123.04 13.1391 123.167 12.7592H125.259C125.066 13.6456 124.614 14.3329 123.914 14.8334C123.215 15.3338 122.328 15.581 121.255 15.581L121.261 15.569ZM118.904 10.2932H123.311C123.239 9.71436 123.016 9.27421 122.648 8.97274C122.28 8.67126 121.792 8.52053 121.177 8.52053C120.562 8.52053 120.073 8.67126 119.682 8.97877C119.29 9.28627 119.03 9.72039 118.898 10.2932H118.904Z" fill="white"/>
</svg>
