<svg width="49" height="29" viewBox="0 0 49 29" fill="none" xmlns="http://www.w3.org/2000/svg">
<path d="M5.71604 23.41L8.47463 26.9705V23.41H8.95696V27.8499H8.56348L5.73296 24.2079V27.8499H5.25063V23.41H5.71604Z" fill="white"/>
<path d="M12.8579 27.9271C12.5237 27.9271 12.219 27.8671 11.9483 27.7427C11.6732 27.6183 11.4405 27.4553 11.2459 27.2451C11.0513 27.0349 10.899 26.7946 10.7932 26.5158C10.6874 26.237 10.6324 25.9495 10.6324 25.645V25.6321C10.6324 25.3275 10.6874 25.0358 10.7932 24.757C10.9032 24.4781 11.0555 24.2336 11.2501 24.0234C11.4448 23.8132 11.6817 23.6459 11.9567 23.5215C12.2317 23.3971 12.5364 23.3328 12.8706 23.3328C13.2048 23.3328 13.5095 23.3928 13.7803 23.5172C14.0553 23.6416 14.288 23.8046 14.4826 24.0148C14.6772 24.225 14.8295 24.4696 14.9353 24.7441C15.0411 25.0187 15.0961 25.3104 15.0961 25.6149C15.0961 25.6192 15.0961 25.6235 15.0961 25.6278C15.0961 25.9324 15.0411 26.2241 14.9311 26.5029C14.8211 26.7818 14.6688 27.0263 14.4741 27.2365C14.2795 27.4467 14.0426 27.614 13.7676 27.7384C13.4926 27.8628 13.1879 27.9271 12.8537 27.9271H12.8579ZM12.8706 27.4638C13.1202 27.4638 13.3529 27.4167 13.5603 27.3223C13.7718 27.2279 13.9537 27.0949 14.1018 26.9319C14.2499 26.7689 14.3684 26.5759 14.4572 26.3528C14.5418 26.134 14.5841 25.8938 14.5841 25.6407V25.6278C14.5841 25.3747 14.5418 25.1345 14.4572 24.9157C14.3726 24.6926 14.2499 24.4996 14.0976 24.3366C13.941 24.1736 13.7591 24.0406 13.5518 23.9419C13.3402 23.8433 13.1118 23.7961 12.8621 23.7961C12.6125 23.7961 12.3798 23.8433 12.1725 23.9376C11.9652 24.032 11.7832 24.1607 11.6309 24.328C11.4828 24.491 11.3644 24.6841 11.2755 24.9071C11.1909 25.1259 11.1486 25.3661 11.1486 25.6192V25.6321C11.1486 25.8852 11.1909 26.1254 11.2755 26.3442C11.3601 26.5673 11.4828 26.7603 11.6352 26.9233C11.7875 27.0863 11.9736 27.2193 12.181 27.318C12.3925 27.4167 12.621 27.4638 12.8706 27.4638Z" fill="white"/>
<path d="M16.7673 23.41H18.6501C18.9209 23.41 19.162 23.4486 19.3736 23.5258C19.5851 23.603 19.7586 23.7146 19.894 23.8518C20.004 23.9634 20.0844 24.0921 20.1436 24.2379C20.2029 24.3881 20.2325 24.5468 20.2325 24.727V24.7398C20.2325 24.9243 20.2029 25.0916 20.1436 25.2374C20.0844 25.3833 20.004 25.512 19.8982 25.6192C19.7925 25.7265 19.6655 25.8166 19.5217 25.8852C19.3778 25.9538 19.2171 26.0053 19.0478 26.0353L20.3933 27.8499H19.784L18.5147 26.1254H17.2623V27.8499H16.7673V23.41ZM18.612 25.675C18.777 25.675 18.9251 25.6535 19.0647 25.6106C19.2044 25.5678 19.3228 25.5077 19.4244 25.4305C19.5259 25.3533 19.6021 25.2589 19.6613 25.1431C19.7163 25.0315 19.7459 24.9028 19.7459 24.757V24.7441C19.7459 24.4696 19.6486 24.2551 19.4498 24.1006C19.2551 23.9462 18.9759 23.869 18.6205 23.869H17.2666V25.6707H18.6163L18.612 25.675Z" fill="white"/>
<path d="M23.9515 27.9271C23.6173 27.9271 23.3126 27.8671 23.0418 27.7427C22.7668 27.6183 22.5341 27.4553 22.3395 27.2451C22.1449 27.0349 21.9926 26.7946 21.8868 26.5158C21.781 26.237 21.726 25.9495 21.726 25.645V25.6321C21.726 25.3275 21.781 25.0358 21.8868 24.757C21.9968 24.4781 22.1491 24.2336 22.3437 24.0234C22.5384 23.8132 22.7753 23.6459 23.0503 23.5215C23.3253 23.3971 23.63 23.3328 23.9642 23.3328C24.2984 23.3328 24.6031 23.3928 24.8739 23.5172C25.1489 23.6416 25.3816 23.8046 25.5762 24.0148C25.7708 24.225 25.9231 24.4696 26.0289 24.7441C26.1347 25.0187 26.1897 25.3104 26.1897 25.6149C26.1897 25.6192 26.1897 25.6235 26.1897 25.6278C26.1897 25.9324 26.1347 26.2241 26.0247 26.5029C25.9147 26.7818 25.7624 27.0263 25.5677 27.2365C25.3731 27.4467 25.1362 27.614 24.8612 27.7384C24.5861 27.8628 24.2815 27.9271 23.9473 27.9271H23.9515ZM23.9642 27.4638C24.2138 27.4638 24.4465 27.4167 24.6538 27.3223C24.8654 27.2279 25.0473 27.0949 25.1954 26.9319C25.3435 26.7689 25.462 26.5759 25.5508 26.3528C25.6354 26.134 25.6777 25.8938 25.6777 25.6407V25.6278C25.6777 25.3747 25.6354 25.1345 25.5508 24.9157C25.4662 24.6926 25.3435 24.4996 25.1912 24.3366C25.0346 24.1736 24.8527 24.0406 24.6454 23.9419C24.4338 23.8433 24.2054 23.7961 23.9557 23.7961C23.7061 23.7961 23.4734 23.8433 23.2661 23.9376C23.0588 24.032 22.8768 24.1607 22.7245 24.328C22.5764 24.491 22.458 24.6841 22.3691 24.9071C22.2845 25.1259 22.2422 25.3661 22.2422 25.6192V25.6321C22.2422 25.8852 22.2845 26.1254 22.3691 26.3442C22.4537 26.5673 22.5764 26.7603 22.7288 26.9233C22.8811 27.0863 23.0672 27.2193 23.2745 27.318C23.4861 27.4167 23.7146 27.4638 23.9642 27.4638Z" fill="white"/>
<path d="M28.3263 23.41L31.0849 26.9705V23.41H31.5672V27.8499H31.1738L28.3432 24.2079V27.8499H27.8609V23.41H28.3263Z" fill="white"/>
<path d="M33.4331 23.41H33.9281V25.3833H36.4582V23.41H36.9533V27.8499H36.4582V25.8509H33.9281V27.8499H33.4331V23.41Z" fill="white"/>
<path d="M40.8965 23.3757L42.8935 27.8499H42.3604L41.8485 26.6745H39.4622L38.9418 27.8499H38.4341L40.4311 23.3757H40.8965ZM41.6539 26.2284L40.6596 23.9634L39.6569 26.2284H41.6539Z" fill="white"/>
<path d="M7.3915 7.71363C7.30688 7.053 6.93032 6.48675 6.2576 6.01487C5.58488 5.53441 4.84869 5.33279 4.04904 5.40572C3.76133 5.43146 3.49055 5.5001 3.24092 5.60734C2.45819 5.96339 2.04356 6.61973 1.99279 7.56778L2.65705 7.78227C2.35665 8.89761 1.85739 11.0725 1.16352 14.307C0.469637 17.5415 0.0803884 19.3175 0 19.635C0.456944 20.2784 0.888503 20.583 1.29044 20.5573C1.41737 20.5272 1.64585 20.3514 1.97163 20.0296L2.81782 19.0344C5.04754 16.2761 6.49453 13.5177 7.1588 10.7551C7.43381 9.59256 7.5142 8.58017 7.39573 7.72221L7.3915 7.71363ZM3.60055 15.328C3.57517 15.3623 3.54978 15.4095 3.52016 15.461C2.94898 16.4605 2.34819 17.3271 1.71777 18.0606C1.87855 17.0182 2.15356 15.6926 2.54704 14.084C2.94052 12.4753 3.17746 11.4801 3.25361 11.1026C3.334 10.7251 3.46516 10.0902 3.64709 9.1979C3.82903 8.30562 3.8798 7.52059 3.79095 6.83422C4.17173 6.56397 4.65406 6.39666 5.23794 6.33661C5.29294 6.33232 5.35217 6.33232 5.40718 6.33661C5.58911 6.37092 5.69911 6.52965 5.73719 6.82135C6.06298 9.38236 5.35217 12.2222 3.60055 15.3366V15.328Z" fill="white"/>
<path d="M26.4605 5.45291C26.452 5.39285 26.4689 5.33279 26.507 5.26845C26.6212 5.06254 26.5239 4.97245 26.2193 4.9939C25.6566 5.04109 25.2716 5.1612 25.0685 5.36282L18.2143 15.1264C18.2397 14.8218 18.2651 14.44 18.2778 13.9767C18.2947 13.5134 18.4428 12.3723 18.7263 10.5535C19.0097 8.7346 19.0774 7.25033 18.9293 6.10067C18.8828 5.72317 18.739 5.3714 18.5062 5.05396C18.4386 4.95958 18.3582 4.88666 18.2735 4.8266C17.6685 4.44481 16.4204 4.95958 16.9746 5.39714C17.1989 5.57302 17.3512 5.69743 17.402 5.82612L17.5162 6.4653C17.6897 7.82088 17.2581 8.80324 16.2215 9.4081C15.7477 9.68694 15.2569 9.84995 14.7492 9.89714C14.2414 9.94432 13.5772 9.88427 12.7606 9.72125C11.944 9.55395 11.3728 9.48532 11.0471 9.51963C10.7297 9.54108 10.5478 9.40381 10.5055 9.10781C10.4632 8.81182 10.3574 8.6531 10.1839 8.63594C9.73122 8.61878 9.43083 8.72173 9.28274 8.9448C8.80887 9.64833 8.2927 11.2184 7.73421 13.655C7.17149 16.0916 6.93032 17.7775 7.00225 18.7127C7.15456 19.4076 7.52689 19.7508 8.11499 19.7379C8.65233 19.6864 9.29967 19.0087 10.0612 17.7003C10.662 16.7479 10.9921 15.2808 11.0471 13.2947C11.0851 11.9777 11.1105 11.3042 11.1148 11.2699C11.1613 10.7637 11.284 10.4977 11.4786 10.472C11.7748 10.4462 12.2486 10.4977 12.8918 10.6307C13.5349 10.7637 14.0087 10.8152 14.3049 10.7851C15.6588 10.6607 16.6615 10.0988 17.3089 9.09923C17.4358 8.89332 17.7404 8.104 17.8631 7.47769C17.2623 10.5792 16.7546 13.3204 16.6742 14.0025C16.5854 14.7703 16.4542 15.6712 16.2935 16.7136C16.1284 17.756 16.0523 18.3137 16.0607 18.3952C16.1242 18.9014 16.505 19.1245 17.2031 19.0644C17.4527 19.043 17.6008 18.9443 17.6474 18.7727C17.6516 18.7427 17.6643 18.6826 17.6812 18.6011L17.8462 17.4987C17.9943 17.3485 18.1635 17.1383 18.3624 16.8638C18.557 16.5892 21.1252 13.0029 26.067 6.10925C26.3378 5.73175 26.4732 5.51726 26.4647 5.4572L26.4605 5.45291ZM9.98508 15.1521C9.32082 16.7222 8.81734 17.5244 8.47463 17.5587C8.41962 17.563 8.37731 17.4171 8.3477 17.1126C8.31808 16.8123 8.54655 15.5897 9.02888 13.4577C9.51121 11.3213 9.947 10.236 10.3405 10.2017C10.5182 10.1846 10.6578 10.4677 10.7593 11.0511L10.7763 11.2012C10.9117 12.2651 10.6493 13.5864 9.98508 15.1564V15.1521Z" fill="white"/>
<path d="M41.675 17.1254C41.4254 17.074 41.2012 17.1726 41.0065 17.4257C40.3803 18.2108 39.8261 18.7899 39.3395 19.1545C38.853 19.5191 38.2268 19.7379 37.4525 19.8108C36.4667 19.9009 35.6628 19.5063 35.0409 18.6183C34.6728 18.0906 34.4485 17.5244 34.3724 16.9238C34.1566 15.2336 34.4274 13.6378 35.189 12.1407C35.5063 11.5315 35.8871 10.9782 36.3313 10.4805C38.0533 8.18122 39.1914 6.57254 39.7415 5.66311C40.2957 4.75367 40.5454 4.09733 40.4946 3.70696C40.3973 3.07636 39.7922 2.8104 38.6837 2.90906C37.901 2.98199 37.2367 3.53966 36.6952 4.58208C35.9378 5.97626 34.9774 8.61878 33.8054 12.5053C33.5939 12.8013 33.3273 13.1445 33.01 13.5392C31.9565 14.8433 31.1441 15.5253 30.5772 15.5768C30.4164 15.5854 30.3149 15.4395 30.2683 15.1436C30.1583 14.2856 30.5053 12.2522 31.3092 9.03489C31.3261 8.97912 31.3769 8.8633 31.4657 8.6917C31.5546 8.51582 31.5926 8.39142 31.5842 8.32278C31.5757 8.24985 31.4953 8.17264 31.3515 8.08684C31.2034 8.00105 31.0172 7.97102 30.7887 7.99247C30.5603 8.01392 30.3826 8.09113 30.2556 8.22412C30.1287 8.3571 29.9976 8.43003 29.8664 8.4429L29.0329 8.43003C28.1613 8.53298 27.2982 9.00915 26.4435 9.85424C25.3562 10.9396 24.455 12.4238 23.7315 14.307C23.283 15.4739 23.0799 16.2117 23.1265 16.5206C23.173 16.8294 23.2619 17.0568 23.4057 17.2112C23.7103 17.5201 24.1461 17.6488 24.7173 17.5973C24.8315 17.5802 24.9669 17.5287 25.1193 17.4429C25.6016 17.1598 26.3758 16.2503 27.4463 14.7103C28.5167 13.1702 29.1387 12.2737 29.3164 12.0163C29.2825 12.1922 29.1937 12.6469 29.0456 13.3762C28.9017 14.1097 28.8594 14.7146 28.9187 15.195C29.0371 16.1388 29.5322 16.5721 30.3953 16.4905C31.3092 16.4048 32.278 15.727 33.3019 14.4529C33.1454 15.3323 33.1116 16.1731 33.2131 16.9796C33.5473 19.6049 35.1043 20.7889 37.8883 20.5315C38.8276 20.4457 39.7838 20.1026 40.7611 19.5106C41.7343 18.9143 42.1785 18.2708 42.0897 17.5716C42.06 17.3356 41.9204 17.1941 41.6666 17.1512L41.675 17.1254ZM25.0177 16.1002C24.9077 14.8089 25.3096 13.4577 26.2151 12.042C27.1459 10.5878 28.339 9.69123 29.7945 9.35233C28.4448 11.42 26.8539 13.6722 25.0177 16.1002ZM37.1225 6.50391C37.9306 4.98103 38.4806 4.13165 38.7684 3.95577C38.7853 3.93861 38.8276 3.93003 38.891 3.92574C38.9545 3.92574 38.5653 4.93813 37.6218 6.64547C36.6783 8.35281 36.1325 9.21506 35.9971 9.23651C35.9759 9.22364 35.9632 9.20648 35.9632 9.18503C35.9294 8.91906 36.3186 8.0225 37.1267 6.50391H37.1225Z" fill="white"/>
<path d="M47.3911 11.1455C47.3657 11.1798 47.3064 11.2398 47.2091 11.3299C47.1118 11.42 46.7141 11.8275 46.0118 12.5525C45.3137 13.2775 44.6409 13.8695 43.9978 14.3285C43.3547 14.7875 42.7666 15.0449 42.2208 15.0964C41.675 15.1478 41.345 15.0191 41.2223 14.7189C41.1758 14.5902 41.125 14.2813 41.0615 13.8008C41.0023 13.3204 41.0615 12.634 41.2562 11.7503C42.0516 11.2055 42.8132 10.502 43.5409 9.63975C44.2686 8.7775 44.7806 8.03107 45.0767 7.39619C45.1106 7.24175 45.1275 7.13451 45.119 7.06587C45.064 6.62402 44.734 6.32803 44.1332 6.18217C43.8794 6.12212 43.6382 6.10496 43.414 6.12641C42.9147 6.17359 42.462 6.45672 42.06 6.9715C41.1377 8.03965 40.4988 9.19361 40.1434 10.4376C39.7922 11.6817 39.6569 12.6297 39.7415 13.2904C39.8896 14.4572 40.3465 15.2379 41.1165 15.6455C41.5269 15.8557 41.9966 15.9372 42.5339 15.8857C43.6636 15.7784 44.8821 15.0578 46.1979 13.7151C47.0272 12.87 47.6238 12.0892 47.9876 11.3685C48.1061 11.1326 48.1611 10.9653 48.1484 10.8666C48.0596 10.6092 47.8057 10.7036 47.3868 11.1498L47.3911 11.1455ZM42.4408 8.6102C42.9443 7.85948 43.2828 7.40047 43.452 7.23317C43.507 7.29752 43.5366 7.35329 43.5451 7.40476C43.5874 7.75224 43.342 8.26272 42.8047 8.93622C42.2674 9.60972 41.9035 9.96577 41.7216 10.0044C41.7004 9.8285 41.9416 9.36091 42.4451 8.6102H42.4408Z" fill="white"/>
</svg>
