<svg width="94" height="21" viewBox="0 0 94 21" fill="none" xmlns="http://www.w3.org/2000/svg">
<path d="M25.2182 4.05766C25.2175 3.92089 25.2444 3.78534 25.2972 3.65885C25.3501 3.53236 25.4279 3.41744 25.5261 3.32073C25.6243 3.22401 25.7411 3.14743 25.8696 3.09539C25.998 3.04336 26.1357 3.0169 26.2747 3.01757C26.4125 3.0174 26.549 3.04435 26.6761 3.09681C26.8032 3.14927 26.9184 3.2262 27.0149 3.32308C27.1115 3.41996 27.1873 3.53484 27.2382 3.66099C27.289 3.78713 27.3137 3.92199 27.3108 4.05766C27.3138 4.19342 27.2892 4.32839 27.2385 4.45465C27.1877 4.58091 27.1118 4.69591 27.0153 4.7929C26.9188 4.88988 26.8035 4.9669 26.6763 5.01943C26.5492 5.07195 26.4126 5.09893 26.2747 5.09876C26.1356 5.09942 25.9979 5.07294 25.8693 5.02084C25.7408 4.96875 25.624 4.89207 25.5257 4.79525C25.4275 4.69843 25.3497 4.58339 25.2969 4.45678C25.2441 4.33018 25.2173 4.19452 25.2182 4.05766ZM25.3949 7.59899C25.3949 7.42498 25.4731 7.32897 25.6499 7.32897H26.8821C26.9192 7.32479 26.9566 7.32891 26.9918 7.34102C27.0269 7.35313 27.0589 7.37291 27.0852 7.39889C27.1114 7.42486 27.1314 7.45636 27.1436 7.49101C27.1558 7.52567 27.1598 7.56258 27.1554 7.59899V16.4998C27.1598 16.5362 27.1558 16.5732 27.1436 16.6078C27.1314 16.6425 27.1114 16.674 27.0852 16.6999C27.0589 16.7259 27.0269 16.7457 26.9918 16.7578C26.9566 16.7699 26.9192 16.774 26.8821 16.7699H25.6489C25.4721 16.7699 25.3939 16.6698 25.3939 16.4998L25.3949 7.59899Z" fill="white"/>
<path d="M31.3967 15.0937L31.3571 16.4998C31.3571 16.6738 31.2788 16.7698 31.1031 16.7698H29.9663C29.9293 16.774 29.8918 16.7699 29.8566 16.7578C29.8214 16.7457 29.7894 16.7259 29.7631 16.6999C29.7367 16.674 29.7166 16.6425 29.7043 16.6079C29.692 16.5732 29.6878 16.5363 29.692 16.4998V3.26859C29.6878 3.23212 29.692 3.19519 29.7043 3.16054C29.7166 3.12589 29.7367 3.09442 29.7631 3.06847C29.7894 3.04252 29.8214 3.02276 29.8566 3.01065C29.8918 2.99855 29.9293 2.99442 29.9663 2.99856H31.1986C31.2356 2.99442 31.2731 2.99855 31.3083 3.01065C31.3435 3.02276 31.3755 3.04252 31.4019 3.06847C31.4282 3.09442 31.4483 3.12589 31.4606 3.16054C31.4729 3.19519 31.4771 3.23212 31.4729 3.26859V8.93012C32.1596 7.79901 33.3522 7.09894 34.937 7.09894C37.6961 7.09894 39.61 9.23614 39.61 12.0484C39.61 14.8797 37.693 16.9979 34.937 16.9979C33.2943 16.9999 32.0997 16.2678 31.3967 15.0937ZM34.6241 15.3997C36.5217 15.3997 37.8911 14.0516 37.8911 12.0484C37.8901 10.0662 36.5217 8.69909 34.6241 8.69909C32.7458 8.69909 31.4353 10.0662 31.4353 12.0694C31.4353 14.0726 32.7458 15.3997 34.6241 15.3997Z" fill="white"/>
<path d="M41.468 4.05766C41.4675 3.92092 41.4944 3.78544 41.5473 3.65901C41.6002 3.53258 41.678 3.41771 41.7763 3.32102C41.8745 3.22433 41.9912 3.14774 42.1196 3.09566C42.248 3.04358 42.3856 3.01703 42.5245 3.01756C42.6624 3.01727 42.799 3.04411 42.9263 3.09651C43.0535 3.14892 43.1688 3.22583 43.2655 3.32272C43.3621 3.41961 43.4381 3.53454 43.4889 3.66075C43.5398 3.78696 43.5646 3.9219 43.5617 4.05766C43.5647 4.1935 43.5401 4.32855 43.4892 4.45488C43.4384 4.5812 43.3625 4.69625 43.2658 4.79325C43.1692 4.89025 43.0538 4.96725 42.9265 5.01972C42.7992 5.07218 42.6625 5.09906 42.5245 5.09876C42.3855 5.09929 42.2478 5.07271 42.1193 5.02057C41.9909 4.96842 41.8741 4.89174 41.7759 4.79495C41.6777 4.69815 41.5999 4.58317 41.547 4.45662C41.4942 4.33008 41.4673 4.19448 41.468 4.05766ZM41.6488 7.59899C41.6488 7.42497 41.7271 7.32897 41.9028 7.32897H43.1351C43.1721 7.32482 43.2096 7.32895 43.2448 7.34106C43.28 7.35316 43.312 7.37293 43.3383 7.39888C43.3647 7.42483 43.3848 7.4563 43.3971 7.49095C43.4094 7.52559 43.4135 7.56252 43.4093 7.59899V16.4998C43.4135 16.5363 43.4094 16.5732 43.3971 16.6079C43.3848 16.6425 43.3647 16.674 43.3383 16.6999C43.312 16.7259 43.28 16.7457 43.2448 16.7578C43.2096 16.7699 43.1721 16.774 43.1351 16.7698H41.8987C41.723 16.7698 41.6448 16.6698 41.6448 16.4998L41.6488 7.59899Z" fill="white"/>
<path d="M45.9449 16.4998V7.59899C45.9407 7.56253 45.9449 7.52559 45.9572 7.49095C45.9695 7.4563 45.9896 7.42483 46.016 7.39888C46.0423 7.37293 46.0743 7.35316 46.1095 7.34106C46.1447 7.32895 46.1822 7.32482 46.2192 7.32897H47.3732C47.5683 7.32897 47.6465 7.40597 47.6465 7.61799L47.7054 8.8121C48.252 7.85201 49.2678 7.09894 50.816 7.09894C52.8701 7.09894 54.2984 8.46607 54.2984 10.9503V16.4998C54.3026 16.5363 54.2984 16.5732 54.2861 16.6079C54.2738 16.6425 54.2538 16.674 54.2274 16.6999C54.201 16.7259 54.1691 16.7457 54.1339 16.7578C54.0987 16.7699 54.0612 16.774 54.0241 16.7698H52.7919C52.6161 16.7698 52.5379 16.6698 52.5379 16.4998V11.2223C52.5379 9.64318 51.7161 8.69909 50.2492 8.69909C48.7823 8.69909 47.7095 9.64318 47.7095 11.2223V16.4998C47.7095 16.6738 47.6313 16.7698 47.4555 16.7698H46.2202C46.1831 16.7742 46.1455 16.7701 46.1102 16.7581C46.0748 16.7461 46.0427 16.7263 46.0163 16.7004C45.9898 16.6744 45.9696 16.6429 45.9573 16.6081C45.9449 16.5734 45.9407 16.5364 45.9449 16.4998Z" fill="white"/>
<path d="M56.3302 12.0114C56.3302 9.23815 58.3091 7.09894 61.1809 7.09894C64.0375 7.09894 65.7005 9.23614 65.7005 11.5664C65.7005 12.3374 65.5441 12.6835 64.898 12.6835H58.051C58.2664 14.3836 59.4986 15.5727 61.6066 15.5727C62.5405 15.5916 63.4548 15.3073 64.2082 14.7637C64.3261 14.6867 64.4429 14.6867 64.5221 14.7827L64.9518 15.3827C65.089 15.5367 65.0301 15.6527 64.8736 15.7878C64.0375 16.5998 62.8053 16.9999 61.4583 16.9999C58.3253 16.9999 56.3302 14.7847 56.3302 12.0114ZM64.1351 11.3993C64.0335 9.70519 62.9028 8.58808 61.1809 8.58808C59.459 8.58808 58.2471 9.64318 58.051 11.3993H64.1351Z" fill="white"/>
<path d="M66.7712 16.4408L69.7447 11.9544L66.9074 7.65899C66.7905 7.46697 66.8495 7.33196 67.0841 7.33196H68.4332C68.5018 7.3278 68.5702 7.34383 68.6295 7.37803C68.6888 7.41222 68.7365 7.46303 68.7664 7.52397L70.7981 10.7243L72.8299 7.52397C72.8598 7.46303 72.9074 7.41222 72.9668 7.37803C73.0261 7.34383 73.0945 7.3278 73.1631 7.33196H74.5325C74.7478 7.33196 74.8057 7.46697 74.6889 7.65899L71.8516 11.9594L74.8261 16.4458C74.9622 16.6388 74.884 16.7738 74.6493 16.7738H73.3043C73.2356 16.7781 73.1673 16.762 73.1081 16.7276C73.0488 16.6932 73.0015 16.642 72.9721 16.5808L70.8042 13.1675L68.6323 16.5758C68.6029 16.637 68.5556 16.6882 68.4963 16.7226C68.4371 16.757 68.3688 16.7731 68.3001 16.7688H66.9439C66.7316 16.7688 66.6534 16.6338 66.7712 16.4408Z" fill="white"/>
<path d="M75.9141 12.0504C75.9141 9.23814 78.0464 7.09894 80.8613 7.09894C83.6763 7.09894 85.7913 9.23614 85.7913 12.0484C85.7913 14.8607 83.6804 16.9999 80.8613 16.9999C78.0423 16.9999 75.9141 14.8617 75.9141 12.0504ZM80.8613 15.3817C82.7001 15.3817 84.0887 14.0336 84.0887 12.0504C84.0887 10.0672 82.7021 8.69909 80.8613 8.69909C79.0033 8.69909 77.6339 10.0662 77.6339 12.0504C77.6339 14.0346 79.0053 15.3817 80.8613 15.3817Z" fill="white"/>
<path d="M87.4127 15.5357C87.2755 15.3817 87.2948 15.2277 87.4127 15.0357L87.8038 14.4966C87.9409 14.3226 88.1167 14.3226 88.2731 14.4766C88.9192 15.0937 89.6232 15.4977 90.5812 15.4977C91.5788 15.4977 92.2634 15.0737 92.2634 14.2076C92.2634 13.4365 91.7555 13.0905 90.8941 12.7435L89.74 12.2624C88.5667 11.7804 87.6067 11.0493 87.6067 9.72019C87.6067 8.08304 89.0157 7.10095 90.6543 7.10095C91.2123 7.09343 91.7647 7.21089 92.2698 7.44444C92.7749 7.67799 93.2194 8.02152 93.5699 8.44907C93.6172 8.50639 93.6415 8.5789 93.6379 8.65273C93.6344 8.72655 93.6032 8.79648 93.5505 8.84911L93.0802 9.38816C92.9238 9.58118 92.7866 9.56218 92.6109 9.38816C92.0014 8.7881 91.3979 8.52208 90.7325 8.52208C89.931 8.52208 89.2849 8.92212 89.2849 9.67719C89.2849 10.4673 89.8721 10.7773 90.7325 11.1023L91.789 11.5264C93.0223 12.0264 94.0239 12.7785 93.9996 14.2416C93.9996 16.0328 92.4351 16.9959 90.6543 16.9959C89.095 16.9999 88.0192 16.2678 87.4127 15.5357Z" fill="white"/>
<path d="M19.571 19.2681C19.1663 19.6662 18.637 19.9182 18.0688 19.9833C17.5005 20.0483 16.9266 19.9225 16.44 19.6264C15.9534 19.3302 15.5826 18.881 15.3877 18.3514C15.1929 17.8219 15.1853 17.2431 15.3663 16.7088C15.4033 16.6026 15.4094 16.4883 15.3837 16.3788C15.358 16.2694 15.3016 16.1692 15.221 16.0898L14.6938 15.5717C14.6095 15.4887 14.5022 15.4318 14.3854 15.4082C14.2686 15.3845 14.1473 15.3951 14.0365 15.4387C13.5483 15.6227 13.0181 15.6714 12.5038 15.5796C11.9894 15.4877 11.5104 15.2588 11.1189 14.9177C11.0301 14.8398 10.9203 14.7889 10.8028 14.7712C10.6853 14.7534 10.565 14.7696 10.4566 14.8177L5.43312 17.0619C5.32969 17.1093 5.24168 17.184 5.17889 17.2778C5.11611 17.3716 5.08103 17.4807 5.07756 17.5929C5.05616 18.1559 4.84225 18.6952 4.47051 19.1235C4.09877 19.5519 3.591 19.844 3.0295 19.9527C2.46799 20.0613 1.88567 19.9801 1.37692 19.7222C0.868167 19.4643 0.46281 19.0447 0.226552 18.5316C-0.00970562 18.0185 -0.0630158 17.4419 0.0752627 16.8952C0.213541 16.3486 0.535303 15.8639 0.988393 15.5198C1.44148 15.1757 1.99934 14.9923 2.57155 14.9993C3.14375 15.0064 3.69676 15.2035 4.14093 15.5587C4.23093 15.629 4.33898 15.6733 4.45305 15.6868C4.56712 15.7002 4.68274 15.6822 4.78703 15.6347L9.80135 13.3915C9.90947 13.343 10.0008 13.2644 10.0642 13.1654C10.1275 13.0665 10.1601 12.9514 10.1579 12.8345V12.8115C10.1575 12.3945 10.2514 11.9826 10.4329 11.6058C10.6144 11.229 10.879 10.8968 11.2073 10.6333C11.2994 10.5597 11.3676 10.4613 11.4037 10.3501C11.4398 10.2389 11.4421 10.1197 11.4105 10.0072L10.1305 5.38678C10.1014 5.27922 10.0424 5.18175 9.96027 5.10527C9.8781 5.0288 9.77595 4.97633 9.66523 4.95374C9.10294 4.8452 8.59447 4.55265 8.22243 4.12364C7.85038 3.69463 7.63664 3.15437 7.61592 2.59065C7.5952 2.02693 7.76872 1.47287 8.10829 1.01851C8.44787 0.564151 8.93353 0.236189 9.48637 0.0879178C10.0392 -0.0603539 10.6267 -0.0202223 11.1535 0.201792C11.6802 0.423806 12.1152 0.814655 12.3878 1.31083C12.6604 1.807 12.7545 2.37934 12.6549 2.93484C12.5553 3.49035 12.2678 3.99637 11.8392 4.37069C11.7556 4.44442 11.6947 4.5397 11.6633 4.64574C11.6319 4.75178 11.6312 4.86435 11.6614 4.97074L12.9434 9.58917C12.9735 9.70236 13.0366 9.80442 13.1249 9.88278C13.2131 9.96114 13.3227 10.0124 13.4402 10.0302C13.8626 10.0932 14.2654 10.2485 14.6188 10.4849C14.9722 10.7213 15.2673 11.0326 15.4824 11.396C15.6974 11.7595 15.827 12.1657 15.8616 12.585C15.8962 13.0042 15.8349 13.4257 15.6822 13.8186C15.6384 13.9278 15.6277 14.0471 15.6516 14.1622C15.6754 14.2772 15.7326 14.383 15.8163 14.4666L16.3435 14.9847C16.4242 15.0639 16.5257 15.1193 16.6367 15.1445C16.7476 15.1698 16.8636 15.164 16.9713 15.1277C17.5143 14.9491 18.1025 14.9563 18.6407 15.1481C19.179 15.3399 19.6356 15.7051 19.9366 16.1844C20.2375 16.6638 20.3652 17.2292 20.2988 17.7889C20.2325 18.3486 19.976 18.8699 19.571 19.2681Z" fill="white" fill-opacity="0.75"/>
</svg>
