<svg width="57" height="32" viewBox="0 0 57 32" fill="none" xmlns="http://www.w3.org/2000/svg">
<path d="M22.441 5.509C22.4318 5.39289 22.3988 5.28414 22.3419 5.18093C22.2869 5.0814 22.2209 5.00767 22.1438 4.96528C22.0613 4.92289 21.9806 4.91367 21.8852 4.94316C21.7954 4.97265 21.7091 5.05928 21.6321 5.19752C21.6028 5.25834 21.5716 5.36155 21.5459 5.49979C21.5202 5.63802 21.5037 5.79837 21.4909 5.97531C21.4817 6.15594 21.478 6.3421 21.478 6.54115C21.478 6.74021 21.4817 6.92637 21.4909 7.10699C21.5037 7.28393 21.5202 7.44429 21.5459 7.58252C21.5716 7.72076 21.6009 7.82397 21.6321 7.88479C21.7091 8.02303 21.7954 8.10965 21.8852 8.13915C21.9806 8.16864 22.0613 8.16126 22.1438 8.11703C22.2209 8.07464 22.2851 8.00091 22.3419 7.90138C22.3969 7.79817 22.4318 7.68942 22.441 7.57331V7.55672C22.441 7.55672 22.4446 7.5475 22.4501 7.54013C22.4501 7.50142 22.463 7.47562 22.485 7.4535C22.507 7.43691 22.5327 7.42401 22.5583 7.42401C22.5877 7.42401 22.6134 7.43323 22.6409 7.44613C22.6666 7.45903 22.6794 7.48484 22.6831 7.51985V8.31977C22.6831 8.37138 22.6611 8.39718 22.6189 8.39718C22.5675 8.39718 22.5418 8.37138 22.5418 8.31977C22.5382 8.26816 22.5327 8.22024 22.529 8.18154C22.5198 8.13914 22.4941 8.12993 22.4428 8.14652C22.3474 8.24236 22.2319 8.31056 22.098 8.34926C21.9604 8.39165 21.8229 8.40456 21.6853 8.39718C21.5477 8.38428 21.4139 8.34558 21.2946 8.28107C21.1736 8.21103 21.08 8.12071 21.0103 8.0046C20.915 7.83687 20.8471 7.61938 20.8031 7.36135C20.7554 7.09778 20.7334 6.825 20.7334 6.54484C20.7334 6.26469 20.7554 5.9919 20.8031 5.72834C20.8453 5.46846 20.915 5.25281 21.0103 5.08508C21.08 4.96897 21.1736 4.87681 21.2946 4.80862C21.4157 4.74411 21.5477 4.7054 21.6853 4.6925C21.8229 4.68328 21.9604 4.69619 22.098 4.74042C22.2319 4.77913 22.3474 4.84916 22.4428 4.94316C22.4941 4.95975 22.5198 4.95238 22.529 4.91367C22.5327 4.87128 22.5382 4.82705 22.5418 4.77175C22.5418 4.72015 22.5675 4.69434 22.6189 4.69434C22.6611 4.69434 22.6831 4.72015 22.6831 4.77175V5.57167C22.6794 5.60669 22.6666 5.63249 22.6409 5.6454C22.6152 5.6583 22.5895 5.66751 22.5583 5.66751C22.5327 5.66751 22.507 5.6583 22.485 5.63802C22.463 5.61775 22.4501 5.5901 22.4501 5.5514C22.4465 5.54218 22.441 5.53849 22.441 5.53481V5.51822V5.509ZM21.5001 8.01934C21.4524 7.8166 21.4139 7.58805 21.3882 7.32817C21.3625 7.06829 21.3533 6.80472 21.3588 6.53378C21.3588 6.261 21.3753 5.99743 21.401 5.74308C21.4304 5.48873 21.4707 5.25834 21.5257 5.05559C21.5221 5.0685 21.5166 5.07771 21.5129 5.07771C21.5129 5.0814 21.5092 5.08693 21.5001 5.09983C21.4579 5.16065 21.4175 5.26755 21.3845 5.41869C21.3552 5.56614 21.3295 5.73755 21.3111 5.93292C21.2946 6.12276 21.2855 6.32551 21.2855 6.53747C21.2855 6.74943 21.2946 6.95217 21.3075 7.14201C21.3203 7.33554 21.3423 7.5088 21.3717 7.65625C21.4065 7.80738 21.4414 7.91613 21.4872 7.97511C21.4909 7.98801 21.4909 7.99169 21.4909 7.99722C21.4909 8.00275 21.4946 8.00644 21.5001 8.01934ZM24.8015 8.06726C24.8015 8.1373 24.8051 8.18891 24.8051 8.22761C24.8088 8.26632 24.8051 8.29765 24.7923 8.31424C24.7831 8.32714 24.7629 8.34005 24.7318 8.34005C24.7024 8.34373 24.6492 8.34373 24.585 8.34373H22.9765C22.9288 8.34373 22.9032 8.31793 22.9032 8.27001C22.9032 8.22761 22.9288 8.19997 22.9765 8.19997C23.1049 8.19997 23.1691 8.13914 23.1691 8.01934V5.07218C23.1691 4.94685 23.1049 4.88234 22.9765 4.88234C22.9288 4.88234 22.9032 4.86022 22.9032 4.8123C22.9032 4.76438 22.9288 4.73858 22.9765 4.73858H24.6584C24.7098 4.73858 24.7354 4.76438 24.7354 4.8123V5.49979C24.7354 5.54218 24.7098 5.5643 24.6621 5.5643C24.6107 5.5643 24.585 5.54218 24.585 5.49979C24.585 5.32653 24.5502 5.19383 24.4768 5.10167C24.4071 5.01136 24.3264 4.95054 24.2439 4.92842C24.1577 4.9063 24.0807 4.91552 24.0073 4.95054C23.9339 4.98924 23.8991 5.04638 23.8991 5.13116V6.69598C23.9761 6.70519 24.0403 6.68676 24.0917 6.63515C24.143 6.58723 24.1687 6.4877 24.1687 6.34578C24.1687 6.29418 24.1907 6.26837 24.2421 6.26837C24.2842 6.26837 24.3063 6.29418 24.3063 6.34578V7.09778C24.3063 7.14017 24.2842 7.16229 24.2421 7.16229C24.1907 7.16229 24.1687 7.14017 24.1687 7.09778C24.1687 7.02405 24.1559 6.96876 24.1338 6.93374C24.1118 6.89872 24.0862 6.87292 24.0605 6.8637C24.0348 6.8508 24.0055 6.84711 23.9743 6.84711H23.8972V7.93087C23.8972 8.00828 23.9358 8.06911 24.0183 8.10781C24.0953 8.14652 24.1815 8.16311 24.2769 8.15573C24.3668 8.14652 24.453 8.11334 24.5263 8.0562C24.6034 8.0046 24.6346 7.91797 24.6254 7.79632C24.6089 7.80554 24.5832 7.80554 24.5484 7.80554C24.4842 7.80554 24.4236 7.78342 24.3759 7.7355C24.3283 7.68758 24.3063 7.63229 24.3063 7.56225C24.3063 7.49774 24.3283 7.43691 24.3759 7.38899C24.4236 7.33739 24.4842 7.31158 24.5484 7.31158C24.6437 7.31158 24.7079 7.3466 24.7464 7.40742C24.7813 7.47193 24.7978 7.54566 24.7978 7.62307V8.06358L24.8015 8.06726ZM23.7358 8.02856V5.06481H23.6533V8.02119L23.7358 8.0304V8.02856ZM27.5105 8.45248C27.5801 8.45248 27.6315 8.47459 27.6608 8.50777C27.6957 8.54279 27.7159 8.58518 27.725 8.63679C27.7342 8.6884 27.7287 8.74 27.7214 8.80083C27.7085 8.85612 27.692 8.91326 27.67 8.96487C27.6223 9.07361 27.5453 9.15471 27.4426 9.21184C27.3399 9.26345 27.2353 9.28557 27.1253 9.28188C27.0171 9.2782 26.9144 9.24318 26.8153 9.18604C26.7163 9.12522 26.6429 9.04412 26.6044 8.93169C26.5567 8.79714 26.5274 8.6202 26.5182 8.40087C26.509 8.18154 26.5017 7.96036 26.4888 7.74472C26.4797 7.52907 26.454 7.33923 26.4192 7.17519C26.3806 7.01484 26.3109 6.92452 26.2082 6.90794H26.0156V8.01381C26.0156 8.13914 26.0798 8.20365 26.2082 8.20365C26.2559 8.20365 26.2816 8.22946 26.2816 8.27369C26.2816 8.32161 26.2559 8.34742 26.2082 8.34742H25.0986C25.0472 8.34742 25.0252 8.32161 25.0252 8.27369C25.0252 8.2313 25.0472 8.20365 25.0986 8.20365C25.227 8.20365 25.2912 8.13915 25.2912 8.0046V5.06665C25.2912 4.94501 25.227 4.88603 25.0986 4.88603C25.0472 4.88603 25.0252 4.86022 25.0252 4.80862C25.0252 4.76622 25.0472 4.74411 25.0986 4.74411H26.5897C26.753 4.74411 26.8997 4.80862 27.0189 4.93763C27.1436 5.07218 27.2115 5.23069 27.239 5.42975C27.2427 5.47767 27.2482 5.53849 27.2482 5.60669C27.2518 5.67673 27.2518 5.74861 27.2518 5.82234C27.2518 5.89237 27.2518 5.96426 27.2482 6.0343C27.2482 6.10433 27.2445 6.16331 27.239 6.21492C27.2262 6.34947 27.1785 6.46559 27.0978 6.57433C27.0116 6.67755 26.918 6.76417 26.8062 6.825C26.8575 6.8508 26.896 6.88951 26.9309 6.93374C26.9859 7.00747 27.0299 7.10699 27.0556 7.23601C27.0813 7.36135 27.1033 7.50327 27.1161 7.65993C27.1253 7.81107 27.1326 7.96589 27.1326 8.13177C27.1363 8.29212 27.1455 8.43773 27.1583 8.57228C27.1711 8.7013 27.1931 8.81004 27.2225 8.89667C27.2482 8.9833 27.2959 9.02569 27.3564 9.02569C27.4114 9.02938 27.4646 9.0091 27.5105 8.95196C27.4463 8.95196 27.3894 8.92616 27.3435 8.87824C27.2959 8.83032 27.2702 8.77502 27.2702 8.71051C27.2702 8.64048 27.2959 8.5815 27.3435 8.53357C27.3912 8.48197 27.4463 8.45616 27.5105 8.45616V8.45248ZM26.9731 5.36708C26.9767 5.41869 26.9822 5.47951 26.9859 5.56061C26.9859 5.63802 26.9896 5.71543 26.9896 5.79837C26.9896 5.87579 26.9859 5.9532 26.9859 6.03245C26.9822 6.10618 26.9767 6.17437 26.9731 6.22598C26.9639 6.29602 26.951 6.355 26.9309 6.41582C26.9089 6.47665 26.8832 6.53194 26.8575 6.58908C26.9052 6.53378 26.9474 6.47296 26.9822 6.40292C27.0116 6.33841 27.0336 6.26469 27.0464 6.18727C27.0593 6.09143 27.0629 5.9661 27.0629 5.82049C27.0629 5.67489 27.0593 5.54402 27.0464 5.44818C27.0299 5.30995 26.9822 5.18461 26.896 5.07218C26.9345 5.1625 26.9602 5.25834 26.9731 5.36524V5.36708ZM25.8212 8.02856V5.06481H25.7387V8.02856H25.8212ZM26.5916 6.1541C26.5952 6.11539 26.6007 6.06747 26.6007 6.00665V5.63987C26.6007 5.57904 26.5971 5.53112 26.5916 5.49242C26.5787 5.34497 26.5439 5.22885 26.4833 5.13854C26.4283 5.04269 26.3623 4.98371 26.2908 4.94869C26.2192 4.91367 26.1532 4.90999 26.0982 4.92658C26.0432 4.94869 26.0156 4.99661 26.0156 5.06481V6.74206C26.1917 6.74206 26.3293 6.68676 26.4283 6.57433C26.5237 6.4619 26.5787 6.32367 26.5916 6.15594V6.1541ZM26.6741 6.90609C26.7291 6.97613 26.7695 7.07013 26.7951 7.19546C26.8208 7.3208 26.8373 7.45903 26.8557 7.60648C26.8685 7.75393 26.8777 7.90507 26.8777 8.05989C26.8813 8.22024 26.8905 8.36216 26.8997 8.49118C26.9125 8.6202 26.929 8.73263 26.951 8.82847C26.9731 8.91879 27.0116 8.9704 27.0666 8.98883C27.0152 8.90589 26.9841 8.77318 26.9767 8.58702C26.9639 8.4064 26.9547 8.20734 26.9474 7.99907C26.9382 7.79079 26.9217 7.58805 26.896 7.39821C26.8703 7.21205 26.8227 7.07013 26.7493 6.97429L26.6759 6.89688V6.90609H26.6741ZM29.7481 4.74042C29.7994 4.74042 29.8251 4.76622 29.8251 4.81415C29.8251 4.86207 29.7994 4.88418 29.7481 4.88418C29.6655 4.88418 29.6142 4.90077 29.5977 4.93948C29.5757 4.97818 29.5628 5.02979 29.55 5.09061C29.4344 5.60853 29.3171 6.12277 29.2052 6.63331C29.0896 7.14386 28.9649 7.65256 28.831 8.16311C28.809 8.24052 28.7705 8.29765 28.7155 8.33083C28.6604 8.36954 28.6036 8.38612 28.5394 8.38244C28.4752 8.37875 28.4147 8.35663 28.3633 8.31793C28.312 8.27922 28.2771 8.22762 28.2606 8.16311C28.1322 7.64887 28.0075 7.13464 27.8901 6.62409C27.7691 6.11355 27.6498 5.60485 27.5251 5.09061C27.5123 5.02979 27.4903 4.97818 27.4701 4.93948C27.4481 4.90077 27.3967 4.88418 27.3197 4.88418C27.2775 4.88418 27.2555 4.86207 27.2555 4.81415C27.2555 4.76622 27.2775 4.74042 27.3197 4.74042H28.4385C28.4807 4.74042 28.5027 4.76622 28.5027 4.81415C28.5027 4.86207 28.4807 4.88418 28.4385 4.88418C28.3688 4.88418 28.3175 4.90077 28.2881 4.93579C28.2533 4.9745 28.2404 5.02242 28.2533 5.08324C28.3358 5.43344 28.4202 5.78363 28.5027 6.13382C28.5852 6.48402 28.6696 6.83421 28.7521 7.18441C28.8292 6.83421 28.9117 6.48033 28.9924 6.13014C29.0786 5.77994 29.1557 5.42975 29.2327 5.07587C29.2455 5.01505 29.2327 4.96712 29.1978 4.93395C29.1593 4.90446 29.1116 4.88603 29.0511 4.88603C28.9998 4.88603 28.9741 4.86391 28.9741 4.81599C28.9741 4.76807 28.9998 4.74226 29.0511 4.74226H29.7481V4.74042ZM28.5907 7.44982L28.0368 5.06481H27.9506L28.5651 7.71707L28.5907 7.44982ZM33.4071 4.74042C33.4585 4.74042 33.4842 4.76622 33.4842 4.81415C33.4842 4.86207 33.4585 4.88418 33.4071 4.88418C33.3594 4.88418 33.3173 4.90077 33.2732 4.93579C33.2347 4.9745 33.2182 5.01873 33.2182 5.06481C33.2182 5.4832 33.2182 5.90712 33.2219 6.33472C33.2256 6.75864 33.2256 7.18072 33.2256 7.60095C33.2256 8.11518 33.1137 8.54648 32.8862 8.89667C32.6625 9.24686 32.292 9.48463 31.7766 9.60996C31.5107 9.67078 31.2392 9.67447 30.9641 9.62655C30.689 9.57863 30.4432 9.48463 30.2249 9.33349C30.0048 9.18235 29.8288 8.97961 29.7004 8.71973C29.572 8.46538 29.5115 8.15389 29.528 7.79079C29.5445 7.51064 29.6234 7.23786 29.7517 6.9835C29.8856 6.72362 30.069 6.51719 30.302 6.35316V5.07403C30.302 4.94869 30.2378 4.88418 30.1131 4.88418C30.0617 4.88418 30.036 4.86207 30.036 4.81415C30.036 4.76622 30.0617 4.74042 30.1131 4.74042H31.7949C31.8426 4.74042 31.8683 4.76622 31.8683 4.81415V5.50163C31.8683 5.54402 31.8426 5.56614 31.7949 5.56614C31.7528 5.56614 31.7252 5.54402 31.7252 5.50163C31.7252 5.32838 31.6904 5.19567 31.6225 5.10352C31.5492 5.0132 31.4685 4.95238 31.3823 4.93026C31.2961 4.90814 31.2154 4.91736 31.1457 4.95238C31.0723 4.99109 31.0375 5.04822 31.0375 5.13301V6.09143H31.1365C31.1658 6.09143 31.2007 6.09512 31.2355 6.10065C31.3859 6.11355 31.4978 6.15225 31.5748 6.21676C31.6519 6.27759 31.6996 6.34578 31.7161 6.41029C31.7381 6.4748 31.7326 6.53194 31.7032 6.57802C31.6684 6.62041 31.6299 6.62962 31.5748 6.60382C31.3603 6.50061 31.153 6.46927 30.9604 6.50429C30.7678 6.543 30.5954 6.62041 30.445 6.74206C30.2946 6.86739 30.1699 7.01484 30.0709 7.19178C29.9718 7.36872 29.9113 7.54197 29.8856 7.71523C29.8471 8.00091 29.8728 8.25158 29.9553 8.47091C30.0379 8.69208 30.1571 8.87271 30.3075 9.00726C30.4615 9.14549 30.6395 9.24133 30.8412 9.29663C31.043 9.35192 31.241 9.36114 31.4391 9.32243C31.6372 9.28373 31.8169 9.1971 31.9802 9.06255C32.1434 8.928 32.2718 8.73816 32.358 8.49303C32.4057 8.37138 32.435 8.22577 32.4571 8.04883C32.4736 7.87558 32.4864 7.69495 32.4919 7.50511V6.92268C32.4882 6.72915 32.4882 6.54668 32.4882 6.37896V5.07403C32.4882 4.94869 32.424 4.88418 32.303 4.88418C32.2516 4.88418 32.2296 4.86207 32.2296 4.81415C32.2296 4.76622 32.2516 4.74042 32.303 4.74042H33.4071ZM30.81 6.13567L30.8962 6.10986V5.06481H30.81V6.13567ZM33.0495 5.06481H32.9669V7.77789C32.9633 7.98985 32.9248 8.1926 32.8587 8.39165C32.789 8.59071 32.6992 8.78055 32.5836 8.96671C32.6661 8.91142 32.734 8.83216 32.7909 8.73263C32.8459 8.63679 32.8936 8.52989 32.9321 8.42114C32.9706 8.30871 33.0018 8.1926 33.0146 8.07464C33.0311 7.95852 33.0403 7.85346 33.0403 7.75946L33.0495 5.06297V5.06481ZM31.6959 7.31527C31.7913 7.31527 31.85 7.34476 31.8848 7.41111C31.9197 7.47193 31.9362 7.54013 31.9362 7.61938V8.06911C31.9362 8.13914 31.9362 8.19075 31.9398 8.22946C31.9398 8.26816 31.9362 8.2995 31.927 8.31608C31.9142 8.32899 31.8921 8.34189 31.8628 8.34189C31.8335 8.34557 31.7858 8.34557 31.7161 8.34557H30.1131C30.0617 8.34557 30.036 8.32346 30.036 8.28107C30.036 8.22946 30.0617 8.20365 30.1131 8.20365C30.2378 8.20365 30.302 8.14283 30.302 8.0175V7.09225C30.3717 6.97982 30.4744 6.88029 30.6193 6.79919C30.7605 6.71625 30.8981 6.66096 31.0356 6.63147V7.9364C31.0356 8.01381 31.0741 8.07095 31.1512 8.11334C31.2337 8.15205 31.3181 8.16495 31.4134 8.15573C31.5033 8.14652 31.5895 8.11703 31.6629 8.05989C31.7362 8.00275 31.7711 7.91797 31.7583 7.79632C31.7491 7.80554 31.7234 7.80554 31.6941 7.80554C31.6207 7.80554 31.5602 7.78342 31.5143 7.7355C31.4685 7.68758 31.4446 7.62676 31.4446 7.56225C31.4446 7.49221 31.4666 7.43691 31.5143 7.38899C31.562 7.34107 31.6225 7.31527 31.6941 7.31527H31.6959ZM30.8797 8.01934V6.83974L30.7972 6.86923V8.01934H30.8797ZM34.1646 8.19997C34.2068 8.19997 34.2288 8.22577 34.2288 8.27001C34.2288 8.31793 34.2068 8.34373 34.1646 8.34373H33.4548C33.4126 8.34373 33.3906 8.31793 33.3906 8.27001C33.3906 8.22761 33.4126 8.19997 33.4548 8.19997C33.5318 8.19997 33.5832 8.18338 33.6052 8.14467C33.6272 8.10597 33.6474 8.05436 33.6657 7.99354L33.807 7.37609C33.906 7.34107 34.0179 7.32817 34.1389 7.34107L33.9885 7.98432C33.95 8.13177 34.0106 8.19997 34.1646 8.19997ZM36.0042 8.19997C36.0519 8.19997 36.0776 8.22577 36.0776 8.27001C36.0776 8.31793 36.0519 8.34373 36.0042 8.34373H34.8854C34.8377 8.34373 34.8121 8.31793 34.8121 8.27001C34.8121 8.2184 34.8377 8.1926 34.8854 8.1926C34.9368 8.1926 34.9845 8.17969 35.0267 8.14467C35.0688 8.10965 35.0872 8.06726 35.078 8.01013L35.0267 7.74287C34.9441 7.60832 34.8286 7.49589 34.6873 7.40558C34.6103 7.36319 34.5241 7.32264 34.4379 7.28946C34.348 7.25997 34.2582 7.23417 34.1628 7.22495C34.1023 7.22127 34.0417 7.21574 33.9904 7.22127C33.939 7.22127 33.8877 7.23417 33.8363 7.25076L33.8271 7.25997C33.7795 7.27288 33.7318 7.29868 33.6859 7.3337C33.7024 7.39452 33.7079 7.44982 33.6896 7.50142C33.6767 7.54934 33.6547 7.59174 33.6199 7.63044C33.585 7.66546 33.5465 7.69127 33.5043 7.70048C33.4566 7.71338 33.4145 7.7097 33.3704 7.69127C33.3099 7.66546 33.2622 7.61385 33.2329 7.54013C33.2035 7.47009 33.2072 7.39268 33.2549 7.31527C33.2971 7.24154 33.3668 7.18072 33.4566 7.12911C33.5465 7.07382 33.6327 7.03327 33.7098 7.00378C33.7795 6.97798 33.8436 6.96139 33.9023 6.95586L34.3499 5.03348C34.3407 4.93026 34.2765 4.88234 34.1609 4.88234C34.1133 4.88234 34.0913 4.85654 34.0913 4.80493C34.0913 4.76254 34.1133 4.74042 34.1609 4.74042H35.1495L35.808 8.04515C35.83 8.14836 35.8942 8.19997 36.0006 8.19997H36.0042ZM34.8524 7.18809C34.8781 7.20099 34.9001 7.2139 34.9221 7.23048L34.5736 5.46293L34.2215 6.95401C34.4617 6.98903 34.6727 7.06645 34.8542 7.18809H34.8524ZM35.6778 8.02671L35.0707 5.06297H34.9845L35.5787 7.95852L35.5952 8.02856H35.6778V8.02671Z" fill="white"/>
<path fill-rule="evenodd" clip-rule="evenodd" d="M13.9243 10.9703C13.9243 11.0864 13.9592 11.1638 14.0399 11.2375C14.1132 11.3021 14.1738 11.3076 14.2893 11.3279C14.3755 11.3408 14.4819 11.3573 14.5681 11.3758C14.7698 11.4108 14.9679 11.4753 15.1055 11.2891C15.1789 11.1988 15.3329 10.5814 15.3843 10.4339L15.9052 9.07371C15.94 8.98708 15.9877 8.90046 16.0262 8.81014C16.3655 8.00654 17.0588 6.89514 17.565 6.22239L17.7319 6.00122C17.787 5.92749 17.8401 5.86299 17.8988 5.78926L18.1575 5.4833C18.3078 5.31926 18.4417 5.14232 18.5995 4.98197L19.2579 4.32029C19.2964 4.28158 19.3221 4.26868 19.3606 4.22998L19.5587 4.04382C19.799 3.85398 20.0282 3.6457 20.2722 3.45586L20.5987 3.2181C20.8958 3.00614 21.1929 2.79971 21.5065 2.60802L22.0953 2.27073C22.143 2.24124 22.1815 2.22281 22.2237 2.20069L22.464 2.07167C23.071 1.76572 23.68 1.52242 24.3347 1.30309C24.52 1.23858 24.7126 1.18697 24.9107 1.12984C25.3142 1.01372 25.7232 0.936308 26.145 0.853368C26.9484 0.693016 27.7609 0.659839 28.6009 0.659839C28.8595 0.659839 29.0778 0.676427 29.3235 0.685643C29.7142 0.694859 30.2828 0.781486 30.6606 0.845995C31.0641 0.916034 31.5025 1.00082 31.895 1.11878C32.6525 1.34364 33.3861 1.5814 34.0886 1.93528C34.1363 1.9574 34.1748 1.9703 34.217 1.99058C34.2555 2.01269 34.294 2.02928 34.338 2.0514L34.7122 2.24493C34.9579 2.37026 35.189 2.51771 35.4256 2.65963L36.4326 3.34712C36.6912 3.52774 36.9186 3.74523 37.1589 3.93507C37.2066 3.97378 37.2231 3.9959 37.2671 4.03092L37.5587 4.2908C37.5936 4.32029 37.6229 4.35162 37.6578 4.39033C37.6963 4.42903 37.7128 4.43825 37.7568 4.47327C37.7861 4.50276 37.8173 4.53409 37.8467 4.56911C37.9164 4.63362 37.9714 4.69076 38.0356 4.75895C38.0704 4.79397 38.0961 4.81425 38.131 4.84927C38.2685 4.99672 38.639 5.39852 38.7546 5.55334L39.1709 6.07126C39.5194 6.53757 39.7046 6.81957 40.0183 7.30247C40.3154 7.76509 40.5685 8.26642 40.8051 8.76222L41.0417 9.29304C41.2563 9.82386 41.4672 10.4026 41.6304 10.9703C41.6598 11.0735 41.6818 11.1564 41.7515 11.2302C41.9587 11.455 42.3659 11.326 42.5989 11.2468C42.8134 11.173 42.8868 11.0735 42.8905 10.9537V10.9316C42.8868 10.8321 42.8428 10.7159 42.8043 10.5814C42.7181 10.2791 42.6025 9.99343 42.4998 9.70037C42.3659 9.32438 42.2027 8.95759 42.0266 8.6074C41.9184 8.39175 41.8249 8.17058 41.7001 7.95862L41.348 7.33564C41.2966 7.24902 41.2453 7.17529 41.1976 7.09419C41.0564 6.85274 40.8876 6.62235 40.7281 6.39012C40.5355 6.10996 40.2769 5.75424 40.0531 5.49989C40.0183 5.46487 39.9926 5.43538 39.9577 5.39667L39.8715 5.28793C39.7633 5.1497 39.5396 4.91193 39.4075 4.77738L39.1195 4.47142C39.0498 4.40139 38.9912 4.34609 38.9215 4.2779C38.7931 4.14335 38.6115 3.97194 38.4648 3.85398L38.0906 3.52959C38.0136 3.46876 37.9494 3.40794 37.876 3.34896C37.4725 3.03379 37.0598 2.7352 36.6325 2.44583L36.3959 2.29101C36.0309 2.06246 35.6604 1.84681 35.2734 1.65513C35.1835 1.60721 35.101 1.55928 35.0111 1.52058C34.8222 1.44317 34.6626 1.35285 34.4774 1.27913C34.0134 1.08929 33.5438 0.89023 33.0633 0.739094L32.469 0.558467C32.1554 0.462625 31.8491 0.398115 31.519 0.32439C31.0935 0.228548 30.6368 0.156666 30.1782 0.103215C29.65 0.0423919 29.1383 0.00737251 28.6266 0H28.0378C27.1171 0.0165881 26.2055 0.121646 25.261 0.311488C24.1733 0.527134 23.2526 0.842309 22.286 1.24964C22.1907 1.28835 22.1008 1.33627 22.0146 1.37129C21.4424 1.60536 20.274 2.27442 19.7623 2.6541L18.4986 3.63465L17.4366 4.65389C17.3669 4.72393 17.3156 4.78291 17.2441 4.85664L17.024 5.1073C16.7965 5.38009 16.5728 5.64734 16.3619 5.93302C16.3013 6.01043 16.2536 6.08047 16.195 6.16157C15.9198 6.54126 15.6667 6.94306 15.4246 7.35039C15.2742 7.60105 15.1403 7.8554 15.0083 8.11897C14.5993 8.93548 14.2691 9.7741 14.0013 10.6514C13.9793 10.7252 13.9243 10.8892 13.9243 10.9703ZM34.4554 27.6008C34.4132 27.575 34.404 27.5455 34.3655 27.4921C33.8538 26.8046 33.3329 26.1263 32.7827 25.4794L32.082 24.6795C32.0399 24.6408 32.0179 24.6242 31.983 24.5836C31.7116 24.285 31.4933 24.0989 31.2218 23.8316C31.187 23.7966 31.1577 23.78 31.1228 23.745C30.6588 23.2916 29.7087 22.6391 29.1658 22.311C29.0888 22.2631 28.2928 21.8005 28.2121 21.7747C28.4615 21.8447 29.0209 22.1083 29.252 22.2336C29.5968 22.4198 29.8884 22.5875 30.1929 22.7958C30.4167 22.9469 31.242 23.5607 31.4621 23.7855L31.6639 23.9662C31.8436 24.121 32.1536 24.4509 32.326 24.6315C32.3608 24.6666 32.3902 24.6831 32.4214 24.7219C32.4507 24.7569 32.4727 24.7827 32.5076 24.8214C32.5369 24.8564 32.5681 24.8767 32.5974 24.9117C32.6323 24.9596 32.6488 24.9725 32.6873 25.0149C32.834 25.1697 33.1348 25.542 33.2852 25.7227C33.7236 26.2627 34.017 26.6903 34.3985 27.2396C34.4462 27.3096 34.5104 27.3907 34.5489 27.4644C34.5196 27.5197 34.4847 27.5418 34.4536 27.599L34.4554 27.6008ZM24.9235 29.8513H24.8373C24.6997 29.8421 24.553 29.7905 24.3806 29.7425C24.243 29.7038 24.1018 29.6596 23.9551 29.6172C23.8084 29.5748 23.6671 29.5269 23.5296 29.479C22.6052 29.1675 21.6936 28.7565 20.8591 28.2607C20.7344 28.1869 20.6317 28.1261 20.5106 28.0524L20.1713 27.8404C19.8393 27.6156 19.5092 27.3962 19.1992 27.1456C19.1699 27.1234 19.1442 27.1069 19.1167 27.0847L18.4326 26.5152C18.2253 26.3512 17.5339 25.6821 17.444 25.5605C17.3963 25.4997 17.3614 25.4702 17.3101 25.4186L16.1839 24.0436C16.1454 23.9883 16.1069 23.9348 16.0721 23.8795C15.8098 23.4906 15.5347 23.1054 15.3109 22.6907C15.2375 22.5525 14.9459 22.0862 14.9459 21.9516C14.9459 21.7139 15.067 21.6328 15.2779 21.5849C15.3678 21.5627 15.4448 21.5498 15.5365 21.5296C15.9235 21.4392 15.9749 21.4651 16.1638 21.841C16.2848 22.0825 16.404 22.3166 16.5416 22.5543C16.8461 23.0723 17.1689 23.5828 17.5265 24.0675C17.6898 24.2832 18.2051 24.9357 18.4252 25.1568C18.4601 25.1863 18.4803 25.2084 18.5078 25.2435C18.6325 25.4038 19.3551 26.1079 19.5991 26.2977C19.7843 26.4452 19.9732 26.6258 20.1878 26.7862C20.2263 26.8156 20.252 26.8341 20.2905 26.8691L21.2369 27.5308C21.5341 27.7114 21.8349 27.9068 22.1485 28.0616C22.231 28.104 22.2989 28.1445 22.3888 28.1906C22.475 28.2293 22.5355 28.268 22.6254 28.303L23.1114 28.5279C23.2838 28.6016 23.447 28.6754 23.6231 28.7399C23.7992 28.8007 23.9624 28.8744 24.1477 28.926C24.5732 29.0477 24.8868 29.0679 25.1839 28.6975C25.9451 27.752 26.5815 26.0784 26.5815 24.3588C26.5815 23.5552 26.4311 22.5562 25.8626 21.9645C25.7727 21.8687 25.67 21.7839 25.5618 21.7047C25.3894 21.5793 25.1234 21.524 25.1234 21.3121C25.1234 21.1517 25.206 21.0651 25.3307 21.0006C25.4426 20.949 25.5581 20.8882 25.7177 20.8882C25.9103 20.8882 26.1083 20.9047 26.2936 20.9269C26.4348 20.9434 26.5815 20.9692 26.7228 20.9969C27.3464 21.1001 28.0763 21.3084 28.6578 21.572C29.0448 21.7452 29.2814 21.8576 29.6775 22.0604C29.7124 22.0825 29.7252 22.0899 29.7601 22.112C30.3671 22.4364 30.9302 22.8474 31.4676 23.2695L31.7519 23.5035C32.0234 23.7247 32.2893 23.9662 32.5351 24.2168C32.6433 24.3201 32.7588 24.4159 32.8579 24.5228L33.6961 25.448C34.0189 25.8111 34.3453 26.248 34.6296 26.6369C34.8662 26.9613 35.0258 27.3114 35.4935 27.3114C36.0144 27.3114 36.4307 26.906 36.8086 26.6074C36.8856 26.5429 36.9498 26.4857 37.0231 26.4267C37.1699 26.3106 37.423 26.0931 37.5605 25.9512L37.6596 25.8517C37.7018 25.8093 37.7293 25.7964 37.7715 25.7522L38.2612 25.2471C38.3987 25.1089 38.7087 24.7458 38.8242 24.5984C39.2406 24.0712 39.6496 23.5349 39.9944 22.9525L40.4328 22.1783C40.6785 21.7378 40.8876 21.2715 41.0729 20.8034C41.1499 20.6172 41.2068 20.3758 41.447 20.3758C41.5626 20.3758 41.8817 20.4624 42.0101 20.4919C42.1954 20.5398 42.3494 20.6135 42.3494 20.8384C42.3494 20.9729 42.2027 21.2697 42.1422 21.4042L41.7295 22.2558C41.6946 22.311 41.6653 22.3682 41.6341 22.4235C41.3168 23.0206 40.706 23.909 40.2805 24.3846C38.8664 25.9955 37.5165 27.4663 35.2587 28.7491C34.8497 28.9961 34.5104 29.0127 34.1363 28.5408C34.028 28.4026 33.9602 28.3196 33.8318 28.1556C33.243 27.3815 32.3131 26.1982 31.6217 25.3909C30.3488 23.9053 28.5899 22.4954 26.6861 21.9037C26.798 22.0641 26.8713 22.206 26.952 22.4014C27.4931 23.6547 27.3134 25.6084 26.8878 26.8949L26.6989 27.4515C26.6732 27.5123 26.6604 27.5603 26.6292 27.6193L26.4788 27.9694C26.3761 28.2238 26.2331 28.4671 26.0882 28.6993C26.0717 28.7288 26.0625 28.7472 26.046 28.773C26.0166 28.821 25.9855 28.8634 25.9506 28.915L25.5159 29.4679C25.4517 29.5416 25.3435 29.6448 25.2701 29.7057C25.1454 29.8052 25.0335 29.8439 24.9217 29.8531L24.9235 29.8513Z" fill="white"/>
<path d="M19.4444 13.3036C19.4059 13.0658 19.3197 12.8502 19.1858 12.6548C19.0574 12.4613 18.9107 12.3212 18.7437 12.2438C18.5805 12.1664 18.4044 12.1664 18.2229 12.2438C18.0376 12.3212 17.878 12.5073 17.746 12.8059C17.6855 12.9349 17.6433 13.1469 17.6176 13.4363C17.5883 13.7256 17.5791 14.0537 17.5828 14.4223C17.5919 14.7854 17.6121 15.1743 17.6433 15.5761C17.6781 15.9816 17.7203 16.3668 17.7717 16.7299C17.823 17.093 17.8872 17.4119 17.9606 17.6939C18.0339 17.9759 18.111 18.1731 18.188 18.2948C18.3678 18.5675 18.5585 18.726 18.7474 18.774C18.94 18.8219 19.1124 18.7906 19.2628 18.6873C19.4132 18.5841 19.5379 18.4238 19.637 18.2118C19.7323 17.9962 19.7837 17.7676 19.7874 17.5299L19.7837 17.4948C19.7837 17.4819 19.7874 17.469 19.7965 17.4561C19.7929 17.3787 19.8094 17.3179 19.8516 17.2755C19.8937 17.2276 19.9414 17.2055 19.9983 17.2018C20.0533 17.1981 20.1102 17.2055 20.1652 17.2313C20.2165 17.2534 20.2514 17.3013 20.2679 17.3695L20.2716 17.4174L20.4 19.008C20.4091 19.1113 20.3651 19.1684 20.2752 19.1758C20.1725 19.1795 20.1212 19.1371 20.112 19.0338C20.09 18.9214 20.0698 18.8219 20.0515 18.7445C20.035 18.6671 19.9781 18.6486 19.8791 18.6929C19.6993 18.9011 19.4756 19.0596 19.2041 19.1684C18.9327 19.2771 18.6539 19.3287 18.3696 19.3287C18.0853 19.3324 17.8102 19.2735 17.5534 19.1555C17.2911 19.0394 17.0839 18.8661 16.9298 18.6376C16.706 18.3132 16.53 17.8856 16.3961 17.3584C16.2622 16.8313 16.1723 16.2784 16.1246 15.7033C16.0769 15.1283 16.0769 14.5661 16.1246 14.0224C16.176 13.4823 16.2787 13.0326 16.4474 12.6751C16.563 12.4244 16.7391 12.2217 16.9812 12.0613C17.2178 11.9065 17.48 11.8069 17.7588 11.759C18.0431 11.7111 18.3219 11.7203 18.6099 11.7848C18.8941 11.8457 19.1381 11.9655 19.349 12.1442C19.4517 12.17 19.5086 12.1442 19.5122 12.0613C19.5159 11.9839 19.5214 11.8844 19.5214 11.7682C19.5122 11.6687 19.5599 11.6134 19.6626 11.6042C19.7525 11.595 19.8039 11.6429 19.813 11.7461L19.9378 13.3367L19.9414 13.3883C19.9378 13.4584 19.9121 13.51 19.8589 13.5395C19.8112 13.5745 19.7598 13.5911 19.7048 13.5948C19.6443 13.5985 19.5929 13.5856 19.5453 13.5469C19.4976 13.5118 19.4682 13.451 19.4627 13.3736C19.4499 13.3607 19.4407 13.3515 19.4407 13.3386L19.437 13.3036H19.4444ZM17.9386 18.5878C17.801 18.186 17.6891 17.7234 17.5938 17.1962C17.4984 16.6728 17.4342 16.1328 17.392 15.5798C17.3535 15.0269 17.3443 14.4869 17.3572 13.956C17.37 13.4289 17.4177 12.9534 17.4984 12.535C17.4892 12.5608 17.4819 12.5737 17.4764 12.5774C17.4727 12.5866 17.4635 12.5995 17.4544 12.6253C17.3718 12.7598 17.3131 12.9792 17.2691 13.2944C17.2214 13.6058 17.1994 13.9597 17.1994 14.3578C17.1958 14.7504 17.2123 15.1651 17.2471 15.6019C17.282 16.0332 17.3296 16.4443 17.3883 16.8368C17.4489 17.2257 17.5222 17.5722 17.6121 17.8745C17.6983 18.1768 17.7918 18.3888 17.8909 18.5049C17.9037 18.527 17.9129 18.5436 17.9129 18.5473C17.9129 18.5509 17.9221 18.5638 17.9349 18.586L17.9386 18.5878ZM25.0329 12.3396C25.2255 12.6769 25.3777 13.1008 25.4933 13.6095C25.6052 14.1201 25.6694 14.6509 25.6914 15.2075C25.7079 15.7605 25.6785 16.2968 25.596 16.8147C25.519 17.329 25.3887 17.7658 25.2218 18.1104C25.0494 18.4514 24.7835 18.7076 24.4258 18.8846C24.0682 19.0615 23.6904 19.1573 23.2905 19.1739C22.8943 19.1868 22.5129 19.1131 22.1515 18.962C21.7865 18.8071 21.5059 18.5694 21.3133 18.2395C21.1116 17.9059 20.952 17.4782 20.8365 16.9695C20.7246 16.459 20.6604 15.9282 20.6384 15.3716C20.6219 14.8186 20.6512 14.2823 20.7338 13.7643C20.8108 13.2501 20.9447 12.8133 21.1244 12.4686C21.2968 12.1277 21.5591 11.8715 21.9113 11.6945C22.2634 11.5176 22.6376 11.4217 23.0374 11.4088C23.4336 11.3922 23.8206 11.4641 24.1892 11.6171C24.5542 11.7719 24.8385 12.0097 25.0311 12.3396H25.0329ZM21.9626 17.7068C21.9975 17.7547 22.0397 17.81 22.0873 17.8745C22.014 17.6718 21.9498 17.3437 21.9021 16.894C21.8544 16.4443 21.8159 15.9614 21.7939 15.4471C21.7719 14.9329 21.7682 14.4408 21.781 13.9652C21.7939 13.4897 21.8287 13.1193 21.8893 12.8557C21.8764 12.8686 21.8507 12.9073 21.8067 12.9773C21.7425 13.0935 21.6912 13.2759 21.6527 13.5266C21.6178 13.7736 21.5921 14.05 21.5793 14.3597C21.5665 14.6656 21.5665 14.9956 21.5793 15.3365C21.5885 15.683 21.6086 16.0111 21.6435 16.3226C21.6783 16.6378 21.7205 16.9198 21.7719 17.1686C21.8269 17.4156 21.8874 17.5962 21.9608 17.7086L21.9626 17.7068ZM23.9398 18.1215C24.004 17.9962 24.0553 17.7805 24.0994 17.4819C24.1379 17.1833 24.1636 16.8424 24.1764 16.4572C24.1856 16.0775 24.1856 15.6757 24.1727 15.2554C24.1562 14.8407 24.1342 14.4389 24.0957 14.0592C24.0608 13.674 24.0132 13.3367 23.9545 13.0437C23.8939 12.7451 23.8261 12.5387 23.7527 12.4133C23.5381 12.0539 23.3052 11.8825 23.0649 11.8899C22.8191 11.8936 22.5954 12.0889 22.39 12.4594C22.3258 12.5847 22.2744 12.8004 22.2304 13.099C22.1919 13.3976 22.1662 13.7385 22.1534 14.1238C22.1442 14.509 22.1442 14.9052 22.157 15.3255C22.1735 15.7402 22.1956 16.142 22.2341 16.5217C22.2689 16.9069 22.3166 17.2442 22.3753 17.5372C22.4358 17.8358 22.5037 18.0422 22.577 18.1676C22.8045 18.527 23.0411 18.6984 23.2868 18.691C23.5271 18.6873 23.7472 18.4975 23.9398 18.1215ZM24.8605 18.0054C25.0274 17.6681 25.1576 17.2534 25.2347 16.7613C25.3172 16.2636 25.3466 15.7494 25.3301 15.2186C25.3135 14.6878 25.2475 14.1772 25.1375 13.6925C25.0256 13.204 24.8715 12.793 24.6771 12.4705C24.6643 12.4484 24.6423 12.4189 24.6074 12.3875C24.767 12.7727 24.8917 13.2206 24.9852 13.7478C25.0751 14.2712 25.1228 14.802 25.132 15.3458C25.1356 15.8858 25.1063 16.4129 25.0366 16.9272C24.9669 17.4377 24.8605 17.8727 24.7138 18.2321C24.7358 18.1971 24.756 18.162 24.7872 18.1289C24.8128 18.0939 24.8385 18.0515 24.8605 18.0035V18.0054Z" fill="white"/>
<path d="M40.3151 12.7599C40.4692 13.1193 40.5774 13.5543 40.6324 14.0777C40.6874 14.5956 40.6966 15.132 40.6544 15.6849C40.6067 16.2379 40.5205 16.7687 40.383 17.2755C40.2454 17.7806 40.073 18.1953 39.8676 18.5252C39.6567 18.8404 39.365 19.0652 38.9909 19.2034C38.6167 19.3417 38.2297 19.3933 37.8299 19.3638C37.4337 19.3288 37.0651 19.2164 36.7202 19.0265C36.3754 18.833 36.126 18.5602 35.9683 18.2192C35.805 17.8598 35.6931 17.4193 35.6363 16.9014C35.5813 16.3779 35.5721 15.8434 35.6143 15.2905C35.6565 14.7376 35.7482 14.2104 35.8857 13.7054C36.0233 13.2004 36.1994 12.7857 36.4195 12.4558C36.6267 12.1406 36.9183 11.9157 37.2888 11.7775C37.6593 11.6393 38.0408 11.5877 38.437 11.6171C38.8368 11.6466 39.211 11.7591 39.5595 11.9544C39.9079 12.148 40.161 12.4207 40.3169 12.7617L40.3151 12.7599ZM36.6726 17.7548C36.7019 17.8027 36.7368 17.8635 36.7808 17.9354C36.7294 17.7234 36.7037 17.3917 36.7037 16.9364C36.7037 16.4812 36.7202 16.0038 36.7551 15.4895C36.7899 14.9753 36.8413 14.4832 36.9055 14.0114C36.9697 13.5395 37.0467 13.1783 37.1384 12.9221C37.1256 12.9313 37.0962 12.97 37.043 13.0345C36.966 13.1432 36.8963 13.3202 36.8321 13.558C36.7679 13.7994 36.7111 14.0759 36.6652 14.3837C36.6175 14.6859 36.579 15.0103 36.5533 15.3513C36.5277 15.6978 36.5148 16.0259 36.5112 16.3411C36.5112 16.6562 36.5203 16.9382 36.546 17.1926C36.5717 17.4469 36.6157 17.6331 36.6744 17.7548H36.6726ZM38.591 18.3906C38.6736 18.269 38.7451 18.0626 38.8185 17.7677C38.8955 17.4783 38.956 17.141 39.0111 16.7613C39.0624 16.3816 39.1064 15.9835 39.1358 15.5688C39.1706 15.1504 39.1908 14.7523 39.1963 14.3671C39.2055 13.9819 39.1963 13.6409 39.167 13.3423C39.1413 13.04 39.0973 12.8244 39.0386 12.6935C38.8625 12.3138 38.6516 12.1148 38.4113 12.0927C38.1655 12.0761 37.9216 12.2401 37.6758 12.5848C37.5988 12.7064 37.5254 12.9129 37.4484 13.2022C37.375 13.4953 37.3108 13.8326 37.2595 14.2141C37.2081 14.5938 37.1641 14.9919 37.1311 15.4066C37.1017 15.8213 37.0797 16.2231 37.0761 16.6083C37.0669 16.988 37.0761 17.3345 37.1054 17.6331C37.1311 17.9354 37.1751 18.1473 37.2338 18.2819C37.419 18.6616 37.6336 18.8606 37.8794 18.8827C38.1252 18.8993 38.3618 18.7353 38.5929 18.3906H38.591ZM39.5191 18.3777C39.7264 18.0589 39.8969 17.6608 40.0308 17.176C40.1647 16.6968 40.2546 16.1899 40.2931 15.6591C40.3353 15.1283 40.3279 14.6141 40.2711 14.1164C40.2106 13.6188 40.1042 13.1967 39.9483 12.8539C39.9391 12.8281 39.9189 12.7986 39.8878 12.7636C40.0033 13.1617 40.0767 13.6243 40.1115 14.1551C40.1464 14.6859 40.1335 15.2223 40.0822 15.7623C40.0272 16.3024 39.9409 16.8203 39.8162 17.3216C39.6915 17.8229 39.5319 18.2413 39.3467 18.5842C39.3724 18.5547 39.3981 18.5196 39.4329 18.4883C39.4622 18.4588 39.4934 18.4183 39.5191 18.3759V18.3777ZM42.1859 19.2772C42.2758 19.2864 42.3143 19.338 42.307 19.4283C42.2941 19.5315 42.2428 19.5758 42.1529 19.5665L40.7131 19.3804C40.6232 19.3675 40.5847 19.3104 40.5976 19.2127C40.6104 19.1224 40.6618 19.0781 40.7516 19.091C40.9057 19.1131 41.0139 19.0873 41.0689 19.0136C41.124 18.9399 41.1771 18.8404 41.2285 18.7205L41.676 17.4986C41.8869 17.4599 42.1144 17.4635 42.3601 17.5207L41.8906 18.7906C41.7751 19.0763 41.8741 19.2348 42.1877 19.279L42.1859 19.2772ZM45.9275 19.7564C46.0302 19.7693 46.0779 19.8209 46.0651 19.9112C46.0522 20.0107 45.9954 20.0587 45.8927 20.0458L43.622 19.7527C43.523 19.7398 43.4753 19.6827 43.4881 19.5794C43.501 19.4799 43.5615 19.432 43.6605 19.4449C43.7632 19.4615 43.8623 19.4357 43.9613 19.3804C44.0604 19.3251 44.1081 19.2385 44.0989 19.1205L44.064 18.5639C43.9301 18.2708 43.7284 18.0146 43.4569 17.7953C43.3102 17.6866 43.1525 17.5833 42.9801 17.493C42.8077 17.4027 42.6279 17.3327 42.439 17.2848C42.318 17.259 42.2024 17.2424 42.0942 17.2331C41.9823 17.2239 41.8796 17.2295 41.7714 17.2497L41.7549 17.2663C41.6467 17.2884 41.544 17.3271 41.4449 17.3824C41.4614 17.5115 41.4541 17.6239 41.4101 17.7234C41.3679 17.8193 41.311 17.9004 41.234 17.9649C41.157 18.0294 41.0708 18.0681 40.9754 18.081C40.8855 18.0902 40.7956 18.0718 40.7094 18.0294C40.5939 17.9557 40.5114 17.8432 40.4692 17.6884C40.427 17.5336 40.46 17.3824 40.5682 17.235C40.6801 17.0968 40.8342 16.988 41.0322 16.9014C41.234 16.8184 41.4156 16.7595 41.5825 16.7244C41.7237 16.6857 41.8576 16.6692 41.9823 16.6728L43.3928 12.8742C43.3964 12.6659 43.2809 12.5498 43.0443 12.5203C42.9544 12.5074 42.9159 12.4502 42.9287 12.347C42.9379 12.2567 42.9892 12.218 43.0791 12.2309L43.6899 12.3083L45.0966 12.4889L45.579 19.3767C45.601 19.6016 45.7166 19.7232 45.9275 19.7527V19.7564ZM43.855 17.3972C43.8971 17.4267 43.9375 17.4617 43.9797 17.5004L43.7211 13.8197L42.6298 16.7576C43.1066 16.8866 43.5156 17.0986 43.855 17.3972ZM45.3131 19.3122L44.8435 13.134L44.6711 13.1119L45.1278 19.1518L45.1443 19.2901L45.3112 19.3122H45.3131Z" fill="white"/>
<path d="M27.674 18.6708C27.7639 18.6708 27.8116 18.7132 27.8116 18.8053C27.8116 18.9085 27.7639 18.9601 27.674 18.9601L26.2251 18.9638C26.1352 18.9638 26.0875 18.9122 26.0875 18.809C26.0875 18.7187 26.1352 18.6708 26.2251 18.6708C26.3847 18.6708 26.4874 18.6321 26.5295 18.5491C26.5772 18.4717 26.6158 18.3685 26.6506 18.2432L26.9386 16.9732C27.1458 16.9032 27.3732 16.8829 27.6227 16.9032L27.3182 18.2247C27.2357 18.5178 27.3567 18.6689 27.6759 18.6689L27.674 18.6708ZM31.445 18.6671C31.5477 18.6671 31.599 18.7095 31.599 18.8016C31.599 18.9048 31.5477 18.9564 31.445 18.9564L29.1615 18.9601C29.0588 18.9601 29.0074 18.9085 29.0074 18.8053C29.0074 18.7021 29.0588 18.6505 29.1578 18.6505C29.2569 18.6505 29.3596 18.6155 29.4495 18.5473C29.5393 18.4828 29.5742 18.3869 29.5522 18.2745L29.4495 17.7252C29.2771 17.4525 29.046 17.2239 28.7488 17.0378C28.5893 16.9474 28.4169 16.87 28.2371 16.8C28.0519 16.73 27.8666 16.6876 27.674 16.6618C27.5456 16.6525 27.4283 16.6489 27.3219 16.6525C27.2137 16.6618 27.111 16.682 27.0083 16.7134L26.9917 16.73C26.889 16.765 26.7937 16.8166 26.7001 16.8848C26.735 17.0101 26.7386 17.1262 26.7093 17.2313C26.6836 17.3308 26.6359 17.4211 26.5681 17.4948C26.4984 17.5686 26.4177 17.6202 26.3278 17.6423C26.2379 17.6644 26.1481 17.6589 26.0563 17.6257C25.9316 17.5704 25.8363 17.4654 25.7721 17.3198C25.7115 17.1686 25.7244 17.0175 25.8142 16.8571C25.9041 16.706 26.0472 16.577 26.2306 16.4682C26.4195 16.3595 26.5919 16.2784 26.7515 16.2176C26.889 16.1623 27.0174 16.1272 27.1421 16.118L28.0629 12.1682C28.0372 11.9655 27.9088 11.8623 27.6667 11.8623C27.5768 11.8623 27.5291 11.8106 27.5291 11.7074C27.5291 11.6171 27.5768 11.5729 27.6667 11.5729L28.2811 11.5692H29.7007L31.0543 18.3408C31.102 18.562 31.2304 18.6689 31.445 18.6689V18.6671ZM29.0881 16.5936C29.1358 16.6157 29.178 16.6452 29.2257 16.6802L28.5031 13.064L27.7896 16.1143C28.2793 16.1844 28.714 16.3429 29.0881 16.5936ZM30.7774 18.3095L29.5265 12.2383H29.3541L30.5756 18.1713L30.6105 18.3095H30.7774ZM34.8876 13.1893C34.8748 12.9479 34.8142 12.723 34.7115 12.511C34.6088 12.2991 34.4786 12.1443 34.3245 12.0447C34.1705 11.9452 33.9981 11.9231 33.8036 11.9802C33.6147 12.0318 33.4332 12.2014 33.2626 12.4779C33.1892 12.5995 33.1214 12.8023 33.0553 13.0879C32.9911 13.3681 32.9398 13.6925 32.8958 14.0593C32.8572 14.4224 32.8261 14.8076 32.8096 15.2131C32.7931 15.6185 32.7839 16.0038 32.7875 16.3705C32.7967 16.7373 32.8169 17.0617 32.8572 17.3511C32.8921 17.6405 32.9434 17.8487 33.0076 17.9777C33.1544 18.2708 33.3176 18.4533 33.5029 18.5215C33.6881 18.5952 33.8605 18.586 34.0237 18.5049C34.187 18.4219 34.3337 18.28 34.4529 18.0773C34.5776 17.8782 34.6547 17.6589 34.6895 17.4211V17.3861C34.6932 17.3732 34.6987 17.364 34.7115 17.3511C34.7152 17.2737 34.7409 17.2129 34.7886 17.1741C34.8363 17.1391 34.8876 17.1225 34.9426 17.1225C34.9977 17.1262 35.0545 17.1447 35.1022 17.1741C35.1536 17.2036 35.1792 17.2571 35.1884 17.3253V17.3732L35.115 18.9675C35.1114 19.0707 35.06 19.1186 34.9683 19.115C34.8656 19.1113 34.8179 19.0597 34.8216 18.9546C34.8179 18.8385 34.8087 18.7426 34.7996 18.6615C34.7959 18.5841 34.739 18.5583 34.6363 18.5878C34.4291 18.7684 34.1888 18.8993 33.9045 18.973C33.6257 19.0468 33.3415 19.0633 33.0572 19.0283C32.7729 18.9896 32.5106 18.8993 32.2667 18.7519C32.0264 18.6007 31.8411 18.4017 31.7164 18.1547C31.5367 17.8045 31.4156 17.3603 31.3514 16.8203C31.2817 16.2765 31.3679 15.7181 31.3936 15.1393C31.4193 14.5643 31.39 14.0113 31.5055 13.475C31.6211 12.9442 31.7806 12.511 31.9915 12.1793C32.1383 11.9452 32.34 11.7646 32.5986 11.6392C32.8572 11.5139 33.1269 11.4494 33.4111 11.4365C33.6954 11.4273 33.9742 11.4715 34.2493 11.571C34.5245 11.6706 34.7519 11.8217 34.9371 12.0245C35.0398 12.0632 35.0967 12.041 35.1132 11.9636C35.126 11.8862 35.1426 11.7867 35.1609 11.6743C35.1646 11.571 35.2159 11.5231 35.3205 11.5268C35.4103 11.5305 35.4544 11.5821 35.4488 11.6872L35.3755 13.2815L35.3718 13.3331C35.359 13.3976 35.3241 13.4455 35.2728 13.4713C35.2214 13.5008 35.1646 13.51 35.1095 13.51C35.0545 13.5063 35.0013 13.4842 34.9591 13.44C34.917 13.3976 34.8949 13.3368 34.8986 13.2593C34.8858 13.2464 34.8821 13.2335 34.8821 13.2243L34.8858 13.1893H34.8876ZM32.7197 18.2358C32.6371 17.8211 32.5821 17.3456 32.5564 16.8147C32.5308 16.2784 32.5308 15.7347 32.5656 15.1817C32.595 14.6288 32.6518 14.0924 32.7325 13.5708C32.8151 13.0474 32.9214 12.5811 33.0498 12.1756C33.0407 12.1977 33.0278 12.2143 33.0241 12.218C33.0205 12.2217 33.0113 12.2346 32.9985 12.2604C32.8994 12.382 32.8096 12.594 32.727 12.8999C32.6445 13.2022 32.5766 13.5524 32.5253 13.945C32.4739 14.3376 32.4391 14.7486 32.4171 15.1854C32.395 15.6167 32.3914 16.0314 32.4006 16.4295C32.4134 16.8221 32.4427 17.1778 32.4904 17.4875C32.5381 17.799 32.6023 18.0183 32.6885 18.1492C32.7013 18.1713 32.705 18.1879 32.705 18.1915C32.705 18.1952 32.7087 18.2137 32.7179 18.2339L32.7197 18.2358Z" fill="white"/>
<path d="M56.7015 21.5148C56.7914 21.5277 56.8299 21.5886 56.8134 21.6881C56.7969 21.7784 56.7437 21.8171 56.6538 21.8005L54.9389 21.5148C54.8234 21.8005 54.6638 22.0586 54.4657 22.2963C54.264 22.5378 54.0237 22.7331 53.7431 22.8843C53.468 23.0317 53.1543 23.1313 52.8059 23.1773C52.4574 23.2253 52.0795 23.1939 51.6705 23.0944C51.0818 22.9396 50.6343 22.7055 50.3243 22.3903C50.0107 22.0788 49.7869 21.7286 49.6585 21.3397C49.5246 20.9545 49.4476 20.549 49.4219 20.1307C49.3999 19.7123 49.3797 19.3178 49.3669 18.9547C49.3504 18.5953 49.3027 18.2802 49.2257 18.0221C49.1486 17.7585 48.9891 17.5908 48.7488 17.5171L48.3838 19.7344C48.3416 19.9943 48.448 20.1454 48.7066 20.1878C48.7965 20.2007 48.835 20.2523 48.8185 20.3426C48.8056 20.4458 48.7488 20.4901 48.6589 20.4716L46.4066 20.0993C46.3168 20.0827 46.2782 20.0256 46.2947 19.9224C46.3076 19.8321 46.3644 19.797 46.4488 19.8099C46.7111 19.8523 46.8615 19.7399 46.9055 19.469L47.8684 13.5968L47.8776 13.5452C47.9198 13.2853 47.8134 13.1341 47.5548 13.0918C47.4649 13.0789 47.4301 13.0272 47.4429 12.9369C47.4594 12.8337 47.5126 12.7895 47.6025 12.8079L50.6159 13.3056C50.9516 13.3608 51.2267 13.5433 51.4376 13.8493C51.6449 14.1608 51.7384 14.5146 51.7164 14.9164C51.7127 15.0197 51.6999 15.1413 51.6742 15.2832C51.6522 15.4215 51.632 15.5689 51.6045 15.7201C51.5788 15.8749 51.5531 16.0223 51.5311 16.1606C51.5055 16.3025 51.4834 16.4241 51.4541 16.5237C51.3991 16.7227 51.3165 16.8867 51.2083 17.0213C51.1001 17.1558 50.9846 17.2627 50.8599 17.3457C50.7351 17.4323 50.6141 17.4931 50.4949 17.5263C50.3701 17.565 50.2711 17.5908 50.1904 17.6C50.1776 17.5964 50.1684 17.5908 50.1647 17.5871C50.1611 17.5779 50.1519 17.5742 50.139 17.5742C50.3536 17.7475 50.5004 17.9668 50.5774 18.2359C50.6544 18.5032 50.7058 18.7889 50.7406 19.0911C50.77 19.3897 50.792 19.6957 50.8048 20.0035C50.8177 20.315 50.8525 20.608 50.913 20.8845C50.9772 21.1831 51.0726 21.4595 51.1918 21.701C51.3129 21.948 51.4798 22.1452 51.6999 22.3019C51.898 22.4364 52.1254 22.5304 52.3877 22.5783C52.65 22.6299 52.9086 22.6207 53.1617 22.5617C53.4148 22.4972 53.6514 22.3756 53.8806 22.195C54.1044 22.0088 54.2933 21.7581 54.4345 21.4337C54.4694 21.3821 54.4896 21.3342 54.5042 21.2863C54.5171 21.2439 54.5336 21.196 54.5556 21.1388C54.6766 20.7407 54.6766 20.3776 54.5519 20.0551C54.4272 19.727 54.242 19.4579 54.0017 19.2552C53.7559 19.0524 53.4771 18.9216 53.1635 18.8663C52.8499 18.811 52.5619 18.8441 52.2996 18.975C52.3125 19.104 52.2996 19.2165 52.2611 19.316C52.2226 19.4155 52.1621 19.4929 52.085 19.5574C52.0025 19.6183 51.9181 19.657 51.8228 19.6699C51.7274 19.6828 51.6375 19.6662 51.5568 19.6146C51.4321 19.5372 51.3496 19.4155 51.3202 19.2552C51.2909 19.0948 51.3331 18.94 51.4486 18.7962C51.5476 18.6617 51.7072 18.5585 51.9126 18.4847C52.1236 18.4073 52.3088 18.3557 52.4757 18.3244C52.5362 18.3115 52.5968 18.3023 52.661 18.3023H52.859L54.4107 14.5423C54.4235 14.334 54.3153 14.2142 54.0934 14.1755C53.9907 14.1589 53.9467 14.1055 53.965 14.0152C53.9778 13.9156 54.0384 13.8732 54.1411 13.8898L54.7298 13.9857L54.7463 13.9894L56.1439 14.2234L56.3714 21.1407C56.3842 21.3526 56.4961 21.478 56.707 21.513L56.7015 21.5148ZM54.0494 18.6248C54.2089 18.7078 54.363 18.8183 54.5189 18.9621C54.6785 19.104 54.7849 19.2386 54.8454 19.3639L54.6987 15.5136L53.512 18.4129C53.5982 18.4387 53.6881 18.4682 53.7834 18.5087C53.8733 18.5474 53.9632 18.5861 54.0494 18.6248ZM50.6691 16.9826C50.8452 16.8867 50.9864 16.6803 51.0946 16.3688C51.2065 16.0573 51.2744 15.7293 51.3092 15.3883C51.3441 15.0473 51.3257 14.7358 51.2615 14.4594C51.1973 14.1829 51.0854 14.0225 50.9167 13.9838C51.0249 14.1737 51.0928 14.4022 51.124 14.6621C51.1588 14.922 51.1588 15.1892 51.1331 15.462C51.1075 15.7348 51.0469 16.0057 50.9662 16.2785C50.88 16.5458 50.781 16.7835 50.6691 16.9826ZM49.0092 13.7037L48.8368 13.6908L47.8611 19.6496L47.8574 19.6662L48.0243 19.692L48.028 19.6754L49.0092 13.7037ZM50.1574 16.1882C50.1959 16.0205 50.2399 15.7956 50.2858 15.5136C50.3335 15.2335 50.3628 15.0031 50.3812 14.8353C50.4068 14.5368 50.3775 14.2861 50.2858 14.0797C50.1996 13.8714 50.0877 13.7258 49.9538 13.6355C49.8199 13.5396 49.6915 13.5065 49.5705 13.5267C49.4549 13.5488 49.3816 13.6299 49.3595 13.7774L48.8001 17.178C49.1578 17.2388 49.4531 17.1743 49.686 16.9789C49.9226 16.7854 50.0767 16.52 50.1556 16.1882H50.1574ZM49.9208 17.8525C50.0804 18.0774 50.1831 18.376 50.2308 18.7465C50.2784 19.1188 50.3206 19.5077 50.3518 19.9039C50.3867 20.3057 50.438 20.6817 50.5114 21.0448C50.5847 21.4043 50.726 21.6752 50.9406 21.8613C50.7553 21.5757 50.6434 21.2347 50.6049 20.8421C50.5664 20.4495 50.5315 20.0551 50.5059 19.6625C50.4765 19.2699 50.4288 18.9068 50.3646 18.5787C50.2949 18.2451 50.1501 18.0092 49.9226 17.8525H49.9208ZM56.0614 21.0117L55.812 14.8335L55.6579 14.8243L55.8945 20.9822L55.8908 20.9988L56.0577 21.0246L56.0614 21.0117ZM52.6866 20.3979C52.5711 20.6781 52.6646 20.8476 52.9654 20.8955C53.0645 20.9121 53.1066 20.973 53.0901 21.0725C53.0773 21.1628 53.0204 21.2015 52.9177 21.1849L51.5036 20.9472C51.4046 20.9343 51.3624 20.8771 51.3752 20.7868C51.3917 20.6873 51.4523 20.6449 51.5513 20.6615C51.7109 20.6873 51.8173 20.6652 51.8741 20.5914C51.9346 20.5214 51.9823 20.4311 52.0245 20.3186L52.4849 19.1999C52.6958 19.1649 52.9232 19.1778 53.169 19.2423L52.6866 20.3961V20.3979Z" fill="white"/>
<path d="M2.41236 21.8557C2.32249 21.4447 2.25829 21.1332 2.21061 20.9268C2.16842 20.7185 2.1244 20.5287 2.08222 20.3609C2.04003 20.1877 1.99602 19.9978 1.95383 19.7914C1.90614 19.5831 1.84195 19.2735 1.75208 18.8625L0.64244 13.6815L0.629601 13.6114C0.578246 13.3644 0.427849 13.2704 0.182078 13.322C0.0830353 13.3442 0.0225096 13.3091 0.00600255 13.2225C-0.0160068 13.1193 0.0225096 13.0585 0.121552 13.0364L2.34083 12.5571C2.43987 12.535 2.50407 12.5737 2.52608 12.6788C2.54258 12.7654 2.50407 12.8207 2.40136 12.8428C2.30231 12.8649 2.22161 12.9202 2.16109 13.0106C2.09689 13.0972 2.07488 13.1912 2.09689 13.2962C2.22528 13.8971 2.36284 14.5367 2.50957 15.2057C2.65079 15.8748 2.80119 16.5586 2.95159 17.2497C3.10566 17.9409 3.25605 18.6247 3.40278 19.303C3.54401 19.9776 3.68157 20.6208 3.81179 21.2217C3.89799 21.6235 3.8283 21.9995 3.60087 22.3497C3.37344 22.6962 3.0598 22.9118 2.65446 22.9985L2.45638 23.0409C2.13357 23.1109 1.82911 23.0667 1.54482 22.9063C1.26054 22.7459 1.06795 22.5137 0.968912 22.2059C0.882709 21.9682 0.873539 21.782 0.943235 21.6493C1.0166 21.5203 1.11014 21.4373 1.23119 21.4023C1.35224 21.3728 1.47696 21.3857 1.60168 21.4447C1.72273 21.5055 1.79977 21.6087 1.83461 21.7562C1.86029 21.8907 1.82544 22.0161 1.7319 22.1285C1.63286 22.2446 1.54299 22.3091 1.46596 22.3276L1.43661 22.3312C1.51915 22.4437 1.60902 22.5248 1.70806 22.5819C1.8071 22.6372 1.92265 22.652 2.05654 22.6206C2.19043 22.5893 2.28947 22.4953 2.35734 22.3276C2.42703 22.1598 2.44721 22.0032 2.41786 21.8557H2.41236ZM3.09098 20.5508C3.13867 20.7756 3.18085 20.9876 3.2157 21.1811C3.25422 21.3802 3.2799 21.5922 3.29273 21.8244C3.32758 21.7691 3.34776 21.6825 3.34776 21.5571C3.35143 21.4355 3.34409 21.2936 3.33125 21.1424C3.31474 20.9876 3.29273 20.8273 3.27073 20.6632C3.24505 20.4992 3.21937 20.348 3.19369 20.2135L1.75758 13.5082L1.59068 13.5469L3.09098 20.5508Z" fill="white"/>
<path d="M8.19582 20.0367C8.22517 20.175 8.25084 20.2782 8.27285 20.3556C8.29486 20.433 8.29853 20.4902 8.28202 20.5289C8.26918 20.5676 8.23067 20.5934 8.17014 20.6155C8.10962 20.6321 8.01608 20.6579 7.88219 20.6855L4.66148 21.3804C4.55877 21.4025 4.49825 21.3583 4.47624 21.2587C4.45973 21.1721 4.49825 21.1168 4.60096 21.0947C4.85406 21.0394 4.95861 20.8864 4.90542 20.6413L4.88891 20.5768L3.65455 14.7912L3.64538 14.7396C3.59036 14.4853 3.43446 14.3802 3.18135 14.4373C3.07864 14.4594 3.01812 14.4244 3.00161 14.3341C2.9796 14.2346 3.01811 14.1738 3.11716 14.1535L6.48826 13.4273C6.59097 13.4052 6.6515 13.4439 6.6735 13.5434L6.96513 14.9221C6.98164 15.0087 6.94312 15.064 6.84408 15.0861C6.74504 15.1082 6.68451 15.0732 6.668 14.9866C6.59464 14.6364 6.46625 14.3857 6.281 14.2346C6.10126 14.0798 5.91968 14.0005 5.73994 13.9931C5.5602 13.9839 5.4043 14.0318 5.27591 14.1351C5.15119 14.2383 5.1035 14.3728 5.13835 14.5405L5.52168 16.3339L5.7968 17.6259L5.80964 17.6775C5.9637 17.6646 6.08475 17.6001 6.16729 17.4785C6.24982 17.3532 6.26266 17.1449 6.19664 16.8555C6.17463 16.756 6.21314 16.6952 6.31218 16.6749C6.39839 16.6528 6.45341 16.697 6.47542 16.7965L6.79822 18.3042C6.81473 18.3945 6.78172 18.4517 6.69551 18.4682C6.59647 18.4904 6.54145 18.4553 6.51944 18.365C6.49009 18.2231 6.44241 18.1144 6.38555 18.0535C6.32502 17.989 6.2645 17.954 6.20947 17.9411C6.14895 17.9319 6.08842 17.9319 6.02973 17.9448C5.96921 17.9577 5.91785 17.9669 5.87567 17.9798L6.17646 19.388L6.3397 20.1566C6.37454 20.3114 6.47725 20.4164 6.64966 20.4588C6.82574 20.5012 7.00731 20.4975 7.18706 20.4367C7.3723 20.3814 7.52637 20.2819 7.65109 20.1381C7.77948 19.9907 7.80515 19.8045 7.73362 19.576C7.70428 19.5926 7.65659 19.611 7.58689 19.6239C7.453 19.6534 7.32828 19.6276 7.21273 19.5538C7.10085 19.4801 7.02749 19.3769 6.99814 19.2424C6.97247 19.1078 6.99448 18.9788 7.06784 18.8571C7.1412 18.7355 7.24391 18.6636 7.3778 18.6323C7.56672 18.5936 7.71345 18.6286 7.81249 18.741C7.91153 18.8535 7.97573 18.9917 8.01057 19.1465L8.19949 20.0331L8.19582 20.0367ZM6.04074 20.4164L4.77703 14.4797L4.61013 14.5147L5.84815 20.3169L5.87383 20.433L6.04074 20.4164Z" fill="white"/>
<path d="M14.2853 17.0763C14.5476 17.1242 14.7879 17.2182 15.0043 17.3657C15.2189 17.5168 15.4005 17.703 15.5417 17.9278C15.6884 18.1527 15.7875 18.3997 15.8388 18.6761C15.8902 18.9526 15.8993 19.2383 15.8553 19.5369C15.7856 19.9903 15.5967 20.3626 15.2959 20.652C14.9951 20.9413 14.6503 21.1367 14.2725 21.2307C13.8892 21.3302 13.4985 21.3265 13.095 21.2307C12.6915 21.1312 12.3503 20.9247 12.0752 20.6003C11.9156 20.4271 11.7964 20.2207 11.7139 19.9737C11.6314 19.7267 11.5635 19.4724 11.5121 19.2088C11.4608 18.9452 11.4094 18.6853 11.3617 18.4347C11.3104 18.184 11.2407 17.9628 11.1508 17.773C11.0609 17.5868 10.9362 17.4449 10.7803 17.3417C10.6263 17.2422 10.419 17.2164 10.1604 17.2588L10.5437 19.476C10.5914 19.7359 10.7418 19.8428 11.0004 19.7949C11.0995 19.7783 11.16 19.8115 11.1728 19.9036C11.1893 20.0032 11.1508 20.064 11.0481 20.0806L8.81232 20.4732C8.71328 20.4898 8.65275 20.4474 8.63625 20.3478C8.61974 20.2575 8.66193 20.2059 8.76464 20.1838C9.02325 20.1414 9.12596 19.9811 9.07827 19.712L8.064 13.849L8.05116 13.7789C8.00898 13.532 7.85858 13.4324 7.59997 13.4767C7.50093 13.4933 7.4404 13.4545 7.4239 13.3513C7.40739 13.261 7.44957 13.2094 7.54862 13.191L10.1072 12.7413L10.1237 12.7376H10.1402L10.1531 12.7339L10.1879 12.7302L10.5584 12.6657C10.894 12.6049 11.2113 12.6878 11.5048 12.9071C11.7964 13.1283 12 13.4343 12.1119 13.8195C12.1412 13.919 12.1724 14.0407 12.2018 14.1789C12.2311 14.3171 12.2568 14.4646 12.2843 14.6065C12.31 14.754 12.332 14.8996 12.3485 15.0433C12.3705 15.1816 12.3833 15.3069 12.387 15.4101C12.4127 15.6829 12.3613 15.9409 12.2274 16.1842C12.0991 16.4312 11.9303 16.6339 11.7286 16.798C11.9487 16.8717 12.1192 17.0192 12.2366 17.2293C12.3522 17.4412 12.4512 17.6882 12.5282 17.9684C12.6053 18.254 12.675 18.5471 12.7355 18.8549C12.796 19.1664 12.8731 19.4521 12.9721 19.7101C13.0675 19.9737 13.1959 20.1893 13.3591 20.3589C13.5223 20.5285 13.7424 20.6059 14.0175 20.593C14.3495 20.5801 14.6155 20.4934 14.8209 20.3386C15.0226 20.1783 15.1657 19.9884 15.2464 19.7599C15.3271 19.5313 15.3583 19.2844 15.3363 19.03C15.3143 18.7701 15.2464 18.5379 15.129 18.3259C15.008 18.114 14.8539 17.9499 14.6595 17.8338C14.4669 17.7177 14.234 17.6827 13.968 17.7306C14.023 17.9297 14.0102 18.0937 13.9295 18.2227C13.8525 18.3517 13.7443 18.4384 13.6122 18.4771C13.4838 18.5195 13.3536 18.5066 13.2252 18.442C13.1005 18.3775 13.0179 18.243 12.9849 18.0402C12.9556 17.8725 12.9758 17.7214 13.0546 17.5905C13.128 17.4652 13.2307 17.3564 13.3591 17.2717C13.4875 17.185 13.6379 17.1205 13.8066 17.0855C13.9735 17.0505 14.1331 17.0505 14.289 17.0818L14.2853 17.0763ZM10.1439 19.5608L10.1402 19.5442L9.10761 13.5817L8.95355 13.6075L9.98616 19.5535L9.99533 19.5885L10.1457 19.5627L10.1439 19.5608ZM11.0518 15.517C11.0518 15.4396 11.0389 15.3401 11.0169 15.2184C11.0004 15.1023 10.9784 14.977 10.9527 14.8461C10.9307 14.7171 10.9105 14.5954 10.8885 14.4738C10.872 14.3577 10.8464 14.2581 10.8243 14.1844C10.751 13.8951 10.6391 13.6665 10.4887 13.5025C10.3383 13.3384 10.1842 13.2352 10.0283 13.191C9.86877 13.1486 9.73672 13.156 9.63217 13.2168C9.52396 13.2721 9.48544 13.3771 9.51112 13.5227L10.0962 16.9012C10.4575 16.8404 10.7161 16.6763 10.8702 16.4165C11.0298 16.1566 11.0903 15.8598 11.0499 15.5133L11.0518 15.517ZM11.8294 16.0957C11.9633 15.9446 12.0312 15.7068 12.0367 15.3825C12.0367 15.0544 11.9982 14.7263 11.9156 14.3927C11.8331 14.0591 11.7176 13.766 11.5635 13.5246C11.4131 13.2776 11.2499 13.1615 11.0811 13.1781C11.2572 13.3255 11.3984 13.5117 11.5158 13.7476C11.6314 13.9817 11.7231 14.236 11.7781 14.5125C11.8386 14.7853 11.8735 15.0618 11.8808 15.3382C11.8845 15.6147 11.8716 15.8654 11.8294 16.0939V16.0957ZM11.5635 17.1537C11.7047 17.2532 11.8221 17.4044 11.912 17.6034C11.9982 17.8062 12.0715 18.031 12.1321 18.2817C12.1926 18.5324 12.2476 18.7867 12.299 19.0503C12.3503 19.3138 12.4109 19.5645 12.4787 19.7931C12.5484 20.0271 12.642 20.2207 12.7538 20.381C12.8694 20.5414 13.0161 20.6446 13.1959 20.6962C12.9427 20.4842 12.7612 20.1949 12.6585 19.8225C12.5502 19.4502 12.4659 19.0798 12.3925 18.7038C12.3228 18.3278 12.2329 17.9905 12.1266 17.6974C12.0147 17.4044 11.8294 17.2219 11.5635 17.1537ZM14.6375 12.6989L15.2005 15.9575C15.2226 16.0699 15.2391 16.1658 15.2611 16.2432C15.2776 16.3206 15.3088 16.4035 15.3509 16.481C15.3931 16.5584 15.45 16.645 15.5178 16.7408C15.5875 16.8312 15.6774 16.9436 15.793 17.0744C15.8351 17.1353 15.8572 17.1961 15.848 17.2477C15.8388 17.303 15.8186 17.3435 15.7838 17.373C15.7453 17.4025 15.7013 17.4154 15.6499 17.4117C15.5985 17.4117 15.5472 17.3767 15.5032 17.3159C15.3564 17.1353 15.1932 16.9915 15.0208 16.8975C14.8484 16.798 14.6687 16.7335 14.4834 16.6948C14.2982 16.6597 14.1129 16.6432 13.9332 16.6524C13.7479 16.6616 13.5718 16.6819 13.4049 16.7132C13.3059 16.7298 13.2454 16.6837 13.2252 16.5786C13.2124 16.4791 13.2509 16.4238 13.3536 16.4054C13.6122 16.363 13.7149 16.2119 13.6709 15.952L13.1427 12.8924C13.1262 12.7892 13.0693 12.7118 12.9794 12.6509C12.8841 12.5901 12.7905 12.568 12.6915 12.5901C12.5888 12.6067 12.5282 12.5643 12.5117 12.4648C12.4989 12.3745 12.5411 12.3173 12.6401 12.3007L14.8759 11.9082C14.9786 11.8916 15.0355 11.9303 15.052 12.0206C15.0685 12.1201 15.0263 12.1809 14.9273 12.1975C14.6778 12.2399 14.5788 12.3874 14.6228 12.638L14.6356 12.7026L14.6375 12.6989ZM14.8576 16.2801L14.7237 15.5023L14.2376 12.6989L14.0707 12.7247L14.5568 15.5281L14.6778 16.2229L14.8576 16.2782V16.2801Z" fill="white"/>
</svg>
