<svg width="58" height="13" viewBox="0 0 58 13" fill="none" xmlns="http://www.w3.org/2000/svg">
<path d="M29.6235 9.97591C29.1524 9.26123 28.6812 8.54711 28.2095 7.83243C27.7455 7.12881 27.2821 6.42519 26.8181 5.72158C26.1086 4.64624 25.3974 3.57201 24.689 2.49612C24.2482 1.8268 23.7974 1.16356 23.3647 0.47101H23.2216C18.1633 0.47101 13.1044 0.471563 8.04602 0.467691C7.91392 0.467691 7.84182 0.510284 7.77192 0.617597C7.02114 1.76595 6.26542 2.91099 5.51024 4.05713C5.03964 4.77181 4.56848 5.48649 4.09732 6.20117C3.62121 6.92304 3.14564 7.64546 2.66898 8.36678C1.80592 9.67389 0.942317 10.9804 0.0792603 12.2876C0.0561427 12.323 0.0357772 12.3606 0 12.422H12.1813C13.2954 12.422 14.4089 12.4209 15.5229 12.4242C15.6231 12.4242 15.6787 12.3932 15.7343 12.308C16.4427 11.2266 17.1555 10.1485 17.8671 9.06928C18.324 8.37673 18.7803 7.68418 19.2366 6.99163C19.2729 6.93686 19.3103 6.88321 19.3566 6.81572C19.3907 6.86551 19.4182 6.90367 19.4441 6.94295C19.667 7.28203 19.8894 7.62167 20.1134 7.9602C20.7844 8.97635 21.4559 9.99195 22.1274 11.0081C22.4169 11.4462 22.707 11.8837 22.9938 12.3235C23.0394 12.3932 23.0873 12.4308 23.1748 12.4242C23.2756 12.4164 23.3774 12.4192 23.4787 12.4231C23.5414 12.4253 23.5855 12.4037 23.6256 12.355C23.7489 12.2057 23.8783 12.0613 24.0021 11.912C24.0451 11.86 24.0924 11.8356 24.1606 11.8373C24.3324 11.8406 24.5041 11.84 24.6758 11.8373C24.7424 11.8362 24.7898 11.8539 24.8344 11.9086C24.9538 12.0558 25.0826 12.1946 25.2037 12.3401C25.2472 12.3921 25.2923 12.4137 25.3611 12.412C25.5416 12.407 25.7222 12.4043 25.9027 12.4126C25.993 12.417 26.0508 12.3827 26.1042 12.3174C26.2187 12.178 26.3353 12.0403 26.4531 11.9031C26.4867 11.8644 26.5164 11.8235 26.5814 11.8251C26.7966 11.829 27.0124 11.8268 27.2265 11.8268C27.3712 11.9938 27.5154 12.1548 27.6519 12.3218C27.6965 12.3761 27.7422 12.3971 27.8088 12.3965C27.9982 12.3938 28.1875 12.3932 28.3768 12.3965C28.4495 12.3976 28.499 12.3722 28.5453 12.3158C28.6653 12.1692 28.793 12.0292 28.9141 11.8837C28.957 11.8318 29.0038 11.8085 29.0726 11.8107C29.2399 11.8152 29.4072 11.8157 29.5746 11.8107C29.6533 11.808 29.7072 11.8367 29.7556 11.8948C29.8679 12.0309 29.9868 12.1609 30.0953 12.2997C30.1475 12.3667 30.2037 12.3888 30.2857 12.3866C30.4794 12.381 30.6732 12.3849 30.8669 12.3844C30.9055 12.3844 30.944 12.381 30.9891 12.3788C31.004 12.204 31.0012 12.0536 30.8961 11.8981C30.4646 11.2637 30.0479 10.6181 29.6257 9.97702L29.6235 9.97591ZM7.89851 11.7941C7.86383 11.8489 7.82255 11.8771 7.75816 11.871C7.73614 11.8688 7.71412 11.871 7.6921 11.871C5.52621 11.871 3.36031 11.871 1.19441 11.871C1.14377 11.871 1.09313 11.8672 1.01993 11.8644C1.05901 11.8024 1.08322 11.7621 1.10964 11.7222C1.47953 11.163 1.84996 10.6037 2.21929 10.0439C2.69595 9.32263 3.17206 8.60076 3.64818 7.87889C4.12429 7.15702 4.5993 6.4346 5.07541 5.71273C5.53942 5.00911 6.00397 4.30605 6.46797 3.60299C6.94684 2.8778 7.42515 2.15205 7.90347 1.42631C7.97887 1.31236 8.05428 1.19786 8.12583 1.0817C8.15721 1.03136 8.19574 1.00481 8.25518 1.00979C8.2816 1.012 8.30802 1.00979 8.33444 1.00979H14.9984C14.9631 1.07008 14.9439 1.10769 14.9213 1.14199C14.5762 1.66472 14.2294 2.1869 13.8843 2.70964C13.4005 3.44202 12.9178 4.1755 12.4345 4.90844C11.9683 5.61537 11.5021 6.32286 11.0353 7.02979C10.0952 8.45528 9.15512 9.88021 8.215 11.3057C8.10822 11.4678 8.00089 11.6298 7.89796 11.7941H7.89851ZM18.5381 7.0569C17.9844 7.89659 17.4301 8.73573 16.8758 9.57542C16.4267 10.2564 15.9776 10.9384 15.5279 11.6193C15.4745 11.7001 15.4348 11.8107 15.3594 11.85C15.2785 11.892 15.1629 11.8705 15.0622 11.8705C12.9536 11.871 10.8449 11.8705 8.73625 11.8705H8.54305C8.57498 11.8141 8.59314 11.777 8.61571 11.7427C9.12099 10.9766 9.62628 10.211 10.1321 9.44488C10.8344 8.3806 11.5368 7.31633 12.2386 6.25206C12.7075 5.54125 13.1759 4.83044 13.6449 4.11963C14.121 3.39776 14.5966 2.67589 15.0721 1.95402C15.2251 1.72225 15.3776 1.48993 15.5306 1.2576C15.5543 1.2222 15.5802 1.18846 15.617 1.13756C16.7597 2.87005 17.8925 4.58816 19.0285 6.31124C18.8623 6.56348 18.6999 6.81019 18.5376 7.05635L18.5381 7.0569Z" fill="white" fill-opacity="0.75"/>
<path d="M47.0872 6.43847C46.6986 6.10879 46.2506 5.88974 45.7723 5.72656C45.6903 5.69835 45.6077 5.67179 45.5015 5.63639C45.6226 5.58661 45.72 5.54899 45.8152 5.50695C46.2203 5.32607 46.5726 5.07826 46.823 4.70156C47.1373 4.22861 47.199 3.69204 47.2072 3.14442C47.2094 2.97792 47.188 2.81031 47.1649 2.64492C47.0955 2.1504 46.9194 1.70013 46.6084 1.30572C46.2561 0.859327 45.7954 0.569472 45.2742 0.368123C44.601 0.108139 43.8954 0.0113367 43.1809 0.00635824C41.3981 -0.00525806 39.6148 0.00248614 37.8319 0.0030393C37.7846 0.0030393 37.7378 0.00746455 37.6866 0.0102303V12.5188H37.8738C39.6654 12.5188 41.4576 12.5199 43.2497 12.5177C43.4826 12.5177 43.7159 12.511 43.9471 12.49C44.2394 12.464 44.5327 12.4341 44.8212 12.3816C45.4398 12.2687 46.0271 12.0624 46.5577 11.7167C47.2397 11.272 47.7098 10.6635 47.9398 9.87523C48.1044 9.31101 48.1308 8.73795 48.0389 8.15934C47.9294 7.47066 47.6228 6.89095 47.0883 6.43847H47.0872ZM41.0635 2.85069H41.2286C41.7608 2.85069 42.2931 2.85954 42.8248 2.84793C43.3301 2.83686 43.7611 3.14387 43.8045 3.75289C43.8216 3.99462 43.7968 4.23082 43.6873 4.44876C43.5227 4.77679 43.2497 4.95435 42.8875 4.96099C42.3162 4.97205 41.7443 4.96375 41.1724 4.9632C41.1383 4.9632 41.1042 4.95767 41.0635 4.95435V2.85069ZM44.5586 8.72411C44.4662 9.19319 44.1794 9.47973 43.7247 9.59423C43.569 9.63351 43.4044 9.65674 43.2437 9.6584C42.5622 9.66559 41.8803 9.66172 41.1983 9.66116C41.1554 9.66116 41.1124 9.65674 41.0629 9.65397V7.04307C41.1157 7.04307 41.1587 7.04307 41.2016 7.04307C41.8748 7.04307 42.5474 7.04307 43.2205 7.04307C43.4237 7.04307 43.6224 7.07349 43.815 7.14043C44.1673 7.26323 44.4034 7.50164 44.5113 7.86064C44.596 8.1433 44.6159 8.43205 44.5586 8.72301V8.72411Z" fill="white"/>
<path d="M49.3863 0.0107835C49.3583 0.205495 49.3682 12.417 49.3946 12.5099C50.5059 12.5099 51.6172 12.5099 52.7445 12.5099V7.75775H56.9408C56.9408 6.83896 56.9408 5.93565 56.9408 5.0152H52.7593C52.7274 4.84427 52.7351 3.05757 52.7687 2.9569H56.7779C56.9452 2.9569 57.1126 2.9569 57.2799 2.9569C57.445 2.9569 57.6107 2.95469 57.7802 2.95358V0.0107835H49.3863Z" fill="white"/>
<path d="M32.5066 0.00801771C32.4786 0.192772 32.4879 12.4159 32.5138 12.5099H35.8466C35.8741 12.318 35.8647 0.108139 35.8361 0.00801771H32.5061H32.5066Z" fill="white"/>
</svg>
