<svg width="99" height="18" viewBox="0 0 99 18" fill="none" xmlns="http://www.w3.org/2000/svg">
<path d="M0.0273617 8.61535L0.137005 6.92523C0.137005 6.20095 0.173619 5.7805 0.246649 5.66425V5.32438C0.246649 5.18133 0.27401 5.07395 0.319679 5.00243C0.40196 4.85033 0.538769 4.48385 0.721442 3.90242C0.785417 3.90242 0.949784 3.51782 1.23285 2.74882C1.23285 2.72202 1.28757 2.65937 1.39722 2.55199C1.50686 2.44461 1.66197 2.33742 1.86295 2.21211C2.06374 2.09587 2.24641 2.02434 2.41983 2.01548L2.8399 1.92603H2.91293H3.17769H3.4334C3.47906 1.92603 3.54304 1.94395 3.64343 1.95282C3.73255 1.96046 3.81934 1.98474 3.89913 2.02434C4.0452 2.10473 4.22787 2.23891 4.46527 2.41781C4.46527 2.50726 4.25523 2.65031 3.8261 2.82921C3.79874 2.82921 3.72571 2.9096 3.60701 3.07963L3.27828 3.77711L2.8399 4.98431C2.64818 5.50309 2.47475 6.17377 2.31944 6.99637L2.05468 8.38247C1.98165 8.70442 1.94504 9.17847 1.94504 9.80443C1.94504 10.4304 1.95409 10.9044 1.98165 11.2085C2.08205 12.1922 2.29208 13.0239 2.62081 13.6946C2.7031 13.8644 2.76687 13.9986 2.80349 14.0969L2.87652 14.2847L2.93124 14.4098C3.04088 14.6511 3.333 15.0716 3.81705 15.6885L3.96311 15.9569C4.09086 16.0731 4.31921 16.3503 4.63888 16.7976C4.6755 16.8602 4.72117 17.0301 4.76664 17.3341C4.57491 17.3073 4.44716 17.2894 4.38318 17.2626C4.31921 17.2358 4.19145 17.1642 3.98142 17.0301L3.96311 17.048L3.88083 16.9585C3.81685 16.9227 3.73477 16.905 3.63418 16.905L2.86707 16.3505C2.6844 16.1716 2.53834 16.0374 2.41039 15.9391L2.02693 15.5098L1.7165 15.0089L1.58875 14.7406C1.58875 14.7406 1.52477 14.5976 1.49741 14.4007C1.43344 14.3651 1.27832 14.1682 1.02262 13.8195L0.785221 13.3545L0.693884 13.0146C0.529517 12.6032 0.419874 12.326 0.383457 12.2009L0.182674 11.4143C0.182674 11.4143 0.164367 11.2892 0.12795 11.1103C0.0915336 10.9314 0.0732269 10.6633 0.0732269 10.3143L0 9.84934C0 9.6795 0.0273617 9.5274 0.07303 9.36643C0.0273617 9.3217 0.00905494 9.19659 0.0183067 8.99089V8.61535H0.0273617ZM14.7747 14.7144L13.9072 13.516L12.8663 12.3089L11.7431 11.2C11.3596 10.8512 10.976 10.5472 10.5925 10.2877V14.7144H8.76616V4.85939H10.5925V8.92843L11.597 7.92693L12.6379 6.84485L13.6151 5.78956L14.4552 4.86845H16.6467L15.6332 5.99526L14.5283 7.16679L13.3867 8.33832L12.2635 9.4472C12.6744 9.75122 13.0854 10.1 13.5054 10.5025L14.7473 11.7991L15.9162 13.2388L16.9388 14.7234H14.7747V14.7144ZM23.0021 5.10094C23.0021 5.42289 22.8925 5.68218 22.6824 5.86995C22.4724 6.05772 22.2167 6.15604 21.9246 6.15604C21.6324 6.15604 21.3675 6.05772 21.1575 5.86995C20.9474 5.68218 20.838 5.42289 20.838 5.10094C20.838 4.779 20.9474 4.51065 21.1575 4.31401C21.3675 4.12624 21.6232 4.02792 21.9246 4.02792C22.2259 4.02792 22.4633 4.12624 22.6824 4.31401C22.8925 4.50178 23.0021 4.76107 23.0021 5.10094ZM22.8104 14.7146H21.0571V7.28284H22.8104V14.7232V14.7146ZM34.3979 13.1671V14.7142H28.0424V4.8592H29.8687V13.1671H34.3979ZM47.4741 9.78688C47.4741 10.6276 47.3463 11.3787 47.0906 12.0226C46.8349 12.6665 46.4879 13.203 46.0404 13.6412C45.6022 14.0705 45.0818 14.4013 44.4973 14.6159C43.9038 14.8304 43.2737 14.9467 42.607 14.9467C41.9403 14.9467 41.3104 14.8393 40.7079 14.6159C40.1241 14.4055 39.5944 14.0728 39.1555 13.6412C38.7173 13.212 38.361 12.6753 38.1053 12.0226C37.8406 11.3787 37.7126 10.6365 37.7126 9.78688C37.7126 8.9373 37.8406 8.20395 38.1053 7.56006C38.3701 6.91617 38.7262 6.37966 39.1736 5.95034C39.6211 5.51215 40.1417 5.1902 40.7352 4.96658C41.3287 4.75201 41.9496 4.63576 42.607 4.63576C43.2645 4.63576 43.8946 4.74314 44.479 4.96658C45.0725 5.18114 45.5839 5.51215 46.0223 5.95034C46.4607 6.38853 46.8166 6.92504 47.0723 7.56006C47.3372 8.20395 47.465 8.94616 47.465 9.78688M39.603 9.78688C39.603 10.3234 39.6667 10.8154 39.8037 11.2624C39.9407 11.7006 40.1325 12.0762 40.3882 12.3892C40.6439 12.7023 40.9543 12.9348 41.3287 13.1047C41.694 13.2745 42.1139 13.3639 42.5797 13.3639C43.0454 13.3639 43.4472 13.2745 43.8125 13.1047C44.1779 12.9348 44.4881 12.6933 44.7438 12.3892C44.9995 12.0852 45.2005 11.7095 45.3375 11.2624C45.4743 10.8242 45.5383 10.3325 45.5383 9.78688C45.5383 9.24131 45.4743 8.75839 45.3375 8.31133C45.2005 7.87314 45.0087 7.4976 44.7438 7.18453C44.4881 6.87145 44.1777 6.63895 43.8125 6.46911C43.4474 6.29927 43.0363 6.20982 42.5797 6.20982C42.123 6.20982 41.7031 6.29927 41.3287 6.46911C40.9628 6.63715 40.6411 6.88497 40.3882 7.19359C40.1325 7.50666 39.9317 7.8822 39.8037 8.32039C39.6667 8.75859 39.603 9.24131 39.603 9.78688ZM54.5875 4.85939L55.2999 6.18283L56.1034 7.82822L56.9069 9.58099L57.6374 11.2264L58.3679 9.58099L59.1624 7.82822L59.9659 6.18283L60.6781 4.85939H62.331C62.427 5.62402 62.5092 6.39026 62.5775 7.15773C62.6598 7.97146 62.7236 8.79425 62.7875 9.64384L62.9702 12.2015L63.1072 14.7144H61.3082L61.1712 11.173C61.1165 9.95672 61.0342 8.78519 60.9248 7.64951C60.8151 7.86408 60.6964 8.13243 60.5504 8.43645L60.0846 9.42908L59.5825 10.5291L59.0894 11.6291L58.6419 12.6217L58.2949 13.4087H56.9343C56.8339 13.1941 56.7243 12.9258 56.5873 12.6127L56.1398 11.611L55.6467 10.511L55.1446 9.42002L54.6788 8.42739L54.3044 7.64932C54.195 8.785 54.1127 9.96559 54.058 11.1728L53.921 14.7142H52.122L52.259 12.1834L52.4417 9.58986L52.6517 7.09488L52.9074 4.8592H54.5967L54.5875 4.85939ZM71.1702 14.8304C70.6405 14.8304 70.1018 14.8125 69.5539 14.7768C69.0061 14.7412 68.5404 14.6785 68.1294 14.5711V5.00224L68.8142 4.89486L69.5539 4.81428L70.3027 4.76955L71.0059 4.75162C71.6177 4.75162 72.1838 4.79635 72.7043 4.8858C73.2247 4.97525 73.6812 5.12716 74.0649 5.33286C74.4485 5.53856 74.7497 5.81578 74.9597 6.15565C75.1698 6.49553 75.2792 6.91579 75.2792 7.4255C75.2792 7.89049 75.1698 8.28396 74.9414 8.62383C74.7131 8.95465 74.3936 9.223 73.9918 9.41983C74.6036 9.61666 75.0511 9.91161 75.3432 10.3051C75.6353 10.6985 75.7816 11.1905 75.7816 11.7806C75.7816 12.7912 75.4072 13.5602 74.6493 14.061C73.8912 14.5708 72.7316 14.8212 71.1793 14.8212M69.9466 8.85633H71.234C71.9281 8.85633 72.4759 8.75801 72.8777 8.56118C73.2704 8.36454 73.4712 8.01561 73.4712 7.51495C73.4712 7.0409 73.2613 6.70122 72.8503 6.50439C72.4393 6.30756 71.9007 6.20924 71.2433 6.20924C70.9602 6.20924 70.7135 6.20924 70.4945 6.22717C70.2754 6.22717 70.0927 6.25397 69.9374 6.2719V8.86539L69.9466 8.85633ZM69.9466 10.2604V13.2654C70.1623 13.2858 70.3784 13.3007 70.5949 13.3102C70.8232 13.3102 71.0423 13.3281 71.234 13.3281C71.5854 13.3284 71.9363 13.3045 72.2842 13.2566C72.6129 13.2118 72.8869 13.1224 73.1243 13.0061C73.3617 12.8899 73.5535 12.7289 73.6905 12.5321C73.8275 12.3353 73.9005 12.076 73.9005 11.7631C73.9005 11.1998 73.6905 10.8152 73.2794 10.5916C72.8594 10.377 72.2842 10.2607 71.5537 10.2607H69.9466V10.2604ZM89.935 9.78688C89.935 10.6276 89.8073 11.3787 89.5516 12.0226C89.2959 12.6665 88.949 13.203 88.5016 13.6412C88.0626 14.0728 87.5328 14.4054 86.9491 14.6159C86.3441 14.8354 85.7041 14.9475 85.0589 14.9467C84.3924 14.9467 83.7623 14.8393 83.1688 14.6159C82.5851 14.4055 82.0553 14.0728 81.6165 13.6412C81.1783 13.212 80.822 12.6753 80.5663 12.0226C80.3106 11.3787 80.1736 10.6365 80.1736 9.78688C80.1736 8.9373 80.3015 8.20395 80.5663 7.56006C80.8311 6.91617 81.1872 6.37966 81.6346 5.95034C82.082 5.51215 82.6027 5.1902 83.1962 4.96658C83.7947 4.74705 84.4288 4.63499 85.068 4.63576C85.7253 4.63576 86.3465 4.74314 86.94 4.96658C87.5335 5.18114 88.0449 5.51215 88.4833 5.95034C88.9217 6.38853 89.2778 6.92504 89.5333 7.56006C89.7982 8.20395 89.926 8.94616 89.926 9.78688M82.073 9.78688C82.073 10.3234 82.1369 10.8154 82.2739 11.2624C82.4108 11.7006 82.6027 12.0762 82.8582 12.3892C83.1137 12.7023 83.4245 12.9348 83.7987 13.1047C84.1641 13.2745 84.5841 13.3639 85.0499 13.3639C85.5156 13.3639 85.9174 13.2745 86.2825 13.1047C86.6477 12.9348 86.9674 12.6933 87.2231 12.3892C87.4788 12.0852 87.6798 11.7095 87.8075 11.2624C87.9445 10.8242 88.0085 10.3325 88.0085 9.78688C88.0085 9.24131 87.9445 8.75839 87.8075 8.31133C87.6705 7.87314 87.4788 7.4976 87.2231 7.18453C86.9674 6.87145 86.6569 6.63895 86.2825 6.46911C85.9174 6.29927 85.5064 6.20982 85.0499 6.20982C84.5934 6.20982 84.1641 6.29927 83.7987 6.46911C83.4334 6.63895 83.1139 6.88051 82.8582 7.19359C82.6025 7.50666 82.4017 7.8822 82.2739 8.32039C82.1369 8.75859 82.073 9.24131 82.073 9.78688ZM96.1991 10.2339C96.1534 10.1981 96.126 9.99258 96.126 9.59892L96.053 8.10544L95.9526 7.01449L95.8886 6.67462C95.8247 6.4242 95.7426 5.76238 95.6146 4.68029L95.4869 4.25097C95.4503 4.09 95.3499 3.86637 95.1765 3.58915C95.1765 3.51763 95.1034 3.40138 94.9664 3.24041C94.8294 3.07944 94.7564 2.93639 94.7564 2.82015C94.7564 2.77542 94.8841 2.66804 95.1581 2.4982H95.569C95.7243 2.4982 95.8613 2.51613 95.98 2.54293C96.0987 2.56972 96.254 2.7039 96.4548 2.92753C96.6465 3.15115 96.8475 3.49989 97.0575 3.95601L97.4046 4.72502L97.4227 4.76088C97.5049 4.87712 97.587 5.11868 97.6784 5.46742L97.788 5.82522L98.0801 7.3187C98.1075 7.43495 98.1167 7.58705 98.1167 7.78369V8.12356C98.1898 8.26661 98.2264 8.66914 98.2264 9.33076C98.2264 10.0909 98.1532 10.7348 98.0071 11.2713L97.8793 11.7901C97.8427 12.0046 97.6693 12.4519 97.3496 13.1226C97.03 13.7933 96.6739 14.3745 96.263 14.8486L95.5235 15.5728C95.4959 15.6532 95.3682 15.7785 95.1215 15.9306L94.2359 16.2882L93.7062 16.3777C93.3318 16.3777 93.1127 16.2882 93.0487 16.1093L93.7975 15.68C93.7975 15.68 93.9255 15.4923 94.1993 15.1971V15.1435C94.2633 15.1794 94.4186 14.9914 94.6741 14.5711L94.8934 14.1956C94.8934 14.1956 94.9938 14.0167 95.1855 13.7663H95.2221L95.2402 13.6589C95.2402 13.5962 95.3408 13.4085 95.5325 13.0686C95.5416 13.0686 95.5965 12.9344 95.6786 12.6572C95.7607 12.38 95.8156 12.2101 95.8247 12.1207C95.8339 12.0403 95.8522 11.9865 95.8613 11.9777V11.9956C95.98 11.8167 96.044 11.6648 96.044 11.5215C96.044 11.3783 96.0256 11.2443 95.989 11.1013C95.989 10.824 96.0713 10.5289 96.2264 10.1981" fill="white"/>
</svg>
