<svg width="71" height="28" viewBox="0 0 71 28" fill="none" xmlns="http://www.w3.org/2000/svg">
<g clip-path="url(#clip0_2163_213)">
<path d="M36.6378 18.0013C37.0503 18.0226 37.4627 17.9576 37.8486 17.8105C38.2345 17.6633 38.5853 17.4372 38.8787 17.1467C39.172 16.8562 39.4014 16.5077 39.552 16.1235C39.7027 15.7393 39.7713 15.3279 39.7536 14.9156C39.7536 13.2037 38.5932 12.1197 36.7237 12.1197C36.3231 12.0905 35.9207 12.1452 35.5424 12.2802C35.1642 12.4153 34.8183 12.6278 34.527 12.9042C34.2357 13.1805 34.0054 13.5146 33.8508 13.885C33.6963 14.2554 33.6208 14.654 33.6294 15.0552C33.6167 15.4509 33.6868 15.845 33.8352 16.2123C33.9835 16.5795 34.2068 16.9118 34.4909 17.188C34.775 17.4642 35.1135 17.6782 35.485 17.8164C35.8565 17.9546 36.2528 18.0139 36.6485 17.9906M36.9655 17.6149C35.5257 17.6149 34.6662 16.3807 34.6662 14.819C34.6662 12.9569 35.6439 12.4793 36.5088 12.4793C37.739 12.4793 38.706 13.5204 38.706 15.1947C38.706 17.3413 37.4919 17.6149 36.9655 17.6149ZM41.9561 17.9638C42.3324 17.9841 42.7063 17.8926 43.0306 17.7008C43.2366 17.5813 43.4076 17.4099 43.5264 17.2036C43.6452 16.9974 43.7076 16.7635 43.7074 16.5256C43.7074 15.946 43.4388 15.4523 42.5686 14.98L42.2999 14.8298C41.7036 14.5024 41.6016 14.2931 41.6016 13.9926C41.6016 13.5579 42.026 13.3111 42.4987 13.3111C42.6363 13.3009 42.7744 13.3227 42.9021 13.3749C43.0298 13.427 43.1437 13.508 43.2347 13.6116C43.3343 13.7298 43.3944 13.8761 43.4066 14.0302C43.4066 14.1053 43.4066 14.1429 43.4764 14.1429C43.5463 14.1429 43.557 14.0731 43.557 13.9389C43.557 13.4399 43.557 13.2574 43.557 13.1769C43.557 13.0964 43.5302 13.1071 43.4657 13.0964C43.16 13.0208 42.8458 12.9847 42.5309 12.9891C41.6177 12.9891 40.8656 13.4935 40.8656 14.2717C40.8656 14.8083 41.1235 15.2591 41.9024 15.7152L42.2838 15.9406C42.8694 16.2841 42.9339 16.5631 42.9339 16.8368C42.9322 16.9516 42.9067 17.0648 42.8589 17.1692C42.811 17.2736 42.742 17.3668 42.656 17.4431C42.5701 17.5193 42.4692 17.5768 42.3598 17.612C42.2504 17.6471 42.1349 17.6591 42.0206 17.6471C41.7972 17.6764 41.5703 17.6306 41.3758 17.517C41.1812 17.4033 41.0301 17.2282 40.9462 17.0193C40.9106 16.9118 40.8907 16.7997 40.8871 16.6865C40.8871 16.6436 40.8871 16.5846 40.8172 16.5846C40.7474 16.5846 40.7367 16.649 40.7367 16.7456C40.7367 16.8422 40.6991 17.25 40.6991 17.5935C40.6991 17.7384 40.6991 17.7652 40.828 17.8135C41.1726 17.935 41.5373 17.9897 41.9024 17.9745M46.1141 16.0426C46.1141 16.6275 46.1141 17.1159 46.0819 17.4003C46.0497 17.6847 46.0228 17.7062 45.8885 17.7384C45.8117 17.7458 45.7343 17.7458 45.6575 17.7384C45.5769 17.7384 45.5501 17.7759 45.5501 17.8028C45.5501 17.8296 45.5984 17.8725 45.679 17.8725C45.9422 17.8725 46.3935 17.8725 46.5385 17.8725C46.6836 17.8725 47.1724 17.8725 47.613 17.8725C47.6828 17.8725 47.7365 17.8725 47.7365 17.8028C47.7365 17.733 47.7097 17.7384 47.6344 17.7384C47.5592 17.7384 47.3873 17.7384 47.296 17.7384C47.1026 17.7062 47.065 17.5881 47.0435 17.4057C47.0113 17.132 47.0059 16.6275 47.0059 16.0426V13.4667H47.8332C48.4295 13.4667 48.6014 13.6706 48.6175 13.837V13.9014C48.6175 13.998 48.6175 14.0302 48.6927 14.0302C48.768 14.0302 48.7465 13.9926 48.7518 13.9228C48.7518 13.7618 48.7518 13.2896 48.7518 13.1554C48.7518 13.0213 48.7518 13.0213 48.6981 13.0213L48.5208 13.0481C48.3715 13.071 48.2206 13.0818 48.0696 13.0803H45.3835C45.1629 13.081 44.9423 13.0702 44.7228 13.0481C44.5562 13.0481 44.4918 12.973 44.438 12.973C44.3843 12.973 44.379 13.0105 44.3628 13.091C44.3467 13.1715 44.2232 13.7618 44.2232 13.8638C44.2232 13.9658 44.2232 13.9711 44.2823 13.9711C44.3413 13.9711 44.3413 13.9389 44.3575 13.8853C44.3832 13.8081 44.4213 13.7356 44.4703 13.6706C44.567 13.5257 44.7228 13.4828 45.1042 13.4774L46.0873 13.4506L46.1141 16.0426ZM49.9821 16.0426C49.9821 16.6275 49.9821 17.1159 49.9498 17.4003C49.9176 17.6847 49.8907 17.7062 49.7564 17.7384C49.6796 17.7455 49.6023 17.7455 49.5254 17.7384C49.4395 17.7384 49.418 17.7759 49.418 17.8028C49.418 17.8296 49.4663 17.8725 49.5469 17.8725H50.0035H50.3796H51.1424C51.4647 17.8725 51.8623 17.8725 52.3565 17.8725C52.6036 17.8725 52.6627 17.8725 52.7111 17.7062C52.768 17.4945 52.8111 17.2794 52.84 17.0622C52.84 16.9924 52.84 16.9119 52.7809 16.9119C52.7218 16.9119 52.7218 16.9441 52.7057 17.0085C52.6627 17.2715 52.5875 17.4057 52.421 17.4808C52.2197 17.5444 52.0087 17.5716 51.7978 17.5613C51.1263 17.5613 50.9222 17.4647 50.9061 17.0246C50.9061 16.8368 50.9061 16.3002 50.9061 16.0855V15.5596C50.9061 15.522 50.9061 15.4898 50.9437 15.4898C51.1102 15.4898 51.8569 15.4898 51.9805 15.522C52.2276 15.522 52.3082 15.6401 52.3458 15.7689C52.3506 15.8457 52.3506 15.9228 52.3458 15.9996C52.3458 16.0318 52.3458 16.0533 52.4102 16.0533C52.4747 16.0533 52.4747 15.9621 52.4747 15.9084C52.4747 15.8548 52.4747 15.6079 52.5069 15.4845C52.5445 15.1625 52.5553 15.0552 52.5553 15.0176C52.5553 14.98 52.5553 14.9532 52.5069 14.9532C52.4586 14.9532 52.4532 14.9908 52.3995 15.0337C52.3458 15.0766 52.2437 15.1142 52.0825 15.1303C51.9214 15.1464 51.0833 15.1303 50.9329 15.1303C50.8953 15.1303 50.8846 15.0981 50.8846 15.0605V13.5043C50.8846 13.4667 50.8846 13.4452 50.9329 13.4452C51.0672 13.4452 51.8515 13.4452 51.9644 13.4774C52.2974 13.5043 52.3458 13.5955 52.3995 13.7082C52.4291 13.7815 52.4438 13.8599 52.4425 13.9389C52.4425 13.9926 52.4425 14.0248 52.4962 14.0248C52.5499 14.0248 52.566 13.9497 52.5714 13.9175C52.5768 13.8853 52.6036 13.5687 52.609 13.4989C52.6176 13.3601 52.6356 13.2221 52.6627 13.0857C52.6627 13.0588 52.6627 13.0266 52.6197 13.0266C52.5828 13.0331 52.5467 13.0439 52.5123 13.0588C52.4586 13.0588 52.3565 13.0857 52.233 13.0964C52.1094 13.1071 50.6213 13.0964 50.4387 13.0964C50.256 13.0964 49.8316 13.0964 49.4878 13.0964C49.3857 13.0964 49.3374 13.0964 49.3374 13.1554C49.3374 13.2145 49.3804 13.2252 49.4502 13.2252C49.5359 13.2149 49.6224 13.2149 49.7081 13.2252C49.9176 13.2842 49.982 13.354 49.9928 13.5687C50.0035 13.7833 49.9928 13.9497 49.9928 14.9156L49.9821 16.0426ZM54.1454 16.0426C54.1454 16.6275 54.1454 17.1159 54.1186 17.4003C54.0917 17.6847 54.0595 17.7062 53.9198 17.7384C53.843 17.7455 53.7656 17.7455 53.6888 17.7384C53.6082 17.7384 53.5867 17.7759 53.5867 17.8028C53.5867 17.8296 53.6297 17.8725 53.7103 17.8725C53.9735 17.8725 54.3925 17.8725 54.5215 17.8725C54.6504 17.8725 55.1661 17.8725 55.5475 17.8725C55.6335 17.8725 55.6818 17.8725 55.6818 17.8028C55.6792 17.7838 55.6693 17.7666 55.6544 17.7546C55.6394 17.7426 55.6204 17.7368 55.6013 17.7384H55.2789C55.0748 17.7062 55.0479 17.5881 55.0265 17.4003C55.005 17.2125 54.9888 16.6383 54.9888 16.0426V15.9567C54.9881 15.9499 54.9888 15.9431 54.9909 15.9366C54.993 15.9301 54.9964 15.9241 55.001 15.919C55.0055 15.914 55.0111 15.9099 55.0174 15.9072C55.0236 15.9044 55.0304 15.903 55.0372 15.9031H55.6335C55.6551 15.9013 55.6769 15.9042 55.6973 15.9116C55.7177 15.919 55.7363 15.9307 55.7517 15.946C55.8323 16.0426 56.1116 16.4826 56.3748 16.8153C56.6003 17.1896 56.9069 17.5087 57.272 17.7491C57.4965 17.8542 57.7447 17.8986 57.9918 17.8779H58.6204C58.701 17.8779 58.7493 17.8779 58.7493 17.8081C58.7454 17.7887 58.7345 17.7714 58.7187 17.7595C58.7028 17.7477 58.6831 17.742 58.6634 17.7437C58.6117 17.7507 58.5593 17.7507 58.5076 17.7437C58.2323 17.6878 57.9842 17.5402 57.8038 17.3252C57.4063 16.928 56.9443 16.3485 56.3587 15.6347C57.0034 15.0981 57.272 14.6956 57.272 14.2234C57.2668 14.0514 57.2219 13.883 57.1409 13.7313C57.0598 13.5796 56.9447 13.4486 56.8046 13.3486C56.4228 13.1436 55.9907 13.0506 55.5583 13.0803H54.5268C54.3925 13.0803 53.9896 13.0803 53.6297 13.0803C53.533 13.0803 53.4793 13.0803 53.4793 13.1393C53.4793 13.1984 53.5276 13.2091 53.5921 13.2091C53.6796 13.1993 53.7679 13.1993 53.8553 13.2091C54.0648 13.2681 54.1239 13.3379 54.1401 13.5526C54.1562 13.7672 54.1401 13.9336 54.1401 14.8995L54.1454 16.0426ZM54.9888 13.5204C54.9888 13.4667 54.9888 13.4452 55.0479 13.4345C55.1766 13.4229 55.3061 13.4229 55.4347 13.4345C55.5782 13.4333 55.7203 13.4629 55.8515 13.5211C55.9826 13.5794 56.0997 13.6651 56.1949 13.7724C56.29 13.8797 56.3611 14.0061 56.4033 14.1431C56.4455 14.2802 56.4577 14.4246 56.4393 14.5668C56.454 14.7472 56.4229 14.9284 56.3487 15.0936C56.2744 15.2587 56.1596 15.4024 56.0149 15.5113C55.8765 15.6005 55.7105 15.6367 55.5475 15.6133C55.3791 15.6164 55.211 15.5966 55.0479 15.5542C54.9996 15.5542 54.9888 15.5113 54.9888 15.4415V13.5204ZM59.625 14.4273C59.7539 14.54 60.4523 15.3127 61.1721 15.9996C61.892 16.6865 62.6817 17.4539 63.0953 17.835C63.1642 17.9126 63.2605 17.9607 63.3639 17.9691C63.4177 17.9691 63.4714 17.9101 63.4714 17.7652L63.5466 13.7511C63.5466 13.3916 63.6057 13.2842 63.783 13.2145C63.8507 13.2047 63.9194 13.2047 63.9871 13.2145C64.0623 13.2145 64.0999 13.1823 64.0999 13.1447C64.0999 13.1071 64.0408 13.0857 63.9495 13.0857C63.6272 13.0857 63.3801 13.0857 63.3049 13.0857C63.2296 13.0857 62.8106 13.0857 62.4668 13.0857C62.3701 13.0857 62.3003 13.0857 62.3003 13.1447C62.3003 13.2037 62.3003 13.2145 62.4077 13.2145C62.5236 13.2089 62.6396 13.2216 62.7515 13.252C62.9073 13.3111 62.9664 13.4238 62.9772 13.7887L63.0416 16.6222C62.9449 16.5309 62.0639 15.6294 61.618 15.1893C60.6564 14.2556 59.6679 13.2413 59.5874 13.1608C59.5068 13.0803 59.3832 12.9515 59.3026 12.9515C59.2221 12.9515 59.1898 13.0427 59.1898 13.1662L59.1307 16.9227C59.1307 17.4593 59.0985 17.6525 58.9266 17.6954C58.8277 17.7167 58.7269 17.7275 58.6258 17.7276C58.5667 17.7276 58.5237 17.7545 58.5237 17.792C58.5237 17.8296 58.5828 17.8618 58.6687 17.8618C59.0072 17.8618 59.3241 17.8618 59.3832 17.8618C59.4423 17.8618 59.813 17.8618 60.2374 17.8618C60.3287 17.8618 60.3878 17.8618 60.3878 17.792C60.3878 17.7223 60.3502 17.7276 60.275 17.7276C60.1586 17.7297 60.0425 17.7134 59.9312 17.6793C59.8022 17.6364 59.7217 17.4861 59.7055 16.9924L59.625 14.4273ZM67.4951 17.9745C67.8512 18.0006 68.2089 17.9524 68.5453 17.8329C68.8818 17.7134 69.1897 17.5253 69.4494 17.2805C69.7091 17.0357 69.915 16.7395 70.0539 16.4109C70.1928 16.0823 70.2618 15.7284 70.2564 15.3718C70.2564 13.9121 69.2249 12.9891 67.5703 12.9891C65.5719 12.9891 64.809 14.3951 64.809 15.4845C64.8072 15.8286 64.8769 16.1694 65.0138 16.4852C65.1508 16.801 65.3518 17.0849 65.6044 17.319C65.8569 17.5531 66.1554 17.7323 66.4808 17.8451C66.8063 17.9579 67.1517 18.002 67.4951 17.9745ZM67.7637 17.631C66.5174 17.631 65.7706 16.5953 65.7706 15.2859C65.7706 13.7135 66.6302 13.3272 67.3823 13.3272C68.4567 13.3272 69.2948 14.1965 69.2948 15.6025C69.2948 17.4164 68.2203 17.631 67.7798 17.631" fill="white"/>
<path d="M34.3815 7.7141C34.3815 8.40637 34.3815 8.99667 34.3439 9.32403C34.317 9.54405 34.2794 9.70504 34.129 9.73724C34.041 9.75821 33.9509 9.76901 33.8604 9.76944C33.7691 9.76944 33.7368 9.76944 33.7368 9.82847C33.7368 9.8875 33.7906 9.9036 33.8873 9.9036C34.1881 9.9036 34.6608 9.9036 34.8327 9.9036C35.0046 9.9036 35.4989 9.9036 35.9931 9.9036C36.0737 9.9036 36.1382 9.9036 36.1382 9.82847C36.1382 9.75334 36.1006 9.76944 36.0146 9.76944C35.8869 9.76694 35.7595 9.75618 35.6332 9.73724C35.4076 9.70504 35.3646 9.54405 35.3431 9.33476C35.3055 9.01277 35.3055 8.42247 35.3055 7.72483V4.71963C35.3055 4.63913 35.3055 4.5962 35.3646 4.5801C35.4594 4.55624 35.557 4.54541 35.6547 4.5479C35.9334 4.54964 36.2014 4.65484 36.4068 4.84306C36.5573 4.98685 36.6747 5.16166 36.7508 5.35535C36.8268 5.54904 36.8598 5.75695 36.8473 5.96464C36.8639 6.25843 36.7702 6.54785 36.5843 6.77617C36.3985 7.00449 36.134 7.15525 35.8427 7.19892C35.6869 7.19892 35.6332 7.19892 35.6332 7.27942C35.6332 7.35991 35.6869 7.33845 35.7245 7.34918H35.8803C36.1225 7.36036 36.3644 7.32147 36.5909 7.23497C36.8174 7.14846 37.0236 7.0162 37.1965 6.84644C37.3695 6.67669 37.5055 6.4731 37.5961 6.24842C37.6867 6.02375 37.7298 5.78281 37.7229 5.54069C37.7174 5.20745 37.5848 4.88886 37.3523 4.64987C37.1611 4.48694 36.9385 4.36481 36.6983 4.29098C36.4581 4.21715 36.2053 4.19318 35.9555 4.22055C35.6117 4.22055 35.1766 4.22055 34.8811 4.22055C34.6716 4.22055 34.1988 4.22055 33.8067 4.22055C33.6939 4.22055 33.6401 4.22055 33.6401 4.29032C33.6401 4.36008 33.6885 4.35471 33.7691 4.35471C33.8655 4.34442 33.9627 4.34442 34.0592 4.35471C34.3063 4.40301 34.3707 4.52644 34.3815 4.77866C34.3922 5.03088 34.3815 5.22944 34.3815 6.38859V7.7141ZM40.5111 8.31514L41.0483 9.59235C41.0543 9.60602 41.0573 9.62078 41.0573 9.6357C41.0572 9.65062 41.0541 9.66537 41.048 9.679C41.042 9.69264 41.0331 9.70486 41.0221 9.71489C41.011 9.72491 40.998 9.73253 40.9838 9.73724C40.9193 9.73724 40.9032 9.76407 40.9032 9.80164C40.9032 9.8392 40.9784 9.84994 41.0966 9.8553C41.6338 9.8553 42.1334 9.8553 42.3644 9.8553C42.5954 9.8553 42.6491 9.8553 42.6491 9.78554C42.6491 9.71578 42.6169 9.72114 42.5578 9.72114C42.4755 9.72555 42.393 9.72555 42.3107 9.72114C42.1925 9.68894 42.0045 9.60845 41.7735 9.03424C41.3545 8.07365 40.2478 5.46556 40.092 5.11675C40.0276 4.97185 39.9953 4.91282 39.8986 4.91282C39.8019 4.91282 39.7804 4.98795 39.7052 5.16504L37.9808 9.17377C37.8465 9.49575 37.7337 9.71041 37.4436 9.71041H37.2448C37.1965 9.71041 37.1696 9.73724 37.1696 9.77481C37.1696 9.81237 37.2072 9.84457 37.2932 9.84457C37.637 9.84457 37.9915 9.84457 38.056 9.84457C38.2655 9.84457 38.5932 9.84457 38.792 9.84457C38.8618 9.84457 38.8994 9.84457 38.8994 9.77481C38.8994 9.70504 38.8994 9.71041 38.7974 9.71041H38.7007C38.5019 9.71041 38.4374 9.64065 38.4374 9.52795C38.4477 9.39403 38.4823 9.2631 38.5395 9.14157L38.8618 8.34734L39.0552 7.85899V7.80533M39.0552 7.80533L39.6461 6.2759C39.6461 6.2759 39.6461 6.21686 39.6837 6.21686C39.7214 6.21686 39.6837 6.25443 39.6837 6.2759L40.2908 7.81069L40.5003 8.31514M43.3368 8.03608C43.3368 8.65322 43.3368 9.16303 43.3045 9.42062C43.2723 9.67821 43.2454 9.69968 43.1111 9.73188C43.0343 9.73899 42.957 9.73899 42.8801 9.73188C42.7942 9.73188 42.7727 9.76944 42.7727 9.79627C42.7727 9.8231 42.8211 9.86604 42.9016 9.86604C43.1649 9.86604 43.6108 9.86604 43.7612 9.86604C43.9116 9.86604 44.3951 9.86604 44.8356 9.86604C44.9108 9.86604 44.9645 9.86604 44.9645 9.79627C44.9645 9.72651 44.9645 9.73188 44.8625 9.73188C44.7604 9.73188 44.6153 9.73188 44.524 9.73188C44.3306 9.69968 44.2823 9.60308 44.2608 9.43136C44.2285 9.16303 44.2285 8.65322 44.2285 8.03608V6.9145C44.2285 5.94854 44.2285 5.77145 44.2285 5.56753C44.2285 5.3636 44.2984 5.25091 44.4757 5.22408C44.5417 5.21644 44.6084 5.21644 44.6744 5.22408C44.7389 5.22408 44.7765 5.22408 44.7765 5.14895C44.7765 5.07382 44.7228 5.09528 44.6422 5.09528H43.7934H42.9124C42.8049 5.09528 42.7566 5.09528 42.7566 5.14895C42.7566 5.20261 42.7888 5.22408 42.8587 5.22408C42.9389 5.21325 43.0202 5.21325 43.1004 5.22408C43.2401 5.27237 43.3099 5.34214 43.3207 5.56216C43.3314 5.78218 43.3207 5.94318 43.3207 6.90913L43.3368 8.03608ZM47.4303 9.58698C47.5539 9.8875 47.6076 9.968 47.6989 9.968C47.7902 9.968 47.8493 9.8714 48.0105 9.50649C48.1717 9.14157 48.4779 8.47613 48.8862 7.55847C49.2461 6.78034 49.4234 6.43689 49.6759 5.83585C49.8531 5.43337 49.9391 5.33677 50.025 5.29921C50.1188 5.23829 50.2308 5.21174 50.342 5.22408C50.4118 5.22408 50.4494 5.19724 50.4494 5.15431C50.4494 5.11138 50.3957 5.09528 50.3151 5.09528H49.692C49.6114 5.09528 49.3159 5.09528 48.9882 5.09528C48.8593 5.09528 48.8002 5.09528 48.8002 5.15431C48.8002 5.21334 48.8539 5.22408 48.913 5.22408C49.0004 5.2133 49.0888 5.2133 49.1762 5.22408C49.2353 5.22408 49.2676 5.27237 49.2676 5.33677C49.2578 5.41649 49.2361 5.49428 49.2031 5.56753C49.0473 5.98611 48.2039 8.04145 47.9192 8.69615L46.8018 5.85195C46.7297 5.70048 46.6791 5.53974 46.6514 5.37434C46.6534 5.34865 46.6625 5.32402 46.6776 5.30318C46.6928 5.28234 46.7135 5.26611 46.7373 5.25627C46.8157 5.21848 46.9033 5.2036 46.9898 5.21334C47.0489 5.21334 47.0972 5.18651 47.0972 5.14358C47.0972 5.10065 47.022 5.08455 46.9361 5.08455C46.6084 5.08455 46.2646 5.08455 46.098 5.08455C45.9315 5.08455 45.491 5.08455 45.1364 5.08455C45.0397 5.08455 44.9753 5.08455 44.9753 5.14358C44.9753 5.20261 44.9753 5.21334 45.0505 5.21334C45.1344 5.20458 45.219 5.20458 45.303 5.21334C45.5447 5.27237 45.6414 5.3314 45.7918 5.68559L47.4303 9.58698ZM52.6466 8.31514L53.1838 9.59235C53.1898 9.60602 53.1929 9.62078 53.1929 9.6357C53.1928 9.65062 53.1897 9.66537 53.1836 9.679C53.1775 9.69264 53.1687 9.70486 53.1576 9.71489C53.1466 9.72491 53.1335 9.73253 53.1194 9.73724C53.0549 9.73724 53.0388 9.76407 53.0388 9.80164C53.0388 9.8392 53.114 9.84994 53.2322 9.8553C53.7694 9.8553 54.269 9.8553 54.5 9.8553C54.731 9.8553 54.7847 9.8553 54.7847 9.78554C54.7847 9.71578 54.7847 9.72114 54.6934 9.72114C54.6111 9.72555 54.5286 9.72555 54.4463 9.72114C54.3281 9.68894 54.1401 9.60845 53.9091 9.03424C53.49 8.07365 52.3888 5.46556 52.2276 5.11675C52.1631 4.97185 52.1309 4.91282 52.0342 4.91282C51.9375 4.91282 51.916 4.98795 51.8408 5.16504L50.1164 9.17377C49.9821 9.49575 49.8692 9.71041 49.5792 9.71041H49.3858C49.332 9.71041 49.3105 9.73724 49.3105 9.77481C49.3105 9.81237 49.3482 9.84457 49.4287 9.84457C49.7726 9.84457 50.1271 9.84457 50.1916 9.84457C50.4011 9.84457 50.7288 9.84457 50.9276 9.84457C50.9974 9.84457 51.035 9.84457 51.035 9.77481C51.035 9.70504 51.035 9.71041 50.9383 9.71041H50.8362C50.6375 9.71041 50.5784 9.64065 50.5784 9.52795C50.5862 9.39426 50.619 9.26321 50.6751 9.14157L50.9866 8.3849L51.1908 7.84826L51.2391 7.73556L51.8301 6.2437C51.8301 6.2437 51.8301 6.18467 51.8677 6.18467C51.9053 6.18467 51.8677 6.22223 51.8677 6.2437L52.4479 7.75166L52.6466 8.31514ZM57.0893 8.31514C57.0893 8.96448 57.5675 9.97337 59.1683 9.97337C59.4959 9.98557 59.8225 9.93096 60.1283 9.81286C60.434 9.69475 60.7124 9.51564 60.9465 9.28646C61.1829 9.50302 61.4629 9.66673 61.7676 9.76667C62.0724 9.86661 62.395 9.90049 62.7139 9.86604H63.2941C63.4553 9.86604 63.5144 9.86604 63.5144 9.79627C63.5144 9.72651 63.4768 9.73188 63.4123 9.73188C63.1312 9.69585 62.8595 9.6066 62.6119 9.46892C62.2434 9.25506 61.8947 9.00903 61.5697 8.73372C62.0014 8.23966 62.2582 7.61727 62.3003 6.9628C62.3003 6.87157 62.1875 6.82864 62.0478 6.81254C61.7501 6.77708 61.4505 6.75916 61.1507 6.75887C61.0862 6.75887 61.0271 6.75887 61.0271 6.834C61.0271 6.90913 61.0754 6.89303 61.1184 6.89303C61.2499 6.88458 61.3799 6.92469 61.4837 7.00573C61.5316 7.04888 61.5694 7.10201 61.5945 7.16136C61.6195 7.2207 61.6312 7.28482 61.6288 7.34918C61.6162 7.75933 61.4917 8.15827 61.2688 8.50296C61.1238 8.37417 60.1944 7.54237 59.9473 7.25259C59.351 6.58715 58.7063 5.98611 58.7063 5.28311C58.699 5.17368 58.7142 5.0639 58.7511 4.96061C58.7881 4.85732 58.8458 4.76271 58.9209 4.68268C58.996 4.60265 59.0867 4.53891 59.1875 4.49541C59.2883 4.45192 59.397 4.4296 59.5068 4.42984C59.6622 4.41938 59.8179 4.44438 59.9622 4.50296C60.1064 4.56154 60.2355 4.65215 60.3395 4.76793C60.4835 4.94508 60.5597 5.16766 60.5544 5.3958C60.5544 5.5085 60.5544 5.54069 60.6081 5.54069C60.6618 5.54069 60.6833 5.54069 60.6994 5.4119C60.7427 5.09329 60.7696 4.77267 60.78 4.45131C60.78 4.36545 60.78 4.30105 60.6511 4.25812C60.3619 4.15286 60.0563 4.10015 59.7485 4.10249C58.4431 4.10249 57.9167 4.88599 57.9274 5.4763C57.9194 5.86853 58.055 6.2502 58.3088 6.54958C57.9705 6.71684 57.6808 6.96794 57.4673 7.27892C57.2538 7.58989 57.1237 7.95035 57.0893 8.32587M59.4262 9.50649C59.2331 9.50173 59.043 9.45836 58.8669 9.37893C58.6909 9.2995 58.5326 9.18563 58.4014 9.04405C58.2702 8.90247 58.1687 8.73605 58.103 8.55463C58.0373 8.37321 58.0086 8.18046 58.0187 7.98779C58.0079 7.76867 58.0512 7.55026 58.1449 7.35185C58.2386 7.15343 58.3798 6.98111 58.5559 6.8501C58.6849 7.03256 59.163 7.57457 59.3564 7.78386C59.5498 7.99315 60.275 8.69615 60.7048 9.0718C60.3589 9.3547 59.927 9.51176 59.4799 9.51722" fill="white"/>
<path d="M68.4186 23.3464H67.688C67.8116 23.0137 67.9298 22.6756 68.0641 22.3321L68.4186 23.3464ZM69.8369 24.6021V24.4358C69.5414 24.3982 69.4769 24.3392 69.2996 23.8991C68.9934 23.0942 68.7033 22.2892 68.4025 21.4467L68.1608 21.5111L67.1938 23.9313C67.038 24.3231 66.9843 24.3767 66.6566 24.4143V24.5806H67.731V24.4143C67.3872 24.3714 67.3818 24.307 67.4463 24.0816C67.5107 23.8562 67.5645 23.722 67.6182 23.5771H68.5207L68.7087 24.1138C68.7839 24.3231 68.7624 24.3767 68.4831 24.4197V24.586L69.8369 24.6021ZM65.5392 24.6021V24.4358C65.19 24.4036 65.147 24.3714 65.147 23.9742V22.1711C65.147 21.774 65.19 21.7364 65.5392 21.7042V21.5433H64.1263V21.7042C64.4755 21.7364 64.5185 21.774 64.5185 22.1711V23.9742C64.5185 24.3714 64.4755 24.4036 64.1263 24.4358V24.6021H65.5392ZM62.6812 23.7274C62.4449 24.1996 62.144 24.4519 61.7572 24.4519C61.1179 24.4519 60.6506 23.883 60.6506 23.0137C60.6506 22.3214 61.0266 21.6774 61.725 21.6774C61.9385 21.6728 62.1463 21.7468 62.3088 21.8854C62.4713 22.0239 62.5771 22.2173 62.606 22.4287L62.7779 22.3965C62.7457 22.1014 62.7135 21.8599 62.6705 21.6237C62.3899 21.5478 62.1015 21.5046 61.8109 21.495C60.6882 21.495 59.9415 22.1711 59.9415 23.1371C59.9415 23.883 60.4787 24.6987 61.7196 24.6987C62.0147 24.6849 62.3079 24.6435 62.5953 24.5753C62.7017 24.3336 62.7897 24.0843 62.8585 23.8294L62.6812 23.7274ZM57.3682 23.3464H56.6322C56.7558 23.0137 56.874 22.6756 57.0029 22.3321L57.3682 23.3464ZM58.765 24.6021V24.4358C58.4695 24.3982 58.4104 24.3392 58.2278 23.8991C57.9215 23.0942 57.6261 22.2892 57.3252 21.4467L57.0889 21.5111L56.1219 23.9313C55.9661 24.3231 55.907 24.3767 55.5847 24.4143V24.5806H56.6591V24.4143C56.3153 24.3714 56.3045 24.307 56.369 24.0816C56.4335 23.8562 56.4872 23.722 56.5409 23.5771H57.481C57.5562 23.7703 57.6261 23.9689 57.6744 24.1138C57.7228 24.2587 57.7228 24.3767 57.4434 24.4197V24.586L58.765 24.6021ZM54.2578 23.7274C54.016 24.1996 53.7206 24.4519 53.3338 24.4519C52.6891 24.4519 52.2217 23.883 52.2217 23.0137C52.2217 22.3214 52.6032 21.6774 53.2962 21.6774C53.5115 21.6701 53.722 21.7429 53.8867 21.8817C54.0515 22.0205 54.1588 22.2154 54.1879 22.4287L54.3598 22.3965C54.3276 22.1014 54.2954 21.8599 54.2524 21.6237C53.9738 21.5473 53.6871 21.504 53.3982 21.495C52.2701 21.495 51.5234 22.1711 51.5234 23.1371C51.5234 23.883 52.0606 24.6987 53.3015 24.6987C53.5967 24.6853 53.8899 24.6439 54.1772 24.5753C54.2837 24.3336 54.3717 24.0843 54.4404 23.8294L54.2578 23.7274ZM48.3485 21.6667C48.8857 21.6667 49.2725 22.2355 49.2725 23.1693C49.2725 24.103 48.9072 24.4733 48.4613 24.4733C47.8596 24.4733 47.4997 23.7918 47.4997 22.9868C47.4997 22.1819 47.8703 21.6667 48.3431 21.6667H48.3485ZM48.4344 21.4735C48.2178 21.4623 48.0013 21.496 47.7983 21.5724C47.5954 21.6488 47.4104 21.7662 47.2551 21.9174C47.0997 22.0686 46.9773 22.2502 46.8955 22.4508C46.8137 22.6515 46.7743 22.8668 46.7798 23.0834C46.7819 23.2948 46.8257 23.5038 46.9087 23.6983C46.9916 23.8928 47.1121 24.0691 47.2632 24.2171C47.4144 24.3651 47.5932 24.4819 47.7896 24.5609C47.9859 24.6398 48.1959 24.6794 48.4076 24.6772C48.6192 24.6751 48.8284 24.6314 49.0231 24.5485C49.2178 24.4657 49.3943 24.3453 49.5424 24.1943C49.6906 24.0433 49.8075 23.8647 49.8866 23.6685C49.9656 23.4724 50.0052 23.2626 50.0031 23.0512C50.0097 22.845 49.9742 22.6396 49.8987 22.4476C49.8232 22.2555 49.7094 22.0809 49.5641 21.9342C49.4188 21.7876 49.2452 21.6721 49.0537 21.5947C48.8622 21.5173 48.657 21.4797 48.4505 21.4842L48.4344 21.4735ZM45.6946 21.5433H44.6256V21.7096C45.0124 21.7579 45.0124 21.8223 44.9103 22.155C44.8083 22.4877 44.5719 23.1049 44.314 23.765C44.1475 23.3195 43.7768 22.3643 43.6371 21.9887C43.5673 21.7847 43.5673 21.7364 43.9111 21.6828V21.5164H42.4875V21.6828C42.7776 21.7096 42.8582 21.7794 43.0247 22.1443C43.2235 22.6273 43.664 23.7542 43.9863 24.6289H44.2227C44.588 23.6576 45.0178 22.5897 45.1736 22.2248C45.3293 21.8599 45.4529 21.6881 45.7537 21.6881L45.6946 21.5433ZM39.0547 22.0799C39.0547 21.9457 39.0547 21.8652 39.1085 21.8223C39.1966 21.7672 39.3004 21.7427 39.4039 21.7525C39.5453 21.7471 39.6864 21.7704 39.8184 21.8212C39.9505 21.8719 40.0708 21.949 40.1721 22.0477C40.4156 22.3279 40.5408 22.6915 40.5213 23.062C40.5213 23.9045 40.0862 24.4197 39.4469 24.4197C39.1138 24.4197 39.044 24.3016 39.044 23.9635L39.0547 22.0799ZM38.0448 21.5433V21.7042C38.3832 21.7364 38.4208 21.7686 38.4208 22.1711V23.9689C38.4208 24.3714 38.3778 24.4036 38.0018 24.4358V24.6021H39.2159C39.722 24.6283 40.2231 24.4909 40.6449 24.2104C40.8393 24.0666 40.9967 23.8788 41.1041 23.6623C41.2115 23.4458 41.2659 23.2069 41.2627 22.9654C41.2659 22.7752 41.2288 22.5865 41.1538 22.4117C41.0788 22.2369 40.9676 22.0799 40.8275 21.9511C40.4469 21.6439 39.961 21.4975 39.4738 21.5433H38.0448ZM35.3587 23.3464H34.6389C34.7624 23.0137 34.8806 22.6756 35.0095 22.3321L35.3587 23.3464ZM36.7555 24.6021V24.4358C36.46 24.3982 36.4009 24.3392 36.2183 23.8991C35.9121 23.0942 35.6166 22.2892 35.3158 21.4467L35.074 21.5111L34.1124 23.9313C33.9566 24.3231 33.8975 24.3767 33.5752 24.4143V24.5806H34.6496V24.4143C34.3058 24.3714 34.2951 24.307 34.3595 24.0816C34.424 23.8562 34.4777 23.722 34.5314 23.5771H35.4554C35.5306 23.7703 35.6005 23.9689 35.6435 24.1138C35.6864 24.2587 35.6972 24.3767 35.4178 24.4197V24.586L36.7555 24.6021Z" fill="white" fill-opacity="0.5"/>
<path fill-rule="evenodd" clip-rule="evenodd" d="M22.278 2.10057L21.3164 0.962891L22.7669 1.31171L23.75 2.44939L22.278 2.10057Z" fill="white" fill-opacity="0.5"/>
<path fill-rule="evenodd" clip-rule="evenodd" d="M19.9358 26.9205C20.3924 27.0815 20.8652 27.2211 21.3164 27.3767C20.8974 27.5323 20.4945 27.6718 20.0755 27.8328C19.6242 27.6718 19.1515 27.5162 18.6948 27.3767C19.1138 27.2211 19.5329 27.0815 19.9358 26.9205Z" fill="white" fill-opacity="0.5"/>
<path fill-rule="evenodd" clip-rule="evenodd" d="M19.8767 26.7805C20.1398 26.3836 20.4136 25.9598 20.6499 25.5629L19.4041 26.0135C19.1625 26.4158 18.8994 26.8342 18.6362 27.2365C19.0551 27.097 19.4793 26.9415 19.8767 26.7805Z" fill="white" fill-opacity="0.5"/>
<path fill-rule="evenodd" clip-rule="evenodd" d="M21.6169 26.2444L23.0298 26.502C22.6484 26.7113 22.2616 26.9045 21.8802 27.1137C21.3859 27.044 20.9132 26.9581 20.4458 26.8723C20.8272 26.663 21.214 26.4537 21.6169 26.2444Z" fill="white" fill-opacity="0.5"/>
<path fill-rule="evenodd" clip-rule="evenodd" d="M21.5476 26.1202C21.7355 25.6804 21.9288 25.2298 22.1221 24.7899C21.7194 24.9991 21.3381 25.2137 20.9515 25.4229C20.7582 25.8574 20.5649 26.3133 20.377 26.7478L21.5476 26.1202Z" fill="white" fill-opacity="0.5"/>
<path fill-rule="evenodd" clip-rule="evenodd" d="M23.1535 25.3695L24.604 25.4715L23.5296 26.2067L22.0791 26.1047L23.1804 25.3695" fill="white" fill-opacity="0.5"/>
<path fill-rule="evenodd" clip-rule="evenodd" d="M23.0993 25.2455C23.239 24.7896 23.3947 24.339 23.5343 23.8669L22.4335 24.6018C22.2939 25.0685 22.1382 25.5245 21.9985 25.9804L23.0725 25.2455" fill="white" fill-opacity="0.5"/>
<path fill-rule="evenodd" clip-rule="evenodd" d="M24.5876 24.2856C25.0764 24.248 25.5653 24.2158 26.0381 24.1997C25.705 24.4788 25.3934 24.7739 25.0603 25.0691L23.6099 25.1764C23.9429 24.8812 24.2706 24.5807 24.5876 24.2856Z" fill="white" fill-opacity="0.5"/>
<path fill-rule="evenodd" clip-rule="evenodd" d="M24.5012 24.1776C24.5871 23.7109 24.657 23.2389 24.7429 22.7454C24.4153 23.0458 24.0824 23.3408 23.7656 23.6412C23.6797 24.1079 23.6098 24.6014 23.5239 25.068L24.5012 24.1776Z" fill="white" fill-opacity="0.5"/>
<path fill-rule="evenodd" clip-rule="evenodd" d="M25.8816 23.046L27.2993 22.7295C27.02 23.0782 26.7623 23.4107 26.4562 23.7433L25.0439 24.0383C25.3232 23.6897 25.5809 23.3571 25.8816 23.0245" fill="white" fill-opacity="0.5"/>
<path fill-rule="evenodd" clip-rule="evenodd" d="M25.7844 22.9653C25.7844 22.4931 25.7844 22.0208 25.822 21.554L24.9848 22.5467C24.9848 23.019 24.9473 23.5073 24.9473 23.9957C25.2263 23.6469 25.4839 23.3141 25.7844 22.9653Z" fill="white" fill-opacity="0.5"/>
<path fill-rule="evenodd" clip-rule="evenodd" d="M26.9993 21.6667C27.4558 21.5057 27.9122 21.3663 28.3794 21.2268L27.633 22.2996C27.1765 22.4552 26.7201 22.5947 26.2476 22.7341C26.4946 22.3694 26.7416 22.0368 26.9993 21.6613" fill="white" fill-opacity="0.5"/>
<path fill-rule="evenodd" clip-rule="evenodd" d="M26.8601 21.5759C26.8225 21.1037 26.7903 20.6153 26.7528 20.1431C26.5113 20.4919 26.2644 20.8622 26.0015 21.2164C26.039 21.7047 26.0712 22.1769 26.1088 22.6492C26.3664 22.2843 26.6132 21.9355 26.8601 21.5759Z" fill="white" fill-opacity="0.5"/>
<path fill-rule="evenodd" clip-rule="evenodd" d="M27.9349 20.1263L29.229 19.4987C29.0357 19.8849 28.8424 20.2818 28.6491 20.6841L27.3604 21.3171C27.5483 20.9148 27.7416 20.5125 27.9349 20.1263Z" fill="white" fill-opacity="0.5"/>
<path fill-rule="evenodd" clip-rule="evenodd" d="M27.7893 20.0571C27.7034 19.5849 27.5961 19.1126 27.4888 18.6404C27.3009 19.0429 27.1077 19.4453 26.9146 19.8317C27.0219 20.304 27.1238 20.7762 27.2312 21.2431C27.419 20.8621 27.6122 20.4596 27.7678 20.0571" fill="white" fill-opacity="0.5"/>
<path fill-rule="evenodd" clip-rule="evenodd" d="M28.6444 18.5003L29.8902 17.7333C29.7291 18.1517 29.5734 18.554 29.4338 18.9724L28.1934 19.7448C28.3491 19.3211 28.5048 18.9027 28.6444 18.5003Z" fill="white" fill-opacity="0.5"/>
<path fill-rule="evenodd" clip-rule="evenodd" d="M28.5251 18.4522C28.3639 17.996 28.2081 17.5238 28.0684 17.0676C27.9127 17.4916 27.7515 17.8887 27.6118 18.3126C27.7515 18.7634 27.9127 19.2196 28.0523 19.6918C28.2081 19.2732 28.3639 18.8546 28.5251 18.4522Z" fill="white" fill-opacity="0.5"/>
<path fill-rule="evenodd" clip-rule="evenodd" d="M29.1542 16.7723L30.2282 15.8282C30.1423 16.2681 30.051 16.7026 29.9651 17.121L28.8911 18.0651C28.977 17.6306 29.0629 17.1907 29.1542 16.7723Z" fill="white" fill-opacity="0.5"/>
<path fill-rule="evenodd" clip-rule="evenodd" d="M29.0094 16.7402C28.7999 16.3002 28.5689 15.8816 28.3594 15.4469C28.2735 15.8816 28.1875 16.3002 28.0962 16.7402C28.3057 17.1749 28.5206 17.6096 28.7462 18.0335C28.8322 17.6096 28.9181 17.1749 29.0094 16.7402Z" fill="white" fill-opacity="0.5"/>
<path fill-rule="evenodd" clip-rule="evenodd" d="M29.4336 14.9913C29.7667 14.6263 30.0783 14.2775 30.3952 13.918C30.3952 14.358 30.3415 14.7927 30.3254 15.2274C30.0084 15.5977 29.6968 15.9626 29.3638 16.3329C29.396 15.8767 29.4175 15.4367 29.4336 15.002" fill="white" fill-opacity="0.5"/>
<path fill-rule="evenodd" clip-rule="evenodd" d="M29.2927 14.991C29.0136 14.5886 28.756 14.2075 28.4555 13.8051C28.4555 14.2397 28.4179 14.6744 28.3857 15.1306C28.6648 15.5169 28.9224 15.9194 29.2229 16.3004C29.2551 15.8658 29.2766 15.4257 29.2927 14.991Z" fill="white" fill-opacity="0.5"/>
<path fill-rule="evenodd" clip-rule="evenodd" d="M29.4878 13.2092L30.325 12.0393C30.3572 12.474 30.3786 12.914 30.3947 13.3487C30.1157 13.7512 29.8581 14.1376 29.5576 14.5401C29.5576 14.0839 29.52 13.6439 29.4878 13.2092Z" fill="white" fill-opacity="0.5"/>
<path fill-rule="evenodd" clip-rule="evenodd" d="M29.3478 13.2254C29.0309 12.8604 28.7139 12.4955 28.4023 12.1252C28.4023 12.5653 28.4346 13 28.4561 13.4561C28.7838 13.8049 29.1007 14.1699 29.4177 14.5294C29.4177 14.0947 29.364 13.66 29.3478 13.22" fill="white" fill-opacity="0.5"/>
<path fill-rule="evenodd" clip-rule="evenodd" d="M29.3101 11.4276C29.5357 10.9929 29.7452 10.5529 29.9762 10.1343C30.0622 10.5529 30.1481 10.9929 30.2394 11.4276C30.0084 11.8462 29.7989 12.2808 29.5733 12.7209C29.4873 12.2808 29.396 11.8462 29.3101 11.4276Z" fill="white" fill-opacity="0.5"/>
<path fill-rule="evenodd" clip-rule="evenodd" d="M29.1702 11.4434C28.805 11.1484 28.4345 10.8319 28.0962 10.5208C28.1821 10.9552 28.268 11.3736 28.3593 11.8135C28.7245 12.1246 29.0896 12.4411 29.4762 12.7361C29.3742 12.3177 29.2829 11.8779 29.197 11.4434" fill="white" fill-opacity="0.5"/>
<path fill-rule="evenodd" clip-rule="evenodd" d="M28.9233 9.67803C29.0845 9.22725 29.2564 8.78721 29.4337 8.33643C29.5734 8.75501 29.6969 9.17359 29.8366 9.59217C29.6593 10.0483 29.4874 10.4991 29.2994 10.9391C29.1758 10.5206 29.0362 10.0966 28.9126 9.67803" fill="white" fill-opacity="0.5"/>
<path fill-rule="evenodd" clip-rule="evenodd" d="M28.7829 9.73148C28.3802 9.45254 27.9828 9.19507 27.5801 8.91077C27.7197 9.32917 27.8432 9.74757 27.9828 10.1713C28.3802 10.4503 28.7668 10.7078 29.1695 10.9921C29.046 10.5683 28.9064 10.1499 28.7829 9.73148Z" fill="white" fill-opacity="0.5"/>
<path fill-rule="evenodd" clip-rule="evenodd" d="M28.2949 8.0039L28.6115 6.58716L29.1858 7.77851L28.8745 9.18988C28.6813 8.78739 28.4881 8.38491 28.2949 8.0039Z" fill="white" fill-opacity="0.5"/>
<path fill-rule="evenodd" clip-rule="evenodd" d="M28.154 8.05689L26.8599 7.40247L27.4398 8.5933C27.8748 8.80251 28.3151 9.01171 28.7339 9.22091C28.5406 8.83469 28.3473 8.43774 28.154 8.03543" fill="white" fill-opacity="0.5"/>
<path fill-rule="evenodd" clip-rule="evenodd" d="M27.4731 6.41526C27.5268 5.94301 27.5805 5.47077 27.6502 4.98242C27.8756 5.36344 28.101 5.73372 28.3318 6.11474C28.2781 6.58698 28.2083 7.05923 28.1547 7.54758C27.9293 7.16656 27.7039 6.79627 27.4731 6.41526Z" fill="white" fill-opacity="0.5"/>
<path fill-rule="evenodd" clip-rule="evenodd" d="M27.3542 6.50118C26.8977 6.32416 26.4413 6.15251 25.9902 5.99695C26.2158 6.36171 26.4413 6.74793 26.6722 7.11269C27.1233 7.28434 27.5797 7.46136 28.0308 7.61692C27.8052 7.25216 27.5797 6.86594 27.3542 6.50118Z" fill="white" fill-opacity="0.5"/>
<path fill-rule="evenodd" clip-rule="evenodd" d="M26.4253 4.94503C26.4253 4.47278 26.4253 3.98444 26.3877 3.49609C26.6721 3.84491 26.9673 4.17763 27.2463 4.52645C27.2463 4.99869 27.2463 5.48704 27.2785 5.95929L26.4253 4.94503Z" fill="white" fill-opacity="0.5"/>
<path fill-rule="evenodd" clip-rule="evenodd" d="M26.3229 5.03075C25.8557 4.94492 25.3832 4.843 24.9106 4.73572C25.1899 5.08439 25.4476 5.41696 25.7483 5.74954L27.166 6.06602C26.8867 5.71199 26.629 5.38478 26.3229 5.03075Z" fill="white" fill-opacity="0.5"/>
<path fill-rule="evenodd" clip-rule="evenodd" d="M25.2162 3.64562C25.1464 3.17358 25.0605 2.70154 24.9746 2.22949C25.3075 2.52452 25.6351 2.80882 25.9519 3.10385C26.0378 3.59198 26.1291 4.06403 26.1989 4.53607C25.8821 4.20886 25.5492 3.91383 25.2162 3.64562Z" fill="white" fill-opacity="0.5"/>
<path fill-rule="evenodd" clip-rule="evenodd" d="M25.1311 3.72148C24.6423 3.72148 24.1695 3.67319 23.6807 3.63562C24.0137 3.93077 24.3253 4.23129 24.6584 4.51035L26.1089 4.61231C25.7758 4.31716 25.4481 4.022 25.1311 3.72148Z" fill="white" fill-opacity="0.5"/>
<path fill-rule="evenodd" clip-rule="evenodd" d="M23.8519 2.46525C23.6962 1.99321 23.5566 1.53726 23.4009 1.08667L24.4748 1.81619C24.6306 2.27214 24.7702 2.74419 24.9259 3.20014C24.5608 2.95339 24.1956 2.70664 23.8251 2.46525" fill="white" fill-opacity="0.5"/>
<path fill-rule="evenodd" clip-rule="evenodd" d="M23.7669 2.573C23.2941 2.62666 22.8053 2.66423 22.3325 2.69643C22.7032 2.94328 23.0685 3.18477 23.4069 3.43163L24.8574 3.3243C24.4921 3.08281 24.1268 2.83595 23.783 2.573" fill="white" fill-opacity="0.5"/>
<path fill-rule="evenodd" clip-rule="evenodd" d="M8.1116 2.10057L9.07321 0.962891L7.62274 1.31171L6.64502 2.44939L8.1116 2.10057Z" fill="white" fill-opacity="0.5"/>
<path fill-rule="evenodd" clip-rule="evenodd" d="M10.4597 26.9205C10.0031 27.0815 9.53036 27.2211 9.0791 27.3767L10.3201 27.8328C10.7713 27.6718 11.2441 27.5162 11.7007 27.3767C11.2817 27.2211 10.8626 27.0815 10.4597 26.9205Z" fill="white" fill-opacity="0.5"/>
<path fill-rule="evenodd" clip-rule="evenodd" d="M10.5071 26.7805C10.2494 26.3836 9.97016 25.9598 9.73926 25.5629L10.9797 26.0135C11.2267 26.4158 11.4898 26.8342 11.7529 27.2365C11.3287 27.097 10.9099 26.9415 10.5071 26.7805Z" fill="white" fill-opacity="0.5"/>
<path fill-rule="evenodd" clip-rule="evenodd" d="M8.7781 26.2444L7.35986 26.502C7.74665 26.7113 8.13345 26.9045 8.51486 27.1137C9.00373 27.044 9.47647 26.9581 9.94922 26.8723C9.5678 26.663 9.181 26.4537 8.7781 26.2444Z" fill="white" fill-opacity="0.5"/>
<path fill-rule="evenodd" clip-rule="evenodd" d="M8.84752 26.1202C8.65421 25.6804 8.46626 25.2298 8.27295 24.7899C8.67568 24.9991 9.05694 25.2137 9.44357 25.4229C9.63688 25.8574 9.82482 26.3133 10.0181 26.7478L8.84752 26.1202Z" fill="white" fill-opacity="0.5"/>
<path fill-rule="evenodd" clip-rule="evenodd" d="M7.24148 25.3697L5.78564 25.4717L6.8923 26.1854L8.34276 26.0835L7.26834 25.3483" fill="white" fill-opacity="0.5"/>
<path fill-rule="evenodd" clip-rule="evenodd" d="M7.31093 25.2455C7.17131 24.7896 7.01022 24.339 6.87061 23.8669C7.24112 24.1083 7.60627 24.3551 7.97142 24.6018C8.11103 25.0685 8.27212 25.5245 8.41174 25.9804L7.31093 25.2455Z" fill="white" fill-opacity="0.5"/>
<path fill-rule="evenodd" clip-rule="evenodd" d="M5.8074 24.2856C5.31854 24.248 4.82431 24.2158 4.35693 24.1997C4.68463 24.4788 5.00159 24.7739 5.33466 25.0691L6.78512 25.1764C6.45205 24.8812 6.11898 24.5807 5.8074 24.2856Z" fill="white" fill-opacity="0.5"/>
<path fill-rule="evenodd" clip-rule="evenodd" d="M5.90863 24.1776C5.82272 23.7109 5.75291 23.2389 5.66162 22.7454C5.99455 23.0458 6.32748 23.3408 6.6443 23.6412C6.73021 24.1079 6.80002 24.6014 6.88594 25.068C6.55301 24.773 6.24156 24.478 5.90863 24.1776Z" fill="white" fill-opacity="0.5"/>
<path fill-rule="evenodd" clip-rule="evenodd" d="M4.51138 23.046L3.09375 22.7295C3.37298 23.0782 3.63073 23.4107 3.93144 23.7433L5.37055 24.0383C5.09132 23.6897 4.83357 23.3571 4.53286 23.0245" fill="white" fill-opacity="0.5"/>
<path fill-rule="evenodd" clip-rule="evenodd" d="M4.61423 22.9653C4.61423 22.4931 4.61423 22.0208 4.58203 21.554L5.41919 22.5467C5.41919 23.019 5.45676 23.5073 5.45676 23.9957C5.17771 23.62 4.89328 23.2873 4.61423 22.9653Z" fill="white" fill-opacity="0.5"/>
<path fill-rule="evenodd" clip-rule="evenodd" d="M3.39469 21.6667C2.93825 21.5057 2.48182 21.3663 2.00928 21.2268C2.2724 21.5969 2.54626 21.9456 2.76105 22.2996C3.21748 22.4552 3.67392 22.5947 4.14109 22.7341C3.89945 22.3694 3.65244 22.0368 3.39469 21.6613" fill="white" fill-opacity="0.5"/>
<path fill-rule="evenodd" clip-rule="evenodd" d="M3.5127 21.5759C3.55026 21.1037 3.58246 20.6153 3.62002 20.1431C3.86151 20.4919 4.10837 20.8622 4.34986 21.2164C4.34986 21.7047 4.30156 22.1769 4.264 22.6492C4.00104 22.2843 3.75955 21.9355 3.5127 21.5759Z" fill="white" fill-opacity="0.5"/>
<path fill-rule="evenodd" clip-rule="evenodd" d="M2.46453 20.1263L1.17041 19.4987C1.36372 19.8849 1.55704 20.2818 1.74498 20.6841L3.0391 21.3171C2.85116 20.9148 2.65785 20.5125 2.46453 20.1263Z" fill="white" fill-opacity="0.5"/>
<path fill-rule="evenodd" clip-rule="evenodd" d="M2.60547 20.0571C2.69133 19.5849 2.79866 19.1126 2.90062 18.6404C3.09381 19.0429 3.28701 19.4453 3.4802 19.8317C3.37287 20.304 3.27091 20.7762 3.16358 21.2431C2.97039 20.8621 2.78256 20.4596 2.62693 20.0571" fill="white" fill-opacity="0.5"/>
<path fill-rule="evenodd" clip-rule="evenodd" d="M1.74531 18.5003L0.504883 17.7333C0.665977 18.1517 0.821701 18.554 0.961316 18.9724L2.20174 19.7448C2.04602 19.3211 1.89029 18.9027 1.74531 18.5003Z" fill="white" fill-opacity="0.5"/>
<path fill-rule="evenodd" clip-rule="evenodd" d="M1.86914 18.4522C2.0303 17.996 2.18609 17.5238 2.32577 17.0676C2.48156 17.4916 2.64272 17.8887 2.7824 18.3126C2.64272 18.7634 2.48156 19.2196 2.34189 19.6918C2.18609 19.2732 2.0303 18.8546 1.86914 18.4522Z" fill="white" fill-opacity="0.5"/>
<path fill-rule="evenodd" clip-rule="evenodd" d="M1.24095 16.7723L0.166992 15.8282C0.252909 16.2681 0.344196 16.7026 0.430113 17.121L1.50407 18.0651C1.41816 17.6306 1.32687 17.1907 1.24095 16.7723Z" fill="white" fill-opacity="0.5"/>
<path fill-rule="evenodd" clip-rule="evenodd" d="M1.38037 16.7402C1.58966 16.3002 1.82042 15.8816 2.02971 15.4469C2.11557 15.8816 2.20143 16.3002 2.2873 16.7402C2.07801 17.1749 1.85262 17.6096 1.64333 18.0335C1.55746 17.6096 1.46623 17.1749 1.38037 16.7402Z" fill="white" fill-opacity="0.5"/>
<path fill-rule="evenodd" clip-rule="evenodd" d="M0.961606 14.9913C0.628535 14.6263 0.316954 14.2775 0 13.918C0 14.358 0.053721 14.7927 0.0698373 15.2274C0.386791 15.5977 0.698373 15.9626 1.03144 16.3329C0.993838 15.8767 0.977722 15.4367 0.961606 15.002" fill="white" fill-opacity="0.5"/>
<path fill-rule="evenodd" clip-rule="evenodd" d="M1.10107 14.991C1.38013 14.5886 1.63772 14.2075 1.93824 13.8051C1.93824 14.2397 1.9758 14.6744 2.008 15.1306C1.72895 15.5169 1.47136 15.9194 1.17084 16.3004C1.13327 15.8658 1.11717 15.4257 1.10107 14.991Z" fill="white" fill-opacity="0.5"/>
<path fill-rule="evenodd" clip-rule="evenodd" d="M0.906927 13.2092L0.0697636 12.0393C0.0321986 12.474 0.0160993 12.914 0 13.3487L0.837163 14.5401C0.837163 14.0839 0.874728 13.6439 0.906927 13.2092Z" fill="white" fill-opacity="0.5"/>
<path fill-rule="evenodd" clip-rule="evenodd" d="M1.07472 13.2254C1.39167 12.8604 1.70863 12.4955 2.02021 12.1252C2.02021 12.5653 1.98798 13 1.96649 13.4561C1.63342 13.8049 1.32184 14.1699 1.00488 14.5294C1.00488 14.0947 1.0586 13.66 1.07472 13.22" fill="white" fill-opacity="0.5"/>
<path fill-rule="evenodd" clip-rule="evenodd" d="M1.0739 11.4276C0.842904 10.9929 0.633392 10.5529 0.407764 10.1343C0.321811 10.5529 0.235857 10.9929 0.144531 11.4276C0.375532 11.8462 0.585043 12.2808 0.794555 12.7209C0.896625 12.2808 0.987951 11.8462 1.0739 11.4276Z" fill="white" fill-opacity="0.5"/>
<path fill-rule="evenodd" clip-rule="evenodd" d="M1.22454 11.4434C1.61117 11.1591 1.96021 10.8319 2.32535 10.5208C2.23944 10.9552 2.14815 11.3736 2.06223 11.8135C1.69709 12.1246 1.32657 12.4411 0.945312 12.7361C1.04734 12.3177 1.13863 11.8779 1.22454 11.4434Z" fill="white" fill-opacity="0.5"/>
<path fill-rule="evenodd" clip-rule="evenodd" d="M1.46648 9.67803C1.31069 9.22725 1.13878 8.78721 0.961501 8.33643C0.821827 8.75501 0.698268 9.17359 0.558594 9.59217C0.735873 10.0483 0.90778 10.4991 1.0958 10.9391C1.21936 10.5206 1.35904 10.0966 1.47722 9.67803" fill="white" fill-opacity="0.5"/>
<path fill-rule="evenodd" clip-rule="evenodd" d="M1.61124 9.73148C2.01397 9.45254 2.41671 9.19507 2.81944 8.91077C2.67983 9.32917 2.55632 9.74757 2.41671 10.1713C2.01397 10.4503 1.63272 10.7078 1.22998 10.9921C1.35349 10.5683 1.4931 10.1499 1.61124 9.73148Z" fill="white" fill-opacity="0.5"/>
<path fill-rule="evenodd" clip-rule="evenodd" d="M2.09981 8.0039L1.78319 6.58716C1.61147 6.98964 1.39681 7.40286 1.20898 7.77851L1.52024 9.18988C1.71343 8.78739 1.90662 8.38491 2.09981 8.0039Z" fill="white" fill-opacity="0.5"/>
<path fill-rule="evenodd" clip-rule="evenodd" d="M2.23961 8.05689L3.52836 7.40247C3.34042 7.80478 3.1471 8.19099 2.95379 8.5933C2.51884 8.80251 2.07851 9.01171 1.65967 9.22091C1.85298 8.83469 2.04629 8.43774 2.23961 8.03543" fill="white" fill-opacity="0.5"/>
<path fill-rule="evenodd" clip-rule="evenodd" d="M2.92162 6.41526C2.86795 5.94301 2.81429 5.47077 2.74452 4.98242C2.51913 5.36344 2.28838 5.73372 2.06299 6.11474C2.11665 6.58698 2.18642 7.05923 2.24008 7.54758C2.46547 7.16656 2.69086 6.79627 2.92162 6.41526Z" fill="white" fill-opacity="0.5"/>
<path fill-rule="evenodd" clip-rule="evenodd" d="M3.03988 6.50118C3.49631 6.32416 3.95274 6.15251 4.40381 5.99695C4.17827 6.36171 3.95274 6.74793 3.72184 7.11269C3.27078 7.28434 2.81434 7.46136 2.35791 7.61692C2.58881 7.25216 2.81434 6.86594 3.03988 6.50118Z" fill="white" fill-opacity="0.5"/>
<path fill-rule="evenodd" clip-rule="evenodd" d="M3.96898 4.94503C3.96898 4.47278 3.96898 3.98444 4.00118 3.49609C3.72212 3.84491 3.42697 4.183 3.14792 4.52645C3.14792 4.99869 3.14792 5.48704 3.11035 5.95929L3.96898 4.94503Z" fill="white" fill-opacity="0.5"/>
<path fill-rule="evenodd" clip-rule="evenodd" d="M4.07206 5.03075C4.5446 4.94492 5.01715 4.843 5.48969 4.73572C5.21046 5.08439 4.95271 5.41696 4.652 5.74954L3.22363 6.06602C3.50286 5.71199 3.76061 5.38478 4.06132 5.03075" fill="white" fill-opacity="0.5"/>
<path fill-rule="evenodd" clip-rule="evenodd" d="M5.17848 3.64562C5.24828 3.17358 5.3342 2.70154 5.42012 2.22949C5.08719 2.52452 4.75426 2.80882 4.44281 3.10385C4.3569 3.59198 4.26561 4.06403 4.1958 4.53607C4.51262 4.20886 4.83481 3.91383 5.17848 3.64562Z" fill="white" fill-opacity="0.5"/>
<path fill-rule="evenodd" clip-rule="evenodd" d="M5.26483 3.72148C5.75369 3.72148 6.22643 3.67319 6.7153 3.63562C6.38223 3.93077 6.07064 4.23129 5.73757 4.51035L4.29785 4.61231C4.62555 4.31716 4.95862 4.022 5.27557 3.72148" fill="white" fill-opacity="0.5"/>
<path fill-rule="evenodd" clip-rule="evenodd" d="M6.53782 2.46525C6.69892 1.99321 6.83853 1.53726 6.97815 1.08667C6.62911 1.32806 6.25859 1.57481 5.90419 1.81619C5.74846 2.27214 5.60885 2.74419 5.44775 3.20014L6.53782 2.46525Z" fill="white" fill-opacity="0.5"/>
<path fill-rule="evenodd" clip-rule="evenodd" d="M6.62911 2.573C7.10185 2.62666 7.59072 2.66423 8.06346 2.69643C7.69279 2.94328 7.32748 3.18477 6.98904 3.43163L5.53857 3.3243C5.90388 3.08281 6.26918 2.83595 6.63985 2.573" fill="white" fill-opacity="0.5"/>
<path fill-rule="evenodd" clip-rule="evenodd" d="M22.4551 12.3025L22.8419 12.4957C22.9859 12.2478 23.1671 12.0234 23.3791 11.8303C23.6424 11.5673 23.8196 11.6371 23.9754 11.7927C24.1116 11.0911 24.424 10.4356 24.8833 9.88765C24.1954 10.3754 23.4777 10.8199 22.7345 11.2185C22.7345 11.2185 23.0998 11.2883 23.1213 11.4976C23.1427 11.7069 22.6485 12.1093 22.4551 12.3025ZM16.0086 12.2381C16.8466 13.0109 19.5381 11.2668 21.9448 12.2381C23.1374 12.7265 24.3085 13.129 24.4804 14.492C24.4922 14.6447 24.4711 14.7981 24.4186 14.942C24.3661 15.0859 24.2833 15.2168 24.176 15.3261C24.0686 15.4354 23.9391 15.5205 23.7961 15.5756C23.6531 15.6308 23.4999 15.6547 23.3469 15.6458C23.0941 15.6532 22.8436 15.5949 22.6201 15.4766C22.3966 15.3584 22.2077 15.1841 22.0718 14.971C21.9359 14.7579 21.8577 14.5133 21.8448 14.2609C21.832 14.0086 21.8849 13.7572 21.9985 13.5315L22.5357 13.5636C22.1328 14.7335 23.8841 15.4526 23.7229 14.5081C23.6093 14.1577 23.3788 13.8567 23.0698 13.6555C22.7609 13.4543 22.3922 13.3651 22.0254 13.4027C21.096 13.4349 20.8005 15.9356 22.3369 16.7406C22.8741 17.0196 22.987 17.4382 22.9171 17.508C21.7406 17.0518 22.5464 19.9175 23.0031 19.5848C23.4919 19.4131 23.6155 20.1805 23.175 20.5829C23.2663 19.6706 21.9179 20.0034 21.8105 20.4273C21.703 20.8513 20.5534 20.2341 20.3439 20.6688C20.1666 20.1644 20.5534 20.2663 20.8811 20.3039C20.3063 20.0034 20.0592 20.1107 19.9356 20.6688C19.6079 19.9551 20.215 19.8477 20.4728 19.9336C19.9356 19.5687 19.5434 19.7941 19.4736 20.2663C19.4199 19.8853 19.3877 19.6384 19.8228 19.4989C20.2579 19.3594 21.2249 20.2341 21.7299 19.4989C21.9072 19.2521 21.6063 17.5938 20.7844 17.3148C18.7591 16.6332 19.35 15.8658 18.8451 15.356C18.0769 14.5886 15.2619 16.1073 14.4883 16.161C14.4883 16.161 14.2788 16.9123 14.2627 16.966C14.5581 17.3148 14.7999 17.5402 14.5957 18.0661C14.4722 17.7495 13.9511 17.4704 13.806 17.7012C13.61 18.0232 13.5024 18.3912 13.4939 18.768C13.4854 19.1448 13.5764 19.5172 13.7577 19.8477C13.7899 19.9175 15.1544 20.2341 13.9994 20.921C14.3325 20.0087 13.3387 20.7439 12.7424 20.6581C12.1461 20.5722 11.6948 20.2395 11.6411 20.921C11.5336 20.8513 11.3779 20.3844 11.9366 20.2717C11.4638 20.2019 11.3617 20.4327 11.2919 20.921C10.9212 20.4327 11.1845 20.1161 11.625 20.0302C11.5264 20.012 11.4251 20.015 11.3278 20.0391C11.2306 20.0631 11.1396 20.1077 11.0609 20.1697C10.9472 20.3677 10.8844 20.5909 10.8782 20.8191C10.2819 18.7262 12.2052 20.2824 12.694 19.4775C13.1829 18.6725 12.8337 17.2075 12.1192 16.4347C12.1192 16.4347 12.087 16.381 12.0494 16.3649C11.3295 15.9463 9.6158 15.0019 9.94888 13.4832C10.3679 11.6478 12.189 9.30807 11.0502 9.4476C10.2282 9.55493 9.04099 10.6175 8.74553 9.93594C9.28273 9.98961 9.33646 9.74275 9.58357 9.60323C10.2282 9.27587 10.3357 9.50126 10.658 8.99145C10.658 8.99145 10.658 8.92169 10.658 8.94315C9.86736 9.22409 9.06217 9.46234 8.24592 9.65689C7.96657 9.74275 7.70871 9.81252 8.06864 10.113C7.47771 10.1667 7.0748 9.62469 6.56445 9.37783C7.02108 9.25441 7.54755 9.37783 7.96657 9.15244C7.92897 9.37783 7.89673 9.55493 8.10625 9.51736C8.9912 9.27051 9.83478 8.89437 10.6096 8.40114C10.4324 8.45481 8.99801 8.26162 9.05173 8.52457C8.4232 8.6641 8.2298 8.57287 8.05252 8.81973C7.92897 8.57287 8.1922 7.84304 8.92818 7.63375C9.71788 7.9611 10.1691 6.35653 12.463 7.00051C13.4407 7.27956 14.2251 7.31713 14.2949 6.46386C14.7515 7.56398 12.8982 7.59618 13.1077 7.8967C14.2949 9.64079 12.5705 11.2668 13.0002 11.7552C13.6449 12.3723 14.4453 9.07195 14.5098 8.67483C14.7354 7.35469 15.552 6.75902 17.1958 6.14188C18.3492 5.67537 19.3855 4.9608 20.2311 4.04897C20.36 3.92554 19.0707 5.6267 19.436 6.53363C19.436 6.53363 18.0822 6.94684 17.545 7.1293C17.0992 7.26417 16.6902 7.49921 16.3494 7.81641C16.0086 8.13361 15.745 8.52455 15.5788 8.95925C15.0416 10.1506 14.6065 11.299 14.1982 12.1308C14.825 11.1477 15.3643 10.1116 15.8098 9.03438C16.4652 7.69278 17.1099 7.42445 19.3877 6.88781C20.9187 6.51216 20.9133 6.27067 22.1704 5.12226C21.8212 5.72866 21.6977 7.02734 22.4981 7.35469C22.1382 7.42982 20.9885 7.98256 21.5204 9.05048C19.8658 9.05048 18.7484 9.86081 18.555 11.299C18.1857 11.1566 17.7899 11.0958 17.3948 11.1208C16.9997 11.1458 16.6148 11.256 16.2665 11.4439C16.0408 11.5781 15.8582 12.045 16.0247 12.2328" fill="white"/>
<path fill-rule="evenodd" clip-rule="evenodd" d="M10.0191 15.1842C10.0191 15.0608 10.2824 15.5652 10.9808 16.0912C11.6791 16.6171 12.2056 16.2682 11.475 17.2771C11.2977 17.5777 12.0122 18.0123 11.5072 18.6617C11.2977 18.0821 11.0345 17.803 10.7014 17.9587L9.33689 19.7457C9.1811 19.9603 9.39061 19.9764 9.58401 19.853C9.68389 19.7734 9.80891 19.7319 9.93664 19.7361C10.0644 19.7403 10.1864 19.7898 10.2809 19.8757C10.3754 19.9617 10.4361 20.0785 10.4521 20.2051C10.4681 20.3318 10.4384 20.46 10.3683 20.5668C10.0567 19.9228 9.29391 20.6043 8.7567 20.6043C8.07445 20.6043 7.72526 20.2394 7.47814 20.7116C7.05912 20.0462 8.30007 20.3092 8.05833 20.2018C7.95978 20.1501 7.85189 20.1184 7.74095 20.1088C7.63002 20.0991 7.51828 20.1116 7.41224 20.1456C7.30621 20.1796 7.20802 20.2343 7.12341 20.3066C7.0388 20.3789 6.96946 20.4674 6.91945 20.5668C6.81738 20.1857 6.88721 19.853 7.68766 19.853C7.26863 19.5203 6.88721 19.6759 6.55414 20.1321C6.5441 19.9871 6.57407 19.8422 6.64078 19.713C6.70749 19.5839 6.80838 19.4755 6.93248 19.3997C7.05658 19.3239 7.19912 19.2835 7.34459 19.283C7.49006 19.2825 7.63288 19.3219 7.75749 19.3969C8.09056 19.5579 8.54719 19.9335 8.78894 19.6276C10.1373 17.8943 9.86335 16.5151 10.0138 15.1896" fill="white"/>
<path fill-rule="evenodd" clip-rule="evenodd" d="M18.3616 19.9013C18.3616 19.9335 18.3079 20.0408 18.3616 20.0247C18.8988 19.6545 19.6885 20.0247 19.06 20.6526C19.0278 20.3736 18.8344 20.0569 18.2542 20.4272C18.1165 20.5079 17.9598 20.5504 17.8002 20.5504C17.6406 20.5504 17.4839 20.5079 17.3463 20.4272C16.6479 20.0569 16.4545 20.5667 16.2719 20.878C16.1161 20.3897 16.3417 19.9711 16.7607 20.0569C15.7669 19.8852 15.8367 20.776 15.7293 20.8458C15.6805 20.7328 15.657 20.6105 15.6606 20.4875C15.6642 20.3644 15.6947 20.2437 15.75 20.1337C15.8053 20.0237 15.884 19.9272 15.9807 19.8509C16.0774 19.7746 16.1896 19.7204 16.3095 19.692C15.7723 19.2895 15.3425 20.3038 15.3103 20.5292C15.1867 19.3969 15.6971 19.1178 16.1483 19.2037C16.7983 19.3271 17.6525 20.0408 18.1414 19.2895C18.4422 18.8388 18.8397 17.8567 18.4744 17.6152C18.2096 17.3628 18.0047 17.0545 17.8746 16.7128C17.7444 16.3712 17.6924 16.0047 17.7223 15.6404C17.7922 15.2701 18.179 15.2915 18.4583 15.3774C18.9149 15.5169 18.7914 16.1287 19.2641 16.7029C19.6832 17.1752 20.3117 17.2396 20.258 17.3684L19.8765 18.2055C19.9694 18.3223 20.0199 18.467 20.0199 18.616C20.0199 18.7651 19.9694 18.9098 19.8765 19.0266C19.7369 18.8334 19.4951 18.608 19.3017 18.6778C18.8812 18.9884 18.5586 19.4131 18.3724 19.9013" fill="white"/>
</g>
<defs>
<clipPath id="clip0_2163_213">
<rect width="70.2993" height="26.8697" fill="white" transform="translate(0 0.963013)"/>
</clipPath>
</defs>
</svg>
