<svg width="120" height="25" viewBox="0 0 120 25" fill="none" xmlns="http://www.w3.org/2000/svg">
<path d="M27.8033 20.0877H29.4019V9.92267H27.8033V9.70926H31.044L33.7083 17.7065H33.7409L36.4052 9.70926H39.5806V9.92267H37.982V20.0877H39.5806V20.3012H34.948V20.0877H36.5466V10.0125H36.514L33.0776 20.3124L29.652 10.1136H29.6194V20.0877H31.218V20.3012H27.8033V20.0877Z" fill="white"/>
<path d="M45.399 20.0872H46.6605L50.5427 9.45035H50.8907L54.8056 20.0872H56.0888V20.3006H51.652V20.0872H53.2505L51.739 15.9537H48.4004L46.8888 20.0872H48.4874V20.3006H45.399V20.0872ZM50.0751 11.4272L48.4874 15.7516H51.652L50.0642 11.4272H50.0751Z" fill="white"/>
<path d="M63.5707 20.0877V9.92267H61.9721V9.70926H66.4851V9.92267H65.0062V14.6514H65.1475L69.4974 9.92267H67.9967V9.70926H70.9764V9.92267H69.7801L66.1263 13.9213L71.3461 20.0877H72.2922V20.3012H68.1381V20.0877H69.4322L65.1149 14.8536H64.9953V20.0877H66.4742V20.3012H61.9613V20.0877H63.5707Z" fill="white"/>
<path d="M78.1103 20.0877H79.7088V9.92267H78.1103V9.70926H86.3424V12.2814H86.1793C86.0597 11.8995 85.9183 11.5513 85.7769 11.2593C85.6355 10.9673 85.4615 10.7202 85.2549 10.518C85.0592 10.3158 84.8091 10.1585 84.5372 10.0687C84.2545 9.9676 83.9282 9.92267 83.5259 9.92267H81.1334V14.5166H82.0686C82.384 14.5166 82.6559 14.4829 82.8734 14.4268C83.0909 14.3706 83.2866 14.2583 83.4389 14.0898C83.5911 13.9213 83.7325 13.7079 83.8412 13.4159C83.95 13.1351 84.0587 12.7644 84.1675 12.3263H84.3306V16.9427H84.1675C84.1022 16.6507 84.0261 16.3811 83.9608 16.1116C83.8847 15.842 83.7869 15.6061 83.6564 15.4039C83.5259 15.1905 83.3519 15.0333 83.1344 14.9097C82.9169 14.7862 82.6341 14.7188 82.297 14.7188H81.1334V20.0877H83.8521C84.3741 20.0877 84.8199 19.9754 85.1679 19.7395C85.5159 19.5037 85.7987 19.2341 86.027 18.9084C86.2554 18.5826 86.4076 18.2569 86.5164 17.9087C86.6251 17.5605 86.6904 17.2797 86.723 17.0438H86.8861V20.3012H78.1103V20.0877Z" fill="white"/>
<path d="M93.5731 20.0872H95.1717V9.92209H93.5731V9.70868H96.6506L101.512 17.807H101.544V9.91086H99.9457V9.69745H103.36V9.91086H101.762V20.4915H101.479L95.4218 10.5174H95.3892V20.0759H96.9878V20.2893H93.5731V20.0759V20.0872Z" fill="white"/>
<path d="M108.32 20.0872H109.581L113.463 9.45035H113.811L117.726 20.0872H119.009V20.3006H114.572V20.0872H116.171L114.659 15.9537H111.321L109.809 20.0872H111.408V20.3006H108.32V20.0872ZM112.996 11.4272L111.408 15.7516H114.572L112.985 11.4272H112.996Z" fill="white"/>
<path d="M0.728605 24.3024L8.05489 14.527V24.3024H8.5395V14.3602L15.9893 24.3024H16.55V8.08863H16.0653V23.586L8.66303 13.7124L13.8418 6.81273L13.4522 6.50847L8.5395 13.0647V0.168213H8.05489V13.7026L0.652587 23.586V8.08863H0.167969V24.3024H0.728605Z" fill="white"/>
<path d="M27.8033 20.0877H29.4019V9.92267H27.8033V9.70926H31.044L33.7083 17.7065H33.7409L36.4052 9.70926H39.5806V9.92267H37.982V20.0877H39.5806V20.3012H34.948V20.0877H36.5466V10.0125H36.514L33.0776 20.3124L29.652 10.1136H29.6194V20.0877H31.218V20.3012H27.8033V20.0877Z" stroke="white" stroke-width="0.3364" stroke-miterlimit="10"/>
<path d="M45.399 20.0872H46.6605L50.5427 9.45035H50.8907L54.8056 20.0872H56.0888V20.3006H51.652V20.0872H53.2505L51.739 15.9537H48.4004L46.8888 20.0872H48.4874V20.3006H45.399V20.0872ZM50.0751 11.4272L48.4874 15.7516H51.652L50.0642 11.4272H50.0751Z" stroke="white" stroke-width="0.3364" stroke-miterlimit="10"/>
<path d="M63.5707 20.0877V9.92267H61.9721V9.70926H66.4851V9.92267H65.0062V14.6514H65.1475L69.4974 9.92267H67.9967V9.70926H70.9764V9.92267H69.7801L66.1263 13.9213L71.3461 20.0877H72.2922V20.3012H68.1381V20.0877H69.4322L65.1149 14.8536H64.9953V20.0877H66.4742V20.3012H61.9613V20.0877H63.5707Z" stroke="white" stroke-width="0.3364" stroke-miterlimit="10"/>
<path d="M78.1103 20.0877H79.7088V9.92267H78.1103V9.70926H86.3424V12.2814H86.1793C86.0597 11.8995 85.9183 11.5513 85.7769 11.2593C85.6355 10.9673 85.4615 10.7202 85.2549 10.518C85.0592 10.3158 84.8091 10.1585 84.5372 10.0687C84.2545 9.9676 83.9282 9.92267 83.5259 9.92267H81.1334V14.5166H82.0686C82.384 14.5166 82.6559 14.4829 82.8734 14.4268C83.0909 14.3706 83.2866 14.2583 83.4389 14.0898C83.5911 13.9213 83.7325 13.7079 83.8412 13.4159C83.95 13.1351 84.0587 12.7644 84.1675 12.3263H84.3306V16.9427H84.1675C84.1022 16.6507 84.0261 16.3811 83.9608 16.1116C83.8847 15.842 83.7869 15.6061 83.6564 15.4039C83.5259 15.1905 83.3519 15.0333 83.1344 14.9097C82.9169 14.7862 82.6341 14.7188 82.297 14.7188H81.1334V20.0877H83.8521C84.3741 20.0877 84.8199 19.9754 85.1679 19.7395C85.5159 19.5037 85.7987 19.2341 86.027 18.9084C86.2554 18.5826 86.4076 18.2569 86.5164 17.9087C86.6251 17.5605 86.6904 17.2797 86.723 17.0438H86.8861V20.3012H78.1103V20.0877Z" stroke="white" stroke-width="0.3364" stroke-miterlimit="10"/>
<path d="M93.5731 20.0872H95.1717V9.92209H93.5731V9.70868H96.6506L101.512 17.807H101.544V9.91086H99.9457V9.69745H103.36V9.91086H101.762V20.4915H101.479L95.4218 10.5174H95.3892V20.0759H96.9878V20.2893H93.5731V20.0759V20.0872Z" stroke="white" stroke-width="0.3364" stroke-miterlimit="10"/>
<path d="M108.32 20.0872H109.581L113.463 9.45035H113.811L117.726 20.0872H119.009V20.3006H114.572V20.0872H116.171L114.659 15.9537H111.321L109.809 20.0872H111.408V20.3006H108.32V20.0872ZM112.996 11.4272L111.408 15.7516H114.572L112.985 11.4272H112.996Z" stroke="white" stroke-width="0.3364" stroke-miterlimit="10"/>
<path d="M0.728605 24.3024L8.05489 14.527V24.3024H8.5395V14.3602L15.9893 24.3024H16.55V8.08863H16.0653V23.586L8.66303 13.7124L13.8418 6.81273L13.4522 6.50847L8.5395 13.0647V0.168213H8.05489V13.7026L0.652587 23.586V8.08863H0.167969V24.3024H0.728605Z" stroke="white" stroke-width="0.3364" stroke-miterlimit="10"/>
</svg>
