<svg width="82" height="13" viewBox="0 0 82 13" fill="none" xmlns="http://www.w3.org/2000/svg">
<path d="M39.8735 6.22966C40.4365 5.66029 40.6673 5.05534 40.6673 4.16702C40.6673 2.28099 39.2227 0.963013 37.1558 0.963013H31.4469V12.3128H37.6226C39.7937 12.3128 41.3101 10.9111 41.3101 8.90384C41.3101 7.75325 40.8394 6.87811 39.8735 6.22966ZM33.5263 2.94064H37.0081C38.065 2.94064 38.5568 3.34394 38.5568 4.21117C38.5568 5.0784 38.0663 5.46655 37.0958 5.46655H33.5263V2.94064ZM37.4907 10.3358H33.527V7.44418H37.5349C38.8496 7.44418 39.201 8.36215 39.201 8.90318C39.201 9.76053 38.514 10.3352 37.4907 10.3352V10.3358Z" fill="white"/>
<path d="M59.4344 3.46389C56.811 3.46389 54.8331 5.44943 54.8331 8.08076C54.8331 9.3223 55.2972 10.4538 56.1398 11.2676C56.9745 12.0736 58.125 12.5184 59.3803 12.5184C61.3187 12.5184 62.841 11.5411 63.5636 9.83499H61.4637C61.0338 10.4162 60.3086 10.747 59.4522 10.747C58.179 10.747 57.1875 9.93121 56.9593 8.70812H63.7218L63.7304 8.64552C63.7851 8.24815 63.7851 7.97203 63.7851 7.7058C63.7851 5.24844 61.9549 3.46455 59.433 3.46455L59.4344 3.46389ZM57.0589 7.06066C57.4406 5.73148 58.5285 5.25437 59.4337 5.25437C60.6547 5.25437 61.494 5.92785 61.6951 7.06066H57.0582H57.0589Z" fill="white"/>
<path d="M44.3646 0.963656H42.2839V12.3128H44.3646V0.963656Z" fill="white"/>
<path d="M67.0157 2.94061V5.47706H72.4279V7.45403H67.0157V12.3128H64.9349V0.9643H72.4279V2.94061H67.0157Z" fill="white"/>
<path d="M75.6143 3.68334H73.5336V12.3135H75.6143V3.68334Z" fill="white"/>
<path d="M81.8553 5.60164V3.68266H79.1449V0.963013H77.0642V9.35525C77.0642 10.9856 78.3913 12.3128 80.0231 12.3128H81.8553V10.3938H80.2143C79.6249 10.3938 79.1449 9.91473 79.1449 9.32494V5.60164H81.8553Z" fill="white"/>
<path d="M51.7554 8.43266C51.7554 9.94636 51.0678 10.7793 49.8197 10.7793C48.5716 10.7793 47.884 9.9457 47.884 8.43266V3.68398H45.8032V8.55853C45.8032 9.74801 46.179 10.747 46.8891 11.4475C47.5998 12.1487 48.6125 12.5191 49.819 12.5191C51.0256 12.5191 52.0389 12.1487 52.749 11.4475C53.4591 10.747 53.8349 9.74801 53.8349 8.55853V3.68398H51.7541V8.43266H51.7554Z" fill="white"/>
<path d="M75.6137 2.55776L73.5336 2.87802V0.963656H75.6137V2.55776Z" fill="white"/>
<path d="M12.511 4.1143C12.511 4.87148 12.2433 5.56672 11.7976 6.11038L0 7.91865V0.963013H9.35816C10.2291 0.963013 11.017 1.31623 11.5873 1.88626C12.1582 2.45694 12.511 3.24444 12.511 4.11496V4.1143Z" fill="white"/>
<path d="M12.749 9.39215C12.749 11.0054 11.441 12.3128 9.82698 12.3128H4.90554e-05V9.03696L11.7904 7.22998C11.8253 7.26095 11.8596 7.2939 11.8926 7.32685C12.422 7.85539 12.749 8.58555 12.749 9.39149V9.39215Z" fill="white"/>
<path d="M26.2456 0.963013V3.89684L13.5184 5.84679V0.963013H26.2456Z" fill="white"/>
<path d="M26.2456 5.01515V8.52953H20.0482V12.3121H13.5184V6.96576L26.2456 5.01515Z" fill="white"/>
</svg>
