<svg width="125" height="20" viewBox="0 0 125 20" fill="none" xmlns="http://www.w3.org/2000/svg">
<path d="M9.52261 16.16H5.95584C5.66421 15.4133 5.41746 14.8053 5.21556 14.336C5.01367 13.856 4.83421 13.4773 4.67718 13.2C4.53137 12.9227 4.37995 12.72 4.22292 12.592C4.07711 12.464 3.89765 12.384 3.68454 12.352C3.48265 12.32 3.22468 12.304 2.91062 12.304L3.73502 11.824C4.43042 11.824 5.00806 11.8453 5.46793 11.888C5.9278 11.92 6.31476 12.0107 6.62881 12.16C6.94287 12.2987 7.2401 12.5227 7.5205 12.832C7.80091 13.1307 8.09253 13.552 8.39537 14.096C8.70943 14.6293 9.08517 15.3173 9.52261 16.16ZM3.90326 12.288H2.72555L2.70873 10.496H3.88644C4.54819 10.496 5.05293 10.3573 5.40063 10.08C5.75955 9.80267 5.93901 9.376 5.93901 8.8C5.93901 8.288 5.78198 7.89867 5.46793 7.632C5.15387 7.36533 4.64353 7.232 3.93691 7.232H2.59096V4.96H3.56677C4.87907 4.96 5.9278 5.104 6.71293 5.392C7.49807 5.66933 8.06449 6.07467 8.4122 6.608C8.7599 7.13067 8.93375 7.76 8.93375 8.496C8.93375 9.36 8.72625 10.0747 8.31125 10.64C7.89625 11.2053 7.3074 11.6213 6.54469 11.888C5.7932 12.1547 4.91272 12.288 3.90326 12.288ZM2.97792 16.16H0V4.96H2.97792V16.16Z" fill="white"/>
<path d="M14.1228 16.32C13.2142 16.32 12.4179 16.1653 11.7337 15.856C11.0607 15.5467 10.5392 15.0773 10.169 14.448C9.7989 13.8187 9.61383 13.0347 9.61383 12.096C9.61383 11.1467 9.81011 10.3413 10.2027 9.68C10.5953 9.008 11.1392 8.496 11.8346 8.144C12.5413 7.78133 13.3545 7.6 14.2742 7.6C15.1939 7.6 15.9903 7.76 16.6632 8.08C17.3362 8.4 17.8578 8.88533 18.2279 9.536C18.5981 10.176 18.7831 10.992 18.7831 11.984C18.7831 12.88 18.5812 13.6533 18.1774 14.304C17.7849 14.9547 17.2409 15.456 16.5455 15.808C15.8501 16.1493 15.0425 16.32 14.1228 16.32ZM14.1228 14.176C14.4593 14.176 14.7453 14.096 14.9808 13.936C15.2276 13.7653 15.4182 13.52 15.5528 13.2C15.6874 12.88 15.7547 12.48 15.7547 12C15.7547 11.4773 15.6987 11.0507 15.5865 10.72C15.4743 10.3893 15.3061 10.144 15.0818 9.984C14.8686 9.81333 14.5995 9.728 14.2742 9.728C13.9377 9.728 13.6461 9.81333 13.3993 9.984C13.1638 10.144 12.9787 10.3893 12.8441 10.72C12.7095 11.0507 12.6422 11.4773 12.6422 12C12.6422 12.48 12.6927 12.88 12.7936 13.2C12.9058 13.52 13.074 13.7653 13.2984 13.936C13.5227 14.096 13.7975 14.176 14.1228 14.176Z" fill="white"/>
<path d="M24.2969 16.304C23.7249 16.304 23.2089 16.2293 22.7491 16.08C22.2892 15.9307 21.9023 15.712 21.5882 15.424C21.2629 15.104 21.0162 14.6987 20.8479 14.208C20.6909 13.7067 20.6124 13.024 20.6124 12.16V8.624L21.0666 6.08H23.5567V12.288C23.5567 12.992 23.68 13.472 23.9268 13.728C24.1848 13.9733 24.5212 14.096 24.9363 14.096C25.1494 14.096 25.3344 14.0907 25.4915 14.08C25.6597 14.0693 25.8279 14.0533 25.9962 14.032L25.8448 16.16C25.6317 16.2027 25.3793 16.2347 25.0877 16.256C24.8073 16.288 24.5437 16.304 24.2969 16.304ZM21.6723 7.76H25.8448V9.888H19.401V8.048L21.6723 7.76Z" fill="white"/>
<path d="M34.7392 16.16H32.2997L31.98 14.448V11.312C31.98 10.7467 31.7669 10.3733 31.3407 10.192C30.9145 10 30.3032 9.904 29.5068 9.904C29.2264 9.904 28.9348 9.91467 28.632 9.936C28.3291 9.95733 27.9702 9.98933 27.5552 10.032L27.7066 7.76C28.1777 7.70667 28.6039 7.66933 28.9853 7.648C29.3666 7.616 29.776 7.6 30.2135 7.6C31.2229 7.6 32.0641 7.71733 32.7371 7.952C33.4101 8.176 33.9092 8.56533 34.2345 9.12C34.571 9.664 34.7392 10.4053 34.7392 11.344V16.16ZM29.3386 16.32C28.5647 16.32 27.959 16.112 27.5216 15.696C27.0841 15.28 26.8654 14.7093 26.8654 13.984C26.8654 13.312 27.0673 12.752 27.4711 12.304C27.8749 11.8453 28.531 11.4827 29.4395 11.216C30.3593 10.9493 31.5818 10.7733 33.1073 10.688L33.0904 12.352C32.1034 12.4053 31.3519 12.4907 30.836 12.608C30.3312 12.7147 29.9947 12.8533 29.8265 13.024C29.6583 13.1947 29.5741 13.3973 29.5741 13.632C29.5741 13.8773 29.647 14.0587 29.7929 14.176C29.9387 14.2827 30.1349 14.336 30.3817 14.336C30.6621 14.336 30.9201 14.2613 31.1556 14.112C31.4024 13.9627 31.6043 13.7547 31.7613 13.488C31.9183 13.2107 31.9912 12.8853 31.98 12.512H32.6698C32.6698 13.344 32.5296 14.0427 32.2492 14.608C31.9688 15.1733 31.5762 15.6 31.0715 15.888C30.578 16.176 30.0004 16.32 29.3386 16.32Z" fill="white"/>
<path d="M38.8059 16.288C38.3909 16.288 37.9927 16.2773 37.6113 16.256C37.2412 16.2347 36.8654 16.2027 36.4841 16.16L36.3663 14.112C36.7252 14.1653 37.0617 14.208 37.3758 14.24C37.7011 14.2613 38.0263 14.272 38.3516 14.272C38.8451 14.272 39.2433 14.2293 39.5461 14.144C39.8602 14.048 40.0172 13.8933 40.0172 13.68C40.0172 13.584 39.9892 13.4987 39.9331 13.424C39.8882 13.3387 39.7649 13.2427 39.563 13.136C39.3723 13.0293 39.0694 12.9067 38.6544 12.768C38.0712 12.5547 37.5945 12.3307 37.2244 12.096C36.8542 11.8613 36.585 11.5893 36.4168 11.28C36.2598 10.96 36.1813 10.5707 36.1813 10.112C36.1813 9.38667 36.5065 8.78933 37.1571 8.32C37.8188 7.84 38.7778 7.6 40.034 7.6C40.449 7.6 40.836 7.616 41.1949 7.648C41.5651 7.66933 41.9408 7.70667 42.3222 7.76L42.4399 9.792C42.1034 9.73867 41.7838 9.696 41.4809 9.664C41.1781 9.632 40.8472 9.616 40.4883 9.616C40.0284 9.616 39.6976 9.65867 39.4957 9.744C39.2938 9.82933 39.1928 9.96267 39.1928 10.144C39.1928 10.2507 39.2209 10.3467 39.2769 10.432C39.3442 10.5067 39.4788 10.5973 39.6807 10.704C39.8938 10.8107 40.2079 10.9333 40.6229 11.072C41.2622 11.296 41.7557 11.5307 42.1034 11.776C42.4511 12.0213 42.6923 12.288 42.8269 12.576C42.9615 12.864 43.0288 13.2 43.0288 13.584C43.0288 14.4693 42.6474 15.1413 41.8847 15.6C41.1332 16.0587 40.1069 16.288 38.8059 16.288Z" fill="white"/>
<path d="M52.6192 16.16H50.1629L49.7086 13.808V4H52.6192V16.16ZM48.3626 7.632C48.8001 7.632 49.2656 7.69067 49.7591 7.808C50.2526 7.91467 50.7012 8.08 51.105 8.304L49.86 10.064C49.6581 9.97867 49.4674 9.92 49.288 9.888C49.1085 9.856 48.9179 9.84 48.716 9.84C48.1888 9.84 47.7514 10.0107 47.4037 10.352C47.0672 10.6933 46.8989 11.2427 46.8989 12C46.8989 12.6293 47.0223 13.0987 47.2691 13.408C47.527 13.7173 47.8579 13.872 48.2617 13.872C48.587 13.872 48.8674 13.7973 49.1029 13.648C49.3385 13.488 49.5404 13.28 49.7086 13.024L50.533 13.664C50.2077 14.528 49.7759 15.1893 49.2375 15.648C48.7103 16.096 48.0205 16.32 47.1681 16.32C46.1811 16.32 45.3847 15.9787 44.779 15.296C44.1734 14.6027 43.8705 13.6107 43.8705 12.32C43.8705 11.3067 44.0556 10.4533 44.4257 9.76C44.8071 9.056 45.3343 8.528 46.0072 8.176C46.6802 7.81333 47.4653 7.632 48.3626 7.632Z" fill="white"/>
<path d="M61.9474 16.16H59.5079L59.1882 14.448V11.312C59.1882 10.7467 58.9751 10.3733 58.5489 10.192C58.1227 10 57.5114 9.904 56.715 9.904C56.4346 9.904 56.143 9.91467 55.8402 9.936C55.5373 9.95733 55.1784 9.98933 54.7634 10.032L54.9148 7.76C55.3859 7.70667 55.8121 7.66933 56.1935 7.648C56.5748 7.616 56.9842 7.6 57.4217 7.6C58.4311 7.6 59.2723 7.71733 59.9453 7.952C60.6183 8.176 61.1174 8.56533 61.4427 9.12C61.7792 9.664 61.9474 10.4053 61.9474 11.344V16.16ZM56.5468 16.32C55.7729 16.32 55.1672 16.112 54.7298 15.696C54.2923 15.28 54.0736 14.7093 54.0736 13.984C54.0736 13.312 54.2755 12.752 54.6793 12.304C55.0831 11.8453 55.7392 11.4827 56.6477 11.216C57.5675 10.9493 58.79 10.7733 60.3155 10.688L60.2986 12.352C59.3116 12.4053 58.5601 12.4907 58.0442 12.608C57.5394 12.7147 57.2029 12.8533 57.0347 13.024C56.8665 13.1947 56.7823 13.3973 56.7823 13.632C56.7823 13.8773 56.8552 14.0587 57.0011 14.176C57.1469 14.2827 57.3431 14.336 57.5899 14.336C57.8703 14.336 58.1283 14.2613 58.3638 14.112C58.6106 13.9627 58.8125 13.7547 58.9695 13.488C59.1265 13.2107 59.1994 12.8853 59.1882 12.512H59.878C59.878 13.344 59.7378 14.0427 59.4574 14.608C59.177 15.1733 58.7844 15.6 58.2797 15.888C57.7862 16.176 57.2086 16.32 56.5468 16.32Z" fill="white"/>
<path d="M65.7953 16.16H64.4326V4.96H65.7953V16.16Z" fill="white"/>
<path d="M70.0499 15.904L68.7208 16.16V4H70.0499V15.904ZM71.766 16.288C71.3735 16.288 70.9865 16.2507 70.6051 16.176C70.2238 16.1013 69.8424 15.984 69.4611 15.824L70.0163 14.864C70.2967 14.992 70.5883 15.0827 70.8912 15.136C71.194 15.1893 71.4744 15.216 71.7324 15.216C72.596 15.216 73.2971 14.9387 73.8354 14.384C74.3738 13.8293 74.643 12.9973 74.643 11.888C74.643 10.9493 74.4411 10.24 74.0373 9.76C73.6448 9.28 73.112 9.04 72.439 9.04C71.9231 9.04 71.4632 9.19467 71.0594 9.504C70.6556 9.80267 70.3191 10.272 70.0499 10.912L69.5957 10.48C69.8761 9.66933 70.2911 9.04 70.8407 8.592C71.4015 8.13333 72.0801 7.904 72.8764 7.904C73.8186 7.904 74.5813 8.23467 75.1646 8.896C75.7478 9.55733 76.0394 10.5493 76.0394 11.872C76.0394 12.8107 75.8544 13.6107 75.4842 14.272C75.1253 14.9333 74.6262 15.4347 73.9869 15.776C73.3587 16.1173 72.6185 16.288 71.766 16.288Z" fill="white"/>
<path d="M78.2338 16.16V8.064H79.563V16.16H78.2338ZM78.9068 6.512C78.6264 6.512 78.4021 6.43733 78.2338 6.288C78.0656 6.128 77.9815 5.92 77.9815 5.664C77.9815 5.39733 78.0656 5.18933 78.2338 5.04C78.4021 4.89067 78.6264 4.816 78.9068 4.816C79.176 4.816 79.3947 4.89067 79.563 5.04C79.7312 5.18933 79.8153 5.39733 79.8153 5.664C79.8153 5.92 79.7312 6.128 79.563 6.288C79.3947 6.43733 79.176 6.512 78.9068 6.512Z" fill="white"/>
<path d="M88.3609 16.16H87.2673L87.0655 14.176V11.136C87.0655 10.3893 86.8355 9.856 86.3757 9.536C85.927 9.20533 85.2428 9.04 84.3231 9.04C84.009 9.04 83.7062 9.05067 83.4146 9.072C83.1342 9.08267 82.8033 9.10933 82.4219 9.152L82.5229 8.064C82.8594 8.02133 83.1958 7.99467 83.5323 7.984C83.8688 7.96267 84.2109 7.952 84.5586 7.952C85.3998 7.952 86.1065 8.05867 86.6785 8.272C87.2505 8.48533 87.6711 8.82667 87.9403 9.296C88.2207 9.75467 88.3609 10.352 88.3609 11.088V16.16ZM84.2053 16.304C83.4426 16.304 82.8425 16.128 82.4051 15.776C81.9789 15.424 81.7658 14.9173 81.7658 14.256C81.7658 13.68 81.9452 13.1947 82.3042 12.8C82.6631 12.3947 83.2687 12.064 84.1212 11.808C84.9736 11.552 86.1289 11.3707 87.587 11.264V12.08C86.3981 12.1867 85.4727 12.3307 84.811 12.512C84.1604 12.6933 83.7062 12.912 83.4482 13.168C83.2015 13.424 83.0781 13.728 83.0781 14.08C83.0781 14.528 83.2127 14.848 83.4819 15.04C83.7623 15.232 84.1268 15.328 84.5754 15.328C85.0129 15.328 85.4167 15.2213 85.7868 15.008C86.1682 14.7947 86.4766 14.4693 86.7121 14.032C86.9477 13.5947 87.0655 13.024 87.0655 12.32L87.6207 12.304C87.6207 13.1787 87.4692 13.9147 87.1664 14.512C86.8636 15.1093 86.4542 15.5573 85.9382 15.856C85.4223 16.1547 84.8446 16.304 84.2053 16.304Z" fill="white"/>
<path d="M92.6249 20H91.2957V8.064H92.3893L92.6249 10.208V20ZM94.341 16.288C93.9484 16.288 93.5614 16.2453 93.1801 16.16C92.7987 16.0853 92.4174 15.9733 92.036 15.824L92.5912 14.864C92.8716 14.992 93.1632 15.0827 93.4661 15.136C93.7689 15.1893 94.0493 15.216 94.3073 15.216C95.171 15.216 95.872 14.9387 96.4104 14.384C96.9487 13.8187 97.2179 12.9867 97.2179 11.888C97.2179 10.9493 97.016 10.24 96.6123 9.76C96.2197 9.26933 95.6869 9.024 95.0139 9.024C94.498 9.024 94.0381 9.17867 93.6343 9.488C93.2305 9.79733 92.8941 10.2667 92.6249 10.896L92.1706 10.48C92.451 9.66933 92.866 9.04 93.4156 8.592C93.9764 8.13333 94.655 7.904 95.4514 7.904C96.3935 7.904 97.1562 8.23467 97.7395 8.896C98.3227 9.55733 98.6143 10.544 98.6143 11.856C98.6143 12.8053 98.4293 13.6107 98.0592 14.272C97.7002 14.9333 97.2011 15.4347 96.5618 15.776C95.9337 16.1173 95.1934 16.288 94.341 16.288Z" fill="white"/>
<path d="M106.68 16.16H105.587L105.385 14.176V11.136C105.385 10.3893 105.155 9.856 104.695 9.536C104.247 9.20533 103.562 9.04 102.643 9.04C102.329 9.04 102.026 9.05067 101.734 9.072C101.454 9.08267 101.123 9.10933 100.741 9.152L100.842 8.064C101.179 8.02133 101.515 7.99467 101.852 7.984C102.188 7.96267 102.53 7.952 102.878 7.952C103.719 7.952 104.426 8.05867 104.998 8.272C105.57 8.48533 105.991 8.82667 106.26 9.296C106.54 9.75467 106.68 10.352 106.68 11.088V16.16ZM102.525 16.304C101.762 16.304 101.162 16.128 100.725 15.776C100.298 15.424 100.085 14.9173 100.085 14.256C100.085 13.68 100.265 13.1947 100.624 12.8C100.983 12.3947 101.588 12.064 102.441 11.808C103.293 11.552 104.448 11.3707 105.907 11.264V12.08C104.718 12.1867 103.792 12.3307 103.131 12.512C102.48 12.6933 102.026 12.912 101.768 13.168C101.521 13.424 101.398 13.728 101.398 14.08C101.398 14.528 101.532 14.848 101.801 15.04C102.082 15.232 102.446 15.328 102.895 15.328C103.332 15.328 103.736 15.2213 104.106 15.008C104.488 14.7947 104.796 14.4693 105.032 14.032C105.267 13.5947 105.385 13.024 105.385 12.32L105.94 12.304C105.94 13.1787 105.789 13.9147 105.486 14.512C105.183 15.1093 104.774 15.5573 104.258 15.856C103.742 16.1547 103.164 16.304 102.525 16.304Z" fill="white"/>
<path d="M110.944 15.904L109.615 16.16V4H110.944V15.904ZM112.66 16.288C112.268 16.288 111.881 16.2507 111.5 16.176C111.118 16.1013 110.737 15.984 110.356 15.824L110.911 14.864C111.191 14.992 111.483 15.0827 111.786 15.136C112.088 15.1893 112.369 15.216 112.627 15.216C113.49 15.216 114.192 14.9387 114.73 14.384C115.268 13.8293 115.537 12.9973 115.537 11.888C115.537 10.9493 115.336 10.24 114.932 9.76C114.539 9.28 114.006 9.04 113.333 9.04C112.818 9.04 112.358 9.19467 111.954 9.504C111.55 9.80267 111.214 10.272 110.944 10.912L110.49 10.48C110.771 9.66933 111.186 9.04 111.735 8.592C112.296 8.13333 112.975 7.904 113.771 7.904C114.713 7.904 115.476 8.23467 116.059 8.896C116.642 9.55733 116.934 10.5493 116.934 11.872C116.934 12.8107 116.749 13.6107 116.379 14.272C116.02 14.9333 115.521 15.4347 114.881 15.776C114.253 16.1173 113.513 16.288 112.66 16.288Z" fill="white"/>
<path d="M125 16.16H123.906L123.705 14.176V11.136C123.705 10.3893 123.475 9.856 123.015 9.536C122.566 9.20533 121.882 9.04 120.962 9.04C120.648 9.04 120.345 9.05067 120.054 9.072C119.773 9.08267 119.442 9.10933 119.061 9.152L119.162 8.064C119.498 8.02133 119.835 7.99467 120.171 7.984C120.508 7.96267 120.85 7.952 121.198 7.952C122.039 7.952 122.746 8.05867 123.318 8.272C123.89 8.48533 124.31 8.82667 124.579 9.296C124.86 9.75467 125 10.352 125 11.088V16.16ZM120.844 16.304C120.082 16.304 119.482 16.128 119.044 15.776C118.618 15.424 118.405 14.9173 118.405 14.256C118.405 13.68 118.584 13.1947 118.943 12.8C119.302 12.3947 119.908 12.064 120.76 11.808C121.613 11.552 122.768 11.3707 124.226 11.264V12.08C123.037 12.1867 122.112 12.3307 121.45 12.512C120.8 12.6933 120.345 12.912 120.087 13.168C119.841 13.424 119.717 13.728 119.717 14.08C119.717 14.528 119.852 14.848 120.121 15.04C120.401 15.232 120.766 15.328 121.215 15.328C121.652 15.328 122.056 15.2213 122.426 15.008C122.807 14.7947 123.116 14.4693 123.351 14.032C123.587 13.5947 123.705 13.024 123.705 12.32L124.26 12.304C124.26 13.1787 124.108 13.9147 123.805 14.512C123.503 15.1093 123.093 15.5573 122.577 15.856C122.061 16.1547 121.484 16.304 120.844 16.304Z" fill="white"/>
</svg>
