<svg width="121" height="20" viewBox="0 0 121 20" fill="none" xmlns="http://www.w3.org/2000/svg">
<path d="M9.17031 15.5622H5.73549C5.45466 14.8431 5.21703 14.2576 5.02261 13.8057C4.82818 13.3434 4.65536 12.9788 4.50414 12.7117C4.36373 12.4446 4.21791 12.2494 4.06669 12.1262C3.92627 12.0029 3.75345 11.9259 3.54823 11.8951C3.3538 11.8642 3.10538 11.8488 2.80294 11.8488L3.59683 11.3866C4.26652 11.3866 4.82278 11.4071 5.26564 11.4482C5.70849 11.479 6.08113 11.5664 6.38357 11.7102C6.68601 11.8437 6.97224 12.0594 7.24227 12.3573C7.51231 12.6449 7.79314 13.0507 8.08478 13.5745C8.38721 14.0881 8.74906 14.7507 9.17031 15.5622ZM3.75885 11.8334H2.62472L2.60852 10.1077H3.74265C4.37993 10.1077 4.86599 9.97419 5.20083 9.70711C5.54647 9.44004 5.71929 9.02916 5.71929 8.47447C5.71929 7.98141 5.56807 7.60648 5.26564 7.34968C4.9632 7.09288 4.47174 6.96448 3.79126 6.96448H2.4951V4.77653H3.43481C4.69857 4.77653 5.70849 4.91521 6.46458 5.19255C7.22067 5.45963 7.76614 5.84996 8.10098 6.36356C8.43582 6.86689 8.60324 7.47294 8.60324 8.18172C8.60324 9.01375 8.40341 9.70198 8.00377 10.2464C7.60412 10.7908 7.03705 11.1914 6.30256 11.4482C5.57887 11.705 4.73097 11.8334 3.75885 11.8334ZM2.86775 15.5622H0V4.77653H2.86775V15.5622Z" fill="white"/>
<path d="M13.6003 15.7163C12.7254 15.7163 11.9585 15.5673 11.2996 15.2694C10.6515 14.9715 10.1493 14.5196 9.79282 13.9135C9.43637 13.3075 9.25815 12.5525 9.25815 11.6485C9.25815 10.7343 9.44717 9.95878 9.82522 9.32191C10.2033 8.67477 10.7271 8.18172 11.3968 7.84274C12.0773 7.49349 12.8604 7.31886 13.7461 7.31886C14.6318 7.31886 15.3987 7.47295 16.0468 7.78111C16.6949 8.08927 17.1971 8.55665 17.5536 9.18324C17.91 9.79956 18.0882 10.5854 18.0882 11.5407C18.0882 12.4035 17.8938 13.1482 17.5049 13.7748C17.1269 14.4014 16.603 14.8842 15.9334 15.2232C15.2637 15.5519 14.486 15.7163 13.6003 15.7163ZM13.6003 13.6516C13.9243 13.6516 14.1997 13.5745 14.4266 13.4205C14.6642 13.2561 14.8478 13.0198 14.9774 12.7117C15.1071 12.4035 15.1719 12.0183 15.1719 11.5561C15.1719 11.0528 15.1179 10.6419 15.0098 10.3234C14.9018 10.005 14.7398 9.76875 14.5238 9.61467C14.3186 9.45031 14.0593 9.36814 13.7461 9.36814C13.4221 9.36814 13.1412 9.45031 12.9036 9.61467C12.6768 9.76875 12.4985 10.005 12.3689 10.3234C12.2393 10.6419 12.1745 11.0528 12.1745 11.5561C12.1745 12.0183 12.2231 12.4035 12.3203 12.7117C12.4283 13.0198 12.5904 13.2561 12.8064 13.4205C13.0224 13.5745 13.287 13.6516 13.6003 13.6516Z" fill="white"/>
<path d="M23.398 15.7008C22.8472 15.7008 22.3503 15.6289 21.9074 15.4851C21.4646 15.3413 21.092 15.1308 20.7895 14.8534C20.4763 14.5452 20.2386 14.1549 20.0766 13.6824C19.9254 13.1996 19.8498 12.5422 19.8498 11.7102V8.30498L20.2873 5.8551H22.6851V11.8334C22.6851 12.5114 22.804 12.9736 23.0416 13.2202C23.29 13.4564 23.6141 13.5745 24.0137 13.5745C24.2189 13.5745 24.3972 13.5694 24.5484 13.5591C24.7104 13.5489 24.8724 13.5334 25.0344 13.5129L24.8886 15.5622C24.6834 15.6033 24.4404 15.6341 24.1595 15.6546C23.8895 15.6854 23.6357 15.7008 23.398 15.7008ZM20.8705 7.47294H24.8886V9.52222H18.6833V7.75029L20.8705 7.47294Z" fill="white"/>
<path d="M33.454 15.5622H31.1047L30.7969 13.9135V10.8935C30.7969 10.3491 30.5917 9.9896 30.1812 9.81497C29.7708 9.63007 29.1821 9.53762 28.4152 9.53762C28.1452 9.53762 27.8643 9.5479 27.5727 9.56844C27.2811 9.58898 26.9354 9.6198 26.5358 9.66089L26.6816 7.47294C27.1352 7.42158 27.5457 7.38563 27.9129 7.36509C28.2802 7.33427 28.6744 7.31886 29.0957 7.31886C30.0678 7.31886 30.8779 7.43186 31.526 7.65784C32.174 7.87355 32.6547 8.24848 32.9679 8.78263C33.292 9.3065 33.454 10.0204 33.454 10.9244V15.5622ZM28.2532 15.7163C27.5079 15.7163 26.9246 15.516 26.5034 15.1153C26.0821 14.7147 25.8715 14.1652 25.8715 13.4667C25.8715 12.8195 26.0659 12.2803 26.4548 11.8488C26.8436 11.4071 27.4755 11.0579 28.3504 10.8011C29.2361 10.5443 30.4134 10.3748 31.8824 10.2926L31.8662 11.8951C30.9157 11.9464 30.192 12.0286 29.6951 12.1416C29.2091 12.2443 28.885 12.3778 28.723 12.5422C28.561 12.7065 28.48 12.9017 28.48 13.1277C28.48 13.364 28.5502 13.5386 28.6906 13.6516C28.831 13.7543 29.0201 13.8057 29.2577 13.8057C29.5277 13.8057 29.7762 13.7338 30.003 13.5899C30.2406 13.4461 30.435 13.2458 30.5863 12.989C30.7375 12.722 30.8077 12.4087 30.7969 12.0491H31.4612C31.4612 12.8504 31.3261 13.5232 31.0561 14.0676C30.7861 14.612 30.408 15.0229 29.922 15.3002C29.4467 15.5776 28.8904 15.7163 28.2532 15.7163Z" fill="white"/>
<path d="M37.3702 15.6854C36.9705 15.6854 36.5871 15.6752 36.2199 15.6546C35.8634 15.6341 35.5016 15.6033 35.1343 15.5622L35.0209 13.5899C35.3665 13.6413 35.6906 13.6824 35.993 13.7132C36.3063 13.7338 36.6195 13.744 36.9327 13.744C37.408 13.744 37.7914 13.7029 38.0831 13.6208C38.3855 13.5283 38.5367 13.3794 38.5367 13.1739C38.5367 13.0815 38.5097 12.9993 38.4557 12.9274C38.4125 12.8452 38.2937 12.7528 38.0993 12.6501C37.9157 12.5473 37.624 12.4292 37.2244 12.2957C36.6627 12.0902 36.2037 11.8745 35.8472 11.6485C35.4908 11.4225 35.2315 11.1606 35.0695 10.8627C34.9183 10.5546 34.8427 10.1796 34.8427 9.73793C34.8427 9.03943 35.1559 8.4642 35.7824 8.01223C36.4197 7.54999 37.3432 7.31886 38.5529 7.31886C38.9526 7.31886 39.3252 7.33427 39.6709 7.36509C40.0273 7.38563 40.3892 7.42158 40.7564 7.47294L40.8698 9.42977C40.5458 9.37841 40.2379 9.33732 39.9463 9.3065C39.6547 9.27569 39.336 9.26028 38.9904 9.26028C38.5475 9.26028 38.2289 9.30137 38.0345 9.38354C37.84 9.46572 37.7428 9.59412 37.7428 9.76875C37.7428 9.87147 37.7698 9.96391 37.8238 10.0461C37.8887 10.118 38.0183 10.2053 38.2127 10.308C38.4179 10.4107 38.7204 10.5289 39.12 10.6624C39.7357 10.8781 40.2109 11.1041 40.5458 11.3404C40.8806 11.5766 41.1128 11.8334 41.2425 12.1108C41.3721 12.3881 41.4369 12.7117 41.4369 13.0815C41.4369 13.9341 41.0696 14.5812 40.3351 15.0229C39.6115 15.4646 38.6231 15.6854 37.3702 15.6854Z" fill="white"/>
<path d="M50.6725 15.5622H48.307L47.8696 13.2972V3.85205H50.6725V15.5622ZM46.5734 7.34968C46.9947 7.34968 47.4429 7.40618 47.9182 7.51917C48.3934 7.62189 48.8255 7.78111 49.2143 7.99682L48.0154 9.69171C47.821 9.60953 47.6373 9.55303 47.4645 9.52222C47.2917 9.4914 47.1081 9.47599 46.9137 9.47599C46.406 9.47599 45.9847 9.64035 45.6499 9.96905C45.3259 10.2978 45.1638 10.8268 45.1638 11.5561C45.1638 12.1621 45.2827 12.6141 45.5203 12.912C45.7687 13.2099 46.0874 13.3588 46.4762 13.3588C46.7894 13.3588 47.0595 13.2869 47.2863 13.1431C47.5131 12.989 47.7075 12.7887 47.8696 12.5422L48.6635 13.1585C48.3502 13.9906 47.9344 14.6274 47.4159 15.0691C46.9082 15.5005 46.244 15.7163 45.4231 15.7163C44.4726 15.7163 43.7057 15.3876 43.1224 14.7301C42.5391 14.0625 42.2475 13.1072 42.2475 11.8642C42.2475 10.8884 42.4257 10.0666 42.7822 9.39895C43.1494 8.721 43.6571 8.21253 44.3051 7.87355C44.9532 7.52431 45.7093 7.34968 46.5734 7.34968Z" fill="white"/>
<path d="M59.6556 15.5622H57.3063L56.9985 13.9135V10.8935C56.9985 10.3491 56.7933 9.9896 56.3828 9.81497C55.9724 9.63007 55.3837 9.53762 54.6168 9.53762C54.3468 9.53762 54.0659 9.5479 53.7743 9.56844C53.4827 9.58898 53.137 9.6198 52.7374 9.66089L52.8832 7.47294C53.3368 7.42158 53.7473 7.38563 54.1145 7.36509C54.4818 7.33427 54.876 7.31886 55.2973 7.31886C56.2694 7.31886 57.0795 7.43186 57.7276 7.65784C58.3756 7.87355 58.8563 8.24848 59.1695 8.78263C59.4936 9.3065 59.6556 10.0204 59.6556 10.9244V15.5622ZM54.4548 15.7163C53.7095 15.7163 53.1262 15.516 52.705 15.1153C52.2837 14.7147 52.0731 14.1652 52.0731 13.4667C52.0731 12.8195 52.2675 12.2803 52.6564 11.8488C53.0452 11.4071 53.6771 11.0579 54.552 10.8011C55.4377 10.5443 56.615 10.3748 58.084 10.2926L58.0678 11.8951C57.1173 11.9464 56.3936 12.0286 55.8968 12.1416C55.4107 12.2443 55.0867 12.3778 54.9246 12.5422C54.7626 12.7065 54.6816 12.9017 54.6816 13.1277C54.6816 13.364 54.7518 13.5386 54.8922 13.6516C55.0326 13.7543 55.2217 13.8057 55.4593 13.8057C55.7293 13.8057 55.9778 13.7338 56.2046 13.5899C56.4422 13.4461 56.6366 13.2458 56.7879 12.989C56.9391 12.722 57.0093 12.4087 56.9985 12.0491H57.6628C57.6628 12.8504 57.5277 13.5232 57.2577 14.0676C56.9877 14.612 56.6096 15.0229 56.1236 15.3002C55.6483 15.5776 55.092 15.7163 54.4548 15.7163Z" fill="white"/>
<path d="M63.3612 15.5622H62.0488V4.77653H63.3612V15.5622Z" fill="white"/>
<path d="M67.4584 15.3156L66.1784 15.5622V3.85205H67.4584V15.3156ZM69.111 15.6854C68.7329 15.6854 68.3603 15.6495 67.993 15.5776C67.6258 15.5057 67.2585 15.3927 66.8913 15.2386L67.426 14.3141C67.696 14.4374 67.9768 14.5247 68.2685 14.5761C68.5601 14.6274 68.8301 14.6531 69.0786 14.6531C69.9103 14.6531 70.5853 14.386 71.1038 13.8519C71.6223 13.3177 71.8815 12.5165 71.8815 11.4482C71.8815 10.5443 71.6871 9.86119 71.2982 9.39895C70.9202 8.93671 70.4071 8.70559 69.759 8.70559C69.2622 8.70559 68.8193 8.85453 68.4305 9.15242C68.0416 9.44004 67.7176 9.89201 67.4584 10.5083L67.0209 10.0923C67.2909 9.31164 67.6906 8.70559 68.2199 8.27416C68.7599 7.83247 69.4134 7.61162 70.1803 7.61162C71.0876 7.61162 71.8221 7.93005 72.3838 8.56692C72.9454 9.20378 73.2263 10.1591 73.2263 11.4328C73.2263 12.3368 73.048 13.1072 72.6916 13.744C72.346 14.3809 71.8653 14.8637 71.2496 15.1924C70.6447 15.5211 69.9319 15.6854 69.111 15.6854Z" fill="white"/>
<path d="M75.3395 15.5622V7.7657H76.6194V15.5622H75.3395ZM75.9876 6.27112C75.7175 6.27112 75.5015 6.19921 75.3395 6.0554C75.1775 5.90132 75.0964 5.70102 75.0964 5.45449C75.0964 5.19769 75.1775 4.99738 75.3395 4.85357C75.5015 4.70977 75.7175 4.63786 75.9876 4.63786C76.2468 4.63786 76.4574 4.70977 76.6194 4.85357C76.7814 4.99738 76.8625 5.19769 76.8625 5.45449C76.8625 5.70102 76.7814 5.90132 76.6194 6.0554C76.4574 6.19921 76.2468 6.27112 75.9876 6.27112Z" fill="white"/>
<path d="M85.0919 15.5622H84.0388L83.8444 13.6516V10.724C83.8444 10.005 83.6229 9.4914 83.1801 9.18324C82.748 8.86481 82.0892 8.70559 81.2034 8.70559C80.901 8.70559 80.6094 8.71586 80.3285 8.73641C80.0585 8.74668 79.7399 8.77236 79.3726 8.81345L79.4698 7.7657C79.7939 7.72461 80.1179 7.69893 80.442 7.68866C80.766 7.66811 81.0954 7.65784 81.4303 7.65784C82.2404 7.65784 82.9208 7.76056 83.4717 7.966C84.0226 8.17144 84.4276 8.50015 84.6869 8.95212C84.9569 9.39382 85.0919 9.96905 85.0919 10.6778V15.5622ZM81.09 15.7008C80.3555 15.7008 79.7777 15.5314 79.3564 15.1924C78.946 14.8534 78.7407 14.3655 78.7407 13.7286C78.7407 13.1739 78.9136 12.7065 79.2592 12.3265C79.6049 11.9361 80.1881 11.6177 81.009 11.3712C81.8299 11.1247 82.9425 10.95 84.3466 10.8473V11.6331C83.2017 11.7358 82.3106 11.8745 81.6733 12.0491C81.0468 12.2238 80.6094 12.4343 80.3609 12.6809C80.1233 12.9274 80.0045 13.2202 80.0045 13.5591C80.0045 13.9906 80.1341 14.2987 80.3933 14.4836C80.6634 14.6685 81.0144 14.761 81.4465 14.761C81.8677 14.761 82.2566 14.6582 82.613 14.4528C82.9803 14.2474 83.2773 13.9341 83.5041 13.5129C83.7309 13.0918 83.8444 12.5422 83.8444 11.8642L84.379 11.8488C84.379 12.6911 84.2332 13.3999 83.9416 13.9751C83.6499 14.5504 83.2557 14.9818 82.7588 15.2694C82.262 15.557 81.7057 15.7008 81.09 15.7008Z" fill="white"/>
<path d="M89.1981 19.2601H87.9181V7.7657H88.9713L89.1981 9.83038V19.2601ZM90.8507 15.6854C90.4726 15.6854 90.1 15.6444 89.7328 15.5622C89.3655 15.4903 88.9983 15.3824 88.631 15.2386L89.1657 14.3141C89.4357 14.4374 89.7166 14.5247 90.0082 14.5761C90.2998 14.6274 90.5699 14.6531 90.8183 14.6531C91.65 14.6531 92.3251 14.386 92.8435 13.8519C93.362 13.3075 93.6212 12.5062 93.6212 11.4482C93.6212 10.5443 93.4268 9.86119 93.038 9.39895C92.6599 8.92644 92.1469 8.69018 91.4988 8.69018C91.0019 8.69018 90.5591 8.83913 90.1702 9.13702C89.7814 9.4349 89.4573 9.88687 89.1981 10.4929L88.7606 10.0923C89.0307 9.31164 89.4303 8.70559 89.9596 8.27416C90.4996 7.83247 91.1531 7.61162 91.92 7.61162C92.8273 7.61162 93.5618 7.93005 94.1235 8.56692C94.6852 9.20378 94.966 10.1539 94.966 11.4174C94.966 12.3316 94.7878 13.1072 94.4313 13.744C94.0857 14.3809 93.605 14.8637 92.9894 15.1924C92.3845 15.5211 91.6716 15.6854 90.8507 15.6854Z" fill="white"/>
<path d="M102.734 15.5622H101.681L101.486 13.6516V10.724C101.486 10.005 101.265 9.4914 100.822 9.18324C100.39 8.86481 99.7309 8.70559 98.8452 8.70559C98.5428 8.70559 98.2511 8.71586 97.9703 8.73641C97.7003 8.74668 97.3816 8.77236 97.0144 8.81345L97.1116 7.7657C97.4356 7.72461 97.7597 7.69893 98.0837 7.68866C98.4078 7.66811 98.7372 7.65784 99.072 7.65784C99.8821 7.65784 100.563 7.76056 101.113 7.966C101.664 8.17144 102.069 8.50015 102.329 8.95212C102.599 9.39382 102.734 9.96905 102.734 10.6778V15.5622ZM98.7318 15.7008C97.9973 15.7008 97.4194 15.5314 96.9982 15.1924C96.5877 14.8534 96.3825 14.3655 96.3825 13.7286C96.3825 13.1739 96.5553 12.7065 96.901 12.3265C97.2466 11.9361 97.8299 11.6177 98.6508 11.3712C99.4717 11.1247 100.584 10.95 101.988 10.8473V11.6331C100.843 11.7358 99.9524 11.8745 99.3151 12.0491C98.6886 12.2238 98.2512 12.4343 98.0027 12.6809C97.7651 12.9274 97.6463 13.2202 97.6463 13.5591C97.6463 13.9906 97.7759 14.2987 98.0351 14.4836C98.3052 14.6685 98.6562 14.761 99.0882 14.761C99.5095 14.761 99.8984 14.6582 100.255 14.4528C100.622 14.2474 100.919 13.9341 101.146 13.5129C101.373 13.0918 101.486 12.5422 101.486 11.8642L102.021 11.8488C102.021 12.6911 101.875 13.3999 101.583 13.9751C101.292 14.5504 100.897 14.9818 100.401 15.2694C99.9037 15.557 99.3475 15.7008 98.7318 15.7008Z" fill="white"/>
<path d="M106.84 15.3156L105.56 15.5622V3.85205H106.84V15.3156ZM108.492 15.6854C108.114 15.6854 107.742 15.6495 107.375 15.5776C107.007 15.5057 106.64 15.3927 106.273 15.2386L106.807 14.3141C107.078 14.4374 107.358 14.5247 107.65 14.5761C107.942 14.6274 108.212 14.6531 108.46 14.6531C109.292 14.6531 109.967 14.386 110.485 13.8519C111.004 13.3177 111.263 12.5165 111.263 11.4482C111.263 10.5443 111.069 9.86119 110.68 9.39895C110.302 8.93671 109.789 8.70559 109.141 8.70559C108.644 8.70559 108.201 8.85453 107.812 9.15242C107.423 9.44004 107.099 9.89201 106.84 10.5083L106.402 10.0923C106.672 9.31164 107.072 8.70559 107.601 8.27416C108.141 7.83247 108.795 7.61162 109.562 7.61162C110.469 7.61162 111.204 7.93005 111.765 8.56692C112.327 9.20378 112.608 10.1591 112.608 11.4328C112.608 12.3368 112.43 13.1072 112.073 13.744C111.727 14.3809 111.247 14.8637 110.631 15.1924C110.026 15.5211 109.313 15.6854 108.492 15.6854Z" fill="white"/>
<path d="M120.375 15.5622H119.322L119.128 13.6516V10.724C119.128 10.005 118.906 9.4914 118.464 9.18324C118.032 8.86481 117.373 8.70559 116.487 8.70559C116.185 8.70559 115.893 8.71586 115.612 8.73641C115.342 8.74668 115.023 8.77236 114.656 8.81345L114.753 7.7657C115.077 7.72461 115.401 7.69893 115.726 7.68866C116.05 7.66811 116.379 7.65784 116.714 7.65784C117.524 7.65784 118.204 7.76056 118.755 7.966C119.306 8.17144 119.711 8.50015 119.97 8.95212C120.24 9.39382 120.375 9.96905 120.375 10.6778V15.5622ZM116.374 15.7008C115.639 15.7008 115.061 15.5314 114.64 15.1924C114.23 14.8534 114.024 14.3655 114.024 13.7286C114.024 13.1739 114.197 12.7065 114.543 12.3265C114.888 11.9361 115.472 11.6177 116.293 11.3712C117.113 11.1247 118.226 10.95 119.63 10.8473V11.6331C118.485 11.7358 117.594 11.8745 116.957 12.0491C116.33 12.2238 115.893 12.4343 115.644 12.6809C115.407 12.9274 115.288 13.2202 115.288 13.5591C115.288 13.9906 115.418 14.2987 115.677 14.4836C115.947 14.6685 116.298 14.761 116.73 14.761C117.151 14.761 117.54 14.6582 117.897 14.4528C118.264 14.2474 118.561 13.9341 118.788 13.5129C119.014 13.0918 119.128 12.5422 119.128 11.8642L119.663 11.8488C119.663 12.6911 119.517 13.3999 119.225 13.9751C118.933 14.5504 118.539 14.9818 118.042 15.2694C117.546 15.557 116.989 15.7008 116.374 15.7008Z" fill="white"/>
</svg>
