<svg width="91" height="17" viewBox="0 0 91 17" fill="none" xmlns="http://www.w3.org/2000/svg">
<path fill-rule="evenodd" clip-rule="evenodd" d="M4.28154 14.9531C2.25875 14.6686 0.707557 13.3327 0.238522 11.3907C-0.231747 9.44392 -0.0522245 7.57587 1.18804 5.90751C3.12366 3.30394 7.22452 3.8215 8.57641 5.45922C9.52059 6.60303 9.75528 8.35712 9.00994 9.63926C8.48068 10.5496 7.61189 10.9473 6.61411 11.0715C6.14137 11.1303 5.66221 11.14 5.18328 11.1497C4.98793 11.1536 4.79257 11.1576 4.59774 11.1648C4.46445 11.1698 4.3309 11.1685 4.19733 11.1672C4.13604 11.1666 4.07475 11.166 4.01352 11.166C4.02177 11.881 4.29487 12.1858 4.98744 12.2511C5.98745 12.3452 6.94307 12.1552 7.86491 11.7748C7.94221 11.7429 8.01981 11.7117 8.10525 11.6774L8.2383 11.6238C8.60417 12.1509 8.87647 12.7064 8.93637 13.3423C8.9778 13.7828 8.81156 14.1126 8.37967 14.3172C7.08726 14.9294 5.72833 15.0933 4.28154 14.9531ZM4.40684 7.42958C3.92653 7.72891 3.95084 8.16521 3.97655 8.62494C3.98124 8.70885 3.98594 8.79351 3.98764 8.87828C4.12369 8.87828 4.25747 8.88054 4.38945 8.88277C4.68829 8.8878 4.97829 8.89271 5.26625 8.87091C5.27884 8.86998 5.29129 8.86875 5.3034 8.86727C5.63403 8.82717 5.80257 8.59547 5.83018 8.25398C5.89443 7.46023 5.33025 7.10503 4.43749 7.41505L4.4234 7.42383L4.40684 7.42958Z" fill="white" fill-opacity="0.5"/>
<path fill-rule="evenodd" clip-rule="evenodd" d="M20.1155 11.2169L20.1154 8.65515L20.0989 0.508358C20.0989 0.488958 20.0991 0.46927 20.0994 0.449541C20.102 0.25562 20.1047 0.0564971 19.8207 0.0498257C18.7853 0.0255476 17.7496 0.00357457 16.714 4.42564e-06C16.4088 -0.00103618 16.2997 0.181479 16.3057 0.498034C16.3211 1.31725 16.3179 2.13684 16.3148 2.95638V2.96721C16.3138 3.21645 16.3128 3.46566 16.3124 3.71484C16.3123 3.73911 16.3119 3.76341 16.3112 3.78775C16.3105 3.8103 16.3095 3.83296 16.3084 3.85575C16.3058 3.90805 16.3022 3.96115 16.2984 4.01599L16.2974 4.02922C16.2956 4.0563 16.2938 4.08379 16.2921 4.11179L16.2885 4.17222C16.2081 4.16543 16.1329 4.15971 16.0612 4.15426L16.0602 4.15419L15.9531 4.14596L15.8936 4.1412C15.8129 4.13451 15.7354 4.12728 15.6581 4.11813C13.6503 3.87998 11.7954 4.88463 11.0257 6.72869C10.2517 8.58269 10.2698 10.4862 11.0194 12.3426C11.8065 14.2917 13.5676 15.237 15.6519 14.9192C16.4492 14.7976 17.1348 14.4354 17.7343 13.9141C18.3272 14.5419 18.6169 14.7413 19.1386 14.8866C20.0816 15.1492 20.7924 14.9568 21.192 14.2931C21.6382 13.5518 21.7298 12.7471 21.5044 11.918C21.3467 11.3383 21.1884 11.2408 20.5733 11.2364C20.4823 11.2357 20.3914 11.2309 20.2865 11.2254L20.2135 11.2216L20.1155 11.2169ZM14.6832 8.02671C14.9957 7.39361 15.6663 7.25674 16.3115 7.68834L16.3119 7.71943L16.318 7.72371C16.3254 8.77467 16.3272 9.79026 16.3273 10.8058C16.3274 11.4077 15.6776 11.7981 15.1642 11.4607C14.9144 11.2965 14.6813 11.0104 14.5859 10.7308C14.569 10.6815 14.5533 10.632 14.5385 10.5824C14.5279 10.5468 14.5178 10.5111 14.5084 10.4754L14.4929 10.4153C14.309 9.67646 14.3564 8.92185 14.6143 8.19082C14.6229 8.16672 14.6318 8.14318 14.6412 8.12021C14.6544 8.08793 14.6684 8.05677 14.6832 8.02671Z" fill="white" fill-opacity="0.5"/>
<path d="M26.3837 14.9794L26.3815 14.9793C26.1025 14.9656 25.8365 14.9525 25.5763 14.9067C23.8221 14.598 22.899 13.5905 22.7175 11.7905C22.666 11.2793 22.6402 10.7637 22.6373 10.2499C22.6358 9.99804 22.6348 9.74622 22.6341 9.49436L22.6323 8.64559C22.632 8.34616 22.6319 8.04677 22.6318 7.74733C22.6315 6.7444 22.6312 5.74146 22.6231 4.73859C22.6207 4.44595 22.7002 4.27313 23.0008 4.27066C23.9826 4.26257 24.9645 4.26158 25.9462 4.26857C26.2451 4.27069 26.331 4.44279 26.3295 4.73633C26.3198 6.55101 26.325 8.3658 26.3303 10.1806V10.2101L26.331 10.4564C26.3344 11.6008 26.8687 11.8969 27.8847 11.3406C28.1175 11.2132 28.1774 11.0542 28.1758 10.8058C28.1708 10.0064 28.1696 9.20696 28.1685 8.40752C28.1667 7.21671 28.165 6.02591 28.1506 4.83528C28.1458 4.44677 28.2572 4.26247 28.6508 4.26295C28.8663 4.26322 29.0818 4.26315 29.2973 4.26295L29.6555 4.26254C30.2191 4.26185 30.7827 4.26117 31.3462 4.26439C31.6811 4.26627 31.821 4.40951 31.8177 4.77886C31.8044 6.26683 31.8079 7.75491 31.8116 9.24305C31.8123 9.54224 31.8131 9.84147 31.8135 10.1407L31.8145 10.7912C31.8147 10.942 31.8145 11.0928 31.8145 11.242C31.8837 11.2654 31.9205 11.2873 31.9584 11.2893C32.848 11.3355 33.0668 11.5599 33.0913 12.4604C33.111 13.1854 32.9803 13.872 32.551 14.479C32.2765 14.8671 31.9008 15.023 31.4234 14.9855C30.6123 14.9218 29.9785 14.5695 29.5197 13.8511C28.7196 14.52 27.8346 14.9607 26.7468 14.9999C26.623 14.9912 26.5022 14.9853 26.3837 14.9794Z" fill="white" fill-opacity="0.5"/>
<path d="M42.3714 6.07449C42.498 5.56348 42.3056 5.11419 41.827 4.78426C41.2276 4.35142 40.5646 4.18697 39.8731 4.11869C38.3787 3.9711 37.0019 4.21953 35.8244 5.23861C33.7123 7.06691 33.7276 10.8489 34.8295 12.6973C36.5163 15.527 39.8108 15.2996 41.7654 14.3797C41.8952 14.3187 42.042 14.0905 42.0249 13.96C41.9212 13.1651 41.7873 12.3731 41.6308 11.5865C41.5734 11.2985 41.3977 11.2453 41.0652 11.3356C40.4944 11.4904 39.8915 11.5664 39.2984 11.5915C38.8507 11.6104 38.4831 11.3384 38.3015 10.9303C37.8788 9.97975 37.8802 9.00282 38.3133 8.06227C38.602 7.43492 39.2156 7.27592 39.7851 7.62632C40.0453 7.78638 40.2832 7.98745 40.5107 8.19255C41.004 8.63762 41.4266 8.63447 41.7237 8.03228C42.0256 7.42042 42.2058 6.74098 42.3714 6.07449Z" fill="white" fill-opacity="0.75"/>
<path d="M44.6973 7.90178V14.8909C46.0299 15.0084 47.3052 15.0576 48.5947 14.9007L48.595 10.5263C48.595 10.3572 48.5936 10.188 48.5922 10.0188C48.5908 9.82018 48.5891 9.62152 48.5898 9.42299C48.5908 9.19184 48.5947 8.96086 48.6058 8.73022C48.6468 7.8711 49.1373 7.56474 49.9433 7.86407C50.009 7.88844 50.0786 7.90911 50.1363 7.94654C50.3781 8.10328 50.5562 8.01417 50.6244 7.77544C50.6501 7.68488 50.6766 7.59436 50.7026 7.50384L50.768 7.28108C50.9646 6.60924 51.1615 5.93635 51.286 5.25114C51.3827 4.71915 51.0648 4.39761 50.5273 4.26589C49.5547 4.02754 48.6809 4.24591 47.9344 4.89091C47.701 5.09279 47.4965 5.32761 47.2871 5.56802C47.2318 5.63153 47.1761 5.69546 47.1194 5.75924C47.0954 5.78625 47.0714 5.81326 47.0471 5.84017C47.0286 5.86063 47.0098 5.88103 46.9911 5.90135C46.711 4.8034 45.959 4.25784 44.8469 4.1861C44.1929 4.14394 43.7185 4.41585 43.5762 5.04522C43.4353 5.67068 43.3744 6.33912 43.429 6.97606C43.492 7.7112 43.7174 7.83299 44.475 7.86699C44.5286 7.86939 44.5818 7.88327 44.6973 7.90178Z" fill="white" fill-opacity="0.75"/>
<path fill-rule="evenodd" clip-rule="evenodd" d="M59.123 14.8189C58.029 15.0174 56.9635 15.1066 55.9165 14.8008C53.9706 14.2325 52.7733 12.9441 52.4394 10.9644C52.0717 8.78677 52.3868 6.76194 54.1532 5.19655C55.992 3.56691 59.3425 3.72468 60.8925 5.49203C61.8432 6.5761 62.0262 8.39877 61.2915 9.63712C60.6908 10.6502 59.6959 10.9958 58.5963 11.1029C58.1779 11.1436 57.7556 11.145 57.3333 11.1463H57.3298C57.1482 11.1469 56.9667 11.1475 56.7854 11.1512C56.6821 11.1534 56.5788 11.1528 56.4776 11.1522H56.4769C56.431 11.152 56.3854 11.1517 56.3405 11.1517C56.2814 11.7748 56.5037 12.0973 57.0797 12.2024C58.1692 12.4011 59.1964 12.1373 60.2003 11.7434C60.2678 11.717 60.3335 11.6869 60.4083 11.6529L60.4107 11.6518L60.4737 11.6232L60.5332 11.5965C60.9005 12.1948 61.2345 12.7798 61.2202 13.4954C61.2132 13.8463 61.079 14.1283 60.7377 14.2571C60.3415 14.4066 59.9401 14.5423 59.5241 14.683C59.3919 14.7276 59.2583 14.7727 59.123 14.8189ZM56.3103 7.92303L56.2504 8.86684C56.377 8.86705 56.4981 8.86739 56.615 8.86777H56.6237C56.8783 8.86855 57.1145 8.86927 57.3507 8.86616C57.8245 8.85995 58.0554 8.70163 58.1163 8.33091C58.1247 8.27792 58.1302 8.22064 58.132 8.15885C58.1462 7.70716 57.9424 7.39964 57.5597 7.30679C57.5051 7.29356 57.447 7.28465 57.3851 7.28036C57.3409 7.27728 57.2975 7.27577 57.255 7.27598C56.8428 7.27779 56.5068 7.43854 56.3176 7.89043L56.3162 7.90863L56.3103 7.92303Z" fill="white" fill-opacity="0.75"/>
<path d="M70.1418 4.50861C71.0699 4.91611 71.1913 5.2383 70.7701 6.1089L70.7631 6.12347L70.7492 6.15298L70.7384 6.17574C70.7193 6.21656 70.6991 6.25694 70.6747 6.29447C70.6153 6.38523 70.5603 6.48093 70.5053 6.57666C70.377 6.80075 70.2479 7.02509 70.0636 7.18683C69.8458 7.37771 69.6489 7.26231 69.4468 7.14399C69.3268 7.07379 69.2054 7.00257 69.0764 6.99369C69.0315 6.99057 68.9863 6.9867 68.941 6.98221C68.9052 6.97864 68.8694 6.9747 68.8336 6.97052C68.7382 6.95931 68.6429 6.94618 68.5473 6.93309C68.3706 6.90879 68.1939 6.88452 68.0171 6.87249C67.9538 6.86817 67.8902 6.86543 67.8269 6.86481C67.6717 6.86331 67.4248 7.01199 67.3837 7.14265C67.3402 7.28174 67.4442 7.53356 67.5677 7.64139C67.7263 7.77946 67.9229 7.87581 68.1184 7.97154C68.1761 7.99995 68.2342 8.0283 68.2909 8.05764C68.4819 8.15666 68.6749 8.25243 68.868 8.34819L68.869 8.34867C69.1894 8.50774 69.5101 8.66682 69.8222 8.84073C72.1935 10.162 71.3781 13.119 69.9749 14.1321C69.2819 14.6325 68.4986 14.8669 67.6648 14.9505C66.4195 15.0754 65.1947 14.976 64.021 14.5087C62.7875 14.0176 62.4884 13.3408 62.9448 12.1006C62.958 12.0652 62.9715 12.03 62.9858 11.995C62.9976 11.9656 63.0102 11.9364 63.0227 11.9073C63.4251 10.9789 63.4488 10.9885 64.3588 11.4007C64.7679 11.5859 65.1978 11.727 65.627 11.8679C65.769 11.9144 65.9109 11.961 66.0518 12.0091C66.0935 12.0234 66.1405 12.0361 66.1878 12.0439C66.2567 12.0552 66.3266 12.0559 66.3826 12.0349C66.5304 11.9793 66.6706 11.9027 66.8108 11.8261C66.8678 11.7949 66.9249 11.7637 66.9823 11.7339C66.9461 11.6756 66.9145 11.6103 66.8825 11.5449C66.8129 11.402 66.743 11.2591 66.6282 11.1893C66.3426 11.0158 66.0417 10.8682 65.7401 10.7206C65.5258 10.6155 65.3115 10.5104 65.1025 10.396C63.6986 9.6267 62.9914 8.21527 63.2512 6.73237C63.486 5.39155 64.5167 4.44989 66.0744 4.19769C67.4404 3.97648 68.7894 4.08818 70.1418 4.50861Z" fill="white"/>
<path fill-rule="evenodd" clip-rule="evenodd" d="M79.6187 4.50134C78.3695 3.9397 77.0627 3.91468 75.7137 4.28362C75.5474 4.37863 75.3787 4.46689 75.2121 4.55419L75.2076 4.55666C74.8145 4.76242 74.4312 4.96307 74.1077 5.23381C72.869 6.2703 72.3962 7.68571 72.3329 9.24151C72.2505 11.2776 72.7729 13.0947 74.6517 14.2002C76.6971 15.4036 78.8016 15.1349 80.8511 14.1489C81.0525 14.0519 81.2091 13.6795 81.2258 13.4245C81.2713 12.7309 80.9176 12.1515 80.5579 11.5702L80.4194 11.625C80.3725 11.6436 80.328 11.6612 80.2848 11.6784C80.2493 11.6927 80.2146 11.7067 80.1801 11.7211C79.258 12.1039 78.3014 12.293 77.3006 12.2009C76.6045 12.1369 76.3318 11.8327 76.3273 11.1161C76.384 11.1161 76.4407 11.1166 76.4977 11.1172C76.6212 11.1184 76.7451 11.1197 76.8686 11.1151C77.0703 11.1074 77.2731 11.1036 77.4756 11.0998C77.9622 11.0906 78.4489 11.0814 78.9285 11.0197C79.9912 10.883 80.9235 10.455 81.3955 9.43072C82.2032 7.67769 81.7298 5.4507 79.6187 4.50134ZM76.2692 8.39055C76.2104 7.66761 76.6021 7.26642 77.3862 7.24921L77.4004 7.25264L77.422 7.25216C77.9302 7.37569 78.1518 7.62727 78.1476 8.06466C78.1473 8.12715 78.142 8.19344 78.1323 8.26367C78.1254 8.3146 78.1156 8.36173 78.1031 8.40519C78.0144 8.70945 77.7789 8.8349 77.3075 8.84042L77.2658 8.84087C77.1493 8.84203 77.0324 8.84234 76.9162 8.84227C76.8254 8.84224 76.7346 8.84196 76.6442 8.84172C76.5464 8.84142 76.4494 8.84111 76.353 8.84111C76.3356 8.77825 76.321 8.71713 76.3085 8.65773C76.2894 8.56433 76.2762 8.47522 76.2692 8.39055Z" fill="white"/>
<path d="M86.3819 5.98588L86.3843 5.99322L86.4424 5.91216L86.4821 5.85615L86.4828 5.8553C86.5443 5.76906 86.5993 5.69163 86.657 5.61609C87.4432 4.58658 88.4321 4.0161 89.7825 4.262C90.3714 4.36918 90.7119 4.68074 90.6806 5.23268C90.6278 6.16703 90.4253 7.07568 89.9505 7.9034C89.9418 7.91827 89.9321 7.93246 89.9216 7.94634C89.9042 7.96914 89.8844 7.99118 89.8635 8.01424C89.8472 8.03238 89.8301 8.05113 89.8134 8.07135C89.7327 8.04358 89.6531 8.01459 89.5745 7.9858L89.5724 7.98511L89.5689 7.98384C89.4652 7.94597 89.3626 7.90854 89.2597 7.87485C89.1915 7.85257 89.123 7.8319 89.0537 7.81384C88.5351 7.67841 88.1556 7.89719 88.0432 8.41263C87.9848 8.6819 87.9691 8.96464 87.9684 9.24131C87.9667 10.5223 87.9702 11.8033 87.9737 13.0843L87.9768 14.4182C87.9771 14.5815 87.9768 14.7447 87.9768 14.9875C87.6554 14.9875 87.3388 14.9907 87.0261 14.9938C86.3186 15.0009 85.6302 15.0078 84.9432 14.9774C84.0683 14.9387 84.0683 14.9007 84.0676 14.0498L84.0624 7.95584C84.0488 7.9508 84.0363 7.94576 84.0252 7.94096L84.0029 7.93147L84.0012 7.93068C83.99 7.92585 83.98 7.9215 83.9702 7.91783C83.9535 7.91145 83.9389 7.90713 83.9239 7.90628C83.0637 7.85593 82.8633 7.72009 82.7868 6.86149C82.7388 6.31812 82.7785 5.74414 82.9051 5.21355C83.1197 4.31529 83.8269 4.00904 84.8249 4.30069C85.4465 4.48246 85.9217 4.84838 86.2229 5.46222C86.2789 5.63415 86.3217 5.77931 86.3819 5.98588Z" fill="white"/>
</svg>
