<svg width="91" height="21" viewBox="0 0 91 21" fill="none" xmlns="http://www.w3.org/2000/svg">
<path d="M24.2852 3.90755C24.2845 3.77583 24.3104 3.6453 24.3613 3.52349C24.4122 3.40168 24.4871 3.29101 24.5817 3.19787C24.6763 3.10474 24.7888 3.03098 24.9125 2.98087C25.0362 2.93076 25.1688 2.90529 25.3026 2.90593C25.4353 2.90577 25.5668 2.93172 25.6892 2.98224C25.8116 3.03276 25.9225 3.10684 26.0155 3.20014C26.1084 3.29344 26.1815 3.40407 26.2305 3.52555C26.2794 3.64702 26.3032 3.77689 26.3004 3.90755C26.3033 4.03828 26.2796 4.16825 26.2307 4.28984C26.1819 4.41143 26.1088 4.52218 26.0158 4.61558C25.9229 4.70898 25.8119 4.78315 25.6894 4.83373C25.5669 4.88431 25.4354 4.91029 25.3026 4.91013C25.1687 4.91077 25.036 4.88526 24.9123 4.83509C24.7885 4.78492 24.676 4.71108 24.5814 4.61784C24.4868 4.5246 24.4119 4.41382 24.361 4.2919C24.3102 4.16998 24.2844 4.03934 24.2852 3.90755ZM24.4554 7.31786C24.4554 7.15028 24.5307 7.05783 24.7009 7.05783H25.8876C25.9232 7.0538 25.9593 7.05777 25.9932 7.06943C26.0271 7.08109 26.0578 7.10014 26.0831 7.12516C26.1084 7.15017 26.1277 7.1805 26.1394 7.21387C26.1511 7.24724 26.155 7.2828 26.1508 7.31786V15.8894C26.155 15.9245 26.1511 15.96 26.1394 15.9934C26.1277 16.0268 26.1084 16.0571 26.0831 16.0821C26.0578 16.1071 26.0271 16.1262 25.9932 16.1378C25.9593 16.1495 25.9232 16.1535 25.8876 16.1494H24.7C24.5298 16.1494 24.4544 16.0531 24.4544 15.8894L24.4554 7.31786Z" fill="white"/>
<path d="M30.2351 14.5353L30.197 15.8894C30.197 16.057 30.1216 16.1494 29.9524 16.1494H28.8577C28.822 16.1534 28.7859 16.1494 28.752 16.1378C28.7181 16.1261 28.6873 16.1071 28.6619 16.0821C28.6366 16.0571 28.6172 16.0268 28.6054 15.9934C28.5935 15.9601 28.5895 15.9245 28.5936 15.8894V3.14766C28.5895 3.11254 28.5935 3.07698 28.6054 3.04361C28.6172 3.01025 28.6366 2.97994 28.6619 2.95495C28.6873 2.92996 28.7181 2.91093 28.752 2.89927C28.7859 2.88761 28.822 2.88363 28.8577 2.88763H30.0444C30.08 2.88363 30.1161 2.88761 30.15 2.89927C30.1839 2.91093 30.2147 2.92996 30.2401 2.95495C30.2655 2.97994 30.2848 3.01025 30.2967 3.04361C30.3085 3.07698 30.3125 3.11254 30.3085 3.14766V8.59974C30.9698 7.51048 32.1183 6.83631 33.6444 6.83631C36.3015 6.83631 38.1446 8.89444 38.1446 11.6027C38.1446 14.3292 36.2985 16.369 33.6444 16.369C32.0626 16.3709 30.9121 15.666 30.2351 14.5353ZM33.3431 14.83C35.1706 14.83 36.4893 13.5317 36.4893 11.6027C36.4883 9.69381 35.1706 8.37726 33.3431 8.37726C31.5343 8.37726 30.2723 9.69381 30.2723 11.6229C30.2723 13.552 31.5343 14.83 33.3431 14.83Z" fill="white"/>
<path d="M39.9339 3.90754C39.9333 3.77586 39.9593 3.64539 40.0102 3.52364C40.0612 3.40189 40.1361 3.29127 40.2307 3.19816C40.3253 3.10504 40.4376 3.03129 40.5613 2.98113C40.685 2.93097 40.8175 2.90541 40.9513 2.90592C41.0841 2.90564 41.2156 2.93149 41.3382 2.98195C41.4607 3.03242 41.5718 3.10648 41.6648 3.19979C41.7579 3.2931 41.831 3.40378 41.88 3.52532C41.929 3.64686 41.9528 3.77681 41.9501 3.90754C41.953 4.03835 41.9292 4.16841 41.8803 4.29006C41.8314 4.41172 41.7582 4.52251 41.6652 4.61592C41.5721 4.70933 41.461 4.78348 41.3384 4.83401C41.2158 4.88453 41.0842 4.91041 40.9513 4.91012C40.8174 4.91063 40.6848 4.88504 40.5611 4.83483C40.4373 4.78461 40.3249 4.71076 40.2303 4.61755C40.1358 4.52434 40.0609 4.41361 40.01 4.29174C39.9591 4.16988 39.9332 4.0393 39.9339 3.90754ZM40.108 7.31786C40.108 7.15028 40.1833 7.05782 40.3526 7.05782H41.5392C41.5749 7.05383 41.611 7.05781 41.6449 7.06947C41.6788 7.08112 41.7096 7.10016 41.735 7.12515C41.7604 7.15014 41.7797 7.18044 41.7915 7.21381C41.8034 7.24718 41.8074 7.28274 41.8034 7.31786V15.8894C41.8074 15.9245 41.8034 15.9601 41.7915 15.9934C41.7797 16.0268 41.7604 16.0571 41.735 16.0821C41.7096 16.1071 41.6788 16.1261 41.6449 16.1378C41.611 16.1494 41.5749 16.1534 41.5392 16.1494H40.3486C40.1794 16.1494 40.1041 16.0531 40.1041 15.8894L40.108 7.31786Z" fill="white"/>
<path d="M44.2451 15.8894V7.31786C44.2411 7.28274 44.2451 7.24718 44.257 7.21381C44.2688 7.18044 44.2881 7.15014 44.3135 7.12515C44.3389 7.10016 44.3697 7.08112 44.4036 7.06947C44.4375 7.05781 44.4736 7.05383 44.5093 7.05782H45.6206C45.8084 7.05782 45.8838 7.13198 45.8838 7.33616L45.9405 8.48609C46.4668 7.56152 47.4451 6.83631 48.936 6.83631C50.9141 6.83631 52.2896 8.15286 52.2896 10.5452V15.8894C52.2936 15.9245 52.2896 15.9601 52.2778 15.9934C52.2659 16.0268 52.2466 16.0571 52.2212 16.0821C52.1958 16.1071 52.165 16.1261 52.1311 16.1378C52.0972 16.1494 52.0611 16.1534 52.0254 16.1494H50.8388C50.6695 16.1494 50.5942 16.0531 50.5942 15.8894V10.8071C50.5942 9.28642 49.8028 8.37726 48.3901 8.37726C46.9775 8.37726 45.9444 9.28642 45.9444 10.8071V15.8894C45.9444 16.057 45.8691 16.1494 45.6999 16.1494H44.5103C44.4745 16.1536 44.4383 16.1497 44.4043 16.1381C44.3702 16.1265 44.3393 16.1075 44.3138 16.0825C44.2883 16.0575 44.2689 16.0271 44.257 15.9937C44.2451 15.9603 44.2411 15.9246 44.2451 15.8894Z" fill="white"/>
<path d="M54.2462 11.567C54.2462 8.89637 56.1519 6.83631 58.9175 6.83631C61.6684 6.83631 63.2699 8.89444 63.2699 11.1385C63.2699 11.881 63.1192 12.2142 62.497 12.2142H55.9034C56.1108 13.8515 57.2974 14.9966 59.3274 14.9966C60.2267 15.0148 61.1072 14.741 61.8328 14.2175C61.9462 14.1433 62.0587 14.1433 62.135 14.2358L62.5489 14.8136C62.6809 14.9619 62.6242 15.0737 62.4735 15.2037C61.6684 15.9857 60.4817 16.3709 59.1845 16.3709C56.1675 16.3709 54.2462 14.2377 54.2462 11.567ZM61.7623 10.9776C61.6645 9.34613 60.5757 8.27036 58.9175 8.27036C57.2593 8.27036 56.0922 9.28642 55.9034 10.9776H61.7623Z" fill="white"/>
<path d="M64.301 15.8326L67.1644 11.5121L64.432 7.37563C64.3195 7.19072 64.3763 7.0607 64.6023 7.0607H65.9014C65.9675 7.0567 66.0333 7.07214 66.0905 7.10507C66.1476 7.138 66.1935 7.18692 66.2223 7.24562L68.1789 10.3275L70.1354 7.24562C70.1643 7.18692 70.2101 7.138 70.2673 7.10507C70.3244 7.07214 70.3902 7.0567 70.4563 7.0607H71.7751C71.9824 7.0607 72.0382 7.19072 71.9257 7.37563L69.1934 11.5169L72.0578 15.8374C72.1889 16.0233 72.1135 16.1533 71.8875 16.1533H70.5923C70.5262 16.1574 70.4604 16.1419 70.4033 16.1087C70.3463 16.0756 70.3007 16.0264 70.2724 15.9674L68.1847 12.6804L66.0932 15.9626C66.0649 16.0215 66.0193 16.0708 65.9622 16.1039C65.9052 16.1371 65.8394 16.1526 65.7733 16.1485H64.4673C64.2628 16.1485 64.1875 16.0184 64.301 15.8326Z" fill="white"/>
<path d="M73.1055 11.6046C73.1055 8.89637 75.1589 6.83631 77.8698 6.83631C80.5806 6.83631 82.6174 8.89444 82.6174 11.6027C82.6174 14.3109 80.5845 16.3709 77.8698 16.3709C75.155 16.3709 73.1055 14.3118 73.1055 11.6046ZM77.8698 14.8127C79.6405 14.8127 80.9778 13.5144 80.9778 11.6046C80.9778 9.69477 79.6424 8.37726 77.8698 8.37726C76.0805 8.37726 74.7618 9.69381 74.7618 11.6046C74.7618 13.5154 76.0824 14.8127 77.8698 14.8127Z" fill="white"/>
<path d="M84.1787 14.961C84.0467 14.8127 84.0653 14.6643 84.1787 14.4794L84.5554 13.9603C84.6874 13.7927 84.8567 13.7927 85.0073 13.9411C85.6295 14.5353 86.3075 14.9244 87.23 14.9244C88.1907 14.9244 88.85 14.516 88.85 13.682C88.85 12.9394 88.3609 12.6062 87.5313 12.272L86.42 11.8088C85.2901 11.3446 84.3656 10.6405 84.3656 9.36058C84.3656 7.784 85.7225 6.83824 87.3004 6.83824C87.8378 6.831 88.3698 6.94411 88.8562 7.16902C89.3426 7.39393 89.7707 7.72476 90.1081 8.13649C90.1538 8.19168 90.1771 8.26152 90.1737 8.33261C90.1702 8.4037 90.1403 8.47104 90.0895 8.52173L89.6366 9.04084C89.4859 9.22671 89.3539 9.20841 89.1846 9.04084C88.5976 8.46298 88.0165 8.2068 87.3758 8.2068C86.6039 8.2068 85.9817 8.59203 85.9817 9.31917C85.9817 10.08 86.5472 10.3786 87.3758 10.6916L88.3932 11.0999C89.5808 11.5815 90.5454 12.3057 90.5219 13.7147C90.5219 15.4396 89.0154 16.3671 87.3004 16.3671C85.7988 16.3709 84.7628 15.666 84.1787 14.961Z" fill="white"/>
<path d="M18.8469 18.5552C18.4573 18.9387 17.9475 19.1813 17.4003 19.244C16.853 19.3066 16.3004 19.1855 15.8318 18.9003C15.3632 18.6151 15.0061 18.1824 14.8184 17.6725C14.6308 17.1626 14.6235 16.6052 14.7978 16.0907C14.8335 15.9884 14.8393 15.8783 14.8146 15.7729C14.7898 15.6675 14.7355 15.571 14.6579 15.4945L14.1502 14.9956C14.069 14.9157 13.9657 14.8609 13.8532 14.8381C13.7407 14.8154 13.6239 14.8256 13.5172 14.8675C13.047 15.0447 12.5365 15.0916 12.0412 15.0032C11.5458 14.9147 11.0846 14.6942 10.7076 14.3658C10.6221 14.2908 10.5163 14.2418 10.4031 14.2247C10.2899 14.2076 10.1741 14.2232 10.0697 14.2695L5.23211 16.4306C5.13251 16.4763 5.04775 16.5483 4.98729 16.6386C4.92683 16.7289 4.89305 16.8339 4.88971 16.942C4.8691 17.4842 4.6631 18.0036 4.30512 18.4161C3.94714 18.8285 3.45815 19.1099 2.91742 19.2145C2.37668 19.3191 1.81591 19.2409 1.32598 18.9925C0.836048 18.7442 0.445688 18.3402 0.218171 17.846C-0.00934655 17.3519 -0.0606845 16.7966 0.0724783 16.2702C0.205641 15.7437 0.515499 15.277 0.951827 14.9456C1.38815 14.6142 1.92538 14.4376 2.47641 14.4444C3.02744 14.4512 3.55999 14.6411 3.98774 14.9831C4.0744 15.0508 4.17846 15.0935 4.28831 15.1064C4.39816 15.1193 4.50949 15.102 4.60992 15.0563L9.43874 12.8961C9.54286 12.8494 9.63083 12.7737 9.69184 12.6784C9.75285 12.5831 9.78423 12.4723 9.78212 12.3596V12.3375C9.78166 11.9359 9.87213 11.5393 10.0469 11.1764C10.2218 10.8136 10.4765 10.4936 10.7927 10.2399C10.8813 10.169 10.9471 10.0742 10.9818 9.96715C11.0166 9.86006 11.0188 9.74532 10.9883 9.63698L9.7557 5.18749C9.72766 5.08391 9.6709 4.99004 9.59178 4.9164C9.51265 4.84275 9.41427 4.79223 9.30765 4.77047C8.76617 4.66594 8.27651 4.38422 7.91823 3.97108C7.55995 3.55794 7.35411 3.03767 7.33416 2.4948C7.3142 1.95194 7.48131 1.41838 7.80832 0.98083C8.13533 0.543279 8.60302 0.227451 9.13541 0.0846651C9.6678 -0.0581211 10.2336 -0.0194741 10.7408 0.194326C11.2481 0.408127 11.667 0.784516 11.9295 1.26233C12.192 1.74015 12.2827 2.29131 12.1867 2.82627C12.0908 3.36122 11.814 3.84852 11.4012 4.20899C11.3207 4.28 11.2621 4.37175 11.2318 4.47386C11.2016 4.57598 11.2009 4.68439 11.23 4.78685L12.4646 9.23441C12.4936 9.34341 12.5543 9.44169 12.6393 9.51715C12.7243 9.59261 12.8298 9.64197 12.943 9.65914C13.3498 9.71976 13.7376 9.86938 14.0779 10.097C14.4183 10.3246 14.7024 10.6244 14.9096 10.9744C15.1167 11.3244 15.2415 11.7156 15.2748 12.1194C15.3081 12.5231 15.2491 12.929 15.102 13.3073C15.0598 13.4125 15.0496 13.5275 15.0725 13.6382C15.0954 13.749 15.1505 13.8509 15.2312 13.9314L15.7389 14.4303C15.8165 14.5066 15.9143 14.5599 16.0212 14.5842C16.128 14.6086 16.2397 14.603 16.3435 14.568C16.8663 14.396 17.4328 14.4029 17.9511 14.5877C18.4694 14.7724 18.9092 15.1241 19.199 15.5857C19.4888 16.0473 19.6117 16.5918 19.5478 17.1308C19.4839 17.6698 19.2369 18.1717 18.8469 18.5552Z" fill="white" fill-opacity="0.75"/>
</svg>
