<svg width="59" height="33" viewBox="0 0 59 33" fill="none" xmlns="http://www.w3.org/2000/svg">
<path d="M23.3029 5.72066C23.2934 5.60008 23.2591 5.48716 23.2001 5.37998C23.143 5.27662 23.0744 5.20007 22.9944 5.15604C22.9087 5.11202 22.8249 5.10245 22.7259 5.13308C22.6325 5.1637 22.543 5.25366 22.463 5.3972C22.4326 5.46036 22.4002 5.56754 22.3735 5.71109C22.3468 5.85463 22.3297 6.02114 22.3164 6.20488C22.3069 6.39245 22.303 6.58575 22.303 6.79246C22.303 6.99916 22.3069 7.19247 22.3164 7.38004C22.3297 7.56377 22.3468 7.73029 22.3735 7.87383C22.4002 8.01738 22.4306 8.12456 22.463 8.18772C22.543 8.33126 22.6325 8.42122 22.7259 8.45184C22.8249 8.48246 22.9087 8.47481 22.9944 8.42887C23.0744 8.38485 23.1411 8.30829 23.2001 8.20494C23.2572 8.09776 23.2934 7.98484 23.3029 7.86426V7.84704C23.3029 7.84704 23.3068 7.83747 23.3125 7.82981C23.3125 7.78962 23.3258 7.76282 23.3487 7.73986C23.3715 7.72263 23.3982 7.70923 23.4248 7.70923C23.4553 7.70923 23.482 7.7188 23.5105 7.7322C23.5372 7.7456 23.5505 7.77239 23.5543 7.80876V8.63941C23.5543 8.693 23.5315 8.71979 23.4877 8.71979C23.4344 8.71979 23.4077 8.693 23.4077 8.63941C23.4039 8.58582 23.3982 8.53605 23.3944 8.49586C23.3848 8.45184 23.3582 8.44227 23.3049 8.4595C23.2058 8.55902 23.0858 8.62984 22.9468 8.67003C22.8039 8.71405 22.6611 8.72745 22.5183 8.71979C22.3754 8.70639 22.2364 8.6662 22.1126 8.59921C21.9869 8.52648 21.8897 8.4327 21.8174 8.31212C21.7183 8.13795 21.6479 7.91211 21.6022 7.64416C21.5526 7.37047 21.5298 7.0872 21.5298 6.79629C21.5298 6.50537 21.5526 6.22211 21.6022 5.94841C21.646 5.67855 21.7183 5.45462 21.8174 5.28045C21.8897 5.15987 21.9869 5.06418 22.1126 4.99336C22.2383 4.92637 22.3754 4.88618 22.5183 4.87278C22.6611 4.86321 22.8039 4.87661 22.9468 4.92254C23.0858 4.96274 23.2058 5.03547 23.3049 5.13308C23.3582 5.1503 23.3848 5.14265 23.3944 5.10245C23.3982 5.05843 23.4039 5.0125 23.4077 4.95508C23.4077 4.90149 23.4344 4.8747 23.4877 4.8747C23.5315 4.8747 23.5543 4.90149 23.5543 4.95508V5.78573C23.5505 5.82209 23.5372 5.84889 23.5105 5.86229C23.4839 5.87568 23.4572 5.88525 23.4248 5.88525C23.3982 5.88525 23.3715 5.87568 23.3487 5.85463C23.3258 5.83358 23.3125 5.80487 23.3125 5.76468C23.3087 5.75511 23.3029 5.75128 23.3029 5.74745V5.73023V5.72066ZM22.3259 8.32743C22.2764 8.1169 22.2364 7.87957 22.2097 7.60971C22.1831 7.33984 22.1735 7.06615 22.1792 6.7848C22.1792 6.50154 22.1964 6.22785 22.2231 5.96373C22.2535 5.6996 22.2954 5.46036 22.3526 5.24983C22.3488 5.26323 22.343 5.27279 22.3392 5.27279C22.3392 5.27662 22.3354 5.28236 22.3259 5.29576C22.2821 5.35892 22.2402 5.46993 22.2059 5.62687C22.1754 5.77999 22.1488 5.95798 22.1297 6.16086C22.1126 6.358 22.1031 6.56853 22.1031 6.78863C22.1031 7.00873 22.1126 7.21927 22.1259 7.4164C22.1392 7.61736 22.1621 7.79727 22.1926 7.95039C22.2288 8.10733 22.265 8.22025 22.3126 8.2815C22.3164 8.2949 22.3164 8.29873 22.3164 8.30447C22.3164 8.31021 22.3202 8.31404 22.3259 8.32743ZM25.7541 8.3772C25.7541 8.44993 25.7579 8.50352 25.7579 8.54371C25.7618 8.5839 25.7579 8.61644 25.7446 8.63366C25.7351 8.64706 25.7141 8.66046 25.6818 8.66046C25.6513 8.66429 25.5961 8.66429 25.5294 8.66429H23.8591C23.8096 8.66429 23.7829 8.63749 23.7829 8.58773C23.7829 8.54371 23.8096 8.515 23.8591 8.515C23.9924 8.515 24.0591 8.45184 24.0591 8.32743V5.26705C24.0591 5.13691 23.9924 5.06992 23.8591 5.06992C23.8096 5.06992 23.7829 5.04695 23.7829 4.99719C23.7829 4.94743 23.8096 4.92063 23.8591 4.92063H25.6056C25.6589 4.92063 25.6856 4.94743 25.6856 4.99719V5.71109C25.6856 5.75511 25.6589 5.77807 25.6094 5.77807C25.5561 5.77807 25.5294 5.75511 25.5294 5.71109C25.5294 5.53118 25.4932 5.39337 25.417 5.29768C25.3447 5.20389 25.2609 5.14073 25.1751 5.11777C25.0856 5.0948 25.0056 5.10437 24.9295 5.14073C24.8533 5.18093 24.8171 5.24026 24.8171 5.3283V6.95323C24.8971 6.9628 24.9637 6.94366 25.0171 6.89007C25.0704 6.84031 25.0971 6.73695 25.0971 6.58958C25.0971 6.53599 25.1199 6.5092 25.1732 6.5092C25.217 6.5092 25.2399 6.53599 25.2399 6.58958V7.37047C25.2399 7.41449 25.217 7.43745 25.1732 7.43745C25.1199 7.43745 25.0971 7.41449 25.0971 7.37047C25.0971 7.29391 25.0837 7.23649 25.0609 7.20013C25.038 7.16376 25.0114 7.13697 24.9847 7.1274C24.958 7.114 24.9275 7.11017 24.8952 7.11017H24.8152V8.23557C24.8152 8.31595 24.8552 8.37911 24.9409 8.4193C25.0209 8.4595 25.1104 8.47672 25.2094 8.46907C25.3027 8.4595 25.3923 8.42504 25.4684 8.36571C25.5484 8.31212 25.5808 8.22217 25.5713 8.09585C25.5542 8.10542 25.5275 8.10542 25.4913 8.10542C25.4246 8.10542 25.3618 8.08245 25.3123 8.03269C25.2628 7.98293 25.2399 7.92551 25.2399 7.85278C25.2399 7.78579 25.2628 7.72263 25.3123 7.67287C25.3618 7.61928 25.4246 7.59248 25.4913 7.59248C25.5903 7.59248 25.657 7.62885 25.697 7.69201C25.7332 7.759 25.7503 7.83555 25.7503 7.91594V8.37337L25.7541 8.3772ZM24.6476 8.337V5.2594H24.5619V8.32935L24.6476 8.33892V8.337ZM28.5672 8.77721C28.6396 8.77721 28.6929 8.80018 28.7234 8.83463C28.7596 8.87099 28.7805 8.91501 28.79 8.9686C28.7996 9.02219 28.7938 9.07578 28.7862 9.13894C28.7729 9.19636 28.7557 9.25569 28.7329 9.30928C28.6834 9.4222 28.6034 9.50642 28.4967 9.56575C28.3901 9.61934 28.2815 9.64231 28.1672 9.63848C28.0549 9.63465 27.9482 9.59829 27.8454 9.53896C27.7425 9.4758 27.6663 9.39158 27.6263 9.27483C27.5768 9.13511 27.5463 8.95138 27.5368 8.72362C27.5273 8.49586 27.5197 8.26619 27.5063 8.04226C27.4968 7.81833 27.4702 7.62119 27.434 7.45085C27.394 7.28434 27.3216 7.19056 27.2149 7.17333H27.015V8.32169C27.015 8.45184 27.0816 8.51883 27.2149 8.51883C27.2645 8.51883 27.2911 8.54562 27.2911 8.59156C27.2911 8.64132 27.2645 8.66811 27.2149 8.66811H26.0627C26.0093 8.66811 25.9865 8.64132 25.9865 8.59156C25.9865 8.54754 26.0093 8.51883 26.0627 8.51883C26.196 8.51883 26.2627 8.45184 26.2627 8.31212V5.26131C26.2627 5.13499 26.196 5.07375 26.0627 5.07375C26.0093 5.07375 25.9865 5.04695 25.9865 4.99336C25.9865 4.94934 26.0093 4.92637 26.0627 4.92637H27.6111C27.7806 4.92637 27.933 4.99336 28.0568 5.12734C28.1863 5.26705 28.2567 5.43165 28.2853 5.63836C28.2891 5.68812 28.2948 5.75128 28.2948 5.82209C28.2987 5.89482 28.2986 5.96947 28.2986 6.04602C28.2986 6.11875 28.2987 6.1934 28.2948 6.26613C28.2948 6.33886 28.291 6.4001 28.2853 6.45369C28.272 6.59341 28.2225 6.71399 28.1387 6.82691C28.0491 6.93409 27.952 7.02404 27.8358 7.0872C27.8892 7.114 27.9292 7.15419 27.9653 7.20013C28.0225 7.27668 28.0682 7.38004 28.0949 7.51401C28.1215 7.64416 28.1444 7.79153 28.1577 7.95422C28.1672 8.11116 28.1749 8.27193 28.1749 8.44418C28.1787 8.6107 28.1882 8.7619 28.2015 8.90161C28.2148 9.03559 28.2377 9.14851 28.2682 9.23847C28.2948 9.32842 28.3444 9.37244 28.4072 9.37244C28.4643 9.37627 28.5196 9.35522 28.5672 9.29589C28.5005 9.29589 28.4415 9.26909 28.3939 9.21933C28.3444 9.16957 28.3177 9.11215 28.3177 9.04516C28.3177 8.97243 28.3444 8.91118 28.3939 8.86142C28.4434 8.80783 28.5005 8.78104 28.5672 8.78104V8.77721ZM28.0092 5.57328C28.013 5.62687 28.0187 5.69003 28.0225 5.77425C28.0225 5.85463 28.0263 5.93502 28.0263 6.02114C28.0263 6.10153 28.0225 6.18191 28.0225 6.26421C28.0187 6.34077 28.013 6.41159 28.0092 6.46518C27.9996 6.53791 27.9863 6.59915 27.9653 6.66231C27.9425 6.72547 27.9158 6.78289 27.8892 6.84222C27.9387 6.7848 27.9825 6.72164 28.0187 6.64891C28.0491 6.58193 28.072 6.50537 28.0853 6.42498C28.0987 6.32546 28.1025 6.19531 28.1025 6.04411C28.1025 5.89291 28.0987 5.75702 28.0853 5.6575C28.0682 5.51395 28.0187 5.3838 27.9292 5.26705C27.9692 5.36084 27.9958 5.46036 28.0092 5.57137V5.57328ZM26.8131 8.337V5.2594H26.7274V8.337H26.8131ZM27.613 6.39053C27.6168 6.35034 27.6225 6.30058 27.6225 6.23742V5.85654C27.6225 5.79339 27.6187 5.74362 27.613 5.70343C27.5997 5.55032 27.5635 5.42974 27.5006 5.33595C27.4435 5.23643 27.3749 5.17518 27.3007 5.13882C27.2264 5.10245 27.1578 5.09863 27.1007 5.11585C27.0435 5.13882 27.015 5.18858 27.015 5.2594V7.00108C27.1978 7.00108 27.3406 6.94366 27.4435 6.82691C27.5425 6.71016 27.5997 6.56661 27.613 6.39245V6.39053ZM27.6987 7.17142C27.7558 7.24415 27.7977 7.34176 27.8244 7.47191C27.8511 7.60205 27.8682 7.7456 27.8873 7.89871C27.9006 8.05183 27.9101 8.20877 27.9101 8.36954C27.9139 8.53605 27.9234 8.68343 27.933 8.8174C27.9463 8.95138 27.9634 9.06813 27.9863 9.16765C28.0092 9.26143 28.0492 9.31502 28.1063 9.33416C28.053 9.24804 28.0206 9.11023 28.013 8.91693C27.9996 8.72936 27.9901 8.52266 27.9825 8.30638C27.973 8.09011 27.9558 7.87957 27.9292 7.68244C27.9025 7.48913 27.853 7.34176 27.7768 7.24223L27.7006 7.16185V7.17142H27.6987ZM30.8908 4.92254C30.9441 4.92254 30.9708 4.94934 30.9708 4.9991C30.9708 5.04886 30.9441 5.07183 30.8908 5.07183C30.8051 5.07183 30.7517 5.08906 30.7346 5.12925C30.7117 5.16944 30.6984 5.22303 30.6851 5.28619C30.5651 5.82401 30.4432 6.358 30.327 6.88816C30.207 7.41832 30.0775 7.94656 29.9385 8.47672C29.9156 8.55711 29.8756 8.61644 29.8185 8.65089C29.7614 8.69108 29.7023 8.70831 29.6357 8.70448C29.569 8.70065 29.5061 8.67768 29.4528 8.63749C29.3995 8.5973 29.3633 8.54371 29.3462 8.47672C29.2128 7.94273 29.0833 7.40875 28.9614 6.87859C28.8357 6.34843 28.7119 5.82018 28.5824 5.28619C28.5691 5.22303 28.5462 5.16944 28.5253 5.12925C28.5024 5.08906 28.4491 5.07183 28.3691 5.07183C28.3253 5.07183 28.3025 5.04886 28.3025 4.9991C28.3025 4.94934 28.3253 4.92254 28.3691 4.92254H29.5309C29.5747 4.92254 29.5976 4.94934 29.5976 4.9991C29.5976 5.04886 29.5747 5.07183 29.5309 5.07183C29.4585 5.07183 29.4052 5.08906 29.3747 5.12542C29.3385 5.16561 29.3252 5.21538 29.3385 5.27854C29.4243 5.64218 29.5119 6.00583 29.5976 6.36948C29.6833 6.73313 29.7709 7.09677 29.8566 7.46042C29.9366 7.09677 30.0223 6.7293 30.1061 6.36565C30.1956 6.002 30.2756 5.63836 30.3556 5.27088C30.3689 5.20772 30.3556 5.15796 30.3194 5.12351C30.2794 5.09288 30.2299 5.07375 30.167 5.07375C30.1137 5.07375 30.087 5.05078 30.087 5.00102C30.087 4.95125 30.1137 4.92446 30.167 4.92446H30.8908V4.92254ZM29.689 7.73603L29.1138 5.2594H29.0243L29.6623 8.01355L29.689 7.73603ZM34.6904 4.92254C34.7437 4.92254 34.7704 4.94934 34.7704 4.9991C34.7704 5.04886 34.7437 5.07183 34.6904 5.07183C34.6409 5.07183 34.5971 5.08906 34.5514 5.12542C34.5114 5.16561 34.4942 5.21155 34.4942 5.2594C34.4942 5.69386 34.4942 6.13407 34.498 6.5781C34.5019 7.0183 34.5019 7.45659 34.5019 7.89297C34.5019 8.42696 34.3857 8.87482 34.1495 9.23847C33.9171 9.60211 33.5324 9.84901 32.9972 9.97916C32.7211 10.0423 32.4392 10.0461 32.1535 9.99639C31.8678 9.94662 31.6126 9.84901 31.386 9.69207C31.1574 9.53513 30.9746 9.32459 30.8413 9.05473C30.7079 8.79061 30.6451 8.46715 30.6622 8.09011C30.6794 7.79919 30.7613 7.51593 30.8946 7.2518C31.0336 6.98194 31.2241 6.76758 31.466 6.59724V5.26897C31.466 5.13882 31.3993 5.07183 31.2698 5.07183C31.2165 5.07183 31.1898 5.04886 31.1898 4.9991C31.1898 4.94934 31.2165 4.92254 31.2698 4.92254H33.0163C33.0658 4.92254 33.0925 4.94934 33.0925 4.9991V5.713C33.0925 5.75702 33.0658 5.77999 33.0163 5.77999C32.9725 5.77999 32.9439 5.75702 32.9439 5.713C32.9439 5.53309 32.9077 5.39529 32.8373 5.29959C32.7611 5.20581 32.6773 5.14265 32.5878 5.11968C32.4982 5.09671 32.4144 5.10628 32.3421 5.14265C32.2659 5.18284 32.2297 5.24217 32.2297 5.33021V6.32546H32.3325C32.363 6.32546 32.3992 6.32929 32.4354 6.33503C32.5916 6.34843 32.7077 6.38862 32.7877 6.45561C32.8677 6.51877 32.9172 6.58958 32.9344 6.65657C32.9572 6.72356 32.9515 6.78289 32.9211 6.83074C32.8849 6.87476 32.8449 6.88433 32.7877 6.85753C32.5649 6.75035 32.3497 6.71782 32.1497 6.75418C31.9497 6.79437 31.7707 6.87476 31.6145 7.00108C31.4583 7.13123 31.3288 7.28434 31.226 7.46808C31.1231 7.65182 31.0603 7.83173 31.0336 8.01164C30.9936 8.3083 31.0203 8.56859 31.106 8.79635C31.1917 9.02602 31.3155 9.21359 31.4717 9.3533C31.6317 9.49685 31.8164 9.59637 32.0259 9.65379C32.2354 9.71121 32.4411 9.72078 32.6468 9.68059C32.8525 9.64039 33.0391 9.55044 33.2086 9.41072C33.3782 9.271 33.5115 9.07387 33.601 8.81932C33.6505 8.693 33.681 8.54179 33.7038 8.35806C33.721 8.17815 33.7343 7.99058 33.74 7.79345V7.18864C33.7362 6.98768 33.7362 6.7982 33.7362 6.62403V5.26897C33.7362 5.13882 33.6696 5.07183 33.5439 5.07183C33.4905 5.07183 33.4677 5.04886 33.4677 4.9991C33.4677 4.94934 33.4905 4.92254 33.5439 4.92254H34.6904ZM31.9935 6.37139L32.083 6.3446V5.2594H31.9935V6.37139ZM34.319 5.2594H34.2333V8.07671C34.2295 8.29681 34.1895 8.50734 34.1209 8.71405C34.0486 8.92075 33.9552 9.11789 33.8353 9.3112C33.921 9.25378 33.9914 9.17148 34.0505 9.06813C34.1076 8.9686 34.1571 8.85759 34.1971 8.74467C34.2371 8.62792 34.2695 8.50734 34.2828 8.38485C34.3 8.26427 34.3095 8.15518 34.3095 8.05757L34.319 5.25748V5.2594ZM32.9134 7.59631C33.0125 7.59631 33.0734 7.62693 33.1096 7.69584C33.1458 7.759 33.1629 7.82981 33.1629 7.91211V8.37911C33.1629 8.45184 33.1629 8.50543 33.1667 8.54562C33.1667 8.58582 33.1629 8.61835 33.1534 8.63558C33.1401 8.64898 33.1172 8.66237 33.0868 8.66237C33.0563 8.6662 33.0068 8.6662 32.9344 8.6662H31.2698C31.2165 8.6662 31.1898 8.64323 31.1898 8.59921C31.1898 8.54562 31.2165 8.51883 31.2698 8.51883C31.3993 8.51883 31.466 8.45567 31.466 8.32552V7.36473C31.5383 7.24798 31.645 7.14462 31.7955 7.06041C31.9421 6.97428 32.0849 6.91686 32.2278 6.88624V8.24131C32.2278 8.32169 32.2678 8.38102 32.3478 8.42505C32.4335 8.46524 32.5211 8.47864 32.6201 8.46907C32.7135 8.4595 32.803 8.42887 32.8792 8.36954C32.9553 8.31021 32.9915 8.22217 32.9782 8.09585C32.9687 8.10542 32.942 8.10542 32.9115 8.10542C32.8353 8.10542 32.7725 8.08245 32.7249 8.03269C32.6773 7.98293 32.6525 7.91977 32.6525 7.85278C32.6525 7.78005 32.6754 7.72263 32.7249 7.67287C32.7744 7.62311 32.8373 7.59631 32.9115 7.59631H32.9134ZM32.0659 8.32743V7.10252L31.9802 7.13314V8.32743H32.0659ZM35.477 8.515C35.5208 8.515 35.5437 8.54179 35.5437 8.58773C35.5437 8.63749 35.5208 8.66429 35.477 8.66429H34.7399C34.6961 8.66429 34.6733 8.63749 34.6733 8.58773C34.6733 8.54371 34.6961 8.515 34.7399 8.515C34.8199 8.515 34.8732 8.49777 34.8961 8.45758C34.919 8.41739 34.9399 8.3638 34.959 8.30064L35.1056 7.65947C35.2085 7.62311 35.3246 7.60971 35.4503 7.62311L35.2942 8.29107C35.2542 8.44418 35.317 8.515 35.477 8.515ZM37.3873 8.515C37.4368 8.515 37.4635 8.54179 37.4635 8.58773C37.4635 8.63749 37.4368 8.66429 37.3873 8.66429H36.2255C36.176 8.66429 36.1493 8.63749 36.1493 8.58773C36.1493 8.53414 36.176 8.50734 36.2255 8.50734C36.2788 8.50734 36.3283 8.49395 36.3721 8.45758C36.416 8.42122 36.435 8.3772 36.4255 8.31786L36.3721 8.04034C36.2864 7.90063 36.1665 7.78388 36.0198 7.69009C35.9398 7.64607 35.8503 7.60397 35.7608 7.56952C35.6675 7.53889 35.5741 7.5121 35.4751 7.50253C35.4122 7.4987 35.3494 7.49296 35.2961 7.4987C35.2427 7.4987 35.1894 7.5121 35.1361 7.52932L35.1266 7.53889C35.077 7.55229 35.0275 7.57909 34.9799 7.61545C34.997 7.67861 35.0028 7.73603 34.9837 7.78962C34.9704 7.83938 34.9475 7.8834 34.9113 7.92359C34.8752 7.95996 34.8352 7.98675 34.7913 7.99632C34.7418 8.00972 34.698 8.00589 34.6523 7.98675C34.5895 7.95996 34.5399 7.90637 34.5095 7.82981C34.479 7.75708 34.4828 7.6767 34.5323 7.59631C34.5761 7.51975 34.6485 7.45659 34.7418 7.403C34.8352 7.34559 34.9247 7.30348 35.0047 7.27286C35.077 7.24606 35.1437 7.22884 35.2046 7.22309L35.6694 5.22686C35.6598 5.11968 35.5932 5.06992 35.4732 5.06992C35.4237 5.06992 35.4008 5.04312 35.4008 4.98953C35.4008 4.94551 35.4237 4.92254 35.4732 4.92254H36.4998L37.1835 8.35423C37.2064 8.46141 37.273 8.515 37.3835 8.515H37.3873ZM36.1912 7.46425C36.2179 7.47765 36.2407 7.49104 36.2636 7.50827L35.9017 5.67281L35.536 7.22118C35.7855 7.25754 36.0046 7.33793 36.1931 7.46425H36.1912ZM37.0483 8.33509L36.4179 5.25748H36.3283L36.9454 8.26427L36.9626 8.337H37.0483V8.33509Z" fill="white"/>
<path fill-rule="evenodd" clip-rule="evenodd" d="M14.459 11.3917C14.459 11.5123 14.4952 11.5927 14.579 11.6693C14.6552 11.7362 14.718 11.742 14.838 11.763C14.9275 11.7764 15.038 11.7937 15.1275 11.8128C15.337 11.8492 15.5427 11.9162 15.6855 11.7228C15.7617 11.6291 15.9217 10.9879 15.975 10.8348L16.5159 9.4223C16.5521 9.33235 16.6016 9.24239 16.6416 9.14861C16.994 8.31413 17.7139 7.16003 18.2396 6.46144L18.4129 6.23177C18.47 6.15521 18.5253 6.08823 18.5862 6.01167L18.8547 5.69396C19.0109 5.52362 19.15 5.33988 19.3138 5.17337L19.9975 4.48626C20.0375 4.44607 20.0642 4.43267 20.1041 4.39248L20.3098 4.19917C20.5593 4.00204 20.7974 3.78576 21.0507 3.58863L21.3897 3.34173C21.6983 3.12163 22.0068 2.90727 22.3325 2.70822L22.9439 2.35797C22.9934 2.32734 23.0334 2.30821 23.0772 2.28524L23.3267 2.15126C23.9571 1.83355 24.5894 1.58091 25.2694 1.35315C25.4617 1.28616 25.6617 1.23257 25.8674 1.17324C26.2864 1.05266 26.7111 0.972279 27.1492 0.886152C27.9834 0.719639 28.8271 0.685189 29.6994 0.685189C29.9679 0.685189 30.1946 0.702414 30.4498 0.711984C30.8555 0.721553 31.4459 0.811508 31.8382 0.878496C32.2572 0.951226 32.7124 1.03927 33.12 1.16176C33.9066 1.39526 34.6684 1.64216 35.3979 2.00963C35.4474 2.0326 35.4874 2.046 35.5312 2.06705C35.5712 2.09002 35.6112 2.10724 35.6569 2.13021L36.0455 2.33117C36.3007 2.46132 36.5406 2.61443 36.7863 2.76181L37.8319 3.47571C38.1005 3.66327 38.3367 3.88912 38.5862 4.08625C38.6357 4.12644 38.6528 4.14941 38.6985 4.18578L39.0014 4.45564C39.0375 4.48626 39.068 4.5188 39.1042 4.55899C39.1442 4.59918 39.1613 4.60875 39.207 4.64512C39.2375 4.67574 39.2699 4.70828 39.3004 4.74464C39.3727 4.81163 39.4299 4.87096 39.4965 4.94178C39.5327 4.97814 39.5594 4.9992 39.5956 5.03556C39.7384 5.18868 40.1232 5.60591 40.2431 5.76668L40.6755 6.3045C41.0373 6.78873 41.2297 7.08156 41.5554 7.58301C41.8639 8.06341 42.1268 8.584 42.3725 9.09885L42.6181 9.65006C42.841 10.2013 43.06 10.8022 43.2295 11.3917C43.26 11.4989 43.2828 11.585 43.3552 11.6616C43.5704 11.8951 43.9932 11.7611 44.2351 11.6788C44.458 11.6023 44.5341 11.4989 44.538 11.3745V11.3515C44.5341 11.2482 44.4884 11.1276 44.4484 10.9879C44.3589 10.674 44.2389 10.3774 44.1323 10.073C43.9932 9.6826 43.8237 9.30172 43.6409 8.93807C43.5285 8.71414 43.4314 8.48447 43.3019 8.26437L42.9362 7.61746C42.8829 7.5275 42.8296 7.45095 42.78 7.36673C42.6334 7.11601 42.4582 6.87677 42.2925 6.63561C42.0925 6.34469 41.8239 5.9753 41.5916 5.71118C41.5554 5.67482 41.5287 5.64419 41.4925 5.604L41.403 5.49108C41.2907 5.34753 41.0583 5.10064 40.9212 4.96092L40.6221 4.64321C40.5498 4.57048 40.4888 4.51306 40.4165 4.44224C40.2831 4.30252 40.0946 4.12453 39.9422 4.00204L39.5537 3.66518C39.4737 3.60202 39.407 3.53887 39.3308 3.47762C38.9118 3.15034 38.4833 2.84028 38.0395 2.53979L37.7939 2.37902C37.4148 2.14169 37.0301 1.91776 36.6283 1.71871C36.5349 1.66895 36.4492 1.61919 36.3559 1.579C36.1597 1.49861 35.994 1.40483 35.8017 1.32827C35.3198 1.13114 34.8322 0.92443 34.3332 0.767488L33.7162 0.579922C33.3905 0.480398 33.0724 0.41341 32.7296 0.336852C32.2877 0.237328 31.8135 0.162684 31.3373 0.10718C30.7888 0.0440205 30.2574 0.00765574 29.7261 0H29.1147C28.1586 0.0172254 27.212 0.12632 26.2312 0.323455C25.1018 0.547385 24.1457 0.874668 23.1419 1.29765C23.0429 1.33784 22.9496 1.3876 22.8601 1.42397C22.2658 1.66704 21.0526 2.3618 20.5213 2.75607L19.209 3.77428L18.1062 4.83268C18.0339 4.90541 17.9805 4.96666 17.9063 5.04322L17.6777 5.30351C17.4416 5.58678 17.2092 5.8643 16.9902 6.16096C16.9273 6.24134 16.8778 6.31407 16.8169 6.39828C16.5312 6.79255 16.2683 7.20979 16.0169 7.63277C15.8608 7.89307 15.7217 8.15719 15.5846 8.43088C15.1599 9.27875 14.817 10.1496 14.539 11.0606C14.5161 11.1372 14.459 11.3075 14.459 11.3917ZM35.7788 28.6612C35.735 28.6344 35.7255 28.6038 35.6855 28.5482C35.1541 27.8344 34.6132 27.13 34.0418 26.4582L33.3143 25.6276C33.2705 25.5874 33.2476 25.5702 33.2114 25.5281C32.9296 25.218 32.7029 25.0247 32.421 24.7472C32.3849 24.7108 32.3544 24.6936 32.3182 24.6572C31.8363 24.1864 30.8498 23.5089 30.286 23.1682C30.206 23.1184 29.3794 22.638 29.2956 22.6112C29.5547 22.684 30.1356 22.9576 30.3755 23.0878C30.7336 23.2811 31.0364 23.4553 31.3526 23.6715C31.5849 23.8285 32.442 24.4658 32.6705 24.6993L32.88 24.8869C33.0667 25.0477 33.3886 25.3903 33.5676 25.5778C33.6038 25.6142 33.6343 25.6314 33.6666 25.6716C33.6971 25.708 33.72 25.7348 33.7562 25.775C33.7866 25.8113 33.819 25.8324 33.8495 25.8687C33.8857 25.9185 33.9028 25.9319 33.9428 25.9759C34.0952 26.1367 34.4075 26.5233 34.5637 26.7109C35.0189 27.2717 35.3236 27.7157 35.7198 28.286C35.7693 28.3588 35.8359 28.443 35.8759 28.5195C35.8455 28.577 35.8093 28.5999 35.7769 28.6593L35.7788 28.6612ZM25.8807 30.9981H25.7912C25.6484 30.9885 25.496 30.9349 25.317 30.8852C25.1741 30.845 25.0275 30.799 24.8751 30.755C24.7227 30.711 24.5761 30.6612 24.4332 30.6115C23.4733 30.288 22.5268 29.8612 21.6602 29.3464C21.5307 29.2698 21.424 29.2066 21.2983 29.1301L20.946 28.91C20.6012 28.6765 20.2584 28.4487 19.9365 28.1884C19.9061 28.1655 19.8794 28.1482 19.8508 28.1253L19.1404 27.5339C18.9252 27.3635 18.2072 26.6688 18.1139 26.5424C18.0643 26.4793 18.0282 26.4487 17.9748 26.3951L16.8054 24.9673C16.7654 24.9099 16.7254 24.8544 16.6892 24.7969C16.4169 24.3931 16.1312 23.9931 15.8988 23.5624C15.8227 23.4189 15.5198 22.9347 15.5198 22.795C15.5198 22.5481 15.6455 22.4639 15.8646 22.4141C15.9579 22.3911 16.0379 22.3777 16.1331 22.3567C16.535 22.2629 16.5883 22.2897 16.7845 22.6801C16.9102 22.9309 17.034 23.1739 17.1768 23.4208C17.493 23.9586 17.8282 24.4888 18.1996 24.9922C18.3691 25.2161 18.9043 25.8936 19.1328 26.1233C19.169 26.1539 19.19 26.1769 19.2185 26.2133C19.348 26.3798 20.0984 27.1109 20.3517 27.308C20.5441 27.4611 20.7403 27.6487 20.9631 27.8152C21.0031 27.8458 21.0298 27.865 21.0698 27.9013L22.0525 28.5884C22.3611 28.776 22.6734 28.9789 22.9991 29.1397C23.0848 29.1837 23.1553 29.2258 23.2486 29.2736C23.3381 29.3138 23.401 29.354 23.4943 29.3904L23.999 29.6239C24.178 29.7004 24.3475 29.777 24.5304 29.844C24.7132 29.9071 24.8827 29.9837 25.0751 30.0373C25.517 30.1636 25.8426 30.1847 26.1512 29.8C26.9416 28.8181 27.6025 27.0803 27.6025 25.2946C27.6025 24.4601 27.4463 23.4227 26.8559 22.8084C26.7625 22.7088 26.6559 22.6208 26.5435 22.5385C26.3645 22.4083 26.0883 22.3509 26.0883 22.1308C26.0883 21.9643 26.174 21.8744 26.3035 21.8074C26.4197 21.7538 26.5397 21.6906 26.7054 21.6906C26.9054 21.6906 27.1111 21.7078 27.3034 21.7308C27.4501 21.748 27.6025 21.7748 27.7491 21.8035C28.3967 21.9107 29.1547 22.127 29.7584 22.4007C30.1603 22.5806 30.406 22.6974 30.8174 22.9079C30.8536 22.9309 30.8669 22.9385 30.9031 22.9615C31.5335 23.2983 32.1182 23.7251 32.6763 24.1634L32.9715 24.4065C33.2533 24.6362 33.5295 24.8869 33.7847 25.1472C33.8971 25.2544 34.0171 25.3539 34.1199 25.4649L34.9903 26.4257C35.3255 26.8027 35.6645 27.2563 35.9597 27.6602C36.2054 27.997 36.3711 28.3607 36.8568 28.3607C37.3977 28.3607 37.83 27.9396 38.2224 27.6296C38.3024 27.5626 38.369 27.5032 38.4452 27.442C38.5976 27.3214 38.8604 27.0956 39.0033 26.9482L39.1061 26.8448C39.1499 26.8008 39.1785 26.7874 39.2223 26.7415L39.7308 26.2171C39.8737 26.0735 40.1955 25.6965 40.3155 25.5434C40.7478 24.996 41.1726 24.439 41.5306 23.8342L41.9858 23.0304C42.241 22.5729 42.4582 22.0887 42.6505 21.6026C42.7305 21.4093 42.7896 21.1585 43.0391 21.1585C43.159 21.1585 43.4904 21.2485 43.6238 21.2791C43.8161 21.3289 43.9761 21.4054 43.9761 21.6389C43.9761 21.7787 43.8237 22.0868 43.7609 22.2265L43.3324 23.1108C43.2962 23.1682 43.2657 23.2275 43.2333 23.2849C42.9038 23.905 42.2696 24.8276 41.8277 25.3214C40.3593 26.9941 38.9576 28.5215 36.613 29.8536C36.1883 30.11 35.8359 30.1272 35.4474 29.6373C35.335 29.4937 35.2646 29.4076 35.1313 29.2373C34.5199 28.4334 33.5543 27.2047 32.8362 26.3664C31.5145 24.8237 29.688 23.3596 27.711 22.7452C27.8272 22.9117 27.9034 23.0591 27.9872 23.262C28.549 24.5634 28.3624 26.5922 27.9205 27.9281L27.7244 28.5061C27.6977 28.5693 27.6844 28.6191 27.652 28.6803L27.4958 29.044C27.3892 29.3081 27.2406 29.5607 27.0901 29.8019C27.073 29.8325 27.0635 29.8516 27.0463 29.8784C27.0159 29.9282 26.9835 29.9722 26.9473 30.0258L26.4959 30.6C26.4292 30.6765 26.3169 30.7837 26.2407 30.8469C26.1112 30.9502 25.995 30.9904 25.8788 31L25.8807 30.9981Z" fill="white"/>
<path d="M20.191 13.8147C20.151 13.5678 20.0615 13.3439 19.9224 13.141C19.7891 12.94 19.6367 12.7946 19.4634 12.7142C19.2939 12.6338 19.1111 12.6338 18.9225 12.7142C18.7302 12.7946 18.5645 12.9879 18.4273 13.2979C18.3645 13.4319 18.3207 13.652 18.294 13.9525C18.2635 14.253 18.254 14.5937 18.2578 14.9764C18.2673 15.3535 18.2883 15.7573 18.3207 16.1746C18.3569 16.5956 18.4007 16.9956 18.454 17.3727C18.5073 17.7497 18.574 18.0808 18.6502 18.3737C18.7263 18.6665 18.8063 18.8713 18.8863 18.9976C19.073 19.2809 19.2711 19.4455 19.4672 19.4952C19.6672 19.545 19.8462 19.5125 20.0024 19.4053C20.1586 19.2981 20.2881 19.1316 20.3909 18.9115C20.49 18.6876 20.5433 18.4502 20.5471 18.2033L20.5433 18.167C20.5433 18.1536 20.5471 18.1402 20.5566 18.1268C20.5528 18.0464 20.57 17.9832 20.6138 17.9392C20.6576 17.8894 20.7071 17.8665 20.7661 17.8627C20.8233 17.8588 20.8823 17.8665 20.9395 17.8933C20.9928 17.9162 21.029 17.966 21.0461 18.0368L21.0499 18.0866L21.1833 19.7383C21.1928 19.8455 21.1471 19.9048 21.0537 19.9125C20.9471 19.9163 20.8938 19.8723 20.8842 19.7651C20.8614 19.6483 20.8404 19.545 20.8214 19.4646C20.8042 19.3842 20.7452 19.3651 20.6424 19.411C20.4557 19.6273 20.2233 19.7919 19.9415 19.9048C19.6596 20.0177 19.3701 20.0713 19.0749 20.0713C18.7797 20.0752 18.494 20.0139 18.2273 19.8914C17.955 19.7708 17.7398 19.5909 17.5798 19.3536C17.3474 19.0168 17.1646 18.5727 17.0256 18.0253C16.8865 17.4779 16.7932 16.9038 16.7437 16.3066C16.6942 15.7095 16.6942 15.1257 16.7437 14.5611C16.797 14.0003 16.9037 13.5333 17.0789 13.162C17.1989 12.9017 17.3817 12.6912 17.6331 12.5247C17.8788 12.3639 18.1512 12.2606 18.4407 12.2108C18.7359 12.161 19.0254 12.1706 19.3244 12.2376C19.6196 12.3008 19.8729 12.4252 20.0919 12.6108C20.1986 12.6376 20.2576 12.6108 20.2614 12.5247C20.2652 12.4443 20.271 12.3409 20.271 12.2204C20.2614 12.117 20.311 12.0596 20.4176 12.05C20.5109 12.0405 20.5643 12.0902 20.5738 12.1974L20.7033 13.8491L20.7071 13.9027C20.7033 13.9754 20.6766 14.029 20.6214 14.0597C20.5719 14.096 20.5186 14.1133 20.4614 14.1171C20.3986 14.1209 20.3452 14.1075 20.2957 14.0673C20.2462 14.031 20.2157 13.9678 20.21 13.8874C20.1967 13.874 20.1872 13.8644 20.1872 13.851L20.1833 13.8147H20.191ZM18.6273 19.3019C18.4845 18.8847 18.3683 18.4043 18.2692 17.8569C18.1702 17.3134 18.1036 16.7526 18.0597 16.1784C18.0197 15.6042 18.0102 15.0434 18.0236 14.4922C18.0369 13.9448 18.0864 13.451 18.1702 13.0166C18.1607 13.0434 18.1531 13.0568 18.1474 13.0606C18.1435 13.0702 18.134 13.0836 18.1245 13.1104C18.0388 13.2501 17.9778 13.4778 17.9321 13.8051C17.8826 14.1286 17.8598 14.496 17.8598 14.9094C17.856 15.3171 17.8731 15.7478 17.9093 16.2014C17.9455 16.6492 17.995 17.076 18.0559 17.4837C18.1188 17.8875 18.195 18.2474 18.2883 18.5612C18.3778 18.8751 18.4749 19.0952 18.5778 19.2158C18.5911 19.2388 18.6006 19.256 18.6006 19.2598C18.6006 19.2636 18.6102 19.277 18.6235 19.3L18.6273 19.3019ZM25.9942 12.8137C26.1942 13.1639 26.3523 13.6041 26.4723 14.1324C26.5884 14.6626 26.6551 15.2138 26.678 15.7918C26.6951 16.366 26.6646 16.9229 26.5789 17.4607C26.4989 17.9947 26.3637 18.4483 26.1904 18.8062C26.0114 19.1603 25.7352 19.4263 25.3638 19.6101C24.9924 19.7938 24.6001 19.8933 24.1849 19.9106C23.7735 19.924 23.3773 19.8474 23.0021 19.6905C22.6231 19.5297 22.3317 19.2828 22.1317 18.9402C21.9222 18.5938 21.7565 18.1497 21.6365 17.6215C21.5204 17.0913 21.4537 16.5401 21.4308 15.9621C21.4137 15.3879 21.4442 14.831 21.5299 14.2932C21.6099 13.7592 21.7489 13.3056 21.9356 12.9477C22.1146 12.5936 22.3869 12.3276 22.7526 12.1438C23.1183 11.9601 23.5068 11.8606 23.922 11.8472C24.3334 11.8299 24.7353 11.9046 25.1181 12.0634C25.4971 12.2242 25.7923 12.4711 25.9923 12.8137H25.9942ZM22.8059 18.3871C22.8421 18.4368 22.8859 18.4942 22.9355 18.5612C22.8593 18.3507 22.7926 18.01 22.7431 17.543C22.6936 17.076 22.6536 16.5746 22.6307 16.0406C22.6079 15.5066 22.6041 14.9956 22.6174 14.5018C22.6307 14.008 22.6669 13.6233 22.7298 13.3496C22.7164 13.363 22.6898 13.4032 22.6441 13.4759C22.5774 13.5965 22.5241 13.786 22.4841 14.0463C22.4479 14.3027 22.4212 14.5898 22.4079 14.9114C22.3946 15.2291 22.3946 15.5717 22.4079 15.9257C22.4174 16.2856 22.4384 16.6262 22.4746 16.9497C22.5107 17.277 22.5545 17.5698 22.6079 17.8282C22.665 18.0847 22.7279 18.2722 22.804 18.389L22.8059 18.3871ZM24.8591 18.8177C24.9257 18.6876 24.9791 18.4636 25.0248 18.1536C25.0648 17.8435 25.0914 17.4894 25.1048 17.0894C25.1143 16.6952 25.1143 16.2779 25.101 15.8415C25.0838 15.4109 25.061 14.9937 25.021 14.5994C24.9848 14.1994 24.9353 13.8491 24.8743 13.5448C24.8115 13.2348 24.741 13.0204 24.6648 12.8902C24.442 12.517 24.2001 12.339 23.9506 12.3467C23.6954 12.3505 23.463 12.5534 23.2497 12.9381C23.1831 13.0682 23.1297 13.2922 23.084 13.6022C23.044 13.9123 23.0174 14.2664 23.004 14.6664C22.9945 15.0664 22.9945 15.4779 23.0078 15.9143C23.025 16.3449 23.0478 16.7621 23.0878 17.1564C23.124 17.5564 23.1735 17.9067 23.2345 18.211C23.2973 18.521 23.3678 18.7354 23.444 18.8656C23.6801 19.2388 23.9258 19.4168 24.1811 19.4091C24.4306 19.4053 24.6591 19.2081 24.8591 18.8177ZM25.8152 18.6971C25.9885 18.3469 26.1237 17.9162 26.2037 17.4052C26.2894 16.8885 26.3199 16.3545 26.3028 15.8033C26.2856 15.252 26.217 14.7219 26.1028 14.2185C25.9866 13.7113 25.8266 13.2845 25.6247 12.9496C25.6114 12.9266 25.5885 12.896 25.5523 12.8635C25.718 13.2635 25.8476 13.7286 25.9447 14.2759C26.038 14.8195 26.0875 15.3707 26.0971 15.9353C26.1009 16.4961 26.0704 17.0435 25.998 17.5775C25.9256 18.1076 25.8152 18.5593 25.6628 18.9325C25.6857 18.8962 25.7066 18.8598 25.739 18.8254C25.7657 18.789 25.7923 18.745 25.8152 18.6952V18.6971Z" fill="white"/>
<path d="M41.8634 13.2501C42.0234 13.6234 42.1358 14.075 42.1929 14.6186C42.25 15.1564 42.2596 15.7134 42.2158 16.2875C42.1662 16.8617 42.0767 17.4129 41.9339 17.9393C41.791 18.4637 41.612 18.8943 41.3987 19.2369C41.1797 19.5642 40.8768 19.7977 40.4883 19.9412C40.0998 20.0848 39.6979 20.1384 39.2827 20.1078C38.8713 20.0714 38.4885 19.9546 38.1304 19.7575C37.7724 19.5565 37.5134 19.2733 37.3496 18.9192C37.1801 18.546 37.0639 18.0886 37.0048 17.5507C36.9477 17.0072 36.9382 16.4521 36.982 15.878C37.0258 15.3038 37.121 14.7564 37.2639 14.232C37.4067 13.7076 37.5895 13.2769 37.8181 12.9343C38.0333 12.6071 38.3361 12.3736 38.7209 12.23C39.1056 12.0865 39.5017 12.0329 39.9131 12.0635C40.3283 12.0941 40.7169 12.2109 41.0787 12.4137C41.4406 12.6147 41.7034 12.898 41.8653 13.252L41.8634 13.2501ZM38.0809 18.4369C38.1114 18.4867 38.1476 18.5498 38.1933 18.6245C38.14 18.4044 38.1133 18.0599 38.1133 17.5871C38.1133 17.1144 38.1304 16.6187 38.1666 16.0847C38.2028 15.5507 38.2561 15.0397 38.3228 14.5497C38.3895 14.0597 38.4695 13.6846 38.5647 13.4186C38.5514 13.4281 38.5209 13.4683 38.4657 13.5353C38.3857 13.6482 38.3133 13.832 38.2466 14.0789C38.18 14.3296 38.1209 14.6167 38.0733 14.9363C38.0238 15.2502 37.9838 15.587 37.9571 15.9411C37.9305 16.3009 37.9171 16.6416 37.9133 16.9689C37.9133 17.2962 37.9228 17.589 37.9495 17.8531C37.9762 18.1173 38.0219 18.3106 38.0828 18.4369H38.0809ZM40.0731 19.0972C40.1588 18.9709 40.2331 18.7565 40.3093 18.4503C40.3893 18.1498 40.4521 17.7996 40.5093 17.4053C40.5626 17.011 40.6083 16.5976 40.6388 16.167C40.675 15.7325 40.6959 15.3191 40.7016 14.9191C40.7111 14.5191 40.7016 14.165 40.6712 13.8549C40.6445 13.5411 40.5988 13.3171 40.5378 13.1812C40.355 12.787 40.136 12.5803 39.8865 12.5573C39.6313 12.5401 39.3779 12.7104 39.1227 13.0683C39.0427 13.1946 38.9666 13.409 38.8866 13.7095C38.8104 14.0138 38.7437 14.364 38.6904 14.7602C38.6371 15.1545 38.5914 15.5679 38.5571 15.9985C38.5266 16.4292 38.5037 16.8464 38.4999 17.2464C38.4904 17.6407 38.4999 18.0005 38.5304 18.3106C38.5571 18.6245 38.6028 18.8446 38.6637 18.9843C38.8561 19.3786 39.0789 19.5853 39.3341 19.6082C39.5894 19.6254 39.835 19.4551 40.075 19.0972H40.0731ZM41.0368 19.0838C41.252 18.7527 41.4292 18.3393 41.5682 17.8359C41.7072 17.3383 41.8006 16.812 41.8406 16.2608C41.8844 15.7095 41.8767 15.1756 41.8177 14.6588C41.7549 14.142 41.6444 13.7037 41.4825 13.3477C41.473 13.3209 41.452 13.2903 41.4196 13.254C41.5396 13.6674 41.6158 14.1478 41.652 14.699C41.6882 15.2502 41.6749 15.8071 41.6215 16.3679C41.5644 16.9287 41.4749 17.4665 41.3454 17.9871C41.2159 18.5077 41.0502 18.9422 40.8578 19.2982C40.8845 19.2675 40.9111 19.2312 40.9473 19.1986C40.9778 19.168 41.0102 19.1259 41.0368 19.0819V19.0838ZM43.8061 20.0178C43.8994 20.0274 43.9394 20.081 43.9318 20.1747C43.9185 20.2819 43.8651 20.3279 43.7718 20.3183L42.2767 20.125C42.1834 20.1116 42.1434 20.0523 42.1567 19.9508C42.1701 19.857 42.2234 19.8111 42.3167 19.8245C42.4767 19.8475 42.5891 19.8207 42.6462 19.7441C42.7033 19.6676 42.7586 19.5642 42.8119 19.4398L43.2766 18.1709C43.4956 18.1307 43.7318 18.1345 43.987 18.1938L43.4994 19.5125C43.3795 19.8092 43.4823 19.9738 43.808 20.0197L43.8061 20.0178ZM47.6914 20.5154C47.7981 20.5288 47.8476 20.5824 47.8343 20.6762C47.8209 20.7796 47.7619 20.8293 47.6552 20.8159L45.2974 20.5116C45.1945 20.4982 45.145 20.4389 45.1583 20.3317C45.1717 20.2283 45.2345 20.1786 45.3374 20.192C45.444 20.2092 45.5469 20.1824 45.6497 20.125C45.7526 20.0676 45.8021 19.9776 45.7926 19.8551L45.7564 19.2771C45.6173 18.9728 45.4078 18.7068 45.126 18.479C44.9736 18.3661 44.8098 18.2589 44.6308 18.1651C44.4517 18.0713 44.2651 17.9986 44.0689 17.9488C43.9432 17.922 43.8232 17.9048 43.7109 17.8953C43.5947 17.8857 43.488 17.8914 43.3757 17.9125L43.3585 17.9297C43.2461 17.9527 43.1395 17.9929 43.0366 18.0503C43.0538 18.1843 43.0462 18.301 43.0004 18.4044C42.9566 18.5039 42.8976 18.5881 42.8176 18.6551C42.7376 18.7221 42.6481 18.7623 42.5491 18.7757C42.4557 18.7852 42.3624 18.7661 42.2729 18.7221C42.1529 18.6455 42.0672 18.5288 42.0234 18.368C41.9796 18.2072 42.0139 18.0503 42.1262 17.8972C42.2424 17.7536 42.4024 17.6407 42.6081 17.5507C42.8176 17.4646 43.0062 17.4034 43.1795 17.367C43.3261 17.3268 43.4652 17.3096 43.5947 17.3134L45.0593 13.3688C45.0631 13.1525 44.9431 13.0319 44.6974 13.0013C44.6041 12.9879 44.5641 12.9286 44.5774 12.8214C44.587 12.7276 44.6403 12.6874 44.7336 12.7008L45.3678 12.7812L46.8286 12.9688L47.3295 20.1212C47.3524 20.3547 47.4724 20.481 47.6914 20.5116V20.5154ZM45.5392 18.0656C45.5831 18.0962 45.625 18.1326 45.6688 18.1728L45.4002 14.3506L44.267 17.4015C44.7622 17.5354 45.1869 17.7555 45.5392 18.0656ZM47.0534 20.0542L46.5658 13.6387L46.3868 13.6157L46.861 19.8877L46.8782 20.0312L47.0515 20.0542H47.0534Z" fill="white"/>
<path d="M28.7368 19.3881C28.8301 19.3881 28.8797 19.4321 28.8797 19.5278C28.8797 19.635 28.8301 19.6886 28.7368 19.6886L27.2322 19.6924C27.1389 19.6924 27.0894 19.6388 27.0894 19.5316C27.0894 19.4378 27.1389 19.3881 27.2322 19.3881C27.3979 19.3881 27.5046 19.3479 27.5484 19.2617C27.5979 19.1814 27.6379 19.0742 27.6741 18.944L27.9731 17.6253C28.1883 17.5526 28.4245 17.5315 28.6835 17.5526L28.3673 18.9249C28.2816 19.2292 28.4073 19.3861 28.7387 19.3861L28.7368 19.3881ZM32.6526 19.3842C32.7593 19.3842 32.8126 19.4283 32.8126 19.524C32.8126 19.6311 32.7593 19.6847 32.6526 19.6847L30.2814 19.6886C30.1748 19.6886 30.1214 19.635 30.1214 19.5278C30.1214 19.4206 30.1748 19.367 30.2776 19.367C30.3805 19.367 30.4871 19.3306 30.5804 19.2598C30.6738 19.1928 30.71 19.0933 30.6871 18.9766L30.5804 18.4062C30.4014 18.123 30.1614 17.8856 29.8529 17.6923C29.6872 17.5985 29.5082 17.5181 29.3215 17.4454C29.1292 17.3727 28.9368 17.3287 28.7368 17.3019C28.6035 17.2923 28.4816 17.2885 28.3711 17.2923C28.2588 17.3019 28.1521 17.3229 28.0455 17.3555L28.0283 17.3727C27.9217 17.4091 27.8226 17.4626 27.7255 17.5335C27.7617 17.6636 27.7655 17.7842 27.735 17.8933C27.7083 17.9966 27.6588 18.0904 27.5884 18.167C27.516 18.2435 27.4322 18.2971 27.3389 18.3201C27.2455 18.3431 27.1522 18.3373 27.057 18.3029C26.9275 18.2454 26.8284 18.1363 26.7618 17.9851C26.6989 17.8282 26.7123 17.6713 26.8056 17.5048C26.8989 17.3478 27.0475 17.2138 27.2379 17.1009C27.4341 16.988 27.6131 16.9038 27.7788 16.8406C27.9217 16.7832 28.055 16.7468 28.1845 16.7373L29.1406 12.6357C29.1139 12.4252 28.9806 12.318 28.7292 12.318C28.6359 12.318 28.5864 12.2644 28.5864 12.1572C28.5864 12.0634 28.6359 12.0175 28.7292 12.0175L29.3672 12.0137H30.8414L32.247 19.0455C32.2965 19.2751 32.4298 19.3861 32.6526 19.3861V19.3842ZM30.2052 17.2311C30.2548 17.254 30.2986 17.2846 30.3481 17.321L29.5977 13.5659L28.8568 16.7334C29.3653 16.8062 29.8167 16.9708 30.2052 17.2311ZM31.9594 19.0129L30.6604 12.7084H30.4814L31.7499 18.8694L31.786 19.0129H31.9594ZM36.2275 13.696C36.2142 13.4453 36.1513 13.2118 36.0447 12.9917C35.938 12.7716 35.8028 12.6108 35.6428 12.5075C35.4828 12.4041 35.3038 12.3811 35.1019 12.4405C34.9057 12.4941 34.7172 12.6702 34.5401 12.9572C34.4639 13.0836 34.3934 13.2941 34.3248 13.5908C34.2582 13.8817 34.2049 14.2185 34.1591 14.5994C34.1191 14.9764 34.0868 15.3765 34.0696 15.7975C34.0525 16.2186 34.043 16.6186 34.0468 16.9995C34.0563 17.3803 34.0772 17.7172 34.1191 18.0177C34.1553 18.3182 34.2087 18.5344 34.2753 18.6684C34.4277 18.9727 34.5972 19.1622 34.7896 19.233C34.9819 19.3096 35.161 19.3 35.3305 19.2158C35.5 19.1297 35.6523 18.9823 35.7761 18.7718C35.9056 18.5651 35.9856 18.3373 36.0218 18.0904V18.0541C36.0256 18.0407 36.0313 18.0311 36.0447 18.0177C36.0485 17.9373 36.0751 17.8741 36.1247 17.8339C36.1742 17.7976 36.2275 17.7804 36.2847 17.7804C36.3418 17.7842 36.4008 17.8033 36.4504 17.8339C36.5037 17.8646 36.5303 17.9201 36.5399 17.9909V18.0407L36.4637 19.6962C36.4599 19.8034 36.4065 19.8531 36.3113 19.8493C36.2047 19.8455 36.1551 19.7919 36.159 19.6828C36.1551 19.5622 36.1456 19.4627 36.1361 19.3785C36.1323 19.2981 36.0732 19.2713 35.9666 19.3019C35.7514 19.4895 35.5019 19.6254 35.2067 19.7019C34.9172 19.7785 34.622 19.7957 34.3267 19.7594C34.0315 19.7192 33.7592 19.6254 33.5059 19.4723C33.2564 19.3153 33.064 19.1086 32.9345 18.8522C32.7479 18.4885 32.6222 18.0273 32.5555 17.4665C32.4831 16.9019 32.5726 16.3219 32.5993 15.721C32.626 15.1238 32.5955 14.5496 32.7155 13.9927C32.8355 13.4415 33.0012 12.9917 33.2202 12.6472C33.3726 12.4041 33.5821 12.2166 33.8506 12.0864C34.1191 11.9563 34.3991 11.8893 34.6943 11.8759C34.9895 11.8663 35.279 11.9122 35.5647 12.0156C35.8504 12.1189 36.0866 12.2759 36.2789 12.4864C36.3856 12.5266 36.4446 12.5036 36.4618 12.4233C36.4751 12.3429 36.4923 12.2395 36.5113 12.1228C36.5151 12.0156 36.5684 11.9658 36.677 11.9697C36.7703 11.9735 36.816 12.0271 36.8103 12.1362L36.7341 13.7917L36.7303 13.8453C36.717 13.9123 36.6808 13.9621 36.6275 13.9889C36.5741 14.0195 36.5151 14.029 36.458 14.029C36.4008 14.0252 36.3456 14.0023 36.3018 13.9563C36.258 13.9123 36.2351 13.8491 36.2389 13.7688C36.2256 13.7554 36.2218 13.742 36.2218 13.7324L36.2256 13.696H36.2275ZM33.9763 18.9364C33.8906 18.5057 33.8335 18.0119 33.8068 17.4607C33.7801 16.9038 33.7801 16.3392 33.8163 15.765C33.8468 15.1908 33.9058 14.6338 33.9896 14.0922C34.0753 13.5486 34.1858 13.0644 34.3191 12.6434C34.3096 12.6663 34.2963 12.6836 34.2925 12.6874C34.2887 12.6912 34.2791 12.7046 34.2658 12.7314C34.163 12.8577 34.0696 13.0778 33.9839 13.3955C33.8982 13.7094 33.8277 14.0731 33.7744 14.4807C33.7211 14.8884 33.6849 15.3152 33.6621 15.7688C33.6392 16.2167 33.6354 16.6473 33.6449 17.0607C33.6582 17.4684 33.6887 17.8378 33.7382 18.1593C33.7878 18.4828 33.8544 18.7105 33.9439 18.8464C33.9573 18.8694 33.9611 18.8866 33.9611 18.8904C33.9611 18.8943 33.9649 18.9134 33.9744 18.9345L33.9763 18.9364Z" fill="white"/>
<path d="M58.8798 22.3414C58.9731 22.3548 59.0131 22.418 58.9959 22.5213C58.9788 22.6151 58.9236 22.6553 58.8303 22.6381L57.0495 22.3414C56.9295 22.6381 56.7638 22.906 56.5581 23.1529C56.3486 23.4037 56.0991 23.6065 55.8077 23.7635C55.522 23.9166 55.1963 24.02 54.8345 24.0678C54.4726 24.1176 54.0802 24.085 53.6555 23.9817C53.0442 23.8209 52.5794 23.5778 52.2576 23.2506C51.9319 22.9271 51.6995 22.5635 51.5662 22.1596C51.4272 21.7596 51.3472 21.3385 51.3205 20.9041C51.2977 20.4696 51.2767 20.06 51.2634 19.683C51.2462 19.3098 51.1967 18.9825 51.1167 18.7145C51.0367 18.4408 50.871 18.2667 50.6215 18.1901L50.2425 20.4926C50.1987 20.7624 50.3092 20.9194 50.5777 20.9634C50.671 20.9768 50.711 21.0304 50.6939 21.1242C50.6806 21.2314 50.6215 21.2773 50.5282 21.2581L48.1894 20.8715C48.0961 20.8543 48.0561 20.795 48.0732 20.6878C48.0865 20.594 48.1456 20.5576 48.2332 20.571C48.5055 20.6151 48.6617 20.4983 48.7074 20.217L49.7073 14.1192L49.7169 14.0656C49.7607 13.7957 49.6502 13.6388 49.3817 13.5948C49.2883 13.5814 49.2521 13.5278 49.2655 13.434C49.2826 13.3268 49.3378 13.2809 49.4312 13.3L52.5604 13.8168C52.9089 13.8742 53.1946 14.0637 53.4136 14.3814C53.6289 14.7048 53.726 15.0723 53.7031 15.4896C53.6993 15.5967 53.686 15.7231 53.6593 15.8704C53.6365 16.014 53.6155 16.1671 53.587 16.324C53.5603 16.4848 53.5336 16.6379 53.5108 16.7815C53.4841 16.9288 53.4613 17.0552 53.4308 17.1585C53.3736 17.3652 53.2879 17.5355 53.1756 17.6753C53.0632 17.815 52.9432 17.926 52.8137 18.0121C52.6842 18.1021 52.5585 18.1652 52.4347 18.1997C52.3052 18.2399 52.2023 18.2667 52.1185 18.2762C52.1052 18.2724 52.0957 18.2667 52.0919 18.2628C52.0881 18.2533 52.0785 18.2494 52.0652 18.2494C52.288 18.4294 52.4404 18.6571 52.5204 18.9365C52.6004 19.2141 52.6537 19.5107 52.6899 19.8246C52.7204 20.1347 52.7432 20.4524 52.7566 20.772C52.7699 21.0955 52.8061 21.3998 52.8689 21.6869C52.9356 21.9969 53.0346 22.284 53.1584 22.5347C53.2841 22.7912 53.4574 22.996 53.686 23.1587C53.8917 23.2984 54.1279 23.396 54.4002 23.4458C54.6726 23.4994 54.9411 23.4898 55.2039 23.4286C55.4668 23.3616 55.7125 23.2352 55.9505 23.0477C56.1829 22.8544 56.3791 22.5941 56.5257 22.2572C56.5619 22.2036 56.5829 22.1539 56.5981 22.1041C56.6114 22.0601 56.6286 22.0103 56.6514 21.951C56.7771 21.5376 56.7771 21.1605 56.6476 20.8256C56.5181 20.4849 56.3257 20.2055 56.0762 19.995C55.821 19.7844 55.5315 19.6485 55.2058 19.5911C54.8802 19.5337 54.5811 19.5681 54.3088 19.704C54.3221 19.838 54.3088 19.9548 54.2688 20.0581C54.2288 20.1615 54.1659 20.2419 54.086 20.3088C54.0002 20.372 53.9126 20.4122 53.8136 20.4256C53.7146 20.439 53.6212 20.4218 53.5374 20.3682C53.4079 20.2878 53.3222 20.1615 53.2917 19.995C53.2613 19.8284 53.3051 19.6677 53.4251 19.5184C53.5279 19.3787 53.6936 19.2715 53.9069 19.1949C54.1259 19.1145 54.3183 19.061 54.4916 19.0284C54.5545 19.015 54.6173 19.0054 54.684 19.0054H54.8897L56.501 15.101C56.5143 14.8847 56.4019 14.7603 56.1715 14.7202C56.0648 14.7029 56.0191 14.6474 56.0381 14.5536C56.0515 14.4503 56.1143 14.4063 56.221 14.4235L56.8324 14.523L56.8495 14.5268L58.3008 14.7699L58.5369 21.9529C58.5503 22.173 58.6665 22.3032 58.8855 22.3395L58.8798 22.3414ZM56.1258 19.3404C56.2915 19.4265 56.4514 19.5413 56.6133 19.6906C56.779 19.838 56.8895 19.9777 56.9523 20.1079L56.8 16.1097L55.5677 19.1203C55.6572 19.1471 55.7506 19.1777 55.8496 19.2198C55.9429 19.26 56.0362 19.3002 56.1258 19.3404ZM52.6156 17.6351C52.7985 17.5355 52.9451 17.3212 53.0575 16.9977C53.1737 16.6743 53.2441 16.3336 53.2803 15.9795C53.3165 15.6254 53.2975 15.302 53.2308 15.0149C53.1641 14.7278 53.048 14.5613 52.8727 14.5211C52.9851 14.7182 53.0556 14.9556 53.088 15.2254C53.1241 15.4953 53.1241 15.7728 53.0975 16.0561C53.0708 16.3393 53.008 16.6207 52.9242 16.9039C52.8346 17.1815 52.7318 17.4284 52.6156 17.6351ZM50.892 14.2302L50.7129 14.2168L49.6997 20.4045L49.6959 20.4218L49.8692 20.4486L49.873 20.4313L50.892 14.2302ZM52.0842 16.8102C52.1242 16.636 52.1699 16.4025 52.2176 16.1097C52.2671 15.8187 52.2976 15.5795 52.3166 15.4053C52.3433 15.0953 52.3128 14.835 52.2176 14.6206C52.128 14.4044 52.0119 14.2532 51.8728 14.1594C51.7338 14.0598 51.6005 14.0254 51.4748 14.0464C51.3548 14.0694 51.2786 14.1536 51.2558 14.3067L50.6749 17.8379C51.0462 17.9011 51.3529 17.8341 51.5948 17.6312C51.8405 17.4303 52.0004 17.1547 52.0823 16.8102H52.0842ZM51.8386 18.5384C52.0043 18.7719 52.1109 19.082 52.1604 19.4667C52.2099 19.8533 52.2538 20.2572 52.2861 20.6687C52.3223 21.0859 52.3756 21.4763 52.4518 21.8534C52.528 22.2266 52.6747 22.5079 52.8975 22.7013C52.7051 22.4046 52.589 22.0505 52.549 21.6429C52.509 21.2352 52.4728 20.8256 52.4461 20.4179C52.4156 20.0103 52.3661 19.6332 52.2995 19.2925C52.2271 18.9461 52.0766 18.7011 51.8405 18.5384H51.8386ZM58.2151 21.8189L57.9561 15.4034L57.7961 15.3939L58.0418 21.7883L58.0379 21.8055L58.2113 21.8323L58.2151 21.8189ZM54.7107 21.1816C54.5907 21.4725 54.6878 21.6486 55.0002 21.6984C55.103 21.7156 55.1468 21.7787 55.1297 21.8821C55.1163 21.9759 55.0573 22.0161 54.9506 21.9988L53.4822 21.7519C53.3794 21.7385 53.3355 21.6792 53.3489 21.5854C53.366 21.4821 53.4289 21.4381 53.5317 21.4553C53.6974 21.4821 53.8079 21.4591 53.8669 21.3826C53.9298 21.3098 53.9793 21.216 54.0231 21.0993L54.5012 19.9375C54.7202 19.9012 54.9563 19.9146 55.2116 19.9816L54.7107 21.1797V21.1816Z" fill="white"/>
<path d="M2.50504 22.6953C2.41171 22.2685 2.34505 21.945 2.29553 21.7307C2.25173 21.5144 2.20602 21.3173 2.16221 21.1431C2.11841 20.9632 2.0727 20.766 2.02889 20.5517C1.97937 20.3354 1.91271 20.0139 1.81939 19.5871L0.667121 14.207L0.653789 14.1343C0.600461 13.8778 0.444286 13.7802 0.189072 13.8338C0.0862254 13.8567 0.0233743 13.8204 0.00623316 13.7304C-0.0166218 13.6232 0.0233743 13.5601 0.126221 13.5371L2.43076 13.0395C2.53361 13.0165 2.60027 13.0567 2.62312 13.1658C2.64026 13.2558 2.60027 13.3132 2.49361 13.3362C2.39076 13.3591 2.30696 13.4165 2.24411 13.5103C2.17745 13.6003 2.15459 13.6979 2.17745 13.807C2.31077 14.4309 2.45361 15.0951 2.60598 15.7898C2.75263 16.4846 2.90881 17.1946 3.06498 17.9124C3.22497 18.6301 3.38114 19.3402 3.53351 20.0445C3.68016 20.745 3.823 21.413 3.95823 22.0369C4.04774 22.4541 3.97537 22.8446 3.7392 23.2082C3.50303 23.568 3.17735 23.792 2.75644 23.8819L2.55075 23.926C2.21554 23.9987 1.89938 23.9527 1.60417 23.7862C1.30896 23.6197 1.10898 23.3786 1.00614 23.0589C0.916621 22.812 0.907098 22.6187 0.979472 22.4809C1.05565 22.347 1.15279 22.2608 1.27849 22.2245C1.40419 22.1938 1.5337 22.2072 1.66321 22.2685C1.78892 22.3316 1.86891 22.4388 1.9051 22.5919C1.93176 22.7317 1.89557 22.8618 1.79844 22.9786C1.69559 23.0991 1.60227 23.1661 1.52228 23.1853L1.4918 23.1891C1.57751 23.3058 1.67083 23.3901 1.77368 23.4494C1.87653 23.5068 1.99652 23.5221 2.13555 23.4896C2.27458 23.457 2.37743 23.3594 2.4479 23.1853C2.52027 23.0111 2.54122 22.8484 2.51075 22.6953H2.50504ZM3.20973 21.3402C3.25925 21.5737 3.30305 21.7938 3.33924 21.9948C3.37924 22.2015 3.4059 22.4216 3.41923 22.6628C3.45542 22.6053 3.47637 22.5154 3.47637 22.3852C3.48018 22.2589 3.47256 22.1115 3.45923 21.9546C3.44209 21.7938 3.41923 21.6273 3.39638 21.457C3.36971 21.2866 3.34305 21.1297 3.31639 20.99L1.8251 14.0271L1.65179 14.0673L3.20973 21.3402Z" fill="white"/>
<path d="M8.51034 20.8065C8.54082 20.9501 8.56748 21.0572 8.59034 21.1376C8.61319 21.218 8.617 21.2774 8.59986 21.3175C8.58653 21.3577 8.54653 21.3845 8.48368 21.4075C8.42083 21.4247 8.3237 21.4515 8.18466 21.4802L4.84023 22.2018C4.73357 22.2247 4.67072 22.1788 4.64786 22.0755C4.63072 21.9855 4.67072 21.9281 4.77738 21.9051C5.04021 21.8477 5.14877 21.6888 5.09353 21.4343L5.07639 21.3673L3.79461 15.3595L3.78509 15.3059C3.72795 15.0418 3.56606 14.9327 3.30323 14.992C3.19658 15.015 3.13373 14.9786 3.11658 14.8848C3.09373 14.7815 3.13373 14.7183 3.23657 14.6972L6.73718 13.9432C6.84384 13.9202 6.90669 13.9604 6.92955 14.0637L7.23237 15.4954C7.24952 15.5853 7.20952 15.6427 7.10667 15.6657C7.00383 15.6887 6.94097 15.6523 6.92383 15.5623C6.84765 15.1987 6.71433 14.9384 6.52197 14.7815C6.33532 14.6207 6.14677 14.5384 5.96012 14.5307C5.77347 14.5212 5.61158 14.5709 5.47826 14.6781C5.34875 14.7853 5.29923 14.925 5.33542 15.0992L5.73347 16.9614L6.01916 18.3031L6.03249 18.3567C6.19248 18.3433 6.31818 18.2763 6.40388 18.15C6.48959 18.0198 6.50292 17.8036 6.43436 17.5031C6.4115 17.3997 6.4515 17.3366 6.55434 17.3155C6.64386 17.2925 6.701 17.3385 6.72385 17.4418L7.05906 19.0074C7.0762 19.1012 7.04192 19.1605 6.9524 19.1778C6.84955 19.2007 6.79242 19.1644 6.76956 19.0706C6.73909 18.9232 6.68957 18.8103 6.63053 18.7471C6.56768 18.6801 6.50483 18.6438 6.44769 18.6304C6.38484 18.6208 6.32199 18.6208 6.26104 18.6342C6.19819 18.6476 6.14486 18.6572 6.10106 18.6706L6.41341 20.1328L6.58291 20.9309C6.6191 21.0917 6.72576 21.2008 6.90479 21.2448C7.08763 21.2888 7.27618 21.285 7.46283 21.2218C7.65519 21.1644 7.81517 21.0611 7.94469 20.9118C8.07801 20.7587 8.10467 20.5654 8.03039 20.328C7.99992 20.3453 7.9504 20.3644 7.87803 20.3778C7.73899 20.4084 7.60948 20.3816 7.48949 20.3051C7.37331 20.2285 7.29713 20.1213 7.26666 19.9816C7.23999 19.8419 7.26285 19.7079 7.33903 19.5816C7.41521 19.4553 7.52187 19.3806 7.6609 19.3481C7.85708 19.3079 8.00944 19.3443 8.11229 19.461C8.21514 19.5778 8.2818 19.7213 8.31798 19.8821L8.51415 20.8027L8.51034 20.8065ZM6.27247 21.2008L4.96021 15.036L4.7869 15.0724L6.07249 21.0974L6.09915 21.218L6.27247 21.2008Z" fill="white"/>
<path d="M14.8337 17.7324C15.1061 17.7821 15.3556 17.8798 15.5803 18.0329C15.8032 18.1898 15.9917 18.3831 16.1384 18.6166C16.2907 18.8501 16.3936 19.1066 16.4469 19.3937C16.5002 19.6808 16.5097 19.9774 16.464 20.2875C16.3917 20.7583 16.1955 21.1449 15.8831 21.4454C15.5708 21.7459 15.2127 21.9488 14.8204 22.0464C14.4223 22.1497 14.0167 22.1459 13.5977 22.0464C13.1786 21.943 12.8244 21.7287 12.5387 21.3918C12.373 21.2119 12.2492 20.9976 12.1635 20.7411C12.0778 20.4846 12.0073 20.2205 11.954 19.9468C11.9007 19.6731 11.8473 19.4032 11.7978 19.1429C11.7445 18.8827 11.6721 18.653 11.5788 18.4558C11.4855 18.2625 11.356 18.1152 11.1941 18.008C11.0341 17.9046 10.8189 17.8778 10.5503 17.9219L10.9484 20.2243C10.9979 20.4942 11.1541 20.6052 11.4226 20.5554C11.5255 20.5382 11.5883 20.5727 11.6017 20.6684C11.6188 20.7717 11.5788 20.8349 11.4721 20.8521L9.15046 21.2598C9.04762 21.277 8.98477 21.233 8.96762 21.1296C8.95048 21.0358 8.99429 20.9822 9.10095 20.9593C9.36949 20.9153 9.47615 20.7487 9.42663 20.4693L8.3734 14.3811L8.36006 14.3083C8.31626 14.0519 8.16008 13.9485 7.89154 13.9945C7.78869 14.0117 7.72584 13.9715 7.7087 13.8643C7.69156 13.7705 7.73536 13.7169 7.83821 13.6978L10.4951 13.2308L10.5122 13.227H10.5294L10.5427 13.2231L10.5789 13.2193L10.9636 13.1523C11.3122 13.0892 11.6417 13.1753 11.9464 13.4031C12.2492 13.6327 12.4606 13.9504 12.5768 14.3505C12.6073 14.4538 12.6396 14.5801 12.6701 14.7237C12.7006 14.8672 12.7273 15.0203 12.7558 15.1677C12.7825 15.3208 12.8053 15.472 12.8225 15.6213C12.8453 15.7649 12.8587 15.895 12.8625 16.0022C12.8891 16.2854 12.8358 16.5534 12.6968 16.806C12.5635 17.0625 12.3882 17.273 12.1787 17.4434C12.4073 17.5199 12.5844 17.673 12.7063 17.8912C12.8263 18.1113 12.9291 18.3678 13.0091 18.6587C13.0891 18.9554 13.1615 19.2597 13.2244 19.5793C13.2872 19.9028 13.3672 20.1994 13.47 20.4674C13.5691 20.7411 13.7024 20.965 13.8719 21.1411C14.0414 21.3172 14.27 21.3976 14.5557 21.3842C14.9004 21.3708 15.1765 21.2808 15.3899 21.12C15.5994 20.9535 15.7479 20.7564 15.8317 20.5191C15.9155 20.2817 15.9479 20.0253 15.925 19.7611C15.9022 19.4913 15.8317 19.2501 15.7098 19.03C15.5841 18.8099 15.4241 18.6396 15.2223 18.519C15.0223 18.3984 14.7804 18.3621 14.5042 18.4118C14.5614 18.6185 14.548 18.7889 14.4642 18.9228C14.3842 19.0568 14.2719 19.1468 14.1347 19.187C14.0014 19.231 13.8662 19.2176 13.7329 19.1506C13.6034 19.0836 13.5177 18.9439 13.4834 18.7334C13.4529 18.5592 13.4739 18.4023 13.5558 18.2664C13.6319 18.1362 13.7386 18.0233 13.8719 17.9353C14.0052 17.8453 14.1614 17.7783 14.3366 17.7419C14.5099 17.7056 14.6756 17.7056 14.8375 17.7381L14.8337 17.7324ZM10.5332 20.3124L10.5294 20.2951L9.4571 14.1036L9.29712 14.1304L10.3694 20.3047L10.3789 20.3411L10.5351 20.3143L10.5332 20.3124ZM11.476 16.1132C11.476 16.0328 11.4626 15.9295 11.4398 15.8031C11.4226 15.6826 11.3998 15.5524 11.3731 15.4165C11.3503 15.2825 11.3293 15.1562 11.3064 15.0299C11.2893 14.9093 11.2626 14.806 11.2398 14.7294C11.1636 14.4289 11.0474 14.1916 10.8912 14.0213C10.7351 13.8509 10.5751 13.7437 10.4132 13.6978C10.2475 13.6538 10.1104 13.6614 10.0018 13.7246C9.88944 13.782 9.84944 13.8911 9.87611 14.0423L10.4837 17.5506C10.8589 17.4874 11.1274 17.3171 11.2874 17.0472C11.4531 16.7773 11.5159 16.4692 11.474 16.1094L11.476 16.1132ZM12.2835 16.7142C12.4225 16.5572 12.493 16.3103 12.4987 15.9735C12.4987 15.6328 12.4587 15.2921 12.373 14.9457C12.2873 14.5993 12.1673 14.295 12.0073 14.0442C11.8512 13.7878 11.6816 13.6672 11.5064 13.6844C11.6893 13.8375 11.8359 14.0308 11.9578 14.2758C12.0778 14.5189 12.173 14.783 12.2302 15.0701C12.293 15.3534 12.3292 15.6404 12.3368 15.9275C12.3406 16.2146 12.3273 16.4749 12.2835 16.7123V16.7142ZM12.0073 17.8128C12.154 17.9161 12.2759 18.0731 12.3692 18.2798C12.4587 18.4903 12.5349 18.7238 12.5977 18.9841C12.6606 19.2444 12.7177 19.5085 12.7711 19.7822C12.8244 20.0559 12.8872 20.3162 12.9577 20.5535C13.0301 20.7966 13.1272 20.9976 13.2434 21.1641C13.3634 21.3306 13.5158 21.4378 13.7024 21.4913C13.4396 21.2712 13.251 20.9708 13.1444 20.5841C13.032 20.1975 12.9444 19.8128 12.8682 19.4224C12.7958 19.0319 12.7025 18.6817 12.592 18.3774C12.4759 18.0731 12.2835 17.8836 12.0073 17.8128ZM15.1994 13.1868L15.7841 16.5706C15.807 16.6874 15.8241 16.7869 15.847 16.8673C15.8641 16.9477 15.8965 17.0338 15.9403 17.1142C15.9841 17.1946 16.0431 17.2845 16.1136 17.384C16.186 17.4778 16.2793 17.5946 16.3993 17.7305C16.4431 17.7936 16.4659 17.8568 16.4564 17.9104C16.4469 17.9678 16.4259 18.0099 16.3898 18.0405C16.3498 18.0711 16.3041 18.0845 16.2507 18.0807C16.1974 18.0807 16.1441 18.0443 16.0984 17.9812C15.946 17.7936 15.7765 17.6443 15.5975 17.5467C15.4184 17.4434 15.2318 17.3764 15.0394 17.3362C14.8471 17.2998 14.6547 17.2826 14.468 17.2922C14.2757 17.3017 14.0928 17.3228 13.9195 17.3553C13.8167 17.3726 13.7538 17.3247 13.7329 17.2156C13.7195 17.1123 13.7595 17.0548 13.8662 17.0357C14.1347 16.9917 14.2414 16.8347 14.1957 16.5649L13.6472 13.3877C13.63 13.2806 13.571 13.2002 13.4777 13.137C13.3786 13.0739 13.2815 13.0509 13.1786 13.0739C13.072 13.0911 13.0091 13.0471 12.992 12.9437C12.9787 12.8499 13.0225 12.7906 13.1253 12.7734L15.447 12.3657C15.5537 12.3485 15.6127 12.3887 15.6298 12.4825C15.647 12.5858 15.6032 12.649 15.5003 12.6662C15.2413 12.7102 15.1385 12.8633 15.1842 13.1236L15.1975 13.1906L15.1994 13.1868ZM15.4279 16.9056L15.2889 16.0979L14.7842 13.1868L14.6109 13.2136L15.1156 16.1247L15.2413 16.8462L15.4279 16.9036V16.9056Z" fill="white"/>
</svg>
