<svg width="48" height="35" viewBox="0 0 48 35" fill="none" xmlns="http://www.w3.org/2000/svg">
<path fill-rule="evenodd" clip-rule="evenodd" d="M47.952 24.3509C45.1439 25.5258 42.7897 23.6973 41.9109 22.7065C41.9109 22.7065 43.4096 20.3642 43.0065 18.2427C42.813 17.2269 42.1888 16.2832 41.2853 16.8382C40.5665 17.2799 38.8599 20.6351 40.923 23.1143C35.8903 27.924 34.7103 13.9497 32.3693 19.8077C31.9619 20.8279 31.0613 23.1128 30.7324 23.7547C29.8056 18.1559 26.5654 14.2486 23.4256 20.6086C23.4256 20.6086 23.1608 16.6807 21.9793 16.0683C20.1737 15.1319 19.1713 17.7378 18.6286 18.8095C17.4966 21.0443 14.4281 27.0127 12.5977 22.3193C16.8128 9.95268 6.37628 12.4908 11.5065 23.3248C6.20169 29.6318 4.28986 23.684 4.01924 18.7536C5.45529 17.14 6.2046 16.133 7.22453 14.6785C8.5631 12.7705 9.56557 11.0053 10.2872 9.4006C12.3984 4.71307 12.119 2.47088 10.8503 0.988361C8.30994 -1.98404 1.79896 1.3255 2.60501 16.7219C2.7185 18.5475 2.77961 19.1172 2.8058 19.4809C1.78441 20.5526 1.04965 21.2799 0.0937385 22.2457C-0.127416 22.4695 0.0748224 22.8257 0.367271 22.5401C1.38866 21.539 2.79852 20.0712 2.79852 20.0712C2.65739 22.677 4.8864 31.8489 11.8091 23.6914C14.5343 26.7286 16.433 24.6248 17.7469 21.9159C19.0752 19.1761 20.1199 16.1801 21.2097 17.0399C22.1248 18.1279 22.2776 20.9207 22.2776 22.3708C22.2776 25.1018 21.4396 26.3164 23.5973 25.673C23.6031 22.6152 23.1157 21.726 24.6157 19.4279C25.8321 17.5655 27.565 18.0661 28.5776 20.8294C28.969 21.8982 29.2556 24.7205 29.8507 25.1401C31.3202 26.3855 32.3213 20.7131 32.9236 19.6987C34.0498 17.8246 35.3723 29.2196 41.4032 23.4868C42.7039 24.5924 44.2782 25.1827 45.8044 25.1827C47.4485 25.1827 48.2124 24.242 47.949 24.3524L47.952 24.3509ZM3.91739 14.0852C3.91448 6.01745 7.13141 0.851445 9.39825 1.13853C10.8445 1.32255 11.8193 2.12786 11.2373 5.31962C10.8416 7.48966 9.72707 10.2692 7.55335 13.5375C6.47377 15.1599 3.9203 18.2619 3.9203 18.2619C3.9203 18.2619 3.91884 15.9107 3.91739 14.0852ZM11.9284 20.2817C11.7713 19.2321 11.6433 16.3995 12.2427 15.2953C12.3722 15.0568 12.7083 15.0613 12.8349 15.3012C13.8868 17.2843 12.9586 20.1007 12.4042 21.9159C12.2369 21.754 11.927 20.2817 11.927 20.2817H11.9284ZM42.4362 17.9174C42.8741 19.2644 42.2834 21.4065 41.7072 22.3487C40.8081 21.436 40.6349 18.6741 41.892 17.7319C42.0812 17.5905 42.362 17.6906 42.4362 17.9174Z" fill="white"/>
<path d="M15.6531 10.1117C15.6531 9.05462 16.19 8.63357 17.0251 8.63357C17.3292 8.63357 17.5547 8.67626 17.7613 8.74546L17.8792 9.2519C17.5795 9.10615 17.3758 9.07965 17.0964 9.07965C16.5173 9.07965 16.1943 9.39618 16.1943 10.1117C16.1943 10.8272 16.5246 11.1437 17.1168 11.1437C17.4602 11.1437 17.6624 11.0804 17.9418 10.9729L17.8268 11.4735C17.5853 11.55 17.3612 11.5927 17.0222 11.5927C16.1885 11.5927 15.6502 11.1481 15.6502 10.1102L15.6531 10.1117Z" fill="white"/>
<path d="M21.5122 11.1009L21.6431 11.547H19.7008C19.6717 11.0847 19.6498 10.6224 19.6498 10.2058V8.67617H20.1751V10.222C20.1751 10.727 20.1794 10.9287 20.1925 11.0994H21.5136L21.5122 11.1009Z" fill="white"/>
<path d="M24.46 7.83705L23.7369 8.49219H23.2917L23.7107 7.83705H24.46ZM23.296 11.5456V8.67621H23.8125V11.5456H23.296Z" fill="white"/>
<path d="M25.7783 11.5455V8.67617H26.5014L27.7628 10.54V8.67617H28.2415V11.5455H27.7934L26.2613 9.2415V11.5455H25.7783Z" fill="white"/>
<path d="M30.2072 11.5455V8.67617H30.7237V11.5455H30.2072Z" fill="white"/>
<path d="M32.5365 10.1117C32.5365 9.05462 33.0734 8.63357 33.9086 8.63357C34.2126 8.63357 34.4382 8.67626 34.6448 8.74546L34.7626 9.2519C34.4629 9.10615 34.2592 9.07965 33.9798 9.07965C33.4008 9.07965 33.0778 9.39618 33.0778 10.1117C33.0778 10.8272 33.408 11.1437 34.0002 11.1437C34.3436 11.1437 34.5458 11.0804 34.8252 10.9729L34.7102 11.4735C34.4687 11.55 34.2447 11.5927 33.9056 11.5927C33.0719 11.5927 32.5336 11.1481 32.5336 10.1102L32.5365 10.1117Z" fill="white"/>
<path d="M38.0654 10.7918H36.9858L36.8679 11.5456H36.3383L36.8258 8.73663C36.9916 8.68952 37.207 8.6645 37.431 8.6645C37.9985 8.6645 38.1891 8.89122 38.3069 9.45213L38.7594 11.5471H38.2094L38.0654 10.7933V10.7918ZM37.0542 10.3472H37.981L37.8326 9.56255C37.7613 9.19891 37.6333 9.10469 37.4179 9.10469C37.3626 9.10469 37.3248 9.10469 37.2492 9.11352L37.0542 10.3472Z" fill="white"/>
</svg>
