<svg width="116" height="16" viewBox="0 0 116 16" fill="none" xmlns="http://www.w3.org/2000/svg">
<path d="M5.46255 0.3961V9.70446H15.7807C15.9223 9.98569 15.4691 10.6947 15.2749 10.6947H4.24864V1.08928C4.24864 0.6298 5.05791 0.413925 5.46255 0.3961Z" fill="white"/>
<path d="M9.7112 5.74346H15.8819L16.1853 6.73371H8.4973V0L9.7112 0.297075V5.74346Z" fill="white"/>
<path d="M11.9367 13.6655C10.1462 15.1271 6.02701 15.1211 4.24864 13.6655H11.9367Z" fill="white"/>
<path d="M1.11755 11.0908C-0.37555 9.33806 -0.36948 5.30576 1.11755 3.5649L1.11755 11.0908Z" fill="white"/>
<path d="M14.5648 3.16682H12.5416L12.5457 1.1883C12.6691 1.02788 14.8683 2.90341 14.5648 3.16682Z" fill="white"/>
<path d="M37.0787 2.52255C39.9099 1.54192 42.4182 2.01514 44.6043 3.90381C44.8307 3.81142 44.8047 3.6586 44.8073 3.53001C44.8154 3.12941 44.9576 2.86969 45.4243 2.8991C45.9059 2.92944 45.9567 3.25691 45.9577 3.62216C45.9595 4.28109 45.9617 4.94003 45.9611 5.59896C45.9591 7.8258 45.9581 10.0526 45.9504 12.2795C45.9495 12.543 46.0086 12.8443 45.6977 13.0051C45.2831 13.2195 44.8592 12.9782 44.8141 12.5065C44.7797 12.147 44.8685 11.7799 44.7454 11.4261C44.7397 11.4097 44.7085 11.4018 44.6751 11.3812C44.3723 11.4055 44.2355 11.6751 44.0369 11.8479C41.1971 14.3186 36.3793 13.7308 34.3509 10.6605C32.4096 7.72228 33.5829 4.16646 37.0787 2.52255ZM35.8002 10.7308C37.1151 12.1169 38.7861 12.5586 40.6199 12.2762C44.143 11.7336 45.8647 8.54827 44.3324 5.58835C43.285 3.56482 41.312 2.85751 39.038 3.09511C37.144 3.293 35.6984 4.22855 34.9528 5.9597C34.2281 7.6424 34.5067 9.24672 35.8002 10.7308Z" fill="white"/>
<path d="M52.0901 9.13558C51.0982 5.00938 54.5642 2.18301 57.6358 2.04495C59.5745 1.95781 61.3186 2.38148 62.7796 3.69205C62.8637 3.76748 62.9667 3.82457 63.0669 3.8799C63.1019 3.89926 63.1549 3.8876 63.2073 3.89053C63.408 3.74062 63.3162 3.51596 63.3422 3.32475C63.3842 3.01679 63.5646 2.89147 63.8634 2.90031C64.1587 2.90905 64.3479 3.04212 64.3719 3.34682C64.3826 3.48256 64.3846 3.61922 64.3847 3.75546C64.3857 6.59627 64.3877 9.43707 64.3833 12.2779C64.383 12.519 64.456 12.7942 64.2159 12.9762C63.8894 13.2238 63.383 13.0008 63.3524 12.582C63.3234 12.1846 63.3462 11.7835 63.3462 11.134C60.9659 13.4139 58.3846 13.9691 55.527 12.8396C53.8299 12.1688 52.6963 10.9005 52.0901 9.13558ZM55.7664 3.5716C53.6198 4.76182 52.6497 6.72771 53.1933 8.78609C54.0002 11.8418 57.8439 13.2924 60.8832 11.7011C63.9785 10.0806 64.2919 5.92262 61.365 3.98871C59.6203 2.83589 57.7725 2.79986 55.7664 3.5716Z" fill="white"/>
<path d="M23.7774 6.86765C23.3085 9.57448 25.324 12.0672 28.1103 12.3031C29.7535 12.4422 31.254 12.1386 32.4924 10.9894C32.6478 10.8453 32.8207 10.7227 33.0478 10.7535C33.2779 10.7846 33.5305 10.8187 33.6429 11.0493C33.755 11.2793 33.561 11.4322 33.4232 11.5785C32.502 12.5567 31.3277 13.0874 30.0139 13.2824C27.6887 13.6276 25.6453 13.0803 24.0126 11.3286C21.7724 8.92519 22.1002 5.44277 24.7792 3.34C27.13 1.49479 30.904 1.5831 33.1492 3.55228C33.3977 3.7702 33.8971 4.00908 33.567 4.41015C33.2411 4.80615 32.8208 4.66497 32.4142 4.34032C30.193 2.56695 27.3388 2.58392 25.2177 4.38266C24.4647 5.02122 23.9267 5.81081 23.7774 6.86765Z" fill="white"/>
<path d="M46.6116 6.05481C45.7438 4.46165 46.5148 2.76641 48.2218 2.40374C48.4861 2.34758 48.7588 2.29694 48.8571 2.61955C48.9521 2.93115 48.8829 3.22505 48.5178 3.33333C47.8279 3.53797 47.3931 3.93407 47.3397 4.67613C47.2842 5.44709 47.7336 5.90409 48.3403 6.26084C48.8575 6.56496 49.3902 6.84352 49.9134 7.13793C51.0721 7.79 51.9874 8.60641 51.9932 10.0519C51.999 11.4906 50.8575 12.8033 49.409 13.0093C49.1422 13.0472 48.8797 13.0582 48.7828 12.7418C48.6898 12.4379 48.7882 12.2036 49.1066 12.0866C49.215 12.0467 49.3289 12.0211 49.4385 11.9841C50.2794 11.6997 50.8246 11.146 50.9339 10.2711C51.0432 9.3958 50.6354 8.71419 49.9128 8.24046C49.3745 7.88761 48.7835 7.61194 48.2159 7.30201C47.6269 6.98039 47.0307 6.66785 46.6116 6.05481Z" fill="white"/>
<path d="M103.834 10.4704C102.565 8.19686 102.892 5.80894 104.803 3.86331C105.992 2.65317 107.273 1.52954 108.523 0.378028C108.907 0.0242421 109.367 -0.127248 109.856 0.168353C110.211 0.383058 110.425 0.702386 110.335 1.14335C110.264 1.49197 109.926 1.68552 109.756 2.08488C110.87 2.2084 111.891 2.53302 112.818 3.10041C114.581 4.17935 115.557 5.70419 115.56 7.77231C115.562 9.31701 115.558 10.8617 115.553 12.4064C115.551 13.2826 115.248 13.6943 114.599 13.7192C113.951 13.744 113.639 13.3881 113.526 12.5023C113.516 12.4176 113.478 12.3362 113.433 12.1912C109.771 14.122 106.497 13.9897 103.834 10.4704ZM105.367 9.04265C106.302 11.2366 108.996 12.2174 111.269 11.138C112.58 10.5151 113.445 9.50058 113.53 8.01732C113.624 6.39322 112.833 5.21357 111.408 4.46436C109.815 3.62673 107.742 3.83296 106.442 4.98329C105.238 6.04829 104.821 7.3855 105.367 9.04265Z" fill="white"/>
<path d="M90.8188 2.87976C91.1702 3.10836 91.497 3.28864 91.7771 3.52251C92.1596 3.84184 92.2574 4.25026 91.9575 4.67604C91.6558 5.10421 91.2227 5.23217 90.7346 5.03189C90.4599 4.91917 90.2214 4.72396 89.9613 4.5746C88.0163 3.4574 85.5789 3.86649 84.1665 5.55056C83.8876 5.88307 83.6431 6.23779 83.5987 6.76882C84.3073 6.89409 84.9975 6.79354 85.6791 6.82098C86.1889 6.84151 86.7048 6.80801 87.2078 6.87351C87.7624 6.94572 88.1929 7.24728 88.1586 7.85616C88.1246 8.46068 87.6722 8.72419 87.1096 8.74141C86.1121 8.77195 85.1131 8.7521 84.1147 8.75874C83.9566 8.75979 83.7986 8.78913 83.51 8.81883C83.8044 9.6911 84.2631 10.3704 84.9932 10.8426C86.6942 11.9427 88.4345 11.8991 90.1828 10.9369C90.3643 10.837 90.5289 10.7005 90.7195 10.6245C91.2472 10.414 91.691 10.5704 91.9879 11.0237C92.2811 11.4712 92.0928 11.8552 91.7012 12.1515C90.1008 13.3625 88.2977 13.7626 86.3204 13.3888C82.8847 12.7393 80.7643 9.71825 81.4852 6.52072C81.9648 4.39382 84.3363 2.38561 86.5924 2.15677C88.0592 2.00798 89.4623 2.14812 90.8188 2.87976Z" fill="white"/>
<path d="M96.9123 11.4195C98.4356 11.8664 99.8061 11.6526 101.084 10.8305C101.161 10.7806 101.24 10.7314 101.322 10.6885C101.838 10.4168 102.328 10.4359 102.68 10.9237C103.053 11.4385 102.826 11.8885 102.371 12.2218C101.032 13.2009 99.5063 13.619 97.8535 13.4717C97.3002 13.4223 96.9179 13.5609 96.5543 13.9217C96.1631 14.3098 95.7659 14.6939 95.3481 15.0539C94.8082 15.5192 94.1977 15.5233 93.8002 15.0822C93.3391 14.5704 93.5584 14.1168 93.9581 13.6986C94.2734 13.3687 94.6053 13.0541 94.9343 12.7282C94.9079 12.4568 94.6604 12.3863 94.4782 12.2613C91.2726 10.0615 91.3041 5.45229 94.5408 3.27433C96.9113 1.67923 99.8855 1.67753 102.247 3.27616C102.656 3.55342 103.047 3.8673 102.937 4.43325C102.802 5.12131 101.995 5.3964 101.344 4.94663C100.425 4.31177 99.4516 3.92627 98.3015 3.95783C96.1448 4.01702 94.521 5.29447 94.144 7.28314C93.8327 8.92513 94.976 10.6615 96.9123 11.4195Z" fill="white"/>
<path d="M74.4969 8.18723C74.4952 7.00539 74.4827 5.89166 74.4963 4.77823C74.5028 4.24661 74.3149 3.98617 73.7268 4.00639C72.6139 4.04463 71.4993 4.03758 70.3854 4.05008C70.2927 4.05112 70.1999 4.06358 70.1074 4.06096C69.3772 4.04028 68.8531 3.66526 68.8318 3.15091C68.8094 2.61235 69.3442 2.16582 70.1041 2.16339C73.633 2.15207 77.162 2.1521 80.6909 2.16343C81.4232 2.16578 81.916 2.58908 81.9012 3.12389C81.8862 3.66864 81.4253 4.00037 80.6426 4.00589C79.5747 4.01342 78.5067 4.00577 77.4387 4.00734C76.5397 4.00866 76.5288 4.01694 76.528 4.8723C76.5257 7.28136 76.5272 9.69043 76.5267 12.0995C76.5266 12.3267 76.5355 12.555 76.5173 12.781C76.4668 13.4072 76.0874 13.7897 75.5221 13.801C74.939 13.8128 74.4922 13.3962 74.482 12.7548C74.4646 11.6645 74.4892 10.5735 74.4951 9.48273C74.4973 9.07365 74.4963 8.66455 74.4969 8.18723Z" fill="white"/>
</svg>
