<svg width="126" height="13" viewBox="0 0 126 13" fill="none" xmlns="http://www.w3.org/2000/svg">
<path d="M45.8885 12.0776C45.3809 12.1255 44.9061 12.1961 44.431 12.1987C42.1905 12.2108 39.9499 12.2042 37.7093 12.2043C37.6042 12.2043 37.4991 12.2043 37.3647 12.2043C37.3647 8.88555 37.3647 5.59017 37.3647 2.25187C37.4569 2.24511 37.5695 2.22974 37.682 2.22968C39.8563 2.22857 42.0306 2.22014 44.2048 2.23406C45.0726 2.23962 45.9204 2.37789 46.6746 2.85415C47.4993 3.37494 47.8464 4.13839 47.7197 5.0914C47.5903 6.06468 47.0525 6.71165 46.0728 6.94947C46.0106 6.96457 45.9519 6.99423 45.9479 6.99572C46.4145 7.18703 46.9641 7.31375 47.399 7.60937C48.6758 8.47723 48.6356 10.5645 47.3277 11.4605C46.914 11.744 46.393 11.8706 45.8885 12.0776ZM44.1193 7.81227C42.43 7.81227 40.7407 7.81227 39.042 7.81227C39.042 8.82506 39.042 9.785 39.042 10.753C39.1296 10.7644 39.194 10.7801 39.2585 10.7801C40.9533 10.7804 42.6484 10.7926 44.343 10.769C44.7865 10.7628 45.2416 10.6898 45.668 10.5665C46.2662 10.3936 46.5548 9.93367 46.5565 9.30674C46.5581 8.67385 46.2805 8.21452 45.6775 8.04435C45.1999 7.90956 44.6911 7.88567 44.1193 7.81227ZM42.2183 3.65853C41.1626 3.65853 40.1069 3.65853 39.0465 3.65853C39.0465 4.60891 39.0465 5.51503 39.0465 6.42732C40.7975 6.42732 42.5195 6.42967 44.2415 6.42411C44.4388 6.42347 44.6395 6.39478 44.8324 6.35122C45.3692 6.23 45.849 6.02567 45.997 5.41702C46.2102 4.54004 45.7767 3.86075 44.835 3.75476C43.9963 3.66036 43.1441 3.68592 42.2183 3.65853Z" fill="white"/>
<path d="M95.6851 8.51524C95.6851 7.21949 95.6851 5.96353 95.6851 4.70757C95.6566 4.69401 95.6281 4.68045 95.5997 4.6669C94.0474 6.54842 92.4951 8.42995 90.8932 10.3716C89.3017 8.44227 87.7341 6.54178 86.1109 4.5739C86.1109 7.16052 86.1109 9.65949 86.1109 12.1815C85.5436 12.1815 85.0075 12.1815 84.4553 12.1815C84.4553 8.8686 84.4553 5.5717 84.4553 2.22896C85.0345 2.22896 85.6004 2.21577 86.1647 2.24005C86.278 2.24492 86.4079 2.37378 86.4917 2.47672C87.8565 4.15192 89.215 5.83226 90.5754 7.51108C90.6834 7.64437 90.7946 7.77503 90.9227 7.92899C91.0131 7.82605 91.0933 7.74079 91.1668 7.65012C92.5108 5.99212 93.8612 4.33921 95.191 2.66987C95.4419 2.35493 95.6867 2.17215 96.1126 2.21905C96.5179 2.26368 96.932 2.22866 97.3705 2.22866C97.3705 5.54973 97.3705 8.85782 97.3705 12.1845C96.8257 12.1845 96.2755 12.1845 95.6851 12.1845C95.6851 10.9614 95.6851 9.75825 95.6851 8.51524Z" fill="white"/>
<path d="M120.129 8.74868C120.032 8.68151 119.957 8.59856 119.881 8.59812C118.531 8.59025 117.181 8.59241 115.8 8.59241C115.8 9.79488 115.8 10.9695 115.8 12.1738C115.223 12.1738 114.677 12.1738 114.11 12.1738C114.11 8.8719 114.11 5.57477 114.11 2.25156C114.208 2.24416 114.31 2.22981 114.412 2.22977C116.599 2.22886 118.788 2.2012 120.974 2.24709C121.636 2.26098 122.322 2.39791 122.947 2.62112C124.239 3.08322 124.928 4.15329 124.9 5.4597C124.872 6.78795 124.089 7.83349 122.783 8.2797C122.534 8.36457 122.281 8.43552 121.986 8.52646C123.043 9.73869 124.076 10.9246 125.191 12.2038C124.837 12.2038 124.566 12.1674 124.309 12.2104C123.418 12.359 122.809 12.0299 122.278 11.2933C121.636 10.4037 120.865 9.60777 120.129 8.74868ZM123.124 5.66224C123.194 4.67402 122.785 4.08662 121.849 3.85165C121.619 3.79405 121.379 3.74814 121.144 3.74689C119.383 3.73751 117.622 3.74054 115.861 3.7417C115.84 3.74172 115.82 3.76839 115.805 3.77884C115.805 4.88946 115.805 5.99534 115.805 7.08383C117.67 7.08383 119.51 7.11074 121.349 7.07318C122.363 7.05248 122.947 6.55471 123.124 5.66224Z" fill="white"/>
<path d="M54.8626 10.346C54.8626 7.62887 54.8626 4.95155 54.8626 2.29129C54.9171 2.26104 54.9389 2.23824 54.9605 2.23846C57.0146 2.25961 59.0723 2.21538 61.1214 2.32772C62.6133 2.40951 63.9659 2.98245 64.9521 4.17769C67.0923 6.77174 65.9288 10.6932 62.6757 11.7639C61.8953 12.0207 61.0468 12.1501 60.2238 12.1808C58.5154 12.2446 56.8031 12.2031 55.0924 12.2038C55.0289 12.2038 54.9653 12.1921 54.8626 12.1821C54.8626 11.5721 54.8626 10.9789 54.8626 10.346ZM63.419 4.97966C62.8581 4.39603 62.1637 4.01825 61.3794 3.91285C60.4655 3.79002 59.536 3.77325 58.6122 3.73843C57.9427 3.7132 57.2716 3.7335 56.6 3.7335C56.6 6.08086 56.6 8.38073 56.6 10.6836C57.8761 10.6836 59.1327 10.7161 60.3862 10.6685C60.932 10.6478 61.4933 10.5243 62.0102 10.3416C64.2788 9.53973 64.987 6.89117 63.419 4.97966Z" fill="white"/>
<path d="M77.6643 10.7168C77.7791 10.7794 77.9157 10.839 77.9188 10.9048C77.9386 11.3245 77.9289 11.7457 77.9289 12.1838C74.6088 12.1838 71.3286 12.1838 68.0282 12.1838C68.0282 8.86663 68.0282 5.56972 68.0282 2.25083C71.274 2.25083 74.5154 2.25083 77.7777 2.25083C77.7777 2.73489 77.7777 3.20651 77.7777 3.71427C75.0984 3.71427 72.4276 3.71427 69.7305 3.71427C69.7305 4.61575 69.7305 5.48163 69.7305 6.37628C71.9745 6.37628 74.2104 6.37628 76.4779 6.37628C76.4779 6.88581 76.4779 7.36771 76.4779 7.87583C74.237 7.87583 72.0004 7.87583 69.734 7.87583C69.734 8.82118 69.734 9.74179 69.734 10.7167C72.358 10.7167 74.9912 10.7167 77.6643 10.7168Z" fill="white"/>
<path d="M102.374 6.72449C103.144 5.30242 103.903 3.90738 104.648 2.50467C104.764 2.28544 104.9 2.2103 105.143 2.22339C105.656 2.25103 106.269 2.08033 106.658 2.30608C107.031 2.52247 107.177 3.13522 107.416 3.57745C108.887 6.30216 110.357 9.0279 111.827 11.7534C111.895 11.8795 111.961 12.0066 112.065 12.2021C111.453 12.2021 110.893 12.2137 110.334 12.1908C110.241 12.187 110.126 12.0487 110.07 11.9459C109.725 11.3199 109.389 10.6891 109.064 10.0531C108.969 9.86774 108.864 9.78796 108.641 9.78919C106.692 9.80002 104.743 9.79086 102.794 9.80575C102.664 9.80675 102.48 9.92449 102.414 10.0407C102.061 10.6615 101.728 11.2942 101.409 11.9338C101.305 12.1434 101.18 12.216 100.952 12.2085C100.464 12.1925 99.9749 12.2036 99.4114 12.2036C100.413 10.3483 101.385 8.54863 102.374 6.72449ZM106.694 5.5445C106.38 4.9553 106.066 4.36609 105.728 3.73422C104.906 5.29551 104.115 6.79677 103.309 8.32719C104.957 8.32719 106.535 8.32719 108.159 8.32719C107.665 7.39312 107.191 6.49607 106.694 5.5445Z" fill="white"/>
<path d="M3.26905 12.0225C0.0612595 10.6157 -1.00563 6.72591 1.06086 4.02374C1.88998 2.93958 3.04302 2.37617 4.35477 2.11708C6.14353 1.76378 7.88403 1.86473 9.53411 2.72263C10.2639 3.10206 10.987 3.75686 11.3832 4.41885C11.1279 4.54759 10.8744 4.67615 10.6202 4.80349C10.3615 4.93313 10.1021 5.06157 9.81492 5.20455C9.29821 4.41315 8.59988 3.87476 7.68794 3.64183C6.39251 3.31097 5.11117 3.35749 3.87312 3.87416C2.42761 4.47742 1.66122 5.88925 1.78729 7.50444C1.96231 9.747 3.47922 10.792 5.53532 10.9671C6.68585 11.0651 7.8277 10.9852 8.8109 10.2865C9.20345 10.0076 9.52676 9.63112 9.914 9.26874C10.3606 9.48994 10.867 9.74073 11.4112 10.0102C10.9283 10.7577 10.3081 11.3184 9.54336 11.7038C7.5137 12.7267 5.42275 12.7334 3.26905 12.0225Z" fill="white"/>
<path d="M26.1952 3.02521C26.1954 4.52367 26.1789 5.98299 26.2008 7.44174C26.2194 8.6823 26.5688 9.80864 27.7303 10.4402C29.1662 11.2209 30.6616 11.2062 32.1006 10.4357C33.0818 9.9104 33.5407 8.98258 33.5778 7.90817C33.6373 6.18585 33.6105 4.46055 33.62 2.73651C33.6209 2.57971 33.6201 2.42291 33.6201 2.24808C34.1964 2.24808 34.7356 2.24808 35.3353 2.24808C35.3353 2.36446 35.3353 2.4901 35.3353 2.61574C35.3353 4.20746 35.3371 5.79918 35.3348 7.3909C35.3304 10.3637 33.5927 12.2489 30.6265 12.4781C29.2855 12.5816 27.9751 12.453 26.7755 11.7753C25.4113 11.0047 24.6351 9.78643 24.5543 8.26544C24.4483 6.27163 24.5283 4.26792 24.5283 2.24861C25.0659 2.24861 25.6039 2.24861 26.1952 2.24861C26.1952 2.49288 26.1952 2.73935 26.1952 3.02521Z" fill="white"/>
<path d="M15.1324 3.02532C15.1324 5.59351 15.1324 8.12232 15.1324 10.6843C17.5899 10.6843 20.0099 10.6843 22.4612 10.6843C22.4612 11.1976 22.4612 11.6786 22.4612 12.1827C19.4671 12.1827 16.4775 12.1827 13.4602 12.1827C13.4602 8.87547 13.4602 5.57119 13.4602 2.24781C14.0041 2.24781 14.5422 2.24781 15.1324 2.24781C15.1324 2.49296 15.1324 2.73946 15.1324 3.02532Z" fill="white"/>
</svg>
