<svg width="130" height="13" viewBox="0 0 130 13" fill="none" xmlns="http://www.w3.org/2000/svg">
<path d="M47.6514 12.5416C47.1243 12.5913 46.6313 12.6646 46.1379 12.6673C43.8113 12.6799 41.4846 12.6731 39.158 12.6732C39.0488 12.6732 38.9397 12.6732 38.8001 12.6732C38.8001 9.22689 38.8001 5.80491 38.8001 2.33837C38.8959 2.33135 39.0128 2.31538 39.1296 2.31532C41.3874 2.31417 43.6453 2.30541 45.9031 2.31987C46.8042 2.32564 47.6846 2.46922 48.4677 2.96378C49.3241 3.50458 49.6845 4.29736 49.553 5.28698C49.4186 6.29765 48.8601 6.96947 47.8428 7.21643C47.7782 7.23211 47.7172 7.26291 47.7131 7.26446C48.1976 7.46312 48.7683 7.59471 49.22 7.90169C50.5458 8.80289 50.504 10.9704 49.1459 11.9008C48.7164 12.1951 48.1753 12.3267 47.6514 12.5416ZM45.8142 8.11238C44.06 8.11238 42.3059 8.11238 40.5419 8.11238C40.5419 9.16408 40.5419 10.1609 40.5419 11.1661C40.6328 11.1779 40.6998 11.1942 40.7667 11.1942C42.5267 11.1946 44.2869 11.2072 46.0465 11.1827C46.5071 11.1762 46.9797 11.1004 47.4225 10.9724C48.0437 10.7929 48.3433 10.3153 48.345 9.66426C48.3468 9.00706 48.0585 8.53009 47.4323 8.35337C46.9364 8.21341 46.408 8.1886 45.8142 8.11238ZM43.8403 3.79907C42.744 3.79907 41.6477 3.79907 40.5466 3.79907C40.5466 4.78596 40.5466 5.72689 40.5466 6.67422C42.3648 6.67422 44.153 6.67666 45.9411 6.67089C46.146 6.67023 46.3545 6.64043 46.5548 6.5952C47.1121 6.46933 47.6104 6.25714 47.7641 5.62511C47.9855 4.71444 47.5354 4.00905 46.5575 3.89899C45.6866 3.80097 44.8016 3.8275 43.8403 3.79907Z" fill="white"/>
<path d="M99.361 8.84236C99.3611 7.49682 99.3611 6.19262 99.3611 4.88841C99.3315 4.87433 99.3019 4.86025 99.2723 4.84617C97.6604 6.79998 96.0485 8.75379 94.3851 10.77C92.7325 8.76659 91.1046 6.79308 89.419 4.7496C89.419 7.43559 89.419 10.0306 89.419 12.6495C88.83 12.6495 88.2733 12.6495 87.6998 12.6495C87.6998 9.20929 87.6998 5.78573 87.6998 2.31457C88.3013 2.31457 88.889 2.30088 89.475 2.32609C89.5926 2.33115 89.7274 2.46496 89.8145 2.57185C91.2317 4.31141 92.6425 6.0563 94.0551 7.79962C94.1672 7.93803 94.2827 8.07371 94.4157 8.23358C94.5096 8.12669 94.5928 8.03815 94.6692 7.944C96.0648 6.2223 97.4671 4.5059 98.848 2.77242C99.1085 2.44538 99.3628 2.25558 99.805 2.30428C100.226 2.35063 100.656 2.31426 101.111 2.31426C101.111 5.76292 101.111 9.1981 101.111 12.6525C100.545 12.6525 99.9742 12.6525 99.361 12.6525C99.361 11.3825 99.361 10.1331 99.361 8.84236Z" fill="white"/>
<path d="M124.744 9.08476C124.643 9.01501 124.565 8.92887 124.486 8.92842C123.084 8.92025 121.683 8.92249 120.248 8.92249C120.248 10.1712 120.248 11.3909 120.248 12.6415C119.65 12.6415 119.083 12.6415 118.493 12.6415C118.493 9.21272 118.493 5.78892 118.493 2.33804C118.595 2.33036 118.701 2.31545 118.807 2.31541C121.079 2.31446 123.351 2.28575 125.622 2.3334C126.309 2.34782 127.022 2.49001 127.67 2.7218C129.012 3.20165 129.727 4.31283 129.698 5.66943C129.669 7.04871 128.856 8.13441 127.5 8.59777C127.242 8.6859 126.979 8.75957 126.673 8.854C127.77 10.1128 128.843 11.3442 130 12.6726C129.633 12.6726 129.352 12.6349 129.085 12.6794C128.16 12.8337 127.527 12.492 126.975 11.7271C126.309 10.8034 125.509 9.97686 124.744 9.08476ZM127.854 5.87975C127.926 4.85356 127.502 4.2436 126.53 3.9996C126.291 3.93979 126.042 3.89212 125.798 3.89082C123.969 3.88108 122.141 3.88422 120.312 3.88543C120.291 3.88545 120.269 3.91315 120.253 3.924C120.253 5.07728 120.253 6.22565 120.253 7.35596C122.19 7.35596 124.101 7.3839 126.011 7.3449C127.064 7.3234 127.67 6.80651 127.854 5.87975Z" fill="white"/>
<path d="M56.9702 10.7434C56.9702 7.92193 56.9702 5.14176 56.9702 2.37929C57.0269 2.34788 57.0495 2.32421 57.072 2.32444C59.2049 2.3464 61.3417 2.30047 63.4696 2.41712C65.0188 2.50206 66.4233 3.09701 67.4473 4.33817C69.6699 7.03188 68.4616 11.104 65.0836 12.2158C64.2732 12.4825 63.3921 12.6169 62.5374 12.6488C60.7634 12.715 58.9853 12.6719 57.2089 12.6726C57.143 12.6726 57.077 12.6605 56.9702 12.6501C56.9702 12.0166 56.9702 11.4007 56.9702 10.7434ZM65.8553 5.17095C65.2729 4.56489 64.5518 4.1726 63.7374 4.06315C62.7885 3.93561 61.8232 3.91819 60.8639 3.88203C60.1688 3.85583 59.4718 3.87692 58.7745 3.87692C58.7745 6.31446 58.7745 8.70268 58.7745 11.094C60.0996 11.094 61.4044 11.1277 62.7061 11.0783C63.2729 11.0568 63.8558 10.9286 64.3925 10.7389C66.7482 9.9062 67.4836 7.15589 65.8553 5.17095Z" fill="white"/>
<path d="M80.648 11.1285C80.7671 11.1935 80.9091 11.2553 80.9123 11.3237C80.9328 11.7596 80.9227 12.1969 80.9227 12.6519C77.4751 12.6519 74.0688 12.6519 70.6417 12.6519C70.6417 9.20725 70.6417 5.78368 70.6417 2.33728C74.0122 2.33728 77.378 2.33728 80.7657 2.33728C80.7657 2.83994 80.7657 3.32968 80.7657 3.85694C77.9835 3.85694 75.2101 3.85694 72.4094 3.85694C72.4094 4.79306 72.4094 5.69221 72.4094 6.62122C74.7395 6.62122 77.0614 6.62122 79.416 6.62122C79.416 7.15033 79.416 7.65074 79.416 8.17839C77.089 8.17839 74.7665 8.17839 72.413 8.17839C72.413 9.16005 72.413 10.116 72.413 11.1283C75.1378 11.1283 77.8722 11.1283 80.648 11.1285Z" fill="white"/>
<path d="M106.307 6.98281C107.107 5.50611 107.895 4.05748 108.668 2.60087C108.789 2.37322 108.93 2.29519 109.182 2.30879C109.716 2.33749 110.351 2.16023 110.755 2.39466C111.143 2.61936 111.294 3.25565 111.542 3.71486C113.07 6.54426 114.596 9.37471 116.123 12.2049C116.194 12.3359 116.262 12.4679 116.37 12.6709C115.735 12.6709 115.153 12.6829 114.573 12.6591C114.477 12.6551 114.357 12.5115 114.298 12.4049C113.941 11.7547 113.592 11.0997 113.254 10.4393C113.155 10.2468 113.046 10.164 112.814 10.1653C110.791 10.1765 108.767 10.167 106.743 10.1824C106.608 10.1835 106.417 10.3057 106.349 10.4264C105.982 11.0711 105.636 11.7281 105.305 12.3923C105.197 12.6099 105.067 12.6853 104.83 12.6775C104.323 12.6609 103.816 12.6725 103.231 12.6725C104.271 10.7458 105.28 8.87703 106.307 6.98281ZM110.793 5.75749C110.467 5.14565 110.14 4.53381 109.79 3.87766C108.936 5.49894 108.115 7.05786 107.278 8.64709C108.99 8.64709 110.628 8.64709 112.314 8.64709C111.801 7.67712 111.309 6.74562 110.793 5.75749Z" fill="white"/>
<path d="M3.39463 12.4844C0.0636129 11.0235 -1.04427 6.98428 1.10162 4.1783C1.96258 3.05249 3.15992 2.46744 4.52207 2.1984C6.37955 1.83152 8.18691 1.93635 9.90038 2.8272C10.6582 3.22122 11.4091 3.90117 11.8205 4.58859C11.5555 4.72227 11.2922 4.85578 11.0282 4.98801C10.7596 5.12263 10.4902 5.25601 10.192 5.40447C9.65543 4.58267 8.93026 4.0236 7.98329 3.78173C6.6381 3.43815 5.30753 3.48646 4.02192 4.02298C2.52087 4.64941 1.72504 6.11548 1.85595 7.79272C2.0377 10.1214 3.61288 11.2066 5.74797 11.3884C6.9427 11.4901 8.12842 11.4072 9.1494 10.6817C9.55702 10.392 9.89276 10.0011 10.2949 9.6248C10.7587 9.8545 11.2845 10.1149 11.8496 10.3948C11.3481 11.171 10.7041 11.7532 9.90999 12.1534C7.80236 13.2156 5.63108 13.2225 3.39463 12.4844Z" fill="white"/>
<path d="M27.2015 3.14141C27.2017 4.69744 27.1847 6.21283 27.2074 7.72762C27.2267 9.01584 27.5895 10.1854 28.7956 10.8412C30.2867 11.6519 31.8395 11.6367 33.3338 10.8366C34.3527 10.2911 34.8293 9.32765 34.8678 8.21196C34.9295 6.42347 34.9017 4.63189 34.9116 2.84162C34.9125 2.6788 34.9117 2.51598 34.9117 2.33443C35.5101 2.33443 36.0701 2.33443 36.6928 2.33443C36.6928 2.45528 36.6928 2.58574 36.6928 2.71621C36.6928 4.36908 36.6947 6.02195 36.6923 7.67482C36.6877 10.7618 34.8833 12.7195 31.8031 12.9574C30.4106 13.065 29.0499 12.9314 27.8042 12.2277C26.3876 11.4275 25.5815 10.1624 25.4976 8.58296C25.3876 6.51255 25.4706 4.43187 25.4706 2.33497C26.0289 2.33497 26.5876 2.33497 27.2015 2.33497C27.2015 2.58863 27.2015 2.84457 27.2015 3.14141Z" fill="white"/>
<path d="M15.7138 3.14153C15.7138 5.80838 15.7138 8.43435 15.7138 11.0947C18.2657 11.0947 20.7786 11.0947 23.3241 11.0947C23.3241 11.6278 23.3241 12.1273 23.3241 12.6507C20.215 12.6507 17.1105 12.6507 13.9773 12.6507C13.9773 9.21643 13.9773 5.7852 13.9773 2.33414C14.5421 2.33414 15.1009 2.33414 15.7138 2.33414C15.7138 2.58872 15.7138 2.84468 15.7138 3.14153Z" fill="white"/>
</svg>
