<svg width="161" height="19" viewBox="0 0 161 19" fill="none" xmlns="http://www.w3.org/2000/svg">
<path d="M7.81466 12.0008L8.42504 16.358H1.86555L2.47593 12.0008C0.988652 11.1157 0 9.51719 0 7.68668C0 4.90224 2.30399 2.64203 5.14099 2.64203C7.978 2.64203 10.282 4.90224 10.282 7.68668C10.282 9.51719 9.28474 11.1157 7.80606 12.0008H7.81466Z" fill="white"/>
<path d="M24.4421 15.4649C23.3432 15.4649 22.3875 15.2739 21.5753 14.8798C20.763 14.4858 20.0941 13.9842 19.5685 13.3514C19.0429 12.7185 18.6367 12.0378 18.3859 11.3094C18.1231 10.581 17.9917 9.87652 17.9917 9.19589V8.82571C17.9917 8.08537 18.1231 7.33309 18.3978 6.59275C18.6606 5.8524 19.0668 5.18371 19.6043 4.57472C20.1418 3.97767 20.8227 3.48809 21.623 3.12986C22.4234 2.77163 23.367 2.58057 24.4541 2.58057C25.5411 2.58057 26.4609 2.75969 27.2612 3.12986C28.0615 3.48809 28.7304 3.97767 29.2799 4.57472C29.8175 5.17177 30.2236 5.8524 30.4983 6.59275C30.7611 7.33309 30.9045 8.07343 30.9045 8.82571V9.19589C30.9045 9.87652 30.7731 10.581 30.5103 11.3094C30.2475 12.0378 29.8533 12.7185 29.3277 13.3514C28.8021 13.9842 28.1332 14.4858 27.3209 14.8798C26.5086 15.2739 25.565 15.4649 24.466 15.4649H24.4421ZM24.4421 13.2558C25.0633 13.2558 25.6247 13.1484 26.1264 12.9215C26.6281 12.6946 27.0462 12.3841 27.3926 11.9901C27.739 11.596 28.0137 11.1423 28.1929 10.6407C28.3721 10.1392 28.4677 9.58994 28.4677 9.02871C28.4677 8.41972 28.3721 7.85849 28.1929 7.34503C28.0137 6.83157 27.739 6.38975 27.3926 6.00764C27.0462 5.62553 26.6161 5.33894 26.1144 5.124C25.6127 4.90906 25.0513 4.80159 24.4421 4.80159C23.8329 4.80159 23.2595 4.90906 22.7578 5.124C22.2561 5.33894 21.8261 5.62553 21.4797 6.00764C21.1333 6.38975 20.8586 6.83157 20.6794 7.34503C20.5002 7.85849 20.4046 8.41972 20.4046 9.02871C20.4046 9.60188 20.5002 10.1392 20.6794 10.6407C20.8586 11.1423 21.1333 11.596 21.4797 11.9901C21.8261 12.3841 22.2561 12.6946 22.7578 12.9215C23.2595 13.1484 23.821 13.2558 24.4421 13.2558ZM26.7834 18.7368C26.0786 18.7368 25.4694 18.6532 24.9558 18.4741C24.4421 18.2949 24.036 17.9845 23.7373 17.5427C23.4507 17.0889 23.3073 16.456 23.3073 15.6321V13.8887H25.5172V15.7754C25.5172 16.1217 25.6127 16.3844 25.8158 16.5635C26.0069 16.7426 26.2697 16.8381 26.6161 16.8381H28.5274V18.7248H26.8073L26.7834 18.7368Z" fill="white"/>
<path d="M35.9092 15.4285C34.858 15.4285 34.0457 15.0822 33.4724 14.3896C32.899 13.697 32.6123 12.6701 32.6123 11.3088V6.04285H34.9416V11.5118C34.9416 12.0731 35.0969 12.5149 35.4075 12.8373C35.7181 13.1716 36.1481 13.3269 36.6737 13.3269C37.1993 13.3269 37.6412 13.1597 37.9877 12.8134C38.3221 12.4671 38.5013 12.0014 38.5013 11.4044V6.04285H40.8306V15.1419H38.991V11.2849H39.1702C39.1702 12.2044 39.0508 12.9567 38.8238 13.5776C38.5969 14.1986 38.2385 14.6523 37.7726 14.9628C37.3068 15.2732 36.7215 15.4285 36.0167 15.4285H35.9211H35.9092Z" fill="white"/>
<path d="M45.8604 15.3809C45.2034 15.3809 44.63 15.2614 44.1283 15.0346C43.6266 14.7958 43.2444 14.4614 42.9696 14.0315C42.6949 13.6016 42.5635 13.0762 42.5635 12.4553C42.5635 11.7866 42.7307 11.2373 43.0532 10.8194C43.3877 10.4015 43.8416 10.0791 44.4389 9.86412C45.0361 9.64918 45.729 9.54171 46.5412 9.54171H48.6436V10.9269H46.5054C45.9679 10.9269 45.5617 11.0582 45.275 11.3209C44.9884 11.5836 44.845 11.918 44.845 12.3359C44.845 12.7538 44.9884 13.0882 45.275 13.3389C45.5617 13.5897 45.9679 13.7211 46.5054 13.7211C46.8279 13.7211 47.1265 13.6614 47.4013 13.5419C47.676 13.4225 47.903 13.2195 48.0822 12.9449C48.2613 12.6583 48.3689 12.2762 48.3927 11.7866L48.9661 12.4434C48.9064 13.0762 48.763 13.6136 48.5122 14.0435C48.2613 14.4733 47.9149 14.8077 47.473 15.0346C47.031 15.2614 46.4935 15.3809 45.8604 15.3809ZM48.7869 15.142V12.4553H48.4047V9.45812C48.4047 8.93272 48.2733 8.53866 48.0224 8.2879C47.7716 8.03714 47.3655 7.90579 46.8399 7.90579C46.5651 7.90579 46.2307 7.90579 45.8365 7.91773C45.4423 7.91773 45.0481 7.94161 44.6539 7.95355C44.2597 7.96549 43.9013 7.98938 43.5908 8.01326V6.04299C43.8416 6.01911 44.1402 5.99523 44.4628 5.97134C44.7853 5.94746 45.1198 5.93552 45.4542 5.92358C45.7887 5.92358 46.1112 5.92358 46.4098 5.92358C47.3416 5.92358 48.1299 6.04299 48.7392 6.29375C49.3603 6.54451 49.8262 6.92663 50.1487 7.45203C50.4712 7.97744 50.6265 8.65807 50.6265 9.50589V15.142H48.7869Z" fill="white"/>
<path d="M52.3589 15.1421V6.06692H54.1984V9.91193H54.1507C54.1507 8.61036 54.4254 7.61925 54.9868 6.95055C55.5483 6.28186 56.3605 5.94751 57.4475 5.94751H57.782V7.96554H57.1489C56.3725 7.96554 55.7633 8.16854 55.3332 8.58648C54.9032 9.00441 54.6882 9.6134 54.6882 10.4015V15.1301H52.3589V15.1421Z" fill="white"/>
<path d="M59.5015 7.77454V6.06697H65.928V7.77454H59.5015ZM64.626 15.2616C63.7898 15.2616 63.097 15.1541 62.5594 14.9391C62.0219 14.7242 61.6158 14.354 61.353 13.8406C61.0902 13.3271 60.9468 12.6226 60.9468 11.739V3.5116H63.1328V11.8822C63.1209 12.3241 63.2403 12.6703 63.4792 12.9092C63.7181 13.148 64.0645 13.2674 64.5065 13.2674H65.928V15.2616H64.626Z" fill="white"/>
<path d="M72.6286 15.4645C71.8283 15.4645 71.1236 15.3332 70.5024 15.0824C69.8932 14.8316 69.3676 14.4734 68.9495 14.0316C68.5314 13.5898 68.2089 13.0883 67.9939 12.539C67.7789 11.9777 67.6714 11.4046 67.6714 10.7956V10.4493C67.6714 9.82836 67.7908 9.23131 68.0178 8.67008C68.2448 8.10885 68.5792 7.60733 69.0092 7.16551C69.4393 6.72369 69.9649 6.3774 70.5741 6.12664C71.1833 5.87588 71.8761 5.75647 72.6525 5.75647C73.429 5.75647 74.1099 5.87588 74.731 6.12664C75.3402 6.3774 75.8658 6.72369 76.2958 7.16551C76.7259 7.60733 77.0484 8.10885 77.2753 8.67008C77.5023 9.23131 77.6098 9.82836 77.6098 10.4493V10.7956C77.6098 11.3926 77.5023 11.9777 77.2873 12.539C77.0723 13.1002 76.7497 13.5898 76.3317 14.0316C75.9016 14.4734 75.388 14.8197 74.7788 15.0824C74.1696 15.3332 73.4648 15.4645 72.6764 15.4645H72.6286ZM72.6286 13.4704C73.202 13.4704 73.6798 13.351 74.0621 13.1002C74.4443 12.8494 74.743 12.5151 74.946 12.0852C75.1491 11.6553 75.2447 11.1657 75.2447 10.6165C75.2447 10.0672 75.1371 9.56565 74.9341 9.13578C74.731 8.7059 74.4324 8.37156 74.0262 8.12079C73.632 7.87003 73.1542 7.75062 72.6167 7.75062C72.0792 7.75062 71.6014 7.87003 71.2072 8.12079C70.813 8.37156 70.5024 8.71784 70.2993 9.13578C70.0843 9.56565 69.9768 10.0552 69.9768 10.6165C69.9768 11.1777 70.0843 11.6553 70.2874 12.0852C70.4905 12.5151 70.7891 12.8494 71.1833 13.1002C71.5775 13.351 72.0553 13.4704 72.6167 13.4704H72.6286Z" fill="white"/>
<path d="M110.1 15.2612V3.0575H112.477V15.2612H110.1Z" fill="white"/>
<path d="M119.142 15.5597C118.509 15.5597 117.924 15.4403 117.387 15.2134C116.849 14.9866 116.383 14.6522 116.001 14.2223C115.607 13.8044 115.308 13.3029 115.093 12.7416C114.878 12.1804 114.771 11.5714 114.771 10.9147V10.5684C114.771 9.92357 114.878 9.31458 115.081 8.74141C115.284 8.16824 115.583 7.67866 115.953 7.24879C116.323 6.83085 116.777 6.4965 117.303 6.25768C117.828 6.01886 118.426 5.89945 119.071 5.89945C119.787 5.89945 120.409 6.05469 120.958 6.35321C121.496 6.66368 121.926 7.11744 122.248 7.73837C122.571 8.34736 122.75 9.12353 122.786 10.043L122.105 9.24293V3.0575H124.434V15.2612H122.595V11.4043H123.001C122.965 12.3237 122.774 13.0999 122.427 13.7208C122.081 14.3417 121.627 14.8074 121.066 15.106C120.504 15.4164 119.859 15.5597 119.154 15.5597H119.142ZM119.668 13.6014C120.122 13.6014 120.54 13.4939 120.922 13.2909C121.305 13.0879 121.603 12.7894 121.83 12.3834C122.057 11.9894 122.177 11.5237 122.177 10.9863V10.3176C122.177 9.78028 122.057 9.33846 121.83 8.96829C121.603 8.59812 121.293 8.32348 120.91 8.13242C120.528 7.94137 120.122 7.8339 119.668 7.8339C119.166 7.8339 118.724 7.95331 118.342 8.19213C117.96 8.43095 117.661 8.76529 117.434 9.20711C117.219 9.63699 117.112 10.1505 117.112 10.7236C117.112 11.2968 117.219 11.8103 117.446 12.2401C117.673 12.67 117.972 13.0044 118.354 13.2312C118.736 13.4701 119.178 13.5775 119.668 13.5775V13.6014Z" fill="white"/>
<path d="M131.172 15.5837C130.396 15.5837 129.715 15.4524 129.129 15.1778C128.544 14.9151 128.054 14.5449 127.672 14.1031C127.29 13.6612 126.991 13.1478 126.8 12.5866C126.609 12.0253 126.501 11.4641 126.501 10.879V10.5566C126.501 9.95954 126.597 9.37443 126.8 8.8132C127.003 8.25197 127.29 7.75045 127.672 7.30863C128.054 6.86681 128.532 6.52052 129.106 6.25782C129.679 5.99512 130.336 5.86377 131.076 5.86377C132.056 5.86377 132.88 6.07871 133.549 6.50859C134.206 6.93846 134.708 7.49969 135.042 8.19227C135.377 8.88485 135.544 9.63713 135.544 10.4372V11.273H127.505V9.85207H134.099L133.382 10.5566C133.382 9.98342 133.298 9.4819 133.131 9.06396C132.964 8.64602 132.713 8.33556 132.367 8.10868C132.02 7.8818 131.602 7.77433 131.088 7.77433C130.575 7.77433 130.145 7.89374 129.786 8.12062C129.428 8.35944 129.153 8.69379 128.974 9.13561C128.795 9.57743 128.699 10.1028 128.699 10.7118C128.699 11.285 128.795 11.7865 128.962 12.2283C129.141 12.6701 129.416 13.0164 129.786 13.2672C130.157 13.518 130.623 13.6374 131.196 13.6374C131.769 13.6374 132.223 13.518 132.582 13.2911C132.94 13.0642 133.167 12.7776 133.262 12.4433H135.401C135.269 13.0642 135.006 13.6135 134.636 14.0792C134.254 14.5449 133.776 14.9151 133.191 15.1658C132.605 15.4166 131.937 15.5479 131.196 15.5479L131.172 15.5837Z" fill="white"/>
<path d="M136.631 7.91802V6.17463H140.227V7.91802H136.631ZM138.758 5.09994C138.304 5.09994 137.957 4.98053 137.742 4.74171C137.527 4.50289 137.42 4.19242 137.42 3.83419C137.42 3.47596 137.527 3.16549 137.742 2.92667C137.957 2.68785 138.292 2.58038 138.758 2.58038C139.223 2.58038 139.546 2.69979 139.761 2.92667C139.976 3.16549 140.084 3.46402 140.084 3.83419C140.084 4.20436 139.976 4.50289 139.761 4.74171C139.546 4.98053 139.212 5.09994 138.758 5.09994ZM137.898 15.2617V6.18657H140.227V15.2617H137.898Z" fill="white"/>
<path d="M145.47 15.5001C144.813 15.5001 144.24 15.3807 143.738 15.1538C143.236 14.915 142.854 14.5807 142.579 14.1508C142.305 13.7209 142.173 13.1955 142.173 12.5746C142.173 11.9059 142.341 11.3566 142.663 10.9387C142.998 10.5207 143.451 10.1983 144.049 9.98338C144.646 9.76844 145.339 9.66097 146.151 9.66097H148.253V11.0461H146.115C145.578 11.0461 145.172 11.1775 144.885 11.4402C144.598 11.7029 144.455 12.0372 144.455 12.4552C144.455 12.8731 144.598 13.2075 144.885 13.4582C145.172 13.709 145.578 13.8403 146.115 13.8403C146.438 13.8403 146.736 13.7806 147.011 13.6612C147.286 13.5418 147.513 13.3388 147.692 13.0642C147.871 12.7776 147.979 12.3955 148.003 11.9059L148.576 12.5626C148.516 13.1955 148.373 13.7329 148.122 14.1627C147.871 14.5926 147.525 14.927 147.083 15.1538C146.641 15.3807 146.103 15.5001 145.47 15.5001ZM148.397 15.2613V12.5746H148.015V9.57738C148.015 9.05198 147.883 8.65793 147.632 8.40717C147.381 8.1564 146.975 8.02505 146.45 8.02505C146.175 8.02505 145.841 8.02505 145.446 8.03699C145.052 8.03699 144.658 8.06087 144.264 8.07281C143.87 8.08476 143.511 8.10864 143.201 8.13252V6.16225C143.451 6.13837 143.75 6.11449 144.073 6.09061C144.395 6.06673 144.73 6.05479 145.064 6.04285C145.399 6.04285 145.721 6.04285 146.02 6.04285C146.951 6.04285 147.74 6.16225 148.349 6.41302C148.97 6.66378 149.436 7.04589 149.759 7.57129C150.081 8.0967 150.236 8.77734 150.236 9.62515V15.2613H148.397Z" fill="white"/>
<path d="M156.125 15.5479C154.871 15.5479 153.903 15.2852 153.187 14.7598C152.482 14.2344 152.112 13.494 152.076 12.5626H154.166C154.202 12.8731 154.369 13.1597 154.68 13.4105C154.99 13.6612 155.48 13.7926 156.149 13.7926C156.71 13.7926 157.152 13.697 157.475 13.494C157.797 13.291 157.965 13.0164 157.965 12.6701C157.965 12.3716 157.845 12.1328 157.582 11.9536C157.332 11.7745 156.902 11.6551 156.304 11.6074L155.504 11.5238C154.489 11.4163 153.712 11.1178 153.163 10.6521C152.613 10.1864 152.338 9.5535 152.338 8.77734C152.338 8.15641 152.494 7.631 152.804 7.20113C153.115 6.78319 153.545 6.46079 154.094 6.23391C154.644 6.01897 155.277 5.9115 155.994 5.9115C157.105 5.9115 158.012 6.16226 158.705 6.65184C159.398 7.14142 159.756 7.85788 159.792 8.81316H157.702C157.678 8.5027 157.523 8.22805 157.236 8.01311C156.949 7.78624 156.531 7.67877 155.982 7.67877C155.492 7.67877 155.11 7.77429 154.847 7.96535C154.584 8.15641 154.441 8.39523 154.441 8.7057C154.441 9.01616 154.548 9.21916 154.763 9.37439C154.978 9.52962 155.337 9.63709 155.826 9.6968L156.627 9.78038C157.702 9.88785 158.538 10.1864 159.147 10.664C159.756 11.1417 160.055 11.7865 160.055 12.5985C160.055 13.1955 159.888 13.7209 159.565 14.1627C159.231 14.6046 158.777 14.9508 158.192 15.1897C157.594 15.4404 156.902 15.5598 156.101 15.5598L156.125 15.5479Z" fill="white"/>
<path d="M99.8044 15.5837C99.0279 15.5837 98.3471 15.4524 97.7617 15.1778C97.1764 14.9151 96.6867 14.5449 96.3044 14.1031C95.9222 13.6612 95.6235 13.1478 95.4324 12.5866C95.2413 12.0253 95.1338 11.4641 95.1338 10.879V10.5566C95.1338 9.95954 95.2294 9.37443 95.4324 8.8132C95.6355 8.25197 95.9222 7.75045 96.3044 7.30863C96.6867 6.86681 97.1645 6.52052 97.7378 6.25782C98.3112 5.99512 98.9682 5.86377 99.7088 5.86377C100.688 5.86377 101.513 6.07871 102.181 6.50859C102.838 6.93846 103.34 7.49969 103.675 8.19227C104.009 8.88485 104.176 9.63713 104.176 10.4372V11.273H96.1372V9.85207H102.731L102.014 10.5566C102.014 9.98342 101.931 9.4819 101.763 9.06396C101.596 8.64602 101.345 8.33556 100.999 8.10868C100.652 7.8818 100.234 7.77433 99.7208 7.77433C99.2071 7.77433 98.7771 7.89374 98.4187 8.12062C98.0604 8.35944 97.7856 8.69379 97.6064 9.13561C97.4273 9.57743 97.3317 10.1028 97.3317 10.7118C97.3317 11.285 97.4273 11.7865 97.5945 12.2283C97.7737 12.6701 98.0484 13.0164 98.4187 13.2672C98.789 13.518 99.2549 13.6374 99.8283 13.6374C100.402 13.6374 100.856 13.518 101.214 13.2911C101.572 13.0642 101.799 12.7776 101.895 12.4433H104.033C103.902 13.0642 103.639 13.6135 103.268 14.0792C102.886 14.5449 102.408 14.9151 101.823 15.1658C101.238 15.4166 100.569 15.5479 99.8283 15.5479L99.8044 15.5837Z" fill="white"/>
<path d="M87.7743 15.5597C87.1412 15.5597 86.5559 15.4403 86.0183 15.2134C85.4808 14.9866 85.0149 14.6522 84.6327 14.2223C84.2385 13.8044 83.9399 13.3029 83.7249 12.7416C83.5099 12.1804 83.4023 11.5714 83.4023 10.9147V10.5684C83.4023 9.92357 83.5099 9.31458 83.7129 8.74141C83.916 8.16824 84.2146 7.67866 84.5849 7.24879C84.9552 6.83085 85.4091 6.4965 85.9347 6.25768C86.4603 6.01886 87.0576 5.89945 87.7026 5.89945C88.4193 5.89945 89.0405 6.05469 89.59 6.35321C90.1275 6.66368 90.5575 7.11744 90.88 7.73837C91.2026 8.34736 91.3817 9.12353 91.4176 10.043L90.7367 9.24293V3.0575H93.066V15.2612H91.2265V11.4043H91.6326C91.5968 12.3237 91.4056 13.0999 91.0592 13.7208C90.7128 14.3417 90.2589 14.8074 89.6975 15.106C89.136 15.4164 88.491 15.5597 87.7862 15.5597H87.7743ZM88.2999 13.6014C88.7538 13.6014 89.1719 13.4939 89.5541 13.2909C89.9364 13.0879 90.235 12.7894 90.462 12.3834C90.6889 11.9894 90.8084 11.5237 90.8084 10.9863V10.3176C90.8084 9.78028 90.6889 9.33846 90.462 8.96829C90.235 8.59812 89.9244 8.32348 89.5422 8.13242C89.1599 7.94137 88.7538 7.8339 88.2999 7.8339C87.7982 7.8339 87.3562 7.95331 86.974 8.19213C86.5917 8.43095 86.2931 8.76529 86.0661 9.20711C85.8511 9.63699 85.7436 10.1505 85.7436 10.7236C85.7436 11.2968 85.8511 11.8103 86.0781 12.2401C86.305 12.67 86.6037 13.0044 86.9859 13.2312C87.3682 13.4701 87.8101 13.5775 88.2999 13.5775V13.6014Z" fill="white"/>
</svg>
