<svg width="131" height="20" viewBox="0 0 131 20" fill="none" xmlns="http://www.w3.org/2000/svg">
<path fill-rule="evenodd" clip-rule="evenodd" d="M17.1241 10.4884C16.7171 10.1127 15.2019 9.87481 15.0892 9.84976C14.3755 9.69324 14.2064 9.66193 13.5052 9.33635C12.3031 8.78538 11.3138 7.70847 10.744 6.52512C10.5061 6.03676 10.3559 5.47326 10.2619 4.92854C10.2306 4.73445 10.1805 4.50279 9.92384 4.58418C9.71096 4.65305 9.72974 4.81584 9.69844 5.04124C9.54191 6.18076 8.82815 7.47681 8.01421 8.24692C6.31119 9.86855 4.6833 9.79967 4.49547 9.93742C4.43286 9.98751 4.38903 10.0939 4.41408 10.2066C4.46416 10.407 4.69582 10.3945 4.88366 10.4258C5.42211 10.5197 5.99187 10.7013 6.46771 10.9392C7.13139 11.2648 7.60723 11.6279 8.08934 12.1038C9.67965 13.6878 9.64835 15.4284 9.79235 15.6162C9.8487 15.6851 9.94888 15.7227 10.0678 15.6976C10.2557 15.6538 10.2432 15.4159 10.2745 15.2155C10.431 14.0948 11.1573 12.7987 11.965 12.0224C12.5598 11.4526 13.2798 10.9768 14.0749 10.695C15.0141 10.3632 15.1143 11.2961 15.1143 11.2961V13.2495C15.1143 14.0572 14.8701 14.7772 14.3692 15.4096C13.8683 16.042 13.1921 16.5491 12.3469 16.9311C11.4954 17.313 10.5312 17.5008 9.45425 17.5008C8.14569 17.5008 6.97486 17.1878 5.9543 16.5617C4.93375 15.9356 4.13858 15.059 3.56882 13.9383C2.99906 12.8175 2.71731 11.5152 2.71731 10.0251C2.71731 8.53493 2.99907 7.20132 3.56257 6.09937C4.12606 5.00367 4.92122 4.15217 5.96056 3.54484C6.9999 2.94377 8.21456 2.63698 9.60452 2.63698C11.1009 2.63698 12.3156 2.9563 13.236 3.60119C14.0812 4.18973 14.6384 5.0162 14.9014 6.08684C14.9452 6.25589 15.1018 6.37485 15.2771 6.37485H17.2744C17.5248 6.37485 17.7126 6.14319 17.6563 5.90527C17.3996 4.80958 16.955 3.86415 16.3227 3.08152C15.6027 2.18618 14.676 1.49746 13.5365 1.02788C12.397 0.558295 11.0884 0.320374 9.60452 0.320374C7.70115 0.320374 6.02317 0.721084 4.58312 1.52877C3.13681 2.33645 2.01607 3.46344 1.20839 4.91602C0.406971 6.36859 0 8.06535 0 10C0 11.9347 0.381928 13.6315 1.14578 15.084C1.90964 16.5366 2.98654 17.6699 4.37651 18.4713C5.76647 19.279 7.36305 19.6797 9.17877 19.6797C10.5687 19.6797 11.7959 19.4042 12.8666 18.8532C13.9372 18.3022 14.676 17.5697 15.0767 16.6618H15.1957V19.016C15.1957 19.2289 15.371 19.3979 15.5839 19.3979H17.362C17.5749 19.3979 17.7502 19.2226 17.7502 19.016V12.1601C17.7502 11.4338 17.5373 10.8766 17.1178 10.4884H17.1241Z" fill="white"/>
<path d="M30.6262 16.1669C29.4867 16.1669 28.4849 15.9102 27.6271 15.4031C26.7694 14.8959 26.0932 14.1884 25.6111 13.2806C25.1289 12.3727 24.8848 11.3271 24.8848 10.1375C24.8848 8.94788 25.1352 7.85845 25.6298 6.95059C26.1245 6.04273 26.8257 5.33523 27.7336 4.83434C28.6352 4.33345 29.687 4.08301 30.8829 4.08301C31.8408 4.08301 32.6861 4.23953 33.4186 4.55885C34.1512 4.87817 34.7523 5.34149 35.2218 5.94255C35.6914 6.54362 35.9857 7.26991 36.1109 8.10889H33.8194C33.6941 7.44522 33.3748 6.92555 32.8677 6.5624C32.3605 6.19926 31.6968 6.01769 30.8766 6.01769C30.1128 6.01769 29.4491 6.18674 28.8793 6.51857C28.3096 6.85041 27.8713 7.32626 27.5583 7.94611C27.2515 8.56595 27.0949 9.2985 27.0949 10.15C27.0949 11.0015 27.2515 11.7278 27.5645 12.3539C27.8776 12.98 28.3221 13.4684 28.8919 13.819C29.4616 14.1696 30.1253 14.3387 30.8766 14.3387C31.4652 14.3387 31.9911 14.2448 32.4544 14.0507C32.9178 13.8566 33.2809 13.5936 33.5501 13.2555C33.8131 12.9174 33.9508 12.5355 33.9508 12.1097V11.5713H30.6763V9.84948H34.4016C34.9651 9.84948 35.3846 9.98722 35.6789 10.2627C35.9732 10.5382 36.1109 10.9389 36.1109 11.4711V15.9916H34.0698V14.514H33.9947C33.7317 15.0337 33.3059 15.4406 32.7111 15.7286C32.1163 16.0167 31.4214 16.1607 30.6199 16.1607L30.6262 16.1669Z" fill="white"/>
<path d="M41.7265 16.1543C40.5369 16.1543 39.6228 15.8412 38.9779 15.2026C38.333 14.5702 38.0137 13.7125 38.0137 12.6293V7.29484H40.1738V12.191C40.1738 12.8672 40.3491 13.3744 40.6934 13.7187C41.044 14.0631 41.5575 14.2321 42.2462 14.2321C42.9725 14.2321 43.5234 14.0506 43.9116 13.6812C44.2998 13.3118 44.4939 12.7983 44.4939 12.1284V7.28857H46.654V13.8252H47.7434V15.9852H45.527V14.5953H44.9197C44.5816 15.0962 44.1558 15.4844 43.6487 15.7473C43.1415 16.0103 42.5029 16.148 41.7265 16.148V16.1543Z" fill="white"/>
<path d="M53.1227 16.167C52.196 16.167 51.3884 15.9792 50.6934 15.6098C50.0046 15.2404 49.4725 14.7082 49.0968 14.032C48.7211 13.3558 48.5396 12.5481 48.5396 11.6214C48.5396 10.6948 48.7211 9.89338 49.0905 9.22344C49.4599 8.55351 49.9796 8.03383 50.6558 7.67069C51.332 7.30755 52.1272 7.12598 53.035 7.12598C53.9429 7.12598 54.6879 7.29503 55.3266 7.63939C55.9652 7.98375 56.4598 8.47211 56.8042 9.11701C57.1548 9.7619 57.3239 10.5195 57.3239 11.4023V12.1536H50.612C50.6996 12.8862 50.9563 13.4497 51.3884 13.8441C51.8204 14.2323 52.3901 14.4327 53.1039 14.4327C53.6361 14.4327 54.0681 14.3325 54.3999 14.1384C54.7318 13.938 54.9697 13.6438 55.1012 13.2493H57.2738C57.0734 14.1697 56.6038 14.8835 55.8776 15.4031C55.1513 15.9228 54.2246 16.1795 53.1164 16.1795L53.1227 16.167ZM50.6746 10.6885H55.2514C55.1763 10.0875 54.9447 9.63041 54.5627 9.31736C54.1808 9.00431 53.6737 8.84778 53.035 8.84778C52.3964 8.84778 51.8892 9.0043 51.4823 9.32362C51.0753 9.64294 50.8061 10.0937 50.6683 10.6885H50.6746Z" fill="white"/>
<path d="M62.4577 16.1672C61.1993 16.1672 60.21 15.9042 59.4837 15.3783C58.7574 14.8523 58.3693 14.1135 58.3066 13.1681H60.4104C60.4792 13.6252 60.6859 13.957 61.0365 14.1761C61.3871 14.3953 61.888 14.5017 62.5454 14.5017C63.6536 14.5017 64.2109 14.1824 64.2109 13.5438C64.2109 13.2745 64.1232 13.0679 63.9542 12.9177C63.7851 12.7736 63.5033 12.6609 63.1089 12.5858L61.1805 12.2227C59.49 11.8971 58.6447 11.0894 58.6447 9.81841C58.6447 8.9982 58.9703 8.34079 59.6152 7.85242C60.2601 7.36406 61.1492 7.11987 62.2824 7.11987C63.4157 7.11987 64.3423 7.37032 65.0123 7.86495C65.6822 8.35957 66.0579 9.06708 66.133 9.97493H64.0481C63.9416 9.54292 63.7413 9.2236 63.447 9.02325C63.1527 8.82289 62.727 8.72898 62.176 8.72898C61.6814 8.72898 61.3057 8.80411 61.0427 8.96064C60.7798 9.11716 60.6546 9.34256 60.6546 9.6431C60.6546 9.8685 60.7359 10.0438 60.8987 10.1816C61.0615 10.3193 61.3245 10.4195 61.6814 10.4883L63.6348 10.864C64.5239 11.0393 65.1751 11.3273 65.5883 11.7343C66.0015 12.1413 66.2144 12.686 66.2144 13.3747C66.2144 14.2513 65.8888 14.94 65.2439 15.4346C64.599 15.9292 63.6661 16.1734 62.4452 16.1734L62.4577 16.1672Z" fill="white"/>
<path d="M70.2401 15.9917C69.6703 15.9917 69.2258 15.8477 68.9127 15.5597C68.5997 15.2717 68.4431 14.8272 68.4431 14.2386V8.97932H66.9092V7.29508H68.4619V4.6842H70.5782V7.29508H72.6819V8.97932H70.6095V14.3013H72.8823V15.998H70.2463L70.2401 15.9917Z" fill="white"/>
<path d="M78.6929 15.9918V4.2522H84.1839C85.4987 4.2522 86.5192 4.57777 87.2393 5.23519C87.9656 5.8926 88.3287 6.7942 88.3287 7.94625C88.3287 9.09829 87.9656 9.98736 87.233 10.651C86.5067 11.3147 85.4862 11.6466 84.1839 11.6466H80.9093V15.9918H78.6929ZM80.9093 9.74318H84.0524C84.7286 9.74318 85.242 9.58665 85.5926 9.26733C85.9432 8.94802 86.1248 8.50974 86.1248 7.94625C86.1248 7.38275 85.9495 6.93195 85.5926 6.61889C85.2357 6.30584 84.7286 6.14931 84.0524 6.14931H80.9093V9.74318Z" fill="white"/>
<path d="M90.4701 15.9917V9.45513H89.3994V7.29505H91.6033V8.97929H92.2106C92.4486 8.397 92.8242 7.95873 93.3251 7.65819C93.826 7.35766 94.402 7.2074 95.0469 7.2074H95.7732V9.06068H94.9467C94.1516 9.06068 93.563 9.28608 93.1811 9.74314C92.7929 10.2002 92.5988 10.8013 92.5988 11.5526V15.9855H90.4701V15.9917Z" fill="white"/>
<path d="M101.045 16.167C100.106 16.167 99.2919 15.9792 98.6032 15.6098C97.9145 15.2404 97.376 14.7144 96.9941 14.0382C96.6121 13.362 96.4243 12.5669 96.4243 11.6465C96.4243 10.7261 96.6121 9.91843 96.9941 9.24223C97.376 8.56603 97.9145 8.04636 98.6094 7.67695C99.3044 7.30755 100.118 7.12598 101.045 7.12598C101.972 7.12598 102.804 7.30755 103.487 7.67695C104.169 8.04636 104.695 8.56603 105.071 9.24223C105.447 9.91843 105.634 10.7198 105.634 11.6465C105.634 12.5731 105.447 13.362 105.071 14.0445C104.695 14.7269 104.163 15.2529 103.474 15.616C102.786 15.9854 101.978 16.167 101.039 16.167H101.045ZM101.045 14.2824C101.815 14.2824 102.416 14.0508 102.842 13.5812C103.268 13.1116 103.481 12.4667 103.481 11.6465C103.481 10.8263 103.268 10.1689 102.842 9.70555C102.416 9.24223 101.815 9.01057 101.045 9.01057C100.275 9.01057 99.655 9.24223 99.223 9.70555C98.791 10.1689 98.5781 10.8138 98.5781 11.634C98.5781 12.4542 98.791 13.1178 99.223 13.5812C99.655 14.0508 100.262 14.2824 101.045 14.2824Z" fill="white"/>
<path d="M107.913 15.9918V8.97933H106.292V7.2951H107.932V5.59834C107.932 4.99102 108.095 4.54022 108.42 4.25221C108.746 3.96419 109.197 3.82019 109.779 3.82019H112.24V5.50442H110.048V7.30136H112.064V8.9856H110.079V15.998H107.919L107.913 15.9918ZM114.494 6.33715C114.155 6.33715 113.867 6.21819 113.63 5.98027C113.392 5.74235 113.273 5.45434 113.273 5.11624C113.273 4.77814 113.392 4.49013 113.63 4.25221C113.867 4.01428 114.155 3.89532 114.494 3.89532C114.832 3.89532 115.12 4.01428 115.358 4.25221C115.595 4.49013 115.714 4.77814 115.714 5.11624C115.714 5.45434 115.595 5.74235 115.358 5.98027C115.12 6.21819 114.832 6.33715 114.494 6.33715ZM113.404 15.9918V7.2951H115.564V15.9918H113.404Z" fill="white"/>
<path d="M117.662 15.9918V3.82019H119.822V15.9918H117.662Z" fill="white"/>
<path d="M125.92 16.167C124.993 16.167 124.186 15.9792 123.491 15.6098C122.796 15.2404 122.27 14.7082 121.894 14.032C121.525 13.3495 121.337 12.5481 121.337 11.6214C121.337 10.6948 121.518 9.89338 121.888 9.22344C122.257 8.55351 122.777 8.03383 123.453 7.67069C124.129 7.30755 124.925 7.12598 125.832 7.12598C126.74 7.12598 127.485 7.29503 128.124 7.63939C128.763 7.98375 129.251 8.47211 129.602 9.11701C129.952 9.7619 130.121 10.5195 130.121 11.4023V12.1536H123.409C123.497 12.8862 123.754 13.4497 124.186 13.8441C124.618 14.2386 125.187 14.4327 125.901 14.4327C126.433 14.4327 126.865 14.3325 127.197 14.1384C127.529 13.938 127.767 13.6438 127.899 13.2493H130.071C129.871 14.1697 129.401 14.8835 128.675 15.4031C127.949 15.9228 127.028 16.1795 125.914 16.1795L125.92 16.167ZM123.472 10.6885H128.049C127.974 10.0875 127.742 9.63041 127.36 9.31736C126.978 9.00431 126.471 8.84778 125.832 8.84778C125.194 8.84778 124.687 9.0043 124.28 9.32362C123.873 9.64294 123.603 10.0937 123.466 10.6885H123.472Z" fill="white"/>
</svg>
