<svg xmlns="http://www.w3.org/2000/svg" width="1436" height="478" fill="none" xmlns:v="https://vecta.io/nano"><style><![CDATA[.B{stroke:#fff}.C{stroke-width:.766}.D{fill:#fff}]]></style><g clip-path="url(#C)"><mask id="A" maskUnits="userSpaceOnUse" x="161" y="-142" width="1275" height="762" mask-type="alpha"><path d="M1436-141.868H161v761.736h1275v-761.736z" fill="url(#B)"/></mask><g mask="url(#A)" class="B C"><use href="#D"/><path d="M958.328 179.668l44.742-25.854 44.73 25.854v51.705l-44.73 25.854-44.742-25.854v-51.705z"/><use href="#E"/><use href="#F"/><use href="#G"/><path d="M1139.93 179.668l44.74-25.854 44.73 25.854v51.705l-44.73 25.854-44.74-25.854v-51.705z"/><use href="#H"/><use href="#I"/><path d="M867.527 179.668l44.737-25.854L957 179.668v51.705l-44.736 25.854-44.737-25.854v-51.705zm45.401 78.714l44.736-25.854 44.736 25.854v51.705l-44.736 25.853-44.736-25.853v-51.705zm45.4 78.713l44.742-25.854 44.73 25.854V388.8l-44.73 25.854-44.742-25.854v-51.705zm45.402-78.713l44.73-25.854 44.74 25.854v51.705l-44.74 25.853-44.73-25.853v-51.705zm181.6 0l44.74-25.854 44.73 25.854v51.705l-44.73 25.853-44.74-25.853v-51.705z"/><use href="#J"/><path d="M1276.13 258.382l44.74-25.854 44.73 25.854v51.705l-44.73 25.853-44.74-25.853v-51.705zm45.4 78.713l44.74-25.854 44.73 25.854V388.8l-44.73 25.854-44.74-25.854v-51.705z"/><use href="#K"/><path d="M1412.33 337.095l44.75-25.854 44.73 25.854V388.8l-44.73 25.854-44.75-25.854v-51.705z"/><path d="M1049.13 337.095l44.74-25.854 44.73 25.854V388.8l-44.73 25.854-44.74-25.854v-51.705z" class="D"/><path d="M1094.53 415.808l44.74-25.853 44.73 25.853v51.706l-44.73 25.853-44.74-25.853v-51.706zm45.4-78.713l44.74-25.854 44.73 25.854V388.8l-44.73 25.854-44.74-25.854v-51.705zm45.4 78.713l44.74-25.853 44.73 25.853v51.706l-44.73 25.853-44.74-25.853v-51.706zm45.4 78.714l44.74-25.854 44.73 25.854v51.705l-44.73 25.854-44.74-25.854v-51.705zm45.4-78.714l44.74-25.853 44.73 25.853v51.706l-44.73 25.853-44.74-25.853v-51.706z"/><use href="#L"/><path d="M1230.73 22.241l44.74-25.854 44.73 25.854v51.705L1275.47 99.8l-44.74-25.854V22.241zm45.4-78.714l44.74-25.853 44.73 25.853v51.706l-44.73 25.854-44.74-25.854v-51.706zm45.4 78.714l44.74-25.854L1411 22.241v51.705L1366.27 99.8l-44.74-25.854V22.241zm45.4 78.714l44.74-25.854 44.73 25.854v51.705l-44.73 25.854-44.74-25.854v-51.705zm45.4-78.714l44.75-25.854 44.73 25.854v51.705L1457.08 99.8l-44.75-25.854V22.241zm-363.2 0l44.74-25.854 44.73 25.854v51.705L1093.87 99.8l-44.74-25.854V22.241zm45.4 78.714l44.74-25.854 44.73 25.854v51.705l-44.73 25.854-44.74-25.854v-51.705zm45.4-78.714l44.74-25.854 44.73 25.854v51.705L1184.67 99.8l-44.74-25.854V22.241zm45.4 78.714l44.74-25.854 44.73 25.854v51.705l-44.73 25.854-44.74-25.854v-51.705zm45.4 78.713l44.74-25.854 44.73 25.854v51.705l-44.73 25.854-44.74-25.854v-51.705zm45.4-78.713l44.74-25.854 44.73 25.854v51.705l-44.73 25.854-44.74-25.854v-51.705zm45.4 78.713l44.74-25.854 44.73 25.854v51.705l-44.73 25.854-44.74-25.854v-51.705zm45.4 78.714l44.74-25.854 44.73 25.854v51.705l-44.73 25.853-44.74-25.853v-51.705zm45.4-78.714l44.75-25.854 44.73 25.854v51.705l-44.73 25.854-44.75-25.854v-51.705z"/><use href="#M"/><path d="M276.922-56.473l44.759-25.853 44.759 25.853v51.706l-44.759 25.854-44.759-25.854v-51.706zm90.847 0l44.759-25.853 44.759 25.853v51.706l-44.759 25.854-44.759-25.854v-51.706zm45.424 78.714l44.76-25.854 44.759 25.854v51.705L457.953 99.8l-44.76-25.854V22.241z"/><use href="#N"/><path d="M640.31-56.473l44.759-25.853 44.759 25.853v51.706l-44.759 25.854L640.31-4.767v-51.706zm45.423 78.714l44.76-25.854 44.759 25.854v51.705L730.493 99.8l-44.76-25.854V22.241zm45.425-78.714l44.759-25.853 44.76 25.853v51.706l-44.76 25.854-44.759-25.854v-51.706zm45.422 78.714l44.759-25.854 44.76 25.854v51.705L821.339 99.8 776.58 73.946V22.241z"/><use href="#O"/><path d="M867.428 22.241l44.759-25.854 44.759 25.854v51.705L912.187 99.8l-44.759-25.854V22.241zm-363.387 0L548.8-3.613l44.759 25.854v51.705L548.8 99.8l-44.759-25.854V22.241zm45.421 78.714l44.759-25.854 44.759 25.854v51.705l-44.759 25.854-44.759-25.854v-51.705zm45.426-78.714l44.759-25.854 44.759 25.854v51.705L639.647 99.8l-44.759-25.854V22.241zm45.422 78.714l44.759-25.854 44.759 25.854v51.705l-44.759 25.854-44.759-25.854v-51.705z"/><use href="#P"/><use href="#Q" class="D"/><use href="#R" class="D"/><path d="M822.003-56.473l44.759-25.853 44.759 25.853v51.706l-44.759 25.854-44.759-25.854v-51.706zm90.85 0l44.759-25.853 44.758 25.853v51.706l-44.758 25.854-44.759-25.854v-51.706zm45.423 78.714l44.764-25.854 44.75 25.854v51.705L1003.04 99.8l-44.764-25.854V22.241zm45.424-78.714l44.76-25.853 44.76 25.853v51.706l-44.76 25.854-44.76-25.854v-51.706zM504.11 494.522l44.736-25.854 44.738 25.854v51.705l-44.738 25.854-44.736-25.854v-51.705zm90.802 0l44.736-25.854 44.736 25.854v51.705l-44.736 25.854-44.736-25.854v-51.705zm181.603-157.427l44.736-25.854 44.737 25.854V388.8l-44.737 25.854-44.736-25.854v-51.705zm45.4 78.713l44.736-25.853 44.736 25.853v51.706l-44.736 25.853-44.736-25.853v-51.706zm45.401-78.713l44.737-25.854 44.736 25.854V388.8l-44.736 25.854-44.737-25.854v-51.705zm45.4 78.713l44.737-25.853 44.737 25.853v51.706l-44.737 25.853-44.737-25.853v-51.706zm45.401 78.714l44.733-25.854 44.74 25.854v51.705l-44.74 25.854-44.733-25.854v-51.705zm45.403-78.714l44.73-25.853 44.74 25.853v51.706l-44.74 25.853-44.73-25.853v-51.706zm-363.208 0l44.737-25.853 44.736 25.853v51.706l-44.736 25.853-44.737-25.853v-51.706z"/><use href="#S"/><path d="M731.113 415.808l44.736-25.853 44.738 25.853v51.706l-44.738 25.853-44.736-25.853v-51.706zm45.402 78.714l44.736-25.854 44.737 25.854v51.705l-44.737 25.854-44.736-25.854v-51.705zm90.801 0l44.737-25.854 44.736 25.854v51.705l-44.736 25.854-44.737-25.854v-51.705zm181.604 0l44.73-25.854 44.74 25.854v51.705l-44.74 25.854-44.73-25.854v-51.705zm90.8 0l44.74-25.854 44.73 25.854v51.705l-44.73 25.854-44.74-25.854v-51.705z"/><use href="#T"/><use href="#U"/><path d="M186.07 258.382l44.76-25.854 44.758 25.854v51.705L230.83 335.94l-44.76-25.853v-51.705z"/><use href="#V"/><use href="#W"/><path d="M322.341 337.095l44.759-25.854 44.759 25.854V388.8L367.1 414.654 322.341 388.8v-51.705z"/><use href="#X"/><path d="M413.187 494.522l44.759-25.854 44.759 25.854v51.705l-44.759 25.854-44.759-25.854v-51.705z"/><path d="M458.61 415.808l44.76-25.853 44.759 25.853v51.706l-44.759 25.853-44.76-25.853v-51.706z" class="D"/><path d="M95.224 415.808l44.759-25.853 44.759 25.853v51.706l-44.759 25.853-44.759-25.853v-51.706zm45.42 78.714l44.759-25.854 44.759 25.854v51.705l-44.759 25.854-44.759-25.854v-51.705zm45.426-78.714l44.76-25.853 44.758 25.853v51.706l-44.758 25.853-44.76-25.853v-51.706zm45.422 78.714l44.76-25.854 44.759 25.854v51.705l-44.759 25.854-44.76-25.854v-51.705zm90.849 0l44.759-25.854 44.759 25.854v51.705L367.1 572.081l-44.759-25.854v-51.705z"/><path d="M231.492 22.241l44.76-25.854 44.759 25.854v51.705L276.252 99.8l-44.76-25.854V22.241z" class="D"/><path d="M276.917 100.955l44.759-25.854 44.759 25.854v51.705l-44.759 25.854-44.759-25.854v-51.705zm45.424-78.714L367.1-3.613l44.759 25.854v51.705L367.1 99.8l-44.759-25.854V22.241zm45.422 78.714l44.76-25.854 44.759 25.854v51.705l-44.759 25.854-44.76-25.854v-51.705zm45.424 78.713l44.759-25.854 44.759 25.854v51.705l-44.759 25.854-44.759-25.854v-51.705zm45.423-78.713l44.76-25.854 44.759 25.854v51.705l-44.759 25.854-44.76-25.854v-51.705zm-363.386 0l44.759-25.854 44.759 25.854v51.705l-44.759 25.854-44.759-25.854v-51.705zm45.42 78.713l44.759-25.854 44.759 25.854v51.705l-44.759 25.854-44.759-25.854v-51.705zm45.426-78.713l44.76-25.854 44.758 25.854v51.705l-44.758 25.854-44.76-25.854v-51.705zm45.422 78.713l44.76-25.854 44.759 25.854v51.705l-44.759 25.854-44.76-25.854v-51.705zm45.425 78.714l44.759-25.854 44.759 25.854v51.705l-44.759 25.853-44.759-25.853v-51.705zm45.424-78.714l44.759-25.854 44.759 25.854v51.705L367.1 257.227l-44.759-25.854v-51.705zm181.694 0l44.759-25.854 44.76 25.854v51.705l-44.76 25.854-44.759-25.854v-51.705zm45.425 78.714l44.759-25.854 44.759 25.854v51.705l-44.759 25.853-44.759-25.853v-51.705zm45.42-78.714l44.759-25.854 44.759 25.854v51.705l-44.759 25.854-44.759-25.854v-51.705zm45.426 78.714l44.759-25.854 44.759 25.854v51.705l-44.759 25.853-44.759-25.853v-51.705zm45.423 78.713l44.76-25.854 44.759 25.854V388.8l-44.759 25.854-44.76-25.854v-51.705zm45.421-78.714l44.76-25.854 44.759 25.854v51.705L775.91 335.94l-44.76-25.854v-51.705zm-363.387.001l44.76-25.854 44.759 25.854v51.705l-44.759 25.853-44.76-25.853v-51.705zm45.424 78.713l44.759-25.854 44.759 25.854V388.8l-44.759 25.854-44.759-25.854v-51.705zm45.423-78.713l44.76-25.854 44.759 25.854v51.705L503.37 335.94l-44.76-25.853v-51.705zm45.425 78.713l44.759-25.854 44.76 25.854V388.8l-44.76 25.854-44.759-25.854v-51.705zm45.425 78.713l44.759-25.853 44.759 25.853v51.706l-44.759 25.853-44.759-25.853v-51.706zm45.42-78.713l44.759-25.854 44.759 25.854V388.8l-44.759 25.854L594.88 388.8v-51.705z"/></g></g><defs><radialGradient id="B" cx="0" cy="0" r="1" gradientUnits="userSpaceOnUse" gradientTransform="translate(798.5 239) rotate(90) scale(469.525 785.894)"><stop stop-color="#d9d9d9" stop-opacity=".16"/><stop offset=".802" stop-color="#d9d9d9" stop-opacity="0"/></radialGradient><clipPath id="C"><path d="M0 0h1436v478H0z" class="D"/></clipPath><path id="D" d="M912.928 100.955l44.736-25.854 44.736 25.854v51.705l-44.736 25.854-44.736-25.854v-51.705z"/><path id="E" d="M1003.73 100.955l44.73-25.854 44.74 25.854v51.705l-44.74 25.854-44.73-25.854v-51.705z"/><path id="F" d="M1049.13 179.668l44.74-25.854 44.73 25.854v51.705l-44.73 25.854-44.74-25.854v-51.705z"/><path id="G" d="M1094.53 258.382l44.74-25.854 44.73 25.854v51.705l-44.73 25.853-44.74-25.853v-51.705z"/><path id="H" d="M776.725 179.668l44.736-25.854 44.737 25.854v51.705l-44.737 25.854-44.736-25.854v-51.705z"/><path id="I" d="M822.126 258.382l44.736-25.854 44.736 25.854v51.705l-44.736 25.853-44.736-25.853v-51.705z"/><path id="J" d="M1230.73 337.095l44.74-25.854 44.73 25.854V388.8l-44.73 25.854-44.74-25.854v-51.705z"/><path id="K" d="M1366.93 415.808l44.74-25.853 44.73 25.853v51.706l-44.73 25.853-44.74-25.853v-51.706z"/><path id="L" d="M1185.33-56.473l44.74-25.853 44.73 25.853v51.706l-44.73 25.854-44.74-25.854v-51.706z"/><path id="M" d="M549.462-56.473l44.759-25.853 44.759 25.853v51.706l-44.759 25.854-44.759-25.854v-51.706z"/><path id="N" d="M458.617-56.473l44.759-25.853 44.76 25.853v51.706l-44.76 25.854-44.759-25.854v-51.706z"/><path id="O" d="M822.003 100.955l44.759-25.854 44.759 25.854v51.705l-44.759 25.854-44.759-25.854v-51.705z"/><path id="P" d="M685.733 179.668l44.76-25.854 44.759 25.854v51.705l-44.759 25.854-44.76-25.854v-51.705z"/><path id="Q" d="M731.158 100.955l44.759-25.854 44.76 25.854v51.705l-44.76 25.854-44.759-25.854v-51.705z"/><path id="R" d="M1094.55-56.473l44.76-25.853 44.76 25.853v51.706l-44.76 25.854-44.76-25.854v-51.706z"/><path id="S" d="M685.713 494.522l44.737-25.854 44.736 25.854v51.705l-44.736 25.854-44.737-25.854v-51.705z"/><path id="T" d="M95.224 258.382l44.759-25.854 44.759 25.854v51.705l-44.759 25.853-44.759-25.853v-51.705z"/><path id="U" d="M140.644 337.095l44.759-25.854 44.759 25.854V388.8l-44.759 25.854-44.759-25.854v-51.705z"/><path id="V" d="M231.492 337.095l44.76-25.854 44.759 25.854V388.8l-44.759 25.854-44.76-25.854v-51.705z"/><path id="W" d="M276.917 415.808l44.759-25.853 44.759 25.853v51.706l-44.759 25.853-44.759-25.853v-51.706z"/><path id="X" d="M367.763 415.808l44.76-25.853 44.759 25.853v51.706l-44.759 25.853-44.76-25.853v-51.706z"/></defs></svg>