<svg xmlns="http://www.w3.org/2000/svg" width="1436" height="478" fill="none" xmlns:v="https://vecta.io/nano"><style><![CDATA[.B{stroke:#fff}.C{stroke-width:.766}]]></style><g opacity=".2"><mask id="A" maskUnits="userSpaceOnUse" x="161" y="-142" width="1275" height="762" mask-type="alpha"><path d="M1436-141.868H161v761.736h1275v-761.736z" fill="url(#B)"/></mask><g mask="url(#A)" class="B C"><use href="#C"/><path d="M958.328 179.668l44.742-25.854 44.73 25.854v51.705l-44.73 25.854-44.742-25.854v-51.705z"/><use href="#D"/><use href="#D" x="45.4" y="78.713"/><use href="#E"/><use href="#D" x="136.2" y="78.713"/><use href="#F"/><use href="#G"/><path d="M867.527 179.668l44.737-25.854L957 179.668v51.705l-44.736 25.854-44.737-25.854v-51.705z"/><use href="#H"/><path d="M958.328 337.095l44.742-25.854 44.73 25.854V388.8l-44.73 25.854-44.742-25.854v-51.705z"/><use href="#E" x="-90.8"/><use href="#E" x="90.8"/><use href="#I"/><use href="#E" x="181.6"/><use href="#I" x="90.8"/><use href="#E" x="272.4" y="157.427"/><path d="M1412.33 337.095l44.75-25.854 44.73 25.854V388.8l-44.73 25.854-44.75-25.854v-51.705z"/><use href="#I" x="-181.6" fill="#fff"/><use href="#E" y="157.427"/><use href="#I" x="-90.8"/><use href="#E" x="90.8" y="157.427"/><use href="#D" x="227" y="393.567"/><use href="#E" x="181.6" y="157.427"/><use href="#J"/><path d="M1230.73 22.241l44.74-25.854 44.73 25.854v51.705L1275.47 99.8l-44.74-25.854V22.241z"/><use href="#J" x="90.8"/><path d="M1321.53 22.241l44.74-25.854L1411 22.241v51.705L1366.27 99.8l-44.74-25.854V22.241z"/><use href="#D" x="363.2"/><path d="M1412.33 22.241l44.75-25.854 44.73 25.854v51.705L1457.08 99.8l-44.75-25.854V22.241zm-363.2 0l44.74-25.854 44.73 25.854v51.705L1093.87 99.8l-44.74-25.854V22.241z"/><use href="#D" x="90.8"/><path d="M1139.93 22.241l44.74-25.854 44.73 25.854v51.705L1184.67 99.8l-44.74-25.854V22.241z"/><use href="#D" x="181.6"/><use href="#D" x="227" y="78.713"/><use href="#D" x="272.4"/><use href="#D" x="317.8" y="78.713"/><use href="#E" x="272.4"/><path d="M1412.33 179.668l44.75-25.854 44.73 25.854v51.705l-44.73 25.854-44.75-25.854v-51.705z"/><use href="#K"/><path d="M276.922-56.473l44.76-25.853 44.759 25.853v51.706l-44.759 25.854-44.76-25.854v-51.706zm90.848 0l44.759-25.853 44.759 25.853v51.706l-44.759 25.854L367.77-4.767v-51.706zm45.423 78.714l44.76-25.854 44.759 25.854v51.705L457.953 99.8l-44.76-25.854V22.241z"/><use href="#L"/><path d="M640.31-56.473l44.759-25.853 44.759 25.853v51.706l-44.759 25.854L640.31-4.767v-51.706zm45.424 78.714l44.759-25.854 44.759 25.854v51.705L730.493 99.8l-44.759-25.854V22.241z"/><use href="#L" x="272.542"/><path d="M776.581 22.241L821.34-3.613l44.76 25.854v51.705L821.34 99.8l-44.759-25.854V22.241z"/><use href="#M"/><path d="M867.428 22.241l44.759-25.854 44.759 25.854v51.705L912.187 99.8l-44.759-25.854V22.241zm-363.387 0L548.8-3.613l44.759 25.854v51.705L548.8 99.8l-44.759-25.854V22.241z"/><use href="#M" x="-272.542"/><path d="M594.888 22.241l44.759-25.854 44.76 25.854v51.705L639.647 99.8l-44.759-25.854V22.241z"/><use href="#M" x="-181.694"/><use href="#M" x="-136.27" y="78.713"/><use href="#N" fill="#fff"/><use href="#O" fill="#fff"/><use href="#K" x="272.542"/><path d="M912.853-56.473l44.759-25.853 44.758 25.853v51.706l-44.758 25.854-44.759-25.854v-51.706zm45.424 78.714l44.763-25.854 44.76 25.854v51.705L1003.04 99.8l-44.763-25.854V22.241z"/><use href="#O" x="-90.85"/><path d="M504.11 494.522l44.736-25.854 44.738 25.854v51.705l-44.738 25.854-44.736-25.854v-51.705z"/><use href="#C" x="-318.015" y="393.567"/><path d="M776.515 337.095l44.736-25.854 44.737 25.854V388.8l-44.737 25.854-44.736-25.854v-51.705z"/><use href="#H" x="-91.012" y="157.427"/><path d="M867.317 337.095l44.736-25.854 44.736 25.854V388.8l-44.736 25.854-44.736-25.854v-51.705z"/><use href="#G" x="90.591" y="157.427"/><path d="M958.117 494.522l44.733-25.854 44.74 25.854v51.705l-44.74 25.854-44.733-25.854v-51.705zm45.403-78.714l44.73-25.853 44.74 25.853v51.706l-44.74 25.853-44.73-25.853v-51.706z"/><use href="#H" x="-272.615" y="157.427"/><path d="M685.713 494.522l44.737-25.854 44.736 25.854v51.705l-44.736 25.854-44.737-25.854v-51.705zm45.401-78.714l44.736-25.853 44.738 25.853v51.706l-44.738 25.853-44.736-25.853v-51.706z"/><use href="#F" x="-0.211" y="314.854"/><use href="#C" x="-45.611" y="393.567"/><use href="#D" x="45.19" y="393.567"/><use href="#D" x="135.99" y="393.567"/><use href="#P"/><use href="#Q"/><path d="M186.071 258.381l44.759-25.853 44.759 25.853v51.706L230.83 335.94l-44.759-25.853v-51.706z"/><use href="#R"/><use href="#S"/><path d="M322.341 337.095l44.76-25.854 44.759 25.854V388.8l-44.759 25.854-44.76-25.854v-51.705z"/><use href="#T"/><use href="#M" x="-408.817" y="393.567"/><use href="#U" fill="#fff"/><use href="#P" y="157.427"/><use href="#M" x="-681.359" y="393.567"/><use href="#U" x="-272.54"/><use href="#N" x="-499.666" y="393.567"/><use href="#V"/><path d="M231.493 22.241l44.759-25.854 44.76 25.854v51.705L276.252 99.8l-44.759-25.854V22.241z" fill="#fff"/><use href="#V" x="-45.424" y="-393.567"/><path d="M322.341 22.241l44.76-25.854 44.759 25.854v51.705L367.101 99.8l-44.76-25.854V22.241zm45.422 78.714l44.76-25.854 44.76 25.854v51.705l-44.76 25.854-44.76-25.854v-51.705z"/><use href="#M" x="-408.817" y="78.713"/><use href="#M" x="-363.393"/><use href="#N" x="-635.935"/><use href="#M" x="-681.359" y="78.713"/><use href="#M" x="-635.933"/><use href="#N" x="-499.666" y="78.713"/><use href="#S" y="-157.427"/><use href="#V" y="-314.854"/><use href="#N" x="-227.124" y="78.713"/><use href="#U" x="90.849" y="-157.427"/><use href="#M" x="-227.123" y="78.713"/><use href="#U" x="181.695" y="-157.427"/><path d="M685.73 337.095l44.759-25.854 44.759 25.854V388.8l-44.759 25.854L685.73 388.8v-51.705z"/><use href="#S" x="454.234" y="-157.427"/><use href="#T" y="-157.427"/><use href="#Q" x="272.542"/><path d="M458.611 258.381l44.759-25.853 44.759 25.853v51.706L503.37 335.94l-44.759-25.853v-51.706z"/><use href="#R" x="272.542"/><use href="#U" x="90.849"/><use href="#Q" x="454.236"/></g></g><defs><radialGradient id="B" cx="0" cy="0" r="1" gradientUnits="userSpaceOnUse" gradientTransform="translate(798.5 239) rotate(90) scale(469.525 785.894)"><stop stop-color="#d9d9d9" stop-opacity=".16"/><stop offset=".802" stop-color="#d9d9d9" stop-opacity="0"/></radialGradient><path id="C" d="M912.928 100.955l44.736-25.854 44.736 25.854v51.705l-44.736 25.854-44.736-25.854v-51.705z"/><path id="D" d="M1003.73 100.955l44.74-25.854 44.73 25.854v51.705l-44.73 25.854-44.74-25.854v-51.705z"/><path id="E" d="M1094.53 258.381l44.74-25.853 44.73 25.853v51.706l-44.73 25.853-44.74-25.853v-51.706z"/><path id="F" d="M776.726 179.668l44.736-25.854 44.737 25.854v51.705l-44.737 25.854-44.736-25.854v-51.705z"/><path id="G" d="M822.126 258.381l44.737-25.853 44.736 25.853v51.706l-44.736 25.853-44.737-25.853v-51.706z"/><path id="H" d="M912.928 258.381l44.736-25.853 44.736 25.853v51.706l-44.736 25.853-44.736-25.853v-51.706z"/><path id="I" d="M1230.73 337.095l44.74-25.854 44.73 25.854V388.8l-44.73 25.854-44.74-25.854v-51.705z"/><path id="J" d="M1185.33-56.473l44.74-25.853 44.73 25.853v51.706l-44.73 25.854-44.74-25.854v-51.706z"/><path id="K" d="M549.462-56.473l44.759-25.853 44.759 25.853v51.706l-44.759 25.854-44.759-25.854v-51.706z"/><path id="L" d="M458.617-56.473l44.759-25.853 44.76 25.853v51.706l-44.76 25.854-44.759-25.854v-51.706z"/><path id="M" d="M822.004 100.955l44.759-25.854 44.759 25.854v51.705l-44.759 25.854-44.759-25.854v-51.705z"/><path id="N" d="M731.159 100.955l44.759-25.854 44.76 25.854v51.705l-44.76 25.854-44.759-25.854v-51.705z"/><path id="O" d="M1094.55-56.473l44.76-25.853 44.76 25.853v51.706l-44.76 25.854-44.76-25.854v-51.706z"/><path id="P" d="M95.224 258.381l44.759-25.853 44.76 25.853v51.706l-44.76 25.853-44.759-25.853v-51.706z"/><path id="Q" d="M140.645 337.095l44.759-25.854 44.759 25.854V388.8l-44.759 25.854-44.759-25.854v-51.705z"/><path id="R" d="M231.493 337.095l44.759-25.854 44.76 25.854V388.8l-44.76 25.854-44.759-25.854v-51.705z"/><path id="S" d="M276.917 415.808l44.76-25.853 44.759 25.853v51.706l-44.759 25.853-44.76-25.853v-51.706z"/><path id="T" d="M367.763 415.808l44.76-25.853 44.76 25.853v51.706l-44.76 25.853-44.76-25.853v-51.706z"/><path id="U" d="M458.611 415.808l44.759-25.853 44.759 25.853v51.706l-44.759 25.853-44.759-25.853v-51.706z"/><path id="V" d="M322.341 494.522l44.76-25.854 44.759 25.854v51.705l-44.759 25.854-44.76-25.854v-51.705z"/></defs></svg>